0
SECTION
2
HEADER
9
$FASTZOOM
70
1
9
$COORDS
70
1
9
$LTSCALE
40
 1.00000000000000E+0000
9
$EXTMIN
10
539021.2917187
20
4477596.804943
9
$EXTMAX
10
539572.5669813
20
4477865.299526
9
$LIMMIN
10
539190.8625000
20
4477601.968300
9
$LIMMAX
10
539402.9962000
20
4477860.136168
0
ENDSEC
0
SECTION
2
TABLES
0
TABLE
2
LTYPE
70
  2
0
LTYPE
2
DUZ
70
  64
3
Description:
72
  65
73
  1
40
500.000000
49
500.000000
0
ENDTAB
0
TABLE
2
LAYER
70
 15
0
LAYER
2
0
70
0
62
  1
6
DUZ
0
LAYER
2
KAT_1395
70
0
62
102
6
DUZ
0
LAYER
2
XKAT
70
0
62
 10
6
DUZ
0
LAYER
2
XPERSONEL
70
0
62
  3
6
DUZ
0
LAYER
2
PERSONEL_1395
70
0
62
  4
6
DUZ
0
ENDTAB
0
TABLE
2
STYLE
70
  3
0
STYLE
2
BOOKMAN OLD STYLE
3
TXT.SHX
70
64
71
0
40
1.0
41
1.0
50
0.0
42
1.0
0
STYLE
2
F1
3
TXT.SHX
70
64
71
0
40
1.0
41
1.0
50
0.0
42
1.0
0
STYLE
2
ARIAL
3
TXT.SHX
70
64
71
0
40
1.0
41
1.0
50
0.0
42
1.0
0
ENDTAB
0
ENDSEC
0
SECTION
2
BLOCKS
0
ENDSEC
0
SECTION
2
ENTITIES
0
LINE
8
KAT_1395
10
539231.0957785
20
4477760.142490
30
1409.956909
11
539229.9007358
21
4477764.032390
31
1409.051270
0
LINE
8
KAT_1395
10
539229.9007358
20
4477764.032390
30
1409.051270
11
539229.9952954
21
4477765.744534
31
1408.719482
0
LINE
8
KAT_1395
10
539229.9952954
20
4477765.744534
30
1408.719482
11
539229.8052638
21
4477768.449395
31
1408.454956
0
LINE
8
KAT_1395
10
539229.8052638
20
4477768.449395
30
1408.454956
11
539229.6123348
21
4477770.428135
31
1408.279663
0
LINE
8
KAT_1395
10
539233.9382494
20
4477770.966357
30
1407.902466
11
539234.2885170
21
4477769.028303
31
1408.494019
0
LINE
8
KAT_1395
10
539234.2885170
20
4477769.028303
30
1408.494019
11
539234.7270525
21
4477766.007564
31
1408.915039
0
LINE
8
KAT_1395
10
539234.7270525
20
4477766.007564
30
1408.915039
11
539235.5767291
21
4477762.452534
31
1409.608398
0
LINE
8
KAT_1395
10
539235.5767291
20
4477762.452534
30
1409.608398
11
539236.0578472
21
4477759.833641
31
1410.331055
0
LINE
8
KAT_1395
10
539229.6123348
20
4477770.428135
30
1408.279663
11
539228.8888114
21
4477772.893285
31
1408.370239
0
LINE
8
KAT_1395
10
539233.9382494
20
4477770.966357
30
1407.902466
11
539233.8864643
21
4477773.482991
31
1407.497070
0
LINE
8
KAT_1395
10
539233.8864643
20
4477773.482991
30
1407.497070
11
539234.2060260
21
4477780.168029
31
1406.612061
0
LINE
8
KAT_1395
10
539234.2060260
20
4477780.168029
30
1406.612061
11
539234.9143439
21
4477783.252850
31
1406.225220
0
LINE
8
KAT_1395
10
539229.5164443
20
4477783.831493
30
1406.346191
11
539229.2958379
21
4477780.146005
31
1406.713379
0
LINE
8
KAT_1395
10
539229.2958379
20
4477780.146005
30
1406.713379
11
539228.8442221
21
4477776.072065
31
1407.110352
0
LINE
8
KAT_1395
10
539228.8442221
20
4477776.072065
30
1407.110352
11
539228.8888114
21
4477772.893285
31
1408.370239
0
LINE
8
KAT_1395
10
539235.2282176
20
4477785.210701
30
1406.048218
11
539234.9143439
21
4477783.252850
31
1406.225220
0
LINE
8
KAT_1395
10
539229.5164443
20
4477783.831493
30
1406.346191
11
539229.4032846
21
4477785.678884
31
1405.963257
0
LINE
8
KAT_1395
10
539229.4032846
20
4477785.678884
30
1405.963257
11
539229.8368089
21
4477788.985118
31
1405.452759
0
LINE
8
KAT_1395
10
539229.8368089
20
4477788.985118
30
1405.452759
11
539230.4307764
21
4477789.575296
31
1405.319458
0
LINE
8
KAT_1395
10
539230.4307764
20
4477789.575296
30
1405.319458
11
539230.7189617
21
4477790.779336
31
1405.294922
0
LINE
8
KAT_1395
10
539230.7189617
20
4477790.779336
30
1405.294922
11
539231.5764266
21
4477791.397304
31
1405.116211
0
LINE
8
KAT_1395
10
539236.1158640
20
4477789.063829
30
1405.304810
11
539235.4468294
21
4477786.695033
31
1405.798218
0
LINE
8
KAT_1395
10
539235.4468294
20
4477786.695033
30
1405.798218
11
539235.2282176
21
4477785.210701
31
1406.048218
0
LINE
8
KAT_1395
10
539231.5764266
20
4477791.397304
30
1405.116211
11
539232.4344886
21
4477793.290284
31
1404.943359
0
LINE
8
KAT_1395
10
539232.4344886
20
4477793.290284
30
1404.943359
11
539232.9367889
21
4477795.261631
31
1404.768433
0
LINE
8
KAT_1395
10
539237.9981221
20
4477793.419570
30
1404.874512
11
539236.1158640
21
4477789.063829
31
1405.304810
0
LINE
8
KAT_1395
10
539232.9367889
20
4477795.261631
30
1404.768433
11
539235.7332942
21
4477798.125151
31
1404.405640
0
LINE
8
KAT_1395
10
539239.2952124
20
4477795.684410
30
1404.629150
11
539237.9981221
21
4477793.419570
31
1404.874512
0
LINE
8
KAT_1395
10
539235.7332942
20
4477798.125151
30
1404.405640
11
539237.2014172
21
4477800.697873
31
1404.063721
0
LINE
8
KAT_1395
10
539237.2014172
20
4477800.697873
30
1404.063721
11
539237.9716166
21
4477801.046345
31
1404.081177
0
LINE
8
KAT_1395
10
539237.9716166
20
4477801.046345
30
1404.081177
11
539239.4268468
21
4477802.588662
31
1403.738159
0
LINE
8
KAT_1395
10
539243.1643020
20
4477798.595209
30
1403.909058
11
539240.9960464
21
4477797.507222
31
1404.314941
0
LINE
8
KAT_1395
10
539240.9960464
20
4477797.507222
30
1404.314941
11
539239.2952124
21
4477795.684410
31
1404.629150
0
LINE
8
KAT_1395
10
539239.4268468
20
4477802.588662
30
1403.738159
11
539240.3542852
21
4477802.838173
31
1403.518188
0
LINE
8
KAT_1395
10
539240.3542852
20
4477802.838173
30
1403.518188
11
539241.8285089
21
4477803.955954
31
1403.283447
0
LINE
8
KAT_1395
10
539245.6271226
20
4477800.262892
30
1403.430298
11
539243.1643020
21
4477798.595209
31
1403.909058
0
LINE
8
KAT_1395
10
539244.2197734
20
4477806.097948
30
1402.639160
11
539241.8285089
21
4477803.955954
31
1403.283447
0
LINE
8
KAT_1395
10
539244.2197734
20
4477806.097948
30
1402.639160
11
539246.2947618
21
4477807.891073
31
1402.320923
0
LINE
8
KAT_1395
10
539246.2947618
20
4477807.891073
30
1402.320923
11
539247.4552091
21
4477808.304023
31
1402.320923
0
LINE
8
KAT_1395
10
539251.2158512
20
4477805.289404
30
1402.320923
11
539249.3354862
21
4477803.879232
31
1402.320923
0
LINE
8
KAT_1395
10
539249.3354862
20
4477803.879232
30
1402.320923
11
539247.7559051
21
4477801.994145
31
1402.320923
0
LINE
8
KAT_1395
10
539247.7559051
20
4477801.994145
30
1402.320923
11
539245.6271226
21
4477800.262892
31
1403.430298
0
LINE
8
KAT_1395
10
539247.4552091
20
4477808.304023
30
1402.320923
11
539249.0411895
21
4477809.351431
31
1401.871582
0
LINE
8
KAT_1395
10
539249.0411895
20
4477809.351431
30
1401.871582
11
539251.2087424
21
4477810.838175
31
1401.599243
0
LINE
8
KAT_1395
10
539253.4959599
20
4477806.997763
30
1401.614746
11
539251.2158512
21
4477805.289404
31
1402.320923
0
LINE
8
KAT_1395
10
539253.4959599
20
4477806.997763
30
1401.614746
11
539255.7913630
21
4477808.505600
31
1401.205688
0
LINE
8
KAT_1395
10
539253.3786946
20
4477812.281835
30
1401.345215
11
539251.2087424
21
4477810.838175
31
1401.599243
0
LINE
8
KAT_1395
10
539253.3786946
20
4477812.281835
30
1401.345215
11
539257.9356129
21
4477815.890381
31
1400.028931
0
LINE
8
KAT_1395
10
539260.8179988
20
4477811.953610
30
1399.980957
11
539255.7913630
21
4477808.505600
31
1401.205688
0
LINE
8
KAT_1395
10
539257.9356129
20
4477815.890381
30
1400.028931
11
539260.0751764
21
4477817.542961
31
1399.773315
0
LINE
8
KAT_1395
10
539263.0509256
20
4477813.762531
30
1399.531616
11
539260.8179988
21
4477811.953610
31
1399.980957
0
LINE
8
KAT_1395
10
539260.0751764
20
4477817.542961
30
1399.773315
11
539262.5349152
21
4477819.228930
31
1399.773315
0
LINE
8
KAT_1395
10
539265.4940706
20
4477815.612637
30
1399.773315
11
539263.0509256
21
4477813.762531
31
1399.531616
0
LINE
8
KAT_1395
10
539265.4940706
20
4477815.612637
30
1399.773315
11
539267.4597033
21
4477816.544692
31
1399.772949
0
LINE
8
KAT_1395
10
539264.9839586
20
4477820.716676
30
1399.772949
11
539262.5349152
21
4477819.228930
31
1399.773315
0
LINE
8
KAT_1395
10
539264.9839586
20
4477820.716676
30
1399.772949
11
539268.8154650
21
4477821.579170
31
1398.523682
0
LINE
8
KAT_1395
10
539271.9779424
20
4477817.401193
30
1398.527222
11
539269.0035016
21
4477816.836090
31
1398.765259
0
LINE
8
KAT_1395
10
539269.0035016
20
4477816.836090
30
1398.765259
11
539267.4597033
21
4477816.544692
31
1399.772949
0
LINE
8
KAT_1395
10
539271.9779424
20
4477817.401193
30
1398.527222
11
539274.0952171
21
4477817.822345
31
1397.930908
0
LINE
8
KAT_1395
10
539274.0952171
20
4477817.822345
30
1397.930908
11
539277.5449737
21
4477817.956517
31
1397.831543
0
LINE
8
KAT_1395
10
539276.6054280
20
4477823.499984
30
1397.918701
11
539274.8947942
21
4477823.443794
31
1397.920410
0
LINE
8
KAT_1395
10
539274.8947942
20
4477823.443794
30
1397.920410
11
539272.7141431
21
4477823.474168
31
1397.904907
0
LINE
8
KAT_1395
10
539272.7141431
20
4477823.474168
30
1397.904907
11
539271.4864231
21
4477822.544917
31
1397.932861
0
LINE
8
KAT_1395
10
539271.4864231
20
4477822.544917
30
1397.932861
11
539268.8154650
21
4477821.579170
31
1398.523682
0
LINE
8
KAT_1395
10
539277.5449737
20
4477817.956517
30
1397.831543
11
539279.5504924
21
4477818.195138
31
1397.611694
0
LINE
8
KAT_1395
10
539276.6054280
20
4477823.499984
30
1397.918701
11
539277.8135588
21
4477822.914816
31
1397.829956
0
LINE
8
KAT_1395
10
539279.5504924
20
4477818.195138
30
1397.611694
11
539284.4441877
21
4477817.842605
31
1396.699951
0
LINE
8
KAT_1395
10
539284.4441877
20
4477817.842605
30
1396.699951
11
539287.5684710
21
4477817.992368
31
1396.699951
0
LINE
8
KAT_1395
10
539283.9933526
20
4477822.981131
30
1396.859985
11
539280.7528138
21
4477823.241510
31
1396.900024
0
LINE
8
KAT_1395
10
539280.7528138
20
4477823.241510
30
1396.900024
11
539277.8135588
21
4477822.914816
31
1397.829956
0
LINE
8
KAT_1395
10
539287.5684710
20
4477817.992368
30
1396.699951
11
539290.6270807
21
4477817.704999
31
1396.373657
0
LINE
8
KAT_1395
10
539290.6270807
20
4477817.704999
30
1396.373657
11
539293.3662148
21
4477817.437419
31
1396.215454
0
LINE
8
KAT_1395
10
539293.3662148
20
4477817.437419
30
1396.215454
11
539295.6399299
21
4477817.265200
31
1395.987061
0
LINE
8
KAT_1395
10
539306.8248760
20
4477816.812447
30
1396.209961
11
539304.2791636
21
4477818.537169
31
1396.136108
0
LINE
8
KAT_1395
10
539304.2791636
20
4477818.537169
30
1396.136108
11
539301.6712764
21
4477819.744888
31
1396.114258
0
LINE
8
KAT_1395
10
539301.6712764
20
4477819.744888
30
1396.114258
11
539299.4514379
21
4477821.103153
31
1396.231934
0
LINE
8
KAT_1395
10
539291.5051284
20
4477822.733076
30
1396.228760
11
539289.4079449
21
4477822.746157
31
1396.375732
0
LINE
8
KAT_1395
10
539289.4079449
20
4477822.746157
30
1396.375732
11
539283.9933526
21
4477822.981131
31
1396.859985
0
LINE
8
KAT_1395
10
539291.5051284
20
4477822.733076
30
1396.228760
11
539293.8723033
21
4477824.397153
31
1396.189941
0
LINE
8
KAT_1395
10
539293.8723033
20
4477824.397153
30
1396.189941
11
539294.5423376
21
4477826.734460
31
1396.189941
0
LINE
8
KAT_1395
10
539299.6733429
20
4477825.255361
30
1396.189941
11
539298.9520269
21
4477823.754532
31
1396.189941
0
LINE
8
KAT_1395
10
539298.9520269
20
4477823.754532
30
1396.189941
11
539299.0480925
21
4477822.309487
31
1396.189941
0
LINE
8
KAT_1395
10
539299.0480925
20
4477822.309487
30
1396.189941
11
539299.4514379
21
4477821.103153
31
1396.231934
0
LINE
8
KAT_1395
10
539309.7410440
20
4477815.155402
30
1396.189941
11
539309.0356173
21
4477815.832137
31
1396.209961
0
LINE
8
KAT_1395
10
539309.0356173
20
4477815.832137
30
1396.209961
11
539306.8248760
21
4477816.812447
31
1396.209961
0
LINE
8
KAT_1395
10
539295.6399299
20
4477817.265200
30
1395.987061
11
539296.7103144
21
4477816.639547
31
1396.189941
0
LINE
8
KAT_1395
10
539314.7194128
20
4477811.702859
30
1396.189941
11
539313.1255312
21
4477812.752945
31
1396.189941
0
LINE
8
KAT_1395
10
539313.1255312
20
4477812.752945
30
1396.189941
11
539309.7410440
21
4477815.155402
31
1396.189941
0
LINE
8
KAT_1395
10
539299.6733429
20
4477825.255361
30
1396.189941
11
539299.7843969
21
4477826.577555
31
1396.180054
0
LINE
8
KAT_1395
10
539299.7843969
20
4477826.577555
30
1396.180054
11
539300.1837379
21
4477828.290700
31
1396.180054
0
LINE
8
KAT_1395
10
539300.1837379
20
4477828.290700
30
1396.180054
11
539300.9666284
21
4477830.548040
31
1396.180054
0
LINE
8
KAT_1395
10
539296.4061015
20
4477831.791733
30
1396.180054
11
539294.5423376
21
4477826.734460
31
1396.189941
0
LINE
8
KAT_1395
10
539296.4061015
20
4477831.791733
30
1396.180054
11
539297.6986910
21
4477835.265509
31
1396.180054
0
LINE
8
KAT_1395
10
539297.6986910
20
4477835.265509
30
1396.180054
11
539298.6511163
21
4477837.115705
31
1396.180054
0
LINE
8
KAT_1395
10
539303.2225392
20
4477835.759855
30
1396.180054
11
539302.2625177
21
4477833.515110
31
1396.180054
0
LINE
8
KAT_1395
10
539302.2625177
20
4477833.515110
30
1396.180054
11
539300.9666284
21
4477830.548040
31
1396.180054
0
LINE
8
KAT_1395
10
539306.9136544
20
4477810.534756
30
1396.189941
11
539309.2134609
21
4477809.601529
31
1396.180054
0
LINE
8
KAT_1395
10
539309.2134609
20
4477809.601529
30
1396.180054
11
539313.0002918
21
4477807.083819
31
1396.180054
0
LINE
8
KAT_1395
10
539313.0002918
20
4477807.083819
30
1396.180054
11
539316.8659912
21
4477804.904181
31
1396.180054
0
LINE
8
KAT_1395
10
539319.3614117
20
4477808.692244
30
1396.180054
11
539317.4539518
21
4477809.953248
31
1396.180054
0
LINE
8
KAT_1395
10
539317.4539518
20
4477809.953248
30
1396.180054
11
539314.7194128
21
4477811.702859
31
1396.189941
0
LINE
8
KAT_1395
10
539306.9136544
20
4477810.534756
30
1396.189941
11
539304.9184301
21
4477811.081733
31
1396.180054
0
LINE
8
KAT_1395
10
539304.9184301
20
4477811.081733
30
1396.180054
11
539303.3903242
21
4477811.494165
31
1396.180054
0
LINE
8
KAT_1395
10
539303.3903242
20
4477811.494165
30
1396.180054
11
539301.9919713
21
4477810.226642
31
1396.180054
0
LINE
8
KAT_1395
10
539301.9919713
20
4477810.226642
30
1396.180054
11
539300.8828073
21
4477808.216605
31
1396.180054
0
LINE
8
KAT_1395
10
539297.3958623
20
4477809.512985
30
1396.180054
11
539298.3232941
21
4477812.933379
31
1396.180054
0
LINE
8
KAT_1395
10
539298.3232941
20
4477812.933379
30
1396.180054
11
539298.5926850
21
4477814.988493
31
1396.180054
0
LINE
8
KAT_1395
10
539298.5926850
20
4477814.988493
30
1396.180054
11
539297.6896344
21
4477816.004797
31
1396.180054
0
LINE
8
KAT_1395
10
539297.6896344
20
4477816.004797
30
1396.180054
11
539296.7103144
21
4477816.639547
31
1396.189941
0
LINE
8
KAT_1395
10
539297.3958623
20
4477809.512985
30
1396.180054
11
539296.7434230
21
4477806.272124
31
1396.180054
0
LINE
8
KAT_1395
10
539296.7434230
20
4477806.272124
30
1396.180054
11
539300.1833857
21
4477805.290923
31
1396.180054
0
LINE
8
KAT_1395
10
539300.1833857
20
4477805.290923
30
1396.180054
11
539300.8828073
21
4477808.216605
31
1396.180054
0
LINE
8
KAT_1395
10
539319.3614117
20
4477808.692244
30
1396.180054
11
539322.1548280
21
4477806.820480
31
1396.180054
0
LINE
8
KAT_1395
10
539319.4983706
20
4477802.815399
30
1396.180054
11
539316.8659912
21
4477804.904181
31
1396.180054
0
LINE
8
KAT_1395
10
539319.4983706
20
4477802.815399
30
1396.180054
11
539323.8216939
21
4477799.638246
31
1396.588013
0
LINE
8
KAT_1395
10
539326.7619411
20
4477803.489488
30
1396.662354
11
539322.1548280
21
4477806.820480
31
1396.180054
0
LINE
8
KAT_1395
10
539303.2225392
20
4477835.759855
30
1396.180054
11
539304.5772063
21
4477838.393953
31
1396.715210
0
LINE
8
KAT_1395
10
539300.1992073
20
4477840.128759
30
1396.644287
11
539298.6511163
21
4477837.115705
31
1396.180054
0
LINE
8
KAT_1395
10
539300.1992073
20
4477840.128759
30
1396.644287
11
539302.5160978
21
4477843.729593
31
1396.745850
0
LINE
8
KAT_1395
10
539302.5160978
20
4477843.729593
30
1396.745850
11
539304.8418839
21
4477847.770858
31
1396.703857
0
LINE
8
KAT_1395
10
539326.7619411
20
4477803.489488
30
1396.662354
11
539329.0693473
21
4477801.276252
31
1396.749756
0
LINE
8
KAT_1395
10
539329.0693473
20
4477801.276252
30
1396.749756
11
539334.7312528
21
4477796.482028
31
1396.768066
0
LINE
8
KAT_1395
10
539304.8418839
20
4477847.770858
30
1396.703857
11
539306.9696486
21
4477851.035220
31
1396.765991
0
LINE
8
KAT_1395
10
539338.3679467
20
4477791.743670
30
1396.793213
11
539336.9836812
21
4477793.897334
31
1396.793823
0
LINE
8
KAT_1395
10
539336.9836812
20
4477793.897334
30
1396.793823
11
539334.7312528
21
4477796.482028
31
1396.768066
0
LINE
8
KAT_1395
10
539306.9696486
20
4477851.035220
30
1396.765991
11
539310.7309732
21
4477856.335111
31
1396.341797
0
LINE
8
KAT_1395
10
539310.7309732
20
4477856.335111
30
1396.341797
11
539313.0041802
21
4477860.136168
31
1396.163696
0
LINE
8
KAT_1395
10
539313.0041802
20
4477860.136168
30
1396.163696
11
539317.3688867
21
4477857.330173
31
1396.303955
0
LINE
8
KAT_1395
10
539317.3688867
20
4477857.330173
30
1396.303955
11
539315.9261522
21
4477855.486571
31
1396.399292
0
LINE
8
KAT_1395
10
539315.9261522
20
4477855.486571
30
1396.399292
11
539314.2981925
21
4477852.394147
31
1396.306152
0
LINE
8
KAT_1395
10
539314.2981925
20
4477852.394147
30
1396.306152
11
539313.2480048
21
4477850.713984
31
1396.356689
0
LINE
8
KAT_1395
10
539311.3957408
20
4477843.559017
30
1396.467651
11
539308.6169233
21
4477843.295999
31
1396.564697
0
LINE
8
KAT_1395
10
539308.6169233
20
4477843.295999
30
1396.564697
11
539306.4047890
21
4477841.200489
31
1396.674683
0
LINE
8
KAT_1395
10
539306.4047890
20
4477841.200489
30
1396.674683
11
539304.5772063
21
4477838.393953
31
1396.715210
0
LINE
8
KAT_1395
10
539311.3957408
20
4477843.559017
30
1396.467651
11
539313.5666000
21
4477843.265900
31
1396.445068
0
LINE
8
KAT_1395
10
539316.7305000
20
4477848.340200
30
1396.600098
11
539314.1597000
21
4477848.603800
31
1396.583740
0
LINE
8
KAT_1395
10
539314.1597000
20
4477848.603800
30
1396.583740
11
539313.2480048
21
4477850.713984
31
1396.356689
0
LINE
8
KAT_1395
10
539335.3590000
20
4477785.885500
30
1396.911255
11
539337.2696000
21
4477783.222700
31
1396.971680
0
LINE
8
KAT_1395
10
539342.6316000
20
4477783.477100
30
1397.097656
11
539342.7794000
21
4477784.523500
31
1397.111572
0
LINE
8
KAT_1395
10
539342.7794000
20
4477784.523500
30
1397.111572
11
539341.3896000
21
4477786.174500
31
1396.982544
0
LINE
8
KAT_1395
10
539341.3896000
20
4477786.174500
30
1396.982544
11
539339.6729000
21
4477788.831800
31
1396.928833
0
LINE
8
KAT_1395
10
539339.6729000
20
4477788.831800
30
1396.928833
11
539338.3679467
21
4477791.743670
31
1396.793213
0
LINE
8
KAT_1395
10
539316.7305000
20
4477848.340200
30
1396.600098
11
539318.6440000
21
4477848.279800
31
1396.469971
0
LINE
8
KAT_1395
10
539318.5853000
20
4477843.194200
30
1396.512695
11
539313.5666000
21
4477843.265900
31
1396.445068
0
LINE
8
KAT_1395
10
539337.2696000
20
4477783.222700
30
1396.971680
11
539338.1792000
21
4477780.836400
31
1396.969971
0
LINE
8
KAT_1395
10
539338.1792000
20
4477780.836400
30
1396.969971
11
539338.5279000
21
4477779.176200
31
1396.969971
0
LINE
8
KAT_1395
10
539344.8717000
20
4477775.854700
30
1396.969971
11
539344.3081000
21
4477777.968700
31
1399.652100
0
LINE
8
KAT_1395
10
539344.3081000
20
4477777.968700
30
1399.652100
11
539343.4048000
21
4477780.620500
31
1396.969971
0
LINE
8
KAT_1395
10
539343.4048000
20
4477780.620500
30
1396.969971
11
539343.7438000
21
4477781.498800
31
1396.969971
0
LINE
8
KAT_1395
10
539343.7438000
20
4477781.498800
30
1396.969971
11
539342.6316000
21
4477783.477100
31
1397.097656
0
LINE
8
KAT_1395
10
539318.5853000
20
4477843.194200
30
1396.512695
11
539322.6455000
21
4477843.224100
31
1396.449341
0
LINE
8
KAT_1395
10
539322.6455000
20
4477843.224100
30
1396.449341
11
539325.2607000
21
4477843.265700
31
1396.428467
0
LINE
8
KAT_1395
10
539325.2607000
20
4477843.265700
30
1396.428467
11
539327.8013000
21
4477843.374700
31
1396.512695
0
LINE
8
KAT_1395
10
539325.0991000
20
4477848.635700
30
1396.480713
11
539322.8209000
21
4477848.455300
31
1396.518311
0
LINE
8
KAT_1395
10
539322.8209000
20
4477848.455300
30
1396.518311
11
539318.6440000
21
4477848.279800
31
1396.469971
0
LINE
8
KAT_1395
10
539327.8013000
20
4477843.374700
30
1396.512695
11
539329.3929000
21
4477843.461800
31
1396.500000
0
LINE
8
KAT_1395
10
539329.3929000
20
4477843.461800
30
1396.500000
11
539330.5593000
21
4477843.380600
31
1396.500000
0
LINE
8
KAT_1395
10
539331.2678000
20
4477848.128400
30
1396.500000
11
539328.7890000
21
4477848.200700
31
1396.500000
0
LINE
8
KAT_1395
10
539328.7890000
20
4477848.200700
30
1396.500000
11
539328.2853000
21
4477848.666600
31
1396.500000
0
LINE
8
KAT_1395
10
539328.2853000
20
4477848.666600
30
1396.500000
11
539325.0991000
21
4477848.635700
31
1396.480713
0
LINE
8
KAT_1395
10
539344.1795000
20
4477772.632100
30
1396.969971
11
539343.2498000
21
4477771.212800
31
1396.969971
0
LINE
8
KAT_1395
10
539343.1016000
20
4477768.969500
30
1397.019043
11
539343.2498000
21
4477771.212800
31
1396.969971
0
LINE
8
KAT_1395
10
539343.1016000
20
4477768.969500
30
1397.019043
11
539342.7457000
21
4477765.935500
31
1397.020020
0
LINE
8
KAT_1395
10
539337.4984000
20
4477761.559100
30
1397.099976
11
539338.0611000
21
4477766.242200
31
1397.099976
0
LINE
8
KAT_1395
10
539338.0611000
20
4477766.242200
30
1397.099976
11
539337.7793000
21
4477767.073300
31
1397.099976
0
LINE
8
KAT_1395
10
539330.5593000
20
4477843.380600
30
1396.500000
11
539333.8696000
21
4477843.311200
31
1396.500000
0
LINE
8
KAT_1395
10
539333.8696000
20
4477843.311200
30
1396.500000
11
539336.7890000
21
4477843.172900
31
1396.500000
0
LINE
8
KAT_1395
10
539344.1795000
20
4477772.632100
30
1396.969971
11
539344.1795000
21
4477774.414300
31
1396.969971
0
LINE
8
KAT_1395
10
539344.1795000
20
4477774.414300
30
1396.969971
11
539344.8717000
21
4477775.854700
31
1396.969971
0
LINE
8
KAT_1395
10
539337.7793000
20
4477767.073300
30
1397.099976
11
539337.6324000
21
4477768.503400
31
1397.254028
0
LINE
8
KAT_1395
10
539337.6324000
20
4477768.503400
30
1397.254028
11
539337.3780000
21
4477769.570700
31
1397.090942
0
LINE
8
KAT_1395
10
539337.3780000
20
4477769.570700
30
1397.090942
11
539336.8899000
21
4477769.915700
31
1396.962646
0
LINE
8
KAT_1395
10
539336.0140000
20
4477773.553200
30
1397.014160
11
539338.4354000
21
4477775.060000
31
1397.069702
0
LINE
8
KAT_1395
10
539338.4354000
20
4477775.060000
30
1397.069702
11
539339.1357000
21
4477776.048500
31
1397.014404
0
LINE
8
KAT_1395
10
539338.5279000
20
4477779.176200
30
1396.969971
11
539338.9485000
21
4477778.069900
31
1397.079224
0
LINE
8
KAT_1395
10
539338.9485000
20
4477778.069900
30
1397.079224
11
539339.1357000
21
4477776.048500
31
1397.014404
0
LINE
8
KAT_1395
10
539323.8216939
20
4477799.638246
30
1396.588013
11
539325.8747000
21
4477796.637600
31
1396.643799
0
LINE
8
KAT_1395
10
539325.8747000
20
4477796.637600
30
1396.643799
11
539327.5077000
21
4477794.829000
31
1396.795044
0
LINE
8
KAT_1395
10
539327.5077000
20
4477794.829000
30
1396.795044
11
539326.9547000
21
4477792.970000
31
1396.812866
0
LINE
8
KAT_1395
10
539326.9547000
20
4477792.970000
30
1396.812866
11
539325.8993000
21
4477790.700000
31
1396.688354
0
LINE
8
KAT_1395
10
539329.9499000
20
4477789.526800
30
1396.588623
11
539330.2470000
21
4477790.862300
31
1396.449829
0
LINE
8
KAT_1395
10
539330.2470000
20
4477790.862300
30
1396.449829
11
539331.3752000
21
4477791.663600
31
1396.938599
0
LINE
8
KAT_1395
10
539331.3752000
20
4477791.663600
30
1396.938599
11
539332.6287000
21
4477790.463700
31
1396.924194
0
LINE
8
KAT_1395
10
539332.6287000
20
4477790.463700
30
1396.924194
11
539335.3590000
21
4477785.885500
31
1396.911255
0
LINE
8
KAT_1395
10
539329.9499000
20
4477789.526800
30
1396.588623
11
539329.2099000
21
4477788.342300
31
1396.070068
0
LINE
8
KAT_1395
10
539336.8899000
20
4477769.915700
30
1396.962646
11
539335.6069000
21
4477769.518600
31
1396.541260
0
LINE
8
KAT_1395
10
539335.6069000
20
4477769.518600
30
1396.541260
11
539334.2160000
21
4477769.193700
31
1396.194458
0
LINE
8
KAT_1395
10
539329.2099000
20
4477788.342300
30
1396.070068
11
539328.5577000
21
4477786.813400
31
1395.932495
0
LINE
8
KAT_1395
10
539328.5577000
20
4477786.813400
30
1395.932495
11
539327.6782000
21
4477784.122800
31
1395.486450
0
LINE
8
KAT_1395
10
539327.6782000
20
4477784.122800
30
1395.486450
11
539326.5185000
21
4477780.827800
31
1395.107056
0
LINE
8
KAT_1395
10
539322.4723000
20
4477783.057300
30
1395.156006
11
539323.8470000
21
4477786.028500
31
1395.624634
0
LINE
8
KAT_1395
10
539323.8470000
20
4477786.028500
30
1395.624634
11
539324.9271000
21
4477788.231200
31
1396.009644
0
LINE
8
KAT_1395
10
539324.9271000
20
4477788.231200
30
1396.009644
11
539325.8993000
21
4477790.700000
31
1396.688354
0
LINE
8
KAT_1395
10
539334.2160000
20
4477769.193700
30
1396.194458
11
539333.1200000
21
4477768.855500
31
1395.854614
0
LINE
8
KAT_1395
10
539333.1200000
20
4477768.855500
30
1395.854614
11
539329.3055000
21
4477768.095500
31
1395.491211
0
LINE
8
KAT_1395
10
539332.4971000
20
4477772.982700
30
1396.259033
11
539336.0140000
21
4477773.553200
31
1397.014160
0
LINE
8
KAT_1395
10
539326.5185000
20
4477780.827800
30
1395.107056
11
539326.0051000
21
4477779.495900
31
1394.683838
0
LINE
8
KAT_1395
10
539321.3762000
20
4477779.426500
30
1394.347412
11
539321.3752000
21
4477780.771100
31
1394.472900
0
LINE
8
KAT_1395
10
539321.3752000
20
4477780.771100
30
1394.472900
11
539321.8174000
21
4477781.878100
31
1394.725220
0
LINE
8
KAT_1395
10
539321.8174000
20
4477781.878100
30
1394.725220
11
539322.4723000
21
4477783.057300
31
1395.156006
0
LINE
8
KAT_1395
10
539325.4474000
20
4477767.902100
30
1394.776855
11
539329.3055000
21
4477768.095500
31
1395.491211
0
LINE
8
KAT_1395
10
539325.5064000
20
4477772.423800
30
1394.939941
11
539329.6765000
21
4477772.636200
31
1395.887573
0
LINE
8
KAT_1395
10
539329.6765000
20
4477772.636200
30
1395.887573
11
539332.4971000
21
4477772.982700
31
1396.259033
0
LINE
8
KAT_1395
10
539321.3762000
20
4477779.426500
30
1394.347412
11
539321.2025000
21
4477778.948000
31
1394.278809
0
LINE
8
KAT_1395
10
539321.2025000
20
4477778.948000
30
1394.278809
11
539319.7089000
21
4477775.216800
31
1394.050659
0
LINE
8
KAT_1395
10
539319.7089000
20
4477775.216800
30
1394.050659
11
539319.2490000
21
4477773.358800
31
1394.163574
0
LINE
8
KAT_1395
10
539319.2490000
20
4477773.358800
30
1394.163574
11
539321.2650000
21
4477771.920300
31
1394.097778
0
LINE
8
KAT_1395
10
539321.2650000
20
4477771.920300
30
1394.097778
11
539321.4708000
21
4477768.853400
31
1394.194946
0
LINE
8
KAT_1395
10
539321.4708000
20
4477768.853400
30
1394.194946
11
539323.0084000
21
4477768.423800
31
1394.422852
0
LINE
8
KAT_1395
10
539323.0084000
20
4477768.423800
30
1394.422852
11
539325.4474000
21
4477767.902100
31
1394.776855
0
LINE
8
KAT_1395
10
539325.5064000
20
4477772.423800
30
1394.939941
11
539324.2950000
21
4477773.670500
31
1394.235229
0
LINE
8
KAT_1395
10
539324.2950000
20
4477773.670500
30
1394.235229
11
539325.0217000
21
4477776.111100
31
1394.253784
0
LINE
8
KAT_1395
10
539325.0217000
20
4477776.111100
30
1394.253784
11
539326.0051000
21
4477779.495900
31
1394.683838
0
LINE
8
KAT_1395
10
539337.4984000
20
4477761.559100
30
1397.099976
11
539337.2604000
21
4477760.152700
31
1397.043457
0
LINE
8
KAT_1395
10
539337.2604000
20
4477760.152700
30
1397.043457
11
539336.9534000
21
4477758.712100
31
1397.043457
0
LINE
8
KAT_1395
10
539336.9534000
20
4477758.712100
30
1397.043457
11
539337.8791000
21
4477757.871800
31
1397.043457
0
LINE
8
KAT_1395
10
539337.8791000
20
4477757.871800
30
1397.043457
11
539337.2399000
21
4477756.032100
31
1397.043457
0
LINE
8
KAT_1395
10
539337.2399000
20
4477756.032100
30
1397.043457
11
539336.3799000
21
4477754.537200
31
1397.043457
0
LINE
8
KAT_1395
10
539342.0055000
20
4477753.941100
30
1397.024292
11
539341.0899000
21
4477753.214900
31
1397.033936
0
LINE
8
KAT_1395
10
539341.0899000
20
4477753.214900
30
1397.033936
11
539340.4528000
21
4477750.739100
31
1397.016235
0
LINE
8
KAT_1395
10
539340.4528000
20
4477750.739100
30
1397.016235
11
539339.7292000
21
4477750.344300
31
1397.080444
0
LINE
8
KAT_1395
10
539339.7292000
20
4477750.344300
30
1397.080444
11
539338.7613000
21
4477747.761300
31
1397.053589
0
LINE
8
KAT_1395
10
539338.7613000
20
4477747.761300
30
1397.053589
11
539338.3203000
21
4477744.982300
31
1397.168579
0
LINE
8
KAT_1395
10
539338.3203000
20
4477744.982300
30
1397.168579
11
539338.9463000
21
4477742.195100
31
1397.313110
0
LINE
8
KAT_1395
10
539338.6683000
20
4477741.278600
30
1397.367188
11
539338.9463000
21
4477742.195100
31
1397.313110
0
LINE
8
KAT_1395
10
539342.7457000
20
4477765.935500
30
1397.020020
11
539343.2207000
21
4477764.088200
31
1397.074585
0
LINE
8
KAT_1395
10
539343.2207000
20
4477764.088200
30
1397.074585
11
539343.6530000
21
4477763.603000
31
1397.270386
0
LINE
8
KAT_1395
10
539344.0864000
20
4477758.117900
30
1397.124268
11
539343.1526000
21
4477757.666900
31
1397.114624
0
LINE
8
KAT_1395
10
539343.1526000
20
4477757.666900
30
1397.114624
11
539342.1344000
21
4477756.375300
31
1397.015137
0
LINE
8
KAT_1395
10
539342.1344000
20
4477756.375300
30
1397.015137
11
539342.0055000
21
4477753.941100
31
1397.024292
0
LINE
8
KAT_1395
10
539339.0997000
20
4477736.049300
30
1397.251587
11
539338.8562000
21
4477738.793400
31
1397.212158
0
LINE
8
KAT_1395
10
539338.8562000
20
4477738.793400
30
1397.212158
11
539338.6683000
21
4477741.278600
31
1397.367188
0
LINE
8
KAT_1395
10
539344.0864000
20
4477758.117900
30
1397.124268
11
539346.6544000
21
4477758.504800
31
1397.603516
0
LINE
8
KAT_1395
10
539346.6544000
20
4477758.504800
30
1397.603516
11
539347.1692000
21
4477759.279100
31
1397.653442
0
LINE
8
KAT_1395
10
539346.2981000
20
4477764.194100
30
1397.782349
11
539345.7646000
21
4477764.348600
31
1397.668457
0
LINE
8
KAT_1395
10
539345.7646000
20
4477764.348600
30
1397.668457
11
539343.6530000
21
4477763.603000
31
1397.270386
0
LINE
8
KAT_1395
10
539334.1563000
20
4477735.262000
30
1397.329468
11
539333.9917000
21
4477733.221800
31
1397.250000
0
LINE
8
KAT_1395
10
539333.9917000
20
4477733.221800
30
1397.250000
11
539334.1657000
21
4477730.495600
31
1397.250000
0
LINE
8
KAT_1395
10
539339.0236000
20
4477730.597300
30
1397.250000
11
539339.0674000
21
4477732.248000
31
1397.250000
0
LINE
8
KAT_1395
10
539339.0674000
20
4477732.248000
30
1397.250000
11
539339.1486000
21
4477734.331700
31
1397.250000
0
LINE
8
KAT_1395
10
539339.1486000
20
4477734.331700
30
1397.250000
11
539339.0997000
21
4477736.049300
31
1397.251587
0
LINE
8
KAT_1395
10
539334.1657000
20
4477730.495600
30
1397.250000
11
539334.0270000
21
4477727.768500
31
1397.005371
0
LINE
8
KAT_1395
10
539338.9806000
20
4477729.461100
30
1396.902344
11
539339.0236000
21
4477730.597300
31
1397.250000
0
LINE
8
KAT_1395
10
539347.1692000
20
4477759.279100
30
1397.653442
11
539350.7489000
21
4477760.578400
31
1398.262817
0
LINE
8
KAT_1395
10
539350.7489000
20
4477760.578400
30
1398.262817
11
539354.1107000
21
4477761.111900
31
1398.789062
0
LINE
8
KAT_1395
10
539354.1107000
20
4477761.111900
30
1398.789062
11
539357.3563000
21
4477761.610700
31
1399.442993
0
LINE
8
KAT_1395
10
539357.3563000
20
4477761.610700
30
1399.442993
11
539359.9416000
21
4477762.021500
31
1399.905884
0
LINE
8
KAT_1395
10
539359.9416000
20
4477762.021500
30
1399.905884
11
539361.7254000
21
4477762.400700
31
1400.261108
0
LINE
8
KAT_1395
10
539360.6122000
20
4477767.080900
30
1400.461670
11
539357.5598000
21
4477766.620600
31
1399.781372
0
LINE
8
KAT_1395
10
539357.5598000
20
4477766.620600
30
1399.781372
11
539355.9984000
21
4477766.316100
31
1399.517090
0
LINE
8
KAT_1395
10
539355.9984000
20
4477766.316100
30
1399.517090
11
539355.3843000
21
4477766.691700
31
1399.420044
0
LINE
8
KAT_1395
10
539355.3843000
20
4477766.691700
30
1399.420044
11
539353.8064000
21
4477766.391200
31
1398.947144
0
LINE
8
KAT_1395
10
539353.8064000
20
4477766.391200
30
1398.947144
11
539350.9964000
21
4477765.754900
31
1398.429443
0
LINE
8
KAT_1395
10
539350.9964000
20
4477765.754900
30
1398.429443
11
539348.2370000
21
4477764.782800
31
1398.150024
0
LINE
8
KAT_1395
10
539348.2370000
20
4477764.782800
30
1398.150024
11
539346.2981000
21
4477764.194100
31
1397.782349
0
LINE
8
KAT_1395
10
539360.6122000
20
4477767.080900
30
1400.461670
11
539362.6889000
21
4477767.734500
31
1400.260986
0
LINE
8
KAT_1395
10
539362.6889000
20
4477767.734500
30
1400.260986
11
539364.2491000
21
4477763.034700
31
1400.260986
0
LINE
8
KAT_1395
10
539364.2491000
20
4477763.034700
30
1400.260986
11
539361.7254000
21
4477762.400700
31
1400.261108
0
LINE
8
KAT_1395
10
539334.0270000
20
4477727.768500
30
1397.005371
11
539334.0567000
21
4477726.070000
31
1397.048950
0
LINE
8
KAT_1395
10
539334.0567000
20
4477726.070000
30
1397.048950
11
539333.8183000
21
4477723.872600
31
1396.905151
0
LINE
8
KAT_1395
10
539338.6168000
20
4477726.119600
30
1397.118652
11
539338.9806000
21
4477729.461100
31
1396.902344
0
LINE
8
KAT_1395
10
539333.8183000
20
4477723.872600
30
1396.905151
11
539334.2051000
21
4477723.279600
31
1396.656738
0
LINE
8
KAT_1395
10
539334.2051000
20
4477723.279600
30
1396.656738
11
539334.3454000
21
4477721.210100
31
1396.447510
0
LINE
8
KAT_1395
10
539334.3454000
20
4477721.210100
30
1396.447510
11
539334.5355000
21
4477718.314800
31
1396.026001
0
LINE
8
KAT_1395
10
539334.5355000
20
4477718.314800
30
1396.026001
11
539334.4425000
21
4477714.992100
31
1395.474854
0
LINE
8
KAT_1395
10
539334.4425000
20
4477714.992100
30
1395.474854
11
539334.6022000
21
4477713.191400
31
1395.177246
0
LINE
8
KAT_1395
10
539334.6022000
20
4477713.191400
30
1395.177246
11
539334.6013000
21
4477711.237300
31
1395.116333
0
LINE
8
KAT_1395
10
539338.9184000
20
4477711.506900
30
1395.090820
11
539338.9748000
21
4477714.012800
31
1395.406860
0
LINE
8
KAT_1395
10
539338.9748000
20
4477714.012800
30
1395.406860
11
539339.1208000
21
4477716.737900
31
1395.820313
0
LINE
8
KAT_1395
10
539339.1208000
20
4477716.737900
30
1395.820313
11
539339.1939819
21
4477720.173094
31
1396.316040
0
LINE
8
KAT_1395
10
539339.1939819
20
4477720.173094
30
1396.316040
11
539338.4109000
21
4477723.118500
31
1396.711670
0
LINE
8
KAT_1395
10
539338.4109000
20
4477723.118500
30
1396.711670
11
539338.6168000
21
4477726.119600
31
1397.118652
0
LINE
8
KAT_1395
10
539336.3799000
20
4477754.537200
30
1397.043457
11
539335.9465000
21
4477753.559500
31
1397.244873
0
LINE
8
KAT_1395
10
539335.9465000
20
4477753.559500
30
1397.244873
11
539334.8149000
21
4477751.389100
31
1397.125122
0
LINE
8
KAT_1395
10
539334.8149000
20
4477751.389100
30
1397.125122
11
539334.1780000
21
4477751.092900
31
1397.180786
0
LINE
8
KAT_1395
10
539334.6013000
20
4477711.237300
30
1395.116333
11
539334.4778000
21
4477709.624700
31
1395.019531
0
LINE
8
KAT_1395
10
539338.9600000
20
4477710.270600
30
1395.036377
11
539338.9184000
21
4477711.506900
31
1395.090820
0
LINE
8
KAT_1395
10
539334.4778000
20
4477709.624700
30
1395.019531
11
539334.3443000
21
4477708.437100
31
1394.764771
0
LINE
8
KAT_1395
10
539334.3443000
20
4477708.437100
30
1394.764771
11
539334.5822000
21
4477705.249700
31
1394.304932
0
LINE
8
KAT_1395
10
539334.5822000
20
4477705.249700
30
1394.304932
11
539334.6364000
21
4477701.554400
31
1394.117676
0
LINE
8
KAT_1395
10
539338.8399000
20
4477705.601800
30
1394.198242
11
539339.0160000
21
4477708.352600
31
1394.680298
0
LINE
8
KAT_1395
10
539339.0160000
20
4477708.352600
30
1394.680298
11
539338.9600000
21
4477710.270600
31
1395.036377
0
LINE
8
KAT_1395
10
539331.5470000
20
4477746.566500
30
1397.120605
11
539330.6653000
21
4477746.899700
31
1397.154907
0
LINE
8
KAT_1395
10
539330.3410000
20
4477750.859900
30
1397.231567
11
539331.7627000
21
4477751.080500
31
1397.124268
0
LINE
8
KAT_1395
10
539331.7627000
20
4477751.080500
30
1397.124268
11
539334.1780000
21
4477751.092900
31
1397.180786
0
LINE
8
KAT_1395
10
539334.6364000
20
4477701.554400
30
1394.117676
11
539334.4858000
21
4477700.133300
31
1393.729614
0
LINE
8
KAT_1395
10
539334.4858000
20
4477700.133300
30
1393.729614
11
539334.5949000
21
4477698.044700
31
1393.514771
0
LINE
8
KAT_1395
10
539339.0612000
20
4477698.463600
30
1393.628052
11
539338.8772000
21
4477701.512900
31
1393.990723
0
LINE
8
KAT_1395
10
539338.8772000
20
4477701.512900
30
1393.990723
11
539338.8399000
21
4477705.601800
31
1394.198242
0
LINE
8
KAT_1395
10
539330.6653000
20
4477746.899700
30
1397.154907
11
539328.2786000
21
4477747.509000
31
1397.440552
0
LINE
8
KAT_1395
10
539328.2786000
20
4477747.509000
30
1397.440552
11
539325.7440000
21
4477747.962200
31
1397.482788
0
LINE
8
KAT_1395
10
539326.0037000
20
4477752.154900
30
1397.774414
11
539328.1628000
21
4477751.354800
31
1397.588501
0
LINE
8
KAT_1395
10
539328.1628000
20
4477751.354800
30
1397.588501
11
539330.3410000
21
4477750.859900
31
1397.231567
0
LINE
8
KAT_1395
10
539325.7440000
20
4477747.962200
30
1397.482788
11
539323.3519000
21
4477748.191500
31
1397.894043
0
LINE
8
KAT_1395
10
539323.3519000
20
4477748.191500
30
1397.894043
11
539323.8037000
21
4477752.645400
31
1397.912109
0
LINE
8
KAT_1395
10
539323.8037000
20
4477752.645400
30
1397.912109
11
539326.0037000
21
4477752.154900
31
1397.774414
0
LINE
8
KAT_1395
10
539334.5949000
20
4477698.044700
30
1393.514771
11
539334.7803000
21
4477694.903200
31
1393.164551
0
LINE
8
KAT_1395
10
539338.9380000
20
4477689.668200
30
1392.462158
11
539339.0149000
21
4477691.977800
31
1392.745239
0
LINE
8
KAT_1395
10
539339.0149000
20
4477691.977800
30
1392.745239
11
539338.9714000
21
4477695.548300
31
1393.200317
0
LINE
8
KAT_1395
10
539338.9714000
20
4477695.548300
30
1393.200317
11
539339.0612000
21
4477698.463600
31
1393.628052
0
LINE
8
KAT_1395
10
539339.0535000
20
4477687.933400
30
1392.744995
11
539338.9380000
21
4477689.668200
31
1392.462158
0
LINE
8
KAT_1395
10
539338.6032000
20
4477680.291300
30
1392.401367
11
539338.5672000
21
4477681.955500
31
1392.106934
0
LINE
8
KAT_1395
10
539338.5672000
20
4477681.955500
30
1392.106934
11
539338.4731000
21
4477683.843000
31
1392.094727
0
LINE
8
KAT_1395
10
539338.4731000
20
4477683.843000
30
1392.094727
11
539338.8074000
21
4477685.777900
31
1392.081177
0
LINE
8
KAT_1395
10
539338.8074000
20
4477685.777900
30
1392.081177
11
539339.0535000
21
4477687.933400
31
1392.744995
0
LINE
8
KAT_1395
10
539334.1272000
20
4477677.165100
30
1392.446411
11
539334.4870000
21
4477675.823400
31
1392.416748
0
LINE
8
KAT_1395
10
539334.4870000
20
4477675.823400
30
1392.416748
11
539334.5876000
21
4477672.455600
31
1392.610596
0
LINE
8
KAT_1395
10
539338.9037000
20
4477675.988500
30
1392.349976
11
539338.6032000
21
4477680.291300
31
1392.401367
0
LINE
8
KAT_1395
10
539334.5876000
20
4477672.455600
30
1392.610596
11
539334.6143000
21
4477670.850600
31
1392.821533
0
LINE
8
KAT_1395
10
539334.7803000
20
4477694.903200
30
1393.164551
11
539334.7317000
21
4477691.427600
31
1392.711548
0
LINE
8
KAT_1395
10
539334.7317000
20
4477691.427600
30
1392.711548
11
539334.5238000
21
4477689.115100
31
1392.255615
0
LINE
8
KAT_1395
10
539334.5238000
20
4477689.115100
30
1392.255615
11
539334.2116000
21
4477687.442900
31
1392.274292
0
LINE
8
KAT_1395
10
539334.1019000
20
4477679.596000
30
1392.117920
11
539334.1272000
21
4477677.165100
31
1392.446411
0
LINE
8
KAT_1395
10
539334.6143000
20
4477670.850600
30
1392.821533
11
539334.2697000
21
4477667.456500
31
1392.690308
0
LINE
8
KAT_1395
10
539334.2697000
20
4477667.456500
30
1392.690308
11
539334.1796000
21
4477664.931900
31
1392.690308
0
LINE
8
KAT_1395
10
539334.1563000
20
4477735.262000
30
1397.329468
11
539334.0463000
21
4477735.967100
31
1397.459473
0
LINE
8
KAT_1395
10
539334.0463000
20
4477735.967100
30
1397.459473
11
539334.0792000
21
4477737.907700
31
1397.501099
0
LINE
8
KAT_1395
10
539331.6918000
20
4477743.167800
30
1397.442383
11
539332.2638000
21
4477743.845600
31
1397.261719
0
LINE
8
KAT_1395
10
539332.2638000
20
4477743.845600
30
1397.261719
11
539332.4800000
21
4477745.040100
31
1397.225708
0
LINE
8
KAT_1395
10
539332.4800000
20
4477745.040100
30
1397.225708
11
539331.5470000
21
4477746.566500
31
1397.120605
0
LINE
8
KAT_1395
10
539334.0792000
20
4477737.907700
30
1397.501099
11
539332.2147000
21
4477738.439800
31
1397.440308
0
LINE
8
KAT_1395
10
539332.2147000
20
4477738.439800
30
1397.440308
11
539331.0028000
21
4477738.117500
31
1397.474365
0
LINE
8
KAT_1395
10
539327.7681000
20
4477741.023200
30
1397.686157
11
539329.6511000
21
4477742.044700
31
1397.511475
0
LINE
8
KAT_1395
10
539329.6511000
20
4477742.044700
30
1397.511475
11
539331.0017000
21
4477742.736000
31
1397.505737
0
LINE
8
KAT_1395
10
539331.0017000
20
4477742.736000
30
1397.505737
11
539331.6918000
21
4477743.167800
31
1397.442383
0
LINE
8
KAT_1395
10
539334.1019000
20
4477679.596000
30
1392.117920
11
539333.4794000
21
4477681.740300
31
1392.040039
0
LINE
8
KAT_1395
10
539333.4794000
20
4477681.740300
30
1392.040039
11
539332.8107000
21
4477681.985600
31
1392.000000
0
LINE
8
KAT_1395
10
539332.8107000
20
4477681.985600
30
1392.000000
11
539331.3549000
21
4477681.546000
31
1391.800049
0
LINE
8
KAT_1395
10
539331.3549000
20
4477681.546000
30
1391.800049
11
539330.5375000
21
4477681.278200
31
1391.500000
0
LINE
8
KAT_1395
10
539329.4886000
20
4477685.786400
30
1391.500000
11
539330.3779000
21
4477685.937900
31
1391.800049
0
LINE
8
KAT_1395
10
539330.3779000
20
4477685.937900
30
1391.800049
11
539331.8823000
21
4477686.059700
31
1392.000000
0
LINE
8
KAT_1395
10
539331.8823000
20
4477686.059700
30
1392.000000
11
539334.2116000
21
4477687.442900
31
1392.274292
0
LINE
8
KAT_1395
10
539334.1796000
20
4477664.931900
30
1392.690308
11
539333.9674000
21
4477662.485000
31
1392.562256
0
LINE
8
KAT_1395
10
539333.9674000
20
4477662.485000
30
1392.562256
11
539333.8824000
21
4477659.669900
31
1392.756104
0
LINE
8
KAT_1395
10
539327.7681000
20
4477741.023200
30
1397.686157
11
539326.5647000
21
4477740.293100
31
1397.573975
0
LINE
8
KAT_1395
10
539327.7752000
20
4477735.292000
30
1397.152832
11
539330.2976000
21
4477737.599500
31
1397.421753
0
LINE
8
KAT_1395
10
539330.2976000
20
4477737.599500
30
1397.421753
11
539331.0028000
21
4477738.117500
31
1397.474365
0
LINE
8
KAT_1395
10
539326.5647000
20
4477740.293100
30
1397.573975
11
539324.7887000
21
4477739.148100
31
1397.108643
0
LINE
8
KAT_1395
10
539324.7887000
20
4477739.148100
30
1397.108643
11
539323.0529000
21
4477738.005500
31
1396.912964
0
LINE
8
KAT_1395
10
539325.3014000
20
4477733.588700
30
1396.774292
11
539327.7752000
21
4477735.292000
31
1397.152832
0
LINE
8
KAT_1395
10
539323.0529000
20
4477738.005500
30
1396.912964
11
539322.3080000
21
4477737.220700
31
1396.885498
0
LINE
8
KAT_1395
10
539322.3080000
20
4477737.220700
30
1396.885498
11
539320.0333000
21
4477736.002100
31
1396.473389
0
LINE
8
KAT_1395
10
539321.0039000
20
4477730.791600
30
1396.466309
11
539322.9118000
21
4477732.016100
31
1396.671265
0
LINE
8
KAT_1395
10
539322.9118000
20
4477732.016100
30
1396.671265
11
539325.3014000
21
4477733.588700
31
1396.774292
0
LINE
8
KAT_1395
10
539333.8824000
20
4477659.669900
30
1392.756104
11
539334.7271000
21
4477658.012700
31
1392.750000
0
LINE
8
KAT_1395
10
539330.5375000
20
4477681.278200
30
1391.500000
11
539330.0826000
21
4477680.852100
31
1391.000000
0
LINE
8
KAT_1395
10
539330.0826000
20
4477680.852100
30
1391.000000
11
539328.7903000
21
4477680.190900
31
1390.750000
0
LINE
8
KAT_1395
10
539328.7903000
20
4477680.190900
30
1390.750000
11
539328.0920000
21
4477679.887200
31
1390.000000
0
LINE
8
KAT_1395
10
539326.8635000
20
4477684.311800
30
1390.000000
11
539327.5653000
21
4477684.471100
31
1390.750000
0
LINE
8
KAT_1395
10
539327.5653000
20
4477684.471100
30
1390.750000
11
539328.6405000
21
4477684.698200
31
1391.000000
0
LINE
8
KAT_1395
10
539328.6405000
20
4477684.698200
30
1391.000000
11
539329.4886000
21
4477685.786400
31
1391.500000
0
LINE
8
KAT_1395
10
539321.0039000
20
4477730.791600
30
1396.466309
11
539320.3613000
21
4477730.275200
31
1396.214111
0
LINE
8
KAT_1395
10
539320.3613000
20
4477730.275200
30
1396.214111
11
539318.6741000
21
4477729.127300
31
1395.887817
0
LINE
8
KAT_1395
10
539318.6741000
20
4477729.127300
30
1395.887817
11
539316.4751000
21
4477727.665000
31
1395.532715
0
LINE
8
KAT_1395
10
539316.2563000
20
4477734.003300
30
1395.781616
11
539320.0333000
21
4477736.002100
31
1396.473389
0
LINE
8
KAT_1395
10
539316.4751000
20
4477727.665000
30
1395.532715
11
539314.5554000
21
4477726.069600
31
1395.563721
0
LINE
8
KAT_1395
10
539326.8635000
20
4477684.311800
30
1390.000000
11
539324.3427000
21
4477683.124300
31
1389.500000
0
LINE
8
KAT_1395
10
539324.3427000
20
4477683.124300
30
1389.500000
11
539325.5793000
21
4477679.028000
31
1389.500000
0
LINE
8
KAT_1395
10
539325.5793000
20
4477679.028000
30
1389.500000
11
539328.0920000
21
4477679.887200
31
1390.000000
0
LINE
8
KAT_1395
10
539334.7833000
20
4477646.567500
30
1393.394531
11
539335.0738000
21
4477644.623400
31
1393.394531
0
LINE
8
KAT_1395
10
539335.0738000
20
4477644.623400
30
1393.394531
11
539335.2628000
21
4477642.473200
31
1393.394897
0
LINE
8
KAT_1395
10
539335.2628000
20
4477642.473200
30
1393.394897
11
539335.1969000
21
4477640.186400
31
1393.594116
0
LINE
8
KAT_1395
10
539339.2877000
20
4477659.468200
30
1392.630005
11
539339.2685000
21
4477662.043700
31
1392.630005
0
LINE
8
KAT_1395
10
539339.2685000
20
4477662.043700
30
1392.630005
11
539339.5218000
21
4477664.238200
31
1392.630005
0
LINE
8
KAT_1395
10
539339.4203000
20
4477670.278200
30
1392.630005
11
539339.1144000
21
4477671.130700
31
1392.630005
0
LINE
8
KAT_1395
10
539339.1144000
20
4477671.130700
30
1392.630005
11
539339.0515000
21
4477673.207700
31
1392.630005
0
LINE
8
KAT_1395
10
539339.0515000
20
4477673.207700
30
1392.630005
11
539338.9037000
21
4477675.988500
31
1392.349976
0
LINE
8
KAT_1395
10
539339.5218000
20
4477664.238200
30
1392.630005
11
539340.1949000
21
4477664.545000
31
1392.630005
0
LINE
8
KAT_1395
10
539340.1949000
20
4477664.545000
30
1392.630005
11
539343.5236000
21
4477664.462400
31
1392.630005
0
LINE
8
KAT_1395
10
539342.3094000
20
4477669.143300
30
1392.630005
11
539340.2332000
21
4477669.622000
31
1392.630005
0
LINE
8
KAT_1395
10
539340.2332000
20
4477669.622000
30
1392.630005
11
539339.4203000
21
4477670.278200
31
1392.630005
0
LINE
8
KAT_1395
10
539334.4264000
20
4477624.418300
30
1393.660034
11
539334.2608000
21
4477621.252900
31
1393.660034
0
LINE
8
KAT_1395
10
539334.2608000
20
4477621.252900
30
1393.660034
11
539334.3156000
21
4477618.649600
31
1393.660034
0
LINE
8
KAT_1395
10
539334.3156000
20
4477618.649600
30
1393.660034
11
539338.0730000
21
4477618.368700
31
1393.660034
0
LINE
8
KAT_1395
10
539334.7833000
20
4477646.567500
30
1393.394531
11
539334.7936000
21
4477647.975000
31
1393.400024
0
LINE
8
KAT_1395
10
539334.7936000
20
4477647.975000
30
1393.400024
11
539333.4895000
21
4477649.014200
31
1393.400024
0
LINE
8
KAT_1395
10
539332.0353000
20
4477653.848900
30
1393.400024
11
539334.0424000
21
4477655.182600
31
1393.400024
0
LINE
8
KAT_1395
10
539334.0424000
20
4477655.182600
30
1393.400024
11
539334.7271000
21
4477658.012700
31
1392.750000
0
LINE
8
KAT_1395
10
539339.4497000
20
4477645.583700
30
1393.394531
11
539339.4116000
21
4477647.832900
31
1393.483887
0
LINE
8
KAT_1395
10
539339.4116000
20
4477647.832900
30
1393.483887
11
539339.7767000
21
4477649.130300
31
1393.198120
0
LINE
8
KAT_1395
10
539339.7767000
20
4477649.130300
30
1393.198120
11
539342.0390000
21
4477650.190200
31
1392.860840
0
LINE
8
KAT_1395
10
539341.5110000
20
4477655.304300
30
1392.796387
11
539339.5368000
21
4477656.942900
31
1392.733765
0
LINE
8
KAT_1395
10
539339.5368000
20
4477656.942900
30
1392.733765
11
539339.2877000
21
4477659.468200
31
1392.630005
0
LINE
8
KAT_1395
10
539341.5110000
20
4477655.304300
30
1392.796387
11
539343.0524000
21
4477654.627000
31
1393.000000
0
LINE
8
KAT_1395
10
539342.3094000
20
4477669.143300
30
1392.630005
11
539345.1615000
21
4477669.259500
31
1392.630005
0
LINE
8
KAT_1395
10
539347.9006000
20
4477663.955000
30
1392.630005
11
539346.1510000
21
4477664.296400
31
1392.630005
0
LINE
8
KAT_1395
10
539346.1510000
20
4477664.296400
30
1392.630005
11
539345.5230000
21
4477663.666500
31
1392.630005
0
LINE
8
KAT_1395
10
539345.5230000
20
4477663.666500
30
1392.630005
11
539343.5236000
21
4477664.462400
31
1392.630005
0
LINE
8
KAT_1395
10
539339.8133000
20
4477638.781700
30
1393.699951
11
539339.4497000
21
4477645.583700
31
1393.394531
0
LINE
8
KAT_1395
10
539345.1615000
20
4477669.259500
30
1392.630005
11
539348.0040000
21
4477669.905600
31
1393.072021
0
LINE
8
KAT_1395
10
539348.0040000
20
4477669.905600
30
1393.072021
11
539350.1981000
21
4477670.314300
31
1393.072021
0
LINE
8
KAT_1395
10
539350.1981000
20
4477670.314300
30
1393.072021
11
539350.6760000
21
4477670.078200
31
1393.072021
0
LINE
8
KAT_1395
10
539350.6760000
20
4477670.078200
30
1393.072021
11
539353.8789000
21
4477670.101400
31
1393.150024
0
LINE
8
KAT_1395
10
539353.8789000
20
4477670.101400
30
1393.150024
11
539356.1124000
21
4477670.011700
31
1393.260010
0
LINE
8
KAT_1395
10
539356.9501000
20
4477665.338600
30
1393.260010
11
539352.6559000
21
4477665.117400
31
1393.072021
0
LINE
8
KAT_1395
10
539352.6559000
20
4477665.117400
30
1393.072021
11
539348.6909000
21
4477664.765700
31
1393.072021
0
LINE
8
KAT_1395
10
539348.6909000
20
4477664.765700
30
1393.072021
11
539347.9006000
21
4477663.955000
31
1392.630005
0
LINE
8
KAT_1395
10
539356.1124000
20
4477670.011700
30
1393.260010
11
539357.5460000
21
4477669.819800
31
1393.408325
0
LINE
8
KAT_1395
10
539357.5460000
20
4477669.819800
30
1393.408325
11
539359.8968000
21
4477669.704200
31
1393.483032
0
LINE
8
KAT_1395
10
539359.8968000
20
4477669.704200
30
1393.483032
11
539361.8092000
21
4477669.454600
31
1393.543457
0
LINE
8
KAT_1395
10
539359.5764000
20
4477665.280100
30
1393.397705
11
539356.9501000
21
4477665.338600
31
1393.260010
0
LINE
8
KAT_1395
10
539339.8133000
20
4477638.781700
30
1393.699951
11
539340.0200000
21
4477637.041000
31
1393.699951
0
LINE
8
KAT_1395
10
539334.4264000
20
4477624.418300
30
1393.660034
11
539334.1512000
21
4477626.505000
31
1393.699951
0
LINE
8
KAT_1395
10
539334.4523000
20
4477634.747200
30
1393.699951
11
539335.1969000
21
4477640.186400
31
1393.594116
0
LINE
8
KAT_1395
10
539343.0524000
20
4477654.627000
30
1393.000000
11
539346.4940000
21
4477654.549000
31
1393.000000
0
LINE
8
KAT_1395
10
539346.4940000
20
4477654.549000
30
1393.000000
11
539347.6781000
21
4477653.707300
31
1393.000000
0
LINE
8
KAT_1395
10
539347.6781000
20
4477653.707300
30
1393.000000
11
539351.9310000
21
4477652.365000
31
1393.000000
0
LINE
8
KAT_1395
10
539350.9531000
20
4477647.777700
30
1393.000000
11
539348.1969000
21
4477648.780500
31
1393.000000
0
LINE
8
KAT_1395
10
539348.1969000
20
4477648.780500
30
1393.000000
11
539345.5720000
21
4477649.265600
31
1393.000000
0
LINE
8
KAT_1395
10
539345.5720000
20
4477649.265600
30
1393.000000
11
539342.0390000
21
4477650.190200
31
1392.860840
0
LINE
8
KAT_1395
10
539332.0353000
20
4477653.848900
30
1393.400024
11
539328.9518000
21
4477653.356700
31
1393.400024
0
LINE
8
KAT_1395
10
539328.9518000
20
4477653.356700
30
1393.400024
11
539326.9187000
21
4477653.298900
31
1393.400024
0
LINE
8
KAT_1395
10
539330.0825000
20
4477649.004600
30
1393.400024
11
539333.4895000
21
4477649.014200
31
1393.400024
0
LINE
8
KAT_1395
10
539361.8092000
20
4477669.454600
30
1393.543457
11
539364.7172000
21
4477668.643800
31
1393.449951
0
LINE
8
KAT_1395
10
539364.7172000
20
4477668.643800
30
1393.449951
11
539364.0126219
21
4477665.011505
31
1393.449951
0
LINE
8
KAT_1395
10
539359.5764000
20
4477665.280100
30
1393.397705
11
539364.0126219
21
4477665.011505
31
1393.449951
0
LINE
8
KAT_1395
10
539351.9310000
20
4477652.365000
30
1393.000000
11
539355.1373000
21
4477652.138700
31
1393.000000
0
LINE
8
KAT_1395
10
539355.1373000
20
4477652.138700
30
1393.000000
11
539353.6884000
21
4477646.927600
31
1393.000000
0
LINE
8
KAT_1395
10
539353.6884000
20
4477646.927600
30
1393.000000
11
539350.9531000
21
4477647.777700
31
1393.000000
0
LINE
8
KAT_1395
10
539326.9187000
20
4477653.298900
30
1393.400024
11
539323.9222000
21
4477653.159900
31
1393.400024
0
LINE
8
KAT_1395
10
539323.9222000
20
4477653.159900
30
1393.400024
11
539324.1810000
21
4477648.931300
31
1393.400024
0
LINE
8
KAT_1395
10
539338.8957000
20
4477851.616800
30
1396.598022
11
539339.1515000
21
4477853.119500
31
1396.598022
0
LINE
8
KAT_1395
10
539339.1515000
20
4477853.119500
30
1396.598022
11
539339.3993000
21
4477854.455300
31
1396.598022
0
LINE
8
KAT_1395
10
539339.3993000
20
4477854.455300
30
1396.598022
11
539339.8299000
21
4477855.615200
31
1396.598022
0
LINE
8
KAT_1395
10
539339.8299000
20
4477855.615200
30
1396.598022
11
539337.3888000
21
4477856.540000
31
1396.598022
0
LINE
8
KAT_1395
10
539337.3888000
20
4477856.540000
30
1396.598022
11
539335.6232000
21
4477856.317900
31
1396.598022
0
LINE
8
KAT_1395
10
539335.6232000
20
4477856.317900
30
1396.598022
11
539334.7261000
21
4477853.894600
31
1396.598022
0
LINE
8
KAT_1395
10
539334.7261000
20
4477853.894600
30
1396.598022
11
539333.8703000
21
4477851.259500
31
1396.598022
0
LINE
8
KAT_1395
10
539333.8703000
20
4477851.259500
30
1396.598022
11
539332.9836000
21
4477849.836800
31
1396.598022
0
LINE
8
KAT_1395
10
539332.9836000
20
4477849.836800
30
1396.598022
11
539332.0146000
21
4477848.611200
31
1396.598022
0
LINE
8
KAT_1395
10
539332.0146000
20
4477848.611200
30
1396.598022
11
539331.2678000
21
4477848.128400
31
1396.500000
0
LINE
8
KAT_1395
10
539332.8774000
20
4477632.981600
30
1393.711670
11
539330.3739000
21
4477632.297300
31
1393.839355
0
LINE
8
KAT_1395
10
539330.3739000
20
4477632.297300
30
1393.839355
11
539327.7518000
21
4477632.051500
31
1393.699951
0
LINE
8
KAT_1395
10
539327.7518000
20
4477632.051500
30
1393.699951
11
539326.7172000
21
4477629.225800
31
1394.139282
0
LINE
8
KAT_1395
10
539326.7172000
20
4477629.225800
30
1394.139282
11
539325.5124000
21
4477628.484500
31
1394.090942
0
LINE
8
KAT_1395
10
539325.5124000
20
4477628.484500
30
1394.090942
11
539321.8961096
21
4477627.464854
31
1394.288574
0
LINE
8
KAT_1395
10
539322.9804000
20
4477622.917400
30
1394.349976
11
539324.7985000
21
4477623.282500
31
1394.300049
0
LINE
8
KAT_1395
10
539324.7985000
20
4477623.282500
30
1394.300049
11
539326.0458000
21
4477623.142100
31
1394.150024
0
LINE
8
KAT_1395
10
539326.0458000
20
4477623.142100
30
1394.150024
11
539327.5435000
21
4477624.606400
31
1394.024048
0
LINE
8
KAT_1395
10
539327.5435000
20
4477624.606400
30
1394.024048
11
539330.1300000
21
4477627.457100
31
1393.900024
0
LINE
8
KAT_1395
10
539330.1300000
20
4477627.457100
30
1393.900024
11
539331.8663000
21
4477627.715100
31
1393.750000
0
LINE
8
KAT_1395
10
539331.8663000
20
4477627.715100
30
1393.750000
11
539333.5704000
21
4477627.553900
31
1393.699951
0
LINE
8
KAT_1395
10
539333.5704000
20
4477627.553900
30
1393.699951
11
539334.0503000
21
4477627.100900
31
1393.760010
0
LINE
8
KAT_1395
10
539334.0503000
20
4477627.100900
30
1393.760010
11
539334.1512000
21
4477626.505000
31
1393.699951
0
LINE
8
KAT_1395
10
539318.7220000
20
4477622.186900
30
1394.400024
11
539321.3991000
21
4477622.681200
31
1394.380005
0
LINE
8
KAT_1395
10
539321.3991000
20
4477622.681200
30
1394.380005
11
539322.9804000
21
4477622.917400
31
1394.349976
0
LINE
8
KAT_1395
10
539321.8961096
20
4477627.464854
30
1394.288574
11
539320.1620000
21
4477626.882100
31
1394.444946
0
LINE
8
KAT_1395
10
539317.0329000
20
4477627.785800
30
1394.400024
11
539315.9463000
21
4477627.420000
31
1394.400024
0
LINE
8
KAT_1395
10
539324.1810000
20
4477648.931300
30
1393.400024
11
539330.0825000
21
4477649.004600
31
1393.400024
0
LINE
8
KAT_1395
10
539318.7220000
20
4477622.186900
30
1394.400024
11
539316.2850000
21
4477622.540000
31
1394.400024
0
LINE
8
KAT_1395
10
539316.2850000
20
4477622.540000
30
1394.400024
11
539312.8390000
21
4477622.330000
31
1394.400024
0
LINE
8
KAT_1395
10
539312.8390000
20
4477622.330000
30
1394.400024
11
539308.7700000
21
4477622.620000
31
1394.599976
0
LINE
8
KAT_1395
10
539308.7700000
20
4477622.620000
30
1394.599976
11
539307.9838000
21
4477623.804200
31
1394.699951
0
LINE
8
KAT_1395
10
539307.9838000
20
4477623.804200
30
1394.699951
11
539305.7508000
21
4477624.268300
31
1394.907349
0
LINE
8
KAT_1395
10
539307.9921000
20
4477629.720800
30
1394.722534
11
539309.8687000
21
4477629.082100
31
1394.742187
0
LINE
8
KAT_1395
10
539309.8687000
20
4477629.082100
30
1394.742187
11
539311.3005000
21
4477628.036000
31
1394.847778
0
LINE
8
KAT_1395
10
539315.9463000
20
4477627.420000
30
1394.400024
11
539311.3005000
21
4477628.036000
31
1394.847778
0
LINE
8
KAT_1395
10
539317.0329000
20
4477627.785800
30
1394.400024
11
539320.1620000
21
4477626.882100
31
1394.444946
0
LINE
8
KAT_1395
10
539305.7508000
20
4477624.268300
30
1394.907349
11
539305.4180000
21
4477626.542700
31
1394.696411
0
LINE
8
KAT_1395
10
539305.5359000
20
4477631.338400
30
1394.745239
11
539306.7690000
21
4477631.420400
31
1394.770752
0
LINE
8
KAT_1395
10
539306.7690000
20
4477631.420400
30
1394.770752
11
539307.9921000
21
4477629.720800
31
1394.722534
0
LINE
8
KAT_1395
10
539339.7014000
20
4477629.078000
30
1393.699951
11
539339.5850000
21
4477628.378500
31
1393.595947
0
LINE
8
KAT_1395
10
539339.5850000
20
4477628.378500
30
1393.595947
11
539339.2253000
21
4477626.799800
31
1393.595947
0
LINE
8
KAT_1395
10
539339.2253000
20
4477626.799800
30
1393.595947
11
539340.3495000
21
4477625.599800
31
1393.595947
0
LINE
8
KAT_1395
10
539340.3495000
20
4477625.599800
30
1393.595947
11
539341.4243000
21
4477624.777900
31
1393.595947
0
LINE
8
KAT_1395
10
539341.4243000
20
4477624.777900
30
1393.595947
11
539341.0430000
21
4477622.916000
31
1393.595947
0
LINE
8
KAT_1395
10
539341.0430000
20
4477622.916000
30
1393.595947
11
539340.4479000
21
4477621.217000
31
1393.595947
0
LINE
8
KAT_1395
10
539340.4479000
20
4477621.217000
30
1393.595947
11
539338.9968000
21
4477619.707100
31
1393.595947
0
LINE
8
KAT_1395
10
539338.9968000
20
4477619.707100
30
1393.595947
11
539338.6552000
21
4477618.503500
31
1393.595947
0
LINE
8
KAT_1395
10
539338.6552000
20
4477618.503500
30
1393.595947
11
539338.0730000
21
4477618.368700
31
1393.660034
0
LINE
8
KAT_1395
10
539340.0200000
20
4477637.041000
30
1393.699951
11
539342.8711000
21
4477635.157100
31
1393.581909
0
LINE
8
KAT_1395
10
539342.8711000
20
4477635.157100
30
1393.581909
11
539344.4006000
21
4477634.256800
31
1393.560913
0
LINE
8
KAT_1395
10
539344.4006000
20
4477634.256800
30
1393.560913
11
539347.0440000
21
4477633.896300
31
1393.526855
0
LINE
8
KAT_1395
10
539347.0440000
20
4477633.896300
30
1393.526855
11
539347.4615000
21
4477632.485800
31
1393.514160
0
LINE
8
KAT_1395
10
539347.4615000
20
4477632.485800
30
1393.514160
11
539348.5114000
21
4477631.717500
31
1393.645630
0
LINE
8
KAT_1395
10
539345.9759000
20
4477628.241500
30
1393.545044
11
539345.4193000
21
4477628.215200
31
1393.530273
0
LINE
8
KAT_1395
10
539345.4193000
20
4477628.215200
30
1393.530273
11
539343.4000000
21
4477629.670600
31
1393.625854
0
LINE
8
KAT_1395
10
539343.4000000
20
4477629.670600
30
1393.625854
11
539341.2683000
21
4477629.824800
31
1393.650879
0
LINE
8
KAT_1395
10
539341.2683000
20
4477629.824800
30
1393.650879
11
539339.7014000
21
4477629.078000
31
1393.699951
0
LINE
8
KAT_1395
10
539345.9759000
20
4477628.241500
30
1393.545044
11
539346.4992000
21
4477628.181600
31
1393.540039
0
LINE
8
KAT_1395
10
539346.4992000
20
4477628.181600
30
1393.540039
11
539347.0377015
21
4477627.129059
31
1393.540039
0
LINE
8
KAT_1395
10
539347.0377015
20
4477627.129059
30
1393.540039
11
539347.9509630
21
4477625.929023
31
1393.540039
0
LINE
8
KAT_1395
10
539351.3002000
20
4477629.292100
30
1393.540039
11
539348.8277000
21
4477631.043100
31
1393.540039
0
LINE
8
KAT_1395
10
539348.8277000
20
4477631.043100
30
1393.540039
11
539348.5114000
21
4477631.717500
31
1393.645630
0
LINE
8
KAT_1395
10
539305.4180000
20
4477626.542700
30
1394.696411
11
539302.7420000
21
4477627.960000
31
1394.560059
0
LINE
8
KAT_1395
10
539302.7420000
20
4477627.960000
30
1394.560059
11
539300.7177000
21
4477628.222300
31
1394.626099
0
LINE
8
KAT_1395
10
539300.7177000
20
4477628.222300
30
1394.626099
11
539298.5200000
21
4477627.280000
31
1394.800049
0
LINE
8
KAT_1395
10
539298.5200000
20
4477627.280000
30
1394.800049
11
539297.1230000
21
4477627.870000
31
1394.859985
0
LINE
8
KAT_1395
10
539297.1230000
20
4477627.870000
30
1394.859985
11
539293.8460000
21
4477627.910000
31
1394.920044
0
LINE
8
KAT_1395
10
539293.8460000
20
4477627.910000
30
1394.920044
11
539290.8990000
21
4477628.010000
31
1394.989990
0
LINE
8
KAT_1395
10
539290.8990000
20
4477628.010000
30
1394.989990
11
539289.1350000
21
4477627.780000
31
1395.146973
0
LINE
8
KAT_1395
10
539289.1350000
20
4477627.780000
30
1395.146973
11
539285.6540000
21
4477627.660000
31
1395.146973
0
LINE
8
KAT_1395
10
539288.4670000
20
4477632.000000
30
1395.146973
11
539291.2660000
21
4477631.950000
31
1394.949951
0
LINE
8
KAT_1395
10
539291.2660000
20
4477631.950000
30
1394.949951
11
539293.0150000
21
4477631.570000
31
1394.920044
0
LINE
8
KAT_1395
10
539293.0150000
20
4477631.570000
30
1394.920044
11
539294.2680000
21
4477632.360000
31
1394.920044
0
LINE
8
KAT_1395
10
539294.2680000
20
4477632.360000
30
1394.920044
11
539297.3680000
21
4477631.220000
31
1394.859985
0
LINE
8
KAT_1395
10
539297.3680000
20
4477631.220000
30
1394.859985
11
539298.7600000
21
4477631.350000
31
1394.800049
0
LINE
8
KAT_1395
10
539298.7600000
20
4477631.350000
30
1394.800049
11
539299.8595000
21
4477632.100200
31
1394.745850
0
LINE
8
KAT_1395
10
539299.8595000
20
4477632.100200
30
1394.745850
11
539302.2450000
21
4477631.740000
31
1394.609985
0
LINE
8
KAT_1395
10
539302.2450000
20
4477631.740000
30
1394.609985
11
539303.7650000
21
4477631.900000
31
1394.560059
0
LINE
8
KAT_1395
10
539303.7650000
20
4477631.900000
30
1394.560059
11
539305.5359000
21
4477631.338400
31
1394.745239
0
LINE
8
KAT_1395
10
539285.6540000
20
4477627.660000
30
1395.146973
11
539284.4490000
21
4477629.100000
31
1395.140015
0
LINE
8
KAT_1395
10
539284.4490000
20
4477629.100000
30
1395.140015
11
539282.5450000
21
4477629.770000
31
1395.140015
0
LINE
8
KAT_1395
10
539283.8510000
20
4477633.780000
30
1395.140015
11
539286.0030000
21
4477632.440000
31
1395.140015
0
LINE
8
KAT_1395
10
539286.0030000
20
4477632.440000
30
1395.140015
11
539288.4670000
21
4477632.000000
31
1395.146973
0
LINE
8
KAT_1395
10
539351.3002000
20
4477629.292100
30
1393.540039
11
539353.8690000
21
4477628.290000
31
1393.540039
0
LINE
8
KAT_1395
10
539353.8690000
20
4477628.290000
30
1393.540039
11
539353.9120000
21
4477627.420000
31
1393.540039
0
LINE
8
KAT_1395
10
539353.9120000
20
4477627.420000
30
1393.540039
11
539355.4090000
21
4477625.750000
31
1393.540039
0
LINE
8
KAT_1395
10
539352.4720000
20
4477622.470000
30
1393.540039
11
539349.2640000
21
4477626.130000
31
1393.540039
0
LINE
8
KAT_1395
10
539349.2640000
20
4477626.130000
30
1393.540039
11
539347.9509630
21
4477625.929023
31
1393.540039
0
LINE
8
KAT_1395
10
539314.5554000
20
4477726.069600
30
1395.563721
11
539312.6260000
21
4477724.390000
31
1395.000000
0
LINE
8
KAT_1395
10
539282.5450000
20
4477629.770000
30
1395.140015
11
539282.0010000
21
4477629.844100
31
1395.140015
0
LINE
8
KAT_1395
10
539282.0010000
20
4477629.844100
30
1395.140015
11
539279.5125000
21
4477630.495600
31
1395.140015
0
LINE
8
KAT_1395
10
539279.1544000
20
4477634.364900
30
1395.140015
11
539280.8258000
21
4477633.826000
31
1395.140015
0
LINE
8
KAT_1395
10
539280.8258000
20
4477633.826000
30
1395.140015
11
539282.8580000
21
4477633.423600
31
1395.140015
0
LINE
8
KAT_1395
10
539282.8580000
20
4477633.423600
30
1395.140015
11
539283.8510000
21
4477633.780000
31
1395.140015
0
LINE
8
KAT_1395
10
539355.4090000
20
4477625.750000
30
1393.540039
11
539356.4119000
21
4477624.357600
31
1393.540039
0
LINE
8
KAT_1395
10
539354.1336120
20
4477619.501688
30
1393.540039
11
539353.7446000
21
4477621.058300
31
1393.540039
0
LINE
8
KAT_1395
10
539353.7446000
20
4477621.058300
30
1393.540039
11
539353.1357000
21
4477622.354500
31
1393.540039
0
LINE
8
KAT_1395
10
539353.1357000
20
4477622.354500
30
1393.540039
11
539352.4720000
21
4477622.470000
31
1393.540039
0
LINE
8
KAT_1395
10
539356.4119000
20
4477624.357600
30
1393.540039
11
539356.8329000
21
4477623.857500
31
1393.796143
0
LINE
8
KAT_1395
10
539356.8329000
20
4477623.857500
30
1393.796143
11
539357.4133000
21
4477622.770000
31
1393.892578
0
LINE
8
KAT_1395
10
539357.4133000
20
4477622.770000
30
1393.892578
11
539359.6818000
21
4477621.359500
31
1393.998047
0
LINE
8
KAT_1395
10
539359.6818000
20
4477621.359500
30
1393.998047
11
539359.9453000
21
4477620.261200
31
1394.109253
0
LINE
8
KAT_1395
10
539357.1798000
20
4477617.393200
30
1394.033813
11
539355.2981000
21
4477619.078400
31
1393.897705
0
LINE
8
KAT_1395
10
539355.2981000
20
4477619.078400
30
1393.897705
11
539354.1336120
21
4477619.501688
31
1393.540039
0
LINE
8
KAT_1395
10
539279.5125000
20
4477630.495600
30
1395.140015
11
539278.9374000
21
4477630.309800
31
1395.750732
0
LINE
8
KAT_1395
10
539278.9374000
20
4477630.309800
30
1395.750732
11
539277.4123000
21
4477629.617900
31
1395.910767
0
LINE
8
KAT_1395
10
539277.4123000
20
4477629.617900
30
1395.910767
11
539276.2810000
21
4477629.162900
31
1395.943359
0
LINE
8
KAT_1395
10
539275.8507000
20
4477633.968600
30
1396.031860
11
539279.1544000
21
4477634.364900
31
1395.140015
0
LINE
8
KAT_1395
10
539336.7890000
20
4477843.172900
30
1396.500000
11
539339.2395000
21
4477842.835500
31
1396.500000
0
LINE
8
KAT_1395
10
539343.0142000
20
4477847.102700
30
1396.500000
11
539342.0668000
21
4477848.000300
31
1396.500000
0
LINE
8
KAT_1395
10
539342.0668000
20
4477848.000300
30
1396.500000
11
539341.1873000
21
4477848.617900
31
1396.500000
0
LINE
8
KAT_1395
10
539341.1873000
20
4477848.617900
30
1396.500000
11
539339.9513000
21
4477848.831200
31
1396.500000
0
LINE
8
KAT_1395
10
539339.9513000
20
4477848.831200
30
1396.500000
11
539339.6938000
21
4477849.147600
31
1396.598022
0
LINE
8
KAT_1395
10
539339.6938000
20
4477849.147600
30
1396.598022
11
539338.8957000
21
4477851.616800
31
1396.598022
0
LINE
8
KAT_1395
10
539275.8507000
20
4477633.968600
30
1396.031860
11
539274.8950000
21
4477633.438600
31
1396.158447
0
LINE
8
KAT_1395
10
539274.8950000
20
4477633.438600
30
1396.158447
11
539272.9419000
21
4477633.476200
31
1396.344971
0
LINE
8
KAT_1395
10
539272.5456000
20
4477628.982100
30
1396.334961
11
539274.1404000
21
4477628.982600
31
1396.145142
0
LINE
8
KAT_1395
10
539274.1404000
20
4477628.982600
30
1396.145142
11
539276.2810000
21
4477629.162900
31
1395.943359
0
LINE
8
KAT_1395
10
539359.9453000
20
4477620.261200
30
1394.109253
11
539360.5908000
21
4477619.795700
31
1394.160400
0
LINE
8
KAT_1395
10
539360.5908000
20
4477619.795700
30
1394.160400
11
539361.7553000
21
4477618.231900
31
1394.140259
0
LINE
8
KAT_1395
10
539361.7553000
20
4477618.231900
30
1394.140259
11
539361.6243000
21
4477617.177600
31
1394.304443
0
LINE
8
KAT_1395
10
539359.5126000
20
4477614.160000
30
1394.414063
11
539358.0349000
21
4477615.553700
31
1394.042969
0
LINE
8
KAT_1395
10
539358.0349000
20
4477615.553700
30
1394.042969
11
539357.1798000
21
4477617.393200
31
1394.033813
0
LINE
8
KAT_1395
10
539359.5126000
20
4477614.160000
30
1394.414063
11
539360.9441000
21
4477611.634200
31
1394.432495
0
LINE
8
KAT_1395
10
539272.5456000
20
4477628.982100
30
1396.334961
11
539269.2383000
21
4477628.776700
31
1396.830200
0
LINE
8
KAT_1395
10
539269.2383000
20
4477628.776700
30
1396.830200
11
539268.2448000
21
4477629.852100
31
1396.999878
0
LINE
8
KAT_1395
10
539271.6749000
20
4477633.031800
30
1396.642090
11
539272.9419000
21
4477633.476200
31
1396.344971
0
LINE
8
KAT_1395
10
539360.9441000
20
4477611.634200
30
1394.432495
11
539361.8760000
21
4477608.820000
31
1394.430054
0
LINE
8
KAT_1395
10
539316.2563000
20
4477734.003300
30
1395.781616
11
539312.3180000
21
4477730.370000
31
1395.000000
0
LINE
8
KAT_1395
10
539263.3837000
20
4477630.170300
30
1397.384644
11
539265.5254000
21
4477630.353800
31
1397.281616
0
LINE
8
KAT_1395
10
539265.5254000
20
4477630.353800
30
1397.281616
11
539268.2448000
21
4477629.852100
31
1396.999878
0
LINE
8
KAT_1395
10
539361.8760000
20
4477608.820000
30
1394.430054
11
539364.6158000
21
4477609.586800
31
1395.088989
0
LINE
8
KAT_1395
10
539364.6158000
20
4477609.586800
30
1395.088989
11
539366.7172000
21
4477609.367100
31
1395.230347
0
LINE
8
KAT_1395
10
539366.7172000
20
4477609.367100
30
1395.230347
11
539370.5235000
21
4477609.688200
31
1395.315796
0
LINE
8
KAT_1395
10
539364.8366000
20
4477615.845200
30
1394.747559
11
539361.6243000
21
4477617.177600
31
1394.304443
0
LINE
8
KAT_1395
10
539312.6260000
20
4477724.390000
30
1395.000000
11
539308.7590000
21
4477724.530000
31
1394.985962
0
LINE
8
KAT_1395
10
539309.8500000
20
4477729.350000
30
1394.985962
11
539312.3180000
21
4477730.370000
31
1395.000000
0
LINE
8
KAT_1395
10
539370.7220000
20
4477613.550000
30
1395.270020
11
539364.8366000
21
4477615.845200
31
1394.747559
0
LINE
8
KAT_1395
10
539332.8774000
20
4477632.981600
30
1393.711670
11
539334.4523000
21
4477634.747200
31
1393.699951
0
LINE
8
KAT_1395
10
539258.9858000
20
4477633.198800
30
1397.200195
11
539260.6464000
21
4477634.654000
31
1397.244141
0
LINE
8
KAT_1395
10
539260.6464000
20
4477634.654000
30
1397.244141
11
539262.1878000
21
4477636.234500
31
1397.405029
0
LINE
8
KAT_1395
10
539267.2661000
20
4477634.914800
30
1397.042358
11
539268.7305000
21
4477634.027900
31
1396.960205
0
LINE
8
KAT_1395
10
539266.1233000
20
4477632.067900
30
1400.989014
11
539264.8753000
21
4477635.188100
31
1400.793579
0
LINE
8
KAT_1395
10
539271.6749000
20
4477633.031800
30
1396.642090
11
539268.7305000
21
4477634.027900
31
1396.960205
0
LINE
8
KAT_1395
10
539370.5235000
20
4477609.688200
30
1395.315796
11
539373.7647000
21
4477609.732100
31
1395.335449
0
LINE
8
KAT_1395
10
539378.3320000
20
4477613.591400
30
1394.984375
11
539374.0557000
21
4477613.698700
31
1394.953857
0
LINE
8
KAT_1395
10
539374.0557000
20
4477613.698700
30
1394.953857
11
539370.7220000
21
4477613.550000
31
1395.270020
0
LINE
8
KAT_1395
10
539308.7590000
20
4477724.530000
30
1394.985962
11
539307.9470000
21
4477725.060000
31
1395.077026
0
LINE
8
KAT_1395
10
539267.2661000
20
4477634.914800
30
1397.042358
11
539266.2899000
21
4477636.379100
31
1397.266846
0
LINE
8
KAT_1395
10
539262.1183000
20
4477638.321500
30
1397.589355
11
539262.2159000
21
4477636.903200
31
1397.516846
0
LINE
8
KAT_1395
10
539262.2159000
20
4477636.903200
30
1397.516846
11
539262.1878000
21
4477636.234500
31
1397.405029
0
LINE
8
KAT_1395
10
539263.3837000
20
4477630.170300
30
1397.384644
11
539260.6273000
21
4477628.574600
31
1397.445557
0
LINE
8
KAT_1395
10
539260.6273000
20
4477628.574600
30
1397.445557
11
539259.1499000
21
4477627.667500
31
1397.308350
0
LINE
8
KAT_1395
10
539259.1499000
20
4477627.667500
30
1397.308350
11
539258.3502000
21
4477626.535800
31
1397.302856
0
LINE
8
KAT_1395
10
539253.9981000
20
4477629.561800
30
1397.223877
11
539256.1002000
21
4477631.096900
31
1397.310181
0
LINE
8
KAT_1395
10
539256.1002000
20
4477631.096900
30
1397.310181
11
539256.3632000
21
4477632.198900
31
1397.336426
0
LINE
8
KAT_1395
10
539256.3632000
20
4477632.198900
30
1397.336426
11
539258.0419000
21
4477632.708200
31
1397.311401
0
LINE
8
KAT_1395
10
539258.0419000
20
4477632.708200
30
1397.311401
11
539258.9858000
21
4477633.198800
31
1397.200195
0
LINE
8
KAT_1395
10
539378.3320000
20
4477613.591400
30
1394.984375
11
539380.1683000
21
4477613.201500
31
1395.144165
0
LINE
8
KAT_1395
10
539307.9470000
20
4477725.060000
30
1395.077026
11
539305.9672000
21
4477725.306200
31
1394.605835
0
LINE
8
KAT_1395
10
539305.9672000
20
4477725.306200
30
1394.605835
11
539304.8240000
21
4477726.039800
31
1394.270630
0
LINE
8
KAT_1395
10
539266.2899000
20
4477636.379100
30
1397.266846
11
539266.4018000
21
4477637.203500
31
1397.500000
0
LINE
8
KAT_1395
10
539266.4018000
20
4477637.203500
30
1397.500000
11
539267.6923000
21
4477638.870200
31
1397.500000
0
LINE
8
KAT_1395
10
539263.8328000
20
4477640.938700
30
1397.500000
11
539262.8111000
21
4477638.806300
31
1397.500000
0
LINE
8
KAT_1395
10
539262.8111000
20
4477638.806300
30
1397.500000
11
539262.1183000
21
4477638.321500
31
1397.589355
0
LINE
8
KAT_1395
10
539373.7647000
20
4477609.732100
30
1395.335449
11
539378.2236000
21
4477609.156300
31
1395.280029
0
LINE
8
KAT_1395
10
539378.2236000
20
4477609.156300
30
1395.280029
11
539380.4531000
21
4477608.277800
31
1395.280029
0
LINE
8
KAT_1395
10
539258.3502000
20
4477626.535800
30
1397.302856
11
539256.7240000
21
4477623.040000
31
1397.300049
0
LINE
8
KAT_1395
10
539256.7240000
20
4477623.040000
30
1397.300049
11
539255.8370000
21
4477620.780000
31
1397.300049
0
LINE
8
KAT_1395
10
539255.8370000
20
4477620.780000
30
1397.300049
11
539253.0940000
21
4477621.100000
31
1397.300049
0
LINE
8
KAT_1395
10
539380.4531000
20
4477608.277800
30
1395.280029
11
539383.3510000
21
4477606.440000
31
1395.380005
0
LINE
8
KAT_1395
10
539383.3510000
20
4477606.440000
30
1395.380005
11
539386.2630000
21
4477606.020000
31
1395.380005
0
LINE
8
KAT_1395
10
539387.6440000
20
4477609.730000
30
1395.380005
11
539383.4055000
21
4477612.010000
31
1395.280029
0
LINE
8
KAT_1395
10
539383.4055000
20
4477612.010000
30
1395.280029
11
539380.1683000
21
4477613.201500
31
1395.144165
0
LINE
8
KAT_1395
10
539339.2395000
20
4477842.835500
30
1396.500000
11
539341.5986000
21
4477843.546100
31
1396.500000
0
LINE
8
KAT_1395
10
539341.5986000
20
4477843.546100
30
1396.500000
11
539343.7733000
21
4477842.531900
31
1396.500000
0
LINE
8
KAT_1395
10
539343.7733000
20
4477842.531900
30
1396.500000
11
539348.1188000
21
4477839.613800
31
1396.008057
0
LINE
8
KAT_1395
10
539348.1188000
20
4477839.613800
30
1396.008057
11
539350.7898000
21
4477838.153600
31
1395.319946
0
LINE
8
KAT_1395
10
539350.7898000
20
4477838.153600
30
1395.319946
11
539354.4613000
21
4477836.564700
31
1395.099976
0
LINE
8
KAT_1395
10
539354.4613000
20
4477836.564700
30
1395.099976
11
539354.9203000
21
4477836.637900
31
1395.020020
0
LINE
8
KAT_1395
10
539354.9203000
20
4477836.637900
30
1395.020020
11
539356.6886000
21
4477836.224200
31
1394.770020
0
LINE
8
KAT_1395
10
539356.6886000
20
4477836.224200
30
1394.770020
11
539358.4027000
21
4477835.356100
31
1394.500000
0
LINE
8
KAT_1395
10
539358.4027000
20
4477835.356100
30
1394.500000
11
539359.7508000
21
4477836.200400
31
1394.339966
0
LINE
8
KAT_1395
10
539366.6023000
20
4477837.903300
30
1393.949951
11
539362.5700000
21
4477839.190000
31
1394.170044
0
LINE
8
KAT_1395
10
539362.5700000
20
4477839.190000
30
1394.170044
11
539359.7894000
21
4477839.795700
31
1394.339966
0
LINE
8
KAT_1395
10
539359.7894000
20
4477839.795700
30
1394.339966
11
539356.2960000
21
4477840.478800
31
1395.020020
0
LINE
8
KAT_1395
10
539356.2960000
20
4477840.478800
30
1395.020020
11
539353.4578000
21
4477841.189500
31
1395.381348
0
LINE
8
KAT_1395
10
539353.4578000
20
4477841.189500
30
1395.381348
11
539351.8127000
21
4477842.150000
31
1395.650024
0
LINE
8
KAT_1395
10
539351.8127000
20
4477842.150000
30
1395.650024
11
539350.0404000
21
4477842.945500
31
1395.799805
0
LINE
8
KAT_1395
10
539350.0404000
20
4477842.945500
30
1395.799805
11
539347.1984000
21
4477844.983000
31
1396.396118
0
LINE
8
KAT_1395
10
539347.1984000
20
4477844.983000
30
1396.396118
11
539345.1086000
21
4477846.160200
31
1396.500000
0
LINE
8
KAT_1395
10
539345.1086000
20
4477846.160200
30
1396.500000
11
539343.0142000
21
4477847.102700
31
1396.500000
0
LINE
8
KAT_1395
10
539253.0940000
20
4477621.100000
30
1397.300049
11
539251.8624000
21
4477621.806000
31
1397.181396
0
LINE
8
KAT_1395
10
539251.8624000
20
4477621.806000
30
1397.181396
11
539249.6287000
21
4477621.011700
31
1396.937134
0
LINE
8
KAT_1395
10
539249.6287000
20
4477621.011700
30
1396.937134
11
539247.8304000
21
4477621.395500
31
1396.810791
0
LINE
8
KAT_1395
10
539247.8304000
20
4477621.395500
30
1396.810791
11
539244.3861000
21
4477621.509400
31
1396.456177
0
LINE
8
KAT_1395
10
539244.5694000
20
4477625.158200
30
1396.583130
11
539245.6929000
21
4477625.876200
31
1396.791504
0
LINE
8
KAT_1395
10
539245.6929000
20
4477625.876200
30
1396.791504
11
539247.7289000
21
4477625.950100
31
1396.989990
0
LINE
8
KAT_1395
10
539247.7289000
20
4477625.950100
30
1396.989990
11
539251.2761000
21
4477625.938200
31
1397.113647
0
LINE
8
KAT_1395
10
539251.2761000
20
4477625.938200
30
1397.113647
11
539253.2299000
21
4477626.685700
31
1397.045166
0
LINE
8
KAT_1395
10
539253.2299000
20
4477626.685700
30
1397.045166
11
539253.9981000
21
4477629.561800
31
1397.223877
0
LINE
8
KAT_1395
10
539386.2630000
20
4477606.020000
30
1395.380005
11
539389.3886000
21
4477604.391700
31
1395.117310
0
LINE
8
KAT_1395
10
539389.3886000
20
4477604.391700
30
1395.117310
11
539392.2310000
21
4477603.190800
31
1395.092285
0
LINE
8
KAT_1395
10
539392.2310000
20
4477603.190800
30
1395.092285
11
539394.8219000
21
4477602.807900
31
1394.890381
0
LINE
8
KAT_1395
10
539393.5674000
20
4477607.443300
30
1394.947754
11
539389.9011000
21
4477608.497000
31
1395.056152
0
LINE
8
KAT_1395
10
539389.9011000
20
4477608.497000
30
1395.056152
11
539387.6440000
21
4477609.730000
31
1395.380005
0
LINE
8
KAT_1395
10
539359.7508000
20
4477836.200400
30
1394.339966
11
539366.8720000
21
4477833.690000
31
1393.530029
0
LINE
8
KAT_1395
10
539369.2550000
20
4477837.270000
30
1393.689941
11
539366.6023000
21
4477837.903300
31
1393.949951
0
LINE
8
KAT_1395
10
539244.3861000
20
4477621.509400
30
1396.456177
11
539241.4742000
21
4477620.827200
31
1396.196899
0
LINE
8
KAT_1395
10
539263.8328000
20
4477640.938700
30
1397.500000
11
539264.3630000
21
4477644.220100
31
1397.177856
0
LINE
8
KAT_1395
10
539264.3630000
20
4477644.220100
30
1397.177856
11
539266.1266000
21
4477649.110300
31
1397.216187
0
LINE
8
KAT_1395
10
539267.6923000
20
4477638.870200
30
1397.500000
11
539269.0780000
21
4477643.183000
31
1397.165039
0
LINE
8
KAT_1395
10
539394.8219000
20
4477602.807900
30
1394.890381
11
539397.8006000
21
4477602.422400
31
1395.220459
0
LINE
8
KAT_1395
10
539397.8006000
20
4477602.422400
30
1395.220459
11
539400.6569000
21
4477601.968300
31
1395.239868
0
LINE
8
KAT_1395
10
539400.6569000
20
4477601.968300
30
1395.239868
11
539401.6539000
21
4477602.041500
31
1395.252930
0
LINE
8
KAT_1395
10
539401.6539000
20
4477602.041500
30
1395.252930
11
539402.9962000
21
4477605.738200
31
1395.300049
0
LINE
8
KAT_1395
10
539402.9962000
20
4477605.738200
30
1395.300049
11
539398.9394000
21
4477606.419200
31
1395.300049
0
LINE
8
KAT_1395
10
539398.9394000
20
4477606.419200
30
1395.300049
11
539393.5674000
21
4477607.443300
31
1394.947754
0
LINE
8
KAT_1395
10
539373.2430000
20
4477832.920000
30
1393.219971
11
539373.6480000
21
4477833.830000
31
1393.219971
0
LINE
8
KAT_1395
10
539373.6480000
20
4477833.830000
30
1393.219971
11
539373.4860000
21
4477835.690000
31
1393.219971
0
LINE
8
KAT_1395
10
539373.4860000
20
4477835.690000
30
1393.219971
11
539371.7777000
21
4477836.943100
31
1393.689941
0
LINE
8
KAT_1395
10
539371.7777000
20
4477836.943100
30
1393.689941
11
539369.2550000
21
4477837.270000
31
1393.689941
0
LINE
8
KAT_1395
10
539241.4742000
20
4477620.827200
30
1396.196899
11
539239.7040000
21
4477621.230000
31
1395.855957
0
LINE
8
KAT_1395
10
539239.4987000
20
4477625.480800
30
1395.856323
11
539244.5694000
21
4477625.158200
31
1396.583130
0
LINE
8
KAT_1395
10
539269.0780000
20
4477643.183000
30
1397.165039
11
539270.7479000
21
4477647.543700
31
1397.225098
0
LINE
8
KAT_1395
10
539270.7479000
20
4477647.543700
30
1397.225098
11
539273.1516000
21
4477650.997700
31
1396.944824
0
LINE
8
KAT_1395
10
539269.7856000
20
4477653.467900
30
1396.935547
11
539267.6163000
21
4477649.814900
31
1396.966675
0
LINE
8
KAT_1395
10
539267.6163000
20
4477649.814900
30
1396.966675
11
539266.1266000
21
4477649.110300
31
1397.216187
0
LINE
8
KAT_1395
10
539309.8500000
20
4477729.350000
30
1394.985962
11
539308.1170000
21
4477729.893400
31
1395.133667
0
LINE
8
KAT_1395
10
539366.8720000
20
4477833.690000
30
1393.530029
11
539368.2995000
21
4477831.324300
31
1393.280518
0
LINE
8
KAT_1395
10
539368.2995000
20
4477831.324300
30
1393.280518
11
539369.9446000
21
4477828.828300
31
1393.395874
0
LINE
8
KAT_1395
10
539369.9446000
20
4477828.828300
30
1393.395874
11
539370.9745000
21
4477828.317500
31
1393.347290
0
LINE
8
KAT_1395
10
539370.9745000
20
4477828.317500
30
1393.347290
11
539372.3132000
21
4477826.273200
31
1393.360596
0
LINE
8
KAT_1395
10
539373.7250000
20
4477831.834000
30
1393.069946
11
539373.2430000
21
4477832.920000
31
1393.219971
0
LINE
8
KAT_1395
10
539374.3724000
20
4477824.335800
30
1396.013550
11
539373.2819000
21
4477825.864900
31
1395.872803
0
LINE
8
KAT_1395
10
539373.2819000
20
4477825.864900
30
1395.872803
11
539372.3132000
21
4477826.273200
31
1393.360596
0
LINE
8
KAT_1395
10
539239.4987000
20
4477625.480800
30
1395.856323
11
539237.5543000
21
4477625.946000
31
1395.818848
0
LINE
8
KAT_1395
10
539237.5543000
20
4477625.946000
30
1395.818848
11
539236.2950000
21
4477626.126900
31
1395.504150
0
LINE
8
KAT_1395
10
539236.2950000
20
4477626.126900
30
1395.504150
11
539234.8411000
21
4477626.559400
31
1395.458252
0
LINE
8
KAT_1395
10
539234.8411000
20
4477626.559400
30
1395.458252
11
539233.8799000
21
4477627.301800
31
1394.889893
0
LINE
8
KAT_1395
10
539233.8799000
20
4477627.301800
30
1394.889893
11
539232.5965000
21
4477627.181200
31
1394.831299
0
LINE
8
KAT_1395
10
539232.5965000
20
4477627.181200
30
1394.831299
11
539232.2631000
21
4477626.907300
31
1394.800171
0
LINE
8
KAT_1395
10
539232.2631000
20
4477626.907300
30
1394.800171
11
539231.5540000
21
4477626.821600
31
1394.702271
0
LINE
8
KAT_1395
10
539231.5540000
20
4477626.821600
30
1394.702271
11
539230.8092000
21
4477627.354100
31
1394.575073
0
LINE
8
KAT_1395
10
539230.8092000
20
4477627.354100
30
1394.575073
11
539229.4793000
21
4477627.334700
31
1394.407593
0
LINE
8
KAT_1395
10
539229.4793000
20
4477627.334700
30
1394.407593
11
539227.2528000
21
4477627.687100
31
1394.005493
0
LINE
8
KAT_1395
10
539227.2528000
20
4477627.687100
30
1394.005493
11
539226.2110000
21
4477627.483700
31
1393.665161
0
LINE
8
KAT_1395
10
539226.2110000
20
4477627.483700
30
1393.665161
11
539224.4106000
21
4477627.885500
31
1393.384399
0
LINE
8
KAT_1395
10
539224.4106000
20
4477627.885500
30
1393.384399
11
539223.6529000
21
4477627.565400
31
1393.335693
0
LINE
8
KAT_1395
10
539223.6529000
20
4477627.565400
30
1393.335693
11
539222.0333000
21
4477627.937000
31
1393.253296
0
LINE
8
KAT_1395
10
539222.1310000
20
4477623.503100
30
1393.186157
11
539224.2008000
21
4477623.030100
31
1393.542114
0
LINE
8
KAT_1395
10
539224.2008000
20
4477623.030100
30
1393.542114
11
539228.6559000
21
4477622.954700
31
1394.208740
0
LINE
8
KAT_1395
10
539228.6559000
20
4477622.954700
30
1394.208740
11
539230.8983000
21
4477622.832900
31
1394.536865
0
LINE
8
KAT_1395
10
539230.8983000
20
4477622.832900
30
1394.536865
11
539231.9864000
21
4477622.436600
31
1394.633667
0
LINE
8
KAT_1395
10
539231.9864000
20
4477622.436600
30
1394.633667
11
539234.6585000
21
4477622.378200
31
1395.261353
0
LINE
8
KAT_1395
10
539234.6585000
20
4477622.378200
30
1395.261353
11
539236.8424000
21
4477621.592200
31
1395.633423
0
LINE
8
KAT_1395
10
539236.8424000
20
4477621.592200
30
1395.633423
11
539239.7040000
21
4477621.230000
31
1395.855957
0
LINE
8
KAT_1395
10
539273.1516000
20
4477650.997700
30
1396.944824
11
539274.3412000
21
4477652.902100
31
1396.944946
0
LINE
8
KAT_1395
10
539274.3412000
20
4477652.902100
30
1396.944946
11
539274.7511000
21
4477653.428400
31
1396.944946
0
LINE
8
KAT_1395
10
539274.7511000
20
4477653.428400
30
1396.944946
11
539274.6878000
21
4477654.616900
31
1396.944946
0
LINE
8
KAT_1395
10
539274.6878000
20
4477654.616900
30
1396.944946
11
539275.0739000
21
4477656.080200
31
1396.944946
0
LINE
8
KAT_1395
10
539275.0739000
20
4477656.080200
30
1396.944946
11
539271.4252000
21
4477657.095200
31
1396.944946
0
LINE
8
KAT_1395
10
539373.7250000
20
4477831.834000
30
1393.069946
11
539374.6595000
21
4477830.806500
31
1393.119629
0
LINE
8
KAT_1395
10
539374.6595000
20
4477830.806500
30
1393.119629
11
539375.7048000
21
4477829.861300
31
1393.187256
0
LINE
8
KAT_1395
10
539375.7048000
20
4477829.861300
30
1393.187256
11
539376.6734000
21
4477828.528700
31
1393.172852
0
LINE
8
KAT_1395
10
539376.6734000
20
4477828.528700
30
1393.172852
11
539378.2275000
21
4477827.666000
31
1393.187622
0
LINE
8
KAT_1395
10
539378.0858000
20
4477822.912200
30
1393.058350
11
539377.1883000
21
4477822.831300
31
1393.029053
0
LINE
8
KAT_1395
10
539377.1883000
20
4477822.831300
30
1393.029053
11
539375.8097000
21
4477824.062600
31
1393.084717
0
LINE
8
KAT_1395
10
539375.8097000
20
4477824.062600
30
1393.084717
11
539374.3724000
21
4477824.335800
31
1396.013550
0
LINE
8
KAT_1395
10
539269.7856000
20
4477653.467900
30
1396.935547
11
539271.4252000
21
4477657.095200
31
1396.944946
0
LINE
8
KAT_1395
10
539220.2312000
20
4477627.512000
30
1393.046753
11
539222.0333000
21
4477627.937000
31
1393.253296
0
LINE
8
KAT_1395
10
539378.0858000
20
4477822.912200
30
1393.058350
11
539381.0018000
21
4477821.278900
31
1393.337646
0
LINE
8
KAT_1395
10
539381.0018000
20
4477821.278900
30
1393.337646
11
539382.5737000
21
4477820.358300
31
1393.383911
0
LINE
8
KAT_1395
10
539382.5737000
20
4477820.358300
30
1393.383911
11
539384.2129000
21
4477819.023200
31
1393.302856
0
LINE
8
KAT_1395
10
539388.9295000
20
4477820.591000
30
1393.346680
11
539387.3680000
21
4477821.585100
31
1393.348267
0
LINE
8
KAT_1395
10
539387.3680000
20
4477821.585100
30
1393.348267
11
539384.9467000
21
4477823.549000
31
1393.496460
0
LINE
8
KAT_1395
10
539384.9467000
20
4477823.549000
30
1393.496460
11
539384.4204000
21
4477824.882400
31
1393.498169
0
LINE
8
KAT_1395
10
539384.4204000
20
4477824.882400
30
1393.498169
11
539383.2237000
21
4477825.401500
31
1393.472412
0
LINE
8
KAT_1395
10
539383.2237000
20
4477825.401500
30
1393.472412
11
539380.6140000
21
4477828.160000
31
1393.515015
0
LINE
8
KAT_1395
10
539380.6140000
20
4477828.160000
30
1393.515015
11
539378.2275000
21
4477827.666000
31
1393.187622
0
LINE
8
KAT_1395
10
539384.2129000
20
4477819.023200
30
1393.302856
11
539386.9311000
21
4477816.898900
31
1393.451172
0
LINE
8
KAT_1395
10
539390.2308000
20
4477819.505400
30
1393.322144
11
539388.9295000
21
4477820.591000
31
1393.346680
0
LINE
8
KAT_1395
10
539222.1310000
20
4477623.503100
30
1393.186157
11
539217.5846000
21
4477623.961900
31
1392.838623
0
LINE
8
KAT_1395
10
539217.5846000
20
4477623.961900
30
1392.838623
11
539212.6915000
21
4477624.024600
31
1392.625610
0
LINE
8
KAT_1395
10
539212.6915000
20
4477624.024600
30
1392.625610
11
539210.1528000
21
4477623.167300
31
1392.654541
0
LINE
8
KAT_1395
10
539209.1202000
20
4477627.570400
30
1392.408081
11
539210.5417000
21
4477629.038900
31
1392.709961
0
LINE
8
KAT_1395
10
539210.5417000
20
4477629.038900
30
1392.709961
11
539215.9401000
21
4477628.566800
31
1392.722656
0
LINE
8
KAT_1395
10
539215.9401000
20
4477628.566800
30
1392.722656
11
539220.2312000
21
4477627.512000
31
1393.046753
0
LINE
8
KAT_1395
10
539386.9311000
20
4477816.898900
30
1393.451172
11
539388.3190000
21
4477814.360000
31
1393.130005
0
LINE
8
KAT_1395
10
539388.3190000
20
4477814.360000
30
1393.130005
11
539390.8058000
21
4477813.484700
31
1393.130005
0
LINE
8
KAT_1395
10
539205.1455000
20
4477627.619100
30
1392.613037
11
539209.1202000
21
4477627.570400
31
1392.408081
0
LINE
8
KAT_1395
10
539304.8240000
20
4477726.039800
30
1394.270630
11
539302.5080000
21
4477728.880000
31
1393.870972
0
LINE
8
KAT_1395
10
539302.5080000
20
4477728.880000
30
1393.870972
11
539300.0420000
21
4477729.880000
31
1393.296997
0
LINE
8
KAT_1395
10
539300.0420000
20
4477729.880000
30
1393.296997
11
539298.0436176
21
4477729.789755
31
1394.729980
0
LINE
8
KAT_1395
10
539298.0436176
20
4477729.789755
30
1394.729980
11
539296.4336000
21
4477730.433000
31
1393.326904
0
LINE
8
KAT_1395
10
539298.4067000
20
4477735.072100
30
1393.304810
11
539299.6968000
21
4477734.164700
31
1393.241455
0
LINE
8
KAT_1395
10
539299.6968000
20
4477734.164700
30
1393.241455
11
539301.3431000
21
4477733.831300
31
1393.555054
0
LINE
8
KAT_1395
10
539301.3431000
20
4477733.831300
30
1393.555054
11
539302.6494000
21
4477733.870000
31
1393.766479
0
LINE
8
KAT_1395
10
539302.6494000
20
4477733.870000
30
1393.766479
11
539304.3845000
21
4477732.365200
31
1394.084961
0
LINE
8
KAT_1395
10
539304.3845000
20
4477732.365200
30
1394.084961
11
539308.1170000
21
4477729.893400
31
1395.133667
0
LINE
8
KAT_1395
10
539390.8058000
20
4477813.484700
30
1393.130005
11
539392.6474000
21
4477812.306300
31
1393.517578
0
LINE
8
KAT_1395
10
539392.6474000
20
4477812.306300
30
1393.517578
11
539394.2037000
21
4477811.090800
31
1393.406738
0
LINE
8
KAT_1395
10
539394.2037000
20
4477811.090800
30
1393.406738
11
539396.2600000
21
4477809.440000
31
1393.406982
0
LINE
8
KAT_1395
10
539398.5430000
20
4477812.550000
30
1393.406982
11
539396.4493000
21
4477814.465000
31
1393.586060
0
LINE
8
KAT_1395
10
539396.4493000
20
4477814.465000
30
1393.586060
11
539395.2373000
21
4477815.396200
31
1393.624756
0
LINE
8
KAT_1395
10
539395.2373000
20
4477815.396200
30
1393.624756
11
539393.5640000
21
4477817.060000
31
1394.927979
0
LINE
8
KAT_1395
10
539393.5640000
20
4477817.060000
30
1394.927979
11
539390.9885000
21
4477817.690700
31
1393.130005
0
LINE
8
KAT_1395
10
539390.9885000
20
4477817.690700
30
1393.130005
11
539390.2308000
21
4477819.505400
31
1393.322144
0
LINE
8
KAT_1395
10
539210.1528000
20
4477623.167300
30
1392.654541
11
539208.3594000
21
4477623.759200
31
1392.638794
0
LINE
8
KAT_1395
10
539208.3594000
20
4477623.759200
30
1392.638794
11
539206.3858000
21
4477623.740500
31
1392.418335
0
LINE
8
KAT_1395
10
539206.3858000
20
4477623.740500
30
1392.418335
11
539203.5351668
21
4477622.992424
31
1392.282959
0
LINE
8
KAT_1395
10
539203.5351668
20
4477622.992424
30
1392.282959
11
539201.9914000
21
4477623.288700
31
1392.226074
0
LINE
8
KAT_1395
10
539201.9914000
20
4477623.288700
30
1392.226074
11
539200.5467000
21
4477623.164000
31
1391.941772
0
LINE
8
KAT_1395
10
539200.5467000
20
4477623.164000
30
1391.941772
11
539198.8446000
21
4477623.304300
31
1391.965698
0
LINE
8
KAT_1395
10
539198.8446000
20
4477623.304300
30
1391.965698
11
539196.2260000
21
4477623.094600
31
1391.906738
0
LINE
8
KAT_1395
10
539196.2260000
20
4477623.094600
30
1391.906738
11
539193.7319000
21
4477623.188200
31
1391.833130
0
LINE
8
KAT_1395
10
539197.8899000
20
4477627.721000
30
1391.708252
11
539199.9927000
21
4477627.669500
31
1391.981323
0
LINE
8
KAT_1395
10
539199.9927000
20
4477627.669500
30
1391.981323
11
539201.8295000
21
4477627.895000
31
1392.160278
0
LINE
8
KAT_1395
10
539201.8295000
20
4477627.895000
30
1392.160278
11
539204.0064000
21
4477627.630800
31
1392.406738
0
LINE
8
KAT_1395
10
539204.0064000
20
4477627.630800
30
1392.406738
11
539205.1455000
21
4477627.619100
31
1392.613037
0
LINE
8
KAT_1395
10
539398.5430000
20
4477812.550000
30
1393.406982
11
539400.0754000
21
4477811.223400
31
1393.765381
0
LINE
8
KAT_1395
10
539400.0754000
20
4477811.223400
30
1393.765381
11
539401.0907000
21
4477809.960400
31
1393.700073
0
LINE
8
KAT_1395
10
539401.0907000
20
4477809.960400
30
1393.700073
11
539402.4996000
21
4477808.704300
31
1393.886353
0
LINE
8
KAT_1395
10
539402.4996000
20
4477808.704300
30
1393.886353
11
539399.6740000
21
4477805.153320
31
1393.849976
0
LINE
8
KAT_1395
10
539399.6740000
20
4477805.153320
30
1393.849976
11
539397.7145491
21
4477807.226339
31
1393.750000
0
LINE
8
KAT_1395
10
539397.7145491
20
4477807.226339
30
1393.750000
11
539396.4805000
21
4477809.023900
31
1393.713013
0
LINE
8
KAT_1395
10
539396.4805000
20
4477809.023900
30
1393.713013
11
539396.2600000
21
4477809.440000
31
1393.406982
0
LINE
8
KAT_1395
10
539197.8899000
20
4477627.721000
30
1391.708252
11
539194.5666000
21
4477628.072400
31
1391.724731
0
LINE
8
KAT_1395
10
539194.5666000
20
4477628.072400
30
1391.724731
11
539191.6463000
21
4477628.389400
31
1391.608276
0
LINE
8
KAT_1395
10
539191.6463000
20
4477628.389400
30
1391.608276
11
539190.8625000
21
4477624.586400
31
1391.550659
0
LINE
8
KAT_1395
10
539190.8625000
20
4477624.586400
30
1391.550659
11
539193.7319000
21
4477623.188200
31
1391.833130
0
LINE
8
KAT_1395
10
539294.4971000
20
4477731.074200
30
1393.180054
11
539296.7582000
21
4477735.797800
31
1393.180054
0
LINE
8
KAT_1395
10
539296.7582000
20
4477735.797800
30
1393.180054
11
539298.4067000
21
4477735.072100
31
1393.304810
0
LINE
8
KAT_1395
10
539296.4336000
20
4477730.433000
30
1393.326904
11
539294.4971000
21
4477731.074200
31
1393.180054
0
LINE
8
PERSONEL_1395
10
539234.1566838
20
4477760.306873
30
1433.037964
11
539231.4446188
21
4477770.497663
31
1434.299438
0
LINE
8
PERSONEL_1395
10
539231.4446188
20
4477770.497663
30
1434.299438
11
539231.9880665
21
4477786.665231
31
1435.984375
0
LINE
8
PERSONEL_1395
10
539231.9880665
20
4477786.665231
30
1435.984375
11
539238.5094386
21
4477798.756942
31
1435.024414
0
LINE
8
PERSONEL_1395
10
539238.5094386
20
4477798.756942
30
1435.024414
11
539253.9976972
21
4477810.033481
31
1434.512451
0
LINE
8
PERSONEL_1395
10
539253.9976972
20
4477810.033481
30
1434.512451
11
539266.4969937
21
4477818.864506
31
1434.129761
0
LINE
8
PERSONEL_1395
10
539266.4969937
20
4477818.864506
30
1434.129761
11
539278.7245663
21
4477820.630711
31
1431.113525
0
LINE
8
PERSONEL_1395
10
539278.7245663
20
4477820.630711
30
1431.113525
11
539290.4086913
21
4477820.087263
31
1429.450562
0
LINE
8
PERSONEL_1395
10
539290.4086913
20
4477820.087263
30
1429.450562
11
539300.7749557
21
4477818.035748
31
1427.449707
0
LINE
8
PERSONEL_1395
10
539300.7749557
20
4477818.035748
30
1427.449707
11
539328.5134306
21
4477798.901861
31
1426.547852
0
LINE
8
PERSONEL_1395
10
539328.5134306
20
4477798.901861
30
1426.547852
11
539338.1369831
21
4477788.032908
31
1423.946045
0
LINE
8
PERSONEL_1395
10
539338.1369831
20
4477788.032908
30
1423.946045
11
539341.8731859
21
4477775.352462
31
1421.771606
0
LINE
8
PERSONEL_1395
10
539341.8731859
20
4477775.352462
30
1421.771606
11
539340.4013484
21
4477759.501905
31
1420.119995
0
LINE
8
PERSONEL_1395
10
539340.4013484
20
4477759.501905
30
1420.119995
11
539336.4387092
21
4477747.953642
31
1419.290283
0
LINE
8
PERSONEL_1395
10
539336.4387092
20
4477747.953642
30
1419.290283
11
539336.8915822
21
4477701.873808
31
1418.097046
0
LINE
8
PERSONEL_1395
10
539336.8915822
20
4477701.873808
30
1418.097046
11
539337.3624477
21
4477636.004104
31
1417.032227
0
ENDSEC
0
EOF
