  0
SECTION
  2
HEADER
  9
$ACADVER
  1
AC1024
  9
$ACADMAINTVER
 70
     6
  9
$DWGCODEPAGE
  3
ANSI_1254
  9
$LASTSAVEDBY
  1
Mehmet
  9
$INSBASE
 10
0.0
 20
0.0
 30
0.0
  9
$EXTMIN
 10
539226.7598790488
 20
4477618.3687
 30
0.0
  9
$EXTMAX
 10
539364.7172
 20
4477860.136168185
 30
2871.246826171875
  9
$LIMMIN
 10
0.0
 20
0.0
  9
$LIMMAX
 10
420.0
 20
297.0
  9
$ORTHOMODE
 70
     0
  9
$REGENMODE
 70
     1
  9
$FILLMODE
 70
     1
  9
$QTEXTMODE
 70
     0
  9
$MIRRTEXT
 70
     1
  9
$LTSCALE
 40
1.0
  9
$ATTMODE
 70
     1
  9
$TEXTSIZE
 40
2.5
  9
$TRACEWID
 40
1.0
  9
$TEXTSTYLE
  7
Standard
  9
$CLAYER
  8
GEOFENCE
  9
$CELTYPE
  6
ByLayer
  9
$CECOLOR
 62
   256
  9
$CELTSCALE
 40
1.0
  9
$DISPSILH
 70
     0
  9
$DIMSCALE
 40
1.0
  9
$DIMASZ
 40
2.5
  9
$DIMEXO
 40
0.625
  9
$DIMDLI
 40
3.75
  9
$DIMRND
 40
0.0
  9
$DIMDLE
 40
0.0
  9
$DIMEXE
 40
1.25
  9
$DIMTP
 40
0.0
  9
$DIMTM
 40
0.0
  9
$DIMTXT
 40
2.5
  9
$DIMCEN
 40
2.5
  9
$DIMTSZ
 40
0.0
  9
$DIMTOL
 70
     0
  9
$DIMLIM
 70
     0
  9
$DIMTIH
 70
     0
  9
$DIMTOH
 70
     0
  9
$DIMSE1
 70
     0
  9
$DIMSE2
 70
     0
  9
$DIMTAD
 70
     1
  9
$DIMZIN
 70
     8
  9
$DIMBLK
  1

  9
$DIMASO
 70
     1
  9
$DIMSHO
 70
     1
  9
$DIMPOST
  1

  9
$DIMAPOST
  1

  9
$DIMALT
 70
     0
  9
$DIMALTD
 70
     3
  9
$DIMALTF
 40
0.03937007874016
  9
$DIMLFAC
 40
1.0
  9
$DIMTOFL
 70
     1
  9
$DIMTVP
 40
0.0
  9
$DIMTIX
 70
     0
  9
$DIMSOXD
 70
     0
  9
$DIMSAH
 70
     0
  9
$DIMBLK1
  1

  9
$DIMBLK2
  1

  9
$DIMSTYLE
  2
ISO-25
  9
$DIMCLRD
 70
     0
  9
$DIMCLRE
 70
     0
  9
$DIMCLRT
 70
     0
  9
$DIMTFAC
 40
1.0
  9
$DIMGAP
 40
0.625
  9
$DIMJUST
 70
     0
  9
$DIMSD1
 70
     0
  9
$DIMSD2
 70
     0
  9
$DIMTOLJ
 70
     0
  9
$DIMTZIN
 70
     8
  9
$DIMALTZ
 70
     0
  9
$DIMALTTZ
 70
     0
  9
$DIMUPT
 70
     0
  9
$DIMDEC
 70
     2
  9
$DIMTDEC
 70
     2
  9
$DIMALTU
 70
     2
  9
$DIMALTTD
 70
     3
  9
$DIMTXSTY
  7
Standard
  9
$DIMAUNIT
 70
     0
  9
$DIMADEC
 70
     0
  9
$DIMALTRND
 40
0.0
  9
$DIMAZIN
 70
     0
  9
$DIMDSEP
 70
    44
  9
$DIMATFIT
 70
     3
  9
$DIMFRAC
 70
     0
  9
$DIMLDRBLK
  1

  9
$DIMLUNIT
 70
     2
  9
$DIMLWD
 70
    -2
  9
$DIMLWE
 70
    -2
  9
$DIMTMOVE
 70
     0
  9
$DIMFXL
 40
1.0
  9
$DIMFXLON
 70
     0
  9
$DIMJOGANG
 40
0.7853981633974483
  9
$DIMTFILL
 70
     0
  9
$DIMTFILLCLR
 70
     0
  9
$DIMARCSYM
 70
     0
  9
$DIMLTYPE
  6

  9
$DIMLTEX1
  6

  9
$DIMLTEX2
  6

  9
$DIMTXTDIRECTION
 70
     0
  9
$LUNITS
 70
     2
  9
$LUPREC
 70
     4
  9
$SKETCHINC
 40
1.0
  9
$FILLETRAD
 40
10.0
  9
$AUNITS
 70
     0
  9
$AUPREC
 70
     0
  9
$MENU
  1
.
  9
$ELEVATION
 40
0.0
  9
$PELEVATION
 40
0.0
  9
$THICKNESS
 40
0.0
  9
$LIMCHECK
 70
     0
  9
$CHAMFERA
 40
0.0
  9
$CHAMFERB
 40
0.0
  9
$CHAMFERC
 40
0.0
  9
$CHAMFERD
 40
0.0
  9
$SKPOLY
 70
     0
  9
$TDCREATE
 40
2457739.488897014
  9
$TDUCREATE
 40
2457739.363897014
  9
$TDUPDATE
 40
2457795.750192326
  9
$TDUUPDATE
 40
2457795.625192326
  9
$TDINDWG
 40
0.000818831
  9
$TDUSRTIMER
 40
2457795.6193325
  9
$USRTIMER
 70
     1
  9
$ANGBASE
 50
0.0
  9
$ANGDIR
 70
     0
  9
$PDMODE
 70
     0
  9
$PDSIZE
 40
0.0
  9
$PLINEWID
 40
0.0
  9
$SPLFRAME
 70
     0
  9
$SPLINETYPE
 70
     6
  9
$SPLINESEGS
 70
     8
  9
$HANDSEED
  5
2D6
  9
$SURFTAB1
 70
     6
  9
$SURFTAB2
 70
     6
  9
$SURFTYPE
 70
     6
  9
$SURFU
 70
     6
  9
$SURFV
 70
     6
  9
$UCSBASE
  2

  9
$UCSNAME
  2

  9
$UCSORG
 10
0.0
 20
0.0
 30
0.0
  9
$UCSXDIR
 10
1.0
 20
0.0
 30
0.0
  9
$UCSYDIR
 10
0.0
 20
1.0
 30
0.0
  9
$UCSORTHOREF
  2

  9
$UCSORTHOVIEW
 70
     0
  9
$UCSORGTOP
 10
0.0
 20
0.0
 30
0.0
  9
$UCSORGBOTTOM
 10
0.0
 20
0.0
 30
0.0
  9
$UCSORGLEFT
 10
0.0
 20
0.0
 30
0.0
  9
$UCSORGRIGHT
 10
0.0
 20
0.0
 30
0.0
  9
$UCSORGFRONT
 10
0.0
 20
0.0
 30
0.0
  9
$UCSORGBACK
 10
0.0
 20
0.0
 30
0.0
  9
$PUCSBASE
  2

  9
$PUCSNAME
  2

  9
$PUCSORG
 10
0.0
 20
0.0
 30
0.0
  9
$PUCSXDIR
 10
1.0
 20
0.0
 30
0.0
  9
$PUCSYDIR
 10
0.0
 20
1.0
 30
0.0
  9
$PUCSORTHOREF
  2

  9
$PUCSORTHOVIEW
 70
     0
  9
$PUCSORGTOP
 10
0.0
 20
0.0
 30
0.0
  9
$PUCSORGBOTTOM
 10
0.0
 20
0.0
 30
0.0
  9
$PUCSORGLEFT
 10
0.0
 20
0.0
 30
0.0
  9
$PUCSORGRIGHT
 10
0.0
 20
0.0
 30
0.0
  9
$PUCSORGFRONT
 10
0.0
 20
0.0
 30
0.0
  9
$PUCSORGBACK
 10
0.0
 20
0.0
 30
0.0
  9
$USERI1
 70
     0
  9
$USERI2
 70
     0
  9
$USERI3
 70
     0
  9
$USERI4
 70
     0
  9
$USERI5
 70
     0
  9
$USERR1
 40
0.0
  9
$USERR2
 40
0.0
  9
$USERR3
 40
0.0
  9
$USERR4
 40
0.0
  9
$USERR5
 40
0.0
  9
$WORLDVIEW
 70
     1
  9
$SHADEDGE
 70
     3
  9
$SHADEDIF
 70
    70
  9
$TILEMODE
 70
     1
  9
$MAXACTVP
 70
    64
  9
$PINSBASE
 10
0.0
 20
0.0
 30
0.0
  9
$PLIMCHECK
 70
     0
  9
$PEXTMIN
 10
1.000000000000000E+20
 20
1.000000000000000E+20
 30
1.000000000000000E+20
  9
$PEXTMAX
 10
-1.000000000000000E+20
 20
-1.000000000000000E+20
 30
-1.000000000000000E+20
  9
$PLIMMIN
 10
0.0
 20
0.0
  9
$PLIMMAX
 10
0.0
 20
0.0
  9
$UNITMODE
 70
     0
  9
$VISRETAIN
 70
     1
  9
$PLINEGEN
 70
     0
  9
$PSLTSCALE
 70
     1
  9
$TREEDEPTH
 70
  3020
  9
$CMLSTYLE
  2
Standard
  9
$CMLJUST
 70
     0
  9
$CMLSCALE
 40
20.0
  9
$PROXYGRAPHICS
 70
     1
  9
$MEASUREMENT
 70
     1
  9
$CELWEIGHT
370
    -1
  9
$ENDCAPS
280
     0
  9
$JOINSTYLE
280
     0
  9
$LWDISPLAY
290
     0
  9
$INSUNITS
 70
     6
  9
$HYPERLINKBASE
  1

  9
$STYLESHEET
  1

  9
$XEDIT
290
     1
  9
$CEPSNTYPE
380
     0
  9
$PSTYLEMODE
290
     1
  9
$FINGERPRINTGUID
  2
{9961CFF6-6AB0-4579-840B-782428A95073}
  9
$VERSIONGUID
  2
{FAEB1C32-E019-11D5-929B-00C0DF256EC4}
  9
$EXTNAMES
290
     1
  9
$PSVPSCALE
 40
0.0
  9
$OLESTARTUP
290
     0
  9
$SORTENTS
280
   127
  9
$INDEXCTL
280
     0
  9
$HIDETEXT
280
     1
  9
$XCLIPFRAME
280
     2
  9
$HALOGAP
280
     0
  9
$OBSCOLOR
 70
   257
  9
$OBSLTYPE
280
     0
  9
$INTERSECTIONDISPLAY
280
     0
  9
$INTERSECTIONCOLOR
 70
   257
  9
$DIMASSOC
280
     2
  9
$PROJECTNAME
  1

  9
$CAMERADISPLAY
290
     0
  9
$LENSLENGTH
 40
50.0
  9
$CAMERAHEIGHT
 40
0.0
  9
$STEPSPERSEC
 40
2.0
  9
$STEPSIZE
 40
6.0
  9
$3DDWFPREC
 40
2.0
  9
$PSOLWIDTH
 40
0.25
  9
$PSOLHEIGHT
 40
4.0
  9
$LOFTANG1
 40
1.570796326794897
  9
$LOFTANG2
 40
1.570796326794897
  9
$LOFTMAG1
 40
0.0
  9
$LOFTMAG2
 40
0.0
  9
$LOFTPARAM
 70
     7
  9
$LOFTNORMALS
280
     1
  9
$LATITUDE
 40
37.795
  9
$LONGITUDE
 40
-122.394
  9
$NORTHDIRECTION
 40
0.0
  9
$TIMEZONE
 70
 -8000
  9
$LIGHTGLYPHDISPLAY
280
     1
  9
$TILEMODELIGHTSYNCH
280
     1
  9
$SOLIDHIST
280
     0
  9
$SHOWHIST
280
     1
  9
$DWFFRAME
280
     2
  9
$DGNFRAME
280
     2
  9
$REALWORLDSCALE
290
     1
  9
$INTERFERECOLOR
 62
   256
  9
$CSHADOW
280
     0
  9
$SHADOWPLANELOCATION
 40
0.0
  0
ENDSEC
  0
SECTION
  2
CLASSES
  0
CLASS
  1
ACDBDICTIONARYWDFLT
  2
AcDbDictionaryWithDefault
  3
ObjectDBX Classes
 90
        0
 91
        7
280
     0
281
     0
  0
CLASS
  1
VISUALSTYLE
  2
AcDbVisualStyle
  3
ObjectDBX Classes
 90
     4095
 91
        7
280
     0
281
     0
  0
CLASS
  1
MATERIAL
  2
AcDbMaterial
  3
ObjectDBX Classes
 90
     1153
 91
        7
280
     0
281
     0
  0
CLASS
  1
SCALE
  2
AcDbScale
  3
ObjectDBX Classes
 90
     1153
 91
        7
280
     0
281
     0
  0
CLASS
  1
TABLESTYLE
  2
AcDbTableStyle
  3
ObjectDBX Classes
 90
     4095
 91
        7
280
     0
281
     0
  0
CLASS
  1
MLEADERSTYLE
  2
AcDbMLeaderStyle
  3
ACDB_MLEADERSTYLE_CLASS
 90
     4095
 91
        7
280
     0
281
     0
  0
CLASS
  1
SUN
  2
AcDbSun
  3
SCENEOE
 90
     1153
 91
        7
280
     0
281
     0
  0
CLASS
  1
DICTIONARYVAR
  2
AcDbDictionaryVar
  3
ObjectDBX Classes
 90
        0
 91
        7
280
     0
281
     0
  0
CLASS
  1
CELLSTYLEMAP
  2
AcDbCellStyleMap
  3
ObjectDBX Classes
 90
     1152
 91
        7
280
     0
281
     0
  0
CLASS
  1
RASTERVARIABLES
  2
AcDbRasterVariables
  3
ISM
 90
        0
 91
        7
280
     0
281
     0
  0
ENDSEC
  0
SECTION
  2
TABLES
  0
TABLE
  2
VPORT
  5
8
330
0
100
AcDbSymbolTable
 70
     1
  0
VPORT
  5
29
330
8
100
AcDbSymbolTableRecord
100
AcDbViewportTableRecord
  2
*Active
 70
     0
 10
0.0
 20
0.0
 11
1.0
 21
1.0
 12
539297.3585476514
 22
4477761.134849902
 13
0.0
 23
0.0
 14
10.0
 24
10.0
 15
10.0
 25
10.0
 16
0.0
 26
0.0
 36
1.0
 17
0.0
 27
0.0
 37
0.0
 40
157.8258032306671
 41
2.118065433854908
 42
50.0
 43
0.0
 44
0.0
 50
0.0
 51
0.0
 71
    16
 72
   100
 73
     1
 74
     3
 75
     0
 76
     0
 77
     0
 78
     0
281
     0
 65
     1
110
0.0
120
0.0
130
0.0
111
1.0
121
0.0
131
0.0
112
0.0
122
1.0
132
0.0
 79
     0
146
0.0
348
2F
 60
     3
 61
     5
292
     1
282
     1
141
0.0
142
0.0
 63
   256
361
6D
  0
ENDTAB
  0
TABLE
  2
LTYPE
  5
5
330
0
100
AcDbSymbolTable
 70
     1
  0
LTYPE
  5
14
330
5
100
AcDbSymbolTableRecord
100
AcDbLinetypeTableRecord
  2
ByBlock
 70
     0
  3

 72
    65
 73
     0
 40
0.0
  0
LTYPE
  5
15
330
5
100
AcDbSymbolTableRecord
100
AcDbLinetypeTableRecord
  2
ByLayer
 70
     0
  3

 72
    65
 73
     0
 40
0.0
  0
LTYPE
  5
16
330
5
100
AcDbSymbolTableRecord
100
AcDbLinetypeTableRecord
  2
Continuous
 70
     0
  3
Solid line
 72
    65
 73
     0
 40
0.0
  0
ENDTAB
  0
TABLE
  2
LAYER
  5
2
102
{ACAD_XDICTIONARY
360
2B4
102
}
330
0
100
AcDbSymbolTable
 70
     5
  0
LAYER
  5
10
330
2
100
AcDbSymbolTableRecord
100
AcDbLayerTableRecord
  2
0
 70
     0
 62
     5
  6
Continuous
370
     0
390
F
347
46
  0
LAYER
  5
6E
330
2
100
AcDbSymbolTableRecord
100
AcDbLayerTableRecord
  2
KAT_1395
 70
     0
 62
     1
  6
Continuous
370
     0
390
F
347
46
  0
LAYER
  5
2B7
330
2
100
AcDbSymbolTableRecord
100
AcDbLayerTableRecord
  2
GEOFENCE
 70
     0
 62
     3
  6
Continuous
370
     0
390
F
347
46
1001
AcAecLayerStandard
1000

1000

  0
LAYER
  5
2BC
330
2
100
AcDbSymbolTableRecord
100
AcDbLayerTableRecord
  2
INIT_COORD
 70
     0
 62
     5
  6
Continuous
370
     0
390
F
347
46
1001
AcAecLayerStandard
1000

1000

  0
LAYER
  5
2C2
330
2
100
AcDbSymbolTableRecord
100
AcDbLayerTableRecord
  2
TEXT_RED
 70
     0
 62
     1
  6
Continuous
370
     0
390
F
347
46
1001
AcAecLayerStandard
1000

1000

  0
ENDTAB
  0
TABLE
  2
STYLE
  5
3
330
0
100
AcDbSymbolTable
 70
     1
  0
STYLE
  5
11
330
3
100
AcDbSymbolTableRecord
100
AcDbTextStyleTableRecord
  2
Standard
 70
     0
 40
0.0
 41
1.0
 50
0.0
 71
     0
 42
2.5
  3
times.ttf
  4

1001
ACAD
1000
Times New Roman
1071
      256
  0
ENDTAB
  0
TABLE
  2
VIEW
  5
6
330
0
100
AcDbSymbolTable
 70
     0
  0
ENDTAB
  0
TABLE
  2
UCS
  5
7
330
0
100
AcDbSymbolTable
 70
     0
  0
ENDTAB
  0
TABLE
  2
APPID
  5
9
330
0
100
AcDbSymbolTable
 70
     3
  0
APPID
  5
12
330
9
100
AcDbSymbolTableRecord
100
AcDbRegAppTableRecord
  2
ACAD
 70
     0
  0
APPID
  5
2A9
330
9
100
AcDbSymbolTableRecord
100
AcDbRegAppTableRecord
  2
ACAD_MLEADERVER
 70
     0
  0
APPID
  5
2B8
330
9
100
AcDbSymbolTableRecord
100
AcDbRegAppTableRecord
  2
AcAecLayerStandard
 70
     0
  0
ENDTAB
  0
TABLE
  2
DIMSTYLE
  5
A
330
0
100
AcDbSymbolTable
 70
     1
100
AcDbDimStyleTable
  0
DIMSTYLE
105
27
330
A
100
AcDbSymbolTableRecord
100
AcDbDimStyleTableRecord
  2
ISO-25
 70
     0
 41
2.5
 42
0.625
 43
3.75
 44
1.25
 73
     0
 74
     0
 77
     1
 78
     8
140
2.5
141
2.5
143
0.03937007874016
147
0.625
171
     3
172
     1
178
     0
271
     2
272
     2
274
     3
278
    44
283
     0
284
     8
340
11
  0
ENDTAB
  0
TABLE
  2
BLOCK_RECORD
  5
1
330
0
100
AcDbSymbolTable
 70
     3
  0
BLOCK_RECORD
  5
1F
330
1
100
AcDbSymbolTableRecord
100
AcDbBlockTableRecord
  2
*Model_Space
340
22
 70
     0
280
     1
281
     0
  0
BLOCK_RECORD
  5
1B
330
1
100
AcDbSymbolTableRecord
100
AcDbBlockTableRecord
  2
*Paper_Space
340
1E
 70
     0
280
     1
281
     0
  0
BLOCK_RECORD
  5
23
330
1
100
AcDbSymbolTableRecord
100
AcDbBlockTableRecord
  2
*Paper_Space0
340
26
 70
     0
280
     1
281
     0
  0
BLOCK_RECORD
  5
25B
330
1
100
AcDbSymbolTableRecord
100
AcDbBlockTableRecord
  2
162
340
0
102
{BLKREFS
331
261
102
}
 70
     0
280
     1
281
     0
  0
BLOCK_RECORD
  5
262
330
1
100
AcDbSymbolTableRecord
100
AcDbBlockTableRecord
  2
0
340
0
102
{BLKREFS
331
265
102
}
 70
     0
280
     1
281
     0
  0
ENDTAB
  0
ENDSEC
  0
SECTION
  2
BLOCKS
  0
BLOCK
  5
20
330
1F
100
AcDbEntity
  8
0
100
AcDbBlockBegin
  2
*Model_Space
 70
     0
 10
0.0
 20
0.0
 30
0.0
  3
*Model_Space
  1
*Model_Space
  0
ENDBLK
  5
21
330
1F
100
AcDbEntity
  8
0
100
AcDbBlockEnd
  0
BLOCK
  5
1C
330
1B
100
AcDbEntity
 67
     1
  8
0
100
AcDbBlockBegin
  2
*Paper_Space
 70
     0
 10
0.0
 20
0.0
 30
0.0
  3
*Paper_Space
  1
*Paper_Space
  0
ENDBLK
  5
1D
330
1B
100
AcDbEntity
 67
     1
  8
0
100
AcDbBlockEnd
  0
BLOCK
  5
24
330
23
100
AcDbEntity
  8
0
100
AcDbBlockBegin
  2
*Paper_Space0
 70
     0
 10
0.0
 20
0.0
 30
0.0
  3
*Paper_Space0
  1
*Paper_Space0
  0
ENDBLK
  5
25
330
23
100
AcDbEntity
  8
0
100
AcDbBlockEnd
  0
BLOCK
  5
25F
330
25B
100
AcDbEntity
  8
0
100
AcDbBlockBegin
  2
162
 70
     0
 10
0.0
 20
0.0
 30
0.0
  3
162
  1
162
  0
LINE
  5
25C
330
25B
100
AcDbEntity
  8
KAT_1395
100
AcDbLine
 10
0.0
 20
2.1875
 30
1435.623413085938
 11
0.0
 21
-2.8125
 31
1435.623413085938
  0
LINE
  5
25D
330
25B
100
AcDbEntity
  8
KAT_1395
100
AcDbLine
 10
0.0
 20
-2.8125
 30
1435.623413085938
 11
-0.625
 21
-1.875
 31
1435.623413085938
  0
LINE
  5
25E
330
25B
100
AcDbEntity
  8
KAT_1395
100
AcDbLine
 10
0.0
 20
-2.8125
 30
1435.623413085938
 11
0.625
 21
-1.875
 31
1435.623413085938
  0
ENDBLK
  5
260
330
25B
100
AcDbEntity
  8
0
100
AcDbBlockEnd
  0
BLOCK
  5
263
330
262
100
AcDbEntity
  8
0
100
AcDbBlockBegin
  2
0
 70
     0
 10
0.0
 20
0.0
 30
0.0
  3
0
  1
0
  0
ENDBLK
  5
264
330
262
100
AcDbEntity
  8
0
100
AcDbBlockEnd
  0
ENDSEC
  0
SECTION
  2
ENTITIES
  0
LINE
  5
6F
330
1F
100
AcDbEntity
  8
KAT_1395
100
AcDbLine
 10
539231.0957785393
 20
4477760.142490432
 30
1409.956909179688
 11
539229.900735761
 21
4477764.032390441
 31
1409.05126953125
  0
LINE
  5
70
330
1F
100
AcDbEntity
  8
KAT_1395
100
AcDbLine
 10
539229.900735761
 20
4477764.032390441
 30
1409.05126953125
 11
539229.9952953937
 21
4477765.744534276
 31
1408.719482421875
  0
LINE
  5
71
330
1F
100
AcDbEntity
  8
KAT_1395
100
AcDbLine
 10
539229.9952953937
 20
4477765.744534276
 30
1408.719482421875
 11
539229.8052637731
 21
4477768.449395444
 31
1408.454956054688
  0
LINE
  5
72
330
1F
100
AcDbEntity
  8
KAT_1395
100
AcDbLine
 10
539229.8052637731
 20
4477768.449395444
 30
1408.454956054688
 11
539229.6123347859
 21
4477770.428135131
 31
1408.279663085938
  0
LINE
  5
73
330
1F
100
AcDbEntity
  8
KAT_1395
100
AcDbLine
 10
539233.9382493796
 20
4477770.966356954
 30
1407.902465820312
 11
539234.2885170229
 21
4477769.02830269
 31
1408.494018554688
  0
LINE
  5
74
330
1F
100
AcDbEntity
  8
KAT_1395
100
AcDbLine
 10
539234.2885170229
 20
4477769.02830269
 30
1408.494018554688
 11
539234.7270525433
 21
4477766.007564317
 31
1408.9150390625
  0
LINE
  5
75
330
1F
100
AcDbEntity
  8
KAT_1395
100
AcDbLine
 10
539234.7270525433
 20
4477766.007564317
 30
1408.9150390625
 11
539235.5767290961
 21
4477762.452533592
 31
1409.6083984375
  0
LINE
  5
76
330
1F
100
AcDbEntity
  8
KAT_1395
100
AcDbLine
 10
539235.5767290961
 20
4477762.452533592
 30
1409.6083984375
 11
539236.0578472037
 21
4477759.833641352
 31
1410.3310546875
  0
LINE
  5
77
330
1F
100
AcDbEntity
  8
KAT_1395
100
AcDbLine
 10
539229.6123347859
 20
4477770.428135131
 30
1408.279663085938
 11
539228.8888113768
 21
4477772.893284764
 31
1408.370239257812
  0
LINE
  5
78
330
1F
100
AcDbEntity
  8
KAT_1395
100
AcDbLine
 10
539233.9382493796
 20
4477770.966356954
 30
1407.902465820312
 11
539233.8864643236
 21
4477773.482991229
 31
1407.4970703125
  0
LINE
  5
79
330
1F
100
AcDbEntity
  8
KAT_1395
100
AcDbLine
 10
539233.8864643236
 20
4477773.482991229
 30
1407.4970703125
 11
539234.2060260393
 21
4477780.168028924
 31
1406.612060546875
  0
LINE
  5
7A
330
1F
100
AcDbEntity
  8
KAT_1395
100
AcDbLine
 10
539234.2060260393
 20
4477780.168028924
 30
1406.612060546875
 11
539234.9143438587
 21
4477783.252850208
 31
1406.225219726562
  0
LINE
  5
7B
330
1F
100
AcDbEntity
  8
KAT_1395
100
AcDbLine
 10
539229.5164443252
 20
4477783.831492944
 30
1406.34619140625
 11
539229.2958378609
 21
4477780.146005264
 31
1406.71337890625
  0
LINE
  5
7C
330
1F
100
AcDbEntity
  8
KAT_1395
100
AcDbLine
 10
539229.2958378609
 20
4477780.146005264
 30
1406.71337890625
 11
539228.8442221457
 21
4477776.072065084
 31
1407.1103515625
  0
LINE
  5
7D
330
1F
100
AcDbEntity
  8
KAT_1395
100
AcDbLine
 10
539228.8442221457
 20
4477776.072065084
 30
1407.1103515625
 11
539228.8888113768
 21
4477772.893284764
 31
1408.370239257812
  0
LINE
  5
7E
330
1F
100
AcDbEntity
  8
KAT_1395
100
AcDbLine
 10
539235.2282175921
 20
4477785.210701225
 30
1406.048217773438
 11
539234.9143438587
 21
4477783.252850208
 31
1406.225219726562
  0
LINE
  5
7F
330
1F
100
AcDbEntity
  8
KAT_1395
100
AcDbLine
 10
539229.5164443252
 20
4477783.831492944
 30
1406.34619140625
 11
539229.4032845523
 21
4477785.678883542
 31
1405.963256835938
  0
LINE
  5
80
330
1F
100
AcDbEntity
  8
KAT_1395
100
AcDbLine
 10
539229.4032845523
 20
4477785.678883542
 30
1405.963256835938
 11
539229.8368089035
 21
4477788.985118098
 31
1405.452758789062
  0
LINE
  5
81
330
1F
100
AcDbEntity
  8
KAT_1395
100
AcDbLine
 10
539229.8368089035
 20
4477788.985118098
 30
1405.452758789062
 11
539230.4307764195
 21
4477789.575295587
 31
1405.319458007812
  0
LINE
  5
82
330
1F
100
AcDbEntity
  8
KAT_1395
100
AcDbLine
 10
539230.4307764195
 20
4477789.575295587
 30
1405.319458007812
 11
539230.7189617177
 21
4477790.779335598
 31
1405.294921875
  0
LINE
  5
83
330
1F
100
AcDbEntity
  8
KAT_1395
100
AcDbLine
 10
539230.7189617177
 20
4477790.779335598
 30
1405.294921875
 11
539231.576426583
 21
4477791.397304152
 31
1405.1162109375
  0
LINE
  5
84
330
1F
100
AcDbEntity
  8
KAT_1395
100
AcDbLine
 10
539236.1158639974
 20
4477789.06382896
 30
1405.304809570312
 11
539235.4468293979
 21
4477786.695033262
 31
1405.798217773438
  0
LINE
  5
85
330
1F
100
AcDbEntity
  8
KAT_1395
100
AcDbLine
 10
539235.4468293979
 20
4477786.695033262
 30
1405.798217773438
 11
539235.2282175921
 21
4477785.210701225
 31
1406.048217773438
  0
LINE
  5
86
330
1F
100
AcDbEntity
  8
KAT_1395
100
AcDbLine
 10
539231.576426583
 20
4477791.397304152
 30
1405.1162109375
 11
539232.4344885723
 21
4477793.290283609
 31
1404.943359375
  0
LINE
  5
87
330
1F
100
AcDbEntity
  8
KAT_1395
100
AcDbLine
 10
539232.4344885723
 20
4477793.290283609
 30
1404.943359375
 11
539232.9367889134
 21
4477795.26163068
 31
1404.768432617188
  0
LINE
  5
88
330
1F
100
AcDbEntity
  8
KAT_1395
100
AcDbLine
 10
539237.9981221092
 20
4477793.419570395
 30
1404.87451171875
 11
539236.1158639974
 21
4477789.06382896
 31
1405.304809570312
  0
LINE
  5
89
330
1F
100
AcDbEntity
  8
KAT_1395
100
AcDbLine
 10
539232.9367889134
 20
4477795.26163068
 30
1404.768432617188
 11
539235.7332941595
 21
4477798.125150513
 31
1404.405639648438
  0
LINE
  5
8A
330
1F
100
AcDbEntity
  8
KAT_1395
100
AcDbLine
 10
539239.2952123923
 20
4477795.684410077
 30
1404.629150390625
 11
539237.9981221092
 21
4477793.419570395
 31
1404.87451171875
  0
LINE
  5
8B
330
1F
100
AcDbEntity
  8
KAT_1395
100
AcDbLine
 10
539235.7332941595
 20
4477798.125150513
 30
1404.405639648438
 11
539237.201417212
 21
4477800.697873211
 31
1404.063720703125
  0
LINE
  5
8C
330
1F
100
AcDbEntity
  8
KAT_1395
100
AcDbLine
 10
539237.201417212
 20
4477800.697873211
 30
1404.063720703125
 11
539237.9716166127
 21
4477801.046344572
 31
1404.081176757812
  0
LINE
  5
8D
330
1F
100
AcDbEntity
  8
KAT_1395
100
AcDbLine
 10
539237.9716166127
 20
4477801.046344572
 30
1404.081176757812
 11
539239.4268468224
 21
4477802.58866245
 31
1403.738159179688
  0
LINE
  5
8E
330
1F
100
AcDbEntity
  8
KAT_1395
100
AcDbLine
 10
539243.1643019728
 20
4477798.595209495
 30
1403.909057617188
 11
539240.9960463942
 21
4477797.507221964
 31
1404.31494140625
  0
LINE
  5
8F
330
1F
100
AcDbEntity
  8
KAT_1395
100
AcDbLine
 10
539240.9960463942
 20
4477797.507221964
 30
1404.31494140625
 11
539239.2952123923
 21
4477795.684410077
 31
1404.629150390625
  0
LINE
  5
90
330
1F
100
AcDbEntity
  8
KAT_1395
100
AcDbLine
 10
539239.4268468224
 20
4477802.58866245
 30
1403.738159179688
 11
539240.3542852072
 21
4477802.838172802
 31
1403.518188476562
  0
LINE
  5
91
330
1F
100
AcDbEntity
  8
KAT_1395
100
AcDbLine
 10
539240.3542852072
 20
4477802.838172802
 30
1403.518188476562
 11
539241.8285089022
 21
4477803.955953657
 31
1403.283447265625
  0
LINE
  5
92
330
1F
100
AcDbEntity
  8
KAT_1395
100
AcDbLine
 10
539245.6271226174
 20
4477800.262891992
 30
1403.430297851562
 11
539243.1643019728
 21
4477798.595209495
 31
1403.909057617188
  0
LINE
  5
93
330
1F
100
AcDbEntity
  8
KAT_1395
100
AcDbLine
 10
539244.2197734241
 20
4477806.097947619
 30
1402.63916015625
 11
539241.8285089022
 21
4477803.955953657
 31
1403.283447265625
  0
LINE
  5
94
330
1F
100
AcDbEntity
  8
KAT_1395
100
AcDbLine
 10
539244.2197734241
 20
4477806.097947619
 30
1402.63916015625
 11
539246.294761811
 21
4477807.891073341
 31
1402.320922851562
  0
LINE
  5
95
330
1F
100
AcDbEntity
  8
KAT_1395
100
AcDbLine
 10
539246.294761811
 20
4477807.891073341
 30
1402.320922851562
 11
539247.4552091355
 21
4477808.304022518
 31
1402.320922851562
  0
LINE
  5
96
330
1F
100
AcDbEntity
  8
KAT_1395
100
AcDbLine
 10
539251.2158511854
 20
4477805.289403524
 30
1402.320922851562
 11
539249.3354862276
 21
4477803.879232175
 31
1402.320922851562
  0
LINE
  5
97
330
1F
100
AcDbEntity
  8
KAT_1395
100
AcDbLine
 10
539249.3354862276
 20
4477803.879232175
 30
1402.320922851562
 11
539247.7559051459
 21
4477801.99414497
 31
1402.320922851562
  0
LINE
  5
98
330
1F
100
AcDbEntity
  8
KAT_1395
100
AcDbLine
 10
539247.7559051459
 20
4477801.99414497
 30
1402.320922851562
 11
539245.6271226174
 21
4477800.262891992
 31
1403.430297851562
  0
LINE
  5
99
330
1F
100
AcDbEntity
  8
KAT_1395
100
AcDbLine
 10
539247.4552091355
 20
4477808.304022518
 30
1402.320922851562
 11
539249.0411894636
 21
4477809.351431101
 31
1401.87158203125
  0
LINE
  5
9A
330
1F
100
AcDbEntity
  8
KAT_1395
100
AcDbLine
 10
539249.0411894636
 20
4477809.351431101
 30
1401.87158203125
 11
539251.2087424463
 21
4477810.838174954
 31
1401.599243164062
  0
LINE
  5
9B
330
1F
100
AcDbEntity
  8
KAT_1395
100
AcDbLine
 10
539253.4959598851
 20
4477806.997763101
 30
1401.61474609375
 11
539251.2158511854
 21
4477805.289403524
 31
1402.320922851562
  0
LINE
  5
9C
330
1F
100
AcDbEntity
  8
KAT_1395
100
AcDbLine
 10
539253.4959598851
 20
4477806.997763101
 30
1401.61474609375
 11
539255.791363045
 21
4477808.5055997
 31
1401.205688476562
  0
LINE
  5
9D
330
1F
100
AcDbEntity
  8
KAT_1395
100
AcDbLine
 10
539253.3786945842
 20
4477812.281835353
 30
1401.34521484375
 11
539251.2087424463
 21
4477810.838174954
 31
1401.599243164062
  0
LINE
  5
9E
330
1F
100
AcDbEntity
  8
KAT_1395
100
AcDbLine
 10
539253.3786945842
 20
4477812.281835353
 30
1401.34521484375
 11
539257.9356128691
 21
4477815.890380902
 31
1400.028930664062
  0
LINE
  5
9F
330
1F
100
AcDbEntity
  8
KAT_1395
100
AcDbLine
 10
539260.81799878
 20
4477811.953609904
 30
1399.98095703125
 11
539255.791363045
 21
4477808.5055997
 31
1401.205688476562
  0
LINE
  5
A0
330
1F
100
AcDbEntity
  8
KAT_1395
100
AcDbLine
 10
539257.9356128691
 20
4477815.890380902
 30
1400.028930664062
 11
539260.0751764055
 21
4477817.542960958
 31
1399.773315429688
  0
LINE
  5
A1
330
1F
100
AcDbEntity
  8
KAT_1395
100
AcDbLine
 10
539263.0509256405
 20
4477813.762530599
 30
1399.531616210938
 11
539260.81799878
 21
4477811.953609904
 31
1399.98095703125
  0
LINE
  5
A2
330
1F
100
AcDbEntity
  8
KAT_1395
100
AcDbLine
 10
539260.0751764055
 20
4477817.542960958
 30
1399.773315429688
 11
539262.5349152129
 21
4477819.228930299
 31
1399.773315429688
  0
LINE
  5
A3
330
1F
100
AcDbEntity
  8
KAT_1395
100
AcDbLine
 10
539265.4940705681
 20
4477815.612636867
 30
1399.773315429688
 11
539263.0509256405
 21
4477813.762530599
 31
1399.531616210938
  0
LINE
  5
A4
330
1F
100
AcDbEntity
  8
KAT_1395
100
AcDbLine
 10
539265.4940705681
 20
4477815.612636867
 30
1399.773315429688
 11
539267.4597033183
 21
4477816.544692181
 31
1399.77294921875
  0
LINE
  5
A5
330
1F
100
AcDbEntity
  8
KAT_1395
100
AcDbLine
 10
539264.9839585945
 20
4477820.716675609
 30
1399.77294921875
 11
539262.5349152129
 21
4477819.228930299
 31
1399.773315429688
  0
LINE
  5
A6
330
1F
100
AcDbEntity
  8
KAT_1395
100
AcDbLine
 10
539264.9839585945
 20
4477820.716675609
 30
1399.77294921875
 11
539268.8154650133
 21
4477821.57916981
 31
1398.523681640625
  0
LINE
  5
A7
330
1F
100
AcDbEntity
  8
KAT_1395
100
AcDbLine
 10
539271.9779423703
 20
4477817.401193169
 30
1398.527221679688
 11
539269.0035016377
 21
4477816.836090494
 31
1398.765258789062
  0
LINE
  5
A8
330
1F
100
AcDbEntity
  8
KAT_1395
100
AcDbLine
 10
539269.0035016377
 20
4477816.836090494
 30
1398.765258789062
 11
539267.4597033183
 21
4477816.544692181
 31
1399.77294921875
  0
LINE
  5
A9
330
1F
100
AcDbEntity
  8
KAT_1395
100
AcDbLine
 10
539271.9779423703
 20
4477817.401193169
 30
1398.527221679688
 11
539274.0952171391
 21
4477817.82234546
 31
1397.930908203125
  0
LINE
  5
AA
330
1F
100
AcDbEntity
  8
KAT_1395
100
AcDbLine
 10
539274.0952171391
 20
4477817.82234546
 30
1397.930908203125
 11
539277.5449737017
 21
4477817.956516549
 31
1397.83154296875
  0
LINE
  5
AB
330
1F
100
AcDbEntity
  8
KAT_1395
100
AcDbLine
 10
539276.6054280165
 20
4477823.499983916
 30
1397.918701171875
 11
539274.8947941667
 21
4477823.443794285
 31
1397.92041015625
  0
LINE
  5
AC
330
1F
100
AcDbEntity
  8
KAT_1395
100
AcDbLine
 10
539274.8947941667
 20
4477823.443794285
 30
1397.92041015625
 11
539272.7141431374
 21
4477823.474168375
 31
1397.904907226562
  0
LINE
  5
AD
330
1F
100
AcDbEntity
  8
KAT_1395
100
AcDbLine
 10
539272.7141431374
 20
4477823.474168375
 30
1397.904907226562
 11
539271.4864230761
 21
4477822.544916809
 31
1397.932861328125
  0
LINE
  5
AE
330
1F
100
AcDbEntity
  8
KAT_1395
100
AcDbLine
 10
539271.4864230761
 20
4477822.544916809
 30
1397.932861328125
 11
539268.8154650133
 21
4477821.57916981
 31
1398.523681640625
  0
LINE
  5
AF
330
1F
100
AcDbEntity
  8
KAT_1395
100
AcDbLine
 10
539277.5449737017
 20
4477817.956516549
 30
1397.83154296875
 11
539279.5504923604
 21
4477818.195138125
 31
1397.611694335938
  0
LINE
  5
B0
330
1F
100
AcDbEntity
  8
KAT_1395
100
AcDbLine
 10
539276.6054280165
 20
4477823.499983916
 30
1397.918701171875
 11
539277.8135588457
 21
4477822.914816286
 31
1397.829956054688
  0
LINE
  5
B1
330
1F
100
AcDbEntity
  8
KAT_1395
100
AcDbLine
 10
539279.5504923604
 20
4477818.195138125
 30
1397.611694335938
 11
539284.4441877363
 21
4477817.842605358
 31
1396.699951171875
  0
LINE
  5
B2
330
1F
100
AcDbEntity
  8
KAT_1395
100
AcDbLine
 10
539284.4441877363
 20
4477817.842605358
 30
1396.699951171875
 11
539287.5684709896
 21
4477817.992368335
 31
1396.699951171875
  0
LINE
  5
B3
330
1F
100
AcDbEntity
  8
KAT_1395
100
AcDbLine
 10
539283.9933526126
 20
4477822.981131255
 30
1396.859985351562
 11
539280.7528137724
 21
4477823.241510184
 31
1396.900024414062
  0
LINE
  5
B4
330
1F
100
AcDbEntity
  8
KAT_1395
100
AcDbLine
 10
539280.7528137724
 20
4477823.241510184
 30
1396.900024414062
 11
539277.8135588457
 21
4477822.914816286
 31
1397.829956054688
  0
LINE
  5
B5
330
1F
100
AcDbEntity
  8
KAT_1395
100
AcDbLine
 10
539287.5684709896
 20
4477817.992368335
 30
1396.699951171875
 11
539290.6270807191
 21
4477817.70499857
 31
1396.373657226562
  0
LINE
  5
B6
330
1F
100
AcDbEntity
  8
KAT_1395
100
AcDbLine
 10
539290.6270807191
 20
4477817.70499857
 30
1396.373657226562
 11
539293.3662147955
 21
4477817.437419122
 31
1396.215454101562
  0
LINE
  5
B7
330
1F
100
AcDbEntity
  8
KAT_1395
100
AcDbLine
 10
539293.3662147955
 20
4477817.437419122
 30
1396.215454101562
 11
539295.639929884
 21
4477817.265200055
 31
1395.987060546875
  0
LINE
  5
B8
330
1F
100
AcDbEntity
  8
KAT_1395
100
AcDbLine
 10
539306.8248759767
 20
4477816.812446868
 30
1396.2099609375
 11
539304.2791635701
 21
4477818.537168615
 31
1396.136108398438
  0
LINE
  5
B9
330
1F
100
AcDbEntity
  8
KAT_1395
100
AcDbLine
 10
539304.2791635701
 20
4477818.537168615
 30
1396.136108398438
 11
539301.6712764434
 21
4477819.744888278
 31
1396.1142578125
  0
LINE
  5
BA
330
1F
100
AcDbEntity
  8
KAT_1395
100
AcDbLine
 10
539301.6712764434
 20
4477819.744888278
 30
1396.1142578125
 11
539299.4514379181
 21
4477821.103152728
 31
1396.23193359375
  0
LINE
  5
BB
330
1F
100
AcDbEntity
  8
KAT_1395
100
AcDbLine
 10
539291.505128425
 20
4477822.733075527
 30
1396.228759765625
 11
539289.4079449337
 21
4477822.746156798
 31
1396.375732421875
  0
LINE
  5
BC
330
1F
100
AcDbEntity
  8
KAT_1395
100
AcDbLine
 10
539289.4079449337
 20
4477822.746156798
 30
1396.375732421875
 11
539283.9933526126
 21
4477822.981131255
 31
1396.859985351562
  0
LINE
  5
BD
330
1F
100
AcDbEntity
  8
KAT_1395
100
AcDbLine
 10
539291.505128425
 20
4477822.733075527
 30
1396.228759765625
 11
539293.8723033171
 21
4477824.397152661
 31
1396.18994140625
  0
LINE
  5
BE
330
1F
100
AcDbEntity
  8
KAT_1395
100
AcDbLine
 10
539293.8723033171
 20
4477824.397152661
 30
1396.18994140625
 11
539294.542337593
 21
4477826.734460448
 31
1396.18994140625
  0
LINE
  5
BF
330
1F
100
AcDbEntity
  8
KAT_1395
100
AcDbLine
 10
539299.6733429088
 20
4477825.255361383
 30
1396.18994140625
 11
539298.9520268652
 21
4477823.754532387
 31
1396.18994140625
  0
LINE
  5
C0
330
1F
100
AcDbEntity
  8
KAT_1395
100
AcDbLine
 10
539298.9520268652
 20
4477823.754532387
 30
1396.18994140625
 11
539299.0480924589
 21
4477822.309487337
 31
1396.18994140625
  0
LINE
  5
C1
330
1F
100
AcDbEntity
  8
KAT_1395
100
AcDbLine
 10
539299.0480924589
 20
4477822.309487337
 30
1396.18994140625
 11
539299.4514379181
 21
4477821.103152728
 31
1396.23193359375
  0
LINE
  5
C2
330
1F
100
AcDbEntity
  8
KAT_1395
100
AcDbLine
 10
539309.7410440061
 20
4477815.155401581
 30
1396.18994140625
 11
539309.0356172594
 21
4477815.832137371
 31
1396.2099609375
  0
LINE
  5
C3
330
1F
100
AcDbEntity
  8
KAT_1395
100
AcDbLine
 10
539309.0356172594
 20
4477815.832137371
 30
1396.2099609375
 11
539306.8248759767
 21
4477816.812446868
 31
1396.2099609375
  0
LINE
  5
C4
330
1F
100
AcDbEntity
  8
KAT_1395
100
AcDbLine
 10
539295.639929884
 20
4477817.265200055
 30
1395.987060546875
 11
539296.7103144283
 21
4477816.639547056
 31
1396.18994140625
  0
LINE
  5
C5
330
1F
100
AcDbEntity
  8
KAT_1395
100
AcDbLine
 10
539314.7194128435
 20
4477811.702858537
 30
1396.18994140625
 11
539313.125531242
 21
4477812.752945299
 31
1396.18994140625
  0
LINE
  5
C6
330
1F
100
AcDbEntity
  8
KAT_1395
100
AcDbLine
 10
539313.125531242
 20
4477812.752945299
 30
1396.18994140625
 11
539309.7410440061
 21
4477815.155401581
 31
1396.18994140625
  0
LINE
  5
C7
330
1F
100
AcDbEntity
  8
KAT_1395
100
AcDbLine
 10
539299.6733429088
 20
4477825.255361383
 30
1396.18994140625
 11
539299.7843969283
 21
4477826.577554912
 31
1396.180053710938
  0
LINE
  5
C8
330
1F
100
AcDbEntity
  8
KAT_1395
100
AcDbLine
 10
539299.7843969283
 20
4477826.577554912
 30
1396.180053710938
 11
539300.1837378924
 21
4477828.290700356
 31
1396.180053710938
  0
LINE
  5
C9
330
1F
100
AcDbEntity
  8
KAT_1395
100
AcDbLine
 10
539300.1837378924
 20
4477828.290700356
 30
1396.180053710938
 11
539300.966628394
 21
4477830.548039556
 31
1396.180053710938
  0
LINE
  5
CA
330
1F
100
AcDbEntity
  8
KAT_1395
100
AcDbLine
 10
539296.4061014508
 20
4477831.791732652
 30
1396.180053710938
 11
539294.542337593
 21
4477826.734460448
 31
1396.18994140625
  0
LINE
  5
CB
330
1F
100
AcDbEntity
  8
KAT_1395
100
AcDbLine
 10
539296.4061014508
 20
4477831.791732652
 30
1396.180053710938
 11
539297.6986909786
 21
4477835.265508552
 31
1396.180053710938
  0
LINE
  5
CC
330
1F
100
AcDbEntity
  8
KAT_1395
100
AcDbLine
 10
539297.6986909786
 20
4477835.265508552
 30
1396.180053710938
 11
539298.651116316
 21
4477837.115705041
 31
1396.180053710938
  0
LINE
  5
CD
330
1F
100
AcDbEntity
  8
KAT_1395
100
AcDbLine
 10
539303.2225392488
 20
4477835.759855039
 30
1396.180053710938
 11
539302.2625176879
 21
4477833.515109853
 31
1396.180053710938
  0
LINE
  5
CE
330
1F
100
AcDbEntity
  8
KAT_1395
100
AcDbLine
 10
539302.2625176879
 20
4477833.515109853
 30
1396.180053710938
 11
539300.966628394
 21
4477830.548039556
 31
1396.180053710938
  0
LINE
  5
CF
330
1F
100
AcDbEntity
  8
KAT_1395
100
AcDbLine
 10
539306.9136544291
 20
4477810.534755584
 30
1396.18994140625
 11
539309.2134609373
 21
4477809.60152861
 31
1396.180053710938
  0
LINE
  5
D0
330
1F
100
AcDbEntity
  8
KAT_1395
100
AcDbLine
 10
539309.2134609373
 20
4477809.60152861
 30
1396.180053710938
 11
539313.0002917603
 21
4477807.08381917
 31
1396.180053710938
  0
LINE
  5
D1
330
1F
100
AcDbEntity
  8
KAT_1395
100
AcDbLine
 10
539313.0002917603
 20
4477807.08381917
 30
1396.180053710938
 11
539316.865991175
 21
4477804.904180562
 31
1396.180053710938
  0
LINE
  5
D2
330
1F
100
AcDbEntity
  8
KAT_1395
100
AcDbLine
 10
539319.36141173
 20
4477808.692243769
 30
1396.180053710938
 11
539317.4539517825
 21
4477809.953247571
 31
1396.180053710938
  0
LINE
  5
D3
330
1F
100
AcDbEntity
  8
KAT_1395
100
AcDbLine
 10
539317.4539517825
 20
4477809.953247571
 30
1396.180053710938
 11
539314.7194128435
 21
4477811.702858537
 31
1396.18994140625
  0
LINE
  5
D4
330
1F
100
AcDbEntity
  8
KAT_1395
100
AcDbLine
 10
539306.9136544291
 20
4477810.534755584
 30
1396.18994140625
 11
539304.9184301333
 21
4477811.081732718
 31
1396.180053710938
  0
LINE
  5
D5
330
1F
100
AcDbEntity
  8
KAT_1395
100
AcDbLine
 10
539304.9184301333
 20
4477811.081732718
 30
1396.180053710938
 11
539303.3903242446
 21
4477811.494164516
 31
1396.180053710938
  0
LINE
  5
D6
330
1F
100
AcDbEntity
  8
KAT_1395
100
AcDbLine
 10
539303.3903242446
 20
4477811.494164516
 30
1396.180053710938
 11
539301.9919713204
 21
4477810.226641596
 31
1396.180053710938
  0
LINE
  5
D7
330
1F
100
AcDbEntity
  8
KAT_1395
100
AcDbLine
 10
539301.9919713204
 20
4477810.226641596
 30
1396.180053710938
 11
539300.8828073406
 21
4477808.2166054
 31
1396.180053710938
  0
LINE
  5
D8
330
1F
100
AcDbEntity
  8
KAT_1395
100
AcDbLine
 10
539297.3958622902
 20
4477809.512985305
 30
1396.180053710938
 11
539298.3232941022
 21
4477812.933379296
 31
1396.180053710938
  0
LINE
  5
D9
330
1F
100
AcDbEntity
  8
KAT_1395
100
AcDbLine
 10
539298.3232941022
 20
4477812.933379296
 30
1396.180053710938
 11
539298.5926849538
 21
4477814.988492714
 31
1396.180053710938
  0
LINE
  5
DA
330
1F
100
AcDbEntity
  8
KAT_1395
100
AcDbLine
 10
539298.5926849538
 20
4477814.988492714
 30
1396.180053710938
 11
539297.6896344482
 21
4477816.00479695
 31
1396.180053710938
  0
LINE
  5
DB
330
1F
100
AcDbEntity
  8
KAT_1395
100
AcDbLine
 10
539297.6896344482
 20
4477816.00479695
 30
1396.180053710938
 11
539296.7103144283
 21
4477816.639547056
 31
1396.18994140625
  0
LINE
  5
DC
330
1F
100
AcDbEntity
  8
KAT_1395
100
AcDbLine
 10
539297.3958622902
 20
4477809.512985305
 30
1396.180053710938
 11
539296.7434230378
 21
4477806.272124241
 31
1396.180053710938
  0
LINE
  5
DD
330
1F
100
AcDbEntity
  8
KAT_1395
100
AcDbLine
 10
539296.7434230378
 20
4477806.272124241
 30
1396.180053710938
 11
539300.1833857264
 21
4477805.290923125
 31
1396.180053710938
  0
LINE
  5
DE
330
1F
100
AcDbEntity
  8
KAT_1395
100
AcDbLine
 10
539300.1833857264
 20
4477805.290923125
 30
1396.180053710938
 11
539300.8828073406
 21
4477808.2166054
 31
1396.180053710938
  0
LINE
  5
DF
330
1F
100
AcDbEntity
  8
KAT_1395
100
AcDbLine
 10
539319.36141173
 20
4477808.692243769
 30
1396.180053710938
 11
539322.1548279981
 21
4477806.820480047
 31
1396.180053710938
  0
LINE
  5
E0
330
1F
100
AcDbEntity
  8
KAT_1395
100
AcDbLine
 10
539319.4983705925
 20
4477802.815399036
 30
1396.180053710938
 11
539316.865991175
 21
4477804.904180562
 31
1396.180053710938
  0
LINE
  5
E1
330
1F
100
AcDbEntity
  8
KAT_1395
100
AcDbLine
 10
539319.4983705925
 20
4477802.815399036
 30
1396.180053710938
 11
539323.8216938999
 21
4477799.638246072
 31
1396.588012695312
  0
LINE
  5
E2
330
1F
100
AcDbEntity
  8
KAT_1395
100
AcDbLine
 10
539326.7619411318
 20
4477803.489487947
 30
1396.662353515625
 11
539322.1548279981
 21
4477806.820480047
 31
1396.180053710938
  0
LINE
  5
E3
330
1F
100
AcDbEntity
  8
KAT_1395
100
AcDbLine
 10
539303.2225392488
 20
4477835.759855039
 30
1396.180053710938
 11
539304.5772063482
 21
4477838.393953451
 31
1396.715209960938
  0
LINE
  5
E4
330
1F
100
AcDbEntity
  8
KAT_1395
100
AcDbLine
 10
539300.1992073196
 20
4477840.128759349
 30
1396.644287109375
 11
539298.651116316
 21
4477837.115705041
 31
1396.180053710938
  0
LINE
  5
E5
330
1F
100
AcDbEntity
  8
KAT_1395
100
AcDbLine
 10
539300.1992073196
 20
4477840.128759349
 30
1396.644287109375
 11
539302.5160977737
 21
4477843.729593211
 31
1396.745849609375
  0
LINE
  5
E6
330
1F
100
AcDbEntity
  8
KAT_1395
100
AcDbLine
 10
539302.5160977737
 20
4477843.729593211
 30
1396.745849609375
 11
539304.8418838511
 21
4477847.770858179
 31
1396.703857421875
  0
LINE
  5
E7
330
1F
100
AcDbEntity
  8
KAT_1395
100
AcDbLine
 10
539326.7619411318
 20
4477803.489487947
 30
1396.662353515625
 11
539329.0693473348
 21
4477801.276252038
 31
1396.749755859375
  0
LINE
  5
E8
330
1F
100
AcDbEntity
  8
KAT_1395
100
AcDbLine
 10
539329.0693473348
 20
4477801.276252038
 30
1396.749755859375
 11
539334.7312528203
 21
4477796.482028136
 31
1396.76806640625
  0
LINE
  5
E9
330
1F
100
AcDbEntity
  8
KAT_1395
100
AcDbLine
 10
539304.8418838511
 20
4477847.770858179
 30
1396.703857421875
 11
539306.969648638
 21
4477851.035219873
 31
1396.765991210938
  0
LINE
  5
EA
330
1F
100
AcDbEntity
  8
KAT_1395
100
AcDbLine
 10
539338.3679467048
 20
4477791.74366956
 30
1396.793212890625
 11
539336.9836812008
 21
4477793.897334359
 31
1396.793823242188
  0
LINE
  5
EB
330
1F
100
AcDbEntity
  8
KAT_1395
100
AcDbLine
 10
539336.9836812008
 20
4477793.897334359
 30
1396.793823242188
 11
539334.7312528203
 21
4477796.482028136
 31
1396.76806640625
  0
LINE
  5
EC
330
1F
100
AcDbEntity
  8
KAT_1395
100
AcDbLine
 10
539306.969648638
 20
4477851.035219873
 30
1396.765991210938
 11
539310.7309731795
 21
4477856.335111417
 31
1396.341796875
  0
LINE
  5
ED
330
1F
100
AcDbEntity
  8
KAT_1395
100
AcDbLine
 10
539310.7309731795
 20
4477856.335111417
 30
1396.341796875
 11
539313.0041802264
 21
4477860.136168185
 31
1396.163696289062
  0
LINE
  5
EE
330
1F
100
AcDbEntity
  8
KAT_1395
100
AcDbLine
 10
539313.0041802264
 20
4477860.136168185
 30
1396.163696289062
 11
539317.3688866512
 21
4477857.330173112
 31
1396.303955078125
  0
LINE
  5
EF
330
1F
100
AcDbEntity
  8
KAT_1395
100
AcDbLine
 10
539317.3688866512
 20
4477857.330173112
 30
1396.303955078125
 11
539315.9261522023
 21
4477855.486570889
 31
1396.399291992188
  0
LINE
  5
F0
330
1F
100
AcDbEntity
  8
KAT_1395
100
AcDbLine
 10
539315.9261522023
 20
4477855.486570889
 30
1396.399291992188
 11
539314.2981924599
 21
4477852.394146506
 31
1396.30615234375
  0
LINE
  5
F1
330
1F
100
AcDbEntity
  8
KAT_1395
100
AcDbLine
 10
539314.2981924599
 20
4477852.394146506
 30
1396.30615234375
 11
539313.248004833
 21
4477850.713984153
 31
1396.356689453125
  0
LINE
  5
F2
330
1F
100
AcDbEntity
  8
KAT_1395
100
AcDbLine
 10
539311.3957408482
 20
4477843.559016705
 30
1396.467651367188
 11
539308.6169233237
 21
4477843.295999428
 31
1396.564697265625
  0
LINE
  5
F3
330
1F
100
AcDbEntity
  8
KAT_1395
100
AcDbLine
 10
539308.6169233237
 20
4477843.295999428
 30
1396.564697265625
 11
539306.4047889609
 21
4477841.200488808
 31
1396.674682617188
  0
LINE
  5
F4
330
1F
100
AcDbEntity
  8
KAT_1395
100
AcDbLine
 10
539306.4047889609
 20
4477841.200488808
 30
1396.674682617188
 11
539304.5772063482
 21
4477838.393953451
 31
1396.715209960938
  0
LINE
  5
F5
330
1F
100
AcDbEntity
  8
KAT_1395
100
AcDbLine
 10
539311.3957408482
 20
4477843.559016705
 30
1396.467651367188
 11
539313.5666
 21
4477843.2659
 31
1396.445068359375
  0
LINE
  5
F6
330
1F
100
AcDbEntity
  8
KAT_1395
100
AcDbLine
 10
539316.7305
 20
4477848.3402
 30
1396.60009765625
 11
539314.1597
 21
4477848.6038
 31
1396.583740234375
  0
LINE
  5
F7
330
1F
100
AcDbEntity
  8
KAT_1395
100
AcDbLine
 10
539314.1597
 20
4477848.6038
 30
1396.583740234375
 11
539313.248004833
 21
4477850.713984153
 31
1396.356689453125
  0
LINE
  5
F8
330
1F
100
AcDbEntity
  8
KAT_1395
100
AcDbLine
 10
539335.359
 20
4477785.8855
 30
1396.911254882812
 11
539337.2696
 21
4477783.2227
 31
1396.9716796875
  0
LINE
  5
F9
330
1F
100
AcDbEntity
  8
KAT_1395
100
AcDbLine
 10
539342.6316
 20
4477783.4771
 30
1397.09765625
 11
539342.7794
 21
4477784.5235
 31
1397.111572265625
  0
LINE
  5
FA
330
1F
100
AcDbEntity
  8
KAT_1395
100
AcDbLine
 10
539342.7794
 20
4477784.5235
 30
1397.111572265625
 11
539341.3896
 21
4477786.1745
 31
1396.982543945312
  0
LINE
  5
FB
330
1F
100
AcDbEntity
  8
KAT_1395
100
AcDbLine
 10
539341.3896
 20
4477786.1745
 30
1396.982543945312
 11
539339.6729
 21
4477788.8318
 31
1396.928833007812
  0
LINE
  5
FC
330
1F
100
AcDbEntity
  8
KAT_1395
100
AcDbLine
 10
539339.6729
 20
4477788.8318
 30
1396.928833007812
 11
539338.3679467048
 21
4477791.74366956
 31
1396.793212890625
  0
LINE
  5
FD
330
1F
100
AcDbEntity
  8
KAT_1395
100
AcDbLine
 10
539316.7305
 20
4477848.3402
 30
1396.60009765625
 11
539318.644
 21
4477848.2798
 31
1396.469970703125
  0
LINE
  5
FE
330
1F
100
AcDbEntity
  8
KAT_1395
100
AcDbLine
 10
539318.5853
 20
4477843.1942
 30
1396.5126953125
 11
539313.5666
 21
4477843.2659
 31
1396.445068359375
  0
LINE
  5
FF
330
1F
100
AcDbEntity
  8
KAT_1395
100
AcDbLine
 10
539337.2696
 20
4477783.2227
 30
1396.9716796875
 11
539338.1792
 21
4477780.8364
 31
1396.969970703125
  0
LINE
  5
100
330
1F
100
AcDbEntity
  8
KAT_1395
100
AcDbLine
 10
539338.1792
 20
4477780.8364
 30
1396.969970703125
 11
539338.5279
 21
4477779.1762
 31
1396.969970703125
  0
LINE
  5
101
330
1F
100
AcDbEntity
  8
KAT_1395
100
AcDbLine
 10
539344.8717
 20
4477775.8547
 30
1396.969970703125
 11
539344.3081
 21
4477777.9687
 31
1399.652099609375
  0
LINE
  5
102
330
1F
100
AcDbEntity
  8
KAT_1395
100
AcDbLine
 10
539344.3081
 20
4477777.9687
 30
1399.652099609375
 11
539343.4048
 21
4477780.6205
 31
1396.969970703125
  0
LINE
  5
103
330
1F
100
AcDbEntity
  8
KAT_1395
100
AcDbLine
 10
539343.4048
 20
4477780.6205
 30
1396.969970703125
 11
539343.7438
 21
4477781.4988
 31
1396.969970703125
  0
LINE
  5
104
330
1F
100
AcDbEntity
  8
KAT_1395
100
AcDbLine
 10
539343.7438
 20
4477781.4988
 30
1396.969970703125
 11
539342.6316
 21
4477783.4771
 31
1397.09765625
  0
LINE
  5
105
330
1F
100
AcDbEntity
  8
KAT_1395
100
AcDbLine
 10
539318.5853
 20
4477843.1942
 30
1396.5126953125
 11
539322.6455
 21
4477843.2241
 31
1396.449340820312
  0
LINE
  5
106
330
1F
100
AcDbEntity
  8
KAT_1395
100
AcDbLine
 10
539322.6455
 20
4477843.2241
 30
1396.449340820312
 11
539325.2607
 21
4477843.2657
 31
1396.428466796875
  0
LINE
  5
107
330
1F
100
AcDbEntity
  8
KAT_1395
100
AcDbLine
 10
539325.2607
 20
4477843.2657
 30
1396.428466796875
 11
539327.8013
 21
4477843.3747
 31
1396.5126953125
  0
LINE
  5
108
330
1F
100
AcDbEntity
  8
KAT_1395
100
AcDbLine
 10
539325.0991
 20
4477848.6357
 30
1396.480712890625
 11
539322.8209
 21
4477848.4553
 31
1396.518310546875
  0
LINE
  5
109
330
1F
100
AcDbEntity
  8
KAT_1395
100
AcDbLine
 10
539322.8209
 20
4477848.4553
 30
1396.518310546875
 11
539318.644
 21
4477848.2798
 31
1396.469970703125
  0
LINE
  5
10A
330
1F
100
AcDbEntity
  8
KAT_1395
100
AcDbLine
 10
539327.8013
 20
4477843.3747
 30
1396.5126953125
 11
539329.3929
 21
4477843.4618
 31
1396.5
  0
LINE
  5
10B
330
1F
100
AcDbEntity
  8
KAT_1395
100
AcDbLine
 10
539329.3929
 20
4477843.4618
 30
1396.5
 11
539330.5593
 21
4477843.3806
 31
1396.5
  0
LINE
  5
10C
330
1F
100
AcDbEntity
  8
KAT_1395
100
AcDbLine
 10
539331.2678
 20
4477848.1284
 30
1396.5
 11
539328.789
 21
4477848.2007
 31
1396.5
  0
LINE
  5
10D
330
1F
100
AcDbEntity
  8
KAT_1395
100
AcDbLine
 10
539328.789
 20
4477848.2007
 30
1396.5
 11
539328.2853
 21
4477848.6666
 31
1396.5
  0
LINE
  5
10E
330
1F
100
AcDbEntity
  8
KAT_1395
100
AcDbLine
 10
539328.2853
 20
4477848.6666
 30
1396.5
 11
539325.0991
 21
4477848.6357
 31
1396.480712890625
  0
LINE
  5
10F
330
1F
100
AcDbEntity
  8
KAT_1395
100
AcDbLine
 10
539344.1795
 20
4477772.6321
 30
1396.969970703125
 11
539343.2498
 21
4477771.2128
 31
1396.969970703125
  0
LINE
  5
110
330
1F
100
AcDbEntity
  8
KAT_1395
100
AcDbLine
 10
539343.1016
 20
4477768.9695
 30
1397.01904296875
 11
539343.2498
 21
4477771.2128
 31
1396.969970703125
  0
LINE
  5
111
330
1F
100
AcDbEntity
  8
KAT_1395
100
AcDbLine
 10
539343.1016
 20
4477768.9695
 30
1397.01904296875
 11
539342.7457
 21
4477765.9355
 31
1397.02001953125
  0
LINE
  5
112
330
1F
100
AcDbEntity
  8
KAT_1395
100
AcDbLine
 10
539337.4984
 20
4477761.5591
 30
1397.099975585938
 11
539338.0611
 21
4477766.2422
 31
1397.099975585938
  0
LINE
  5
113
330
1F
100
AcDbEntity
  8
KAT_1395
100
AcDbLine
 10
539338.0611
 20
4477766.2422
 30
1397.099975585938
 11
539337.7793
 21
4477767.0733
 31
1397.099975585938
  0
LINE
  5
114
330
1F
100
AcDbEntity
  8
KAT_1395
100
AcDbLine
 10
539330.5593
 20
4477843.3806
 30
1396.5
 11
539333.8696
 21
4477843.3112
 31
1396.5
  0
LINE
  5
115
330
1F
100
AcDbEntity
  8
KAT_1395
100
AcDbLine
 10
539333.8696
 20
4477843.3112
 30
1396.5
 11
539336.789
 21
4477843.1729
 31
1396.5
  0
LINE
  5
116
330
1F
100
AcDbEntity
  8
KAT_1395
100
AcDbLine
 10
539344.1795
 20
4477772.6321
 30
1396.969970703125
 11
539344.1795
 21
4477774.4143
 31
1396.969970703125
  0
LINE
  5
117
330
1F
100
AcDbEntity
  8
KAT_1395
100
AcDbLine
 10
539344.1795
 20
4477774.4143
 30
1396.969970703125
 11
539344.8717
 21
4477775.8547
 31
1396.969970703125
  0
LINE
  5
118
330
1F
100
AcDbEntity
  8
KAT_1395
100
AcDbLine
 10
539336.789
 20
4477843.1729
 30
1396.5
 11
539339.2395
 21
4477842.8355
 31
1396.755737304688
  0
LINE
  5
119
330
1F
100
AcDbEntity
  8
KAT_1395
100
AcDbLine
 10
539339.2395
 20
4477842.8355
 30
1396.755737304688
 11
539339.9982
 21
4477843.2537
 31
1396.728759765625
  0
LINE
  5
11A
330
1F
100
AcDbEntity
  8
KAT_1395
100
AcDbLine
 10
539339.9982
 20
4477843.2537
 30
1396.728759765625
 11
539341.4357
 21
4477844.0079
 31
1396.761840820312
  0
LINE
  5
11B
330
1F
100
AcDbEntity
  8
KAT_1395
100
AcDbLine
 10
539341.4357
 20
4477844.0079
 30
1396.761840820312
 11
539341.1873
 21
4477848.6179
 31
1397.28271484375
  0
LINE
  5
11C
330
1F
100
AcDbEntity
  8
KAT_1395
100
AcDbLine
 10
539341.1873
 20
4477848.6179
 30
1397.28271484375
 11
539339.9513
 21
4477848.8312
 31
1397.149169921875
  0
LINE
  5
11D
330
1F
100
AcDbEntity
  8
KAT_1395
100
AcDbLine
 10
539337.7793
 20
4477767.0733
 30
1397.099975585938
 11
539337.6324
 21
4477768.5034
 31
1397.254028320312
  0
LINE
  5
11E
330
1F
100
AcDbEntity
  8
KAT_1395
100
AcDbLine
 10
539337.6324
 20
4477768.5034
 30
1397.254028320312
 11
539337.378
 21
4477769.5707
 31
1397.090942382812
  0
LINE
  5
11F
330
1F
100
AcDbEntity
  8
KAT_1395
100
AcDbLine
 10
539337.378
 20
4477769.5707
 30
1397.090942382812
 11
539336.8899
 21
4477769.9157
 31
1396.962646484375
  0
LINE
  5
120
330
1F
100
AcDbEntity
  8
KAT_1395
100
AcDbLine
 10
539336.014
 20
4477773.5532
 30
1397.01416015625
 11
539338.4354
 21
4477775.06
 31
1397.069702148438
  0
LINE
  5
121
330
1F
100
AcDbEntity
  8
KAT_1395
100
AcDbLine
 10
539338.4354
 20
4477775.06
 30
1397.069702148438
 11
539339.1357
 21
4477776.0485
 31
1397.014404296875
  0
LINE
  5
122
330
1F
100
AcDbEntity
  8
KAT_1395
100
AcDbLine
 10
539338.5279
 20
4477779.1762
 30
1396.969970703125
 11
539338.9485
 21
4477778.0699
 31
1397.079223632812
  0
LINE
  5
123
330
1F
100
AcDbEntity
  8
KAT_1395
100
AcDbLine
 10
539338.9485
 20
4477778.0699
 30
1397.079223632812
 11
539339.1357
 21
4477776.0485
 31
1397.014404296875
  0
LINE
  5
124
330
1F
100
AcDbEntity
  8
KAT_1395
100
AcDbLine
 10
539323.8216938999
 20
4477799.638246072
 30
1396.588012695312
 11
539325.8747
 21
4477796.6376
 31
1396.643798828125
  0
LINE
  5
125
330
1F
100
AcDbEntity
  8
KAT_1395
100
AcDbLine
 10
539325.8747
 20
4477796.6376
 30
1396.643798828125
 11
539327.5077
 21
4477794.829
 31
1396.795043945312
  0
LINE
  5
126
330
1F
100
AcDbEntity
  8
KAT_1395
100
AcDbLine
 10
539327.5077
 20
4477794.829
 30
1396.795043945312
 11
539326.9547
 21
4477792.97
 31
1396.812866210938
  0
LINE
  5
127
330
1F
100
AcDbEntity
  8
KAT_1395
100
AcDbLine
 10
539326.9547
 20
4477792.97
 30
1396.812866210938
 11
539325.8993
 21
4477790.7
 31
1396.688354492188
  0
LINE
  5
128
330
1F
100
AcDbEntity
  8
KAT_1395
100
AcDbLine
 10
539329.9499
 20
4477789.5268
 30
1396.588623046875
 11
539330.247
 21
4477790.8623
 31
1396.449829101562
  0
LINE
  5
129
330
1F
100
AcDbEntity
  8
KAT_1395
100
AcDbLine
 10
539330.247
 20
4477790.8623
 30
1396.449829101562
 11
539331.3752
 21
4477791.6636
 31
1396.938598632812
  0
LINE
  5
12A
330
1F
100
AcDbEntity
  8
KAT_1395
100
AcDbLine
 10
539331.3752
 20
4477791.6636
 30
1396.938598632812
 11
539332.6287
 21
4477790.4637
 31
1396.924194335938
  0
LINE
  5
12B
330
1F
100
AcDbEntity
  8
KAT_1395
100
AcDbLine
 10
539332.6287
 20
4477790.4637
 30
1396.924194335938
 11
539335.359
 21
4477785.8855
 31
1396.911254882812
  0
LINE
  5
12C
330
1F
100
AcDbEntity
  8
KAT_1395
100
AcDbLine
 10
539329.9499
 20
4477789.5268
 30
1396.588623046875
 11
539329.2099
 21
4477788.3423
 31
1396.070068359375
  0
LINE
  5
12D
330
1F
100
AcDbEntity
  8
KAT_1395
100
AcDbLine
 10
539336.8899
 20
4477769.9157
 30
1396.962646484375
 11
539335.6069
 21
4477769.5186
 31
1396.541259765625
  0
LINE
  5
12E
330
1F
100
AcDbEntity
  8
KAT_1395
100
AcDbLine
 10
539335.6069
 20
4477769.5186
 30
1396.541259765625
 11
539334.216
 21
4477769.1937
 31
1396.194458007812
  0
LINE
  5
12F
330
1F
100
AcDbEntity
  8
KAT_1395
100
AcDbLine
 10
539329.2099
 20
4477788.3423
 30
1396.070068359375
 11
539328.5577
 21
4477786.8134
 31
1395.932495117188
  0
LINE
  5
130
330
1F
100
AcDbEntity
  8
KAT_1395
100
AcDbLine
 10
539328.5577
 20
4477786.8134
 30
1395.932495117188
 11
539327.6782
 21
4477784.1228
 31
1395.486450195312
  0
LINE
  5
131
330
1F
100
AcDbEntity
  8
KAT_1395
100
AcDbLine
 10
539327.6782
 20
4477784.1228
 30
1395.486450195312
 11
539326.5185
 21
4477780.8278
 31
1395.107055664062
  0
LINE
  5
132
330
1F
100
AcDbEntity
  8
KAT_1395
100
AcDbLine
 10
539322.4723
 20
4477783.0573
 30
1395.156005859375
 11
539323.847
 21
4477786.0285
 31
1395.624633789062
  0
LINE
  5
133
330
1F
100
AcDbEntity
  8
KAT_1395
100
AcDbLine
 10
539323.847
 20
4477786.0285
 30
1395.624633789062
 11
539324.9271
 21
4477788.2312
 31
1396.009643554688
  0
LINE
  5
134
330
1F
100
AcDbEntity
  8
KAT_1395
100
AcDbLine
 10
539324.9271
 20
4477788.2312
 30
1396.009643554688
 11
539325.8993
 21
4477790.7
 31
1396.688354492188
  0
LINE
  5
135
330
1F
100
AcDbEntity
  8
KAT_1395
100
AcDbLine
 10
539334.216
 20
4477769.1937
 30
1396.194458007812
 11
539333.12
 21
4477768.8555
 31
1395.854614257812
  0
LINE
  5
136
330
1F
100
AcDbEntity
  8
KAT_1395
100
AcDbLine
 10
539333.12
 20
4477768.8555
 30
1395.854614257812
 11
539329.3055
 21
4477768.0955
 31
1395.4912109375
  0
LINE
  5
137
330
1F
100
AcDbEntity
  8
KAT_1395
100
AcDbLine
 10
539332.4971
 20
4477772.9827
 30
1396.259033203125
 11
539336.014
 21
4477773.5532
 31
1397.01416015625
  0
LINE
  5
138
330
1F
100
AcDbEntity
  8
KAT_1395
100
AcDbLine
 10
539326.5185
 20
4477780.8278
 30
1395.107055664062
 11
539326.0051
 21
4477779.4959
 31
1394.683837890625
  0
LINE
  5
139
330
1F
100
AcDbEntity
  8
KAT_1395
100
AcDbLine
 10
539321.3762
 20
4477779.4265
 30
1394.347412109375
 11
539321.3752
 21
4477780.7711
 31
1394.472900390625
  0
LINE
  5
13A
330
1F
100
AcDbEntity
  8
KAT_1395
100
AcDbLine
 10
539321.3752
 20
4477780.7711
 30
1394.472900390625
 11
539321.8174
 21
4477781.8781
 31
1394.725219726562
  0
LINE
  5
13B
330
1F
100
AcDbEntity
  8
KAT_1395
100
AcDbLine
 10
539321.8174
 20
4477781.8781
 30
1394.725219726562
 11
539322.4723
 21
4477783.0573
 31
1395.156005859375
  0
LINE
  5
13C
330
1F
100
AcDbEntity
  8
KAT_1395
100
AcDbLine
 10
539325.4474
 20
4477767.9021
 30
1394.77685546875
 11
539329.3055
 21
4477768.0955
 31
1395.4912109375
  0
LINE
  5
13D
330
1F
100
AcDbEntity
  8
KAT_1395
100
AcDbLine
 10
539325.5064
 20
4477772.4238
 30
1394.93994140625
 11
539329.6765
 21
4477772.6362
 31
1395.887573242188
  0
LINE
  5
13E
330
1F
100
AcDbEntity
  8
KAT_1395
100
AcDbLine
 10
539329.6765
 20
4477772.6362
 30
1395.887573242188
 11
539332.4971
 21
4477772.9827
 31
1396.259033203125
  0
LINE
  5
13F
330
1F
100
AcDbEntity
  8
KAT_1395
100
AcDbLine
 10
539321.3762
 20
4477779.4265
 30
1394.347412109375
 11
539321.2025
 21
4477778.948
 31
1394.27880859375
  0
LINE
  5
140
330
1F
100
AcDbEntity
  8
KAT_1395
100
AcDbLine
 10
539321.2025
 20
4477778.948
 30
1394.27880859375
 11
539319.7089
 21
4477775.2168
 31
1394.050659179688
  0
LINE
  5
141
330
1F
100
AcDbEntity
  8
KAT_1395
100
AcDbLine
 10
539319.7089
 20
4477775.2168
 30
1394.050659179688
 11
539319.249
 21
4477773.3588
 31
1394.16357421875
  0
LINE
  5
142
330
1F
100
AcDbEntity
  8
KAT_1395
100
AcDbLine
 10
539319.249
 20
4477773.3588
 30
1394.16357421875
 11
539321.265
 21
4477771.9203
 31
1394.097778320312
  0
LINE
  5
143
330
1F
100
AcDbEntity
  8
KAT_1395
100
AcDbLine
 10
539321.265
 20
4477771.9203
 30
1394.097778320312
 11
539321.4708
 21
4477768.8534
 31
1394.194946289062
  0
LINE
  5
144
330
1F
100
AcDbEntity
  8
KAT_1395
100
AcDbLine
 10
539321.4708
 20
4477768.8534
 30
1394.194946289062
 11
539323.0084
 21
4477768.4238
 31
1394.4228515625
  0
LINE
  5
145
330
1F
100
AcDbEntity
  8
KAT_1395
100
AcDbLine
 10
539323.0084
 20
4477768.4238
 30
1394.4228515625
 11
539325.4474
 21
4477767.9021
 31
1394.77685546875
  0
LINE
  5
146
330
1F
100
AcDbEntity
  8
KAT_1395
100
AcDbLine
 10
539325.5064
 20
4477772.4238
 30
1394.93994140625
 11
539324.295
 21
4477773.6705
 31
1394.235229492188
  0
LINE
  5
147
330
1F
100
AcDbEntity
  8
KAT_1395
100
AcDbLine
 10
539324.295
 20
4477773.6705
 30
1394.235229492188
 11
539325.0217
 21
4477776.1111
 31
1394.253784179688
  0
LINE
  5
148
330
1F
100
AcDbEntity
  8
KAT_1395
100
AcDbLine
 10
539325.0217
 20
4477776.1111
 30
1394.253784179688
 11
539326.0051
 21
4477779.4959
 31
1394.683837890625
  0
LINE
  5
149
330
1F
100
AcDbEntity
  8
KAT_1395
100
AcDbLine
 10
539337.4984
 20
4477761.5591
 30
1397.099975585938
 11
539337.2604
 21
4477760.1527
 31
1397.04345703125
  0
LINE
  5
14A
330
1F
100
AcDbEntity
  8
KAT_1395
100
AcDbLine
 10
539337.2604
 20
4477760.1527
 30
1397.04345703125
 11
539336.9534
 21
4477758.7121
 31
1397.04345703125
  0
LINE
  5
14B
330
1F
100
AcDbEntity
  8
KAT_1395
100
AcDbLine
 10
539336.9534
 20
4477758.7121
 30
1397.04345703125
 11
539337.8791
 21
4477757.8718
 31
1397.04345703125
  0
LINE
  5
14C
330
1F
100
AcDbEntity
  8
KAT_1395
100
AcDbLine
 10
539337.8791
 20
4477757.8718
 30
1397.04345703125
 11
539337.2399
 21
4477756.0321
 31
1397.04345703125
  0
LINE
  5
14D
330
1F
100
AcDbEntity
  8
KAT_1395
100
AcDbLine
 10
539337.2399
 20
4477756.0321
 30
1397.04345703125
 11
539336.3799
 21
4477754.5372
 31
1397.04345703125
  0
LINE
  5
14E
330
1F
100
AcDbEntity
  8
KAT_1395
100
AcDbLine
 10
539342.0055
 20
4477753.9411
 30
1397.024291992188
 11
539341.0899
 21
4477753.2149
 31
1397.033935546875
  0
LINE
  5
14F
330
1F
100
AcDbEntity
  8
KAT_1395
100
AcDbLine
 10
539341.0899
 20
4477753.2149
 30
1397.033935546875
 11
539340.4528
 21
4477750.7391
 31
1397.016235351562
  0
LINE
  5
150
330
1F
100
AcDbEntity
  8
KAT_1395
100
AcDbLine
 10
539340.4528
 20
4477750.7391
 30
1397.016235351562
 11
539339.7292
 21
4477750.3443
 31
1397.080444335938
  0
LINE
  5
151
330
1F
100
AcDbEntity
  8
KAT_1395
100
AcDbLine
 10
539339.7292
 20
4477750.3443
 30
1397.080444335938
 11
539338.7613
 21
4477747.7613
 31
1397.053588867188
  0
LINE
  5
152
330
1F
100
AcDbEntity
  8
KAT_1395
100
AcDbLine
 10
539338.7613
 20
4477747.7613
 30
1397.053588867188
 11
539338.3203
 21
4477744.9823
 31
1397.168579101562
  0
LINE
  5
153
330
1F
100
AcDbEntity
  8
KAT_1395
100
AcDbLine
 10
539338.3203
 20
4477744.9823
 30
1397.168579101562
 11
539338.9463
 21
4477742.1951
 31
1397.313110351562
  0
LINE
  5
154
330
1F
100
AcDbEntity
  8
KAT_1395
100
AcDbLine
 10
539338.6683
 20
4477741.2786
 30
1397.3671875
 11
539338.9463
 21
4477742.1951
 31
1397.313110351562
  0
LINE
  5
155
330
1F
100
AcDbEntity
  8
KAT_1395
100
AcDbLine
 10
539342.7457
 20
4477765.9355
 30
1397.02001953125
 11
539343.2207
 21
4477764.0882
 31
1397.074584960938
  0
LINE
  5
156
330
1F
100
AcDbEntity
  8
KAT_1395
100
AcDbLine
 10
539343.2207
 20
4477764.0882
 30
1397.074584960938
 11
539343.653
 21
4477763.603
 31
1397.270385742188
  0
LINE
  5
157
330
1F
100
AcDbEntity
  8
KAT_1395
100
AcDbLine
 10
539344.0864
 20
4477758.1179
 30
1397.124267578125
 11
539343.1526
 21
4477757.6669
 31
1397.114624023438
  0
LINE
  5
158
330
1F
100
AcDbEntity
  8
KAT_1395
100
AcDbLine
 10
539343.1526
 20
4477757.6669
 30
1397.114624023438
 11
539342.1344
 21
4477756.3753
 31
1397.01513671875
  0
LINE
  5
159
330
1F
100
AcDbEntity
  8
KAT_1395
100
AcDbLine
 10
539342.1344
 20
4477756.3753
 30
1397.01513671875
 11
539342.0055
 21
4477753.9411
 31
1397.024291992188
  0
LINE
  5
15A
330
1F
100
AcDbEntity
  8
KAT_1395
100
AcDbLine
 10
539339.0997
 20
4477736.0493
 30
1397.251586914062
 11
539338.8562
 21
4477738.7934
 31
1397.212158203125
  0
LINE
  5
15B
330
1F
100
AcDbEntity
  8
KAT_1395
100
AcDbLine
 10
539338.8562
 20
4477738.7934
 30
1397.212158203125
 11
539338.6683
 21
4477741.2786
 31
1397.3671875
  0
LINE
  5
15C
330
1F
100
AcDbEntity
  8
KAT_1395
100
AcDbLine
 10
539344.0864
 20
4477758.1179
 30
1397.124267578125
 11
539346.6544
 21
4477758.5048
 31
1397.603515625
  0
LINE
  5
15D
330
1F
100
AcDbEntity
  8
KAT_1395
100
AcDbLine
 10
539346.6544
 20
4477758.5048
 30
1397.603515625
 11
539347.1692
 21
4477759.2791
 31
1397.653442382812
  0
LINE
  5
15E
330
1F
100
AcDbEntity
  8
KAT_1395
100
AcDbLine
 10
539346.2981
 20
4477764.1941
 30
1397.782348632812
 11
539345.7646
 21
4477764.3486
 31
1397.66845703125
  0
LINE
  5
15F
330
1F
100
AcDbEntity
  8
KAT_1395
100
AcDbLine
 10
539345.7646
 20
4477764.3486
 30
1397.66845703125
 11
539343.653
 21
4477763.603
 31
1397.270385742188
  0
LINE
  5
160
330
1F
100
AcDbEntity
  8
KAT_1395
100
AcDbLine
 10
539334.1563
 20
4477735.262
 30
1397.329467773438
 11
539333.9917
 21
4477733.2218
 31
1397.25
  0
LINE
  5
161
330
1F
100
AcDbEntity
  8
KAT_1395
100
AcDbLine
 10
539333.9917
 20
4477733.2218
 30
1397.25
 11
539334.1657
 21
4477730.4956
 31
1397.25
  0
LINE
  5
162
330
1F
100
AcDbEntity
  8
KAT_1395
100
AcDbLine
 10
539339.0236
 20
4477730.5973
 30
1397.25
 11
539339.0674
 21
4477732.248
 31
1397.25
  0
LINE
  5
163
330
1F
100
AcDbEntity
  8
KAT_1395
100
AcDbLine
 10
539339.0674
 20
4477732.248
 30
1397.25
 11
539339.1486
 21
4477734.3317
 31
1397.25
  0
LINE
  5
164
330
1F
100
AcDbEntity
  8
KAT_1395
100
AcDbLine
 10
539339.1486
 20
4477734.3317
 30
1397.25
 11
539339.0997
 21
4477736.0493
 31
1397.251586914062
  0
LINE
  5
165
330
1F
100
AcDbEntity
  8
KAT_1395
100
AcDbLine
 10
539334.1657
 20
4477730.4956
 30
1397.25
 11
539334.027
 21
4477727.7685
 31
1397.00537109375
  0
LINE
  5
166
330
1F
100
AcDbEntity
  8
KAT_1395
100
AcDbLine
 10
539338.9806
 20
4477729.4611
 30
1396.90234375
 11
539339.0236
 21
4477730.5973
 31
1397.25
  0
LINE
  5
167
330
1F
100
AcDbEntity
  8
KAT_1395
100
AcDbLine
 10
539347.1692
 20
4477759.2791
 30
1397.653442382812
 11
539350.7489
 21
4477760.5784
 31
1398.262817382812
  0
LINE
  5
168
330
1F
100
AcDbEntity
  8
KAT_1395
100
AcDbLine
 10
539350.7489
 20
4477760.5784
 30
1398.262817382812
 11
539354.1107
 21
4477761.1119
 31
1398.7890625
  0
LINE
  5
169
330
1F
100
AcDbEntity
  8
KAT_1395
100
AcDbLine
 10
539354.1107
 20
4477761.1119
 30
1398.7890625
 11
539357.3563
 21
4477761.6107
 31
1399.442993164062
  0
LINE
  5
16A
330
1F
100
AcDbEntity
  8
KAT_1395
100
AcDbLine
 10
539357.3563
 20
4477761.6107
 30
1399.442993164062
 11
539359.9416
 21
4477762.0215
 31
1399.905883789062
  0
LINE
  5
16B
330
1F
100
AcDbEntity
  8
KAT_1395
100
AcDbLine
 10
539359.9416
 20
4477762.0215
 30
1399.905883789062
 11
539361.7254
 21
4477762.4007
 31
1400.261108398438
  0
LINE
  5
16C
330
1F
100
AcDbEntity
  8
KAT_1395
100
AcDbLine
 10
539360.6122
 20
4477767.0809
 30
1400.461669921875
 11
539357.5598
 21
4477766.6206
 31
1399.781372070312
  0
LINE
  5
16D
330
1F
100
AcDbEntity
  8
KAT_1395
100
AcDbLine
 10
539357.5598
 20
4477766.6206
 30
1399.781372070312
 11
539355.9984
 21
4477766.3161
 31
1399.51708984375
  0
LINE
  5
16E
330
1F
100
AcDbEntity
  8
KAT_1395
100
AcDbLine
 10
539355.9984
 20
4477766.3161
 30
1399.51708984375
 11
539355.3843
 21
4477766.6917
 31
1399.420043945312
  0
LINE
  5
16F
330
1F
100
AcDbEntity
  8
KAT_1395
100
AcDbLine
 10
539355.3843
 20
4477766.6917
 30
1399.420043945312
 11
539353.8064
 21
4477766.3912
 31
1398.947143554688
  0
LINE
  5
170
330
1F
100
AcDbEntity
  8
KAT_1395
100
AcDbLine
 10
539353.8064
 20
4477766.3912
 30
1398.947143554688
 11
539350.9964
 21
4477765.7549
 31
1398.429443359375
  0
LINE
  5
171
330
1F
100
AcDbEntity
  8
KAT_1395
100
AcDbLine
 10
539350.9964
 20
4477765.7549
 30
1398.429443359375
 11
539348.237
 21
4477764.7828
 31
1398.150024414062
  0
LINE
  5
172
330
1F
100
AcDbEntity
  8
KAT_1395
100
AcDbLine
 10
539348.237
 20
4477764.7828
 30
1398.150024414062
 11
539346.2981
 21
4477764.1941
 31
1397.782348632812
  0
LINE
  5
173
330
1F
100
AcDbEntity
  8
KAT_1395
100
AcDbLine
 10
539360.6122
 20
4477767.0809
 30
1400.461669921875
 11
539362.6889
 21
4477767.7345
 31
1400.260986328125
  0
LINE
  5
174
330
1F
100
AcDbEntity
  8
KAT_1395
100
AcDbLine
 10
539362.6889
 20
4477767.7345
 30
1400.260986328125
 11
539364.2491
 21
4477763.0347
 31
1400.260986328125
  0
LINE
  5
175
330
1F
100
AcDbEntity
  8
KAT_1395
100
AcDbLine
 10
539364.2491
 20
4477763.0347
 30
1400.260986328125
 11
539361.7254
 21
4477762.4007
 31
1400.261108398438
  0
LINE
  5
176
330
1F
100
AcDbEntity
  8
KAT_1395
100
AcDbLine
 10
539334.027
 20
4477727.7685
 30
1397.00537109375
 11
539334.0567
 21
4477726.07
 31
1397.048950195312
  0
LINE
  5
177
330
1F
100
AcDbEntity
  8
KAT_1395
100
AcDbLine
 10
539334.0567
 20
4477726.07
 30
1397.048950195312
 11
539333.8183
 21
4477723.8726
 31
1396.905151367188
  0
LINE
  5
178
330
1F
100
AcDbEntity
  8
KAT_1395
100
AcDbLine
 10
539338.6168
 20
4477726.1196
 30
1397.11865234375
 11
539338.9806
 21
4477729.4611
 31
1396.90234375
  0
LINE
  5
179
330
1F
100
AcDbEntity
  8
KAT_1395
100
AcDbLine
 10
539333.8183
 20
4477723.8726
 30
1396.905151367188
 11
539334.2051
 21
4477723.2796
 31
1396.65673828125
  0
LINE
  5
17A
330
1F
100
AcDbEntity
  8
KAT_1395
100
AcDbLine
 10
539334.2051
 20
4477723.2796
 30
1396.65673828125
 11
539334.3454
 21
4477721.2101
 31
1396.447509765625
  0
LINE
  5
17B
330
1F
100
AcDbEntity
  8
KAT_1395
100
AcDbLine
 10
539334.3454
 20
4477721.2101
 30
1396.447509765625
 11
539334.5355
 21
4477718.3148
 31
1396.026000976562
  0
LINE
  5
17C
330
1F
100
AcDbEntity
  8
KAT_1395
100
AcDbLine
 10
539334.5355
 20
4477718.3148
 30
1396.026000976562
 11
539334.4425
 21
4477714.9921
 31
1395.474853515625
  0
LINE
  5
17D
330
1F
100
AcDbEntity
  8
KAT_1395
100
AcDbLine
 10
539334.4425
 20
4477714.9921
 30
1395.474853515625
 11
539334.6022
 21
4477713.1914
 31
1395.17724609375
  0
LINE
  5
17E
330
1F
100
AcDbEntity
  8
KAT_1395
100
AcDbLine
 10
539334.6022
 20
4477713.1914
 30
1395.17724609375
 11
539334.6013
 21
4477711.2373
 31
1395.116333007812
  0
LINE
  5
17F
330
1F
100
AcDbEntity
  8
KAT_1395
100
AcDbLine
 10
539338.9184
 20
4477711.5069
 30
1395.0908203125
 11
539338.9748
 21
4477714.0128
 31
1395.406860351562
  0
LINE
  5
180
330
1F
100
AcDbEntity
  8
KAT_1395
100
AcDbLine
 10
539338.9748
 20
4477714.0128
 30
1395.406860351562
 11
539339.1208
 21
4477716.7379
 31
1395.8203125
  0
LINE
  5
181
330
1F
100
AcDbEntity
  8
KAT_1395
100
AcDbLine
 10
539339.1208
 20
4477716.7379
 30
1395.8203125
 11
539339.1939819272
 21
4477720.173094
 31
1396.316040039062
  0
LINE
  5
182
330
1F
100
AcDbEntity
  8
KAT_1395
100
AcDbLine
 10
539339.1939819272
 20
4477720.173094
 30
1396.316040039062
 11
539338.4109
 21
4477723.1185
 31
1396.711669921875
  0
LINE
  5
183
330
1F
100
AcDbEntity
  8
KAT_1395
100
AcDbLine
 10
539338.4109
 20
4477723.1185
 30
1396.711669921875
 11
539338.6168
 21
4477726.1196
 31
1397.11865234375
  0
LINE
  5
184
330
1F
100
AcDbEntity
  8
KAT_1395
100
AcDbLine
 10
539336.3799
 20
4477754.5372
 30
1397.04345703125
 11
539335.9465
 21
4477753.5595
 31
1397.244873046875
  0
LINE
  5
185
330
1F
100
AcDbEntity
  8
KAT_1395
100
AcDbLine
 10
539335.9465
 20
4477753.5595
 30
1397.244873046875
 11
539334.8149
 21
4477751.3891
 31
1397.125122070312
  0
LINE
  5
186
330
1F
100
AcDbEntity
  8
KAT_1395
100
AcDbLine
 10
539334.8149
 20
4477751.3891
 30
1397.125122070312
 11
539334.178
 21
4477751.0929
 31
1397.180786132812
  0
LINE
  5
187
330
1F
100
AcDbEntity
  8
KAT_1395
100
AcDbLine
 10
539334.6013
 20
4477711.2373
 30
1395.116333007812
 11
539334.4778
 21
4477709.6247
 31
1395.01953125
  0
LINE
  5
188
330
1F
100
AcDbEntity
  8
KAT_1395
100
AcDbLine
 10
539338.96
 20
4477710.2706
 30
1395.036376953125
 11
539338.9184
 21
4477711.5069
 31
1395.0908203125
  0
LINE
  5
189
330
1F
100
AcDbEntity
  8
KAT_1395
100
AcDbLine
 10
539334.4778
 20
4477709.6247
 30
1395.01953125
 11
539334.3443
 21
4477708.4371
 31
1394.764770507812
  0
LINE
  5
18A
330
1F
100
AcDbEntity
  8
KAT_1395
100
AcDbLine
 10
539334.3443
 20
4477708.4371
 30
1394.764770507812
 11
539334.5822
 21
4477705.2497
 31
1394.304931640625
  0
LINE
  5
18B
330
1F
100
AcDbEntity
  8
KAT_1395
100
AcDbLine
 10
539334.5822
 20
4477705.2497
 30
1394.304931640625
 11
539334.6364
 21
4477701.5544
 31
1394.11767578125
  0
LINE
  5
18C
330
1F
100
AcDbEntity
  8
KAT_1395
100
AcDbLine
 10
539338.8399
 20
4477705.6018
 30
1394.1982421875
 11
539339.016
 21
4477708.3526
 31
1394.680297851562
  0
LINE
  5
18D
330
1F
100
AcDbEntity
  8
KAT_1395
100
AcDbLine
 10
539339.016
 20
4477708.3526
 30
1394.680297851562
 11
539338.96
 21
4477710.2706
 31
1395.036376953125
  0
LINE
  5
18E
330
1F
100
AcDbEntity
  8
KAT_1395
100
AcDbLine
 10
539331.547
 20
4477746.5665
 30
1397.12060546875
 11
539330.6653
 21
4477746.8997
 31
1397.154907226562
  0
LINE
  5
18F
330
1F
100
AcDbEntity
  8
KAT_1395
100
AcDbLine
 10
539330.341
 20
4477750.8599
 30
1397.231567382812
 11
539331.7627
 21
4477751.0805
 31
1397.124267578125
  0
LINE
  5
190
330
1F
100
AcDbEntity
  8
KAT_1395
100
AcDbLine
 10
539331.7627
 20
4477751.0805
 30
1397.124267578125
 11
539334.178
 21
4477751.0929
 31
1397.180786132812
  0
LINE
  5
191
330
1F
100
AcDbEntity
  8
KAT_1395
100
AcDbLine
 10
539334.6364
 20
4477701.5544
 30
1394.11767578125
 11
539334.4858
 21
4477700.1333
 31
1393.729614257812
  0
LINE
  5
192
330
1F
100
AcDbEntity
  8
KAT_1395
100
AcDbLine
 10
539334.4858
 20
4477700.1333
 30
1393.729614257812
 11
539334.5949
 21
4477698.0447
 31
1393.514770507812
  0
LINE
  5
193
330
1F
100
AcDbEntity
  8
KAT_1395
100
AcDbLine
 10
539339.0612
 20
4477698.4636
 30
1393.628051757812
 11
539338.8772
 21
4477701.5129
 31
1393.99072265625
  0
LINE
  5
194
330
1F
100
AcDbEntity
  8
KAT_1395
100
AcDbLine
 10
539338.8772
 20
4477701.5129
 30
1393.99072265625
 11
539338.8399
 21
4477705.6018
 31
1394.1982421875
  0
LINE
  5
195
330
1F
100
AcDbEntity
  8
KAT_1395
100
AcDbLine
 10
539330.6653
 20
4477746.8997
 30
1397.154907226562
 11
539328.2786
 21
4477747.509
 31
1397.440551757812
  0
LINE
  5
196
330
1F
100
AcDbEntity
  8
KAT_1395
100
AcDbLine
 10
539328.2786
 20
4477747.509
 30
1397.440551757812
 11
539325.744
 21
4477747.9622
 31
1397.482788085938
  0
LINE
  5
197
330
1F
100
AcDbEntity
  8
KAT_1395
100
AcDbLine
 10
539326.0037
 20
4477752.1549
 30
1397.7744140625
 11
539328.1628
 21
4477751.3548
 31
1397.588500976562
  0
LINE
  5
198
330
1F
100
AcDbEntity
  8
KAT_1395
100
AcDbLine
 10
539328.1628
 20
4477751.3548
 30
1397.588500976562
 11
539330.341
 21
4477750.8599
 31
1397.231567382812
  0
LINE
  5
199
330
1F
100
AcDbEntity
  8
KAT_1395
100
AcDbLine
 10
539325.744
 20
4477747.9622
 30
1397.482788085938
 11
539323.3519
 21
4477748.1915
 31
1397.89404296875
  0
LINE
  5
19A
330
1F
100
AcDbEntity
  8
KAT_1395
100
AcDbLine
 10
539323.3519
 20
4477748.1915
 30
1397.89404296875
 11
539323.8037
 21
4477752.6454
 31
1397.912109375
  0
LINE
  5
19B
330
1F
100
AcDbEntity
  8
KAT_1395
100
AcDbLine
 10
539323.8037
 20
4477752.6454
 30
1397.912109375
 11
539326.0037
 21
4477752.1549
 31
1397.7744140625
  0
LINE
  5
19C
330
1F
100
AcDbEntity
  8
KAT_1395
100
AcDbLine
 10
539334.5949
 20
4477698.0447
 30
1393.514770507812
 11
539334.7803
 21
4477694.9032
 31
1393.16455078125
  0
LINE
  5
19D
330
1F
100
AcDbEntity
  8
KAT_1395
100
AcDbLine
 10
539338.938
 20
4477689.6682
 30
1392.462158203125
 11
539339.0149
 21
4477691.9778
 31
1392.745239257812
  0
LINE
  5
19E
330
1F
100
AcDbEntity
  8
KAT_1395
100
AcDbLine
 10
539339.0149
 20
4477691.9778
 30
1392.745239257812
 11
539338.9714
 21
4477695.5483
 31
1393.200317382812
  0
LINE
  5
19F
330
1F
100
AcDbEntity
  8
KAT_1395
100
AcDbLine
 10
539338.9714
 20
4477695.5483
 30
1393.200317382812
 11
539339.0612
 21
4477698.4636
 31
1393.628051757812
  0
LINE
  5
1A0
330
1F
100
AcDbEntity
  8
KAT_1395
100
AcDbLine
 10
539339.0535
 20
4477687.9334
 30
1392.744995117188
 11
539338.938
 21
4477689.6682
 31
1392.462158203125
  0
LINE
  5
1A1
330
1F
100
AcDbEntity
  8
KAT_1395
100
AcDbLine
 10
539338.6032
 20
4477680.2913
 30
1392.4013671875
 11
539338.5672
 21
4477681.9555
 31
1392.10693359375
  0
LINE
  5
1A2
330
1F
100
AcDbEntity
  8
KAT_1395
100
AcDbLine
 10
539338.5672
 20
4477681.9555
 30
1392.10693359375
 11
539338.4731
 21
4477683.843
 31
1392.0947265625
  0
LINE
  5
1A3
330
1F
100
AcDbEntity
  8
KAT_1395
100
AcDbLine
 10
539338.4731
 20
4477683.843
 30
1392.0947265625
 11
539338.8074
 21
4477685.7779
 31
1392.081176757812
  0
LINE
  5
1A4
330
1F
100
AcDbEntity
  8
KAT_1395
100
AcDbLine
 10
539338.8074
 20
4477685.7779
 30
1392.081176757812
 11
539339.0535
 21
4477687.9334
 31
1392.744995117188
  0
LINE
  5
1A5
330
1F
100
AcDbEntity
  8
KAT_1395
100
AcDbLine
 10
539334.1272
 20
4477677.1651
 30
1392.446411132812
 11
539334.487
 21
4477675.8234
 31
1392.416748046875
  0
LINE
  5
1A6
330
1F
100
AcDbEntity
  8
KAT_1395
100
AcDbLine
 10
539334.487
 20
4477675.8234
 30
1392.416748046875
 11
539334.5876
 21
4477672.4556
 31
1392.610595703125
  0
LINE
  5
1A7
330
1F
100
AcDbEntity
  8
KAT_1395
100
AcDbLine
 10
539338.9037
 20
4477675.9885
 30
1392.349975585938
 11
539338.6032
 21
4477680.2913
 31
1392.4013671875
  0
LINE
  5
1A8
330
1F
100
AcDbEntity
  8
KAT_1395
100
AcDbLine
 10
539334.5876
 20
4477672.4556
 30
1392.610595703125
 11
539334.6143
 21
4477670.8506
 31
1392.821533203125
  0
LINE
  5
1A9
330
1F
100
AcDbEntity
  8
KAT_1395
100
AcDbLine
 10
539334.7803
 20
4477694.9032
 30
1393.16455078125
 11
539334.7317
 21
4477691.4276
 31
1392.711547851562
  0
LINE
  5
1AA
330
1F
100
AcDbEntity
  8
KAT_1395
100
AcDbLine
 10
539334.7317
 20
4477691.4276
 30
1392.711547851562
 11
539334.5238
 21
4477689.1151
 31
1392.255615234375
  0
LINE
  5
1AB
330
1F
100
AcDbEntity
  8
KAT_1395
100
AcDbLine
 10
539334.5238
 20
4477689.1151
 30
1392.255615234375
 11
539334.2116
 21
4477687.4429
 31
1392.274291992188
  0
LINE
  5
1AC
330
1F
100
AcDbEntity
  8
KAT_1395
100
AcDbLine
 10
539334.1019
 20
4477679.596
 30
1392.117919921875
 11
539334.1272
 21
4477677.1651
 31
1392.446411132812
  0
LINE
  5
1AD
330
1F
100
AcDbEntity
  8
KAT_1395
100
AcDbLine
 10
539334.6143
 20
4477670.8506
 30
1392.821533203125
 11
539334.2697
 21
4477667.4565
 31
1392.690307617188
  0
LINE
  5
1AE
330
1F
100
AcDbEntity
  8
KAT_1395
100
AcDbLine
 10
539334.2697
 20
4477667.4565
 30
1392.690307617188
 11
539334.1796
 21
4477664.9319
 31
1392.690307617188
  0
LINE
  5
1AF
330
1F
100
AcDbEntity
  8
KAT_1395
100
AcDbLine
 10
539334.1563
 20
4477735.262
 30
1397.329467773438
 11
539334.0463
 21
4477735.9671
 31
1397.45947265625
  0
LINE
  5
1B0
330
1F
100
AcDbEntity
  8
KAT_1395
100
AcDbLine
 10
539334.0463
 20
4477735.9671
 30
1397.45947265625
 11
539334.0792
 21
4477737.9077
 31
1397.501098632812
  0
LINE
  5
1B1
330
1F
100
AcDbEntity
  8
KAT_1395
100
AcDbLine
 10
539331.6918
 20
4477743.1678
 30
1397.4423828125
 11
539332.2638
 21
4477743.8456
 31
1397.26171875
  0
LINE
  5
1B2
330
1F
100
AcDbEntity
  8
KAT_1395
100
AcDbLine
 10
539332.2638
 20
4477743.8456
 30
1397.26171875
 11
539332.48
 21
4477745.0401
 31
1397.225708007812
  0
LINE
  5
1B3
330
1F
100
AcDbEntity
  8
KAT_1395
100
AcDbLine
 10
539332.48
 20
4477745.0401
 30
1397.225708007812
 11
539331.547
 21
4477746.5665
 31
1397.12060546875
  0
LINE
  5
1B4
330
1F
100
AcDbEntity
  8
KAT_1395
100
AcDbLine
 10
539334.0792
 20
4477737.9077
 30
1397.501098632812
 11
539332.2147
 21
4477738.4398
 31
1397.440307617188
  0
LINE
  5
1B5
330
1F
100
AcDbEntity
  8
KAT_1395
100
AcDbLine
 10
539332.2147
 20
4477738.4398
 30
1397.440307617188
 11
539331.0028
 21
4477738.1175
 31
1397.474365234375
  0
LINE
  5
1B6
330
1F
100
AcDbEntity
  8
KAT_1395
100
AcDbLine
 10
539327.7681
 20
4477741.0232
 30
1397.686157226562
 11
539329.6511
 21
4477742.0447
 31
1397.511474609375
  0
LINE
  5
1B7
330
1F
100
AcDbEntity
  8
KAT_1395
100
AcDbLine
 10
539329.6511
 20
4477742.0447
 30
1397.511474609375
 11
539331.0017
 21
4477742.736
 31
1397.505737304688
  0
LINE
  5
1B8
330
1F
100
AcDbEntity
  8
KAT_1395
100
AcDbLine
 10
539331.0017
 20
4477742.736
 30
1397.505737304688
 11
539331.6918
 21
4477743.1678
 31
1397.4423828125
  0
LINE
  5
1B9
330
1F
100
AcDbEntity
  8
KAT_1395
100
AcDbLine
 10
539334.1019
 20
4477679.596
 30
1392.117919921875
 11
539333.4794
 21
4477681.7403
 31
1392.0400390625
  0
LINE
  5
1BA
330
1F
100
AcDbEntity
  8
KAT_1395
100
AcDbLine
 10
539333.4794
 20
4477681.7403
 30
1392.0400390625
 11
539332.8107
 21
4477681.9856
 31
1392.0
  0
LINE
  5
1BB
330
1F
100
AcDbEntity
  8
KAT_1395
100
AcDbLine
 10
539332.8107
 20
4477681.9856
 30
1392.0
 11
539331.3549
 21
4477681.546
 31
1391.800048828125
  0
LINE
  5
1BC
330
1F
100
AcDbEntity
  8
KAT_1395
100
AcDbLine
 10
539331.3549
 20
4477681.546
 30
1391.800048828125
 11
539330.5375
 21
4477681.2782
 31
1391.5
  0
LINE
  5
1BD
330
1F
100
AcDbEntity
  8
KAT_1395
100
AcDbLine
 10
539329.4886
 20
4477685.7864
 30
1391.5
 11
539330.3779
 21
4477685.9379
 31
1391.800048828125
  0
LINE
  5
1BE
330
1F
100
AcDbEntity
  8
KAT_1395
100
AcDbLine
 10
539330.3779
 20
4477685.9379
 30
1391.800048828125
 11
539331.8823
 21
4477686.0597
 31
1392.0
  0
LINE
  5
1BF
330
1F
100
AcDbEntity
  8
KAT_1395
100
AcDbLine
 10
539331.8823
 20
4477686.0597
 30
1392.0
 11
539334.2116
 21
4477687.4429
 31
1392.274291992188
  0
LINE
  5
1C0
330
1F
100
AcDbEntity
  8
KAT_1395
100
AcDbLine
 10
539334.1796
 20
4477664.9319
 30
1392.690307617188
 11
539333.9674
 21
4477662.485
 31
1392.562255859375
  0
LINE
  5
1C1
330
1F
100
AcDbEntity
  8
KAT_1395
100
AcDbLine
 10
539333.9674
 20
4477662.485
 30
1392.562255859375
 11
539333.8824
 21
4477659.6699
 31
1392.756103515625
  0
LINE
  5
1C2
330
1F
100
AcDbEntity
  8
KAT_1395
100
AcDbLine
 10
539327.7681
 20
4477741.0232
 30
1397.686157226562
 11
539326.5647
 21
4477740.2931
 31
1397.573974609375
  0
LINE
  5
1C3
330
1F
100
AcDbEntity
  8
KAT_1395
100
AcDbLine
 10
539327.7752
 20
4477735.292
 30
1397.15283203125
 11
539330.2976
 21
4477737.5995
 31
1397.421752929688
  0
LINE
  5
1C4
330
1F
100
AcDbEntity
  8
KAT_1395
100
AcDbLine
 10
539330.2976
 20
4477737.5995
 30
1397.421752929688
 11
539331.0028
 21
4477738.1175
 31
1397.474365234375
  0
LINE
  5
1C5
330
1F
100
AcDbEntity
  8
KAT_1395
100
AcDbLine
 10
539326.5647
 20
4477740.2931
 30
1397.573974609375
 11
539324.7887
 21
4477739.1481
 31
1397.108642578125
  0
LINE
  5
1C6
330
1F
100
AcDbEntity
  8
KAT_1395
100
AcDbLine
 10
539324.7887
 20
4477739.1481
 30
1397.108642578125
 11
539323.0529
 21
4477738.0055
 31
1396.912963867188
  0
LINE
  5
1C7
330
1F
100
AcDbEntity
  8
KAT_1395
100
AcDbLine
 10
539325.3014
 20
4477733.5887
 30
1396.774291992188
 11
539327.7752
 21
4477735.292
 31
1397.15283203125
  0
LINE
  5
1C8
330
1F
100
AcDbEntity
  8
KAT_1395
100
AcDbLine
 10
539323.0529
 20
4477738.0055
 30
1396.912963867188
 11
539322.308
 21
4477737.2207
 31
1396.885498046875
  0
LINE
  5
1C9
330
1F
100
AcDbEntity
  8
KAT_1395
100
AcDbLine
 10
539322.308
 20
4477737.2207
 30
1396.885498046875
 11
539320.0333
 21
4477736.0021
 31
1396.473388671875
  0
LINE
  5
1CA
330
1F
100
AcDbEntity
  8
KAT_1395
100
AcDbLine
 10
539321.0039
 20
4477730.7916
 30
1396.46630859375
 11
539322.9118
 21
4477732.0161
 31
1396.671264648438
  0
LINE
  5
1CB
330
1F
100
AcDbEntity
  8
KAT_1395
100
AcDbLine
 10
539322.9118
 20
4477732.0161
 30
1396.671264648438
 11
539325.3014
 21
4477733.5887
 31
1396.774291992188
  0
LINE
  5
1CC
330
1F
100
AcDbEntity
  8
KAT_1395
100
AcDbLine
 10
539333.8824
 20
4477659.6699
 30
1392.756103515625
 11
539334.7271
 21
4477658.0127
 31
1392.75
  0
LINE
  5
1CD
330
1F
100
AcDbEntity
  8
KAT_1395
100
AcDbLine
 10
539330.5375
 20
4477681.2782
 30
1391.5
 11
539330.0826
 21
4477680.8521
 31
1391.0
  0
LINE
  5
1CE
330
1F
100
AcDbEntity
  8
KAT_1395
100
AcDbLine
 10
539330.0826
 20
4477680.8521
 30
1391.0
 11
539328.7903
 21
4477680.1909
 31
1390.75
  0
LINE
  5
1CF
330
1F
100
AcDbEntity
  8
KAT_1395
100
AcDbLine
 10
539328.7903
 20
4477680.1909
 30
1390.75
 11
539328.092
 21
4477679.8872
 31
1390.0
  0
LINE
  5
1D0
330
1F
100
AcDbEntity
  8
KAT_1395
100
AcDbLine
 10
539326.8635
 20
4477684.3118
 30
1390.0
 11
539327.5653
 21
4477684.4711
 31
1390.75
  0
LINE
  5
1D1
330
1F
100
AcDbEntity
  8
KAT_1395
100
AcDbLine
 10
539327.5653
 20
4477684.4711
 30
1390.75
 11
539328.6405
 21
4477684.6982
 31
1391.0
  0
LINE
  5
1D2
330
1F
100
AcDbEntity
  8
KAT_1395
100
AcDbLine
 10
539328.6405
 20
4477684.6982
 30
1391.0
 11
539329.4886
 21
4477685.7864
 31
1391.5
  0
LINE
  5
1D3
330
1F
100
AcDbEntity
  8
KAT_1395
100
AcDbLine
 10
539321.0039
 20
4477730.7916
 30
1396.46630859375
 11
539320.3613
 21
4477730.2752
 31
1396.214111328125
  0
LINE
  5
1D4
330
1F
100
AcDbEntity
  8
KAT_1395
100
AcDbLine
 10
539320.3613
 20
4477730.2752
 30
1396.214111328125
 11
539318.6741
 21
4477729.1273
 31
1395.887817382812
  0
LINE
  5
1D5
330
1F
100
AcDbEntity
  8
KAT_1395
100
AcDbLine
 10
539318.6741
 20
4477729.1273
 30
1395.887817382812
 11
539316.4751
 21
4477727.665
 31
1395.53271484375
  0
LINE
  5
1D6
330
1F
100
AcDbEntity
  8
KAT_1395
100
AcDbLine
 10
539313.9085
 20
4477731.8675
 30
1395.420043945312
 11
539315.6123
 21
4477733.0483
 31
1395.66015625
  0
LINE
  5
1D7
330
1F
100
AcDbEntity
  8
KAT_1395
100
AcDbLine
 10
539315.6123
 20
4477733.0483
 30
1395.66015625
 11
539316.2563
 21
4477734.0033
 31
1395.781616210938
  0
LINE
  5
1D8
330
1F
100
AcDbEntity
  8
KAT_1395
100
AcDbLine
 10
539316.2563
 20
4477734.0033
 30
1395.781616210938
 11
539320.0333
 21
4477736.0021
 31
1396.473388671875
  0
LINE
  5
1D9
330
1F
100
AcDbEntity
  8
KAT_1395
100
AcDbLine
 10
539316.4751
 20
4477727.665
 30
1395.53271484375
 11
539314.5554
 21
4477726.0696
 31
1395.563720703125
  0
LINE
  5
1DA
330
1F
100
AcDbEntity
  8
KAT_1395
100
AcDbLine
 10
539326.8635
 20
4477684.3118
 30
1390.0
 11
539324.3427
 21
4477683.1243
 31
1389.5
  0
LINE
  5
1DB
330
1F
100
AcDbEntity
  8
KAT_1395
100
AcDbLine
 10
539324.3427
 20
4477683.1243
 30
1389.5
 11
539325.5793
 21
4477679.028
 31
1389.5
  0
LINE
  5
1DC
330
1F
100
AcDbEntity
  8
KAT_1395
100
AcDbLine
 10
539325.5793
 20
4477679.028
 30
1389.5
 11
539328.092
 21
4477679.8872
 31
1390.0
  0
LINE
  5
1DD
330
1F
100
AcDbEntity
  8
KAT_1395
100
AcDbLine
 10
539313.9085
 20
4477731.8675
 30
1395.420043945312
 11
539311.2014
 21
4477729.3373
 31
1395.719970703125
  0
LINE
  5
1DE
330
1F
100
AcDbEntity
  8
KAT_1395
100
AcDbLine
 10
539311.2014
 20
4477729.3373
 30
1395.719970703125
 11
539311.2653
 21
4477727.8896
 31
1395.719970703125
  0
LINE
  5
1DF
330
1F
100
AcDbEntity
  8
KAT_1395
100
AcDbLine
 10
539311.2653
 20
4477727.8896
 30
1395.719970703125
 11
539309.8153
 21
4477726.9621
 31
1395.719970703125
  0
LINE
  5
1E0
330
1F
100
AcDbEntity
  8
KAT_1395
100
AcDbLine
 10
539309.8153
 20
4477726.9621
 30
1395.719970703125
 11
539312.1503
 21
4477724.5118
 31
1395.719970703125
  0
LINE
  5
1E1
330
1F
100
AcDbEntity
  8
KAT_1395
100
AcDbLine
 10
539312.1503
 20
4477724.5118
 30
1395.719970703125
 11
539314.5554
 21
4477726.0696
 31
1395.563720703125
  0
LINE
  5
1E2
330
1F
100
AcDbEntity
  8
KAT_1395
100
AcDbLine
 10
539334.7833
 20
4477646.5675
 30
1393.39453125
 11
539335.0738
 21
4477644.6234
 31
1393.39453125
  0
LINE
  5
1E3
330
1F
100
AcDbEntity
  8
KAT_1395
100
AcDbLine
 10
539335.0738
 20
4477644.6234
 30
1393.39453125
 11
539335.2628
 21
4477642.4732
 31
1393.394897460938
  0
LINE
  5
1E4
330
1F
100
AcDbEntity
  8
KAT_1395
100
AcDbLine
 10
539335.2628
 20
4477642.4732
 30
1393.394897460938
 11
539335.1969
 21
4477640.1864
 31
1393.594116210938
  0
LINE
  5
1E5
330
1F
100
AcDbEntity
  8
KAT_1395
100
AcDbLine
 10
539339.2877
 20
4477659.4682
 30
1392.630004882812
 11
539339.2685
 21
4477662.0437
 31
1392.630004882812
  0
LINE
  5
1E6
330
1F
100
AcDbEntity
  8
KAT_1395
100
AcDbLine
 10
539339.2685
 20
4477662.0437
 30
1392.630004882812
 11
539339.5218
 21
4477664.2382
 31
1392.630004882812
  0
LINE
  5
1E7
330
1F
100
AcDbEntity
  8
KAT_1395
100
AcDbLine
 10
539339.4203
 20
4477670.2782
 30
1392.630004882812
 11
539339.1144
 21
4477671.1307
 31
1392.630004882812
  0
LINE
  5
1E8
330
1F
100
AcDbEntity
  8
KAT_1395
100
AcDbLine
 10
539339.1144
 20
4477671.1307
 30
1392.630004882812
 11
539339.0515
 21
4477673.2077
 31
1392.630004882812
  0
LINE
  5
1E9
330
1F
100
AcDbEntity
  8
KAT_1395
100
AcDbLine
 10
539339.0515
 20
4477673.2077
 30
1392.630004882812
 11
539338.9037
 21
4477675.9885
 31
1392.349975585938
  0
LINE
  5
1EA
330
1F
100
AcDbEntity
  8
KAT_1395
100
AcDbLine
 10
539339.5218
 20
4477664.2382
 30
1392.630004882812
 11
539340.1949
 21
4477664.545
 31
1392.630004882812
  0
LINE
  5
1EB
330
1F
100
AcDbEntity
  8
KAT_1395
100
AcDbLine
 10
539340.1949
 20
4477664.545
 30
1392.630004882812
 11
539343.5236
 21
4477664.4624
 31
1392.630004882812
  0
LINE
  5
1EC
330
1F
100
AcDbEntity
  8
KAT_1395
100
AcDbLine
 10
539342.3094
 20
4477669.1433
 30
1392.630004882812
 11
539340.2332
 21
4477669.622
 31
1392.630004882812
  0
LINE
  5
1ED
330
1F
100
AcDbEntity
  8
KAT_1395
100
AcDbLine
 10
539340.2332
 20
4477669.622
 30
1392.630004882812
 11
539339.4203
 21
4477670.2782
 31
1392.630004882812
  0
LINE
  5
1EE
330
1F
100
AcDbEntity
  8
KAT_1395
100
AcDbLine
 10
539334.4264
 20
4477624.4183
 30
1393.660034179688
 11
539334.2608
 21
4477621.2529
 31
1393.660034179688
  0
LINE
  5
1EF
330
1F
100
AcDbEntity
  8
KAT_1395
100
AcDbLine
 10
539334.2608
 20
4477621.2529
 30
1393.660034179688
 11
539334.3156
 21
4477618.6496
 31
1393.660034179688
  0
LINE
  5
1F0
330
1F
100
AcDbEntity
  8
KAT_1395
100
AcDbLine
 10
539334.3156
 20
4477618.6496
 30
1393.660034179688
 11
539338.073
 21
4477618.3687
 31
1393.660034179688
  0
LINE
  5
1F1
330
1F
100
AcDbEntity
  8
KAT_1395
100
AcDbLine
 10
539338.073
 20
4477618.3687
 30
1393.660034179688
 11
539338.3067
 21
4477619.7404
 31
1393.660034179688
  0
LINE
  5
1F2
330
1F
100
AcDbEntity
  8
KAT_1395
100
AcDbLine
 10
539338.3067
 20
4477619.7404
 30
1393.660034179688
 11
539338.7374
 21
4477620.6382
 31
1393.660034179688
  0
LINE
  5
1F3
330
1F
100
AcDbEntity
  8
KAT_1395
100
AcDbLine
 10
539334.7833
 20
4477646.5675
 30
1393.39453125
 11
539334.7936
 21
4477647.975
 31
1393.400024414062
  0
LINE
  5
1F4
330
1F
100
AcDbEntity
  8
KAT_1395
100
AcDbLine
 10
539334.7936
 20
4477647.975
 30
1393.400024414062
 11
539333.4895
 21
4477649.0142
 31
1393.400024414062
  0
LINE
  5
1F5
330
1F
100
AcDbEntity
  8
KAT_1395
100
AcDbLine
 10
539332.0353
 20
4477653.8489
 30
1393.400024414062
 11
539334.0424
 21
4477655.1826
 31
1393.400024414062
  0
LINE
  5
1F6
330
1F
100
AcDbEntity
  8
KAT_1395
100
AcDbLine
 10
539334.0424
 20
4477655.1826
 30
1393.400024414062
 11
539334.7271
 21
4477658.0127
 31
1392.75
  0
LINE
  5
1F7
330
1F
100
AcDbEntity
  8
KAT_1395
100
AcDbLine
 10
539339.4497
 20
4477645.5837
 30
1393.39453125
 11
539339.4116
 21
4477647.8329
 31
1393.48388671875
  0
LINE
  5
1F8
330
1F
100
AcDbEntity
  8
KAT_1395
100
AcDbLine
 10
539339.4116
 20
4477647.8329
 30
1393.48388671875
 11
539339.7767
 21
4477649.1303
 31
1393.198120117188
  0
LINE
  5
1F9
330
1F
100
AcDbEntity
  8
KAT_1395
100
AcDbLine
 10
539339.7767
 20
4477649.1303
 30
1393.198120117188
 11
539342.039
 21
4477650.1902
 31
1392.86083984375
  0
LINE
  5
1FA
330
1F
100
AcDbEntity
  8
KAT_1395
100
AcDbLine
 10
539341.511
 20
4477655.3043
 30
1392.79638671875
 11
539339.5368
 21
4477656.9429
 31
1392.733764648438
  0
LINE
  5
1FB
330
1F
100
AcDbEntity
  8
KAT_1395
100
AcDbLine
 10
539339.5368
 20
4477656.9429
 30
1392.733764648438
 11
539339.2877
 21
4477659.4682
 31
1392.630004882812
  0
LINE
  5
1FC
330
1F
100
AcDbEntity
  8
KAT_1395
100
AcDbLine
 10
539341.511
 20
4477655.3043
 30
1392.79638671875
 11
539343.0524
 21
4477654.627
 31
1393.0
  0
LINE
  5
1FD
330
1F
100
AcDbEntity
  8
KAT_1395
100
AcDbLine
 10
539342.3094
 20
4477669.1433
 30
1392.630004882812
 11
539345.1615
 21
4477669.2595
 31
1392.630004882812
  0
LINE
  5
1FE
330
1F
100
AcDbEntity
  8
KAT_1395
100
AcDbLine
 10
539347.9006
 20
4477663.955
 30
1392.630004882812
 11
539346.151
 21
4477664.2964
 31
1392.630004882812
  0
LINE
  5
1FF
330
1F
100
AcDbEntity
  8
KAT_1395
100
AcDbLine
 10
539346.151
 20
4477664.2964
 30
1392.630004882812
 11
539345.523
 21
4477663.6665
 31
1392.630004882812
  0
LINE
  5
200
330
1F
100
AcDbEntity
  8
KAT_1395
100
AcDbLine
 10
539345.523
 20
4477663.6665
 30
1392.630004882812
 11
539343.5236
 21
4477664.4624
 31
1392.630004882812
  0
LINE
  5
201
330
1F
100
AcDbEntity
  8
KAT_1395
100
AcDbLine
 10
539339.8133
 20
4477638.7817
 30
1393.699951171875
 11
539339.4497
 21
4477645.5837
 31
1393.39453125
  0
LINE
  5
202
330
1F
100
AcDbEntity
  8
KAT_1395
100
AcDbLine
 10
539338.7374
 20
4477620.6382
 30
1393.660034179688
 11
539338.9408
 21
4477623.8078
 31
1393.599975585938
  0
LINE
  5
203
330
1F
100
AcDbEntity
  8
KAT_1395
100
AcDbLine
 10
539338.9408
 20
4477623.8078
 30
1393.599975585938
 11
539339.0718
 21
4477627.7503
 31
1393.705688476562
  0
LINE
  5
204
330
1F
100
AcDbEntity
  8
KAT_1395
100
AcDbLine
 10
539345.1615
 20
4477669.2595
 30
1392.630004882812
 11
539348.004
 21
4477669.9056
 31
1393.072021484375
  0
LINE
  5
205
330
1F
100
AcDbEntity
  8
KAT_1395
100
AcDbLine
 10
539348.004
 20
4477669.9056
 30
1393.072021484375
 11
539350.1981
 21
4477670.3143
 31
1393.072021484375
  0
LINE
  5
206
330
1F
100
AcDbEntity
  8
KAT_1395
100
AcDbLine
 10
539350.1981
 20
4477670.3143
 30
1393.072021484375
 11
539350.676
 21
4477670.0782
 31
1393.072021484375
  0
LINE
  5
207
330
1F
100
AcDbEntity
  8
KAT_1395
100
AcDbLine
 10
539350.676
 20
4477670.0782
 30
1393.072021484375
 11
539353.8789
 21
4477670.1014
 31
1393.150024414062
  0
LINE
  5
208
330
1F
100
AcDbEntity
  8
KAT_1395
100
AcDbLine
 10
539353.8789
 20
4477670.1014
 30
1393.150024414062
 11
539356.1124
 21
4477670.0117
 31
1393.260009765625
  0
LINE
  5
209
330
1F
100
AcDbEntity
  8
KAT_1395
100
AcDbLine
 10
539356.9501
 20
4477665.3386
 30
1393.260009765625
 11
539352.6559
 21
4477665.1174
 31
1393.072021484375
  0
LINE
  5
20A
330
1F
100
AcDbEntity
  8
KAT_1395
100
AcDbLine
 10
539352.6559
 20
4477665.1174
 30
1393.072021484375
 11
539348.6909
 21
4477664.7657
 31
1393.072021484375
  0
LINE
  5
20B
330
1F
100
AcDbEntity
  8
KAT_1395
100
AcDbLine
 10
539348.6909
 20
4477664.7657
 30
1393.072021484375
 11
539347.9006
 21
4477663.955
 31
1392.630004882812
  0
LINE
  5
20C
330
1F
100
AcDbEntity
  8
KAT_1395
100
AcDbLine
 10
539356.1124
 20
4477670.0117
 30
1393.260009765625
 11
539357.546
 21
4477669.8198
 31
1393.408325195312
  0
LINE
  5
20D
330
1F
100
AcDbEntity
  8
KAT_1395
100
AcDbLine
 10
539357.546
 20
4477669.8198
 30
1393.408325195312
 11
539359.8968
 21
4477669.7042
 31
1393.483032226562
  0
LINE
  5
20E
330
1F
100
AcDbEntity
  8
KAT_1395
100
AcDbLine
 10
539359.8968
 20
4477669.7042
 30
1393.483032226562
 11
539361.8092
 21
4477669.4546
 31
1393.54345703125
  0
LINE
  5
20F
330
1F
100
AcDbEntity
  8
KAT_1395
100
AcDbLine
 10
539359.5764
 20
4477665.2801
 30
1393.397705078125
 11
539356.9501
 21
4477665.3386
 31
1393.260009765625
  0
LINE
  5
210
330
1F
100
AcDbEntity
  8
KAT_1395
100
AcDbLine
 10
539339.8133
 20
4477638.7817
 30
1393.699951171875
 11
539340.02
 21
4477637.041
 31
1393.699951171875
  0
LINE
  5
211
330
1F
100
AcDbEntity
  8
KAT_1395
100
AcDbLine
 10
539340.02
 20
4477637.041
 30
1393.699951171875
 11
539341.9642
 21
4477635.3506
 31
1393.699951171875
  0
LINE
  5
212
330
1F
100
AcDbEntity
  8
KAT_1395
100
AcDbLine
 10
539341.9642
 20
4477635.3506
 30
1393.699951171875
 11
539343.8381
 21
4477634.3558
 31
1393.699951171875
  0
LINE
  5
213
330
1F
100
AcDbEntity
  8
KAT_1395
100
AcDbLine
 10
539343.7535
 20
4477629.8099
 30
1393.699951171875
 11
539339.7014
 21
4477629.078
 31
1393.699951171875
  0
LINE
  5
214
330
1F
100
AcDbEntity
  8
KAT_1395
100
AcDbLine
 10
539339.7014
 20
4477629.078
 30
1393.699951171875
 11
539339.0718
 21
4477627.7503
 31
1393.705688476562
  0
LINE
  5
215
330
1F
100
AcDbEntity
  8
KAT_1395
100
AcDbLine
 10
539334.4264
 20
4477624.4183
 30
1393.660034179688
 11
539334.1512
 21
4477626.505
 31
1393.699951171875
  0
LINE
  5
216
330
1F
100
AcDbEntity
  8
KAT_1395
100
AcDbLine
 10
539334.4523
 20
4477634.7472
 30
1393.699951171875
 11
539335.1969
 21
4477640.1864
 31
1393.594116210938
  0
LINE
  5
217
330
1F
100
AcDbEntity
  8
KAT_1395
100
AcDbLine
 10
539343.0524
 20
4477654.627
 30
1393.0
 11
539346.494
 21
4477654.549
 31
1393.0
  0
LINE
  5
218
330
1F
100
AcDbEntity
  8
KAT_1395
100
AcDbLine
 10
539346.494
 20
4477654.549
 30
1393.0
 11
539347.6781
 21
4477653.7073
 31
1393.0
  0
LINE
  5
219
330
1F
100
AcDbEntity
  8
KAT_1395
100
AcDbLine
 10
539347.6781
 20
4477653.7073
 30
1393.0
 11
539351.931
 21
4477652.365
 31
1393.0
  0
LINE
  5
21A
330
1F
100
AcDbEntity
  8
KAT_1395
100
AcDbLine
 10
539350.9531
 20
4477647.7777
 30
1393.0
 11
539348.1969
 21
4477648.7805
 31
1393.0
  0
LINE
  5
21B
330
1F
100
AcDbEntity
  8
KAT_1395
100
AcDbLine
 10
539348.1969
 20
4477648.7805
 30
1393.0
 11
539345.572
 21
4477649.2656
 31
1393.0
  0
LINE
  5
21C
330
1F
100
AcDbEntity
  8
KAT_1395
100
AcDbLine
 10
539345.572
 20
4477649.2656
 30
1393.0
 11
539342.039
 21
4477650.1902
 31
1392.86083984375
  0
LINE
  5
21D
330
1F
100
AcDbEntity
  8
KAT_1395
100
AcDbLine
 10
539332.0353
 20
4477653.8489
 30
1393.400024414062
 11
539328.9518
 21
4477653.3567
 31
1393.400024414062
  0
LINE
  5
21E
330
1F
100
AcDbEntity
  8
KAT_1395
100
AcDbLine
 10
539328.9518
 20
4477653.3567
 30
1393.400024414062
 11
539326.9187
 21
4477653.2989
 31
1393.400024414062
  0
LINE
  5
21F
330
1F
100
AcDbEntity
  8
KAT_1395
100
AcDbLine
 10
539327.5516
 20
4477649.0114
 30
1393.400024414062
 11
539330.0825
 21
4477649.0046
 31
1393.400024414062
  0
LINE
  5
220
330
1F
100
AcDbEntity
  8
KAT_1395
100
AcDbLine
 10
539330.0825
 20
4477649.0046
 30
1393.400024414062
 11
539333.4895
 21
4477649.0142
 31
1393.400024414062
  0
LINE
  5
221
330
1F
100
AcDbEntity
  8
KAT_1395
100
AcDbLine
 10
539361.8092
 20
4477669.4546
 30
1393.54345703125
 11
539364.7172
 21
4477668.6438
 31
1393.449951171875
  0
LINE
  5
222
330
1F
100
AcDbEntity
  8
KAT_1395
100
AcDbLine
 10
539364.7172
 20
4477668.6438
 30
1393.449951171875
 11
539364.0126219455
 21
4477665.011504566
 31
1393.449951171875
  0
LINE
  5
223
330
1F
100
AcDbEntity
  8
KAT_1395
100
AcDbLine
 10
539359.5764
 20
4477665.2801
 30
1393.397705078125
 11
539364.0126219455
 21
4477665.011504566
 31
1393.449951171875
  0
LINE
  5
224
330
1F
100
AcDbEntity
  8
KAT_1395
100
AcDbLine
 10
539351.931
 20
4477652.365
 30
1393.0
 11
539355.1373
 21
4477652.1387
 31
1393.0
  0
LINE
  5
225
330
1F
100
AcDbEntity
  8
KAT_1395
100
AcDbLine
 10
539355.1373
 20
4477652.1387
 30
1393.0
 11
539353.6884
 21
4477646.9276
 31
1393.0
  0
LINE
  5
226
330
1F
100
AcDbEntity
  8
KAT_1395
100
AcDbLine
 10
539353.6884
 20
4477646.9276
 30
1393.0
 11
539350.9531
 21
4477647.7777
 31
1393.0
  0
LINE
  5
227
330
1F
100
AcDbEntity
  8
KAT_1395
100
AcDbLine
 10
539343.8381
 20
4477634.3558
 30
1393.699951171875
 11
539347.0428
 21
4477633.6878
 31
1393.699951171875
  0
LINE
  5
228
330
1F
100
AcDbEntity
  8
KAT_1395
100
AcDbLine
 10
539347.0428
 20
4477633.6878
 30
1393.699951171875
 11
539346.3379
 21
4477629.3132
 31
1393.699951171875
  0
LINE
  5
229
330
1F
100
AcDbEntity
  8
KAT_1395
100
AcDbLine
 10
539346.3379
 20
4477629.3132
 30
1393.699951171875
 11
539343.7535
 21
4477629.8099
 31
1393.699951171875
  0
LINE
  5
22A
330
1F
100
AcDbEntity
  8
KAT_1395
100
AcDbLine
 10
539334.4523
 20
4477634.7472
 30
1393.699951171875
 11
539333.3556
 21
4477632.9097
 31
1393.699951171875
  0
LINE
  5
22B
330
1F
100
AcDbEntity
  8
KAT_1395
100
AcDbLine
 10
539326.9187
 20
4477653.2989
 30
1393.400024414062
 11
539323.9222
 21
4477653.1599
 31
1393.400024414062
  0
LINE
  5
22C
330
1F
100
AcDbEntity
  8
KAT_1395
100
AcDbLine
 10
539323.9222
 20
4477653.1599
 30
1393.400024414062
 11
539324.181
 21
4477648.9313
 31
1393.400024414062
  0
LINE
  5
22D
330
1F
100
AcDbEntity
  8
KAT_1395
100
AcDbLine
 10
539324.181
 20
4477648.9313
 30
1393.400024414062
 11
539327.6785920273
 21
4477649.012177339
 31
1425.281982421875
  0
LINE
  5
22E
330
1F
100
AcDbEntity
  8
KAT_1395
100
AcDbLine
 10
539339.9513
 20
4477848.8312
 30
1397.149169921875
 11
539339.6938
 21
4477849.1476
 31
1396.598022460938
  0
LINE
  5
22F
330
1F
100
AcDbEntity
  8
KAT_1395
100
AcDbLine
 10
539339.6938
 20
4477849.1476
 30
1396.598022460938
 11
539338.8957
 21
4477851.6168
 31
1396.598022460938
  0
LINE
  5
230
330
1F
100
AcDbEntity
  8
KAT_1395
100
AcDbLine
 10
539338.8957
 20
4477851.6168
 30
1396.598022460938
 11
539339.1515
 21
4477853.1195
 31
1396.598022460938
  0
LINE
  5
231
330
1F
100
AcDbEntity
  8
KAT_1395
100
AcDbLine
 10
539339.1515
 20
4477853.1195
 30
1396.598022460938
 11
539339.3993
 21
4477854.4553
 31
1396.598022460938
  0
LINE
  5
232
330
1F
100
AcDbEntity
  8
KAT_1395
100
AcDbLine
 10
539339.3993
 20
4477854.4553
 30
1396.598022460938
 11
539339.8299
 21
4477855.6152
 31
1396.598022460938
  0
LINE
  5
233
330
1F
100
AcDbEntity
  8
KAT_1395
100
AcDbLine
 10
539339.8299
 20
4477855.6152
 30
1396.598022460938
 11
539337.3888
 21
4477856.54
 31
1396.598022460938
  0
LINE
  5
234
330
1F
100
AcDbEntity
  8
KAT_1395
100
AcDbLine
 10
539337.3888
 20
4477856.54
 30
1396.598022460938
 11
539335.6232
 21
4477856.3179
 31
1396.598022460938
  0
LINE
  5
235
330
1F
100
AcDbEntity
  8
KAT_1395
100
AcDbLine
 10
539335.6232
 20
4477856.3179
 30
1396.598022460938
 11
539334.7261
 21
4477853.8946
 31
1396.598022460938
  0
LINE
  5
236
330
1F
100
AcDbEntity
  8
KAT_1395
100
AcDbLine
 10
539334.7261
 20
4477853.8946
 30
1396.598022460938
 11
539333.8703
 21
4477851.2595
 31
1396.598022460938
  0
LINE
  5
237
330
1F
100
AcDbEntity
  8
KAT_1395
100
AcDbLine
 10
539333.8703
 20
4477851.2595
 30
1396.598022460938
 11
539332.9836
 21
4477849.8368
 31
1396.598022460938
  0
LINE
  5
238
330
1F
100
AcDbEntity
  8
KAT_1395
100
AcDbLine
 10
539332.9836
 20
4477849.8368
 30
1396.598022460938
 11
539332.0146
 21
4477848.6112
 31
1396.598022460938
  0
LINE
  5
239
330
1F
100
AcDbEntity
  8
KAT_1395
100
AcDbLine
 10
539332.0146
 20
4477848.6112
 30
1396.598022460938
 11
539331.2678
 21
4477848.1284
 31
1396.5
  0
LINE
  5
23A
330
1F
100
AcDbEntity
  8
KAT_1395
100
AcDbLine
 10
539333.3556
 20
4477632.9097
 30
1393.699951171875
 11
539332.8774
 21
4477632.9816
 31
1393.711669921875
  0
LINE
  5
23B
330
1F
100
AcDbEntity
  8
KAT_1395
100
AcDbLine
 10
539332.8774
 20
4477632.9816
 30
1393.711669921875
 11
539330.3739
 21
4477632.2973
 31
1393.83935546875
  0
LINE
  5
23C
330
1F
100
AcDbEntity
  8
KAT_1395
100
AcDbLine
 10
539330.3739
 20
4477632.2973
 30
1393.83935546875
 11
539327.7518
 21
4477632.0515
 31
1393.699951171875
  0
LINE
  5
23D
330
1F
100
AcDbEntity
  8
KAT_1395
100
AcDbLine
 10
539327.7518
 20
4477632.0515
 30
1393.699951171875
 11
539326.7172
 21
4477629.2258
 31
1394.139282226562
  0
LINE
  5
23E
330
1F
100
AcDbEntity
  8
KAT_1395
100
AcDbLine
 10
539326.7172
 20
4477629.2258
 30
1394.139282226562
 11
539325.5124
 21
4477628.4845
 31
1394.090942382812
  0
LINE
  5
23F
330
1F
100
AcDbEntity
  8
KAT_1395
100
AcDbLine
 10
539325.5124
 20
4477628.4845
 30
1394.090942382812
 11
539321.896109636
 21
4477627.46485399
 31
1394.28857421875
  0
LINE
  5
240
330
1F
100
AcDbEntity
  8
KAT_1395
100
AcDbLine
 10
539322.9804
 20
4477622.9174
 30
1394.349975585938
 11
539324.7985
 21
4477623.2825
 31
1394.300048828125
  0
LINE
  5
241
330
1F
100
AcDbEntity
  8
KAT_1395
100
AcDbLine
 10
539324.7985
 20
4477623.2825
 30
1394.300048828125
 11
539326.0458
 21
4477623.1421
 31
1394.150024414062
  0
LINE
  5
242
330
1F
100
AcDbEntity
  8
KAT_1395
100
AcDbLine
 10
539326.0458
 20
4477623.1421
 30
1394.150024414062
 11
539327.5435
 21
4477624.6064
 31
1394.024047851562
  0
LINE
  5
243
330
1F
100
AcDbEntity
  8
KAT_1395
100
AcDbLine
 10
539327.5435
 20
4477624.6064
 30
1394.024047851562
 11
539330.13
 21
4477627.4571
 31
1393.900024414062
  0
LINE
  5
244
330
1F
100
AcDbEntity
  8
KAT_1395
100
AcDbLine
 10
539330.13
 20
4477627.4571
 30
1393.900024414062
 11
539331.8663
 21
4477627.7151
 31
1393.75
  0
LINE
  5
245
330
1F
100
AcDbEntity
  8
KAT_1395
100
AcDbLine
 10
539331.8663
 20
4477627.7151
 30
1393.75
 11
539333.5704
 21
4477627.5539
 31
1393.699951171875
  0
LINE
  5
246
330
1F
100
AcDbEntity
  8
KAT_1395
100
AcDbLine
 10
539333.5704
 20
4477627.5539
 30
1393.699951171875
 11
539334.0503
 21
4477627.1009
 31
1393.760009765625
  0
LINE
  5
247
330
1F
100
AcDbEntity
  8
KAT_1395
100
AcDbLine
 10
539334.0503
 20
4477627.1009
 30
1393.760009765625
 11
539334.1512
 21
4477626.505
 31
1393.699951171875
  0
LINE
  5
248
330
1F
100
AcDbEntity
  8
KAT_1395
100
AcDbLine
 10
539318.722
 20
4477622.1869
 30
1394.400024414062
 11
539321.3991
 21
4477622.6812
 31
1394.380004882812
  0
LINE
  5
249
330
1F
100
AcDbEntity
  8
KAT_1395
100
AcDbLine
 10
539321.3991
 20
4477622.6812
 30
1394.380004882812
 11
539322.9804
 21
4477622.9174
 31
1394.349975585938
  0
LINE
  5
24A
330
1F
100
AcDbEntity
  8
KAT_1395
100
AcDbLine
 10
539321.896109636
 20
4477627.46485399
 30
1394.28857421875
 11
539320.162
 21
4477626.8821
 31
1394.444946289062
  0
LINE
  5
24B
330
1F
100
AcDbEntity
  8
KAT_1395
100
AcDbLine
 10
539320.162
 20
4477626.8821
 30
1394.444946289062
 11
539317.3351
 21
4477627.6823
 31
1394.350341796875
  0
LINE
  5
24C
330
1F
100
AcDbEntity
  8
KAT_1395
100
AcDbLine
 10
539317.3351
 20
4477627.6823
 30
1394.350341796875
 11
539317.0329
 21
4477627.7858
 31
1394.400024414062
  0
LINE
  5
24D
330
1F
100
AcDbEntity
  8
KAT_1395
100
AcDbLine
 10
539317.0329
 20
4477627.7858
 30
1394.400024414062
 11
539315.9463
 21
4477627.42
 31
1394.400024414062
  0
LINE
  5
24E
330
1F
100
AcDbEntity
  8
KAT_1395
100
AcDbLine
 10
539315.9463
 20
4477627.42
 30
1394.400024414062
 11
539313.3071
 21
4477627.6199
 31
1394.400024414062
  0
LINE
  5
24F
330
1F
100
AcDbEntity
  8
KAT_1395
100
AcDbLine
 10
539313.1277
 20
4477622.5612
 30
1394.400024414062
 11
539315.4894
 21
4477622.5396
 31
1394.400024414062
  0
LINE
  5
250
330
1F
100
AcDbEntity
  8
KAT_1395
100
AcDbLine
 10
539315.4894
 20
4477622.5396
 30
1394.400024414062
 11
539318.0099
 21
4477622.28
 31
1394.31005859375
  0
LINE
  5
251
330
1F
100
AcDbEntity
  8
KAT_1395
100
AcDbLine
 10
539318.0099
 20
4477622.28
 30
1394.31005859375
 11
539318.722
 21
4477622.1869
 31
1394.400024414062
  0
LINE
  5
252
330
1F
100
AcDbEntity
  8
KAT_1395
100
AcDbLine
 10
539313.3071
 20
4477627.6199
 30
1394.400024414062
 11
539311.2079
 21
4477628.077
 31
1394.622314453125
  0
LINE
  5
253
330
1F
100
AcDbEntity
  8
KAT_1395
100
AcDbLine
 10
539311.2079
 20
4477628.077
 30
1394.622314453125
 11
539310.2745
 21
4477627.1038
 31
1394.703247070312
  0
LINE
  5
254
330
1F
100
AcDbEntity
  8
KAT_1395
100
AcDbLine
 10
539310.2745
 20
4477627.1038
 30
1394.703247070312
 11
539309.4659
 21
4477626.7579
 31
1394.744873046875
  0
LINE
  5
255
330
1F
100
AcDbEntity
  8
KAT_1395
100
AcDbLine
 10
539309.4659
 20
4477626.7579
 30
1394.744873046875
 11
539308.4278
 21
4477625.0023
 31
1394.769775390625
  0
LINE
  5
256
330
1F
100
AcDbEntity
  8
KAT_1395
100
AcDbLine
 10
539308.4278
 20
4477625.0023
 30
1394.769775390625
 11
539309.6427
 21
4477623.8359
 31
1394.718017578125
  0
LINE
  5
257
330
1F
100
AcDbEntity
  8
KAT_1395
100
AcDbLine
 10
539309.6427
 20
4477623.8359
 30
1394.718017578125
 11
539311.0475
 21
4477623.1838
 31
1394.615844726562
  0
LINE
  5
258
330
1F
100
AcDbEntity
  8
KAT_1395
100
AcDbLine
 10
539311.0475
 20
4477623.1838
 30
1394.615844726562
 11
539311.7221
 21
4477622.3526
 31
1394.601318359375
  0
LINE
  5
259
330
1F
100
AcDbEntity
  8
KAT_1395
100
AcDbLine
 10
539311.7221
 20
4477622.3526
 30
1394.601318359375
 11
539313.1277
 21
4477622.5612
 31
1394.400024414062
  0
TEXT
  5
25A
330
1F
100
AcDbEntity
  8
TEXT_RED
100
AcDbText
 10
539225.894013183
 20
4477765.71837521
 30
0.0
 40
5.0
  1
1395 GR
100
AcDbText
  0
INSERT
  5
261
330
1F
100
AcDbEntity
  8
KAT_1395
100
AcDbBlockReference
  2
162
 10
539234.1612991492
 20
4477758.216355733
 30
1435.623413085938
 41
2.0
 42
2.0
 50
194.6108451531241
  0
INSERT
  5
265
330
1F
100
AcDbEntity
  8
0
100
AcDbBlockReference
  2
0
 10
539194.0525553225
 20
4477771.425478269
 30
0.0
  0
POINT
  5
2C9
330
1F
100
AcDbEntity
  8
INIT_COORD
100
AcDbPoint
 10
539233.5768128715
 20
4477759.988065892
 30
1410.143981933594
  0
LINE
  5
2CB
330
1F
100
AcDbEntity
  8
GEOFENCE
100
AcDbLine
 10
539234.0036413209
 20
4477758.821144133
 30
2871.246826171875
 11
539231.0607727757
 21
4477783.999830171
 31
0.0
  0
LINE
  5
2CC
330
1F
100
AcDbEntity
  8
GEOFENCE
100
AcDbLine
 10
539231.0607727757
 20
4477783.999830171
 30
0.0
 11
539240.2564269725
 21
4477800.735920808
 31
0.0
  0
LINE
  5
2CD
330
1F
100
AcDbEntity
  8
GEOFENCE
100
AcDbLine
 10
539240.2564269725
 20
4477800.735920808
 30
0.0
 11
539272.0733904933
 21
4477820.966360042
 31
0.0
  0
LINE
  5
2CE
330
1F
100
AcDbEntity
  8
GEOFENCE
100
AcDbLine
 10
539272.0733904933
 20
4477820.966360042
 30
0.0
 11
539298.8327442058
 21
4477819.49505537
 31
0.0
  0
LINE
  5
2CF
330
1F
100
AcDbEntity
  8
GEOFENCE
100
AcDbLine
 10
539298.8327442058
 20
4477819.49505537
 30
0.0
 11
539333.8222084246
 21
4477794.896680394
 31
0.0
  0
LINE
  5
2D0
330
1F
100
AcDbEntity
  8
GEOFENCE
100
AcDbLine
 10
539333.8222084246
 20
4477794.896680394
 30
0.0
 11
539342.5580799114
 21
4477774.666241161
 31
0.0
  0
LINE
  5
2D1
330
1F
100
AcDbEntity
  8
GEOFENCE
100
AcDbLine
 10
539342.5580799114
 20
4477774.666241161
 30
0.0
 11
539336.2360676512
 21
4477744.895310698
 31
0.0
  0
LINE
  5
2D2
330
1F
100
AcDbEntity
  8
GEOFENCE
100
AcDbLine
 10
539336.2360676512
 20
4477744.895310698
 30
0.0
 11
539336.2360676512
 21
4477620.066550011
 31
0.0
  0
ENDSEC
  0
SECTION
  2
OBJECTS
  0
DICTIONARY
  5
C
330
0
100
AcDbDictionary
281
     1
  3
ACAD_DETAILVIEWSTYLE
350
2AF
  3
ACAD_GROUP
350
D
  3
ACAD_IMAGE_VARS
350
2B3
  3
ACAD_LAYOUT
350
1A
  3
ACAD_MATERIAL
350
43
  3
ACAD_MLEADERSTYLE
350
6B
  3
ACAD_MLINESTYLE
350
17
  3
ACAD_PLOTSETTINGS
350
19
  3
ACAD_PLOTSTYLENAME
350
E
  3
ACAD_SCALELIST
350
47
  3
ACAD_SECTIONVIEWSTYLE
350
2B0
  3
ACAD_TABLESTYLE
350
69
  3
ACAD_VISUALSTYLE
350
2A
  3
ACDB_RECOMPOSE_DATA
350
2D5
  3
AcDbVariableDictionary
350
26C
  3
APPDATA
350
2B2
  0
SUN
  5
6D
330
29
100
AcDbSun
 90
        1
290
     0
 63
     7
421
 16777215
 40
1.0
291
     1
 91
  2455826
 92
 54000000
292
     0
 70
     2
 71
   256
280
     1
  0
DICTIONARY
  5
2B4
330
2
100
AcDbDictionary
280
     1
281
     1
  3
ACAD_LAYERSTATES
360
2B5
  3
ACLYDICTIONARY
360
2C6
  0
DICTIONARY
  5
2AF
102
{ACAD_REACTORS
330
C
102
}
330
C
100
AcDbDictionary
281
     1
  0
DICTIONARY
  5
D
102
{ACAD_REACTORS
330
C
102
}
330
C
100
AcDbDictionary
281
     1
  0
RASTERVARIABLES
  5
2B3
102
{ACAD_REACTORS
330
C
102
}
330
C
100
AcDbRasterVariables
 90
        0
 70
     1
 71
     1
 72
     3
  0
DICTIONARY
  5
1A
102
{ACAD_REACTORS
330
C
102
}
330
C
100
AcDbDictionary
281
     1
  3
Layout1
350
1E
  3
Layout2
350
26
  3
Model
350
22
  0
DICTIONARY
  5
43
102
{ACAD_REACTORS
330
C
102
}
330
C
100
AcDbDictionary
281
     1
  3
ByBlock
350
45
  3
ByLayer
350
44
  3
Global
350
46
  0
DICTIONARY
  5
6B
102
{ACAD_REACTORS
330
C
102
}
330
C
100
AcDbDictionary
281
     1
  3
Standard
350
6C
  0
DICTIONARY
  5
17
102
{ACAD_REACTORS
330
C
102
}
330
C
100
AcDbDictionary
281
     1
  3
Standard
350
18
  0
DICTIONARY
  5
19
102
{ACAD_REACTORS
330
C
102
}
330
C
100
AcDbDictionary
281
     1
  0
ACDBDICTIONARYWDFLT
  5
E
102
{ACAD_REACTORS
330
C
102
}
330
C
100
AcDbDictionary
281
     1
  3
Normal
350
F
100
AcDbDictionaryWithDefault
340
F
  0
DICTIONARY
  5
47
102
{ACAD_REACTORS
330
C
102
}
330
C
100
AcDbDictionary
281
     1
  3
A0
350
48
  3
A1
350
49
  3
A2
350
4A
  3
A3
350
4B
  3
A4
350
4C
  3
A5
350
4D
  3
A6
350
4E
  3
A7
350
4F
  3
A8
350
50
  3
A9
350
51
  3
B0
350
52
  3
B1
350
53
  3
B2
350
54
  3
B3
350
55
  3
B4
350
56
  3
B5
350
57
  3
B6
350
58
  3
B7
350
59
  3
B8
350
5A
  3
B9
350
5B
  3
C0
350
5C
  3
C1
350
5D
  3
C2
350
5E
  3
C3
350
5F
  3
C4
350
60
  3
C5
350
61
  3
C6
350
62
  3
C7
350
63
  3
C8
350
64
  3
C9
350
65
  3
D0
350
66
  3
D1
350
67
  3
D2
350
68
  0
DICTIONARY
  5
2B0
102
{ACAD_REACTORS
330
C
102
}
330
C
100
AcDbDictionary
281
     1
  0
DICTIONARY
  5
69
102
{ACAD_REACTORS
330
C
102
}
330
C
100
AcDbDictionary
281
     1
  3
Standard
350
6A
  0
DICTIONARY
  5
2A
102
{ACAD_REACTORS
330
C
102
}
330
C
100
AcDbDictionary
281
     1
  3
2dWireframe
350
2F
  3
Basic
350
32
  3
Brighten
350
36
  3
ColorChange
350
3A
  3
Conceptual
350
34
  3
Dim
350
35
  3
EdgeColorOff
350
3D
  3
Facepattern
350
39
  3
Flat
350
2B
  3
FlatWithEdges
350
2C
  3
Gouraud
350
2D
  3
GouraudWithEdges
350
2E
  3
Hidden
350
31
  3
JitterOff
350
3B
  3
Linepattern
350
38
  3
OverhangOff
350
3C
  3
Realistic
350
33
  3
Shaded
350
42
  3
Shaded with edges
350
41
  3
Shades of Gray
350
3E
  3
Sketchy
350
3F
  3
Thicken
350
37
  3
Wireframe
350
30
  3
X-Ray
350
40
  0
XRECORD
  5
2D5
102
{ACAD_REACTORS
330
C
102
}
330
C
100
AcDbXrecord
280
     1
 90
        1
330
6A
  0
DICTIONARY
  5
26C
102
{ACAD_REACTORS
330
C
102
}
330
C
100
AcDbDictionary
281
     1
  3
CANNOSCALE
350
26D
  3
CMLEADERSTYLE
350
2AE
  3
CTABLESTYLE
350
2AD
  3
MSLTSCALE
350
26E
  3
SECTIONTHICKNESSINC
350
2B1
  3
XCLIPFRAME
350
26F
  0
DICTIONARY
  5
2B2
102
{ACAD_REACTORS
330
C
102
}
330
C
100
AcDbDictionary
281
     1
  0
DICTIONARY
  5
2B5
102
{ACAD_REACTORS
330
2B4
102
}
330
2B4
100
AcDbDictionary
281
     1
  0
DICTIONARY
  5
2C6
102
{ACAD_REACTORS
330
2B4
102
}
330
2B4
100
AcDbDictionary
281
     1
1001
ACAD
1000
<All
  0
LAYOUT
  5
1E
102
{ACAD_REACTORS
330
1A
102
}
330
1A
100
AcDbPlotSettings
  1

  2
none_device
  4

  6

 40
0.0
 41
0.0
 42
0.0
 43
0.0
 44
0.0
 45
0.0
 46
0.0
 47
0.0
 48
0.0
 49
0.0
140
0.0
141
0.0
142
1.0
143
1.0
 70
   688
 72
     1
 73
     0
 74
     5
  7

 75
    16
 76
     0
 77
     2
 78
   300
147
1.0
148
0.0
149
0.0
100
AcDbLayout
  1
Layout1
 70
     1
 71
     1
 10
0.0
 20
0.0
 11
420.0
 21
297.0
 12
0.0
 22
0.0
 32
0.0
 14
1.000000000000000E+20
 24
1.000000000000000E+20
 34
1.000000000000000E+20
 15
-1.000000000000000E+20
 25
-1.000000000000000E+20
 35
-1.000000000000000E+20
146
0.0
 13
0.0
 23
0.0
 33
0.0
 16
1.0
 26
0.0
 36
0.0
 17
0.0
 27
1.0
 37
0.0
 76
     0
330
1B
  0
LAYOUT
  5
26
102
{ACAD_REACTORS
330
1A
102
}
330
1A
100
AcDbPlotSettings
  1

  2
none_device
  4

  6

 40
0.0
 41
0.0
 42
0.0
 43
0.0
 44
0.0
 45
0.0
 46
0.0
 47
0.0
 48
0.0
 49
0.0
140
0.0
141
0.0
142
1.0
143
1.0
 70
   688
 72
     1
 73
     0
 74
     5
  7

 75
    16
 76
     0
 77
     2
 78
   300
147
1.0
148
0.0
149
0.0
100
AcDbLayout
  1
Layout2
 70
     1
 71
     2
 10
0.0
 20
0.0
 11
0.0
 21
0.0
 12
0.0
 22
0.0
 32
0.0
 14
0.0
 24
0.0
 34
0.0
 15
0.0
 25
0.0
 35
0.0
146
0.0
 13
0.0
 23
0.0
 33
0.0
 16
1.0
 26
0.0
 36
0.0
 17
0.0
 27
1.0
 37
0.0
 76
     0
330
23
  0
LAYOUT
  5
22
102
{ACAD_REACTORS
330
1A
102
}
330
1A
100
AcDbPlotSettings
  1

  2
none_device
  4
Letter_(8.50_x_11.00_Inches)
  6

 40
6.35
 41
6.35
 42
6.35000508
 43
6.35000508
 44
215.9
 45
279.4
 46
0.0
 47
0.0
 48
0.0
 49
0.0
140
0.0
141
0.0
142
1.0
143
1.0
 70
  1712
 72
     1
 73
     0
 74
     0
  7

 75
     0
 76
     0
 77
     2
 78
   300
147
1.0
148
0.0
149
0.0
100
AcDbLayout
  1
Model
 70
     1
 71
     0
 10
0.0
 20
0.0
 11
420.0
 21
297.0
 12
0.0
 22
0.0
 32
0.0
 14
539226.7598790488
 24
4477618.3687
 34
0.0
 15
539364.7172
 25
4477860.136168185
 35
2871.246826171875
146
0.0
 13
0.0
 23
0.0
 33
0.0
 16
1.0
 26
0.0
 36
0.0
 17
0.0
 27
1.0
 37
0.0
 76
     0
330
1F
331
29
  0
MATERIAL
  5
45
102
{ACAD_REACTORS
330
43
102
}
330
43
100
AcDbMaterial
  1
ByBlock
 72
     1
 94
      127
  0
MATERIAL
  5
44
102
{ACAD_REACTORS
330
43
102
}
330
43
100
AcDbMaterial
  1
ByLayer
 72
     1
 94
      127
  0
MATERIAL
  5
46
102
{ACAD_REACTORS
330
43
102
}
330
43
100
AcDbMaterial
  1
Global
 72
     1
 94
      127
  0
MLEADERSTYLE
  5
6C
102
{ACAD_REACTORS
330
6B
102
}
330
6B
100
AcDbMLeaderStyle
179
     2
170
     2
171
     1
172
     0
 90
        2
 40
0.0
 41
0.0
173
     1
 91
-1056964608
340
14
 92
       -2
290
     1
 42
2.0
291
     1
 43
8.0
  3
Standard
341
0
 44
4.0
300

342
11
174
     1
178
     6
175
     1
176
     0
 93
-1056964608
 45
4.0
292
     0
297
     0
 46
4.0
343
0
 94
-1056964608
 47
1.0
 49
1.0
140
1.0
293
     1
141
0.0
294
     1
177
     0
142
1.0
295
     0
296
     0
143
3.75
271
     0
272
     9
273
     9
  0
MLINESTYLE
  5
18
102
{ACAD_REACTORS
330
17
102
}
330
17
100
AcDbMlineStyle
  2
Standard
 70
     0
  3

 62
   256
 51
90.0
 52
90.0
 71
     2
 49
0.5
 62
   256
  6
BYLAYER
 49
-0.5
 62
   256
  6
BYLAYER
  0
ACDBPLACEHOLDER
  5
F
102
{ACAD_REACTORS
330
E
102
}
330
E
  0
SCALE
  5
48
102
{ACAD_REACTORS
330
47
102
}
330
47
100
AcDbScale
 70
     0
300
1:1
140
1.0
141
1.0
290
     1
  0
SCALE
  5
49
102
{ACAD_REACTORS
330
47
102
}
330
47
100
AcDbScale
 70
     0
300
1:2
140
1.0
141
2.0
290
     0
  0
SCALE
  5
4A
102
{ACAD_REACTORS
330
47
102
}
330
47
100
AcDbScale
 70
     0
300
1:4
140
1.0
141
4.0
290
     0
  0
SCALE
  5
4B
102
{ACAD_REACTORS
330
47
102
}
330
47
100
AcDbScale
 70
     0
300
1:5
140
1.0
141
5.0
290
     0
  0
SCALE
  5
4C
102
{ACAD_REACTORS
330
47
102
}
330
47
100
AcDbScale
 70
     0
300
1:8
140
1.0
141
8.0
290
     0
  0
SCALE
  5
4D
102
{ACAD_REACTORS
330
47
102
}
330
47
100
AcDbScale
 70
     0
300
1:10
140
1.0
141
10.0
290
     0
  0
SCALE
  5
4E
102
{ACAD_REACTORS
330
47
102
}
330
47
100
AcDbScale
 70
     0
300
1:16
140
1.0
141
16.0
290
     0
  0
SCALE
  5
4F
102
{ACAD_REACTORS
330
47
102
}
330
47
100
AcDbScale
 70
     0
300
1:20
140
1.0
141
20.0
290
     0
  0
SCALE
  5
50
102
{ACAD_REACTORS
330
47
102
}
330
47
100
AcDbScale
 70
     0
300
1:30
140
1.0
141
30.0
290
     0
  0
SCALE
  5
51
102
{ACAD_REACTORS
330
47
102
}
330
47
100
AcDbScale
 70
     0
300
1:40
140
1.0
141
40.0
290
     0
  0
SCALE
  5
52
102
{ACAD_REACTORS
330
47
102
}
330
47
100
AcDbScale
 70
     0
300
1:50
140
1.0
141
50.0
290
     0
  0
SCALE
  5
53
102
{ACAD_REACTORS
330
47
102
}
330
47
100
AcDbScale
 70
     0
300
1:100
140
1.0
141
100.0
290
     0
  0
SCALE
  5
54
102
{ACAD_REACTORS
330
47
102
}
330
47
100
AcDbScale
 70
     0
300
2:1
140
2.0
141
1.0
290
     0
  0
SCALE
  5
55
102
{ACAD_REACTORS
330
47
102
}
330
47
100
AcDbScale
 70
     0
300
4:1
140
4.0
141
1.0
290
     0
  0
SCALE
  5
56
102
{ACAD_REACTORS
330
47
102
}
330
47
100
AcDbScale
 70
     0
300
8:1
140
8.0
141
1.0
290
     0
  0
SCALE
  5
57
102
{ACAD_REACTORS
330
47
102
}
330
47
100
AcDbScale
 70
     0
300
10:1
140
10.0
141
1.0
290
     0
  0
SCALE
  5
58
102
{ACAD_REACTORS
330
47
102
}
330
47
100
AcDbScale
 70
     0
300
100:1
140
100.0
141
1.0
290
     0
  0
SCALE
  5
59
102
{ACAD_REACTORS
330
47
102
}
330
47
100
AcDbScale
 70
     0
300
1/128" = 1'-0"
140
0.0078125
141
12.0
290
     0
  0
SCALE
  5
5A
102
{ACAD_REACTORS
330
47
102
}
330
47
100
AcDbScale
 70
     0
300
1/64" = 1'-0"
140
0.015625
141
12.0
290
     0
  0
SCALE
  5
5B
102
{ACAD_REACTORS
330
47
102
}
330
47
100
AcDbScale
 70
     0
300
1/32" = 1'-0"
140
0.03125
141
12.0
290
     0
  0
SCALE
  5
5C
102
{ACAD_REACTORS
330
47
102
}
330
47
100
AcDbScale
 70
     0
300
1/16" = 1'-0"
140
0.0625
141
12.0
290
     0
  0
SCALE
  5
5D
102
{ACAD_REACTORS
330
47
102
}
330
47
100
AcDbScale
 70
     0
300
3/32" = 1'-0"
140
0.09375
141
12.0
290
     0
  0
SCALE
  5
5E
102
{ACAD_REACTORS
330
47
102
}
330
47
100
AcDbScale
 70
     0
300
1/8" = 1'-0"
140
0.125
141
12.0
290
     0
  0
SCALE
  5
5F
102
{ACAD_REACTORS
330
47
102
}
330
47
100
AcDbScale
 70
     0
300
3/16" = 1'-0"
140
0.1875
141
12.0
290
     0
  0
SCALE
  5
60
102
{ACAD_REACTORS
330
47
102
}
330
47
100
AcDbScale
 70
     0
300
1/4" = 1'-0"
140
0.25
141
12.0
290
     0
  0
SCALE
  5
61
102
{ACAD_REACTORS
330
47
102
}
330
47
100
AcDbScale
 70
     0
300
3/8" = 1'-0"
140
0.375
141
12.0
290
     0
  0
SCALE
  5
62
102
{ACAD_REACTORS
330
47
102
}
330
47
100
AcDbScale
 70
     0
300
1/2" = 1'-0"
140
0.5
141
12.0
290
     0
  0
SCALE
  5
63
102
{ACAD_REACTORS
330
47
102
}
330
47
100
AcDbScale
 70
     0
300
3/4" = 1'-0"
140
0.75
141
12.0
290
     0
  0
SCALE
  5
64
102
{ACAD_REACTORS
330
47
102
}
330
47
100
AcDbScale
 70
     0
300
1" = 1'-0"
140
1.0
141
12.0
290
     0
  0
SCALE
  5
65
102
{ACAD_REACTORS
330
47
102
}
330
47
100
AcDbScale
 70
     0
300
1-1/2" = 1'-0"
140
1.5
141
12.0
290
     0
  0
SCALE
  5
66
102
{ACAD_REACTORS
330
47
102
}
330
47
100
AcDbScale
 70
     0
300
3" = 1'-0"
140
3.0
141
12.0
290
     0
  0
SCALE
  5
67
102
{ACAD_REACTORS
330
47
102
}
330
47
100
AcDbScale
 70
     0
300
6" = 1'-0"
140
6.0
141
12.0
290
     0
  0
SCALE
  5
68
102
{ACAD_REACTORS
330
47
102
}
330
47
100
AcDbScale
 70
     0
300
1'-0" = 1'-0"
140
12.0
141
12.0
290
     0
  0
TABLESTYLE
  5
6A
102
{ACAD_REACTORS
330
69
102
}
102
{ACAD_XDICTIONARY
360
2D3
102
}
330
69
100
AcDbTableStyle
  3
Standard
 70
     0
 71
     0
 40
0.06
 41
0.06
280
     0
281
     0
  7
Standard
140
4.5
170
     2
 62
     0
 63
   257
283
     0
 90
        4
 91
        0
  1

274
    -2
284
     1
 64
     0
275
    -2
285
     1
 65
     0
276
    -2
286
     1
 66
     0
277
    -2
287
     1
 67
     0
278
    -2
288
     1
 68
     0
279
    -2
289
     1
 69
     0
  7
Standard
140
6.0
170
     5
 62
     0
 63
   257
283
     0
 90
        4
 91
        0
  1

274
    -2
284
     1
 64
     0
275
    -2
285
     1
 65
     0
276
    -2
286
     1
 66
     0
277
    -2
287
     1
 67
     0
278
    -2
288
     1
 68
     0
279
    -2
289
     1
 69
     0
  7
Standard
140
4.5
170
     5
 62
     0
 63
   257
283
     0
 90
        4
 91
        0
  1

274
    -2
284
     1
 64
     0
275
    -2
285
     1
 65
     0
276
    -2
286
     1
 66
     0
277
    -2
287
     1
 67
     0
278
    -2
288
     1
 68
     0
279
    -2
289
     1
 69
     0
  0
VISUALSTYLE
  5
2F
102
{ACAD_REACTORS
330
2A
102
}
330
2A
100
AcDbVisualStyle
  2
2dWireframe
 70
     4
177
     2
291
     0
 71
     0
176
     1
 72
     2
176
     1
 73
     0
176
     1
 90
        0
176
     1
 40
0.6
176
     1
 41
30.0
176
     1
 62
     5
 63
     7
421
 16777215
176
     1
 74
     1
176
     1
 91
        4
176
     1
 64
     7
176
     1
 65
   257
176
     1
 75
     1
176
     1
175
     1
176
     1
 42
1.0
176
     1
 92
        0
176
     1
 66
   257
176
     1
 43
1.0
176
     1
 76
     1
176
     1
 77
     6
176
     1
 78
     2
176
     1
 67
     7
176
     1
 79
     5
176
     1
170
     0
176
     1
171
     0
176
     1
290
     0
176
     1
 93
        1
176
     1
 44
0.0
176
     1
173
     0
176
     1
  0
VISUALSTYLE
  5
32
102
{ACAD_REACTORS
330
2A
102
}
330
2A
100
AcDbVisualStyle
  2
Basic
 70
     7
177
     2
291
     1
 71
     1
176
     1
 72
     0
176
     1
 73
     1
176
     1
 90
        0
176
     1
 40
0.6
176
     1
 41
30.0
176
     1
 62
     5
 63
     7
421
 16777215
176
     1
 74
     0
176
     1
 91
        4
176
     1
 64
     7
176
     1
 65
   257
176
     1
 75
     1
176
     1
175
     1
176
     1
 42
1.0
176
     1
 92
        8
176
     1
 66
     7
176
     1
 43
1.0
176
     1
 76
     1
176
     1
 77
     6
176
     1
 78
     2
176
     1
 67
     7
176
     1
 79
     5
176
     1
170
     0
176
     1
171
     0
176
     1
290
     0
176
     1
 93
        1
176
     1
 44
0.0
176
     1
173
     0
176
     1
  0
VISUALSTYLE
  5
36
102
{ACAD_REACTORS
330
2A
102
}
330
2A
100
AcDbVisualStyle
  2
Brighten
 70
    12
177
     2
291
     1
 71
     2
176
     1
 72
     2
176
     1
 73
     0
176
     1
 90
        0
176
     1
 40
0.6
176
     1
 41
30.0
176
     1
 62
     5
 63
     7
421
 16777215
176
     1
 74
     1
176
     1
 91
        4
176
     1
 64
     7
176
     1
 65
   257
176
     1
 75
     1
176
     1
175
     1
176
     1
 42
1.0
176
     1
 92
        8
176
     1
 66
     7
176
     1
 43
1.0
176
     1
 76
     1
176
     1
 77
     6
176
     1
 78
     2
176
     1
 67
     7
176
     1
 79
     5
176
     1
170
     0
176
     1
171
     0
176
     1
290
     0
176
     1
 93
        1
176
     1
 44
50.0
176
     1
173
     0
176
     1
  0
VISUALSTYLE
  5
3A
102
{ACAD_REACTORS
330
2A
102
}
330
2A
100
AcDbVisualStyle
  2
ColorChange
 70
    16
177
     2
291
     1
 71
     2
176
     1
 72
     2
176
     1
 73
     3
176
     1
 90
        0
176
     1
 40
0.6
176
     1
 41
30.0
176
     1
 62
     5
 63
     8
421
  8421504
176
     1
 74
     1
176
     1
 91
        4
176
     1
 64
     7
176
     1
 65
   257
176
     1
 75
     1
176
     1
175
     1
176
     1
 42
1.0
176
     1
 92
        8
176
     1
 66
     8
424
  8421504
176
     1
 43
1.0
176
     1
 76
     1
176
     1
 77
     6
176
     1
 78
     2
176
     1
 67
     7
176
     1
 79
     5
176
     1
170
     0
176
     1
171
     0
176
     1
290
     0
176
     1
 93
        1
176
     1
 44
0.0
176
     1
173
     0
176
     1
  0
VISUALSTYLE
  5
34
102
{ACAD_REACTORS
330
2A
102
}
330
2A
100
AcDbVisualStyle
  2
Conceptual
 70
     9
177
     2
291
     0
 71
     3
176
     1
 72
     2
176
     1
 73
     0
176
     1
 90
        0
176
     1
 40
0.6
176
     1
 41
30.0
176
     1
 62
     5
 63
     7
421
 16777215
176
     1
 74
     2
176
     1
 91
        2
176
     1
 64
     7
176
     1
 65
   257
176
     1
 75
     1
176
     1
175
     1
176
     1
 42
179.0
176
     1
 92
        8
176
     1
 66
     7
176
     1
 43
1.0
176
     1
 76
     1
176
     1
 77
     6
176
     1
 78
     2
176
     1
 67
     7
176
     1
 79
     3
176
     1
170
     0
176
     1
171
     0
176
     1
290
     0
176
     1
 93
        1
176
     1
 44
0.0
176
     1
173
     0
176
     1
  0
VISUALSTYLE
  5
35
102
{ACAD_REACTORS
330
2A
102
}
330
2A
100
AcDbVisualStyle
  2
Dim
 70
    11
177
     2
291
     1
 71
     2
176
     1
 72
     2
176
     1
 73
     0
176
     1
 90
        0
176
     1
 40
0.6
176
     1
 41
30.0
176
     1
 62
     5
 63
     7
421
 16777215
176
     1
 74
     1
176
     1
 91
        4
176
     1
 64
     7
176
     1
 65
   257
176
     1
 75
     1
176
     1
175
     1
176
     1
 42
1.0
176
     1
 92
        8
176
     1
 66
     7
176
     1
 43
1.0
176
     1
 76
     1
176
     1
 77
     6
176
     1
 78
     2
176
     1
 67
     7
176
     1
 79
     5
176
     1
170
     0
176
     1
171
     0
176
     1
290
     0
176
     1
 93
        1
176
     1
 44
-50.0
176
     1
173
     0
176
     1
  0
VISUALSTYLE
  5
3D
102
{ACAD_REACTORS
330
2A
102
}
330
2A
100
AcDbVisualStyle
  2
EdgeColorOff
 70
    22
177
     2
291
     1
 71
     2
176
     0
 72
     2
176
     0
 73
     0
176
     0
 90
        0
176
     0
 40
0.6
176
     0
 41
30.0
176
     0
 62
     5
 63
     7
421
 16777215
176
     0
 74
     1
176
     0
 91
        4
176
     0
 64
     7
176
     0
 65
   257
176
     0
 75
     1
176
     0
175
     1
176
     0
 42
1.0
176
     0
 92
        8
176
     2
 66
     7
176
     0
 43
1.0
176
     0
 76
     1
176
     0
 77
     6
176
     0
 78
     2
176
     0
 67
     7
176
     0
 79
     5
176
     0
170
     0
176
     0
171
     0
176
     0
290
     0
176
     0
 93
        1
176
     0
 44
0.0
176
     0
173
     0
176
     0
  0
VISUALSTYLE
  5
39
102
{ACAD_REACTORS
330
2A
102
}
330
2A
100
AcDbVisualStyle
  2
Facepattern
 70
    15
177
     2
291
     1
 71
     2
176
     1
 72
     2
176
     1
 73
     0
176
     1
 90
        0
176
     1
 40
0.6
176
     1
 41
30.0
176
     1
 62
     5
 63
     7
421
 16777215
176
     1
 74
     1
176
     1
 91
        4
176
     1
 64
     7
176
     1
 65
   257
176
     1
 75
     1
176
     1
175
     1
176
     1
 42
1.0
176
     1
 92
        8
176
     1
 66
     7
176
     1
 43
1.0
176
     1
 76
     1
176
     1
 77
     6
176
     1
 78
     2
176
     1
 67
     7
176
     1
 79
     5
176
     1
170
     0
176
     1
171
     0
176
     1
290
     0
176
     1
 93
        1
176
     1
 44
0.0
176
     1
173
     0
176
     1
  0
VISUALSTYLE
  5
2B
102
{ACAD_REACTORS
330
2A
102
}
330
2A
100
AcDbVisualStyle
  2
Flat
 70
     0
177
     2
291
     1
 71
     2
176
     1
 72
     1
176
     1
 73
     1
176
     1
 90
        2
176
     1
 40
0.6
176
     1
 41
30.0
176
     1
 62
     5
 63
     7
421
 16777215
176
     1
 74
     0
176
     1
 91
        0
176
     1
 64
     7
176
     1
 65
   257
176
     1
 75
     1
176
     1
175
     1
176
     1
 42
1.0
176
     1
 92
        8
176
     1
 66
     7
176
     1
 43
1.0
176
     1
 76
     1
176
     1
 77
     6
176
     1
 78
     2
176
     1
 67
     7
176
     1
 79
     5
176
     1
170
     0
176
     1
171
     0
176
     1
290
     0
176
     1
 93
       13
176
     1
 44
0.0
176
     1
173
     0
176
     1
  0
VISUALSTYLE
  5
2C
102
{ACAD_REACTORS
330
2A
102
}
330
2A
100
AcDbVisualStyle
  2
FlatWithEdges
 70
     1
177
     2
291
     1
 71
     2
176
     1
 72
     1
176
     1
 73
     1
176
     1
 90
        2
176
     1
 40
0.6
176
     1
 41
30.0
176
     1
 62
     5
 63
     7
421
 16777215
176
     1
 74
     1
176
     1
 91
        0
176
     1
 64
     7
176
     1
 65
   257
176
     1
 75
     1
176
     1
175
     1
176
     1
 42
1.0
176
     1
 92
        0
176
     1
 66
   257
176
     1
 43
1.0
176
     1
 76
     1
176
     1
 77
     6
176
     1
 78
     2
176
     1
 67
     7
176
     1
 79
     5
176
     1
170
     0
176
     1
171
     0
176
     1
290
     0
176
     1
 93
       13
176
     1
 44
0.0
176
     1
173
     0
176
     1
  0
VISUALSTYLE
  5
2D
102
{ACAD_REACTORS
330
2A
102
}
330
2A
100
AcDbVisualStyle
  2
Gouraud
 70
     2
177
     2
291
     1
 71
     2
176
     1
 72
     2
176
     1
 73
     1
176
     1
 90
        2
176
     1
 40
0.6
176
     1
 41
30.0
176
     1
 62
     5
 63
     7
421
 16777215
176
     1
 74
     0
176
     1
 91
        0
176
     1
 64
     7
176
     1
 65
   257
176
     1
 75
     1
176
     1
175
     1
176
     1
 42
1.0
176
     1
 92
        0
176
     1
 66
     7
176
     1
 43
1.0
176
     1
 76
     1
176
     1
 77
     6
176
     1
 78
     2
176
     1
 67
     7
176
     1
 79
     5
176
     1
170
     0
176
     1
171
     0
176
     1
290
     0
176
     1
 93
       13
176
     1
 44
0.0
176
     1
173
     0
176
     1
  0
VISUALSTYLE
  5
2E
102
{ACAD_REACTORS
330
2A
102
}
330
2A
100
AcDbVisualStyle
  2
GouraudWithEdges
 70
     3
177
     2
291
     1
 71
     2
176
     1
 72
     2
176
     1
 73
     1
176
     1
 90
        2
176
     1
 40
0.6
176
     1
 41
30.0
176
     1
 62
     5
 63
     7
421
 16777215
176
     1
 74
     1
176
     1
 91
        0
176
     1
 64
     7
176
     1
 65
   257
176
     1
 75
     1
176
     1
175
     1
176
     1
 42
1.0
176
     1
 92
        0
176
     1
 66
   257
176
     1
 43
1.0
176
     1
 76
     1
176
     1
 77
     6
176
     1
 78
     2
176
     1
 67
     7
176
     1
 79
     5
176
     1
170
     0
176
     1
171
     0
176
     1
290
     0
176
     1
 93
       13
176
     1
 44
0.0
176
     1
173
     0
176
     1
  0
VISUALSTYLE
  5
31
102
{ACAD_REACTORS
330
2A
102
}
330
2A
100
AcDbVisualStyle
  2
Hidden
 70
     6
177
     2
291
     0
 71
     1
176
     1
 72
     2
176
     1
 73
     2
176
     1
 90
        0
176
     1
 40
0.6
176
     1
 41
30.0
176
     1
 62
     5
 63
     7
421
 16777215
176
     1
 74
     2
176
     1
 91
        2
176
     1
 64
     7
176
     1
 65
   257
176
     1
 75
     2
176
     1
175
     1
176
     1
 42
40.0
176
     1
 92
        0
176
     1
 66
   257
176
     1
 43
1.0
176
     1
 76
     1
176
     1
 77
     6
176
     1
 78
     2
176
     1
 67
     7
176
     1
 79
     3
176
     1
170
     0
176
     1
171
     0
176
     1
290
     0
176
     1
 93
        1
176
     1
 44
0.0
176
     1
173
     0
176
     1
  0
VISUALSTYLE
  5
3B
102
{ACAD_REACTORS
330
2A
102
}
330
2A
100
AcDbVisualStyle
  2
JitterOff
 70
    20
177
     2
291
     1
 71
     2
176
     0
 72
     2
176
     0
 73
     0
176
     0
 90
        0
176
     0
 40
0.6
176
     0
 41
30.0
176
     0
 62
     5
 63
     7
421
 16777215
176
     0
 74
     1
176
     0
 91
        4
176
     0
 64
     7
176
     0
 65
   257
176
     0
 75
     1
176
     0
175
     1
176
     0
 42
1.0
176
     0
 92
       10
176
     2
 66
     7
176
     0
 43
1.0
176
     0
 76
     1
176
     0
 77
     6
176
     0
 78
     2
176
     0
 67
     7
176
     0
 79
     5
176
     0
170
     0
176
     0
171
     0
176
     0
290
     0
176
     0
 93
        1
176
     0
 44
0.0
176
     0
173
     0
176
     0
  0
VISUALSTYLE
  5
38
102
{ACAD_REACTORS
330
2A
102
}
330
2A
100
AcDbVisualStyle
  2
Linepattern
 70
    14
177
     2
291
     1
 71
     2
176
     1
 72
     2
176
     1
 73
     0
176
     1
 90
        0
176
     1
 40
0.6
176
     1
 41
30.0
176
     1
 62
     5
 63
     7
421
 16777215
176
     1
 74
     1
176
     1
 91
        4
176
     1
 64
     7
176
     1
 65
   257
176
     1
 75
     7
176
     1
175
     7
176
     1
 42
1.0
176
     1
 92
        8
176
     1
 66
     7
176
     1
 43
1.0
176
     1
 76
     1
176
     1
 77
     6
176
     1
 78
     2
176
     1
 67
     7
176
     1
 79
     5
176
     1
170
     0
176
     1
171
     0
176
     1
290
     0
176
     1
 93
        1
176
     1
 44
0.0
176
     1
173
     0
176
     1
  0
VISUALSTYLE
  5
3C
102
{ACAD_REACTORS
330
2A
102
}
330
2A
100
AcDbVisualStyle
  2
OverhangOff
 70
    21
177
     2
291
     1
 71
     2
176
     0
 72
     2
176
     0
 73
     0
176
     0
 90
        0
176
     0
 40
0.6
176
     0
 41
30.0
176
     0
 62
     5
 63
     7
421
 16777215
176
     0
 74
     1
176
     0
 91
        4
176
     0
 64
     7
176
     0
 65
   257
176
     0
 75
     1
176
     0
175
     1
176
     0
 42
1.0
176
     0
 92
        9
176
     2
 66
     7
176
     0
 43
1.0
176
     0
 76
     1
176
     0
 77
     6
176
     0
 78
     2
176
     0
 67
     7
176
     0
 79
     5
176
     0
170
     0
176
     0
171
     0
176
     0
290
     0
176
     0
 93
        1
176
     0
 44
0.0
176
     0
173
     0
176
     0
  0
VISUALSTYLE
  5
33
102
{ACAD_REACTORS
330
2A
102
}
330
2A
100
AcDbVisualStyle
  2
Realistic
 70
     8
177
     2
291
     0
 71
     2
176
     1
 72
     3
176
     1
 73
     0
176
     1
 90
        2
176
     1
 40
0.6
176
     1
 41
30.0
176
     1
 62
     5
 63
     7
421
 16777215
176
     1
 74
     0
176
     1
 91
        0
176
     1
 64
     7
176
     1
 65
   257
176
     1
 75
     1
176
     1
175
     1
176
     1
 42
1.0
176
     1
 92
        8
176
     1
 66
   257
176
     1
 43
1.0
176
     1
 76
     1
176
     1
 77
     6
176
     1
 78
     2
176
     1
 67
     7
176
     1
 79
     3
176
     1
170
     0
176
     1
171
     0
176
     1
290
     0
176
     1
 93
       13
176
     1
 44
0.0
176
     1
173
     0
176
     1
  0
VISUALSTYLE
  5
42
102
{ACAD_REACTORS
330
2A
102
}
330
2A
100
AcDbVisualStyle
  2
Shaded
 70
    27
177
     2
291
     0
 71
     2
176
     1
 72
     2
176
     1
 73
     1
176
     1
 90
        2
176
     1
 40
0.6
176
     1
 41
30.0
176
     1
 62
     5
 63
     7
421
 16777215
176
     1
 74
     0
176
     1
 91
        4
176
     1
 64
     7
176
     1
 65
   257
176
     1
 75
     1
176
     1
175
     1
176
     1
 42
1.0
176
     1
 92
        8
176
     1
 66
   257
176
     1
 43
1.0
176
     1
 76
     1
176
     1
 77
     6
176
     1
 78
     2
176
     1
 67
     8
425
  7895160
176
     1
 79
     3
176
     1
170
     0
176
     1
171
     0
176
     1
290
     0
176
     1
 93
        5
176
     1
 44
0.0
176
     1
173
     0
176
     1
  0
VISUALSTYLE
  5
41
102
{ACAD_REACTORS
330
2A
102
}
330
2A
100
AcDbVisualStyle
  2
Shaded with edges
 70
    26
177
     2
291
     0
 71
     2
176
     1
 72
     2
176
     1
 73
     1
176
     1
 90
        2
176
     1
 40
0.6
176
     1
 41
30.0
176
     1
 62
     5
 63
     7
421
 16777215
176
     1
 74
     1
176
     1
 91
       10
176
     1
 64
     7
176
     1
 65
   257
176
     1
 75
     2
176
     1
175
     1
176
     1
 42
1.0
176
     1
 92
        8
176
     1
 66
   257
176
     1
 43
1.0
176
     1
 76
     1
176
     1
 77
     6
176
     1
 78
     2
176
     1
 67
     7
176
     1
 79
     3
176
     1
170
     0
176
     1
171
     0
176
     1
290
     0
176
     1
 93
        5
176
     1
 44
0.0
176
     1
173
     0
176
     1
  0
VISUALSTYLE
  5
3E
102
{ACAD_REACTORS
330
2A
102
}
330
2A
100
AcDbVisualStyle
  2
Shades of Gray
 70
    23
177
     2
291
     0
 71
     2
176
     1
 72
     2
176
     1
 73
     3
176
     1
 90
        0
176
     1
 40
0.6
176
     1
 41
30.0
176
     1
 62
     5
 63
     7
421
 16777215
176
     1
 74
     2
176
     1
 91
        2
176
     1
 64
     7
176
     1
 65
     7
176
     1
 75
     1
176
     1
175
     1
176
     1
 42
40.0
176
     1
 92
        8
176
     1
 66
     7
176
     1
 43
1.0
176
     1
 76
     1
176
     1
 77
     6
176
     1
 78
     2
176
     1
 67
     7
176
     1
 79
     3
176
     1
170
     0
176
     1
171
     0
176
     1
290
     0
176
     1
 93
        1
176
     1
 44
0.0
176
     1
173
     0
176
     1
  0
VISUALSTYLE
  5
3F
102
{ACAD_REACTORS
330
2A
102
}
330
2A
100
AcDbVisualStyle
  2
Sketchy
 70
    24
177
     2
291
     0
 71
     1
176
     1
 72
     2
176
     1
 73
     2
176
     1
 90
        0
176
     1
 40
0.6
176
     1
 41
30.0
176
     1
 62
     5
 63
     7
421
 16777215
176
     1
 74
     2
176
     1
 91
        2
176
     1
 64
     7
176
     1
 65
     7
176
     1
 75
     1
176
     1
175
     1
176
     1
 42
40.0
176
     1
 92
       11
176
     1
 66
     7
176
     1
 43
1.0
176
     1
 76
     1
176
     1
 77
     6
176
     1
 78
     2
176
     1
 67
     7
176
     1
 79
     6
176
     1
170
     0
176
     1
171
     0
176
     1
290
     0
176
     1
 93
        1
176
     1
 44
0.0
176
     1
173
     0
176
     1
  0
VISUALSTYLE
  5
37
102
{ACAD_REACTORS
330
2A
102
}
330
2A
100
AcDbVisualStyle
  2
Thicken
 70
    13
177
     2
291
     1
 71
     2
176
     1
 72
     2
176
     1
 73
     0
176
     1
 90
        0
176
     1
 40
0.6
176
     1
 41
30.0
176
     1
 62
     5
 63
     7
421
 16777215
176
     1
 74
     1
176
     1
 91
        4
176
     1
 64
     7
176
     1
 65
   257
176
     1
 75
     1
176
     1
175
     1
176
     1
 42
1.0
176
     1
 92
       12
176
     1
 66
     7
176
     1
 43
1.0
176
     1
 76
     1
176
     1
 77
     6
176
     1
 78
     2
176
     1
 67
     7
176
     1
 79
     5
176
     1
170
     0
176
     1
171
     0
176
     1
290
     0
176
     1
 93
        1
176
     1
 44
0.0
176
     1
173
     0
176
     1
  0
VISUALSTYLE
  5
30
102
{ACAD_REACTORS
330
2A
102
}
330
2A
100
AcDbVisualStyle
  2
Wireframe
 70
     5
177
     2
291
     0
 71
     0
176
     1
 72
     2
176
     1
 73
     0
176
     1
 90
        0
176
     1
 40
0.6
176
     1
 41
30.0
176
     1
 62
     5
 63
     7
421
 16777215
176
     1
 74
     1
176
     1
 91
        4
176
     1
 64
     7
176
     1
 65
   257
176
     1
 75
     1
176
     1
175
     1
176
     1
 42
1.0
176
     1
 92
        0
176
     1
 66
   257
176
     1
 43
1.0
176
     1
 76
     1
176
     1
 77
     6
176
     1
 78
     2
176
     1
 67
     7
176
     1
 79
     3
176
     1
170
     0
176
     1
171
     0
176
     1
290
     0
176
     1
 93
        1
176
     1
 44
0.0
176
     1
173
     0
176
     1
  0
VISUALSTYLE
  5
40
102
{ACAD_REACTORS
330
2A
102
}
330
2A
100
AcDbVisualStyle
  2
X-Ray
 70
    25
177
     2
291
     0
 71
     2
176
     1
 72
     2
176
     1
 73
     1
176
     1
 90
        1
176
     1
 40
0.5
176
     1
 41
30.0
176
     1
 62
     5
 63
     7
421
 16777215
176
     1
 74
     1
176
     1
 91
        0
176
     1
 64
     7
176
     1
 65
   257
176
     1
 75
     1
176
     1
175
     1
176
     1
 42
1.0
176
     1
 92
        8
176
     1
 66
     7
176
     1
 43
1.0
176
     1
 76
     1
176
     1
 77
     6
176
     1
 78
     2
176
     1
 67
     7
176
     1
 79
     3
176
     1
170
     0
176
     1
171
     0
176
     1
290
     0
176
     1
 93
       13
176
     1
 44
0.0
176
     1
173
     0
176
     1
  0
DICTIONARYVAR
  5
26D
102
{ACAD_REACTORS
330
26C
102
}
330
26C
100
DictionaryVariables
280
     0
  1
1:1
  0
DICTIONARYVAR
  5
2AE
102
{ACAD_REACTORS
330
26C
102
}
330
26C
100
DictionaryVariables
280
     0
  1
Standard
  0
DICTIONARYVAR
  5
2AD
102
{ACAD_REACTORS
330
26C
102
}
330
26C
100
DictionaryVariables
280
     0
  1
Standard
  0
DICTIONARYVAR
  5
26E
102
{ACAD_REACTORS
330
26C
102
}
330
26C
100
DictionaryVariables
280
     0
  1
1
  0
DICTIONARYVAR
  5
2B1
102
{ACAD_REACTORS
330
26C
102
}
330
26C
100
DictionaryVariables
280
     0
  1
6.000000
  0
DICTIONARYVAR
  5
26F
102
{ACAD_REACTORS
330
26C
102
}
330
26C
100
DictionaryVariables
280
     0
  1
2
  0
DICTIONARY
  5
2D3
330
6A
100
AcDbDictionary
280
     1
281
     1
  3
ACAD_ROUNDTRIP_2008_TABLESTYLE_CELLSTYLEMAP
360
2D4
  0
CELLSTYLEMAP
  5
2D4
102
{ACAD_REACTORS
330
2D3
102
}
330
2D3
100
AcDbCellStyleMap
 90
        3
300
CELLSTYLE
  1
TABLEFORMAT_BEGIN
 90
        5
170
     1
 91
        0
 92
    32768
 62
   257
 93
        1
300
CONTENTFORMAT
  1
CONTENTFORMAT_BEGIN
 90
        0
 91
        0
 92
        4
 93
        0
300

 40
0.0
140
1.0
 94
        5
 62
     0
340
11
144
6.0
309
CONTENTFORMAT_END
171
     1
301
MARGIN
  1
CELLMARGIN_BEGIN
 40
1.5
 40
1.5
 40
1.5
 40
1.5
 40
1.5
 40
1.5
309
CELLMARGIN_END
 94
        6
 95
        1
302
GRIDFORMAT
  1
GRIDFORMAT_BEGIN
 90
        0
 91
        1
 62
     0
 92
       -2
340
14
 93
        0
 40
0.045
309
GRIDFORMAT_END
 95
        2
302
GRIDFORMAT
  1
GRIDFORMAT_BEGIN
 90
        0
 91
        1
 62
     0
 92
       -2
340
14
 93
        0
 40
0.045
309
GRIDFORMAT_END
 95
        4
302
GRIDFORMAT
  1
GRIDFORMAT_BEGIN
 90
        0
 91
        1
 62
     0
 92
       -2
340
14
 93
        0
 40
0.045
309
GRIDFORMAT_END
 95
        8
302
GRIDFORMAT
  1
GRIDFORMAT_BEGIN
 90
        0
 91
        1
 62
     0
 92
       -2
340
14
 93
        0
 40
0.045
309
GRIDFORMAT_END
 95
       16
302
GRIDFORMAT
  1
GRIDFORMAT_BEGIN
 90
        0
 91
        1
 62
     0
 92
       -2
340
14
 93
        0
 40
0.045
309
GRIDFORMAT_END
 95
       32
302
GRIDFORMAT
  1
GRIDFORMAT_BEGIN
 90
        0
 91
        1
 62
     0
 92
       -2
340
14
 93
        0
 40
0.045
309
GRIDFORMAT_END
309
TABLEFORMAT_END
  1
CELLSTYLE_BEGIN
 90
        1
 91
        1
300
_TITLE
309
CELLSTYLE_END
300
CELLSTYLE
  1
TABLEFORMAT_BEGIN
 90
        5
170
     1
 91
        0
 92
        0
 62
   257
 93
        1
300
CONTENTFORMAT
  1
CONTENTFORMAT_BEGIN
 90
        0
 91
        0
 92
        4
 93
        0
300

 40
0.0
140
1.0
 94
        5
 62
     0
340
11
144
4.5
309
CONTENTFORMAT_END
171
     1
301
MARGIN
  1
CELLMARGIN_BEGIN
 40
1.5
 40
1.5
 40
1.5
 40
1.5
 40
1.5
 40
1.5
309
CELLMARGIN_END
 94
        6
 95
        1
302
GRIDFORMAT
  1
GRIDFORMAT_BEGIN
 90
        0
 91
        1
 62
     0
 92
       -2
340
14
 93
        0
 40
0.045
309
GRIDFORMAT_END
 95
        2
302
GRIDFORMAT
  1
GRIDFORMAT_BEGIN
 90
        0
 91
        1
 62
     0
 92
       -2
340
14
 93
        0
 40
0.045
309
GRIDFORMAT_END
 95
        4
302
GRIDFORMAT
  1
GRIDFORMAT_BEGIN
 90
        0
 91
        1
 62
     0
 92
       -2
340
14
 93
        0
 40
0.045
309
GRIDFORMAT_END
 95
        8
302
GRIDFORMAT
  1
GRIDFORMAT_BEGIN
 90
        0
 91
        1
 62
     0
 92
       -2
340
14
 93
        0
 40
0.045
309
GRIDFORMAT_END
 95
       16
302
GRIDFORMAT
  1
GRIDFORMAT_BEGIN
 90
        0
 91
        1
 62
     0
 92
       -2
340
14
 93
        0
 40
0.045
309
GRIDFORMAT_END
 95
       32
302
GRIDFORMAT
  1
GRIDFORMAT_BEGIN
 90
        0
 91
        1
 62
     0
 92
       -2
340
14
 93
        0
 40
0.045
309
GRIDFORMAT_END
309
TABLEFORMAT_END
  1
CELLSTYLE_BEGIN
 90
        2
 91
        1
300
_HEADER
309
CELLSTYLE_END
300
CELLSTYLE
  1
TABLEFORMAT_BEGIN
 90
        5
170
     1
 91
        0
 92
        0
 62
   257
 93
        1
300
CONTENTFORMAT
  1
CONTENTFORMAT_BEGIN
 90
        0
 91
        0
 92
        4
 93
        0
300

 40
0.0
140
1.0
 94
        2
 62
     0
340
11
144
4.5
309
CONTENTFORMAT_END
171
     1
301
MARGIN
  1
CELLMARGIN_BEGIN
 40
1.5
 40
1.5
 40
1.5
 40
1.5
 40
1.5
 40
1.5
309
CELLMARGIN_END
 94
        6
 95
        1
302
GRIDFORMAT
  1
GRIDFORMAT_BEGIN
 90
        0
 91
        1
 62
     0
 92
       -2
340
14
 93
        0
 40
0.045
309
GRIDFORMAT_END
 95
        2
302
GRIDFORMAT
  1
GRIDFORMAT_BEGIN
 90
        0
 91
        1
 62
     0
 92
       -2
340
14
 93
        0
 40
0.045
309
GRIDFORMAT_END
 95
        4
302
GRIDFORMAT
  1
GRIDFORMAT_BEGIN
 90
        0
 91
        1
 62
     0
 92
       -2
340
14
 93
        0
 40
0.045
309
GRIDFORMAT_END
 95
        8
302
GRIDFORMAT
  1
GRIDFORMAT_BEGIN
 90
        0
 91
        1
 62
     0
 92
       -2
340
14
 93
        0
 40
0.045
309
GRIDFORMAT_END
 95
       16
302
GRIDFORMAT
  1
GRIDFORMAT_BEGIN
 90
        0
 91
        1
 62
     0
 92
       -2
340
14
 93
        0
 40
0.045
309
GRIDFORMAT_END
 95
       32
302
GRIDFORMAT
  1
GRIDFORMAT_BEGIN
 90
        0
 91
        1
 62
     0
 92
       -2
340
14
 93
        0
 40
0.045
309
GRIDFORMAT_END
309
TABLEFORMAT_END
  1
CELLSTYLE_BEGIN
 90
        3
 91
        2
300
_DATA
309
CELLSTYLE_END
  0
ENDSEC
  0
EOF
