999
dxflib 3.12.2.0
  0
SECTION
  2
HEADER
  9
$ACADVER
  1
AC1015
  9
$HANDSEED
  5
FFFF
  9
$ANGBASE
 50
0.0
  9
$ATTMODE
 70
1
  9
$AUNITS
 70
0
  9
$AUPREC
 70
0
  9
$CELTSCALE
 40
1.0
  9
$CHAMFERA
 40
10.0
  9
$CHAMFERB
 40
10.0
  9
$CHAMFERC
 40
20.0
  9
$CHAMFERD
 40
0.0
  9
$CMLJUST
 70
0
  9
$CMLSCALE
 40
20.0
  9
$DIMADEC
 70
0
  9
$DIMALTD
 70
3
  9
$DIMALTF
 40
0.03937007874016
  9
$DIMALTRND
 40
0.0
  9
$DIMALTTD
 70
3
  9
$DIMALTTZ
 70
0
  9
$DIMALTU
 70
2
  9
$DIMALTZ
 70
0
  9
$DIMAPOST
  1

  9
$DIMASZ
 40
2.5
  9
$DIMATFIT
 70
3
  9
$DIMAUNIT
 70
0
  9
$DIMAZIN
 70
0
  9
$DIMCEN
 40
2.5
  9
$DIMDEC
 70
2
  9
$DIMDLE
 40
0.0
  9
$DIMDLI
 40
3.75
  9
$DIMDSEP
 70
44
  9
$DIMEXE
 40
1.25
  9
$DIMEXO
 40
0.625
  9
$DIMFRAC
 70
0
  9
$DIMGAP
 40
0.625
  9
$DIMJUST
 70
0
  9
$DIMLFAC
 40
1.0
  9
$DIMLUNIT
 70
2
  9
$DIMLWD
 70
-2
  9
$DIMLWE
 70
-2
  9
$DIMPOST
  1

  9
$DIMRND
 40
0.0
  9
$DIMSCALE
 40
1.0
  9
$DIMTAD
 70
1
  9
$DIMTDEC
 70
2
  9
$DIMTFAC
 40
1.0
  9
$DIMTM
 40
0.0
  9
$DIMTOLJ
 70
0
  9
$DIMTP
 40
0.0
  9
$DIMTSZ
 40
0.0
  9
$DIMTVP
 40
0.0
  9
$DIMTXT
 40
2.5
  9
$DIMTZIN
 70
8
  9
$DIMZIN
 70
8
  9
$DWGCODEPAGE
  3
ANSI_1252
  9
$ELEVATION
 40
0.0
  9
$EXTMAX
 10
539732.16182467679
 20
4477986.4200906241
 30
1601.496826171875
  9
$EXTMIN
 10
539411.92034134897
 20
4477664.8865999999
 30
0.0
  9
$FILLETRAD
 40
10.0
  9
$INSBASE
 10
0.0
 20
0.0
 30
0.0
  9
$INSUNITS
 70
4
  9
$LIMMAX
 10
420.0
 20
297.0
  9
$LIMMIN
 10
0.0
 20
0.0
  9
$LTSCALE
 40
1.0
  9
$LUNITS
 70
2
  9
$LUPREC
 70
4
  9
$MAXACTVP
 70
2
  9
$MEASUREMENT
 70
1
  9
$PDMODE
 70
0
  9
$PDSIZE
 40
0.0
  9
$PELEVATION
 40
0.0
  9
$PEXTMAX
 10
0.0
 20
0.0
 30
0.0
  9
$PEXTMIN
 10
0.0
 20
0.0
 30
0.0
  9
$PINSBASE
 10
0.0
 20
0.0
 30
0.0
  9
$PLIMMAX
 10
277.0
 20
202.5
  9
$PLIMMIN
 10
-20.0
 20
-7.5
  9
$PLINEWID
 40
0.0
  9
$PROXYGRAPHICS
 70
1
  9
$PUCSORG
 10
0.0
 20
0.0
 30
0.0
  9
$PUCSXDIR
 10
1.0
 20
0.0
 30
0.0
  9
$PUCSYDIR
 10
0.0
 20
1.0
 30
0.0
  9
$SHADEDGE
 70
3
  9
$SHADEDIF
 70
70
  9
$SKETCHINC
 40
1.0
  9
$SPLINESEGS
 70
8
  9
$SPLINETYPE
 70
6
  9
$SURFTAB1
 70
6
  9
$SURFTAB2
 70
6
  9
$SURFTYPE
 70
6
  9
$SURFU
 70
6
  9
$SURFV
 70
6
  9
$TEXTSIZE
 40
2.5
  9
$THICKNESS
 40
0.0
  9
$TRACEWID
 40
1.0
  9
$TREEDEPTH
 70
3020
  9
$UCSORG
 10
0.0
 20
0.0
 30
0.0
  9
$UCSXDIR
 10
1.0
 20
0.0
 30
0.0
  9
$UCSYDIR
 10
0.0
 20
1.0
 30
0.0
  9
$UNITMODE
 70
0
  9
$USERI1
 70
0
  9
$USERI2
 70
0
  9
$USERI3
 70
0
  9
$USERI4
 70
0
  9
$USERI5
 70
0
  9
$USERR1
 40
0.0
  9
$USERR2
 40
0.0
  9
$USERR3
 40
0.0
  9
$USERR4
 40
0.0
  9
$USERR5
 40
0.0
  0
ENDSEC
  0
SECTION
  2
TABLES
  0
TABLE
  2
VPORT
  5
8
100
AcDbSymbolTable
 70
1
  0
VPORT
  5
30
100
AcDbSymbolTableRecord
100
AcDbViewportTableRecord
  2
*Active
 70
0
 10
0.0
 20
0.0
 11
1.0
 21
1.0
 12
286.30555555555549
 22
148.5
 13
0.0
 23
0.0
 14
10.0
 24
10.0
 15
10.0
 25
10.0
 16
0.0
 26
0.0
 36
1.0
 17
0.0
 27
0.0
 37
0.0
 40
297.0
 41
1.92798353909465
 42
50.0
 43
0.0
 44
0.0
 50
0.0
 51
0.0
 71
0
 72
100
 73
1
 74
3
 75
1
 76
1
 77
0
 78
0
281
0
 65
1
110
0.0
120
0.0
130
0.0
111
1.0
121
0.0
131
0.0
112
0.0
122
1.0
132
0.0
 79
0
146
0.0
  0
ENDTAB
  0
TABLE
  2
LTYPE
  5
5
100
AcDbSymbolTable
 70
54
  0
LTYPE
  5
16
100
AcDbSymbolTableRecord
100
AcDbLinetypeTableRecord
  2
Continuous
 70
0
  3
Solid line
 72
65
 73
0
 40
0.0
  0
LTYPE
  5
31
100
AcDbSymbolTableRecord
100
AcDbLinetypeTableRecord
  2
ACAD_ISO03W100
 70
0
  3
ISO dash space __    __    __    __    __    __
 72
65
 73
2
 40
30.0
 49
12.0
 74
0
 49
-18.0
 74
0
  0
LTYPE
  5
32
100
AcDbSymbolTableRecord
100
AcDbLinetypeTableRecord
  2
DOTX2
 70
0
  3
Dot (2x) .  .  .  .  .  .  .  .  .  .  .  .  .  .
 72
65
 73
2
 40
12.699999999999999
 49
0.0
 74
0
 49
-12.699999999999999
 74
0
  0
LTYPE
  5
33
100
AcDbSymbolTableRecord
100
AcDbLinetypeTableRecord
  2
DOT
 70
0
  3
Dot . . . . . . . . . . . . . . . . . . . . . . . .
 72
65
 73
2
 40
6.3499999999999996
 49
0.0
 74
0
 49
-6.3499999999999996
 74
0
  0
LTYPE
  5
34
100
AcDbSymbolTableRecord
100
AcDbLinetypeTableRecord
  2
CUTRIGHT
 70
0
  3
G42 ----/----/-----/---
 72
65
 73
2
 40
10.16
 49
5.0800000000000001
 74
0
 49
5.0800000000000001
 74
0
  0
LTYPE
  5
35
100
AcDbSymbolTableRecord
100
AcDbLinetypeTableRecord
  2
CENTERX2
 70
0
  3
Center (2x) ________  __  ________  __  _____
 72
65
 73
4
 40
101.60000000000001
 49
63.5
 74
0
 49
-12.699999999999999
 74
0
 49
12.699999999999999
 74
0
 49
-12.699999999999999
 74
0
  0
LTYPE
  5
36
100
AcDbSymbolTableRecord
100
AcDbLinetypeTableRecord
  2
CUTRIGHT2
 70
0
  3
G42 reversed----\----\----\----
 72
65
 73
2
 40
10.16
 49
5.0800000000000001
 74
0
 49
5.0800000000000001
 74
0
  0
LTYPE
  5
37
100
AcDbSymbolTableRecord
100
AcDbLinetypeTableRecord
  2
PHANTOM2
 70
0
  3
Phantom (.5x) ___ _ _ ___ _ _ ___ _ _ ___ _ _
 72
65
 73
6
 40
31.750000000000004
 49
15.875
 74
0
 49
-3.1749999999999998
 74
0
 49
3.1749999999999998
 74
0
 49
-3.1749999999999998
 74
0
 49
3.1749999999999998
 74
0
 49
-3.1749999999999998
 74
0
  0
LTYPE
  5
38
100
AcDbSymbolTableRecord
100
AcDbLinetypeTableRecord
  2
BATTING
 70
0
  3
Batting SSSSSSSSSSSSSSSSSSSSSSSSSSSSSSSSSSSSSSSSSSSSSSS
 72
65
 73
4
 40
10.16254
 49
0.00254
 74
0
 49
-2.54
 74
0
 49
-5.0800000000000001
 74
0
 49
-2.54
 74
0
  0
LTYPE
  5
39
100
AcDbSymbolTableRecord
100
AcDbLinetypeTableRecord
  2
DASHDOTX2
 70
0
  3
Dash dot (2x) ____  .  ____  .  ____  .  ___
 72
65
 73
4
 40
50.799999999999997
 49
25.399999999999999
 74
0
 49
-12.699999999999999
 74
0
 49
0.0
 74
0
 49
-12.699999999999999
 74
0
  0
LTYPE
  5
15
100
AcDbSymbolTableRecord
100
AcDbLinetypeTableRecord
  2
ByLayer
 70
0
  3

 72
65
 73
0
 40
0.0
  0
LTYPE
  5
14
100
AcDbSymbolTableRecord
100
AcDbLinetypeTableRecord
  2
ByBlock
 70
0
  3

 72
65
 73
0
 40
0.0
  0
LTYPE
  5
3A
100
AcDbSymbolTableRecord
100
AcDbLinetypeTableRecord
  2
ACAD_ISO06W100
 70
0
  3
ISO long-dash triple-dot ____ ... ____ ... ____
 72
65
 73
8
 40
36.0
 49
24.0
 74
0
 49
-3.0
 74
0
 49
0.0
 74
0
 49
-3.0
 74
0
 49
0.0
 74
0
 49
-3.0
 74
0
 49
0.0
 74
0
 49
-3.0
 74
0
  0
LTYPE
  5
3B
100
AcDbSymbolTableRecord
100
AcDbLinetypeTableRecord
  2
PHANTOMX2
 70
0
  3
Phantom (2x) ____________    ____    ____   _
 72
65
 73
6
 40
127.00000000000001
 49
63.5
 74
0
 49
-12.699999999999999
 74
0
 49
12.699999999999999
 74
0
 49
-12.699999999999999
 74
0
 49
12.699999999999999
 74
0
 49
-12.699999999999999
 74
0
  0
LTYPE
  5
3C
100
AcDbSymbolTableRecord
100
AcDbLinetypeTableRecord
  2
ACAD_ISO13W100
 70
0
  3
ISO double-dash double-dot __ __ . . __ __ . . _
 72
65
 73
8
 40
36.0
 49
12.0
 74
0
 49
-3.0
 74
0
 49
12.0
 74
0
 49
-3.0
 74
0
 49
0.0
 74
0
 49
-3.0
 74
0
 49
0.0
 74
0
 49
-3.0
 74
0
  0
LTYPE
  5
3D
100
AcDbSymbolTableRecord
100
AcDbLinetypeTableRecord
  2
HIDDEN
 70
0
  3
Hidden __ __ __ __ __ __ __ __ __ __ __ __ __ __
 72
65
 73
2
 40
9.5249999999999986
 49
6.3499999999999996
 74
0
 49
-3.1749999999999998
 74
0
  0
LTYPE
  5
3E
100
AcDbSymbolTableRecord
100
AcDbLinetypeTableRecord
  2
HIDDEN2
 70
0
  3
Hidden (.5x) _ _ _ _ _ _ _ _ _ _ _ _ _ _ _ _ _ 
 72
65
 73
2
 40
4.7624999999999993
 49
3.1749999999999998
 74
0
 49
-1.5874999999999999
 74
0
  0
LTYPE
  5
3F
100
AcDbSymbolTableRecord
100
AcDbLinetypeTableRecord
  2
DRAINAGE2
 70
0
  3
Drainage reversed----<----<----<----
 72
65
 73
2
 40
10.16
 49
5.0800000000000001
 74
0
 49
5.0800000000000001
 74
0
  0
LTYPE
  5
40
100
AcDbSymbolTableRecord
100
AcDbLinetypeTableRecord
  2
CENTER2
 70
0
  3
Center (.5x) ___ _ ___ _ ___ _ ___ _ ___ _ ___
 72
65
 73
4
 40
28.575000000000003
 49
19.050000000000001
 74
0
 49
-3.1749999999999998
 74
0
 49
3.1749999999999998
 74
0
 49
-3.1749999999999998
 74
0
  0
LTYPE
  5
41
100
AcDbSymbolTableRecord
100
AcDbLinetypeTableRecord
  2
ACAD_ISO05W100
 70
0
  3
ISO long-dash double-dot ____ .. ____ .. ____ . 
 72
65
 73
6
 40
33.0
 49
24.0
 74
0
 49
-3.0
 74
0
 49
0.0
 74
0
 49
-3.0
 74
0
 49
0.0
 74
0
 49
-3.0
 74
0
  0
LTYPE
  5
42
100
AcDbSymbolTableRecord
100
AcDbLinetypeTableRecord
  2
FENCELINE1
 70
0
  3
Fenceline circle ----0-----0----0-----0----0-----0--
 72
65
 73
4
 40
36.829999999999998
 49
6.3499999999999996
 74
0
 49
-2.54
 74
0
 49
-2.54
 74
0
 49
25.399999999999999
 74
0
  0
LTYPE
  5
43
100
AcDbSymbolTableRecord
100
AcDbLinetypeTableRecord
  2
PHANTOM
 70
0
  3
Phantom ______  __  __  ______  __  __  ______ 
 72
65
 73
6
 40
63.500000000000007
 49
31.75
 74
0
 49
-6.3499999999999996
 74
0
 49
6.3499999999999996
 74
0
 49
-6.3499999999999996
 74
0
 49
6.3499999999999996
 74
0
 49
-6.3499999999999996
 74
0
  0
LTYPE
  5
44
100
AcDbSymbolTableRecord
100
AcDbLinetypeTableRecord
  2
HOT_WATER_SUPPLY
 70
0
  3
Hot water supply ---- HW ---- HW ---- HW ----
 72
65
 73
3
 40
22.859999999999999
 49
12.699999999999999
 74
0
 49
-5.0800000000000001
 74
0
 49
-5.0800000000000001
 74
0
  0
LTYPE
  5
45
100
AcDbSymbolTableRecord
100
AcDbLinetypeTableRecord
  2
DIVIDEX2
 70
0
  3
Divide (2x) ________  .  .  ________  .  .  _
 72
65
 73
6
 40
63.5
 49
25.399999999999999
 74
0
 49
-12.699999999999999
 74
0
 49
0.0
 74
0
 49
-12.699999999999999
 74
0
 49
0.0
 74
0
 49
-12.699999999999999
 74
0
  0
LTYPE
  5
46
100
AcDbSymbolTableRecord
100
AcDbLinetypeTableRecord
  2
ZIGZAG
 70
0
  3
Zig zag /\/\/\/\/\/\/\/\/\/\/\/\/\/\/\/\/\/\/\/\/\/\/\/
 72
65
 73
4
 40
20.32254
 49
0.00254
 74
0
 49
-5.0800000000000001
 74
0
 49
-10.16
 74
0
 49
-5.0800000000000001
 74
0
  0
LTYPE
  5
47
100
AcDbSymbolTableRecord
100
AcDbLinetypeTableRecord
  2
ACAD_ISO02W100
 70
0
  3
ISO dash __ __ __ __ __ __ __ __ __ __ __ __ __
 72
65
 73
2
 40
15.0
 49
12.0
 74
0
 49
-3.0
 74
0
  0
LTYPE
  5
48
100
AcDbSymbolTableRecord
100
AcDbLinetypeTableRecord
  2
DASHDOT2
 70
0
  3
Dash dot (.5x) _._._._._._._._._._._._._._._.
 72
65
 73
4
 40
12.699999999999999
 49
6.3499999999999996
 74
0
 49
-3.1749999999999998
 74
0
 49
0.0
 74
0
 49
-3.1749999999999998
 74
0
  0
LTYPE
  5
49
100
AcDbSymbolTableRecord
100
AcDbLinetypeTableRecord
  2
DASHED
 70
0
  3
Dashed __ __ __ __ __ __ __ __ __ __ __ __ __ _
 72
65
 73
2
 40
19.049999999999997
 49
12.699999999999999
 74
0
 49
-6.3499999999999996
 74
0
  0
LTYPE
  5
4A
100
AcDbSymbolTableRecord
100
AcDbLinetypeTableRecord
  2
ACAD_ISO15W100
 70
0
  3
ISO double-dash triple-dot __ __ . . . __ __ . .
 72
65
 73
10
 40
39.0
 49
12.0
 74
0
 49
-3.0
 74
0
 49
12.0
 74
0
 49
-3.0
 74
0
 49
0.0
 74
0
 49
-3.0
 74
0
 49
0.0
 74
0
 49
-3.0
 74
0
 49
0.0
 74
0
 49
-3.0
 74
0
  0
LTYPE
  5
4B
100
AcDbSymbolTableRecord
100
AcDbLinetypeTableRecord
  2
HIDDENX2
 70
0
  3
Hidden (2x) ____ ____ ____ ____ ____ ____ ____ 
 72
65
 73
2
 40
19.049999999999997
 49
12.699999999999999
 74
0
 49
-6.3499999999999996
 74
0
  0
LTYPE
  5
4C
100
AcDbSymbolTableRecord
100
AcDbLinetypeTableRecord
  2
GAS_LINE
 70
0
  3
Gas line ----GAS----GAS----GAS----GAS----GAS----GAS--
 72
65
 73
3
 40
24.130000000000003
 49
12.699999999999999
 74
0
 49
-5.0800000000000001
 74
0
 49
-6.3499999999999996
 74
0
  0
LTYPE
  5
4D
100
AcDbSymbolTableRecord
100
AcDbLinetypeTableRecord
  2
ACAD_ISO09W100
 70
0
  3
ISO long-dash double-short-dash ____ __ __ ____
 72
65
 73
6
 40
45.0
 49
24.0
 74
0
 49
-3.0
 74
0
 49
6.0
 74
0
 49
-3.0
 74
0
 49
6.0
 74
0
 49
-3.0
 74
0
  0
LTYPE
  5
4E
100
AcDbSymbolTableRecord
100
AcDbLinetypeTableRecord
  2
DASHEDX2
 70
0
  3
Dashed (2x) ____  ____  ____  ____  ____  ___
 72
65
 73
2
 40
38.099999999999994
 49
25.399999999999999
 74
0
 49
-12.699999999999999
 74
0
  0
LTYPE
  5
4F
100
AcDbSymbolTableRecord
100
AcDbLinetypeTableRecord
  2
DIVIDE2
 70
0
  3
Divide (.5x) __..__..__..__..__..__..__..__.._
 72
65
 73
6
 40
15.875
 49
6.3499999999999996
 74
0
 49
-3.1749999999999998
 74
0
 49
0.0
 74
0
 49
-3.1749999999999998
 74
0
 49
0.0
 74
0
 49
-3.1749999999999998
 74
0
  0
LTYPE
  5
50
100
AcDbSymbolTableRecord
100
AcDbLinetypeTableRecord
  2
BORDERX2
 70
0
  3
Border (2x) ____  ____  .  ____  ____  .  ___
 72
65
 73
6
 40
88.899999999999991
 49
25.399999999999999
 74
0
 49
-12.699999999999999
 74
0
 49
25.399999999999999
 74
0
 49
-12.699999999999999
 74
0
 49
0.0
 74
0
 49
-12.699999999999999
 74
0
  0
LTYPE
  5
51
100
AcDbSymbolTableRecord
100
AcDbLinetypeTableRecord
  2
DIVIDE
 70
0
  3
Divide ____ . . ____ . . ____ . . ____ . . ____
 72
65
 73
6
 40
31.75
 49
12.699999999999999
 74
0
 49
-6.3499999999999996
 74
0
 49
0.0
 74
0
 49
-6.3499999999999996
 74
0
 49
0.0
 74
0
 49
-6.3499999999999996
 74
0
  0
LTYPE
  5
52
100
AcDbSymbolTableRecord
100
AcDbLinetypeTableRecord
  2
CUTLEFT
 70
0
  3
G41 ----\----\----\----
 72
65
 73
2
 40
10.16
 49
5.0800000000000001
 74
0
 49
5.0800000000000001
 74
0
  0
LTYPE
  5
53
100
AcDbSymbolTableRecord
100
AcDbLinetypeTableRecord
  2
ACAD_ISO04W100
 70
0
  3
ISO long-dash dot ____ . ____ . ____ . ____ . _
 72
65
 73
4
 40
30.0
 49
24.0
 74
0
 49
-3.0
 74
0
 49
0.0
 74
0
 49
-3.0
 74
0
  0
LTYPE
  5
54
100
AcDbSymbolTableRecord
100
AcDbLinetypeTableRecord
  2
BORDER
 70
0
  3
Border __ __ . __ __ . __ __ . __ __ . __ __ .
 72
65
 73
6
 40
44.449999999999996
 49
12.699999999999999
 74
0
 49
-6.3499999999999996
 74
0
 49
12.699999999999999
 74
0
 49
-6.3499999999999996
 74
0
 49
0.0
 74
0
 49
-6.3499999999999996
 74
0
  0
LTYPE
  5
55
100
AcDbSymbolTableRecord
100
AcDbLinetypeTableRecord
  2
DRAINAGE
 70
0
  3
Drainage ---->---->---->----
 72
65
 73
2
 40
10.16
 49
5.0800000000000001
 74
0
 49
5.0800000000000001
 74
0
  0
LTYPE
  5
56
100
AcDbSymbolTableRecord
100
AcDbLinetypeTableRecord
  2
BORDER2
 70
0
  3
Border (.5x) __.__.__.__.__.__.__.__.__.__.__.
 72
65
 73
6
 40
22.224999999999998
 49
6.3499999999999996
 74
0
 49
-3.1749999999999998
 74
0
 49
6.3499999999999996
 74
0
 49
-3.1749999999999998
 74
0
 49
0.0
 74
0
 49
-3.1749999999999998
 74
0
  0
LTYPE
  5
57
100
AcDbSymbolTableRecord
100
AcDbLinetypeTableRecord
  2
ACAD_ISO08W100
 70
0
  3
ISO long-dash short-dash ____ __ ____ __ ____ _
 72
65
 73
4
 40
36.0
 49
24.0
 74
0
 49
-3.0
 74
0
 49
6.0
 74
0
 49
-3.0
 74
0
  0
LTYPE
  5
58
100
AcDbSymbolTableRecord
100
AcDbLinetypeTableRecord
  2
ACAD_ISO07W100
 70
0
  3
ISO dot . . . . . . . . . . . . . . . . . . . . 
 72
65
 73
2
 40
3.0
 49
0.0
 74
0
 49
-3.0
 74
0
  0
LTYPE
  5
59
100
AcDbSymbolTableRecord
100
AcDbLinetypeTableRecord
  2
ACAD_ISO11W100
 70
0
  3
ISO double-dash dot __ __ . __ __ . __ __ . __ _
 72
65
 73
6
 40
33.0
 49
12.0
 74
0
 49
-3.0
 74
0
 49
12.0
 74
0
 49
-3.0
 74
0
 49
0.0
 74
0
 49
-3.0
 74
0
  0
LTYPE
  5
5A
100
AcDbSymbolTableRecord
100
AcDbLinetypeTableRecord
  2
ACAD_ISO14W100
 70
0
  3
ISO dash triple-dot __ . . . __ . . . __ . . . _
 72
65
 73
8
 40
24.0
 49
12.0
 74
0
 49
-3.0
 74
0
 49
0.0
 74
0
 49
-3.0
 74
0
 49
0.0
 74
0
 49
-3.0
 74
0
 49
0.0
 74
0
 49
-3.0
 74
0
  0
LTYPE
  5
5B
100
AcDbSymbolTableRecord
100
AcDbLinetypeTableRecord
  2
DOT2
 70
0
  3
Dot (.5x) ........................................
 72
65
 73
2
 40
3.1749999999999998
 49
0.0
 74
0
 49
-3.1749999999999998
 74
0
  0
LTYPE
  5
5C
100
AcDbSymbolTableRecord
100
AcDbLinetypeTableRecord
  2
CUTLEFT2
 70
0
  3
G41 reversed----/----/----/----
 72
65
 73
2
 40
10.16
 49
5.0800000000000001
 74
0
 49
5.0800000000000001
 74
0
  0
LTYPE
  5
5D
100
AcDbSymbolTableRecord
100
AcDbLinetypeTableRecord
  2
DASHED2
 70
0
  3
Dashed (.5x) _ _ _ _ _ _ _ _ _ _ _ _ _ _ _ _ _ 
 72
65
 73
2
 40
9.5249999999999986
 49
6.3499999999999996
 74
0
 49
-3.1749999999999998
 74
0
  0
LTYPE
  5
5E
100
AcDbSymbolTableRecord
100
AcDbLinetypeTableRecord
  2
CENTER
 70
0
  3
Center ____ _ ____ _ ____ _ ____ _ ____ _ ____
 72
65
 73
4
 40
50.800000000000004
 49
31.75
 74
0
 49
-6.3499999999999996
 74
0
 49
6.3499999999999996
 74
0
 49
-6.3499999999999996
 74
0
  0
LTYPE
  5
5F
100
AcDbSymbolTableRecord
100
AcDbLinetypeTableRecord
  2
FENCELINE2
 70
0
  3
Fenceline square ----[]-----[]----[]-----[]----[]---
 72
65
 73
4
 40
36.829999999999998
 49
6.3499999999999996
 74
0
 49
-2.54
 74
0
 49
-2.54
 74
0
 49
25.399999999999999
 74
0
  0
LTYPE
  5
60
100
AcDbSymbolTableRecord
100
AcDbLinetypeTableRecord
  2
DASHDOT
 70
0
  3
Dash dot __ . __ . __ . __ . __ . __ . __ . __
 72
65
 73
4
 40
25.399999999999999
 49
12.699999999999999
 74
0
 49
-6.3499999999999996
 74
0
 49
0.0
 74
0
 49
-6.3499999999999996
 74
0
  0
LTYPE
  5
61
100
AcDbSymbolTableRecord
100
AcDbLinetypeTableRecord
  2
ACAD_ISO12W100
 70
0
  3
ISO dash double-dot __ . . __ . . __ . . __ . . 
 72
65
 73
6
 40
21.0
 49
12.0
 74
0
 49
-3.0
 74
0
 49
0.0
 74
0
 49
-3.0
 74
0
 49
0.0
 74
0
 49
-3.0
 74
0
  0
LTYPE
  5
62
100
AcDbSymbolTableRecord
100
AcDbLinetypeTableRecord
  2
ACAD_ISO10W100
 70
0
  3
ISO dash dot __ . __ . __ . __ . __ . __ . __ . 
 72
65
 73
4
 40
18.0
 49
12.0
 74
0
 49
-3.0
 74
0
 49
0.0
 74
0
 49
-3.0
 74
0
  0
LTYPE
  5
63
100
AcDbSymbolTableRecord
100
AcDbLinetypeTableRecord
  2
TRACKS
 70
0
  3
Tracks -|-|-|-|-|-|-|-|-|-|-|-|-|-|-|-|-|-|-|-|-|-|-|-|-
 72
65
 73
2
 40
7.6200000000000001
 49
3.8100000000000001
 74
0
 49
3.8100000000000001
 74
0
  0
ENDTAB
  0
TABLE
  2
LAYER
  5
2
100
AcDbSymbolTable
 70
5
  0
LAYER
  5
64
100
AcDbSymbolTableRecord
100
AcDbLayerTableRecord
  2
1478
 70
0
 62
120
420
65471
  6
Continuous
370
0
390
F
  0
LAYER
  5
10
100
AcDbSymbolTableRecord
100
AcDbLayerTableRecord
  2
0
 70
0
 62
5
420
255
  6
Continuous
370
0
390
F
  0
LAYER
  5
65
100
AcDbSymbolTableRecord
100
AcDbLayerTableRecord
  2
INIT_CORD
 70
4
 62
5
420
255
  6
Continuous
370
25
390
F
  0
LAYER
  5
66
100
AcDbSymbolTableRecord
100
AcDbLayerTableRecord
  2
TEXT
 70
0
 62
7
420
0
  6
Continuous
370
25
390
F
  0
LAYER
  5
67
100
AcDbSymbolTableRecord
100
AcDbLayerTableRecord
  2
GEOFENCE
 70
4
 62
3
420
65280
  6
Continuous
370
25
390
F
  0
ENDTAB
  0
TABLE
  2
STYLE
  5
3
100
AcDbSymbolTable
 70
1
  0
STYLE
  5
68
100
AcDbSymbolTableRecord
100
AcDbTextStyleTableRecord
  2
Standard
 70
0
 40
0.0
 41
1.0
 50
0.0
 71
0
 42
2.5
  3

  4

1001
ACAD
1000
txt
1071
0
  0
ENDTAB
  0
TABLE
  2
VIEW
  5
6
100
AcDbSymbolTable
 70
0
  0
ENDTAB
  0
TABLE
  2
UCS
  5
7
100
AcDbSymbolTable
 70
0
  0
ENDTAB
  0
TABLE
  2
APPID
  5
9
100
AcDbSymbolTable
 70
1
  0
APPID
  5
12
100
AcDbSymbolTableRecord
100
AcDbRegAppTableRecord
  2
ACAD
 70
0
  0
APPID
  5
69
100
AcDbSymbolTableRecord
100
AcDbRegAppTableRecord
  2
QCAD
 70
0
  0
ENDTAB
  0
TABLE
  2
DIMSTYLE
  5
A
100
AcDbSymbolTable
 70
1
100
AcDbDimStyleTable
 71
0
  0
DIMSTYLE
105
27
100
AcDbSymbolTableRecord
100
AcDbDimStyleTableRecord
  2
Standard
 41
2.5
 42
0.625
 43
3.75
 44
1.25
 70
0
 73
0
 74
0
 77
1
 78
8
140
2.5
141
2.5
143
0.03937007874016
147
0.625
171
3
172
1
271
2
272
2
274
3
278
44
283
0
284
8
340
68
  0
ENDTAB
  0
TABLE
  2
BLOCK_RECORD
  5
1
100
AcDbSymbolTable
 70
1
  0
BLOCK_RECORD
  5
1F
100
AcDbSymbolTableRecord
100
AcDbBlockTableRecord
  2
*Model_Space
340
22
  0
BLOCK_RECORD
  5
1B
100
AcDbSymbolTableRecord
100
AcDbBlockTableRecord
  2
*Paper_Space
340
1E
  0
BLOCK_RECORD
  5
23
100
AcDbSymbolTableRecord
100
AcDbBlockTableRecord
  2
*Paper_Space0
340
26
  0
ENDTAB
  0
ENDSEC
  0
SECTION
  2
BLOCKS
  0
BLOCK
  5
20
100
AcDbEntity
  8
0
100
AcDbBlockBegin
  2
*Model_Space
 70
0
 10
0.0
 20
0.0
 30
0.0
  3
*Model_Space
  1

  0
ENDBLK
  5
21
100
AcDbEntity
  8
0
100
AcDbBlockEnd
  0
BLOCK
  5
1C
100
AcDbEntity
 67
1
  8
0
100
AcDbBlockBegin
  2
*Paper_Space
 70
0
 10
0.0
 20
0.0
 30
0.0
  3
*Paper_Space
  1

  0
ENDBLK
  5
1D
100
AcDbEntity
 67
1
  8
0
100
AcDbBlockEnd
  0
BLOCK
  5
24
100
AcDbEntity
  8
0
100
AcDbBlockBegin
  2
*Paper_Space0
 70
0
 10
0.0
 20
0.0
 30
0.0
  3
*Paper_Space0
  1

  0
ENDBLK
  5
25
100
AcDbEntity
  8
0
100
AcDbBlockEnd
  0
ENDSEC
  0
SECTION
  2
ENTITIES
  0
LINE
  5
6A
100
AcDbEntity
100
AcDbLine
  8
1478
 62
256
370
-1
 48
1.0
  6
ByLayer
 10
539441.07255812653
 20
4477828.6079462823
 30
1473.286010742188
 11
539444.23721278913
 21
4477829.7978136679
 31
1474.0
  0
LINE
  5
6B
100
AcDbEntity
100
AcDbLine
  8
1478
 62
256
370
-1
 48
1.0
  6
ByLayer
 10
539444.23721278913
 20
4477829.7978136679
 30
1474.0
 11
539445.59281602921
 21
4477831.7205911679
 31
1474.6689453125
  0
LINE
  5
6C
100
AcDbEntity
100
AcDbLine
  8
1478
 62
256
370
-1
 48
1.0
  6
ByLayer
 10
539445.59281602921
 20
4477831.7205911679
 30
1474.6689453125
 11
539444.24331321404
 21
4477835.1554872962
 31
1477.52001953125
  0
LINE
  5
6D
100
AcDbEntity
100
AcDbLine
  8
1478
 62
256
370
-1
 48
1.0
  6
ByLayer
 10
539444.24331321404
 20
4477835.1554872962
 30
1477.52001953125
 11
539441.9961738874
 21
4477836.9246434551
 31
1476.670043945312
  0
LINE
  5
6E
100
AcDbEntity
100
AcDbLine
  8
1478
 62
256
370
-1
 48
1.0
  6
ByLayer
 10
539440.53754882806
 20
4477841.0521636261
 30
1477.599975585938
 11
539444.32240252697
 21
4477839.802848422
 31
1476.83203125
  0
LINE
  5
6F
100
AcDbEntity
100
AcDbLine
  8
1478
 62
256
370
-1
 48
1.0
  6
ByLayer
 10
539444.32240252697
 20
4477839.802848422
 30
1476.83203125
 11
539448.2954352774
 21
4477843.3359191269
 31
1477.265991210938
  0
LINE
  5
70
100
AcDbEntity
100
AcDbLine
  8
1478
 62
256
370
-1
 48
1.0
  6
ByLayer
 10
539448.2954352774
 20
4477843.3359191269
 30
1477.265991210938
 11
539451.17804845062
 21
4477841.7743279664
 31
1477.069946289062
  0
LINE
  5
71
100
AcDbEntity
100
AcDbLine
  8
1478
 62
256
370
-1
 48
1.0
  6
ByLayer
 10
539451.17804845062
 20
4477841.7743279664
 30
1477.069946289062
 11
539451.73030405701
 21
4477839.1008165516
 31
1476.234985351562
  0
LINE
  5
72
100
AcDbEntity
100
AcDbLine
  8
1478
 62
256
370
-1
 48
1.0
  6
ByLayer
 10
539451.73030405701
 20
4477839.1008165516
 30
1476.234985351562
 11
539452.57626030652
 21
4477838.5449347328
 31
1475.130004882812
  0
LINE
  5
73
100
AcDbEntity
100
AcDbLine
  8
1478
 62
256
370
-1
 48
1.0
  6
ByLayer
 10
539452.57626030652
 20
4477838.5449347328
 30
1475.130004882812
 11
539458.91259499476
 21
4477842.709852349
 31
1475.598999023438
  0
LINE
  5
74
100
AcDbEntity
100
AcDbLine
  8
1478
 62
256
370
-1
 48
1.0
  6
ByLayer
 10
539458.91259499476
 20
4477842.709852349
 30
1475.598999023438
 11
539463.6557916454
 21
4477845.8266196828
 31
1475.703979492188
  0
LINE
  5
75
100
AcDbEntity
100
AcDbLine
  8
1478
 62
256
370
-1
 48
1.0
  6
ByLayer
 10
539463.6557916454
 20
4477845.8266196828
 30
1475.703979492188
 11
539467.61073725799
 21
4477847.5666039744
 31
1475.77294921875
  0
LINE
  5
76
100
AcDbEntity
100
AcDbLine
  8
1478
 62
256
370
-1
 48
1.0
  6
ByLayer
 10
539467.61073725799
 20
4477847.5666039744
 30
1475.77294921875
 11
539471.51782739477
 21
4477849.558883789
 31
1475.715942382812
  0
LINE
  5
77
100
AcDbEntity
100
AcDbLine
  8
1478
 62
256
370
-1
 48
1.0
  6
ByLayer
 10
539471.51782739477
 20
4477849.558883789
 30
1475.715942382812
 11
539476.84061960049
 21
4477853.7263282612
 31
1475.81103515625
  0
LINE
  5
78
100
AcDbEntity
100
AcDbLine
  8
1478
 62
256
370
-1
 48
1.0
  6
ByLayer
 10
539476.84061960049
 20
4477853.7263282612
 30
1475.81103515625
 11
539480.47393770004
 21
4477857.0383511847
 31
1475.797973632812
  0
LINE
  5
79
100
AcDbEntity
100
AcDbLine
  8
1478
 62
256
370
-1
 48
1.0
  6
ByLayer
 10
539480.47393770004
 20
4477857.0383511847
 30
1475.797973632812
 11
539483.44784580451
 21
4477860.2679573698
 31
1476.16796875
  0
LINE
  5
7A
100
AcDbEntity
100
AcDbLine
  8
1478
 62
256
370
-1
 48
1.0
  6
ByLayer
 10
539483.44784580451
 20
4477860.2679573698
 30
1476.16796875
 11
539485.64627745654
 21
4477862.8073814772
 31
1476.193969726562
  0
LINE
  5
7B
100
AcDbEntity
100
AcDbLine
  8
1478
 62
256
370
-1
 48
1.0
  6
ByLayer
 10
539485.64627745654
 20
4477862.8073814772
 30
1476.193969726562
 11
539488.51679821697
 21
4477866.5796271423
 31
1476.5400390625
  0
LINE
  5
7C
100
AcDbEntity
100
AcDbLine
  8
1478
 62
256
370
-1
 48
1.0
  6
ByLayer
 10
539488.51679821697
 20
4477866.5796271423
 30
1476.5400390625
 11
539492.57208699069
 21
4477874.7800238486
 31
1476.474975585938
  0
LINE
  5
7D
100
AcDbEntity
100
AcDbLine
  8
1478
 62
256
370
-1
 48
1.0
  6
ByLayer
 10
539492.57208699069
 20
4477874.7800238486
 30
1476.474975585938
 11
539493.39043210912
 21
4477876.8822456328
 31
1476.442993164062
  0
LINE
  5
7E
100
AcDbEntity
100
AcDbLine
  8
1478
 62
256
370
-1
 48
1.0
  6
ByLayer
 10
539493.39043210912
 20
4477876.8822456328
 30
1476.442993164062
 11
539493.51215186145
 21
4477878.2806276856
 31
1476.3759765625
  0
LINE
  5
7F
100
AcDbEntity
100
AcDbLine
  8
1478
 62
256
370
-1
 48
1.0
  6
ByLayer
 10
539493.51215186145
 20
4477878.2806276856
 30
1476.3759765625
 11
539493.0029813234
 21
4477880.7288722368
 31
1476.45703125
  0
LINE
  5
80
100
AcDbEntity
100
AcDbLine
  8
1478
 62
256
370
-1
 48
1.0
  6
ByLayer
 10
539488.34619166213
 20
4477859.7279720558
 30
1476.170043945312
 11
539482.27210351569
 21
4477853.3487881524
 31
1475.942993164062
  0
LINE
  5
81
100
AcDbEntity
100
AcDbLine
  8
1478
 62
256
370
-1
 48
1.0
  6
ByLayer
 10
539482.27210351569
 20
4477853.3487881524
 30
1475.942993164062
 11
539475.71061695158
 21
4477848.0852314793
 31
1475.8759765625
  0
LINE
  5
82
100
AcDbEntity
100
AcDbLine
  8
1478
 62
256
370
-1
 48
1.0
  6
ByLayer
 10
539475.71061695158
 20
4477848.0852314793
 30
1475.8759765625
 11
539469.59219669353
 21
4477844.5152277173
 31
1475.761962890625
  0
LINE
  5
83
100
AcDbEntity
100
AcDbLine
  8
1478
 62
256
370
-1
 48
1.0
  6
ByLayer
 10
539469.59219669353
 20
4477844.5152277173
 30
1475.761962890625
 11
539464.46626760962
 21
4477841.4106755015
 31
1475.39404296875
  0
LINE
  5
84
100
AcDbEntity
100
AcDbLine
  8
1478
 62
256
370
-1
 48
1.0
  6
ByLayer
 10
539464.46626760962
 20
4477841.4106755015
 30
1475.39404296875
 11
539457.01333861018
 21
4477836.2865602029
 31
1475.27099609375
  0
LINE
  5
85
100
AcDbEntity
100
AcDbLine
  8
1478
 62
256
370
-1
 48
1.0
  6
ByLayer
 10
539457.01333861018
 20
4477836.2865602029
 30
1475.27099609375
 11
539455.11712596042
 21
4477833.0758782662
 31
1475.119018554688
  0
LINE
  5
86
100
AcDbEntity
100
AcDbLine
  8
1478
 62
256
370
-1
 48
1.0
  6
ByLayer
 10
539455.11712596042
 20
4477833.0758782662
 30
1475.119018554688
 11
539453.19360427826
 21
4477830.3022405272
 31
1475.385009765625
  0
LINE
  5
87
100
AcDbEntity
100
AcDbLine
  8
1478
 62
256
370
-1
 48
1.0
  6
ByLayer
 10
539451.72474392876
 20
4477779.0463643922
 30
1491.400024414062
 11
539455.32257447264
 21
4477783.7241059784
 31
1492.219970703125
  0
LINE
  5
88
100
AcDbEntity
100
AcDbLine
  8
1478
 62
256
370
-1
 48
1.0
  6
ByLayer
 10
539455.32257447264
 20
4477783.7241059784
 30
1492.219970703125
 11
539462.25298301887
 21
4477792.4420916839
 31
1494.0400390625
  0
LINE
  5
89
100
AcDbEntity
100
AcDbLine
  8
1478
 62
256
370
-1
 48
1.0
  6
ByLayer
 10
539450.65844714595
 20
4477812.8109986447
 30
1478.911010742188
 11
539453.29884922784
 21
4477824.7537110774
 31
1475.819946289062
  0
LINE
  5
8A
100
AcDbEntity
100
AcDbLine
  8
1478
 62
256
370
-1
 48
1.0
  6
ByLayer
 10
539453.29884922784
 20
4477824.7537110774
 30
1475.819946289062
 11
539453.19360427826
 21
4477830.3022405272
 31
1475.385009765625
  0
LINE
  5
8B
100
AcDbEntity
100
AcDbLine
  8
1478
 62
256
370
-1
 48
1.0
  6
ByLayer
 10
539445.91234359215
 20
4477781.7901047627
 30
1490.56494140625
 11
539447.67606067588
 21
4477783.6284842361
 31
1491.079956054688
  0
LINE
  5
8C
100
AcDbEntity
100
AcDbLine
  8
1478
 62
256
370
-1
 48
1.0
  6
ByLayer
 10
539447.67606067588
 20
4477783.6284842361
 30
1491.079956054688
 11
539447.88627053052
 21
4477784.7332464168
 31
1491.349975585938
  0
LINE
  5
8D
100
AcDbEntity
100
AcDbLine
  8
1478
 62
256
370
-1
 48
1.0
  6
ByLayer
 10
539447.88627053052
 20
4477784.7332464168
 30
1491.349975585938
 11
539447.13362343737
 21
4477786.2809219873
 31
1491.680053710938
  0
LINE
  5
8E
100
AcDbEntity
100
AcDbLine
  8
1478
 62
256
370
-1
 48
1.0
  6
ByLayer
 10
539447.13362343737
 20
4477786.2809219873
 30
1491.680053710938
 11
539443.57940715249
 21
4477787.9741081269
 31
1491.670043945312
  0
LINE
  5
8F
100
AcDbEntity
100
AcDbLine
  8
1478
 62
256
370
-1
 48
1.0
  6
ByLayer
 10
539445.38569989579
 20
4477791.308494118
 30
1491.670043945312
 11
539452.79666061583
 21
4477789.3069883082
 31
1492.829956054688
  0
LINE
  5
90
100
AcDbEntity
100
AcDbLine
  8
1478
 62
256
370
-1
 48
1.0
  6
ByLayer
 10
539452.79666061583
 20
4477789.3069883082
 30
1492.829956054688
 11
539455.21623023355
 21
4477790.0922966171
 31
1493.130004882812
  0
LINE
  5
91
100
AcDbEntity
100
AcDbLine
  8
1478
 62
256
370
-1
 48
1.0
  6
ByLayer
 10
539442.89389608894
 20
4477824.8212295324
 30
1473.869995117188
 11
539447.64665105822
 21
4477825.7478464507
 31
1475.430053710938
  0
LINE
  5
92
100
AcDbEntity
100
AcDbLine
  8
1478
 62
256
370
-1
 48
1.0
  6
ByLayer
 10
539447.64665105822
 20
4477825.7478464507
 30
1475.430053710938
 11
539447.11387328827
 21
4477816.719163103
 31
1477.72998046875
  0
LINE
  5
93
100
AcDbEntity
100
AcDbLine
  8
1478
 62
256
370
-1
 48
1.0
  6
ByLayer
 10
539443.57940715249
 20
4477787.9741081269
 30
1491.670043945312
 11
539445.38569989579
 21
4477791.308494118
 31
1491.670043945312
  0
LINE
  5
94
100
AcDbEntity
100
AcDbLine
  8
1478
 62
256
370
-1
 48
1.0
  6
ByLayer
 10
539488.34619166213
 20
4477859.7279720558
 30
1476.170043945312
 11
539489.1347026194
 21
4477860.8029640643
 31
1476.103149414062
  0
LINE
  5
95
100
AcDbEntity
100
AcDbLine
  8
1478
 62
256
370
-1
 48
1.0
  6
ByLayer
 10
539489.1347026194
 20
4477860.8029640643
 30
1476.103149414062
 11
539489.98786797316
 21
4477861.9927132521
 31
1476.178466796875
  0
LINE
  5
96
100
AcDbEntity
100
AcDbLine
  8
1478
 62
256
370
-1
 48
1.0
  6
ByLayer
 10
539489.98786797316
 20
4477861.9927132521
 30
1476.178466796875
 11
539491.76917343074
 21
4477862.4715412213
 31
1476.103149414062
  0
LINE
  5
97
100
AcDbEntity
100
AcDbLine
  8
1478
 62
256
370
-1
 48
1.0
  6
ByLayer
 10
539491.76917343074
 20
4477862.4715412213
 30
1476.103149414062
 11
539493.62075224856
 21
4477862.6025030892
 31
1476.418212890625
  0
LINE
  5
98
100
AcDbEntity
100
AcDbLine
  8
1478
 62
256
370
-1
 48
1.0
  6
ByLayer
 10
539493.62075224856
 20
4477862.6025030892
 30
1476.418212890625
 11
539496.48393824743
 21
4477862.2279654853
 31
1476.703491210938
  0
LINE
  5
99
100
AcDbEntity
100
AcDbLine
  8
1478
 62
256
370
-1
 48
1.0
  6
ByLayer
 10
539496.48393824743
 20
4477862.2279654853
 30
1476.703491210938
 11
539499.95268848422
 21
4477861.846534485
 31
1476.808349609375
  0
LINE
  5
9A
100
AcDbEntity
100
AcDbLine
  8
1478
 62
256
370
-1
 48
1.0
  6
ByLayer
 10
539499.95268848422
 20
4477861.846534485
 30
1476.808349609375
 11
539501.58245504228
 21
4477861.31324971
 31
1476.961181640625
  0
LINE
  5
9B
100
AcDbEntity
100
AcDbLine
  8
1478
 62
256
370
-1
 48
1.0
  6
ByLayer
 10
539502.60604718968
 20
4477865.8065327676
 30
1476.930786132812
 11
539500.02085272002
 21
4477866.2945286669
 31
1476.91064453125
  0
LINE
  5
9C
100
AcDbEntity
100
AcDbLine
  8
1478
 62
256
370
-1
 48
1.0
  6
ByLayer
 10
539500.02085272002
 20
4477866.2945286669
 30
1476.91064453125
 11
539499.55618909094
 21
4477866.922183115
 31
1476.91259765625
  0
LINE
  5
9D
100
AcDbEntity
100
AcDbLine
  8
1478
 62
256
370
-1
 48
1.0
  6
ByLayer
 10
539499.55618909094
 20
4477866.922183115
 30
1476.91259765625
 11
539497.5684077827
 21
4477866.1952507161
 31
1476.663696289062
  0
LINE
  5
9E
100
AcDbEntity
100
AcDbLine
  8
1478
 62
256
370
-1
 48
1.0
  6
ByLayer
 10
539497.5684077827
 20
4477866.1952507161
 30
1476.663696289062
 11
539496.53610973991
 21
4477866.1793500651
 31
1476.593627929688
  0
LINE
  5
9F
100
AcDbEntity
100
AcDbLine
  8
1478
 62
256
370
-1
 48
1.0
  6
ByLayer
 10
539496.53610973991
 20
4477866.1793500651
 30
1476.593627929688
 11
539495.42554121686
 21
4477866.6236723606
 31
1476.479614257812
  0
LINE
  5
A0
100
AcDbEntity
100
AcDbLine
  8
1478
 62
256
370
-1
 48
1.0
  6
ByLayer
 10
539495.42554121686
 20
4477866.6236723606
 30
1476.479614257812
 11
539494.21620808553
 21
4477868.5447275313
 31
1476.427856445312
  0
LINE
  5
A1
100
AcDbEntity
100
AcDbLine
  8
1478
 62
256
370
-1
 48
1.0
  6
ByLayer
 10
539494.21620808553
 20
4477868.5447275313
 30
1476.427856445312
 11
539494.34575509699
 21
4477869.7742567286
 31
1476.513916015625
  0
LINE
  5
A2
100
AcDbEntity
100
AcDbLine
  8
1478
 62
256
370
-1
 48
1.0
  6
ByLayer
 10
539502.60604718968
 20
4477865.8065327676
 30
1476.930786132812
 11
539505.54120471817
 21
4477865.6477128835
 31
1477.4453125
  0
LINE
  5
A3
100
AcDbEntity
100
AcDbLine
  8
1478
 62
256
370
-1
 48
1.0
  6
ByLayer
 10
539505.54120471817
 20
4477865.6477128835
 30
1477.4453125
 11
539506.46064783365
 21
4477865.117722203
 31
1477.4453125
  0
LINE
  5
A4
100
AcDbEntity
100
AcDbLine
  8
1478
 62
256
370
-1
 48
1.0
  6
ByLayer
 10
539506.46064783365
 20
4477865.117722203
 30
1477.4453125
 11
539508.48456080258
 21
4477864.6465161908
 31
1477.4453125
  0
LINE
  5
A5
100
AcDbEntity
100
AcDbLine
  8
1478
 62
256
370
-1
 48
1.0
  6
ByLayer
 10
539501.58245504228
 20
4477861.31324971
 30
1476.961181640625
 11
539503.50630712789
 21
4477860.7657723026
 31
1477.4453125
  0
LINE
  5
A6
100
AcDbEntity
100
AcDbLine
  8
1478
 62
256
370
-1
 48
1.0
  6
ByLayer
 10
539503.50630712789
 20
4477860.7657723026
 30
1477.4453125
 11
539505.40626771643
 21
4477860.6037468771
 31
1477.52734375
  0
LINE
  5
A7
100
AcDbEntity
100
AcDbLine
  8
1478
 62
256
370
-1
 48
1.0
  6
ByLayer
 10
539505.40626771643
 20
4477860.6037468771
 30
1477.52734375
 11
539508.63291330682
 21
4477859.6965159941
 31
1478.070190429688
  0
LINE
  5
A8
100
AcDbEntity
100
AcDbLine
  8
1478
 62
256
370
-1
 48
1.0
  6
ByLayer
 10
539508.63291330682
 20
4477859.6965159941
 30
1478.070190429688
 11
539510.82186301588
 21
4477858.7445954671
 31
1478.642456054688
  0
LINE
  5
A9
100
AcDbEntity
100
AcDbLine
  8
1478
 62
256
370
-1
 48
1.0
  6
ByLayer
 10
539512.57437259657
 20
4477862.6414120952
 30
1478.64794921875
 11
539509.5774362688
 21
4477864.1759038651
 31
1477.826538085938
  0
LINE
  5
AA
100
AcDbEntity
100
AcDbLine
  8
1478
 62
256
370
-1
 48
1.0
  6
ByLayer
 10
539509.5774362688
 20
4477864.1759038651
 30
1477.826538085938
 11
539508.48456080258
 21
4477864.6465161908
 31
1477.4453125
  0
LINE
  5
AB
100
AcDbEntity
100
AcDbLine
  8
1478
 62
256
370
-1
 48
1.0
  6
ByLayer
 10
539510.82186301588
 20
4477858.7445954671
 30
1478.642456054688
 11
539513.59888614086
 21
4477856.64401941
 31
1479.43017578125
  0
LINE
  5
AC
100
AcDbEntity
100
AcDbLine
  8
1478
 62
256
370
-1
 48
1.0
  6
ByLayer
 10
539513.59888614086
 20
4477856.64401941
 30
1479.43017578125
 11
539515.22235647601
 21
4477855.4715797752
 31
1479.838256835938
  0
LINE
  5
AD
100
AcDbEntity
100
AcDbLine
  8
1478
 62
256
370
-1
 48
1.0
  6
ByLayer
 10
539518.73618027044
 20
4477859.3784040818
 30
1479.970825195312
 11
539515.89208436105
 21
4477860.9481833177
 31
1479.409790039062
  0
LINE
  5
AE
100
AcDbEntity
100
AcDbLine
  8
1478
 62
256
370
-1
 48
1.0
  6
ByLayer
 10
539515.89208436105
 20
4477860.9481833177
 30
1479.409790039062
 11
539512.57437259657
 21
4477862.6414120952
 31
1478.64794921875
  0
LINE
  5
AF
100
AcDbEntity
100
AcDbLine
  8
1478
 62
256
370
-1
 48
1.0
  6
ByLayer
 10
539455.21623023355
 20
4477790.0922966171
 30
1493.130004882812
 11
539457.07052961725
 21
4477791.9208777426
 31
1492.685546875
  0
LINE
  5
B0
100
AcDbEntity
100
AcDbLine
  8
1478
 62
256
370
-1
 48
1.0
  6
ByLayer
 10
539478.24346910615
 20
4477800.0463992171
 30
1496.5
 11
539477.3449170969
 21
4477800.9430493843
 31
1495.604248046875
  0
LINE
  5
B1
100
AcDbEntity
100
AcDbLine
  8
1478
 62
256
370
-1
 48
1.0
  6
ByLayer
 10
539477.3449170969
 20
4477800.9430493843
 30
1495.604248046875
 11
539476.2428434476
 21
4477802.2646352118
 31
1495.284057617188
  0
LINE
  5
B2
100
AcDbEntity
100
AcDbLine
  8
1478
 62
256
370
-1
 48
1.0
  6
ByLayer
 10
539476.2428434476
 20
4477802.2646352118
 30
1495.284057617188
 11
539476.17806553817
 21
4477803.7739558099
 31
1494.900512695312
  0
LINE
  5
B3
100
AcDbEntity
100
AcDbLine
  8
1478
 62
256
370
-1
 48
1.0
  6
ByLayer
 10
539476.17806553817
 20
4477803.7739558099
 30
1494.900512695312
 11
539476.97385207738
 21
4477805.5206909627
 31
1494.606567382812
  0
LINE
  5
B4
100
AcDbEntity
100
AcDbLine
  8
1478
 62
256
370
-1
 48
1.0
  6
ByLayer
 10
539472.67542709992
 20
4477804.8287282959
 30
1494.5947265625
 11
539472.20041912352
 21
4477801.4147348069
 31
1495.2666015625
  0
LINE
  5
B5
100
AcDbEntity
100
AcDbLine
  8
1478
 62
256
370
-1
 48
1.0
  6
ByLayer
 10
539515.22235647601
 20
4477855.4715797752
 30
1479.838256835938
 11
539516.28054554947
 21
4477854.951686128
 31
1480.188232421875
  0
LINE
  5
B6
100
AcDbEntity
100
AcDbLine
  8
1478
 62
256
370
-1
 48
1.0
  6
ByLayer
 10
539516.28054554947
 20
4477854.951686128
 30
1480.188232421875
 11
539517.94670140336
 21
4477852.7481423067
 31
1480.723510742188
  0
LINE
  5
B7
100
AcDbEntity
100
AcDbLine
  8
1478
 62
256
370
-1
 48
1.0
  6
ByLayer
 10
539517.94670140336
 20
4477852.7481423067
 30
1480.723510742188
 11
539518.67132553679
 21
4477849.7269059978
 31
1481.079345703125
  0
LINE
  5
B8
100
AcDbEntity
100
AcDbLine
  8
1478
 62
256
370
-1
 48
1.0
  6
ByLayer
 10
539518.67132553679
 20
4477849.7269059978
 30
1481.079345703125
 11
539518.84776401951
 21
4477846.2653350187
 31
1481.27685546875
  0
LINE
  5
B9
100
AcDbEntity
100
AcDbLine
  8
1478
 62
256
370
-1
 48
1.0
  6
ByLayer
 10
539518.84776401951
 20
4477846.2653350187
 30
1481.27685546875
 11
539518.8200789335
 21
4477844.2714996776
 31
1481.344604492188
  0
LINE
  5
BA
100
AcDbEntity
100
AcDbLine
  8
1478
 62
256
370
-1
 48
1.0
  6
ByLayer
 10
539520.03222303139
 20
4477836.534575508
 30
1481.93115234375
 11
539520.7253513902
 21
4477837.3892521849
 31
1481.87109375
  0
LINE
  5
BB
100
AcDbEntity
100
AcDbLine
  8
1478
 62
256
370
-1
 48
1.0
  6
ByLayer
 10
539520.7253513902
 20
4477837.3892521849
 30
1481.87109375
 11
539521.83271971636
 21
4477837.6405630223
 31
1481.846801757812
  0
LINE
  5
BC
100
AcDbEntity
100
AcDbLine
  8
1478
 62
256
370
-1
 48
1.0
  6
ByLayer
 10
539521.83271971636
 20
4477837.6405630223
 30
1481.846801757812
 11
539522.59181851358
 21
4477840.3643231429
 31
1481.578125
  0
LINE
  5
BD
100
AcDbEntity
100
AcDbLine
  8
1478
 62
256
370
-1
 48
1.0
  6
ByLayer
 10
539522.59181851358
 20
4477840.3643231429
 30
1481.578125
 11
539523.50396141945
 21
4477841.3058679281
 31
1481.597412109375
  0
LINE
  5
BE
100
AcDbEntity
100
AcDbLine
  8
1478
 62
256
370
-1
 48
1.0
  6
ByLayer
 10
539523.50396141945
 20
4477841.3058679281
 30
1481.597412109375
 11
539523.89880367438
 21
4477843.2411281411
 31
1481.423950195312
  0
LINE
  5
BF
100
AcDbEntity
100
AcDbLine
  8
1478
 62
256
370
-1
 48
1.0
  6
ByLayer
 10
539523.89880367438
 20
4477843.2411281411
 30
1481.423950195312
 11
539524.6149229391
 21
4477844.164578585
 31
1481.48486328125
  0
LINE
  5
C0
100
AcDbEntity
100
AcDbLine
  8
1478
 62
256
370
-1
 48
1.0
  6
ByLayer
 10
539524.6149229391
 20
4477844.164578585
 30
1481.48486328125
 11
539524.40929896256
 21
4477846.1107306927
 31
1481.434692382812
  0
LINE
  5
C1
100
AcDbEntity
100
AcDbLine
  8
1478
 62
256
370
-1
 48
1.0
  6
ByLayer
 10
539524.40929896256
 20
4477846.1107306927
 30
1481.434692382812
 11
539523.85610907176
 21
4477848.6542513724
 31
1481.165771484375
  0
LINE
  5
C2
100
AcDbEntity
100
AcDbLine
  8
1478
 62
256
370
-1
 48
1.0
  6
ByLayer
 10
539523.85610907176
 20
4477848.6542513724
 30
1481.165771484375
 11
539523.43326600769
 21
4477852.3662246848
 31
1481.009155273438
  0
LINE
  5
C3
100
AcDbEntity
100
AcDbLine
  8
1478
 62
256
370
-1
 48
1.0
  6
ByLayer
 10
539523.43326600769
 20
4477852.3662246848
 30
1481.009155273438
 11
539522.61697835301
 21
4477855.0064065671
 31
1480.988647460938
  0
LINE
  5
C4
100
AcDbEntity
100
AcDbLine
  8
1478
 62
256
370
-1
 48
1.0
  6
ByLayer
 10
539522.61697835301
 20
4477855.0064065671
 30
1480.988647460938
 11
539522.37486935046
 21
4477856.5819006208
 31
1480.852172851562
  0
LINE
  5
C5
100
AcDbEntity
100
AcDbLine
  8
1478
 62
256
370
-1
 48
1.0
  6
ByLayer
 10
539522.37486935046
 20
4477856.5819006208
 30
1480.852172851562
 11
539520.40083480335
 21
4477858.0938077439
 31
1480.352172851562
  0
LINE
  5
C6
100
AcDbEntity
100
AcDbLine
  8
1478
 62
256
370
-1
 48
1.0
  6
ByLayer
 10
539520.40083480335
 20
4477858.0938077439
 30
1480.352172851562
 11
539518.73618027044
 21
4477859.3784040818
 31
1479.970825195312
  0
LINE
  5
C7
100
AcDbEntity
100
AcDbLine
  8
1478
 62
256
370
-1
 48
1.0
  6
ByLayer
 10
539472.67542709992
 20
4477804.8287282959
 30
1494.5947265625
 11
539474.1946281998
 21
4477808.3972693281
 31
1493.912231445312
  0
LINE
  5
C8
100
AcDbEntity
100
AcDbLine
  8
1478
 62
256
370
-1
 48
1.0
  6
ByLayer
 10
539474.1946281998
 20
4477808.3972693281
 30
1493.912231445312
 11
539475.02459583897
 21
4477812.8402704103
 31
1493.024658203125
  0
LINE
  5
C9
100
AcDbEntity
100
AcDbLine
  8
1478
 62
256
370
-1
 48
1.0
  6
ByLayer
 10
539475.02459583897
 20
4477812.8402704103
 30
1493.024658203125
 11
539475.88235390547
 21
4477816.6817024341
 31
1492.120727539062
  0
LINE
  5
CA
100
AcDbEntity
100
AcDbLine
  8
1478
 62
256
370
-1
 48
1.0
  6
ByLayer
 10
539479.16657671088
 20
4477815.9517039377
 30
1492.179443359375
 11
539478.85000677675
 21
4477812.6679615192
 31
1492.965454101562
  0
LINE
  5
CB
100
AcDbEntity
100
AcDbLine
  8
1478
 62
256
370
-1
 48
1.0
  6
ByLayer
 10
539478.85000677675
 20
4477812.6679615192
 30
1492.965454101562
 11
539478.27433780092
 21
4477809.3464319026
 31
1493.503784179688
  0
LINE
  5
CC
100
AcDbEntity
100
AcDbLine
  8
1478
 62
256
370
-1
 48
1.0
  6
ByLayer
 10
539478.27433780092
 20
4477809.3464319026
 30
1493.503784179688
 11
539477.82951395388
 21
4477807.918576722
 31
1493.902221679688
  0
LINE
  5
CD
100
AcDbEntity
100
AcDbLine
  8
1478
 62
256
370
-1
 48
1.0
  6
ByLayer
 10
539477.82951395388
 20
4477807.918576722
 30
1493.902221679688
 11
539477.97945742402
 21
4477807.0262200134
 31
1494.10107421875
  0
LINE
  5
CE
100
AcDbEntity
100
AcDbLine
  8
1478
 62
256
370
-1
 48
1.0
  6
ByLayer
 10
539520.03222303139
 20
4477836.534575508
 30
1481.93115234375
 11
539518.92165641906
 21
4477836.0572513482
 31
1482.06787109375
  0
LINE
  5
CF
100
AcDbEntity
100
AcDbLine
  8
1478
 62
256
370
-1
 48
1.0
  6
ByLayer
 10
539518.92165641906
 20
4477836.0572513482
 30
1482.06787109375
 11
539516.88555298781
 21
4477834.2181435199
 31
1482.41015625
  0
LINE
  5
D0
100
AcDbEntity
100
AcDbLine
  8
1478
 62
256
370
-1
 48
1.0
  6
ByLayer
 10
539516.88555298781
 20
4477834.2181435199
 30
1482.41015625
 11
539515.85285501229
 21
4477834.2449264936
 31
1482.316040039062
  0
LINE
  5
D1
100
AcDbEntity
100
AcDbLine
  8
1478
 62
256
370
-1
 48
1.0
  6
ByLayer
 10
539479.16657671088
 20
4477815.9517039377
 30
1492.179443359375
 11
539479.75374251115
 21
4477818.6458742889
 31
1491.514282226562
  0
LINE
  5
D2
100
AcDbEntity
100
AcDbLine
  8
1478
 62
256
370
-1
 48
1.0
  6
ByLayer
 10
539479.75374251115
 20
4477818.6458742889
 30
1491.514282226562
 11
539480.47225163318
 21
4477824.0114207482
 31
1490.306396484375
  0
LINE
  5
D3
100
AcDbEntity
100
AcDbLine
  8
1478
 62
256
370
-1
 48
1.0
  6
ByLayer
 10
539480.47225163318
 20
4477824.0114207482
 30
1490.306396484375
 11
539480.71115265181
 21
4477826.8882187651
 31
1489.488037109375
  0
LINE
  5
D4
100
AcDbEntity
100
AcDbLine
  8
1478
 62
256
370
-1
 48
1.0
  6
ByLayer
 10
539480.71115265181
 20
4477826.8882187651
 30
1489.488037109375
 11
539481.60989928956
 21
4477828.5450890614
 31
1489.307250976562
  0
LINE
  5
D5
100
AcDbEntity
100
AcDbLine
  8
1478
 62
256
370
-1
 48
1.0
  6
ByLayer
 10
539481.60989928956
 20
4477828.5450890614
 30
1489.307250976562
 11
539483.38260570914
 21
4477830.1745755794
 31
1488.824951171875
  0
LINE
  5
D6
100
AcDbEntity
100
AcDbLine
  8
1478
 62
256
370
-1
 48
1.0
  6
ByLayer
 10
539483.38260570914
 20
4477830.1745755794
 30
1488.824951171875
 11
539484.60102880991
 21
4477831.383519792
 31
1488.288330078125
  0
LINE
  5
D7
100
AcDbEntity
100
AcDbLine
  8
1478
 62
256
370
-1
 48
1.0
  6
ByLayer
 10
539484.60102880991
 20
4477831.383519792
 30
1488.288330078125
 11
539486.81706322893
 21
4477832.7196217487
 31
1488.059692382812
  0
LINE
  5
D8
100
AcDbEntity
100
AcDbLine
  8
1478
 62
256
370
-1
 48
1.0
  6
ByLayer
 10
539482.2636341888
 20
4477833.6419381723
 30
1488.284301757812
 11
539479.54749479447
 21
4477832.1567901196
 31
1488.676513671875
  0
LINE
  5
D9
100
AcDbEntity
100
AcDbLine
  8
1478
 62
256
370
-1
 48
1.0
  6
ByLayer
 10
539479.54749479447
 20
4477832.1567901196
 30
1488.676513671875
 11
539478.54138873005
 21
4477831.0912922667
 31
1488.900756835938
  0
LINE
  5
DA
100
AcDbEntity
100
AcDbLine
  8
1478
 62
256
370
-1
 48
1.0
  6
ByLayer
 10
539478.54138873005
 20
4477831.0912922667
 30
1488.900756835938
 11
539477.32546329114
 21
4477830.5409954116
 31
1489.041259765625
  0
LINE
  5
DB
100
AcDbEntity
100
AcDbLine
  8
1478
 62
256
370
-1
 48
1.0
  6
ByLayer
 10
539477.32546329114
 20
4477830.5409954116
 30
1489.041259765625
 11
539477.24390134704
 21
4477827.5032601608
 31
1489.384887695312
  0
LINE
  5
DC
100
AcDbEntity
100
AcDbLine
  8
1478
 62
256
370
-1
 48
1.0
  6
ByLayer
 10
539477.24390134704
 20
4477827.5032601608
 30
1489.384887695312
 11
539476.07207337953
 21
4477819.8923720559
 31
1491.551635742188
  0
LINE
  5
DD
100
AcDbEntity
100
AcDbLine
  8
1478
 62
256
370
-1
 48
1.0
  6
ByLayer
 10
539476.07207337953
 20
4477819.8923720559
 30
1491.551635742188
 11
539475.88235390547
 21
4477816.6817024341
 31
1492.120727539062
  0
LINE
  5
DE
100
AcDbEntity
100
AcDbLine
  8
1478
 62
256
370
-1
 48
1.0
  6
ByLayer
 10
539482.2636341888
 20
4477833.6419381723
 30
1488.284301757812
 11
539483.26914084575
 21
4477834.5342024714
 31
1488.086059570312
  0
LINE
  5
DF
100
AcDbEntity
100
AcDbLine
  8
1478
 62
256
370
-1
 48
1.0
  6
ByLayer
 10
539483.26914084575
 20
4477834.5342024714
 30
1488.086059570312
 11
539485.97718286444
 21
4477836.2738528457
 31
1487.675903320312
  0
LINE
  5
E0
100
AcDbEntity
100
AcDbLine
  8
1478
 62
256
370
-1
 48
1.0
  6
ByLayer
 10
539485.97718286444
 20
4477836.2738528457
 30
1487.675903320312
 11
539487.41022500664
 21
4477836.2277798885
 31
1487.495361328125
  0
LINE
  5
E1
100
AcDbEntity
100
AcDbLine
  8
1478
 62
256
370
-1
 48
1.0
  6
ByLayer
 10
539487.41022500664
 20
4477836.2277798885
 30
1487.495361328125
 11
539489.94283850514
 21
4477836.4357166858
 31
1486.71142578125
  0
LINE
  5
E2
100
AcDbEntity
100
AcDbLine
  8
1478
 62
256
370
-1
 48
1.0
  6
ByLayer
 10
539489.94283850514
 20
4477836.4357166858
 30
1486.71142578125
 11
539492.90028640488
 21
4477836.7352211326
 31
1486.377685546875
  0
LINE
  5
E3
100
AcDbEntity
100
AcDbLine
  8
1478
 62
256
370
-1
 48
1.0
  6
ByLayer
 10
539493.45038022671
 20
4477832.8775045564
 30
1486.484375
 11
539488.96922538802
 21
4477832.6708545284
 31
1487.376342773438
  0
LINE
  5
E4
100
AcDbEntity
100
AcDbLine
  8
1478
 62
256
370
-1
 48
1.0
  6
ByLayer
 10
539488.96922538802
 20
4477832.6708545284
 30
1487.376342773438
 11
539486.81706322893
 21
4477832.7196217487
 31
1488.059692382812
  0
LINE
  5
E5
100
AcDbEntity
100
AcDbLine
  8
1478
 62
256
370
-1
 48
1.0
  6
ByLayer
 10
539493.45038022671
 20
4477832.8775045564
 30
1486.484375
 11
539498.62416627666
 21
4477832.6569230026
 31
1484.770385742188
  0
LINE
  5
E6
100
AcDbEntity
100
AcDbLine
  8
1478
 62
256
370
-1
 48
1.0
  6
ByLayer
 10
539498.62416627666
 20
4477832.6569230026
 30
1484.770385742188
 11
539505.47829853161
 21
4477832.2209350672
 31
1482.766967773438
  0
LINE
  5
E7
100
AcDbEntity
100
AcDbLine
  8
1478
 62
256
370
-1
 48
1.0
  6
ByLayer
 10
539505.47829853161
 20
4477832.2209350672
 30
1482.766967773438
 11
539510.36889486958
 21
4477831.9863570286
 31
1482.3857421875
  0
LINE
  5
E8
100
AcDbEntity
100
AcDbLine
  8
1478
 62
256
370
-1
 48
1.0
  6
ByLayer
 10
539510.36889486958
 20
4477831.9863570286
 30
1482.3857421875
 11
539512.65100401477
 21
4477833.1040432043
 31
1482.25390625
  0
LINE
  5
E9
100
AcDbEntity
100
AcDbLine
  8
1478
 62
256
370
-1
 48
1.0
  6
ByLayer
 10
539512.65100401477
 20
4477833.1040432043
 30
1482.25390625
 11
539513.98678477376
 21
4477832.6975078853
 31
1482.404052734375
  0
LINE
  5
EA
100
AcDbEntity
100
AcDbLine
  8
1478
 62
256
370
-1
 48
1.0
  6
ByLayer
 10
539513.98678477376
 20
4477832.6975078853
 30
1482.404052734375
 11
539515.85285501229
 21
4477834.2449264936
 31
1482.316040039062
  0
LINE
  5
EB
100
AcDbEntity
100
AcDbLine
  8
1478
 62
256
370
-1
 48
1.0
  6
ByLayer
 10
539492.90028640488
 20
4477836.7352211326
 30
1486.377685546875
 11
539495.93810417678
 21
4477836.4735413752
 31
1485.329345703125
  0
LINE
  5
EC
100
AcDbEntity
100
AcDbLine
  8
1478
 62
256
370
-1
 48
1.0
  6
ByLayer
 10
539495.93810417678
 20
4477836.4735413752
 30
1485.329345703125
 11
539501.86529691669
 21
4477836.2390700746
 31
1483.550659179688
  0
LINE
  5
ED
100
AcDbEntity
100
AcDbLine
  8
1478
 62
256
370
-1
 48
1.0
  6
ByLayer
 10
539501.86529691669
 20
4477836.2390700746
 30
1483.550659179688
 11
539507.60946172872
 21
4477835.6141473548
 31
1482.521240234375
  0
LINE
  5
EE
100
AcDbEntity
100
AcDbLine
  8
1478
 62
256
370
-1
 48
1.0
  6
ByLayer
 10
539507.60946172872
 20
4477835.6141473548
 30
1482.521240234375
 11
539510.00812598597
 21
4477836.4944253657
 31
1482.411254882812
  0
LINE
  5
EF
100
AcDbEntity
100
AcDbLine
  8
1478
 62
256
370
-1
 48
1.0
  6
ByLayer
 10
539510.00812598597
 20
4477836.4944253657
 30
1482.411254882812
 11
539511.57051467872
 21
4477837.9373820592
 31
1482.377685546875
  0
LINE
  5
F0
100
AcDbEntity
100
AcDbLine
  8
1478
 62
256
370
-1
 48
1.0
  6
ByLayer
 10
539511.57051467872
 20
4477837.9373820592
 30
1482.377685546875
 11
539513.34322369308
 21
4477838.3153486624
 31
1482.3251953125
  0
LINE
  5
F1
100
AcDbEntity
100
AcDbLine
  8
1478
 62
256
370
-1
 48
1.0
  6
ByLayer
 10
539513.34322369308
 20
4477838.3153486624
 30
1482.3251953125
 11
539516.15492566326
 21
4477839.9048573049
 31
1482.43994140625
  0
LINE
  5
F2
100
AcDbEntity
100
AcDbLine
  8
1478
 62
256
370
-1
 48
1.0
  6
ByLayer
 10
539516.15492566326
 20
4477839.9048573049
 30
1482.43994140625
 11
539518.59866802208
 21
4477842.8815314258
 31
1481.388305664062
  0
LINE
  5
F3
100
AcDbEntity
100
AcDbLine
  8
1478
 62
256
370
-1
 48
1.0
  6
ByLayer
 10
539518.59866802208
 20
4477842.8815314258
 30
1481.388305664062
 11
539518.8200789335
 21
4477844.2714996776
 31
1481.344604492188
  0
LINE
  5
F4
100
AcDbEntity
100
AcDbLine
  8
1478
 62
256
370
-1
 48
1.0
  6
ByLayer
 10
539494.34575509699
 20
4477869.7742567286
 30
1476.513916015625
 11
539497.33100000012
 21
4477876.4611999998
 31
1476.800048828125
  0
LINE
  5
F5
100
AcDbEntity
100
AcDbLine
  8
1478
 62
256
370
-1
 48
1.0
  6
ByLayer
 10
539497.33100000012
 20
4477876.4611999998
 30
1476.800048828125
 11
539497.86159999995
 21
4477877.5006999997
 31
1476.800048828125
  0
LINE
  5
F6
100
AcDbEntity
100
AcDbLine
  8
1478
 62
256
370
-1
 48
1.0
  6
ByLayer
 10
539497.86159999995
 20
4477877.5006999997
 30
1476.800048828125
 11
539498.59239999996
 21
4477877.6973999999
 31
1476.800048828125
  0
LINE
  5
F7
100
AcDbEntity
100
AcDbLine
  8
1478
 62
256
370
-1
 48
1.0
  6
ByLayer
 10
539471.3138
 20
4477800.4319000002
 30
1497.100952148438
 11
539472.20041912352
 21
4477801.4147348069
 31
1495.2666015625
  0
LINE
  5
F8
100
AcDbEntity
100
AcDbLine
  8
1478
 62
256
370
-1
 48
1.0
  6
ByLayer
 10
539471.3138
 20
4477800.4319000002
 30
1497.100952148438
 11
539468.81039999996
 21
4477801.7306000004
 31
1497.486206054688
  0
LINE
  5
F9
100
AcDbEntity
100
AcDbLine
  8
1478
 62
256
370
-1
 48
1.0
  6
ByLayer
 10
539465.8075
 20
4477804.6712999986
 30
1498.0224609375
 11
539462.33270000014
 21
4477808.3420000002
 31
1499.664428710938
  0
LINE
  5
FA
100
AcDbEntity
100
AcDbLine
  8
1478
 62
256
370
-1
 48
1.0
  6
ByLayer
 10
539457.07052961725
 20
4477791.9208777444
 30
1492.685546875
 11
539461.28008183511
 21
4477796.1632778728
 31
1493.920654296875
  0
LINE
  5
FB
100
AcDbEntity
100
AcDbLine
  8
1478
 62
256
370
-1
 48
1.0
  6
ByLayer
 10
539461.28008183511
 20
4477796.1632778728
 30
1493.920654296875
 11
539464.6786537685
 21
4477798.4954054859
 31
1494.570068359375
  0
LINE
  5
FC
100
AcDbEntity
100
AcDbLine
  8
1478
 62
256
370
-1
 48
1.0
  6
ByLayer
 10
539463.99932911259
 20
4477793.2636079742
 30
1494.131713867188
 11
539467.31283631653
 21
4477794.558532903
 31
1495.116943359375
  0
LINE
  5
FD
100
AcDbEntity
100
AcDbLine
  8
1478
 62
256
370
-1
 48
1.0
  6
ByLayer
 10
539467.31283631653
 20
4477794.558532903
 30
1495.116943359375
 11
539469.8526476823
 21
4477794.4434936401
 31
1495.7314453125
  0
LINE
  5
FE
100
AcDbEntity
100
AcDbLine
  8
1478
 62
256
370
-1
 48
1.0
  6
ByLayer
 10
539469.8526476823
 20
4477794.4434936401
 30
1495.7314453125
 11
539472.9549470027
 21
4477790.973145158
 31
1496.748413085938
  0
LINE
  5
FF
100
AcDbEntity
100
AcDbLine
  8
1478
 62
256
370
-1
 48
1.0
  6
ByLayer
 10
539462.25298301887
 20
4477792.4420916839
 30
1494.0400390625
 11
539463.99932911259
 21
4477793.2636079742
 31
1494.131713867188
  0
LINE
  5
100
100
AcDbEntity
100
AcDbLine
  8
1478
 62
256
370
-1
 48
1.0
  6
ByLayer
 10
539478.24346910615
 20
4477800.0463992171
 30
1496.5
 11
539477.3449170969
 21
4477800.9430493843
 31
1495.604248046875
  0
LINE
  5
101
100
AcDbEntity
100
AcDbLine
  8
1478
 62
256
370
-1
 48
1.0
  6
ByLayer
 10
539477.3449170969
 20
4477800.9430493843
 30
1495.604248046875
 11
539476.2428434476
 21
4477802.2646352127
 31
1495.284057617188
  0
LINE
  5
102
100
AcDbEntity
100
AcDbLine
  8
1478
 62
256
370
-1
 48
1.0
  6
ByLayer
 10
539476.2428434476
 20
4477802.2646352127
 30
1495.284057617188
 11
539476.17806553829
 21
4477803.7739558099
 31
1494.900512695312
  0
LINE
  5
103
100
AcDbEntity
100
AcDbLine
  8
1478
 62
256
370
-1
 48
1.0
  6
ByLayer
 10
539476.17806553829
 20
4477803.7739558099
 30
1494.900512695312
 11
539476.97385207738
 21
4477805.5206909636
 31
1494.606567382812
  0
LINE
  5
104
100
AcDbEntity
100
AcDbLine
  8
1478
 62
256
370
-1
 48
1.0
  6
ByLayer
 10
539476.97385207738
 20
4477805.5206909636
 30
1494.606567382812
 11
539477.31101895228
 21
4477806.4124510856
 31
1494.32568359375
  0
LINE
  5
105
100
AcDbEntity
100
AcDbLine
  8
1478
 62
256
370
-1
 48
1.0
  6
ByLayer
 10
539472.67542709992
 20
4477804.8287282968
 30
1494.5947265625
 11
539472.20041912352
 21
4477801.4147348078
 31
1495.2666015625
  0
LINE
  5
106
100
AcDbEntity
100
AcDbLine
  8
1478
 62
256
370
-1
 48
1.0
  6
ByLayer
 10
539477.97945742402
 20
4477807.0262200134
 30
1494.10107421875
 11
539477.31101895228
 21
4477806.4124510856
 31
1494.32568359375
  0
LINE
  5
107
100
AcDbEntity
100
AcDbLine
  8
1478
 62
256
370
-1
 48
1.0
  6
ByLayer
 10
539465.13650000002
 20
4477800.1271000002
 30
1497.5537109375
 11
539463.40220000001
 21
4477801.2000000002
 31
1497.7607421875
  0
LINE
  5
108
100
AcDbEntity
100
AcDbLine
  8
1478
 62
256
370
-1
 48
1.0
  6
ByLayer
 10
539465.8075
 20
4477804.6712999996
 30
1498.0224609375
 11
539468.81039999996
 21
4477801.7306000004
 31
1497.486206054688
  0
LINE
  5
109
100
AcDbEntity
100
AcDbLine
  8
1478
 62
256
370
-1
 48
1.0
  6
ByLayer
 10
539471.3138
 20
4477800.4319000002
 30
1497.100952148438
 11
539472.20041912352
 21
4477801.4147348078
 31
1495.2666015625
  0
LINE
  5
10A
100
AcDbEntity
100
AcDbLine
  8
1478
 62
256
370
-1
 48
1.0
  6
ByLayer
 10
539465.13650000002
 20
4477800.1271000002
 30
1497.5537109375
 11
539466.65130000003
 21
4477798.6847999999
 31
1497.51416015625
  0
LINE
  5
10B
100
AcDbEntity
100
AcDbLine
  8
1478
 62
256
370
-1
 48
1.0
  6
ByLayer
 10
539466.65130000003
 20
4477798.6847999999
 30
1497.51416015625
 11
539464.6786537685
 21
4477798.4954054859
 31
1494.570068359375
  0
LINE
  5
10C
100
AcDbEntity
100
AcDbLine
  8
1478
 62
256
370
-1
 48
1.0
  6
ByLayer
 10
539471.3138
 20
4477800.4319000002
 30
1497.100952148438
 11
539468.81039999996
 21
4477801.7306000004
 31
1497.486206054688
  0
LINE
  5
10D
100
AcDbEntity
100
AcDbLine
  8
1478
 62
256
370
-1
 48
1.0
  6
ByLayer
 10
539463.40220000001
 20
4477801.2000000002
 30
1497.7607421875
 11
539461.87450000003
 21
4477802.2598000001
 31
1498.53857421875
  0
POINT
  5
10E
100
AcDbEntity
100
AcDbPoint
  8
INIT_CORD
 62
256
370
-1
 48
1.0
  6
ByLayer
 10
539441.98322710767
 20
4477826.7145879073
 30
0.0
  0
LINE
  5
10F
100
AcDbEntity
100
AcDbLine
  8
GEOFENCE
 62
256
370
-1
 48
1.0
  6
ByLayer
 10
539441.98322710767
 20
4477826.7145879073
 30
1473.578002929688
 11
539449.93639216118
 21
4477832.7765319543
 31
1473.578002929688
  0
LINE
  5
110
100
AcDbEntity
100
AcDbLine
  8
GEOFENCE
 62
256
370
-1
 48
1.0
  6
ByLayer
 10
539449.93639216118
 20
4477832.7765319543
 30
1473.578002929688
 11
539470.56951821968
 21
4477846.8929801285
 31
1473.578002929688
  0
LINE
  5
111
100
AcDbEntity
100
AcDbLine
  8
GEOFENCE
 62
256
370
-1
 48
1.0
  6
ByLayer
 10
539470.56951821968
 20
4477846.8929801285
 30
1473.578002929688
 11
539482.38447793236
 21
4477856.1345561296
 31
1473.578002929688
  0
LINE
  5
112
100
AcDbEntity
100
AcDbLine
  8
GEOFENCE
 62
256
370
-1
 48
1.0
  6
ByLayer
 10
539482.38447793236
 20
4477856.1345561296
 30
1473.578002929688
 11
539490.75474448758
 21
4477866.0438807588
 31
1476.4027709960935
  0
LINE
  5
113
100
AcDbEntity
100
AcDbLine
  8
GEOFENCE
 62
256
370
-1
 48
1.0
  6
ByLayer
 10
539490.75474448758
 20
4477866.0438807588
 30
1476.4027709960935
 11
539505.43539911334
 21
4477862.9651830206
 31
1476.4027709960935
  0
LINE
  5
114
100
AcDbEntity
100
AcDbLine
  8
GEOFENCE
 62
256
370
-1
 48
1.0
  6
ByLayer
 10
539505.43539911334
 20
4477862.9651830206
 30
1476.4027709960935
 11
539518.62529974128
 21
4477855.8218979621
 31
1476.4027709960935
  0
LINE
  5
115
100
AcDbEntity
100
AcDbLine
  8
GEOFENCE
 62
256
370
-1
 48
1.0
  6
ByLayer
 10
539518.62529974128
 20
4477855.8218979621
 30
1476.4027709960935
 11
539521.99437723157
 21
4477846.4065213436
 31
1476.4027709960935
  0
LINE
  5
116
100
AcDbEntity
100
AcDbLine
  8
GEOFENCE
 62
256
370
-1
 48
1.0
  6
ByLayer
 10
539521.99437723157
 20
4477846.4065213436
 30
1476.4027709960935
 11
539520.92628976132
 21
4477841.5219344469
 31
1476.4027709960935
  0
LINE
  5
117
100
AcDbEntity
100
AcDbLine
  8
GEOFENCE
 62
256
370
-1
 48
1.0
  6
ByLayer
 10
539520.92628976132
 20
4477841.5219344469
 30
1476.4027709960935
 11
539512.65993024549
 21
4477835.8945638034
 31
1476.4027709960935
  0
LINE
  5
118
100
AcDbEntity
100
AcDbLine
  8
GEOFENCE
 62
256
370
-1
 48
1.0
  6
ByLayer
 10
539512.65993024549
 20
4477835.8945638034
 30
1476.4027709960935
 11
539508.04345782427
 21
4477833.9740996966
 31
1476.4027709960935
  0
LINE
  5
119
100
AcDbEntity
100
AcDbLine
  8
GEOFENCE
 62
256
370
-1
 48
1.0
  6
ByLayer
 10
539508.04345782427
 20
4477833.9740996966
 30
1476.4027709960935
 11
539488.04928479355
 21
4477834.4568468565
 31
1476.4027709960935
  0
LINE
  5
11A
100
AcDbEntity
100
AcDbLine
  8
GEOFENCE
 62
256
370
-1
 48
1.0
  6
ByLayer
 10
539488.04928479355
 20
4477834.4568468565
 30
1476.4027709960935
 11
539483.55518550589
 21
4477832.2652557464
 31
1476.4027709960935
  0
LINE
  5
11B
100
AcDbEntity
100
AcDbLine
  8
GEOFENCE
 62
256
370
-1
 48
1.0
  6
ByLayer
 10
539483.55518550589
 20
4477832.2652557464
 30
1476.4027709960935
 11
539479.51163545123
 21
4477829.3242180124
 31
1476.4027709960935
  0
LINE
  5
11C
100
AcDbEntity
100
AcDbLine
  8
GEOFENCE
 62
256
370
-1
 48
1.0
  6
ByLayer
 10
539479.51163545123
 20
4477829.3242180124
 30
1476.4027709960935
 11
539473.79300965625
 21
4477799.8743059747
 31
1476.4027709960935
  0
ENDSEC
  0
SECTION
  2
OBJECTS
  0
DICTIONARY
  5
C
100
AcDbDictionary
280
0
281
1
  3
ACAD_GROUP
350
D
  3
ACAD_LAYOUT
350
1A
  3
ACAD_MLINESTYLE
350
17
  3
ACAD_PLOTSETTINGS
350
19
  3
ACAD_PLOTSTYLENAME
350
E
  3
AcDbVariableDictionary
350
11D
  3
QCAD_OBJECTS
350
11E
  0
DICTIONARY
  5
D
100
AcDbDictionary
280
0
281
1
  0
ACDBDICTIONARYWDFLT
  5
E
100
AcDbDictionary
281
1
  3
Normal
350
F
100
AcDbDictionaryWithDefault
340
F
  0
ACDBPLACEHOLDER
  5
F
  0
DICTIONARY
  5
17
100
AcDbDictionary
280
0
281
1
  3
Standard
350
18
  0
MLINESTYLE
  5
18
100
AcDbMlineStyle
  2
STANDARD
 70
0
  3

 62
256
 51
90.0
 52
90.0
 71
2
 49
0.5
 62
256
  6
BYLAYER
 49
-0.5
 62
256
  6
BYLAYER
  0
DICTIONARY
  5
19
100
AcDbDictionary
280
0
281
1
  0
DICTIONARY
  5
1A
100
AcDbDictionary
281
1
  3
Layout1
350
1E
  3
Layout2
350
26
  3
Model
350
22
  0
LAYOUT
  5
1E
100
AcDbPlotSettings
  1

  2
none_device
  4

  6

 40
0.0
 41
0.0
 42
0.0
 43
0.0
 44
0.0
 45
0.0
 46
0.0
 47
0.0
 48
0.0
 49
0.0
140
0.0
141
0.0
142
1.0
143
1.0
 70
688
 72
0
 73
0
 74
5
  7

 75
16
147
1.0
148
0.0
149
0.0
100
AcDbLayout
  1
Layout1
 70
1
 71
1
 10
0.0
 20
0.0
 11
420.0
 21
297.0
 12
0.0
 22
0.0
 32
0.0
 14
100000000000000000000.0
 24
100000000000000000000.0
 34
100000000000000000000.0
 15
-100000000000000000000.0
 25
-100000000000000000000.0
 35
-100000000000000000000.0
146
0.0
 13
0.0
 23
0.0
 33
0.0
 16
1.0
 26
0.0
 36
0.0
 17
0.0
 27
1.0
 37
0.0
 76
0
330
1B
  0
LAYOUT
  5
22
100
AcDbPlotSettings
  1

  2
none_device
  4

  6

 40
0.0
 41
0.0
 42
0.0
 43
0.0
 44
0.0
 45
0.0
 46
0.0
 47
0.0
 48
0.0
 49
0.0
140
0.0
141
0.0
142
1.0
143
1.0
 70
1712
 72
0
 73
0
 74
0
  7

 75
0
147
1.0
148
0.0
149
0.0
100
AcDbLayout
  1
Model
 70
1
 71
0
 10
0.0
 20
0.0
 11
12.0
 21
9.0
 12
0.0
 22
0.0
 32
0.0
 14
0.0
 24
0.0
 34
0.0
 15
0.0
 25
0.0
 35
0.0
146
0.0
 13
0.0
 23
0.0
 33
0.0
 16
1.0
 26
0.0
 36
0.0
 17
0.0
 27
1.0
 37
0.0
 76
0
330
1F
  0
LAYOUT
  5
26
100
AcDbPlotSettings
  1

  2
none_device
  4

  6

 40
0.0
 41
0.0
 42
0.0
 43
0.0
 44
0.0
 45
0.0
 46
0.0
 47
0.0
 48
0.0
 49
0.0
140
0.0
141
0.0
142
1.0
143
1.0
 70
688
 72
0
 73
0
 74
5
  7

 75
16
147
1.0
148
0.0
149
0.0
100
AcDbLayout
  1
Layout2
 70
1
 71
2
 10
0.0
 20
0.0
 11
12.0
 21
9.0
 12
0.0
 22
0.0
 32
0.0
 14
0.0
 24
0.0
 34
0.0
 15
0.0
 25
0.0
 35
0.0
146
0.0
 13
0.0
 23
0.0
 33
0.0
 16
1.0
 26
0.0
 36
0.0
 17
0.0
 27
1.0
 37
0.0
 76
0
330
23
  0
DICTIONARY
  5
11D
100
AcDbDictionary
281
1
  3
DIMASSOC
350
120
  3
HIDETEXT
350
11F
  0
DICTIONARYVAR
  5
11F
100
DictionaryVariables
280
0
  1
2
  0
DICTIONARYVAR
  5
120
100
DictionaryVariables
280
0
  1
1
  0
DICTIONARY
  5
11E
100
AcDbDictionary
281
1
  3
ColorSettings/BackgroundColor
350
121
  3
ColorSettings/ColorMode
350
122
  3
Grid/DisplayGrid00
350
123
  3
Grid/DisplayGrid01
350
124
  3
Grid/DisplayGrid02
350
125
  3
Grid/DisplayGrid03
350
126
  3
Grid/GridSpacingX00
350
127
  3
Grid/GridSpacingX01
350
128
  3
Grid/GridSpacingX02
350
129
  3
Grid/GridSpacingX03
350
12A
  3
Grid/GridSpacingY00
350
12B
  3
Grid/GridSpacingY01
350
12C
  3
Grid/GridSpacingY02
350
12D
  3
Grid/GridSpacingY03
350
12E
  3
Grid/IsometricGrid00
350
12F
  3
Grid/IsometricGrid01
350
130
  3
Grid/IsometricGrid02
350
131
  3
Grid/IsometricGrid03
350
132
  3
Grid/IsometricProjection00
350
133
  3
Grid/IsometricProjection01
350
134
  3
Grid/IsometricProjection02
350
135
  3
Grid/IsometricProjection03
350
136
  3
Grid/MetaGridSpacingX00
350
137
  3
Grid/MetaGridSpacingX01
350
138
  3
Grid/MetaGridSpacingX02
350
139
  3
Grid/MetaGridSpacingX03
350
13A
  3
Grid/MetaGridSpacingY00
350
13B
  3
Grid/MetaGridSpacingY01
350
13C
  3
Grid/MetaGridSpacingY02
350
13D
  3
Grid/MetaGridSpacingY03
350
13E
  3
MultiPageSettings/Columns
350
13F
  3
MultiPageSettings/GlueMarginsBottom
350
140
  3
MultiPageSettings/GlueMarginsLeft
350
141
  3
MultiPageSettings/GlueMarginsRight
350
142
  3
MultiPageSettings/GlueMarginsTop
350
143
  3
MultiPageSettings/PrintCropMarks
350
144
  3
MultiPageSettings/Rows
350
145
  3
PageSettings/OffsetX
350
146
  3
PageSettings/OffsetY
350
147
  3
PageSettings/PageOrientation
350
148
  3
PageSettings/PaperHeight
350
149
  3
PageSettings/PaperWidth
350
14A
  3
PageSettings/Scale
350
14B
  3
PageSettings/ShowPaperBorders
350
14C
  3
QCADVersion
350
14D
  3
UnitSettings/PaperUnit
350
14E
  3
ViewportCenter
350
14F
  3
ViewportHeight
350
150
  3
ViewportWidth
350
151
  0
XRECORD
  5
121
330
11E
100
AcDbXrecord
280
1
1000
#ffffff
  0
XRECORD
  5
122
330
11E
100
AcDbXrecord
280
1
1000
FullColor
  0
XRECORD
  5
123
330
11E
100
AcDbXrecord
280
1
290
1
  0
XRECORD
  5
124
330
11E
100
AcDbXrecord
280
1
290
1
  0
XRECORD
  5
125
330
11E
100
AcDbXrecord
280
1
290
1
  0
XRECORD
  5
126
330
11E
100
AcDbXrecord
280
1
290
1
  0
XRECORD
  5
127
330
11E
100
AcDbXrecord
280
1
1000
auto
  0
XRECORD
  5
128
330
11E
100
AcDbXrecord
280
1
1000
auto
  0
XRECORD
  5
129
330
11E
100
AcDbXrecord
280
1
1000
auto
  0
XRECORD
  5
12A
330
11E
100
AcDbXrecord
280
1
1000
auto
  0
XRECORD
  5
12B
330
11E
100
AcDbXrecord
280
1
1000
auto
  0
XRECORD
  5
12C
330
11E
100
AcDbXrecord
280
1
1000
auto
  0
XRECORD
  5
12D
330
11E
100
AcDbXrecord
280
1
1000
auto
  0
XRECORD
  5
12E
330
11E
100
AcDbXrecord
280
1
1000
auto
  0
XRECORD
  5
12F
330
11E
100
AcDbXrecord
280
1
290
0
  0
XRECORD
  5
130
330
11E
100
AcDbXrecord
280
1
290
0
  0
XRECORD
  5
131
330
11E
100
AcDbXrecord
280
1
290
0
  0
XRECORD
  5
132
330
11E
100
AcDbXrecord
280
1
290
0
  0
XRECORD
  5
133
330
11E
100
AcDbXrecord
280
1
 90
0
  0
XRECORD
  5
134
330
11E
100
AcDbXrecord
280
1
 90
0
  0
XRECORD
  5
135
330
11E
100
AcDbXrecord
280
1
 90
0
  0
XRECORD
  5
136
330
11E
100
AcDbXrecord
280
1
 90
0
  0
XRECORD
  5
137
330
11E
100
AcDbXrecord
280
1
1000
auto
  0
XRECORD
  5
138
330
11E
100
AcDbXrecord
280
1
1000
auto
  0
XRECORD
  5
139
330
11E
100
AcDbXrecord
280
1
1000
auto
  0
XRECORD
  5
13A
330
11E
100
AcDbXrecord
280
1
1000
auto
  0
XRECORD
  5
13B
330
11E
100
AcDbXrecord
280
1
1000
auto
  0
XRECORD
  5
13C
330
11E
100
AcDbXrecord
280
1
1000
auto
  0
XRECORD
  5
13D
330
11E
100
AcDbXrecord
280
1
1000
auto
  0
XRECORD
  5
13E
330
11E
100
AcDbXrecord
280
1
1000
auto
  0
XRECORD
  5
13F
330
11E
100
AcDbXrecord
280
1
 90
1
  0
XRECORD
  5
140
330
11E
100
AcDbXrecord
280
1
 40
10.0
  0
XRECORD
  5
141
330
11E
100
AcDbXrecord
280
1
 40
10.0
  0
XRECORD
  5
142
330
11E
100
AcDbXrecord
280
1
 40
10.0
  0
XRECORD
  5
143
330
11E
100
AcDbXrecord
280
1
 40
10.0
  0
XRECORD
  5
144
330
11E
100
AcDbXrecord
280
1
290
0
  0
XRECORD
  5
145
330
11E
100
AcDbXrecord
280
1
 90
1
  0
XRECORD
  5
146
330
11E
100
AcDbXrecord
280
1
 40
0.0
  0
XRECORD
  5
147
330
11E
100
AcDbXrecord
280
1
 40
0.0
  0
XRECORD
  5
148
330
11E
100
AcDbXrecord
280
1
1000
Portrait
  0
XRECORD
  5
149
330
11E
100
AcDbXrecord
280
1
 40
279.39999999999998
  0
XRECORD
  5
14A
330
11E
100
AcDbXrecord
280
1
 40
215.90000000000001
  0
XRECORD
  5
14B
330
11E
100
AcDbXrecord
280
1
1000
1:1
  0
XRECORD
  5
14C
330
11E
100
AcDbXrecord
280
1
290
1
  0
XRECORD
  5
14D
330
11E
100
AcDbXrecord
280
1
1000
3.15.3
  0
XRECORD
  5
14E
330
11E
100
AcDbXrecord
280
1
 90
4
  0
XRECORD
  5
150
330
11E
100
AcDbXrecord
280
1
 40
115.03437260631472
  0
XRECORD
  5
151
330
11E
100
AcDbXrecord
280
1
 40
242.38449808815494
  0
ENDSEC
  0
EOF
