999
dxflib 3.12.2.0
  0
SECTION
  2
HEADER
  9
$ACADVER
  1
AC1015
  9
$HANDSEED
  5
FFFF
  9
$ANGBASE
 50
0.0
  9
$ATTMODE
 70
1
  9
$AUNITS
 70
0
  9
$AUPREC
 70
0
  9
$CELTSCALE
 40
1.0
  9
$CHAMFERA
 40
10.0
  9
$CHAMFERB
 40
10.0
  9
$CHAMFERC
 40
20.0
  9
$CHAMFERD
 40
0.0
  9
$CMLJUST
 70
0
  9
$CMLSCALE
 40
20.0
  9
$DIMADEC
 70
0
  9
$DIMALTD
 70
3
  9
$DIMALTF
 40
0.03937007874016
  9
$DIMALTRND
 40
0.0
  9
$DIMALTTD
 70
3
  9
$DIMALTTZ
 70
0
  9
$DIMALTU
 70
2
  9
$DIMALTZ
 70
0
  9
$DIMAPOST
  1

  9
$DIMASZ
 40
2.5
  9
$DIMATFIT
 70
3
  9
$DIMAUNIT
 70
0
  9
$DIMAZIN
 70
0
  9
$DIMCEN
 40
2.5
  9
$DIMDEC
 70
2
  9
$DIMDLE
 40
0.0
  9
$DIMDLI
 40
3.75
  9
$DIMDSEP
 70
44
  9
$DIMEXE
 40
1.25
  9
$DIMEXO
 40
0.625
  9
$DIMFRAC
 70
0
  9
$DIMGAP
 40
0.625
  9
$DIMJUST
 70
0
  9
$DIMLFAC
 40
1.0
  9
$DIMLUNIT
 70
2
  9
$DIMLWD
 70
-2
  9
$DIMLWE
 70
-2
  9
$DIMPOST
  1

  9
$DIMRND
 40
0.0
  9
$DIMSCALE
 40
1.0
  9
$DIMTAD
 70
1
  9
$DIMTDEC
 70
2
  9
$DIMTFAC
 40
1.0
  9
$DIMTM
 40
0.0
  9
$DIMTOLJ
 70
0
  9
$DIMTP
 40
0.0
  9
$DIMTSZ
 40
0.0
  9
$DIMTVP
 40
0.0
  9
$DIMTXT
 40
2.5
  9
$DIMTZIN
 70
8
  9
$DIMZIN
 70
8
  9
$DWGCODEPAGE
  3
ANSI_1252
  9
$ELEVATION
 40
0.0
  9
$EXTMAX
 10
539732.16182467679
 20
4477986.4200906241
 30
1601.496826171875
  9
$EXTMIN
 10
539411.92034134897
 20
4477664.8865999999
 30
0.0
  9
$FILLETRAD
 40
10.0
  9
$INSBASE
 10
0.0
 20
0.0
 30
0.0
  9
$INSUNITS
 70
4
  9
$LIMMAX
 10
420.0
 20
297.0
  9
$LIMMIN
 10
0.0
 20
0.0
  9
$LTSCALE
 40
1.0
  9
$LUNITS
 70
2
  9
$LUPREC
 70
4
  9
$MAXACTVP
 70
2
  9
$MEASUREMENT
 70
1
  9
$PDMODE
 70
0
  9
$PDSIZE
 40
0.0
  9
$PELEVATION
 40
0.0
  9
$PEXTMAX
 10
-100000000000000000000.0
 20
-100000000000000000000.0
 30
-100000000000000000000.0
  9
$PEXTMIN
 10
100000000000000000000.0
 20
100000000000000000000.0
 30
100000000000000000000.0
  9
$PINSBASE
 10
0.0
 20
0.0
 30
0.0
  9
$PLIMMAX
 10
420.0
 20
297.0
  9
$PLIMMIN
 10
0.0
 20
0.0
  9
$PLINEWID
 40
0.0
  9
$PROXYGRAPHICS
 70
1
  9
$PUCSORG
 10
0.0
 20
0.0
 30
0.0
  9
$PUCSXDIR
 10
1.0
 20
0.0
 30
0.0
  9
$PUCSYDIR
 10
0.0
 20
1.0
 30
0.0
  9
$SHADEDGE
 70
3
  9
$SHADEDIF
 70
70
  9
$SKETCHINC
 40
1.0
  9
$SPLINESEGS
 70
8
  9
$SPLINETYPE
 70
6
  9
$SURFTAB1
 70
6
  9
$SURFTAB2
 70
6
  9
$SURFTYPE
 70
6
  9
$SURFU
 70
6
  9
$SURFV
 70
6
  9
$TEXTSIZE
 40
2.5
  9
$THICKNESS
 40
0.0
  9
$TRACEWID
 40
1.0
  9
$TREEDEPTH
 70
3020
  9
$UCSORG
 10
0.0
 20
0.0
 30
0.0
  9
$UCSXDIR
 10
1.0
 20
0.0
 30
0.0
  9
$UCSYDIR
 10
0.0
 20
1.0
 30
0.0
  9
$UNITMODE
 70
0
  9
$USERI1
 70
0
  9
$USERI2
 70
0
  9
$USERI3
 70
0
  9
$USERI4
 70
0
  9
$USERI5
 70
0
  9
$USERR1
 40
0.0
  9
$USERR2
 40
0.0
  9
$USERR3
 40
0.0
  9
$USERR4
 40
0.0
  9
$USERR5
 40
0.0
  0
ENDSEC
  0
SECTION
  2
TABLES
  0
TABLE
  2
VPORT
  5
8
100
AcDbSymbolTable
 70
1
  0
VPORT
  5
30
100
AcDbSymbolTableRecord
100
AcDbViewportTableRecord
  2
*Active
 70
0
 10
0.0
 20
0.0
 11
1.0
 21
1.0
 12
286.30555555555549
 22
148.5
 13
0.0
 23
0.0
 14
10.0
 24
10.0
 15
10.0
 25
10.0
 16
0.0
 26
0.0
 36
1.0
 17
0.0
 27
0.0
 37
0.0
 40
297.0
 41
1.92798353909465
 42
50.0
 43
0.0
 44
0.0
 50
0.0
 51
0.0
 71
0
 72
100
 73
1
 74
3
 75
1
 76
1
 77
0
 78
0
281
0
 65
1
110
0.0
120
0.0
130
0.0
111
1.0
121
0.0
131
0.0
112
0.0
122
1.0
132
0.0
 79
0
146
0.0
  0
ENDTAB
  0
TABLE
  2
LTYPE
  5
5
100
AcDbSymbolTable
 70
54
  0
LTYPE
  5
16
100
AcDbSymbolTableRecord
100
AcDbLinetypeTableRecord
  2
Continuous
 70
0
  3
Solid line
 72
65
 73
0
 40
0.0
  0
LTYPE
  5
31
100
AcDbSymbolTableRecord
100
AcDbLinetypeTableRecord
  2
DIVIDEX2
 70
0
  3
Divide (2x) ________  .  .  ________  .  .  _
 72
65
 73
6
 40
63.5
 49
25.399999999999999
 74
0
 49
-12.699999999999999
 74
0
 49
0.0
 74
0
 49
-12.699999999999999
 74
0
 49
0.0
 74
0
 49
-12.699999999999999
 74
0
  0
LTYPE
  5
32
100
AcDbSymbolTableRecord
100
AcDbLinetypeTableRecord
  2
BORDER
 70
0
  3
Border __ __ . __ __ . __ __ . __ __ . __ __ .
 72
65
 73
6
 40
44.449999999999996
 49
12.699999999999999
 74
0
 49
-6.3499999999999996
 74
0
 49
12.699999999999999
 74
0
 49
-6.3499999999999996
 74
0
 49
0.0
 74
0
 49
-6.3499999999999996
 74
0
  0
LTYPE
  5
33
100
AcDbSymbolTableRecord
100
AcDbLinetypeTableRecord
  2
ACAD_ISO11W100
 70
0
  3
ISO double-dash dot __ __ . __ __ . __ __ . __ _
 72
65
 73
6
 40
33.0
 49
12.0
 74
0
 49
-3.0
 74
0
 49
12.0
 74
0
 49
-3.0
 74
0
 49
0.0
 74
0
 49
-3.0
 74
0
  0
LTYPE
  5
34
100
AcDbSymbolTableRecord
100
AcDbLinetypeTableRecord
  2
ACAD_ISO14W100
 70
0
  3
ISO dash triple-dot __ . . . __ . . . __ . . . _
 72
65
 73
8
 40
24.0
 49
12.0
 74
0
 49
-3.0
 74
0
 49
0.0
 74
0
 49
-3.0
 74
0
 49
0.0
 74
0
 49
-3.0
 74
0
 49
0.0
 74
0
 49
-3.0
 74
0
  0
LTYPE
  5
35
100
AcDbSymbolTableRecord
100
AcDbLinetypeTableRecord
  2
DASHED2
 70
0
  3
Dashed (.5x) _ _ _ _ _ _ _ _ _ _ _ _ _ _ _ _ _ 
 72
65
 73
2
 40
9.5249999999999986
 49
6.3499999999999996
 74
0
 49
-3.1749999999999998
 74
0
  0
LTYPE
  5
36
100
AcDbSymbolTableRecord
100
AcDbLinetypeTableRecord
  2
TRACKS
 70
0
  3
Tracks -|-|-|-|-|-|-|-|-|-|-|-|-|-|-|-|-|-|-|-|-|-|-|-|-
 72
65
 73
2
 40
7.6200000000000001
 49
3.8100000000000001
 74
0
 49
3.8100000000000001
 74
0
  0
LTYPE
  5
37
100
AcDbSymbolTableRecord
100
AcDbLinetypeTableRecord
  2
ACAD_ISO02W100
 70
0
  3
ISO dash __ __ __ __ __ __ __ __ __ __ __ __ __
 72
65
 73
2
 40
15.0
 49
12.0
 74
0
 49
-3.0
 74
0
  0
LTYPE
  5
38
100
AcDbSymbolTableRecord
100
AcDbLinetypeTableRecord
  2
DOT
 70
0
  3
Dot . . . . . . . . . . . . . . . . . . . . . . . .
 72
65
 73
2
 40
6.3499999999999996
 49
0.0
 74
0
 49
-6.3499999999999996
 74
0
  0
LTYPE
  5
39
100
AcDbSymbolTableRecord
100
AcDbLinetypeTableRecord
  2
DASHEDX2
 70
0
  3
Dashed (2x) ____  ____  ____  ____  ____  ___
 72
65
 73
2
 40
38.099999999999994
 49
25.399999999999999
 74
0
 49
-12.699999999999999
 74
0
  0
LTYPE
  5
3A
100
AcDbSymbolTableRecord
100
AcDbLinetypeTableRecord
  2
CUTRIGHT
 70
0
  3
G42 ----/----/-----/---
 72
65
 73
2
 40
10.16
 49
5.0800000000000001
 74
0
 49
5.0800000000000001
 74
0
  0
LTYPE
  5
3B
100
AcDbSymbolTableRecord
100
AcDbLinetypeTableRecord
  2
FENCELINE1
 70
0
  3
Fenceline circle ----0-----0----0-----0----0-----0--
 72
65
 73
4
 40
36.829999999999998
 49
6.3499999999999996
 74
0
 49
-2.54
 74
0
 49
-2.54
 74
0
 49
25.399999999999999
 74
0
  0
LTYPE
  5
3C
100
AcDbSymbolTableRecord
100
AcDbLinetypeTableRecord
  2
BORDER2
 70
0
  3
Border (.5x) __.__.__.__.__.__.__.__.__.__.__.
 72
65
 73
6
 40
22.224999999999998
 49
6.3499999999999996
 74
0
 49
-3.1749999999999998
 74
0
 49
6.3499999999999996
 74
0
 49
-3.1749999999999998
 74
0
 49
0.0
 74
0
 49
-3.1749999999999998
 74
0
  0
LTYPE
  5
3D
100
AcDbSymbolTableRecord
100
AcDbLinetypeTableRecord
  2
PHANTOM2
 70
0
  3
Phantom (.5x) ___ _ _ ___ _ _ ___ _ _ ___ _ _
 72
65
 73
6
 40
31.750000000000004
 49
15.875
 74
0
 49
-3.1749999999999998
 74
0
 49
3.1749999999999998
 74
0
 49
-3.1749999999999998
 74
0
 49
3.1749999999999998
 74
0
 49
-3.1749999999999998
 74
0
  0
LTYPE
  5
3E
100
AcDbSymbolTableRecord
100
AcDbLinetypeTableRecord
  2
DIVIDE2
 70
0
  3
Divide (.5x) __..__..__..__..__..__..__..__.._
 72
65
 73
6
 40
15.875
 49
6.3499999999999996
 74
0
 49
-3.1749999999999998
 74
0
 49
0.0
 74
0
 49
-3.1749999999999998
 74
0
 49
0.0
 74
0
 49
-3.1749999999999998
 74
0
  0
LTYPE
  5
3F
100
AcDbSymbolTableRecord
100
AcDbLinetypeTableRecord
  2
ACAD_ISO04W100
 70
0
  3
ISO long-dash dot ____ . ____ . ____ . ____ . _
 72
65
 73
4
 40
30.0
 49
24.0
 74
0
 49
-3.0
 74
0
 49
0.0
 74
0
 49
-3.0
 74
0
  0
LTYPE
  5
40
100
AcDbSymbolTableRecord
100
AcDbLinetypeTableRecord
  2
CENTERX2
 70
0
  3
Center (2x) ________  __  ________  __  _____
 72
65
 73
4
 40
101.60000000000001
 49
63.5
 74
0
 49
-12.699999999999999
 74
0
 49
12.699999999999999
 74
0
 49
-12.699999999999999
 74
0
  0
LTYPE
  5
41
100
AcDbSymbolTableRecord
100
AcDbLinetypeTableRecord
  2
CENTER2
 70
0
  3
Center (.5x) ___ _ ___ _ ___ _ ___ _ ___ _ ___
 72
65
 73
4
 40
28.575000000000003
 49
19.050000000000001
 74
0
 49
-3.1749999999999998
 74
0
 49
3.1749999999999998
 74
0
 49
-3.1749999999999998
 74
0
  0
LTYPE
  5
42
100
AcDbSymbolTableRecord
100
AcDbLinetypeTableRecord
  2
CUTLEFT2
 70
0
  3
G41 reversed----/----/----/----
 72
65
 73
2
 40
10.16
 49
5.0800000000000001
 74
0
 49
5.0800000000000001
 74
0
  0
LTYPE
  5
43
100
AcDbSymbolTableRecord
100
AcDbLinetypeTableRecord
  2
DOTX2
 70
0
  3
Dot (2x) .  .  .  .  .  .  .  .  .  .  .  .  .  .
 72
65
 73
2
 40
12.699999999999999
 49
0.0
 74
0
 49
-12.699999999999999
 74
0
  0
LTYPE
  5
44
100
AcDbSymbolTableRecord
100
AcDbLinetypeTableRecord
  2
ACAD_ISO03W100
 70
0
  3
ISO dash space __    __    __    __    __    __
 72
65
 73
2
 40
30.0
 49
12.0
 74
0
 49
-18.0
 74
0
  0
LTYPE
  5
45
100
AcDbSymbolTableRecord
100
AcDbLinetypeTableRecord
  2
ACAD_ISO06W100
 70
0
  3
ISO long-dash triple-dot ____ ... ____ ... ____
 72
65
 73
8
 40
36.0
 49
24.0
 74
0
 49
-3.0
 74
0
 49
0.0
 74
0
 49
-3.0
 74
0
 49
0.0
 74
0
 49
-3.0
 74
0
 49
0.0
 74
0
 49
-3.0
 74
0
  0
LTYPE
  5
14
100
AcDbSymbolTableRecord
100
AcDbLinetypeTableRecord
  2
ByBlock
 70
0
  3

 72
65
 73
0
 40
0.0
  0
LTYPE
  5
46
100
AcDbSymbolTableRecord
100
AcDbLinetypeTableRecord
  2
DOT2
 70
0
  3
Dot (.5x) ........................................
 72
65
 73
2
 40
3.1749999999999998
 49
0.0
 74
0
 49
-3.1749999999999998
 74
0
  0
LTYPE
  5
15
100
AcDbSymbolTableRecord
100
AcDbLinetypeTableRecord
  2
ByLayer
 70
0
  3

 72
65
 73
0
 40
0.0
  0
LTYPE
  5
47
100
AcDbSymbolTableRecord
100
AcDbLinetypeTableRecord
  2
BATTING
 70
0
  3
Batting SSSSSSSSSSSSSSSSSSSSSSSSSSSSSSSSSSSSSSSSSSSSSSS
 72
65
 73
4
 40
10.16254
 49
0.00254
 74
0
 49
-2.54
 74
0
 49
-5.0800000000000001
 74
0
 49
-2.54
 74
0
  0
LTYPE
  5
48
100
AcDbSymbolTableRecord
100
AcDbLinetypeTableRecord
  2
ACAD_ISO10W100
 70
0
  3
ISO dash dot __ . __ . __ . __ . __ . __ . __ . 
 72
65
 73
4
 40
18.0
 49
12.0
 74
0
 49
-3.0
 74
0
 49
0.0
 74
0
 49
-3.0
 74
0
  0
LTYPE
  5
49
100
AcDbSymbolTableRecord
100
AcDbLinetypeTableRecord
  2
CUTRIGHT2
 70
0
  3
G42 reversed----\----\----\----
 72
65
 73
2
 40
10.16
 49
5.0800000000000001
 74
0
 49
5.0800000000000001
 74
0
  0
LTYPE
  5
4A
100
AcDbSymbolTableRecord
100
AcDbLinetypeTableRecord
  2
HIDDEN
 70
0
  3
Hidden __ __ __ __ __ __ __ __ __ __ __ __ __ __
 72
65
 73
2
 40
9.5249999999999986
 49
6.3499999999999996
 74
0
 49
-3.1749999999999998
 74
0
  0
LTYPE
  5
4B
100
AcDbSymbolTableRecord
100
AcDbLinetypeTableRecord
  2
PHANTOMX2
 70
0
  3
Phantom (2x) ____________    ____    ____   _
 72
65
 73
6
 40
127.00000000000001
 49
63.5
 74
0
 49
-12.699999999999999
 74
0
 49
12.699999999999999
 74
0
 49
-12.699999999999999
 74
0
 49
12.699999999999999
 74
0
 49
-12.699999999999999
 74
0
  0
LTYPE
  5
4C
100
AcDbSymbolTableRecord
100
AcDbLinetypeTableRecord
  2
ACAD_ISO09W100
 70
0
  3
ISO long-dash double-short-dash ____ __ __ ____
 72
65
 73
6
 40
45.0
 49
24.0
 74
0
 49
-3.0
 74
0
 49
6.0
 74
0
 49
-3.0
 74
0
 49
6.0
 74
0
 49
-3.0
 74
0
  0
LTYPE
  5
4D
100
AcDbSymbolTableRecord
100
AcDbLinetypeTableRecord
  2
GAS_LINE
 70
0
  3
Gas line ----GAS----GAS----GAS----GAS----GAS----GAS--
 72
65
 73
3
 40
24.130000000000003
 49
12.699999999999999
 74
0
 49
-5.0800000000000001
 74
0
 49
-6.3499999999999996
 74
0
  0
LTYPE
  5
4E
100
AcDbSymbolTableRecord
100
AcDbLinetypeTableRecord
  2
ACAD_ISO12W100
 70
0
  3
ISO dash double-dot __ . . __ . . __ . . __ . . 
 72
65
 73
6
 40
21.0
 49
12.0
 74
0
 49
-3.0
 74
0
 49
0.0
 74
0
 49
-3.0
 74
0
 49
0.0
 74
0
 49
-3.0
 74
0
  0
LTYPE
  5
4F
100
AcDbSymbolTableRecord
100
AcDbLinetypeTableRecord
  2
ACAD_ISO05W100
 70
0
  3
ISO long-dash double-dot ____ .. ____ .. ____ . 
 72
65
 73
6
 40
33.0
 49
24.0
 74
0
 49
-3.0
 74
0
 49
0.0
 74
0
 49
-3.0
 74
0
 49
0.0
 74
0
 49
-3.0
 74
0
  0
LTYPE
  5
50
100
AcDbSymbolTableRecord
100
AcDbLinetypeTableRecord
  2
DASHED
 70
0
  3
Dashed __ __ __ __ __ __ __ __ __ __ __ __ __ _
 72
65
 73
2
 40
19.049999999999997
 49
12.699999999999999
 74
0
 49
-6.3499999999999996
 74
0
  0
LTYPE
  5
51
100
AcDbSymbolTableRecord
100
AcDbLinetypeTableRecord
  2
DASHDOT
 70
0
  3
Dash dot __ . __ . __ . __ . __ . __ . __ . __
 72
65
 73
4
 40
25.399999999999999
 49
12.699999999999999
 74
0
 49
-6.3499999999999996
 74
0
 49
0.0
 74
0
 49
-6.3499999999999996
 74
0
  0
LTYPE
  5
52
100
AcDbSymbolTableRecord
100
AcDbLinetypeTableRecord
  2
CENTER
 70
0
  3
Center ____ _ ____ _ ____ _ ____ _ ____ _ ____
 72
65
 73
4
 40
50.800000000000004
 49
31.75
 74
0
 49
-6.3499999999999996
 74
0
 49
6.3499999999999996
 74
0
 49
-6.3499999999999996
 74
0
  0
LTYPE
  5
53
100
AcDbSymbolTableRecord
100
AcDbLinetypeTableRecord
  2
DRAINAGE
 70
0
  3
Drainage ---->---->---->----
 72
65
 73
2
 40
10.16
 49
5.0800000000000001
 74
0
 49
5.0800000000000001
 74
0
  0
LTYPE
  5
54
100
AcDbSymbolTableRecord
100
AcDbLinetypeTableRecord
  2
HIDDEN2
 70
0
  3
Hidden (.5x) _ _ _ _ _ _ _ _ _ _ _ _ _ _ _ _ _ 
 72
65
 73
2
 40
4.7624999999999993
 49
3.1749999999999998
 74
0
 49
-1.5874999999999999
 74
0
  0
LTYPE
  5
55
100
AcDbSymbolTableRecord
100
AcDbLinetypeTableRecord
  2
HOT_WATER_SUPPLY
 70
0
  3
Hot water supply ---- HW ---- HW ---- HW ----
 72
65
 73
3
 40
22.859999999999999
 49
12.699999999999999
 74
0
 49
-5.0800000000000001
 74
0
 49
-5.0800000000000001
 74
0
  0
LTYPE
  5
56
100
AcDbSymbolTableRecord
100
AcDbLinetypeTableRecord
  2
ACAD_ISO15W100
 70
0
  3
ISO double-dash triple-dot __ __ . . . __ __ . .
 72
65
 73
10
 40
39.0
 49
12.0
 74
0
 49
-3.0
 74
0
 49
12.0
 74
0
 49
-3.0
 74
0
 49
0.0
 74
0
 49
-3.0
 74
0
 49
0.0
 74
0
 49
-3.0
 74
0
 49
0.0
 74
0
 49
-3.0
 74
0
  0
LTYPE
  5
57
100
AcDbSymbolTableRecord
100
AcDbLinetypeTableRecord
  2
DIVIDE
 70
0
  3
Divide ____ . . ____ . . ____ . . ____ . . ____
 72
65
 73
6
 40
31.75
 49
12.699999999999999
 74
0
 49
-6.3499999999999996
 74
0
 49
0.0
 74
0
 49
-6.3499999999999996
 74
0
 49
0.0
 74
0
 49
-6.3499999999999996
 74
0
  0
LTYPE
  5
58
100
AcDbSymbolTableRecord
100
AcDbLinetypeTableRecord
  2
DASHDOTX2
 70
0
  3
Dash dot (2x) ____  .  ____  .  ____  .  ___
 72
65
 73
4
 40
50.799999999999997
 49
25.399999999999999
 74
0
 49
-12.699999999999999
 74
0
 49
0.0
 74
0
 49
-12.699999999999999
 74
0
  0
LTYPE
  5
59
100
AcDbSymbolTableRecord
100
AcDbLinetypeTableRecord
  2
HIDDENX2
 70
0
  3
Hidden (2x) ____ ____ ____ ____ ____ ____ ____ 
 72
65
 73
2
 40
19.049999999999997
 49
12.699999999999999
 74
0
 49
-6.3499999999999996
 74
0
  0
LTYPE
  5
5A
100
AcDbSymbolTableRecord
100
AcDbLinetypeTableRecord
  2
DRAINAGE2
 70
0
  3
Drainage reversed----<----<----<----
 72
65
 73
2
 40
10.16
 49
5.0800000000000001
 74
0
 49
5.0800000000000001
 74
0
  0
LTYPE
  5
5B
100
AcDbSymbolTableRecord
100
AcDbLinetypeTableRecord
  2
BORDERX2
 70
0
  3
Border (2x) ____  ____  .  ____  ____  .  ___
 72
65
 73
6
 40
88.899999999999991
 49
25.399999999999999
 74
0
 49
-12.699999999999999
 74
0
 49
25.399999999999999
 74
0
 49
-12.699999999999999
 74
0
 49
0.0
 74
0
 49
-12.699999999999999
 74
0
  0
LTYPE
  5
5C
100
AcDbSymbolTableRecord
100
AcDbLinetypeTableRecord
  2
PHANTOM
 70
0
  3
Phantom ______  __  __  ______  __  __  ______ 
 72
65
 73
6
 40
63.500000000000007
 49
31.75
 74
0
 49
-6.3499999999999996
 74
0
 49
6.3499999999999996
 74
0
 49
-6.3499999999999996
 74
0
 49
6.3499999999999996
 74
0
 49
-6.3499999999999996
 74
0
  0
LTYPE
  5
5D
100
AcDbSymbolTableRecord
100
AcDbLinetypeTableRecord
  2
ACAD_ISO08W100
 70
0
  3
ISO long-dash short-dash ____ __ ____ __ ____ _
 72
65
 73
4
 40
36.0
 49
24.0
 74
0
 49
-3.0
 74
0
 49
6.0
 74
0
 49
-3.0
 74
0
  0
LTYPE
  5
5E
100
AcDbSymbolTableRecord
100
AcDbLinetypeTableRecord
  2
ZIGZAG
 70
0
  3
Zig zag /\/\/\/\/\/\/\/\/\/\/\/\/\/\/\/\/\/\/\/\/\/\/\/
 72
65
 73
4
 40
20.32254
 49
0.00254
 74
0
 49
-5.0800000000000001
 74
0
 49
-10.16
 74
0
 49
-5.0800000000000001
 74
0
  0
LTYPE
  5
5F
100
AcDbSymbolTableRecord
100
AcDbLinetypeTableRecord
  2
ACAD_ISO13W100
 70
0
  3
ISO double-dash double-dot __ __ . . __ __ . . _
 72
65
 73
8
 40
36.0
 49
12.0
 74
0
 49
-3.0
 74
0
 49
12.0
 74
0
 49
-3.0
 74
0
 49
0.0
 74
0
 49
-3.0
 74
0
 49
0.0
 74
0
 49
-3.0
 74
0
  0
LTYPE
  5
60
100
AcDbSymbolTableRecord
100
AcDbLinetypeTableRecord
  2
ACAD_ISO07W100
 70
0
  3
ISO dot . . . . . . . . . . . . . . . . . . . . 
 72
65
 73
2
 40
3.0
 49
0.0
 74
0
 49
-3.0
 74
0
  0
LTYPE
  5
61
100
AcDbSymbolTableRecord
100
AcDbLinetypeTableRecord
  2
FENCELINE2
 70
0
  3
Fenceline square ----[]-----[]----[]-----[]----[]---
 72
65
 73
4
 40
36.829999999999998
 49
6.3499999999999996
 74
0
 49
-2.54
 74
0
 49
-2.54
 74
0
 49
25.399999999999999
 74
0
  0
LTYPE
  5
62
100
AcDbSymbolTableRecord
100
AcDbLinetypeTableRecord
  2
DASHDOT2
 70
0
  3
Dash dot (.5x) _._._._._._._._._._._._._._._.
 72
65
 73
4
 40
12.699999999999999
 49
6.3499999999999996
 74
0
 49
-3.1749999999999998
 74
0
 49
0.0
 74
0
 49
-3.1749999999999998
 74
0
  0
LTYPE
  5
63
100
AcDbSymbolTableRecord
100
AcDbLinetypeTableRecord
  2
CUTLEFT
 70
0
  3
G41 ----\----\----\----
 72
65
 73
2
 40
10.16
 49
5.0800000000000001
 74
0
 49
5.0800000000000001
 74
0
  0
ENDTAB
  0
TABLE
  2
LAYER
  5
2
100
AcDbSymbolTable
 70
4
  0
LAYER
  5
64
100
AcDbSymbolTableRecord
100
AcDbLayerTableRecord
  2
INIT_CORD
 70
4
 62
5
420
255
  6
Continuous
370
25
390
F
  0
LAYER
  5
65
100
AcDbSymbolTableRecord
100
AcDbLayerTableRecord
  2
GEOFENCE
 70
4
 62
3
420
65280
  6
Continuous
370
25
390
F
  0
LAYER
  5
10
100
AcDbSymbolTableRecord
100
AcDbLayerTableRecord
  2
0
 70
0
 62
5
420
255
  6
Continuous
370
0
390
F
  0
LAYER
  5
66
100
AcDbSymbolTableRecord
100
AcDbLayerTableRecord
  2
1570
 70
4
 62
220
420
16711871
  6
Continuous
370
0
390
F
  0
ENDTAB
  0
TABLE
  2
STYLE
  5
3
100
AcDbSymbolTable
 70
1
  0
STYLE
  5
67
100
AcDbSymbolTableRecord
100
AcDbTextStyleTableRecord
  2
Standard
 70
0
 40
0.0
 41
1.0
 50
0.0
 71
0
 42
2.5
  3

  4

1001
ACAD
1000
txt
1071
0
  0
ENDTAB
  0
TABLE
  2
VIEW
  5
6
100
AcDbSymbolTable
 70
0
  0
ENDTAB
  0
TABLE
  2
UCS
  5
7
100
AcDbSymbolTable
 70
0
  0
ENDTAB
  0
TABLE
  2
APPID
  5
9
100
AcDbSymbolTable
 70
1
  0
APPID
  5
12
100
AcDbSymbolTableRecord
100
AcDbRegAppTableRecord
  2
ACAD
 70
0
  0
APPID
  5
68
100
AcDbSymbolTableRecord
100
AcDbRegAppTableRecord
  2
QCAD
 70
0
  0
ENDTAB
  0
TABLE
  2
DIMSTYLE
  5
A
100
AcDbSymbolTable
 70
1
100
AcDbDimStyleTable
 71
0
  0
DIMSTYLE
105
27
100
AcDbSymbolTableRecord
100
AcDbDimStyleTableRecord
  2
Standard
 41
2.5
 42
0.625
 43
3.75
 44
1.25
 70
0
 73
0
 74
0
 77
1
 78
8
140
2.5
141
2.5
143
0.03937007874016
147
0.625
171
3
172
1
271
2
272
2
274
3
278
44
283
0
284
8
340
67
  0
ENDTAB
  0
TABLE
  2
BLOCK_RECORD
  5
1
100
AcDbSymbolTable
 70
1
  0
BLOCK_RECORD
  5
1F
100
AcDbSymbolTableRecord
100
AcDbBlockTableRecord
  2
*Model_Space
340
22
  0
BLOCK_RECORD
  5
1B
100
AcDbSymbolTableRecord
100
AcDbBlockTableRecord
  2
*Paper_Space
340
1E
  0
BLOCK_RECORD
  5
23
100
AcDbSymbolTableRecord
100
AcDbBlockTableRecord
  2
*Paper_Space0
340
26
  0
ENDTAB
  0
ENDSEC
  0
SECTION
  2
BLOCKS
  0
BLOCK
  5
20
100
AcDbEntity
  8
0
100
AcDbBlockBegin
  2
*Model_Space
 70
0
 10
0.0
 20
0.0
 30
0.0
  3
*Model_Space
  1

  0
ENDBLK
  5
21
100
AcDbEntity
  8
0
100
AcDbBlockEnd
  0
BLOCK
  5
1C
100
AcDbEntity
 67
1
  8
0
100
AcDbBlockBegin
  2
*Paper_Space
 70
0
 10
0.0
 20
0.0
 30
0.0
  3
*Paper_Space
  1

  0
ENDBLK
  5
1D
100
AcDbEntity
 67
1
  8
0
100
AcDbBlockEnd
  0
BLOCK
  5
24
100
AcDbEntity
  8
0
100
AcDbBlockBegin
  2
*Paper_Space0
 70
0
 10
0.0
 20
0.0
 30
0.0
  3
*Paper_Space0
  1

  0
ENDBLK
  5
25
100
AcDbEntity
  8
0
100
AcDbBlockEnd
  0
ENDSEC
  0
SECTION
  2
ENTITIES
  0
LINE
  5
69
100
AcDbEntity
100
AcDbLine
  8
1570
 62
256
370
-1
 48
1.0
  6
ByLayer
 10
539604.01508900826
 20
4477749.6654914441
 30
1589.383056640625
 11
539602.5858
 21
4477741.3054999998
 31
1588.2984619140625
  0
LINE
  5
6A
100
AcDbEntity
100
AcDbLine
  8
1570
 62
256
370
-1
 48
1.0
  6
ByLayer
 10
539602.5858
 20
4477741.3054999998
 30
1588.2984619140625
 11
539601.89529999997
 21
4477739.3251
 31
1587.9166259765625
  0
LINE
  5
6B
100
AcDbEntity
100
AcDbLine
  8
1570
 62
256
370
-1
 48
1.0
  6
ByLayer
 10
539601.89529999997
 20
4477739.3251
 30
1587.9166259765625
 11
539600.66969999997
 21
4477734.6215000004
 31
1586.853515625
  0
LINE
  5
6C
100
AcDbEntity
100
AcDbLine
  8
1570
 62
256
370
-1
 48
1.0
  6
ByLayer
 10
539631.13800000004
 20
4477697.3320000004
 30
1584.4329833984375
 11
539629.52789999999
 21
4477695.5477999998
 31
1584.3829345703125
  0
LINE
  5
6D
100
AcDbEntity
100
AcDbLine
  8
1570
 62
256
370
-1
 48
1.0
  6
ByLayer
 10
539620.61560000002
 20
4477698.9582000002
 30
1583.3280029296875
 11
539622.14800000004
 21
4477697.5685000001
 31
1583.819580078125
  0
LINE
  5
6E
100
AcDbEntity
100
AcDbLine
  8
1570
 62
256
370
-1
 48
1.0
  6
ByLayer
 10
539622.14800000004
 20
4477697.5685000001
 30
1583.819580078125
 11
539623.64060000004
 21
4477697.2143000001
 31
1584.095947265625
  0
LINE
  5
6F
100
AcDbEntity
100
AcDbLine
  8
1570
 62
256
370
-1
 48
1.0
  6
ByLayer
 10
539623.64060000004
 20
4477697.2143000001
 30
1584.095947265625
 11
539625.51300000004
 21
4477697.6542999996
 31
1584.233154296875
  0
LINE
  5
70
100
AcDbEntity
100
AcDbLine
  8
1570
 62
256
370
-1
 48
1.0
  6
ByLayer
 10
539625.51300000004
 20
4477697.6542999996
 30
1584.233154296875
 11
539627.53529999999
 21
4477699.1096000001
 31
1584.4105224609375
  0
LINE
  5
71
100
AcDbEntity
100
AcDbLine
  8
1570
 62
256
370
-1
 48
1.0
  6
ByLayer
 10
539627.53529999999
 20
4477699.1096000001
 30
1584.4105224609375
 11
539629.59199999995
 21
4477701.1052000001
 31
1584.5279541015625
  0
LINE
  5
72
100
AcDbEntity
100
AcDbLine
  8
1570
 62
256
370
-1
 48
1.0
  6
ByLayer
 10
539629.59199999995
 20
4477701.1052000001
 30
1584.5279541015625
 11
539631.83739999996
 21
4477703.2104000002
 31
1584.1103515625
  0
LINE
  5
73
100
AcDbEntity
100
AcDbLine
  8
1570
 62
256
370
-1
 48
1.0
  6
ByLayer
 10
539631.83739999996
 20
4477703.2104000002
 30
1584.1103515625
 11
539635.4804
 21
4477706.2752999999
 31
1583.5718994140625
  0
LINE
  5
74
100
AcDbEntity
100
AcDbLine
  8
1570
 62
256
370
-1
 48
1.0
  6
ByLayer
 10
539606.81359999999
 20
4477744.7633999996
 30
1589.5145263671875
 11
539605.81700000004
 21
4477742.3146000002
 31
1588.6302490234375
  0
LINE
  5
75
100
AcDbEntity
100
AcDbLine
  8
1570
 62
256
370
-1
 48
1.0
  6
ByLayer
 10
539605.81700000004
 20
4477742.3146000002
 30
1588.6302490234375
 11
539605.58349999995
 21
4477740.4348999998
 31
1588.21484375
  0
LINE
  5
76
100
AcDbEntity
100
AcDbLine
  8
1570
 62
256
370
-1
 48
1.0
  6
ByLayer
 10
539612.49549999996
 20
4477746.2808999997
 30
1589.949951171875
 11
539608.08109999995
 21
4477745.5064000003
 31
1589.949951171875
  0
LINE
  5
77
100
AcDbEntity
100
AcDbLine
  8
1570
 62
256
370
-1
 48
1.0
  6
ByLayer
 10
539608.08109999995
 20
4477745.5064000003
 30
1589.949951171875
 11
539606.81359999999
 21
4477744.7633999996
 31
1589.5145263671875
  0
LINE
  5
78
100
AcDbEntity
100
AcDbLine
  8
1570
 62
256
370
-1
 48
1.0
  6
ByLayer
 10
539638.98329999996
 20
4477703.7789000003
 30
1583.5499267578125
 11
539638.66940000001
 21
4477701.5352999996
 31
1583.8724365234375
  0
LINE
  5
79
100
AcDbEntity
100
AcDbLine
  8
1570
 62
256
370
-1
 48
1.0
  6
ByLayer
 10
539638.66940000001
 20
4477701.5352999996
 30
1583.8724365234375
 11
539639.39569999999
 21
4477699.7585000005
 31
1584.1043701171875
  0
LINE
  5
7A
100
AcDbEntity
100
AcDbLine
  8
1570
 62
256
370
-1
 48
1.0
  6
ByLayer
 10
539639.39569999999
 20
4477699.7585000005
 30
1584.1043701171875
 11
539641.21479999996
 21
4477695.4837999996
 31
1584.355712890625
  0
LINE
  5
7B
100
AcDbEntity
100
AcDbLine
  8
1570
 62
256
370
-1
 48
1.0
  6
ByLayer
 10
539637.66709999996
 20
4477694.2094000001
 30
1584.2347412109375
 11
539636.66029999999
 21
4477696.9517000001
 31
1584.1817626953125
  0
LINE
  5
7C
100
AcDbEntity
100
AcDbLine
  8
1570
 62
256
370
-1
 48
1.0
  6
ByLayer
 10
539636.66029999999
 20
4477696.9517000001
 30
1584.1817626953125
 11
539635.3554
 21
4477699.7096999995
 31
1584.2545166015625
  0
LINE
  5
7D
100
AcDbEntity
100
AcDbLine
  8
1570
 62
256
370
-1
 48
1.0
  6
ByLayer
 10
539635.3554
 20
4477699.7096999995
 30
1584.2545166015625
 11
539634.14410000003
 21
4477699.9172999999
 31
1584.272705078125
  0
LINE
  5
7E
100
AcDbEntity
100
AcDbLine
  8
1570
 62
256
370
-1
 48
1.0
  6
ByLayer
 10
539634.14410000003
 20
4477699.9172999999
 30
1584.272705078125
 11
539632.77300000004
 21
4477698.6396000003
 31
1584.4129638671875
  0
LINE
  5
7F
100
AcDbEntity
100
AcDbLine
  8
1570
 62
256
370
-1
 48
1.0
  6
ByLayer
 10
539632.77300000004
 20
4477698.6396000003
 30
1584.4129638671875
 11
539631.13800000004
 21
4477697.3320000004
 31
1584.4329833984375
  0
LINE
  5
80
100
AcDbEntity
100
AcDbLine
  8
1570
 62
256
370
-1
 48
1.0
  6
ByLayer
 10
539637.66709999996
 20
4477694.2094000001
 30
1584.2347412109375
 11
539638.12100000004
 21
4477692.9031999996
 31
1584.1756591796875
  0
LINE
  5
81
100
AcDbEntity
100
AcDbLine
  8
1570
 62
256
370
-1
 48
1.0
  6
ByLayer
 10
539638.12100000004
 20
4477692.9031999996
 30
1584.1756591796875
 11
539639.65509999997
 21
4477690.1377999997
 31
1584.0423583984375
  0
LINE
  5
82
100
AcDbEntity
100
AcDbLine
  8
1570
 62
256
370
-1
 48
1.0
  6
ByLayer
 10
539641.91110000003
 20
4477694.4327999996
 30
1584.1705322265625
 11
539641.21479999996
 21
4477695.4837999996
 31
1584.355712890625
  0
LINE
  5
83
100
AcDbEntity
100
AcDbLine
  8
1570
 62
256
370
-1
 48
1.0
  6
ByLayer
 10
539612.49549999996
 20
4477746.2808999997
 30
1589.949951171875
 11
539614.35360000003
 21
4477746.3147
 31
1589.5001220703125
  0
LINE
  5
84
100
AcDbEntity
100
AcDbLine
  8
1570
 62
256
370
-1
 48
1.0
  6
ByLayer
 10
539614.35360000003
 20
4477746.3147
 30
1589.5001220703125
 11
539616.37309999997
 21
4477746.2199999997
 31
1589.4482421875
  0
LINE
  5
85
100
AcDbEntity
100
AcDbLine
  8
1570
 62
256
370
-1
 48
1.0
  6
ByLayer
 10
539616.37309999997
 20
4477746.2199999997
 30
1589.4482421875
 11
539617.91969999997
 21
4477745.1944000004
 31
1589.4801025390625
  0
LINE
  5
86
100
AcDbEntity
100
AcDbLine
  8
1570
 62
256
370
-1
 48
1.0
  6
ByLayer
 10
539617.91969999997
 20
4477745.1944000004
 30
1589.4801025390625
 11
539618.97160000005
 21
4477744.0449999999
 31
1589.5068359375
  0
LINE
  5
87
100
AcDbEntity
100
AcDbLine
  8
1570
 62
256
370
-1
 48
1.0
  6
ByLayer
 10
539618.97160000005
 20
4477744.0449999999
 30
1589.5068359375
 11
539620.48560000001
 21
4477741.0568000004
 31
1589.704833984375
  0
LINE
  5
88
100
AcDbEntity
100
AcDbLine
  8
1570
 62
256
370
-1
 48
1.0
  6
ByLayer
 10
539620.48560000001
 20
4477741.0568000004
 30
1589.704833984375
 11
539622.51699999999
 21
4477737.0848000003
 31
1589.55615234375
  0
LINE
  5
89
100
AcDbEntity
100
AcDbLine
  8
1570
 62
256
370
-1
 48
1.0
  6
ByLayer
 10
539623.45810000005
 20
4477742.3772
 30
1589.6640625
 11
539621.31550000003
 21
4477746.2719000001
 31
1589.5782470703125
  0
LINE
  5
8A
100
AcDbEntity
100
AcDbLine
  8
1570
 62
256
370
-1
 48
1.0
  6
ByLayer
 10
539621.31550000003
 20
4477746.2719000001
 30
1589.5782470703125
 11
539621.19709999999
 21
4477747.8751999997
 31
1589.5806884765625
  0
LINE
  5
8B
100
AcDbEntity
100
AcDbLine
  8
1570
 62
256
370
-1
 48
1.0
  6
ByLayer
 10
539621.19709999999
 20
4477747.8751999997
 30
1589.5806884765625
 11
539620.24699999997
 21
4477748.6085999999
 31
1589.512939453125
  0
LINE
  5
8C
100
AcDbEntity
100
AcDbLine
  8
1570
 62
256
370
-1
 48
1.0
  6
ByLayer
 10
539620.24699999997
 20
4477748.6085999999
 30
1589.512939453125
 11
539617.43550000002
 21
4477749.3726000004
 31
1589.529052734375
  0
LINE
  5
8D
100
AcDbEntity
100
AcDbLine
  8
1570
 62
256
370
-1
 48
1.0
  6
ByLayer
 10
539617.43550000002
 20
4477749.3726000004
 30
1589.529052734375
 11
539615.14729999995
 21
4477749.7791999998
 31
1589.5179443359375
  0
LINE
  5
8E
100
AcDbEntity
100
AcDbLine
  8
1570
 62
256
370
-1
 48
1.0
  6
ByLayer
 10
539622.51699999999
 20
4477737.0848000003
 30
1589.55615234375
 11
539625.03200000001
 21
4477732.1582000004
 31
1589.9051513671875
  0
LINE
  5
8F
100
AcDbEntity
100
AcDbLine
  8
1570
 62
256
370
-1
 48
1.0
  6
ByLayer
 10
539625.03200000001
 20
4477732.1582000004
 30
1589.9051513671875
 11
539625.95779999997
 21
4477731.9397999998
 31
1589.9366455078125
  0
LINE
  5
90
100
AcDbEntity
100
AcDbLine
  8
1570
 62
256
370
-1
 48
1.0
  6
ByLayer
 10
539625.95779999997
 20
4477731.9397999998
 30
1589.9366455078125
 11
539627.65859999997
 21
4477730.1481999997
 31
1589.8570556640625
  0
LINE
  5
91
100
AcDbEntity
100
AcDbLine
  8
1570
 62
256
370
-1
 48
1.0
  6
ByLayer
 10
539624.77709999995
 20
4477739.8315000003
 30
1589.794921875
 11
539623.45810000005
 21
4477742.3772
 31
1589.6640625
  0
LINE
  5
92
100
AcDbEntity
100
AcDbLine
  8
1570
 62
256
370
-1
 48
1.0
  6
ByLayer
 10
539646.09299999999
 20
4477686.1434000004
 30
1585.295166015625
 11
539643.71120000002
 21
4477690.2114000004
 31
1584.4593505859375
  0
LINE
  5
93
100
AcDbEntity
100
AcDbLine
  8
1570
 62
256
370
-1
 48
1.0
  6
ByLayer
 10
539641.91110000003
 20
4477694.4327999996
 30
1584.1705322265625
 11
539643.71120000002
 21
4477690.2114000004
 31
1584.4593505859375
  0
LINE
  5
94
100
AcDbEntity
100
AcDbLine
  8
1570
 62
256
370
-1
 48
1.0
  6
ByLayer
 10
539657.86750000005
 20
4477669.4055000003
 30
1588.0457763671875
 11
539659.26269999996
 21
4477667.8496000003
 31
1588.62109375
  0
LINE
  5
95
100
AcDbEntity
100
AcDbLine
  8
1570
 62
256
370
-1
 48
1.0
  6
ByLayer
 10
539659.26269999996
 20
4477667.8496000003
 30
1588.62109375
 11
539659.32200000004
 21
4477665.1412000004
 31
1588.84716796875
  0
LINE
  5
96
100
AcDbEntity
100
AcDbLine
  8
1570
 62
256
370
-1
 48
1.0
  6
ByLayer
 10
539663.46259999997
 20
4477664.8865999999
 30
1588.798828125
 11
539663.73300000001
 21
4477667.2246000003
 31
1588.709716796875
  0
LINE
  5
97
100
AcDbEntity
100
AcDbLine
  8
1570
 62
256
370
-1
 48
1.0
  6
ByLayer
 10
539663.73300000001
 20
4477667.2246000003
 30
1588.709716796875
 11
539662.73730000004
 21
4477669.4814999998
 31
1588.7803955078125
  0
LINE
  5
98
100
AcDbEntity
100
AcDbLine
  8
1570
 62
256
370
-1
 48
1.0
  6
ByLayer
 10
539662.73730000004
 20
4477669.4814999998
 30
1588.7803955078125
 11
539662.85759999999
 21
4477670.5399000002
 31
1588.791259765625
  0
LINE
  5
99
100
AcDbEntity
100
AcDbLine
  8
1570
 62
256
370
-1
 48
1.0
  6
ByLayer
 10
539662.85759999999
 20
4477670.5399000002
 30
1588.791259765625
 11
539660.94979999994
 21
4477672.5524000004
 31
1588.14990234375
  0
LINE
  5
9A
100
AcDbEntity
100
AcDbLine
  8
1570
 62
256
370
-1
 48
1.0
  6
ByLayer
 10
539660.94979999994
 20
4477672.5524000004
 30
1588.14990234375
 11
539658.44149999996
 21
4477674.9269000003
 31
1587.688720703125
  0
LINE
  5
9B
100
AcDbEntity
100
AcDbLine
  8
1570
 62
256
370
-1
 48
1.0
  6
ByLayer
 10
539639.65509999997
 20
4477690.1377999997
 30
1584.0423583984375
 11
539641.04610000004
 21
4477687.3967000004
 31
1584.66259765625
  0
LINE
  5
9C
100
AcDbEntity
100
AcDbLine
  8
1570
 62
256
370
-1
 48
1.0
  6
ByLayer
 10
539641.04610000004
 20
4477687.3967000004
 30
1584.66259765625
 11
539640.93370000005
 21
4477685.6065999996
 31
1585.0185546875
  0
LINE
  5
9D
100
AcDbEntity
100
AcDbLine
  8
1570
 62
256
370
-1
 48
1.0
  6
ByLayer
 10
539639.07929999998
 20
4477681.7260999996
 30
1585.338134765625
 11
539637.44059999997
 21
4477678.9364999998
 31
1585.0523681640625
  0
LINE
  5
9E
100
AcDbEntity
100
AcDbLine
  8
1570
 62
256
370
-1
 48
1.0
  6
ByLayer
 10
539637.44059999997
 20
4477678.9364999998
 30
1585.0523681640625
 11
539634.45380000002
 21
4477675.2008999996
 31
1585.8585205078125
  0
LINE
  5
9F
100
AcDbEntity
100
AcDbLine
  8
1570
 62
256
370
-1
 48
1.0
  6
ByLayer
 10
539634.45380000002
 20
4477675.2008999996
 30
1585.8585205078125
 11
539637.38329999999
 21
4477673.1416999996
 31
1587.43115234375
  0
LINE
  5
A0
100
AcDbEntity
100
AcDbLine
  8
1570
 62
256
370
-1
 48
1.0
  6
ByLayer
 10
539637.38329999999
 20
4477673.1416999996
 30
1587.43115234375
 11
539640.90489999996
 21
4477676.0157000003
 31
1584.826171875
  0
LINE
  5
A1
100
AcDbEntity
100
AcDbLine
  8
1570
 62
256
370
-1
 48
1.0
  6
ByLayer
 10
539640.90489999996
 20
4477676.0157000003
 30
1584.826171875
 11
539641.38130000001
 21
4477678.3663999997
 31
1585.314208984375
  0
LINE
  5
A2
100
AcDbEntity
100
AcDbLine
  8
1570
 62
256
370
-1
 48
1.0
  6
ByLayer
 10
539641.38130000001
 20
4477678.3663999997
 30
1585.314208984375
 11
539642.37
 21
4477680.8218999999
 31
1585.428955078125
  0
LINE
  5
A3
100
AcDbEntity
100
AcDbLine
  8
1570
 62
256
370
-1
 48
1.0
  6
ByLayer
 10
539642.37
 20
4477680.8218999999
 30
1585.428955078125
 11
539643.90579999995
 21
4477681.9228999997
 31
1585.47314453125
  0
LINE
  5
A4
100
AcDbEntity
100
AcDbLine
  8
1570
 62
256
370
-1
 48
1.0
  6
ByLayer
 10
539643.90579999995
 20
4477681.9228999997
 30
1585.47314453125
 11
539646.92409999995
 21
4477679.8557000002
 31
1586.44384765625
  0
LINE
  5
A5
100
AcDbEntity
100
AcDbLine
  8
1570
 62
256
370
-1
 48
1.0
  6
ByLayer
 10
539604.01508900826
 20
4477749.6654914441
 30
1589.383056640625
 11
539605.30579999997
 21
4477750.9238999998
 31
1590.2318115234375
  0
LINE
  5
A6
100
AcDbEntity
100
AcDbLine
  8
1570
 62
256
370
-1
 48
1.0
  6
ByLayer
 10
539614.94990000001
 20
4477761.8930000002
 30
1593.3499755859375
 11
539613.05830000003
 21
4477760.0241999999
 31
1592.75
  0
LINE
  5
A7
100
AcDbEntity
100
AcDbLine
  8
1570
 62
256
370
-1
 48
1.0
  6
ByLayer
 10
539613.05830000003
 20
4477760.0241999999
 30
1592.75
 11
539611.62600000005
 21
4477758.1847999999
 31
1592.0999755859375
  0
LINE
  5
A8
100
AcDbEntity
100
AcDbLine
  8
1570
 62
256
370
-1
 48
1.0
  6
ByLayer
 10
539611.62600000005
 20
4477758.1847999999
 30
1592.0999755859375
 11
539610.71530000004
 21
4477755.9857999999
 31
1591.8499755859375
  0
LINE
  5
A9
100
AcDbEntity
100
AcDbLine
  8
1570
 62
256
370
-1
 48
1.0
  6
ByLayer
 10
539610.71530000004
 20
4477755.9857999999
 30
1591.8499755859375
 11
539609.46580000001
 21
4477753.9398999996
 31
1591.0699462890625
  0
LINE
  5
AA
100
AcDbEntity
100
AcDbLine
  8
1570
 62
256
370
-1
 48
1.0
  6
ByLayer
 10
539609.46580000001
 20
4477753.9398999996
 30
1591.0699462890625
 11
539609.44019999995
 21
4477753.2652000003
 31
1590.987060546875
  0
LINE
  5
AB
100
AcDbEntity
100
AcDbLine
  8
1570
 62
256
370
-1
 48
1.0
  6
ByLayer
 10
539613.07189999998
 20
4477766.2609999999
 30
1593.9000244140625
 11
539610.80570000003
 21
4477763.4312000005
 31
1593.300048828125
  0
LINE
  5
AC
100
AcDbEntity
100
AcDbLine
  8
1570
 62
256
370
-1
 48
1.0
  6
ByLayer
 10
539610.80570000003
 20
4477763.4312000005
 30
1593.300048828125
 11
539609.11080000002
 21
4477760.6507999999
 31
1592.699951171875
  0
LINE
  5
AD
100
AcDbEntity
100
AcDbLine
  8
1570
 62
256
370
-1
 48
1.0
  6
ByLayer
 10
539609.11080000002
 20
4477760.6507999999
 30
1592.699951171875
 11
539607.78599999996
 21
4477758.7473999998
 31
1592.010009765625
  0
LINE
  5
AE
100
AcDbEntity
100
AcDbLine
  8
1570
 62
256
370
-1
 48
1.0
  6
ByLayer
 10
539607.78599999996
 20
4477758.7473999998
 30
1592.010009765625
 11
539606.37069999997
 21
4477756.7244999995
 31
1591.800048828125
  0
LINE
  5
AF
100
AcDbEntity
100
AcDbLine
  8
1570
 62
256
370
-1
 48
1.0
  6
ByLayer
 10
539606.37069999997
 20
4477756.7244999995
 30
1591.800048828125
 11
539605.97279999999
 21
4477755.4194
 31
1591.5
  0
LINE
  5
B0
100
AcDbEntity
100
AcDbLine
  8
1570
 62
256
370
-1
 48
1.0
  6
ByLayer
 10
539605.97279999999
 20
4477755.4194
 30
1591.5
 11
539605.81530000002
 21
4477753.8707999997
 31
1591.050048828125
  0
LINE
  5
B1
100
AcDbEntity
100
AcDbLine
  8
1570
 62
256
370
-1
 48
1.0
  6
ByLayer
 10
539605.81530000002
 20
4477753.8707999997
 30
1591.050048828125
 11
539605.30579999997
 21
4477750.9238999998
 31
1590.2318115234375
  0
LINE
  5
B2
100
AcDbEntity
100
AcDbLine
  8
1570
 62
256
370
-1
 48
1.0
  6
ByLayer
 10
539657.86750000005
 20
4477669.4055000003
 30
1588.0457763671875
 11
539656.83140000002
 21
4477670.5860000001
 31
1588.013671875
  0
LINE
  5
B3
100
AcDbEntity
100
AcDbLine
  8
1570
 62
256
370
-1
 48
1.0
  6
ByLayer
 10
539656.83140000002
 20
4477670.5860000001
 30
1588.013671875
 11
539655.43940000003
 21
4477671.5455
 31
1587.6180419921875
  0
LINE
  5
B4
100
AcDbEntity
100
AcDbLine
  8
1570
 62
256
370
-1
 48
1.0
  6
ByLayer
 10
539655.43940000003
 20
4477671.5455
 30
1587.6180419921875
 11
539653.38630000001
 21
4477671.6985999998
 31
1587.3489990234375
  0
LINE
  5
B5
100
AcDbEntity
100
AcDbLine
  8
1570
 62
256
370
-1
 48
1.0
  6
ByLayer
 10
539651.38020000001
 20
4477675.1568999998
 30
1587.177734375
 11
539651.20700000005
 21
4477676.0005000001
 31
1587.110107421875
  0
LINE
  5
B6
100
AcDbEntity
100
AcDbLine
  8
1570
 62
256
370
-1
 48
1.0
  6
ByLayer
 10
539651.20700000005
 20
4477676.0005000001
 30
1587.110107421875
 11
539649.97499999998
 21
4477677.1524999999
 31
1586.947998046875
  0
LINE
  5
B7
100
AcDbEntity
100
AcDbLine
  8
1570
 62
256
370
-1
 48
1.0
  6
ByLayer
 10
539649.97499999998
 20
4477677.1524999999
 30
1586.947998046875
 11
539646.92409999995
 21
4477679.8557000002
 31
1586.44384765625
  0
LINE
  5
B8
100
AcDbEntity
100
AcDbLine
  8
1570
 62
256
370
-1
 48
1.0
  6
ByLayer
 10
539651.38020000001
 20
4477675.1568999998
 30
1587.177734375
 11
539648.28029999998
 21
4477673.0831000004
 31
1587.1612548828125
  0
LINE
  5
B9
100
AcDbEntity
100
AcDbLine
  8
1570
 62
256
370
-1
 48
1.0
  6
ByLayer
 10
539648.28029999998
 20
4477673.0831000004
 30
1587.1612548828125
 11
539645.50800000003
 21
4477674.0045999996
 31
1586.913818359375
  0
LINE
  5
BA
100
AcDbEntity
100
AcDbLine
  8
1570
 62
256
370
-1
 48
1.0
  6
ByLayer
 10
539645.50800000003
 20
4477674.0045999996
 30
1586.913818359375
 11
539643.11959999998
 21
4477675.3864000002
 31
1586.5699462890625
  0
LINE
  5
BB
100
AcDbEntity
100
AcDbLine
  8
1570
 62
256
370
-1
 48
1.0
  6
ByLayer
 10
539643.11959999998
 20
4477675.3864000002
 30
1586.5699462890625
 11
539641.00744015898
 21
4477676.5813071104
 31
1586.45751953125
  0
LINE
  5
BC
100
AcDbEntity
100
AcDbLine
  8
1570
 62
256
370
-1
 48
1.0
  6
ByLayer
 10
539638.10611329193
 20
4477673.7315924922
 30
1586.416787286506
 11
539640.55859999999
 21
4477671.9853999997
 31
1586.5985107421875
  0
LINE
  5
BD
100
AcDbEntity
100
AcDbLine
  8
1570
 62
256
370
-1
 48
1.0
  6
ByLayer
 10
539640.55859999999
 20
4477671.9853999997
 30
1586.5985107421875
 11
539641.96950000001
 21
4477670.8469000002
 31
1586.6793212890625
  0
LINE
  5
BE
100
AcDbEntity
100
AcDbLine
  8
1570
 62
256
370
-1
 48
1.0
  6
ByLayer
 10
539641.96950000001
 20
4477670.8469000002
 30
1586.6793212890625
 11
539642.95030000003
 21
4477669.6788999997
 31
1586.7744140625
  0
LINE
  5
BF
100
AcDbEntity
100
AcDbLine
  8
1570
 62
256
370
-1
 48
1.0
  6
ByLayer
 10
539642.95030000003
 20
4477669.6788999997
 30
1586.7744140625
 11
539644.96129999997
 21
4477668.9785000002
 31
1586.9112548828125
  0
LINE
  5
C0
100
AcDbEntity
100
AcDbLine
  8
1570
 62
256
370
-1
 48
1.0
  6
ByLayer
 10
539644.96129999997
 20
4477668.9785000002
 30
1586.9112548828125
 11
539647.89569999999
 21
4477669.3751999997
 31
1587.112060546875
  0
LINE
  5
C1
100
AcDbEntity
100
AcDbLine
  8
1570
 62
256
370
-1
 48
1.0
  6
ByLayer
 10
539647.89569999999
 20
4477669.3751999997
 30
1587.112060546875
 11
539650.47030000004
 21
4477670.2270999998
 31
1587.2291259765625
  0
LINE
  5
C2
100
AcDbEntity
100
AcDbLine
  8
1570
 62
256
370
-1
 48
1.0
  6
ByLayer
 10
539650.47030000004
 20
4477670.2270999998
 30
1587.2291259765625
 11
539653.38630000001
 21
4477671.6985999998
 31
1587.3489990234375
  0
LINE
  5
C3
100
AcDbEntity
100
AcDbLine
  8
1570
 62
256
370
-1
 48
1.0
  6
ByLayer
 10
539627.65859999997
 20
4477730.1481999997
 30
1589.8570556640625
 11
539628.06680000003
 21
4477729.9221000001
 31
1590.3372802734375
  0
LINE
  5
C4
100
AcDbEntity
100
AcDbLine
  8
1570
 62
256
370
-1
 48
1.0
  6
ByLayer
 10
539628.06680000003
 20
4477729.9221000001
 30
1590.3372802734375
 11
539629.02729999996
 21
4477728.1233000001
 31
1590.4249267578125
  0
LINE
  5
C5
100
AcDbEntity
100
AcDbLine
  8
1570
 62
256
370
-1
 48
1.0
  6
ByLayer
 10
539631.95970000001
 20
4477725.6742000002
 30
1590.710693359375
 11
539633.02309999999
 21
4477725.0318
 31
1590.5931396484375
  0
LINE
  5
C6
100
AcDbEntity
100
AcDbLine
  8
1570
 62
256
370
-1
 48
1.0
  6
ByLayer
 10
539633.02309999999
 20
4477725.0318
 30
1590.5931396484375
 11
539636.43909999996
 21
4477721.2819999997
 31
1590.5179443359375
  0
LINE
  5
C7
100
AcDbEntity
100
AcDbLine
  8
1570
 62
256
370
-1
 48
1.0
  6
ByLayer
 10
539636.43909999996
 20
4477721.2819999997
 30
1590.5179443359375
 11
539637.22629999998
 21
4477720.2965000002
 31
1590.483642578125
  0
LINE
  5
C8
100
AcDbEntity
100
AcDbLine
  8
1570
 62
256
370
-1
 48
1.0
  6
ByLayer
 10
539641.71699999995
 20
4477721.3879000004
 30
1590.4228515625
 11
539639.51800000004
 21
4477723.4803999998
 31
1590.4056396484375
  0
LINE
  5
C9
100
AcDbEntity
100
AcDbLine
  8
1570
 62
256
370
-1
 48
1.0
  6
ByLayer
 10
539639.51800000004
 20
4477723.4803999998
 30
1590.4056396484375
 11
539634.81420000002
 21
4477727.3860999998
 31
1590.7081298828125
  0
LINE
  5
CA
100
AcDbEntity
100
AcDbLine
  8
1570
 62
256
370
-1
 48
1.0
  6
ByLayer
 10
539634.81420000002
 20
4477727.3860999998
 30
1590.7081298828125
 11
539633.20830000006
 21
4477729.1347000003
 31
1590.6279296875
  0
LINE
  5
CB
100
AcDbEntity
100
AcDbLine
  8
1570
 62
256
370
-1
 48
1.0
  6
ByLayer
 10
539633.20830000006
 20
4477729.1347000003
 30
1590.6279296875
 11
539632.90689999994
 21
4477730.3350999998
 31
1590.4927978515625
  0
LINE
  5
CC
100
AcDbEntity
100
AcDbLine
  8
1570
 62
256
370
-1
 48
1.0
  6
ByLayer
 10
539632.90689999994
 20
4477730.3350999998
 30
1590.4927978515625
 11
539630.71230000001
 21
4477732.5236999998
 31
1590.0869140625
  0
LINE
  5
CD
100
AcDbEntity
100
AcDbLine
  8
1570
 62
256
370
-1
 48
1.0
  6
ByLayer
 10
539615.14729999995
 20
4477749.7791999998
 30
1589.5179443359375
 11
539611.65549999999
 21
4477750.1058
 31
1589.8671875
  0
LINE
  5
CE
100
AcDbEntity
100
AcDbLine
  8
1570
 62
256
370
-1
 48
1.0
  6
ByLayer
 10
539611.65549999999
 20
4477750.1058
 30
1589.8671875
 11
539610.25699999998
 21
4477751.5301000001
 31
1590.1826171875
  0
LINE
  5
CF
100
AcDbEntity
100
AcDbLine
  8
1570
 62
256
370
-1
 48
1.0
  6
ByLayer
 10
539613.07189999998
 20
4477766.2609999999
 30
1593.9000244140625
 11
539615.88710000005
 21
4477771.1934000002
 31
1595.2747802734375
  0
LINE
  5
D0
100
AcDbEntity
100
AcDbLine
  8
1570
 62
256
370
-1
 48
1.0
  6
ByLayer
 10
539615.88710000005
 20
4477771.1934000002
 30
1595.2747802734375
 11
539618.07200000004
 21
4477773.9911000002
 31
1595.9554443359375
  0
LINE
  5
D1
100
AcDbEntity
100
AcDbLine
  8
1570
 62
256
370
-1
 48
1.0
  6
ByLayer
 10
539618.07200000004
 20
4477773.9911000002
 30
1595.9554443359375
 11
539620.91689999995
 21
4477776.4570000004
 31
1596.0279541015625
  0
LINE
  5
D2
100
AcDbEntity
100
AcDbLine
  8
1570
 62
256
370
-1
 48
1.0
  6
ByLayer
 10
539620.91689999995
 20
4477776.4570000004
 30
1596.0279541015625
 11
539623.66839999997
 21
4477779.8849999998
 31
1596.0167236328125
  0
LINE
  5
D3
100
AcDbEntity
100
AcDbLine
  8
1570
 62
256
370
-1
 48
1.0
  6
ByLayer
 10
539625.9314
 20
4477777.7666999996
 30
1596.06884765625
 11
539623.05500000005
 21
4477774.2220000001
 31
1596.060546875
  0
LINE
  5
D4
100
AcDbEntity
100
AcDbLine
  8
1570
 62
256
370
-1
 48
1.0
  6
ByLayer
 10
539623.05500000005
 20
4477774.2220000001
 30
1596.060546875
 11
539620.14760000003
 21
4477770.3646
 31
1595.5247802734375
  0
LINE
  5
D5
100
AcDbEntity
100
AcDbLine
  8
1570
 62
256
370
-1
 48
1.0
  6
ByLayer
 10
539641.55200000003
 20
4477717.3464000002
 30
1590.4381103515625
 11
539642.81200000003
 21
4477716.9550999999
 31
1590.34619140625
  0
LINE
  5
D6
100
AcDbEntity
100
AcDbLine
  8
1570
 62
256
370
-1
 48
1.0
  6
ByLayer
 10
539642.81200000003
 20
4477716.9550999999
 30
1590.34619140625
 11
539644.9693
 21
4477715.3430000003
 31
1590.4576416015625
  0
LINE
  5
D7
100
AcDbEntity
100
AcDbLine
  8
1570
 62
256
370
-1
 48
1.0
  6
ByLayer
 10
539649.28799999994
 20
4477717.0762
 30
1590.522216796875
 11
539647.33380000002
 21
4477718.1089000003
 31
1590.317626953125
  0
LINE
  5
D8
100
AcDbEntity
100
AcDbLine
  8
1570
 62
256
370
-1
 48
1.0
  6
ByLayer
 10
539647.33380000002
 20
4477718.1089000003
 30
1590.317626953125
 11
539644.38100000005
 21
4477719.8278000001
 31
1590.4195556640625
  0
LINE
  5
D9
100
AcDbEntity
100
AcDbLine
  8
1570
 62
256
370
-1
 48
1.0
  6
ByLayer
 10
539644.38100000005
 20
4477719.8278000001
 30
1590.4195556640625
 11
539641.71699999995
 21
4477721.3879000004
 31
1590.4228515625
  0
LINE
  5
DA
100
AcDbEntity
100
AcDbLine
  8
1570
 62
256
370
-1
 48
1.0
  6
ByLayer
 10
539629.02729999996
 20
4477728.1233000001
 30
1590.4249267578125
 11
539628.77610000002
 21
4477727.8136999998
 31
1590.7640380859375
  0
LINE
  5
DB
100
AcDbEntity
100
AcDbLine
  8
1570
 62
256
370
-1
 48
1.0
  6
ByLayer
 10
539629.12109999999
 20
4477721.2943000002
 30
1590.8570556640625
 11
539630.27080000006
 21
4477723.4929
 31
1590.785400390625
  0
LINE
  5
DC
100
AcDbEntity
100
AcDbLine
  8
1570
 62
256
370
-1
 48
1.0
  6
ByLayer
 10
539640.14500000002
 20
4477714.5641999999
 30
1590.4171142578125
 11
539640.549
 21
4477716.5508000003
 31
1590.391845703125
  0
LINE
  5
DD
100
AcDbEntity
100
AcDbLine
  8
1570
 62
256
370
-1
 48
1.0
  6
ByLayer
 10
539640.549
 20
4477716.5508000003
 30
1590.391845703125
 11
539641.15529999998
 21
4477717.1385000004
 31
1590.3980712890625
  0
LINE
  5
DE
100
AcDbEntity
100
AcDbLine
  8
1570
 62
256
370
-1
 48
1.0
  6
ByLayer
 10
539641.15529999998
 20
4477717.1385000004
 30
1590.3980712890625
 11
539641.55200000003
 21
4477717.3464000002
 31
1590.4381103515625
  0
LINE
  5
DF
100
AcDbEntity
100
AcDbLine
  8
1570
 62
256
370
-1
 48
1.0
  6
ByLayer
 10
539629.52789999999
 20
4477695.5477999998
 30
1584.3829345703125
 11
539629.30149999994
 21
4477695.0093
 31
1584.53564453125
  0
LINE
  5
E0
100
AcDbEntity
100
AcDbLine
  8
1570
 62
256
370
-1
 48
1.0
  6
ByLayer
 10
539629.30149999994
 20
4477695.0093
 30
1584.53564453125
 11
539628.33940000006
 21
4477692.6891000001
 31
1584.5975341796875
  0
LINE
  5
E1
100
AcDbEntity
100
AcDbLine
  8
1570
 62
256
370
-1
 48
1.0
  6
ByLayer
 10
539629.12109999999
 20
4477721.2943000002
 30
1590.8570556640625
 11
539628.96959999995
 21
4477720.148
 31
1590.800048828125
  0
LINE
  5
E2
100
AcDbEntity
100
AcDbLine
  8
1570
 62
256
370
-1
 48
1.0
  6
ByLayer
 10
539628.96959999995
 20
4477720.148
 30
1590.800048828125
 11
539628.55969999998
 21
4477718.8746999996
 31
1590.800048828125
  0
LINE
  5
E3
100
AcDbEntity
100
AcDbLine
  8
1570
 62
256
370
-1
 48
1.0
  6
ByLayer
 10
539628.55969999998
 20
4477718.8746999996
 30
1590.800048828125
 11
539628.69669999997
 21
4477717.9195999997
 31
1590.800048828125
  0
LINE
  5
E4
100
AcDbEntity
100
AcDbLine
  8
1570
 62
256
370
-1
 48
1.0
  6
ByLayer
 10
539628.69669999997
 20
4477717.9195999997
 30
1590.800048828125
 11
539628.53980000003
 21
4477716.4467000002
 31
1590.800048828125
  0
LINE
  5
E5
100
AcDbEntity
100
AcDbLine
  8
1570
 62
256
370
-1
 48
1.0
  6
ByLayer
 10
539628.53980000003
 20
4477716.4467000002
 30
1590.800048828125
 11
539624.87959999999
 21
4477717.3065999998
 31
1590.800048828125
  0
LINE
  5
E6
100
AcDbEntity
100
AcDbLine
  8
1570
 62
256
370
-1
 48
1.0
  6
ByLayer
 10
539624.87959999999
 20
4477717.3065999998
 30
1590.800048828125
 11
539625.16630000004
 21
4477719.7481000004
 31
1590.800048828125
  0
LINE
  5
E7
100
AcDbEntity
100
AcDbLine
  8
1570
 62
256
370
-1
 48
1.0
  6
ByLayer
 10
539625.16630000004
 20
4477719.7481000004
 30
1590.800048828125
 11
539625.11569999997
 21
4477720.8216000004
 31
1590.800048828125
  0
LINE
  5
E8
100
AcDbEntity
100
AcDbLine
  8
1570
 62
256
370
-1
 48
1.0
  6
ByLayer
 10
539625.11569999997
 20
4477720.8216000004
 30
1590.800048828125
 11
539624.4693
 21
4477721.8163000001
 31
1590.662353515625
  0
LINE
  5
E9
100
AcDbEntity
100
AcDbLine
  8
1570
 62
256
370
-1
 48
1.0
  6
ByLayer
 10
539624.4693
 20
4477721.8163000001
 30
1590.662353515625
 11
539622.60309999995
 21
4477721.7380999997
 31
1590.5150146484375
  0
LINE
  5
EA
100
AcDbEntity
100
AcDbLine
  8
1570
 62
256
370
-1
 48
1.0
  6
ByLayer
 10
539622.60309999995
 20
4477721.7380999997
 30
1590.5150146484375
 11
539621.46730000002
 21
4477721.3799000001
 31
1590.5238037109375
  0
LINE
  5
EB
100
AcDbEntity
100
AcDbLine
  8
1570
 62
256
370
-1
 48
1.0
  6
ByLayer
 10
539621.46730000002
 20
4477721.3799000001
 30
1590.5238037109375
 11
539619.78960000002
 21
4477720.5835999995
 31
1590.679443359375
  0
LINE
  5
EC
100
AcDbEntity
100
AcDbLine
  8
1570
 62
256
370
-1
 48
1.0
  6
ByLayer
 10
539619.78960000002
 20
4477720.5835999995
 30
1590.679443359375
 11
539618.59120000002
 21
4477722.8827
 31
1590.7381591796875
  0
LINE
  5
ED
100
AcDbEntity
100
AcDbLine
  8
1570
 62
256
370
-1
 48
1.0
  6
ByLayer
 10
539618.59120000002
 20
4477722.8827
 30
1590.7381591796875
 11
539618.35439999995
 21
4477724.3902000003
 31
1590.83935546875
  0
LINE
  5
EE
100
AcDbEntity
100
AcDbLine
  8
1570
 62
256
370
-1
 48
1.0
  6
ByLayer
 10
539618.35439999995
 20
4477724.3902000003
 30
1590.83935546875
 11
539618.82189999998
 21
4477725.2596000005
 31
1590.8994140625
  0
LINE
  5
EF
100
AcDbEntity
100
AcDbLine
  8
1570
 62
256
370
-1
 48
1.0
  6
ByLayer
 10
539618.82189999998
 20
4477725.2596000005
 30
1590.8994140625
 11
539618.0577
 21
4477726.4437999995
 31
1590.9779052734375
  0
LINE
  5
F0
100
AcDbEntity
100
AcDbLine
  8
1570
 62
256
370
-1
 48
1.0
  6
ByLayer
 10
539618.0577
 20
4477726.4437999995
 30
1590.9779052734375
 11
539620.49708873534
 21
4477727.5759008415
 31
1591.121337890625
  0
LINE
  5
F1
100
AcDbEntity
100
AcDbLine
  8
1570
 62
256
370
-1
 48
1.0
  6
ByLayer
 10
539620.49708873534
 20
4477727.5759008415
 30
1591.121337890625
 11
539621.69314324728
 21
4477726.8477111356
 31
1590.813232421875
  0
LINE
  5
F2
100
AcDbEntity
100
AcDbLine
  8
1570
 62
256
370
-1
 48
1.0
  6
ByLayer
 10
539621.69314324728
 20
4477726.8477111356
 30
1590.813232421875
 11
539623.04579999996
 21
4477725.6870999997
 31
1590.6619873046875
  0
LINE
  5
F3
100
AcDbEntity
100
AcDbLine
  8
1570
 62
256
370
-1
 48
1.0
  6
ByLayer
 10
539623.04579999996
 20
4477725.6870999997
 30
1590.6619873046875
 11
539624.79370000004
 21
4477725.7766000004
 31
1590.6702880859375
  0
LINE
  5
F4
100
AcDbEntity
100
AcDbLine
  8
1570
 62
256
370
-1
 48
1.0
  6
ByLayer
 10
539624.79370000004
 20
4477725.7766000004
 30
1590.6702880859375
 11
539626.68000000005
 21
4477725.7472999999
 31
1590.8599853515625
  0
LINE
  5
F5
100
AcDbEntity
100
AcDbLine
  8
1570
 62
256
370
-1
 48
1.0
  6
ByLayer
 10
539626.68000000005
 20
4477725.7472999999
 30
1590.8599853515625
 11
539628.01100000006
 21
4477726.3114
 31
1590.9053955078125
  0
LINE
  5
F6
100
AcDbEntity
100
AcDbLine
  8
1570
 62
256
370
-1
 48
1.0
  6
ByLayer
 10
539628.77610000002
 20
4477727.8136999998
 30
1590.7640380859375
 11
539628.01100000006
 21
4477726.3114
 31
1590.9053955078125
  0
LINE
  5
F7
100
AcDbEntity
100
AcDbLine
  8
1570
 62
256
370
-1
 48
1.0
  6
ByLayer
 10
539640.14500000002
 20
4477714.5641999999
 30
1590.4171142578125
 11
539636.84710000001
 21
4477715.1920999996
 31
1590.449951171875
  0
LINE
  5
F8
100
AcDbEntity
100
AcDbLine
  8
1570
 62
256
370
-1
 48
1.0
  6
ByLayer
 10
539636.84710000001
 20
4477715.1920999996
 30
1590.449951171875
 11
539637.06189999997
 21
4477716.6151999999
 31
1590.5040283203125
  0
LINE
  5
F9
100
AcDbEntity
100
AcDbLine
  8
1570
 62
256
370
-1
 48
1.0
  6
ByLayer
 10
539637.06189999997
 20
4477716.6151999999
 30
1590.5040283203125
 11
539637.42079999996
 21
4477718.3340999996
 31
1590.4000244140625
  0
LINE
  5
FA
100
AcDbEntity
100
AcDbLine
  8
1570
 62
256
370
-1
 48
1.0
  6
ByLayer
 10
539637.42079999996
 20
4477718.3340999996
 30
1590.4000244140625
 11
539637.22629999998
 21
4477720.2965000002
 31
1590.483642578125
  0
LINE
  5
FB
100
AcDbEntity
100
AcDbLine
  8
1570
 62
256
370
-1
 48
1.0
  6
ByLayer
 10
539654.64549999998
 20
4477714.7297
 30
1590.1175537109375
 11
539652.98499999999
 21
4477715.4013999999
 31
1590.2215576171875
  0
LINE
  5
FC
100
AcDbEntity
100
AcDbLine
  8
1570
 62
256
370
-1
 48
1.0
  6
ByLayer
 10
539652.98499999999
 20
4477715.4013999999
 30
1590.2215576171875
 11
539649.28799999994
 21
4477717.0762
 31
1590.522216796875
  0
LINE
  5
FD
100
AcDbEntity
100
AcDbLine
  8
1570
 62
256
370
-1
 48
1.0
  6
ByLayer
 10
539671.90619999997
 20
4477710.2220000001
 30
1588.7586669921875
 11
539674.70389999996
 21
4477710.7565000001
 31
1588.4429931640625
  0
LINE
  5
FE
100
AcDbEntity
100
AcDbLine
  8
1570
 62
256
370
-1
 48
1.0
  6
ByLayer
 10
539667.88589999999
 20
4477712.5985000003
 30
1589.112060546875
 11
539665.72279999999
 21
4477711.7437000005
 31
1589.635009765625
  0
LINE
  5
FF
100
AcDbEntity
100
AcDbLine
  8
1570
 62
256
370
-1
 48
1.0
  6
ByLayer
 10
539665.72279999999
 20
4477711.7437000005
 30
1589.635009765625
 11
539663.60320000001
 21
4477711.1653000005
 31
1590.1412353515625
  0
LINE
  5
100
100
AcDbEntity
100
AcDbLine
  8
1570
 62
256
370
-1
 48
1.0
  6
ByLayer
 10
539663.60320000001
 20
4477711.1653000005
 30
1590.1412353515625
 11
539660.21459999995
 21
4477711.3832999999
 31
1590.4017333984375
  0
LINE
  5
101
100
AcDbEntity
100
AcDbLine
  8
1570
 62
256
370
-1
 48
1.0
  6
ByLayer
 10
539660.21459999995
 20
4477711.3832999999
 30
1590.4017333984375
 11
539654.64549999998
 21
4477714.7297
 31
1590.1175537109375
  0
LINE
  5
102
100
AcDbEntity
100
AcDbLine
  8
1570
 62
256
370
-1
 48
1.0
  6
ByLayer
 10
539620.14760000003
 20
4477770.3646
 30
1595.5247802734375
 11
539620.0061
 21
4477768.2481000004
 31
1595.344970703125
  0
LINE
  5
103
100
AcDbEntity
100
AcDbLine
  8
1570
 62
256
370
-1
 48
1.0
  6
ByLayer
 10
539620.0061
 20
4477768.2481000004
 30
1595.344970703125
 11
539620.90670000005
 21
4477766.324
 31
1594.989990234375
  0
LINE
  5
104
100
AcDbEntity
100
AcDbLine
  8
1570
 62
256
370
-1
 48
1.0
  6
ByLayer
 10
539620.90670000005
 20
4477766.324
 30
1594.989990234375
 11
539622.21660000004
 21
4477765.3014000002
 31
1594.8052978515625
  0
LINE
  5
105
100
AcDbEntity
100
AcDbLine
  8
1570
 62
256
370
-1
 48
1.0
  6
ByLayer
 10
539622.21660000004
 20
4477765.3014000002
 30
1594.8052978515625
 11
539625.83929999999
 21
4477763.8112000003
 31
1594.78125
  0
LINE
  5
106
100
AcDbEntity
100
AcDbLine
  8
1570
 62
256
370
-1
 48
1.0
  6
ByLayer
 10
539625.83929999999
 20
4477763.8112000003
 30
1594.78125
 11
539626.46810000006
 21
4477763.7786999997
 31
1594.7491455078125
  0
LINE
  5
107
100
AcDbEntity
100
AcDbLine
  8
1570
 62
256
370
-1
 48
1.0
  6
ByLayer
 10
539626.46810000006
 20
4477763.7786999997
 30
1594.7491455078125
 11
539628.09979999997
 21
4477763.4786999999
 31
1594.8846435546875
  0
LINE
  5
108
100
AcDbEntity
100
AcDbLine
  8
1570
 62
256
370
-1
 48
1.0
  6
ByLayer
 10
539628.09979999997
 20
4477763.4786999999
 30
1594.8846435546875
 11
539631.30339999998
 21
4477763.3119000001
 31
1595.2071533203125
  0
LINE
  5
109
100
AcDbEntity
100
AcDbLine
  8
1570
 62
256
370
-1
 48
1.0
  6
ByLayer
 10
539631.30339999998
 20
4477763.3119000001
 30
1595.2071533203125
 11
539634.27320000005
 21
4477764.1990999999
 31
1595.8953857421875
  0
LINE
  5
10A
100
AcDbEntity
100
AcDbLine
  8
1570
 62
256
370
-1
 48
1.0
  6
ByLayer
 10
539634.27320000005
 20
4477764.1990999999
 30
1595.8953857421875
 11
539636.37860000005
 21
4477765.6180999996
 31
1596.37255859375
  0
LINE
  5
10B
100
AcDbEntity
100
AcDbLine
  8
1570
 62
256
370
-1
 48
1.0
  6
ByLayer
 10
539636.37860000005
 20
4477765.6180999996
 30
1596.37255859375
 11
539638.00600000005
 21
4477767.6189999999
 31
1597.049560546875
  0
LINE
  5
10C
100
AcDbEntity
100
AcDbLine
  8
1570
 62
256
370
-1
 48
1.0
  6
ByLayer
 10
539638.00600000005
 20
4477767.6189999999
 30
1597.049560546875
 11
539640.15390000003
 21
4477768.3861999996
 31
1597.5631103515625
  0
LINE
  5
10D
100
AcDbEntity
100
AcDbLine
  8
1570
 62
256
370
-1
 48
1.0
  6
ByLayer
 10
539641.64659999998
 20
4477765.5303999996
 30
1597.224609375
 11
539638.48690000002
 21
4477762.7170000002
 31
1596.641845703125
  0
LINE
  5
10E
100
AcDbEntity
100
AcDbLine
  8
1570
 62
256
370
-1
 48
1.0
  6
ByLayer
 10
539631.33959999995
 20
4477759.9590999996
 30
1595.3646240234375
 11
539629.55949999997
 21
4477759.7960000001
 31
1595.23974609375
  0
LINE
  5
10F
100
AcDbEntity
100
AcDbLine
  8
1570
 62
256
370
-1
 48
1.0
  6
ByLayer
 10
539629.55949999997
 20
4477759.7960000001
 30
1595.23974609375
 11
539627.16249999998
 21
4477760.2562999995
 31
1595.0528564453125
  0
LINE
  5
110
100
AcDbEntity
100
AcDbLine
  8
1570
 62
256
370
-1
 48
1.0
  6
ByLayer
 10
539627.16249999998
 20
4477760.2562999995
 30
1595.0528564453125
 11
539625.58409999998
 21
4477760.6346000005
 31
1594.8829345703125
  0
LINE
  5
111
100
AcDbEntity
100
AcDbLine
  8
1570
 62
256
370
-1
 48
1.0
  6
ByLayer
 10
539625.58409999998
 20
4477760.6346000005
 30
1594.8829345703125
 11
539623.99730000005
 21
4477761.4397
 31
1594.9368896484375
  0
LINE
  5
112
100
AcDbEntity
100
AcDbLine
  8
1570
 62
256
370
-1
 48
1.0
  6
ByLayer
 10
539623.99730000005
 20
4477761.4397
 30
1594.9368896484375
 11
539620.76850000001
 21
4477762.6319000004
 31
1594.858154296875
  0
LINE
  5
113
100
AcDbEntity
100
AcDbLine
  8
1570
 62
256
370
-1
 48
1.0
  6
ByLayer
 10
539620.76850000001
 20
4477762.6319000004
 30
1594.858154296875
 11
539617.99040000001
 21
4477762.9721999997
 31
1594.4395751953125
  0
LINE
  5
114
100
AcDbEntity
100
AcDbLine
  8
1570
 62
256
370
-1
 48
1.0
  6
ByLayer
 10
539617.99040000001
 20
4477762.9721999997
 30
1594.4395751953125
 11
539615.60919999995
 21
4477762.4375999998
 31
1593.7236328125
  0
LINE
  5
115
100
AcDbEntity
100
AcDbLine
  8
1570
 62
256
370
-1
 48
1.0
  6
ByLayer
 10
539615.60919999995
 20
4477762.4375999998
 30
1593.7236328125
 11
539614.94990000001
 21
4477761.8930000002
 31
1593.3499755859375
  0
LINE
  5
116
100
AcDbEntity
100
AcDbLine
  8
1570
 62
256
370
-1
 48
1.0
  6
ByLayer
 10
539624.77709999995
 20
4477739.8315000003
 30
1589.794921875
 11
539628.53359999997
 21
4477738.3585000001
 31
1590.2392578125
  0
LINE
  5
117
100
AcDbEntity
100
AcDbLine
  8
1570
 62
256
370
-1
 48
1.0
  6
ByLayer
 10
539628.53359999997
 20
4477738.3585000001
 30
1590.2392578125
 11
539633.625
 21
4477737.6606000001
 31
1590.634765625
  0
LINE
  5
118
100
AcDbEntity
100
AcDbLine
  8
1570
 62
256
370
-1
 48
1.0
  6
ByLayer
 10
539633.625
 20
4477737.6606000001
 30
1590.634765625
 11
539634.14379999996
 21
4477736.9884000001
 31
1590.6695556640625
  0
LINE
  5
119
100
AcDbEntity
100
AcDbLine
  8
1570
 62
256
370
-1
 48
1.0
  6
ByLayer
 10
539634.14379999996
 20
4477736.9884000001
 30
1590.6695556640625
 11
539636.63749999995
 21
4477736.1272
 31
1590.7769775390625
  0
LINE
  5
11A
100
AcDbEntity
100
AcDbLine
  8
1570
 62
256
370
-1
 48
1.0
  6
ByLayer
 10
539636.63749999995
 20
4477736.1272
 30
1590.7769775390625
 11
539639.7341
 21
4477734.6705
 31
1590.954833984375
  0
LINE
  5
11B
100
AcDbEntity
100
AcDbLine
  8
1570
 62
256
370
-1
 48
1.0
  6
ByLayer
 10
539635.44880000001
 20
4477733.3068000004
 30
1590.8895263671875
 11
539633.28260000004
 21
4477733.9791999999
 31
1590.708984375
  0
LINE
  5
11C
100
AcDbEntity
100
AcDbLine
  8
1570
 62
256
370
-1
 48
1.0
  6
ByLayer
 10
539633.28260000004
 20
4477733.9791999999
 30
1590.708984375
 11
539631.11450000003
 21
4477734.6094000004
 31
1590.396484375
  0
LINE
  5
11D
100
AcDbEntity
100
AcDbLine
  8
1570
 62
256
370
-1
 48
1.0
  6
ByLayer
 10
539631.11450000003
 20
4477734.6094000004
 30
1590.396484375
 11
539629.95070000004
 21
4477734.5073999995
 31
1590.2342529296875
  0
LINE
  5
11E
100
AcDbEntity
100
AcDbLine
  8
1570
 62
256
370
-1
 48
1.0
  6
ByLayer
 10
539629.95070000004
 20
4477734.5073999995
 30
1590.2342529296875
 11
539630.71230000001
 21
4477732.5236999998
 31
1590.0869140625
  0
LINE
  5
11F
100
AcDbEntity
100
AcDbLine
  8
1570
 62
256
370
-1
 48
1.0
  6
ByLayer
 10
539639.7341
 20
4477734.6705
 30
1590.954833984375
 11
539640.23869999999
 21
4477734.2205999997
 31
1590.8433837890625
  0
LINE
  5
120
100
AcDbEntity
100
AcDbLine
  8
1570
 62
256
370
-1
 48
1.0
  6
ByLayer
 10
539641.64659999998
 20
4477765.5303999996
 30
1597.224609375
 11
539643.26130000001
 21
4477766.9691000003
 31
1597.449951171875
  0
LINE
  5
121
100
AcDbEntity
100
AcDbLine
  8
1570
 62
256
370
-1
 48
1.0
  6
ByLayer
 10
539643.26130000001
 20
4477766.9691000003
 30
1597.449951171875
 11
539646.31830000004
 21
4477769.0066999998
 31
1597.800048828125
  0
LINE
  5
122
100
AcDbEntity
100
AcDbLine
  8
1570
 62
256
370
-1
 48
1.0
  6
ByLayer
 10
539646.31830000004
 20
4477769.0066999998
 30
1597.800048828125
 11
539648.38230000006
 21
4477770.3294000002
 31
1598.0
  0
LINE
  5
123
100
AcDbEntity
100
AcDbLine
  8
1570
 62
256
370
-1
 48
1.0
  6
ByLayer
 10
539644.60950000002
 20
4477771.7539999997
 30
1598.1500244140625
 11
539643.20460000006
 21
4477770.9093000004
 31
1598.0
  0
LINE
  5
124
100
AcDbEntity
100
AcDbLine
  8
1570
 62
256
370
-1
 48
1.0
  6
ByLayer
 10
539643.20460000006
 20
4477770.9093000004
 30
1598.0
 11
539640.77529999998
 21
4477769.1123000002
 31
1597.699951171875
  0
LINE
  5
125
100
AcDbEntity
100
AcDbLine
  8
1570
 62
256
370
-1
 48
1.0
  6
ByLayer
 10
539640.77529999998
 20
4477769.1123000002
 30
1597.699951171875
 11
539640.15390000003
 21
4477768.3861999996
 31
1597.5631103515625
  0
LINE
  5
126
100
AcDbEntity
100
AcDbLine
  8
1570
 62
256
370
-1
 48
1.0
  6
ByLayer
 10
539631.33959999995
 20
4477759.9590999996
 30
1595.3646240234375
 11
539632.86719999998
 21
4477759.6619999995
 31
1595.663330078125
  0
LINE
  5
127
100
AcDbEntity
100
AcDbLine
  8
1570
 62
256
370
-1
 48
1.0
  6
ByLayer
 10
539632.86719999998
 20
4477759.6619999995
 30
1595.663330078125
 11
539634.21340000001
 21
4477758.2059000004
 31
1596.19287109375
  0
LINE
  5
128
100
AcDbEntity
100
AcDbLine
  8
1570
 62
256
370
-1
 48
1.0
  6
ByLayer
 10
539634.21340000001
 20
4477758.2059000004
 30
1596.19287109375
 11
539635.24239999999
 21
4477756.6760999998
 31
1596.74462890625
  0
LINE
  5
129
100
AcDbEntity
100
AcDbLine
  8
1570
 62
256
370
-1
 48
1.0
  6
ByLayer
 10
539635.24239999999
 20
4477756.6760999998
 30
1596.74462890625
 11
539635.52390000003
 21
4477754.5774999997
 31
1597.113037109375
  0
LINE
  5
12A
100
AcDbEntity
100
AcDbLine
  8
1570
 62
256
370
-1
 48
1.0
  6
ByLayer
 10
539635.52390000003
 20
4477754.5774999997
 30
1597.113037109375
 11
539635.95889999997
 21
4477751.8581999997
 31
1597.87841796875
  0
LINE
  5
12B
100
AcDbEntity
100
AcDbLine
  8
1570
 62
256
370
-1
 48
1.0
  6
ByLayer
 10
539635.95889999997
 20
4477751.8581999997
 30
1597.87841796875
 11
539637.09259999997
 21
4477748.7375999996
 31
1598.679931640625
  0
LINE
  5
12C
100
AcDbEntity
100
AcDbLine
  8
1570
 62
256
370
-1
 48
1.0
  6
ByLayer
 10
539637.09259999997
 20
4477748.7375999996
 30
1598.679931640625
 11
539637.84649999999
 21
4477746.2856999999
 31
1599.220458984375
  0
LINE
  5
12D
100
AcDbEntity
100
AcDbLine
  8
1570
 62
256
370
-1
 48
1.0
  6
ByLayer
 10
539637.84649999999
 20
4477746.2856999999
 30
1599.220458984375
 11
539638.49910000002
 21
4477744.3534000004
 31
1599.8404541015625
  0
LINE
  5
12E
100
AcDbEntity
100
AcDbLine
  8
1570
 62
256
370
-1
 48
1.0
  6
ByLayer
 10
539638.49910000002
 20
4477744.3534000004
 30
1599.8404541015625
 11
539639.00760000001
 21
4477742.4697000002
 31
1600.0772705078125
  0
LINE
  5
12F
100
AcDbEntity
100
AcDbLine
  8
1570
 62
256
370
-1
 48
1.0
  6
ByLayer
 10
539640.03810000001
 20
4477750.3470999999
 30
1598.4281005859375
 11
539638.87609999999
 21
4477754.5142000001
 31
1597.4573974609375
  0
LINE
  5
130
100
AcDbEntity
100
AcDbLine
  8
1570
 62
256
370
-1
 48
1.0
  6
ByLayer
 10
539638.87609999999
 20
4477754.5142000001
 30
1597.4573974609375
 11
539638.37190000003
 21
4477757.0942000002
 31
1596.992919921875
  0
LINE
  5
131
100
AcDbEntity
100
AcDbLine
  8
1570
 62
256
370
-1
 48
1.0
  6
ByLayer
 10
539638.37190000003
 20
4477757.0942000002
 30
1596.992919921875
 11
539637.81779999996
 21
4477760.3641999997
 31
1596.41552734375
  0
LINE
  5
132
100
AcDbEntity
100
AcDbLine
  8
1570
 62
256
370
-1
 48
1.0
  6
ByLayer
 10
539637.81779999996
 20
4477760.3641999997
 30
1596.41552734375
 11
539637.52430000005
 21
4477761.5965
 31
1596.387939453125
  0
LINE
  5
133
100
AcDbEntity
100
AcDbLine
  8
1570
 62
256
370
-1
 48
1.0
  6
ByLayer
 10
539637.52430000005
 20
4477761.5965
 30
1596.387939453125
 11
539638.48690000002
 21
4477762.7170000002
 31
1596.641845703125
  0
LINE
  5
134
100
AcDbEntity
100
AcDbLine
  8
1570
 62
256
370
-1
 48
1.0
  6
ByLayer
 10
539646.09299999999
 20
4477686.1434000004
 30
1585.295166015625
 11
539649.6912
 21
4477682.6843999997
 31
1586.376953125
  0
LINE
  5
135
100
AcDbEntity
100
AcDbLine
  8
1570
 62
256
370
-1
 48
1.0
  6
ByLayer
 10
539649.6912
 20
4477682.6843999997
 30
1586.376953125
 11
539650.76969999995
 21
4477681.8938999996
 31
1586.564453125
  0
LINE
  5
136
100
AcDbEntity
100
AcDbLine
  8
1570
 62
256
370
-1
 48
1.0
  6
ByLayer
 10
539650.76969999995
 20
4477681.8938999996
 30
1586.564453125
 11
539652.90720000002
 21
4477681.0882000001
 31
1587.0196533203125
  0
LINE
  5
137
100
AcDbEntity
100
AcDbLine
  8
1570
 62
256
370
-1
 48
1.0
  6
ByLayer
 10
539652.90720000002
 20
4477681.0882000001
 30
1587.0196533203125
 11
539655.22219999996
 21
4477681.4117000001
 31
1587.6256103515625
  0
LINE
  5
138
100
AcDbEntity
100
AcDbLine
  8
1570
 62
256
370
-1
 48
1.0
  6
ByLayer
 10
539655.22219999996
 20
4477681.4117000001
 30
1587.6256103515625
 11
539658.77419999999
 21
4477682.9505000003
 31
1588.2662353515625
  0
LINE
  5
139
100
AcDbEntity
100
AcDbLine
  8
1570
 62
256
370
-1
 48
1.0
  6
ByLayer
 10
539658.77419999999
 20
4477682.9505000003
 30
1588.2662353515625
 11
539661.77630000003
 21
4477684.0842000004
 31
1588.6668701171875
  0
LINE
  5
13A
100
AcDbEntity
100
AcDbLine
  8
1570
 62
256
370
-1
 48
1.0
  6
ByLayer
 10
539663.87899999996
 20
4477680.9897999996
 30
1588.80810546875
 11
539660.73100000003
 21
4477680.1074999999
 31
1588.41845703125
  0
LINE
  5
13B
100
AcDbEntity
100
AcDbLine
  8
1570
 62
256
370
-1
 48
1.0
  6
ByLayer
 10
539660.73100000003
 20
4477680.1074999999
 30
1588.41845703125
 11
539657.48609999998
 21
4477678.9916000003
 31
1587.98291015625
  0
LINE
  5
13C
100
AcDbEntity
100
AcDbLine
  8
1570
 62
256
370
-1
 48
1.0
  6
ByLayer
 10
539657.48609999998
 20
4477678.9916000003
 30
1587.98291015625
 11
539656.22519999999
 21
4477678.0908000004
 31
1587.7791748046875
  0
LINE
  5
13D
100
AcDbEntity
100
AcDbLine
  8
1570
 62
256
370
-1
 48
1.0
  6
ByLayer
 10
539656.22519999999
 20
4477678.0908000004
 30
1587.7791748046875
 11
539656.17350000003
 21
4477676.8415999999
 31
1587.806640625
  0
LINE
  5
13E
100
AcDbEntity
100
AcDbLine
  8
1570
 62
256
370
-1
 48
1.0
  6
ByLayer
 10
539656.17350000003
 20
4477676.8415999999
 30
1587.806640625
 11
539658.44149999996
 21
4477674.9269000003
 31
1587.688720703125
  0
LINE
  5
13F
100
AcDbEntity
100
AcDbLine
  8
1570
 62
256
370
-1
 48
1.0
  6
ByLayer
 10
539661.77630000003
 20
4477684.0842000004
 30
1588.6668701171875
 11
539666.00820000004
 21
4477686.6799999997
 31
1589.2711181640625
  0
LINE
  5
140
100
AcDbEntity
100
AcDbLine
  8
1570
 62
256
370
-1
 48
1.0
  6
ByLayer
 10
539666.00820000004
 20
4477686.6799999997
 30
1589.2711181640625
 11
539668.62159999995
 21
4477690.1952
 31
1589.824951171875
  0
LINE
  5
141
100
AcDbEntity
100
AcDbLine
  8
1570
 62
256
370
-1
 48
1.0
  6
ByLayer
 10
539668.62159999995
 20
4477690.1952
 30
1589.824951171875
 11
539669.71169999999
 21
4477692.9101999998
 31
1590.3251953125
  0
LINE
  5
142
100
AcDbEntity
100
AcDbLine
  8
1570
 62
256
370
-1
 48
1.0
  6
ByLayer
 10
539669.71169999999
 20
4477692.9101999998
 30
1590.3251953125
 11
539670.1642
 21
4477694.3532999996
 31
1590.323486328125
  0
LINE
  5
143
100
AcDbEntity
100
AcDbLine
  8
1570
 62
256
370
-1
 48
1.0
  6
ByLayer
 10
539670.1642
 20
4477694.3532999996
 30
1590.323486328125
 11
539669.86410000001
 21
4477696.3673999999
 31
1590.4154052734375
  0
LINE
  5
144
100
AcDbEntity
100
AcDbLine
  8
1570
 62
256
370
-1
 48
1.0
  6
ByLayer
 10
539669.86410000001
 20
4477696.3673999999
 30
1590.4154052734375
 11
539668.31810000003
 21
4477700.1103999997
 31
1590.3304443359375
  0
LINE
  5
145
100
AcDbEntity
100
AcDbLine
  8
1570
 62
256
370
-1
 48
1.0
  6
ByLayer
 10
539668.31810000003
 20
4477700.1103999997
 30
1590.3304443359375
 11
539668.24789999996
 21
4477701.7063999996
 31
1590.2703857421875
  0
LINE
  5
146
100
AcDbEntity
100
AcDbLine
  8
1570
 62
256
370
-1
 48
1.0
  6
ByLayer
 10
539668.24789999996
 20
4477701.7063999996
 30
1590.2703857421875
 11
539667.34869999997
 21
4477703.3333000001
 31
1590.1927490234375
  0
LINE
  5
147
100
AcDbEntity
100
AcDbLine
  8
1570
 62
256
370
-1
 48
1.0
  6
ByLayer
 10
539667.34869999997
 20
4477703.3333000001
 30
1590.1927490234375
 11
539664.62789999996
 21
4477704.9153000005
 31
1590.364990234375
  0
LINE
  5
148
100
AcDbEntity
100
AcDbLine
  8
1570
 62
256
370
-1
 48
1.0
  6
ByLayer
 10
539664.62789999996
 20
4477704.9153000005
 30
1590.364990234375
 11
539654.52769999998
 21
4477710.4347999999
 31
1590.2000732421875
  0
LINE
  5
149
100
AcDbEntity
100
AcDbLine
  8
1570
 62
256
370
-1
 48
1.0
  6
ByLayer
 10
539671.90619999997
 20
4477710.2220000001
 30
1588.7586669921875
 11
539667.00809999998
 21
4477707.8262
 31
1590.301513671875
  0
LINE
  5
14A
100
AcDbEntity
100
AcDbLine
  8
1570
 62
256
370
-1
 48
1.0
  6
ByLayer
 10
539667.00809999998
 20
4477707.8262
 30
1590.301513671875
 11
539669.48569999996
 21
4477706.6063999999
 31
1590.2030029296875
  0
LINE
  5
14B
100
AcDbEntity
100
AcDbLine
  8
1570
 62
256
370
-1
 48
1.0
  6
ByLayer
 10
539669.48569999996
 20
4477706.6063999999
 30
1590.2030029296875
 11
539672.13020000001
 21
4477705.0225999998
 31
1590.1810302734375
  0
LINE
  5
14C
100
AcDbEntity
100
AcDbLine
  8
1570
 62
256
370
-1
 48
1.0
  6
ByLayer
 10
539672.13020000001
 20
4477705.0225999998
 30
1590.1810302734375
 11
539674.39419999998
 21
4477702.7072000001
 31
1590.2801513671875
  0
LINE
  5
14D
100
AcDbEntity
100
AcDbLine
  8
1570
 62
256
370
-1
 48
1.0
  6
ByLayer
 10
539674.63419999997
 20
4477694.5862999996
 30
1590.49609375
 11
539673.84609999997
 21
4477691.3689999999
 31
1590.238525390625
  0
LINE
  5
14E
100
AcDbEntity
100
AcDbLine
  8
1570
 62
256
370
-1
 48
1.0
  6
ByLayer
 10
539673.84609999997
 20
4477691.3689999999
 30
1590.238525390625
 11
539674.22400000005
 21
4477690.2041999996
 31
1590.23193359375
  0
LINE
  5
14F
100
AcDbEntity
100
AcDbLine
  8
1570
 62
256
370
-1
 48
1.0
  6
ByLayer
 10
539674.22400000005
 20
4477690.2041999996
 30
1590.23193359375
 11
539673.0784
 21
4477688.5977999996
 31
1590.017578125
  0
LINE
  5
150
100
AcDbEntity
100
AcDbLine
  8
1570
 62
256
370
-1
 48
1.0
  6
ByLayer
 10
539673.0784
 20
4477688.5977999996
 30
1590.017578125
 11
539672.65560000006
 21
4477687.4732999997
 31
1589.9840087890625
  0
LINE
  5
151
100
AcDbEntity
100
AcDbLine
  8
1570
 62
256
370
-1
 48
1.0
  6
ByLayer
 10
539672.65560000006
 20
4477687.4732999997
 30
1589.9840087890625
 11
539671.32660000003
 21
4477686.0855999999
 31
1589.8194580078125
  0
LINE
  5
152
100
AcDbEntity
100
AcDbLine
  8
1570
 62
256
370
-1
 48
1.0
  6
ByLayer
 10
539671.32660000003
 20
4477686.0855999999
 30
1589.8194580078125
 11
539669.7463
 21
4477684.1666000001
 31
1589.583740234375
  0
LINE
  5
153
100
AcDbEntity
100
AcDbLine
  8
1570
 62
256
370
-1
 48
1.0
  6
ByLayer
 10
539669.7463
 20
4477684.1666000001
 30
1589.583740234375
 11
539668.20999999996
 21
4477683.2400000002
 31
1589.48583984375
  0
LINE
  5
154
100
AcDbEntity
100
AcDbLine
  8
1570
 62
256
370
-1
 48
1.0
  6
ByLayer
 10
539668.20999999996
 20
4477683.2400000002
 30
1589.48583984375
 11
539663.87899999996
 21
4477680.9897999996
 31
1588.80810546875
  0
LINE
  5
155
100
AcDbEntity
100
AcDbLine
  8
1570
 62
256
370
-1
 48
1.0
  6
ByLayer
 10
539639.00760000001
 20
4477742.4697000002
 30
1600.0772705078125
 11
539642.81530000002
 21
4477734.0732000005
 31
1601.496826171875
  0
LINE
  5
156
100
AcDbEntity
100
AcDbLine
  8
1570
 62
256
370
-1
 48
1.0
  6
ByLayer
 10
539648.05390000006
 20
4477714.2074999996
 30
1590.487548828125
 11
539651.45660000003
 21
4477712.3461999996
 31
1589.96533203125
  0
LINE
  5
157
100
AcDbEntity
100
AcDbLine
  8
1570
 62
256
370
-1
 48
1.0
  6
ByLayer
 10
539651.45660000003
 20
4477712.3461999996
 30
1589.96533203125
 11
539654.52769999998
 21
4477710.4347999999
 31
1590.2000732421875
  0
LINE
  5
158
100
AcDbEntity
100
AcDbLine
  8
1570
 62
256
370
-1
 48
1.0
  6
ByLayer
 10
539648.05390000006
 20
4477714.2074999996
 30
1590.487548828125
 11
539644.9693
 21
4477715.3430000003
 31
1590.4576416015625
  0
LINE
  5
159
100
AcDbEntity
100
AcDbLine
  8
1570
 62
256
370
-1
 48
1.0
  6
ByLayer
 10
539674.39419999998
 20
4477702.7072000001
 30
1590.2801513671875
 11
539676.42150000005
 21
4477699.8185999999
 31
1590.2984619140625
  0
LINE
  5
15A
100
AcDbEntity
100
AcDbLine
  8
1570
 62
256
370
-1
 48
1.0
  6
ByLayer
 10
539676.42150000005
 20
4477699.8185999999
 30
1590.2984619140625
 11
539677.61820000003
 21
4477698.4193000002
 31
1590.2197265625
  0
LINE
  5
15B
100
AcDbEntity
100
AcDbLine
  8
1570
 62
256
370
-1
 48
1.0
  6
ByLayer
 10
539677.61820000003
 20
4477698.4193000002
 30
1590.2197265625
 11
539680.66830000002
 21
4477696.5081000002
 31
1590.258056640625
  0
LINE
  5
15C
100
AcDbEntity
100
AcDbLine
  8
1570
 62
256
370
-1
 48
1.0
  6
ByLayer
 10
539680.66830000002
 20
4477696.5081000002
 30
1590.258056640625
 11
539684.43980000005
 21
4477693.8476
 31
1590.2359619140625
  0
LINE
  5
15D
100
AcDbEntity
100
AcDbLine
  8
1570
 62
256
370
-1
 48
1.0
  6
ByLayer
 10
539684.43980000005
 20
4477693.8476
 30
1590.2359619140625
 11
539686.01610000001
 21
4477692.1516000004
 31
1590.2666015625
  0
LINE
  5
15E
100
AcDbEntity
100
AcDbLine
  8
1570
 62
256
370
-1
 48
1.0
  6
ByLayer
 10
539686.01610000001
 20
4477692.1516000004
 30
1590.2666015625
 11
539683.73400000005
 21
4477689.5096000005
 31
1590.339599609375
  0
LINE
  5
15F
100
AcDbEntity
100
AcDbLine
  8
1570
 62
256
370
-1
 48
1.0
  6
ByLayer
 10
539683.73400000005
 20
4477689.5096000005
 30
1590.339599609375
 11
539681.08600000001
 21
4477691.5877
 31
1590.2401123046875
  0
LINE
  5
160
100
AcDbEntity
100
AcDbLine
  8
1570
 62
256
370
-1
 48
1.0
  6
ByLayer
 10
539681.08600000001
 20
4477691.5877
 30
1590.2401123046875
 11
539677.60560000001
 21
4477694.6048999997
 31
1590.404052734375
  0
LINE
  5
161
100
AcDbEntity
100
AcDbLine
  8
1570
 62
256
370
-1
 48
1.0
  6
ByLayer
 10
539677.60560000001
 20
4477694.6048999997
 30
1590.404052734375
 11
539675.57070000004
 21
4477696.3069000002
 31
1590.4388427734375
  0
LINE
  5
162
100
AcDbEntity
100
AcDbLine
  8
1570
 62
256
370
-1
 48
1.0
  6
ByLayer
 10
539675.57070000004
 20
4477696.3069000002
 30
1590.4388427734375
 11
539674.63419999997
 21
4477694.5862999996
 31
1590.49609375
  0
LINE
  5
163
100
AcDbEntity
100
AcDbLine
  8
1570
 62
256
370
-1
 48
1.0
  6
ByLayer
 10
539609.44019999995
 20
4477753.2652000003
 30
1590.987060546875
 11
539610.25699999998
 21
4477751.5301000001
 31
1590.1826171875
  0
LINE
  5
164
100
AcDbEntity
100
AcDbLine
  8
1570
 62
256
370
-1
 48
1.0
  6
ByLayer
 10
539605.03520000004
 20
4477734.7027000003
 30
1584.6763916015625
 11
539605.58349999995
 21
4477740.4348999998
 31
1588.21484375
  0
LINE
  5
165
100
AcDbEntity
100
AcDbLine
  8
1570
 62
256
370
-1
 48
1.0
  6
ByLayer
 10
539630.27080000006
 20
4477723.4929
 30
1590.785400390625
 11
539631.95970000001
 21
4477725.6742000002
 31
1590.710693359375
  0
LINE
  5
166
100
AcDbEntity
100
AcDbLine
  8
1570
 62
256
370
-1
 48
1.0
  6
ByLayer
 10
539639.07929999998
 20
4477681.7260999996
 30
1585.338134765625
 11
539640.93370000005
 21
4477685.6065999996
 31
1585.0185546875
  0
LINE
  5
167
100
AcDbEntity
100
AcDbLine
  8
1570
 62
256
370
-1
 48
1.0
  6
ByLayer
 10
539646.18499882182
 20
4477735.6013131673
 30
1601.491943359375
 11
539644.25450000004
 21
4477741.0212000003
 31
1600.450439453125
  0
LINE
  5
168
100
AcDbEntity
100
AcDbLine
  8
1570
 62
256
370
-1
 48
1.0
  6
ByLayer
 10
539644.02989999996
 20
4477746.7247000001
 30
1599.9488525390625
 11
539642.43259999994
 21
4477747.4183
 31
1599.73828125
  0
LINE
  5
169
100
AcDbEntity
100
AcDbLine
  8
1570
 62
256
370
-1
 48
1.0
  6
ByLayer
 10
539642.43259999994
 20
4477747.4183
 30
1599.73828125
 11
539640.03810000001
 21
4477750.3470999999
 31
1598.4281005859375
  0
LINE
  5
16A
100
AcDbEntity
100
AcDbLine
  8
1570
 62
256
370
-1
 48
1.0
  6
ByLayer
 10
539644.25450000004
 20
4477741.0212000003
 30
1600.450439453125
 11
539649.11300000001
 21
4477743.1799999997
 31
1600.0
  0
LINE
  5
16B
100
AcDbEntity
100
AcDbLine
  8
1570
 62
256
370
-1
 48
1.0
  6
ByLayer
 10
539649.11300000001
 20
4477743.1799999997
 30
1600.0
 11
539653.33499999996
 21
4477747.1799999997
 31
1600.0
  0
LINE
  5
16C
100
AcDbEntity
100
AcDbLine
  8
1570
 62
256
370
-1
 48
1.0
  6
ByLayer
 10
539653.33499999996
 20
4477747.1799999997
 30
1600.0
 11
539651.15599999996
 21
4477750.0199999996
 31
1600.0
  0
LINE
  5
16D
100
AcDbEntity
100
AcDbLine
  8
1570
 62
256
370
-1
 48
1.0
  6
ByLayer
 10
539651.15599999996
 20
4477750.0199999996
 30
1600.0
 11
539647.04200000002
 21
4477747.0599999996
 31
1600.0
  0
LINE
  5
16E
100
AcDbEntity
100
AcDbLine
  8
1570
 62
256
370
-1
 48
1.0
  6
ByLayer
 10
539647.04200000002
 20
4477747.0599999996
 30
1600.0
 11
539644.02989999996
 21
4477746.7247000001
 31
1599.9488525390625
  0
POINT
  5
16F
100
AcDbEntity
100
AcDbPoint
  8
INIT_CORD
 62
256
370
-1
 48
1.0
  6
ByLayer
 10
539637.23184999998
 20
4477705.0271000005
 30
0.0
  0
LINE
  5
170
100
AcDbEntity
100
AcDbLine
  8
GEOFENCE
 62
256
370
-1
 48
1.0
  6
ByLayer
 10
539637.23184999998
 20
4477705.0271000005
 30
1583.5609130859375
 11
539635.00619999995
 21
4477702.3112499993
 31
792.03173828125
  0
LINE
  5
171
100
AcDbEntity
100
AcDbLine
  8
GEOFENCE
 62
256
370
-1
 48
1.0
  6
ByLayer
 10
539635.00619999995
 20
4477702.3112499993
 30
792.03173828125
 11
539644.6256515329
 21
4477684.7765372209
 31
792.03173828125
  0
LINE
  5
172
100
AcDbEntity
100
AcDbLine
  8
GEOFENCE
 62
256
370
-1
 48
1.0
  6
ByLayer
 10
539644.6256515329
 20
4477684.7765372209
 30
792.03173828125
 11
539652.32081620104
 21
4477678.3902675174
 31
792.03173828125
  0
LINE
  5
173
100
AcDbEntity
100
AcDbLine
  8
GEOFENCE
 62
256
370
-1
 48
1.0
  6
ByLayer
 10
539652.32081620104
 20
4477678.3902675174
 30
792.03173828125
 11
539665.98888703517
 21
4477684.5695748953
 31
792.03173828125
  0
LINE
  5
174
100
AcDbEntity
100
AcDbLine
  8
GEOFENCE
 62
256
370
-1
 48
1.0
  6
ByLayer
 10
539665.98888703517
 20
4477684.5695748953
 30
792.03173828125
 11
539669.39813039475
 21
4477688.2270411924
 31
792.03173828125
  0
LINE
  5
175
100
AcDbEntity
100
AcDbLine
  8
GEOFENCE
 62
256
370
-1
 48
1.0
  6
ByLayer
 10
539669.39813039475
 20
4477688.2270411924
 30
792.03173828125
 11
539673.18592300417
 21
4477697.4819116481
 31
792.03173828125
  0
LINE
  5
176
100
AcDbEntity
100
AcDbLine
  8
GEOFENCE
 62
256
370
-1
 48
1.0
  6
ByLayer
 10
539673.18592300417
 20
4477697.4819116481
 30
792.03173828125
 11
539670.89771493815
 21
4477701.9275953807
 31
792.03173828125
  0
LINE
  5
177
100
AcDbEntity
100
AcDbLine
  8
GEOFENCE
 62
256
370
-1
 48
1.0
  6
ByLayer
 10
539670.89771493815
 20
4477701.9275953807
 30
792.03173828125
 11
539663.37077616283
 21
4477708.5113019869
 31
792.03173828125
  0
LINE
  5
178
100
AcDbEntity
100
AcDbLine
  8
GEOFENCE
 62
256
370
-1
 48
1.0
  6
ByLayer
 10
539663.37077616283
 20
4477708.5113019869
 30
792.03173828125
 11
539640.95485373156
 21
4477719.5804673368
 31
792.03173828125
  0
LINE
  5
179
100
AcDbEntity
100
AcDbLine
  8
GEOFENCE
 62
256
370
-1
 48
1.0
  6
ByLayer
 10
539640.95485373156
 20
4477719.5804673368
 30
792.03173828125
 11
539627.15777512838
 21
4477734.0594390547
 31
792.03173828125
  0
LINE
  5
17A
100
AcDbEntity
100
AcDbLine
  8
GEOFENCE
 62
256
370
-1
 48
1.0
  6
ByLayer
 10
539627.15777512838
 20
4477734.0594390547
 30
792.03173828125
 11
539619.019205519
 21
4477746.6595852729
 31
792.03173828125
  0
LINE
  5
17B
100
AcDbEntity
100
AcDbLine
  8
GEOFENCE
 62
256
370
-1
 48
1.0
  6
ByLayer
 10
539619.019205519
 20
4477746.6595852729
 30
792.03173828125
 11
539614.13689226855
 21
4477747.7380180825
 31
792.03173828125
  0
LINE
  5
17C
100
AcDbEntity
100
AcDbLine
  8
GEOFENCE
 62
256
370
-1
 48
1.0
  6
ByLayer
 10
539614.13689226855
 20
4477747.7380180825
 30
792.03173828125
 11
539607.28036305052
 21
4477749.1479851324
 31
792.03173828125
  0
LINE
  5
17D
100
AcDbEntity
100
AcDbLine
  8
GEOFENCE
 62
256
370
-1
 48
1.0
  6
ByLayer
 10
539607.28036305052
 20
4477749.1479851324
 30
792.03173828125
 11
539607.67212529061
 21
4477754.132613739
 31
792.03173828125
  0
LINE
  5
17E
100
AcDbEntity
100
AcDbLine
  8
GEOFENCE
 62
256
370
-1
 48
1.0
  6
ByLayer
 10
539607.67212529061
 20
4477754.132613739
 30
792.03173828125
 11
539615.77295984991
 21
4477766.7570535066
 31
792.03173828125
  0
LINE
  5
17F
100
AcDbEntity
100
AcDbLine
  8
GEOFENCE
 62
256
370
-1
 48
1.0
  6
ByLayer
 10
539615.77295984991
 20
4477766.7570535066
 30
792.03173828125
 11
539620.10978944576
 21
4477764.2686988181
 31
792.03173828125
  0
LINE
  5
180
100
AcDbEntity
100
AcDbLine
  8
GEOFENCE
 62
256
370
-1
 48
1.0
  6
ByLayer
 10
539620.10978944576
 20
4477764.2686988181
 30
792.03173828125
 11
539629.63610101887
 21
4477761.2274181973
 31
792.03173828125
  0
LINE
  5
181
100
AcDbEntity
100
AcDbLine
  8
GEOFENCE
 62
256
370
-1
 48
1.0
  6
ByLayer
 10
539629.63610101887
 20
4477761.2274181973
 30
792.03173828125
 11
539634.6074103103
 21
4477760.6925500557
 31
792.03173828125
  0
LINE
  5
182
100
AcDbEntity
100
AcDbLine
  8
GEOFENCE
 62
256
370
-1
 48
1.0
  6
ByLayer
 10
539634.6074103103
 20
4477760.6925500557
 30
792.03173828125
 11
539640.17473037867
 21
4477746.7639841838
 31
792.03173828125
  0
LINE
  5
183
100
AcDbEntity
100
AcDbLine
  8
GEOFENCE
 62
256
370
-1
 48
1.0
  6
ByLayer
 10
539640.17473037867
 20
4477746.7639841838
 30
792.03173828125
 11
539644.6069150205
 21
4477734.542865606
 31
792.03173828125
  0
ENDSEC
  0
SECTION
  2
OBJECTS
  0
DICTIONARY
  5
C
100
AcDbDictionary
280
0
281
1
  3
ACAD_GROUP
350
D
  3
ACAD_LAYOUT
350
1A
  3
ACAD_MLINESTYLE
350
17
  3
ACAD_PLOTSETTINGS
350
19
  3
ACAD_PLOTSTYLENAME
350
E
  3
AcDbVariableDictionary
350
184
  3
QCAD_OBJECTS
350
185
  0
DICTIONARY
  5
D
100
AcDbDictionary
280
0
281
1
  0
ACDBDICTIONARYWDFLT
  5
E
100
AcDbDictionary
281
1
  3
Normal
350
F
100
AcDbDictionaryWithDefault
340
F
  0
ACDBPLACEHOLDER
  5
F
  0
DICTIONARY
  5
17
100
AcDbDictionary
280
0
281
1
  3
Standard
350
18
  0
MLINESTYLE
  5
18
100
AcDbMlineStyle
  2
STANDARD
 70
0
  3

 62
256
 51
90.0
 52
90.0
 71
2
 49
0.5
 62
256
  6
BYLAYER
 49
-0.5
 62
256
  6
BYLAYER
  0
DICTIONARY
  5
19
100
AcDbDictionary
280
0
281
1
  0
DICTIONARY
  5
1A
100
AcDbDictionary
281
1
  3
Layout1
350
1E
  3
Layout2
350
26
  3
Model
350
22
  0
LAYOUT
  5
1E
100
AcDbPlotSettings
  1

  2
none_device
  4

  6

 40
0.0
 41
0.0
 42
0.0
 43
0.0
 44
0.0
 45
0.0
 46
0.0
 47
0.0
 48
0.0
 49
0.0
140
0.0
141
0.0
142
1.0
143
1.0
 70
688
 72
0
 73
0
 74
5
  7

 75
16
147
1.0
148
0.0
149
0.0
100
AcDbLayout
  1
Layout1
 70
1
 71
1
 10
0.0
 20
0.0
 11
420.0
 21
297.0
 12
0.0
 22
0.0
 32
0.0
 14
100000000000000000000.0
 24
100000000000000000000.0
 34
100000000000000000000.0
 15
-100000000000000000000.0
 25
-100000000000000000000.0
 35
-100000000000000000000.0
146
0.0
 13
0.0
 23
0.0
 33
0.0
 16
1.0
 26
0.0
 36
0.0
 17
0.0
 27
1.0
 37
0.0
 76
0
330
1B
  0
LAYOUT
  5
22
100
AcDbPlotSettings
  1

  2
none_device
  4

  6

 40
0.0
 41
0.0
 42
0.0
 43
0.0
 44
0.0
 45
0.0
 46
0.0
 47
0.0
 48
0.0
 49
0.0
140
0.0
141
0.0
142
1.0
143
1.0
 70
1712
 72
0
 73
0
 74
0
  7

 75
0
147
1.0
148
0.0
149
0.0
100
AcDbLayout
  1
Model
 70
1
 71
0
 10
0.0
 20
0.0
 11
12.0
 21
9.0
 12
0.0
 22
0.0
 32
0.0
 14
0.0
 24
0.0
 34
0.0
 15
0.0
 25
0.0
 35
0.0
146
0.0
 13
0.0
 23
0.0
 33
0.0
 16
1.0
 26
0.0
 36
0.0
 17
0.0
 27
1.0
 37
0.0
 76
0
330
1F
  0
LAYOUT
  5
26
100
AcDbPlotSettings
  1

  2
none_device
  4

  6

 40
0.0
 41
0.0
 42
0.0
 43
0.0
 44
0.0
 45
0.0
 46
0.0
 47
0.0
 48
0.0
 49
0.0
140
0.0
141
0.0
142
1.0
143
1.0
 70
688
 72
0
 73
0
 74
5
  7

 75
16
147
1.0
148
0.0
149
0.0
100
AcDbLayout
  1
Layout2
 70
1
 71
2
 10
0.0
 20
0.0
 11
12.0
 21
9.0
 12
0.0
 22
0.0
 32
0.0
 14
0.0
 24
0.0
 34
0.0
 15
0.0
 25
0.0
 35
0.0
146
0.0
 13
0.0
 23
0.0
 33
0.0
 16
1.0
 26
0.0
 36
0.0
 17
0.0
 27
1.0
 37
0.0
 76
0
330
23
  0
DICTIONARY
  5
184
100
AcDbDictionary
281
1
  3
DIMASSOC
350
187
  3
HIDETEXT
350
186
  0
DICTIONARYVAR
  5
186
100
DictionaryVariables
280
0
  1
2
  0
DICTIONARYVAR
  5
187
100
DictionaryVariables
280
0
  1
1
  0
DICTIONARY
  5
185
100
AcDbDictionary
281
1
  3
ACAD_CIP_PREVIOUS_PRODUCT_INFO
350
188
  3
ColorSettings/BackgroundColor
350
189
  3
ColorSettings/ColorMode
350
18A
  3
Grid/DisplayGrid00
350
18B
  3
Grid/DisplayGrid01
350
18C
  3
Grid/DisplayGrid02
350
18D
  3
Grid/DisplayGrid03
350
18E
  3
Grid/GridSpacingX00
350
18F
  3
Grid/GridSpacingX01
350
190
  3
Grid/GridSpacingX02
350
191
  3
Grid/GridSpacingX03
350
192
  3
Grid/GridSpacingY00
350
193
  3
Grid/GridSpacingY01
350
194
  3
Grid/GridSpacingY02
350
195
  3
Grid/GridSpacingY03
350
196
  3
Grid/IsometricGrid00
350
197
  3
Grid/IsometricGrid01
350
198
  3
Grid/IsometricGrid02
350
199
  3
Grid/IsometricGrid03
350
19A
  3
Grid/IsometricProjection00
350
19B
  3
Grid/IsometricProjection01
350
19C
  3
Grid/IsometricProjection02
350
19D
  3
Grid/IsometricProjection03
350
19E
  3
Grid/MetaGridSpacingX00
350
19F
  3
Grid/MetaGridSpacingX01
350
1A0
  3
Grid/MetaGridSpacingX02
350
1A1
  3
Grid/MetaGridSpacingX03
350
1A2
  3
Grid/MetaGridSpacingY00
350
1A3
  3
Grid/MetaGridSpacingY01
350
1A4
  3
Grid/MetaGridSpacingY02
350
1A5
  3
Grid/MetaGridSpacingY03
350
1A6
  3
MultiPageSettings/Columns
350
1A7
  3
MultiPageSettings/GlueMarginsBottom
350
1A8
  3
MultiPageSettings/GlueMarginsLeft
350
1A9
  3
MultiPageSettings/GlueMarginsRight
350
1AA
  3
MultiPageSettings/GlueMarginsTop
350
1AB
  3
MultiPageSettings/PrintCropMarks
350
1AC
  3
MultiPageSettings/Rows
350
1AD
  3
PageSettings/OffsetX
350
1AE
  3
PageSettings/OffsetY
350
1AF
  3
PageSettings/PageOrientation
350
1B0
  3
PageSettings/PaperHeight
350
1B1
  3
PageSettings/PaperWidth
350
1B2
  3
PageSettings/Scale
350
1B3
  3
PageSettings/ShowPaperBorders
350
1B4
  3
QCADVersion
350
1B5
  3
UnitSettings/PaperUnit
350
1B6
  3
ViewportCenter
350
1B7
  3
ViewportHeight
350
1B8
  3
ViewportWidth
350
1B9
  0
XRECORD
  5
189
330
185
100
AcDbXrecord
280
1
1000
White
  0
XRECORD
  5
18A
330
185
100
AcDbXrecord
280
1
1000
FullColor
  0
XRECORD
  5
18B
330
185
100
AcDbXrecord
280
1
290
1
  0
XRECORD
  5
18C
330
185
100
AcDbXrecord
280
1
290
1
  0
XRECORD
  5
18D
330
185
100
AcDbXrecord
280
1
290
1
  0
XRECORD
  5
18E
330
185
100
AcDbXrecord
280
1
290
1
  0
XRECORD
  5
18F
330
185
100
AcDbXrecord
280
1
1000
auto
  0
XRECORD
  5
190
330
185
100
AcDbXrecord
280
1
1000
auto
  0
XRECORD
  5
191
330
185
100
AcDbXrecord
280
1
1000
auto
  0
XRECORD
  5
192
330
185
100
AcDbXrecord
280
1
1000
auto
  0
XRECORD
  5
193
330
185
100
AcDbXrecord
280
1
1000
auto
  0
XRECORD
  5
194
330
185
100
AcDbXrecord
280
1
1000
auto
  0
XRECORD
  5
195
330
185
100
AcDbXrecord
280
1
1000
auto
  0
XRECORD
  5
196
330
185
100
AcDbXrecord
280
1
1000
auto
  0
XRECORD
  5
197
330
185
100
AcDbXrecord
280
1
290
0
  0
XRECORD
  5
198
330
185
100
AcDbXrecord
280
1
290
0
  0
XRECORD
  5
199
330
185
100
AcDbXrecord
280
1
290
0
  0
XRECORD
  5
19A
330
185
100
AcDbXrecord
280
1
290
0
  0
XRECORD
  5
19B
330
185
100
AcDbXrecord
280
1
 90
0
  0
XRECORD
  5
19C
330
185
100
AcDbXrecord
280
1
 90
0
  0
XRECORD
  5
19D
330
185
100
AcDbXrecord
280
1
 90
0
  0
XRECORD
  5
19E
330
185
100
AcDbXrecord
280
1
 90
0
  0
XRECORD
  5
19F
330
185
100
AcDbXrecord
280
1
1000
auto
  0
XRECORD
  5
1A0
330
185
100
AcDbXrecord
280
1
1000
auto
  0
XRECORD
  5
1A1
330
185
100
AcDbXrecord
280
1
1000
auto
  0
XRECORD
  5
1A2
330
185
100
AcDbXrecord
280
1
1000
auto
  0
XRECORD
  5
1A3
330
185
100
AcDbXrecord
280
1
1000
auto
  0
XRECORD
  5
1A4
330
185
100
AcDbXrecord
280
1
1000
auto
  0
XRECORD
  5
1A5
330
185
100
AcDbXrecord
280
1
1000
auto
  0
XRECORD
  5
1A6
330
185
100
AcDbXrecord
280
1
1000
auto
  0
XRECORD
  5
1A7
330
185
100
AcDbXrecord
280
1
 90
1
  0
XRECORD
  5
1A8
330
185
100
AcDbXrecord
280
1
 40
10.0
  0
XRECORD
  5
1A9
330
185
100
AcDbXrecord
280
1
 40
10.0
  0
XRECORD
  5
1AA
330
185
100
AcDbXrecord
280
1
 40
10.0
  0
XRECORD
  5
1AB
330
185
100
AcDbXrecord
280
1
 40
10.0
  0
XRECORD
  5
1AC
330
185
100
AcDbXrecord
280
1
290
0
  0
XRECORD
  5
1AD
330
185
100
AcDbXrecord
280
1
 90
1
  0
XRECORD
  5
1AE
330
185
100
AcDbXrecord
280
1
 40
0.0
  0
XRECORD
  5
1AF
330
185
100
AcDbXrecord
280
1
 40
0.0
  0
XRECORD
  5
1B0
330
185
100
AcDbXrecord
280
1
1000
Portrait
  0
XRECORD
  5
1B1
330
185
100
AcDbXrecord
280
1
 40
279.39999999999998
  0
XRECORD
  5
1B2
330
185
100
AcDbXrecord
280
1
 40
215.90000000000001
  0
XRECORD
  5
1B3
330
185
100
AcDbXrecord
280
1
1000
1:1
  0
XRECORD
  5
1B4
330
185
100
AcDbXrecord
280
1
290
1
  0
XRECORD
  5
1B5
330
185
100
AcDbXrecord
280
1
1000
3.15.3
  0
XRECORD
  5
1B6
330
185
100
AcDbXrecord
280
1
 90
4
  0
XRECORD
  5
1B8
330
185
100
AcDbXrecord
280
1
 40
129.779685347341
  0
XRECORD
  5
1B9
330
185
100
AcDbXrecord
280
1
 40
273.45377892011311
  0
ENDSEC
  0
EOF
