  0
SECTION
  2
HEADER
  9
$ACADVER
  1
AC1024
  9
$ACADMAINTVER
 70
     6
  9
$DWGCODEPAGE
  3
ANSI_1254
  9
$LASTSAVEDBY
  1
DOZ 3
  9
$INSBASE
 10
0.0
 20
0.0
 30
0.0
  9
$EXTMIN
 10
539758.3855624101
 20
4478093.7214
 30
1458.00244140625
  9
$EXTMAX
 10
540087.0506288391
 20
4478246.1951
 30
1480.565551757812
  9
$LIMMIN
 10
0.0
 20
0.0
  9
$LIMMAX
 10
420.0
 20
297.0
  9
$ORTHOMODE
 70
     0
  9
$REGENMODE
 70
     1
  9
$FILLMODE
 70
     1
  9
$QTEXTMODE
 70
     0
  9
$MIRRTEXT
 70
     1
  9
$LTSCALE
 40
1.0
  9
$ATTMODE
 70
     1
  9
$TEXTSIZE
 40
2.5
  9
$TRACEWID
 40
1.0
  9
$TEXTSTYLE
  7
Standard
  9
$CLAYER
  8
GRID_1000
  9
$CELTYPE
  6
ByLayer
  9
$CECOLOR
 62
   256
  9
$CELTSCALE
 40
1.0
  9
$DISPSILH
 70
     0
  9
$DIMSCALE
 40
1.0
  9
$DIMASZ
 40
2.5
  9
$DIMEXO
 40
0.625
  9
$DIMDLI
 40
3.75
  9
$DIMRND
 40
0.0
  9
$DIMDLE
 40
0.0
  9
$DIMEXE
 40
1.25
  9
$DIMTP
 40
0.0
  9
$DIMTM
 40
0.0
  9
$DIMTXT
 40
2.5
  9
$DIMCEN
 40
2.5
  9
$DIMTSZ
 40
0.0
  9
$DIMTOL
 70
     0
  9
$DIMLIM
 70
     0
  9
$DIMTIH
 70
     0
  9
$DIMTOH
 70
     0
  9
$DIMSE1
 70
     0
  9
$DIMSE2
 70
     0
  9
$DIMTAD
 70
     1
  9
$DIMZIN
 70
     8
  9
$DIMBLK
  1

  9
$DIMASO
 70
     1
  9
$DIMSHO
 70
     1
  9
$DIMPOST
  1

  9
$DIMAPOST
  1

  9
$DIMALT
 70
     0
  9
$DIMALTD
 70
     3
  9
$DIMALTF
 40
0.03937007874016
  9
$DIMLFAC
 40
1.0
  9
$DIMTOFL
 70
     1
  9
$DIMTVP
 40
0.0
  9
$DIMTIX
 70
     0
  9
$DIMSOXD
 70
     0
  9
$DIMSAH
 70
     0
  9
$DIMBLK1
  1

  9
$DIMBLK2
  1

  9
$DIMSTYLE
  2
ISO-25
  9
$DIMCLRD
 70
     0
  9
$DIMCLRE
 70
     0
  9
$DIMCLRT
 70
     0
  9
$DIMTFAC
 40
1.0
  9
$DIMGAP
 40
0.625
  9
$DIMJUST
 70
     0
  9
$DIMSD1
 70
     0
  9
$DIMSD2
 70
     0
  9
$DIMTOLJ
 70
     0
  9
$DIMTZIN
 70
     8
  9
$DIMALTZ
 70
     0
  9
$DIMALTTZ
 70
     0
  9
$DIMUPT
 70
     0
  9
$DIMDEC
 70
     2
  9
$DIMTDEC
 70
     2
  9
$DIMALTU
 70
     2
  9
$DIMALTTD
 70
     3
  9
$DIMTXSTY
  7
Standard
  9
$DIMAUNIT
 70
     0
  9
$DIMADEC
 70
     0
  9
$DIMALTRND
 40
0.0
  9
$DIMAZIN
 70
     0
  9
$DIMDSEP
 70
    44
  9
$DIMATFIT
 70
     3
  9
$DIMFRAC
 70
     0
  9
$DIMLDRBLK
  1

  9
$DIMLUNIT
 70
     2
  9
$DIMLWD
 70
    -2
  9
$DIMLWE
 70
    -2
  9
$DIMTMOVE
 70
     0
  9
$DIMFXL
 40
1.0
  9
$DIMFXLON
 70
     0
  9
$DIMJOGANG
 40
0.7853981633974483
  9
$DIMTFILL
 70
     0
  9
$DIMTFILLCLR
 70
     0
  9
$DIMARCSYM
 70
     0
  9
$DIMLTYPE
  6

  9
$DIMLTEX1
  6

  9
$DIMLTEX2
  6

  9
$DIMTXTDIRECTION
 70
     0
  9
$LUNITS
 70
     2
  9
$LUPREC
 70
     4
  9
$SKETCHINC
 40
1.0
  9
$FILLETRAD
 40
10.0
  9
$AUNITS
 70
     0
  9
$AUPREC
 70
     0
  9
$MENU
  1
.
  9
$ELEVATION
 40
0.0
  9
$PELEVATION
 40
0.0
  9
$THICKNESS
 40
0.0
  9
$LIMCHECK
 70
     0
  9
$CHAMFERA
 40
10.0
  9
$CHAMFERB
 40
10.0
  9
$CHAMFERC
 40
20.0
  9
$CHAMFERD
 40
0.0
  9
$SKPOLY
 70
     0
  9
$TDCREATE
 40
2458113.52227838
  9
$TDUCREATE
 40
2458113.39727838
  9
$TDUPDATE
 40
2458150.488270799
  9
$TDUUPDATE
 40
2458150.363270799
  9
$TDINDWG
 40
0.0085422569
  9
$TDUSRTIMER
 40
0.0083023148
  9
$USRTIMER
 70
     1
  9
$ANGBASE
 50
0.0
  9
$ANGDIR
 70
     0
  9
$PDMODE
 70
     0
  9
$PDSIZE
 40
0.0
  9
$PLINEWID
 40
0.0
  9
$SPLFRAME
 70
     0
  9
$SPLINETYPE
 70
     6
  9
$SPLINESEGS
 70
     8
  9
$HANDSEED
  5
24EF
  9
$SURFTAB1
 70
     6
  9
$SURFTAB2
 70
     6
  9
$SURFTYPE
 70
     6
  9
$SURFU
 70
     6
  9
$SURFV
 70
     6
  9
$UCSBASE
  2

  9
$UCSNAME
  2

  9
$UCSORG
 10
0.0
 20
0.0
 30
0.0
  9
$UCSXDIR
 10
1.0
 20
0.0
 30
0.0
  9
$UCSYDIR
 10
0.0
 20
1.0
 30
0.0
  9
$UCSORTHOREF
  2

  9
$UCSORTHOVIEW
 70
     0
  9
$UCSORGTOP
 10
0.0
 20
0.0
 30
0.0
  9
$UCSORGBOTTOM
 10
0.0
 20
0.0
 30
0.0
  9
$UCSORGLEFT
 10
0.0
 20
0.0
 30
0.0
  9
$UCSORGRIGHT
 10
0.0
 20
0.0
 30
0.0
  9
$UCSORGFRONT
 10
0.0
 20
0.0
 30
0.0
  9
$UCSORGBACK
 10
0.0
 20
0.0
 30
0.0
  9
$PUCSBASE
  2

  9
$PUCSNAME
  2

  9
$PUCSORG
 10
0.0
 20
0.0
 30
0.0
  9
$PUCSXDIR
 10
1.0
 20
0.0
 30
0.0
  9
$PUCSYDIR
 10
0.0
 20
1.0
 30
0.0
  9
$PUCSORTHOREF
  2

  9
$PUCSORTHOVIEW
 70
     0
  9
$PUCSORGTOP
 10
0.0
 20
0.0
 30
0.0
  9
$PUCSORGBOTTOM
 10
0.0
 20
0.0
 30
0.0
  9
$PUCSORGLEFT
 10
0.0
 20
0.0
 30
0.0
  9
$PUCSORGRIGHT
 10
0.0
 20
0.0
 30
0.0
  9
$PUCSORGFRONT
 10
0.0
 20
0.0
 30
0.0
  9
$PUCSORGBACK
 10
0.0
 20
0.0
 30
0.0
  9
$USERI1
 70
     0
  9
$USERI2
 70
     0
  9
$USERI3
 70
     0
  9
$USERI4
 70
     0
  9
$USERI5
 70
     0
  9
$USERR1
 40
0.0
  9
$USERR2
 40
0.0
  9
$USERR3
 40
0.0
  9
$USERR4
 40
0.0
  9
$USERR5
 40
0.0
  9
$WORLDVIEW
 70
     1
  9
$SHADEDGE
 70
     3
  9
$SHADEDIF
 70
    70
  9
$TILEMODE
 70
     1
  9
$MAXACTVP
 70
    64
  9
$PINSBASE
 10
0.0
 20
0.0
 30
0.0
  9
$PLIMCHECK
 70
     0
  9
$PEXTMIN
 10
1.000000000000000E+20
 20
1.000000000000000E+20
 30
1.000000000000000E+20
  9
$PEXTMAX
 10
-1.000000000000000E+20
 20
-1.000000000000000E+20
 30
-1.000000000000000E+20
  9
$PLIMMIN
 10
0.0
 20
0.0
  9
$PLIMMAX
 10
0.0
 20
0.0
  9
$UNITMODE
 70
     0
  9
$VISRETAIN
 70
     1
  9
$PLINEGEN
 70
     0
  9
$PSLTSCALE
 70
     1
  9
$TREEDEPTH
 70
  3020
  9
$CMLSTYLE
  2
Standard
  9
$CMLJUST
 70
     0
  9
$CMLSCALE
 40
20.0
  9
$PROXYGRAPHICS
 70
     1
  9
$MEASUREMENT
 70
     1
  9
$CELWEIGHT
370
    -1
  9
$ENDCAPS
280
     0
  9
$JOINSTYLE
280
     0
  9
$LWDISPLAY
290
     0
  9
$INSUNITS
 70
     4
  9
$HYPERLINKBASE
  1

  9
$STYLESHEET
  1

  9
$XEDIT
290
     1
  9
$CEPSNTYPE
380
     0
  9
$PSTYLEMODE
290
     1
  9
$FINGERPRINTGUID
  2
{A7152C54-1FF5-4840-BE7B-7A9DD0364AFE}
  9
$VERSIONGUID
  2
{FAEB1C32-E019-11D5-929B-00C0DF256EC4}
  9
$EXTNAMES
290
     1
  9
$PSVPSCALE
 40
0.0
  9
$OLESTARTUP
290
     0
  9
$SORTENTS
280
   127
  9
$INDEXCTL
280
     0
  9
$HIDETEXT
280
     1
  9
$XCLIPFRAME
280
     2
  9
$HALOGAP
280
     0
  9
$OBSCOLOR
 70
   257
  9
$OBSLTYPE
280
     0
  9
$INTERSECTIONDISPLAY
280
     0
  9
$INTERSECTIONCOLOR
 70
   257
  9
$DIMASSOC
280
     2
  9
$PROJECTNAME
  1

  9
$CAMERADISPLAY
290
     0
  9
$LENSLENGTH
 40
50.0
  9
$CAMERAHEIGHT
 40
0.0
  9
$STEPSPERSEC
 40
2.0
  9
$STEPSIZE
 40
6.0
  9
$3DDWFPREC
 40
2.0
  9
$PSOLWIDTH
 40
5.0
  9
$PSOLHEIGHT
 40
80.0
  9
$LOFTANG1
 40
1.570796326794897
  9
$LOFTANG2
 40
1.570796326794897
  9
$LOFTMAG1
 40
0.0
  9
$LOFTMAG2
 40
0.0
  9
$LOFTPARAM
 70
     7
  9
$LOFTNORMALS
280
     1
  9
$LATITUDE
 40
37.795
  9
$LONGITUDE
 40
-122.394
  9
$NORTHDIRECTION
 40
0.0
  9
$TIMEZONE
 70
 -8000
  9
$LIGHTGLYPHDISPLAY
280
     1
  9
$TILEMODELIGHTSYNCH
280
     1
  9
$SOLIDHIST
280
     1
  9
$SHOWHIST
280
     1
  9
$DWFFRAME
280
     2
  9
$DGNFRAME
280
     2
  9
$REALWORLDSCALE
290
     1
  9
$INTERFERECOLOR
 62
   256
  9
$CSHADOW
280
     0
  9
$SHADOWPLANELOCATION
 40
0.0
  0
ENDSEC
  0
SECTION
  2
CLASSES
  0
CLASS
  1
ACDBDICTIONARYWDFLT
  2
AcDbDictionaryWithDefault
  3
ObjectDBX Classes
 90
        0
 91
        4
280
     0
281
     0
  0
CLASS
  1
VISUALSTYLE
  2
AcDbVisualStyle
  3
ObjectDBX Classes
 90
     4095
 91
        4
280
     0
281
     0
  0
CLASS
  1
MATERIAL
  2
AcDbMaterial
  3
ObjectDBX Classes
 90
     1153
 91
        4
280
     0
281
     0
  0
CLASS
  1
SCALE
  2
AcDbScale
  3
ObjectDBX Classes
 90
     1153
 91
        4
280
     0
281
     0
  0
CLASS
  1
DICTIONARYVAR
  2
AcDbDictionaryVar
  3
ObjectDBX Classes
 90
        0
 91
        4
280
     0
281
     0
  0
CLASS
  1
TABLESTYLE
  2
AcDbTableStyle
  3
ObjectDBX Classes
 90
     4095
 91
        4
280
     0
281
     0
  0
CLASS
  1
MLEADERSTYLE
  2
AcDbMLeaderStyle
  3
ACDB_MLEADERSTYLE_CLASS
 90
     4095
 91
        4
280
     0
281
     0
  0
CLASS
  1
SUN
  2
AcDbSun
  3
SCENEOE
 90
     1153
 91
        4
280
     0
281
     0
  0
CLASS
  1
CELLSTYLEMAP
  2
AcDbCellStyleMap
  3
ObjectDBX Classes
 90
     1152
 91
        4
280
     0
281
     0
  0
ENDSEC
  0
SECTION
  2
TABLES
  0
TABLE
  2
VPORT
  5
8
330
0
100
AcDbSymbolTable
 70
     1
  0
VPORT
  5
29
330
8
100
AcDbSymbolTableRecord
100
AcDbViewportTableRecord
  2
*Active
 70
     0
 10
0.0
 20
0.0
 11
1.0
 21
1.0
 12
540037.5943096657
 22
4484016.281858837
 13
0.0
 23
0.0
 14
10.0
 24
10.0
 15
10.0
 25
10.0
 16
0.0
 26
0.0
 36
1.0
 17
-195.6750735467067
 27
-5868.376934063621
 37
2489.421364090405
 40
145.4990434159183
 41
2.363849765258216
 42
50.0
 43
0.0
 44
0.0
 50
0.0
 51
0.0
 71
    16
 72
   100
 73
     1
 74
     3
 75
     0
 76
     0
 77
     0
 78
     0
281
     0
 65
     1
110
0.0
120
0.0
130
0.0
111
1.0
121
0.0
131
0.0
112
0.0
122
1.0
132
0.0
 79
     0
146
0.0
348
2F
 60
     3
 61
     5
292
     1
282
     1
141
0.0
142
0.0
 63
   250
361
23ED
  0
ENDTAB
  0
TABLE
  2
LTYPE
  5
5
330
0
100
AcDbSymbolTable
 70
     1
  0
LTYPE
  5
14
330
5
100
AcDbSymbolTableRecord
100
AcDbLinetypeTableRecord
  2
ByBlock
 70
     0
  3

 72
    65
 73
     0
 40
0.0
  0
LTYPE
  5
15
330
5
100
AcDbSymbolTableRecord
100
AcDbLinetypeTableRecord
  2
ByLayer
 70
     0
  3

 72
    65
 73
     0
 40
0.0
  0
LTYPE
  5
16
330
5
100
AcDbSymbolTableRecord
100
AcDbLinetypeTableRecord
  2
Continuous
 70
     0
  3
Solid line
 72
    65
 73
     0
 40
0.0
  0
ENDTAB
  0
TABLE
  2
LAYER
  5
2
102
{ACAD_XDICTIONARY
360
23EE
102
}
330
0
100
AcDbSymbolTable
 70
    18
  0
LAYER
  5
10
330
2
100
AcDbSymbolTableRecord
100
AcDbLayerTableRecord
  2
0
 70
     4
 62
     5
  6
Continuous
370
     0
390
F
347
3E
  0
LAYER
  5
40
330
2
100
AcDbSymbolTableRecord
100
AcDbLayerTableRecord
  2
POL
 70
     4
 62
     2
  6
Continuous
370
     0
390
F
347
3E
  0
LAYER
  5
4A
330
2
100
AcDbSymbolTableRecord
100
AcDbLayerTableRecord
  2
YOL
 70
     4
 62
    33
  6
Continuous
370
     0
390
F
347
3E
  0
LAYER
  5
51
330
2
100
AcDbSymbolTableRecord
100
AcDbLayerTableRecord
  2
ISTINAT_DUVAR
 70
     4
 62
     5
  6
Continuous
370
     0
390
F
347
3E
  0
LAYER
  5
52
330
2
100
AcDbSymbolTableRecord
100
AcDbLayerTableRecord
  2
BINA
 70
     4
 62
     5
  6
Continuous
370
     0
390
F
347
3E
  0
LAYER
  5
53
330
2
100
AcDbSymbolTableRecord
100
AcDbLayerTableRecord
  2
SINIR_ORMAN
 70
     4
 62
     3
  6
Continuous
370
     0
390
F
347
3E
  0
LAYER
  5
55
330
2
100
AcDbSymbolTableRecord
100
AcDbLayerTableRecord
  2
TELEFON_HATTI
 70
     4
 62
   152
  6
Continuous
370
     0
390
F
347
3E
  0
LAYER
  5
57
330
2
100
AcDbSymbolTableRecord
100
AcDbLayerTableRecord
  2
GRID_1000
 70
     4
 62
     5
  6
Continuous
370
     0
390
F
347
3E
  0
LAYER
  5
5B
330
2
100
AcDbSymbolTableRecord
100
AcDbLayerTableRecord
  2
ENERJI_HATTI
 70
     6
 62
     6
  6
Continuous
370
     0
390
F
347
3E
  0
LAYER
  5
6D
330
2
100
AcDbSymbolTableRecord
100
AcDbLayerTableRecord
  2
KAPSAMA
 70
     4
 62
     1
  6
Continuous
370
     0
390
F
347
3E
  0
LAYER
  5
6F
330
2
100
AcDbSymbolTableRecord
100
AcDbLayerTableRecord
  2
KAT_1460
 70
     4
 62
    11
  6
Continuous
370
     0
390
F
347
3E
  0
LAYER
  5
2429
330
2
100
AcDbSymbolTableRecord
100
AcDbLayerTableRecord
  2
text
 70
     4
 62
    10
  6
Continuous
370
     0
390
F
347
3E
1001
AcAecLayerStandard
1000

1000

  0
LAYER
  5
2461
330
2
100
AcDbSymbolTableRecord
100
AcDbLayerTableRecord
  2
INIT_COORD
 70
     6
 62
     6
  6
Continuous
370
     0
390
F
347
3E
1001
AcAecLayerStandard
1000

1000

  0
LAYER
  5
2474
330
2
100
AcDbSymbolTableRecord
100
AcDbLayerTableRecord
  2
georef
 70
     2
 62
     6
  6
Continuous
370
     0
390
F
347
3E
1001
AcAecLayerStandard
1000

1000

  0
LAYER
  5
2478
330
2
100
AcDbSymbolTableRecord
100
AcDbLayerTableRecord
  2
GEOFENCE
 70
     6
 62
    50
  6
Continuous
370
     0
390
F
347
3E
1001
AcAecLayerStandard
1000

1000

  0
ENDTAB
  0
TABLE
  2
STYLE
  5
3
330
0
100
AcDbSymbolTable
 70
    15
  0
STYLE
  5
11
330
3
100
AcDbSymbolTableRecord
100
AcDbTextStyleTableRecord
  2
Standard
 70
     0
 40
0.0
 41
1.0
 50
0.0
 71
     0
 42
2.5
  3
C:\Windows\Font\TIMES.TTF
  4

  0
STYLE
  5
71
330
3
100
AcDbSymbolTableRecord
100
AcDbTextStyleTableRecord
  2
STYLE0
 70
     0
 40
0.0
 41
1.0
 50
0.0
 71
     0
 42
0.2
  3
TXT.SHX
  4

1001
ACAD
1000
TXT.SHX
1071
      256
  0
STYLE
  5
72
330
3
100
AcDbSymbolTableRecord
100
AcDbTextStyleTableRecord
  2
STYLE0P
 70
     0
 40
0.2
 41
1.0
 50
0.0
 71
     0
 42
0.2
  3
TXT.SHX
  4

1001
ACAD
1000
TXT.SHX
1071
 16777472
  0
STYLE
  5
73
330
3
100
AcDbSymbolTableRecord
100
AcDbTextStyleTableRecord
  2
STYLE1
 70
     0
 40
0.0
 41
1.0
 50
0.0
 71
     0
 42
0.2
  3
TXT.SHX
  4

1001
ACAD
1000
TXT.SHX
1071
      256
  0
STYLE
  5
74
330
3
100
AcDbSymbolTableRecord
100
AcDbTextStyleTableRecord
  2
STYLE1P
 70
     0
 40
0.2
 41
1.0
 50
0.0
 71
     0
 42
0.2
  3
TXT.SHX
  4

1001
ACAD
1000
TXT.SHX
1071
 16777472
  0
STYLE
  5
75
330
3
100
AcDbSymbolTableRecord
100
AcDbTextStyleTableRecord
  2
STYLE2
 70
     0
 40
0.0
 41
1.0
 50
0.0
 71
     0
 42
0.2
  3
TXT.SHX
  4

1001
ACAD
1000
TXT.SHX
1071
      256
  0
STYLE
  5
76
330
3
100
AcDbSymbolTableRecord
100
AcDbTextStyleTableRecord
  2
STYLE2P
 70
     0
 40
0.2
 41
1.0
 50
0.0
 71
     0
 42
0.2
  3
TXT.SHX
  4

1001
ACAD
1000
TXT.SHX
1071
 16777472
  0
STYLE
  5
77
330
3
100
AcDbSymbolTableRecord
100
AcDbTextStyleTableRecord
  2
STYLE3
 70
     0
 40
0.0
 41
1.0
 50
0.0
 71
     0
 42
0.2
  3
TXT.SHX
  4

1001
ACAD
1000
TXT.SHX
1071
      256
  0
STYLE
  5
78
330
3
100
AcDbSymbolTableRecord
100
AcDbTextStyleTableRecord
  2
STYLE3P
 70
     0
 40
0.2
 41
1.0
 50
0.0
 71
     0
 42
0.2
  3
TXT.SHX
  4

1001
ACAD
1000
TXT.SHX
1071
 16777472
  0
STYLE
  5
79
330
3
100
AcDbSymbolTableRecord
100
AcDbTextStyleTableRecord
  2
STYLE4
 70
     0
 40
0.0
 41
1.0
 50
0.0
 71
     0
 42
0.2
  3
TXT.SHX
  4

1001
ACAD
1000
TXT.SHX
1071
      256
  0
STYLE
  5
7A
330
3
100
AcDbSymbolTableRecord
100
AcDbTextStyleTableRecord
  2
STYLE4P
 70
     0
 40
0.2
 41
1.0
 50
0.0
 71
     0
 42
0.2
  3
TXT.SHX
  4

1001
ACAD
1000
TXT.SHX
1071
 16777472
  0
STYLE
  5
7B
330
3
100
AcDbSymbolTableRecord
100
AcDbTextStyleTableRecord
  2
STYLE5
 70
     0
 40
0.0
 41
1.0
 50
0.0
 71
     0
 42
0.2
  3
TXT.SHX
  4

1001
ACAD
1000
TXT.SHX
1071
      256
  0
STYLE
  5
7C
330
3
100
AcDbSymbolTableRecord
100
AcDbTextStyleTableRecord
  2
STYLE5P
 70
     0
 40
0.2
 41
1.0
 50
0.0
 71
     0
 42
0.2
  3
TXT.SHX
  4

1001
ACAD
1000
TXT.SHX
1071
 16777472
  0
STYLE
  5
7D
330
3
100
AcDbSymbolTableRecord
100
AcDbTextStyleTableRecord
  2
STYLE6
 70
     0
 40
0.0
 41
1.0
 50
0.0
 71
     0
 42
0.2
  3
TXT.SHX
  4

1001
ACAD
1000
TXT.SHX
1071
      256
  0
STYLE
  5
7E
330
3
100
AcDbSymbolTableRecord
100
AcDbTextStyleTableRecord
  2
STYLE6P
 70
     0
 40
0.2
 41
1.0
 50
0.0
 71
     0
 42
0.2
  3
TXT.SHX
  4

1001
ACAD
1000
TXT.SHX
1071
 16777472
  0
ENDTAB
  0
TABLE
  2
VIEW
  5
6
330
0
100
AcDbSymbolTable
 70
     0
  0
ENDTAB
  0
TABLE
  2
UCS
  5
7
330
0
100
AcDbSymbolTable
 70
     0
  0
ENDTAB
  0
TABLE
  2
APPID
  5
9
330
0
100
AcDbSymbolTable
 70
     2
  0
APPID
  5
12
330
9
100
AcDbSymbolTableRecord
100
AcDbRegAppTableRecord
  2
ACAD
 70
     0
  0
APPID
  5
242A
330
9
100
AcDbSymbolTableRecord
100
AcDbRegAppTableRecord
  2
AcAecLayerStandard
 70
     0
  0
ENDTAB
  0
TABLE
  2
DIMSTYLE
  5
A
330
0
100
AcDbSymbolTable
 70
     1
100
AcDbDimStyleTable
  0
DIMSTYLE
105
27
330
A
100
AcDbSymbolTableRecord
100
AcDbDimStyleTableRecord
  2
ISO-25
 70
     0
 41
2.5
 42
0.625
 43
3.75
 44
1.25
 73
     0
 74
     0
 77
     1
 78
     8
140
2.5
141
2.5
143
0.03937007874016
147
0.625
171
     3
172
     1
178
     0
271
     2
272
     2
274
     3
278
    44
283
     0
284
     8
340
11
  0
ENDTAB
  0
TABLE
  2
BLOCK_RECORD
  5
1
330
0
100
AcDbSymbolTable
 70
    13
  0
BLOCK_RECORD
  5
1F
330
1
100
AcDbSymbolTableRecord
100
AcDbBlockTableRecord
  2
*Model_Space
340
22
 70
     0
280
     1
281
     0
  0
BLOCK_RECORD
  5
1B
330
1
100
AcDbSymbolTableRecord
100
AcDbBlockTableRecord
  2
*Paper_Space
340
1E
 70
     0
280
     1
281
     0
  0
BLOCK_RECORD
  5
23
330
1
100
AcDbSymbolTableRecord
100
AcDbBlockTableRecord
  2
*Paper_Space0
340
26
 70
     0
280
     1
281
     0
  0
BLOCK_RECORD
  5
10A
330
1
100
AcDbSymbolTableRecord
100
AcDbBlockTableRecord
  2
70
340
0
 70
     0
280
     1
281
     0
  0
BLOCK_RECORD
  5
CD0
330
1
100
AcDbSymbolTableRecord
100
AcDbBlockTableRecord
  2
7
340
0
 70
     0
280
     1
281
     0
  0
BLOCK_RECORD
  5
F60
330
1
100
AcDbSymbolTableRecord
100
AcDbBlockTableRecord
  2
42
340
0
 70
     0
280
     1
281
     0
  0
BLOCK_RECORD
  5
F8B
330
1
100
AcDbSymbolTableRecord
100
AcDbBlockTableRecord
  2
240
340
0
 70
     0
280
     1
281
     0
  0
BLOCK_RECORD
  5
10C1
330
1
100
AcDbSymbolTableRecord
100
AcDbBlockTableRecord
  2
6
340
0
 70
     0
280
     1
281
     0
  0
BLOCK_RECORD
  5
11D8
330
1
100
AcDbSymbolTableRecord
100
AcDbBlockTableRecord
  2
19
340
0
 70
     0
280
     1
281
     0
  0
BLOCK_RECORD
  5
147F
330
1
100
AcDbSymbolTableRecord
100
AcDbBlockTableRecord
  2
30
340
0
 70
     0
280
     1
281
     0
  0
BLOCK_RECORD
  5
154F
330
1
100
AcDbSymbolTableRecord
100
AcDbBlockTableRecord
  2
59
340
0
 70
     0
280
     1
281
     0
  0
BLOCK_RECORD
  5
1583
330
1
100
AcDbSymbolTableRecord
100
AcDbBlockTableRecord
  2
237
340
0
 70
     0
280
     1
281
     0
  0
BLOCK_RECORD
  5
15C5
330
1
100
AcDbSymbolTableRecord
100
AcDbBlockTableRecord
  2
27
340
0
 70
     0
280
     1
281
     0
  0
BLOCK_RECORD
  5
1687
330
1
100
AcDbSymbolTableRecord
100
AcDbBlockTableRecord
  2
105
340
0
 70
     0
280
     1
281
     0
  0
BLOCK_RECORD
  5
239F
330
1
100
AcDbSymbolTableRecord
100
AcDbBlockTableRecord
  2
0
340
0
102
{BLKREFS
331
23A2
102
}
 70
     0
280
     1
281
     0
  0
ENDTAB
  0
ENDSEC
  0
SECTION
  2
BLOCKS
  0
BLOCK
  5
20
330
1F
100
AcDbEntity
  8
0
100
AcDbBlockBegin
  2
*Model_Space
 70
     0
 10
0.0
 20
0.0
 30
0.0
  3
*Model_Space
  1

  0
ENDBLK
  5
21
330
1F
100
AcDbEntity
  8
0
100
AcDbBlockEnd
  0
BLOCK
  5
1C
330
1B
100
AcDbEntity
 67
     1
  8
0
100
AcDbBlockBegin
  2
*Paper_Space
 70
     0
 10
0.0
 20
0.0
 30
0.0
  3
*Paper_Space
  1

  0
ENDBLK
  5
1D
330
1B
100
AcDbEntity
 67
     1
  8
0
100
AcDbBlockEnd
  0
BLOCK
  5
24
330
23
100
AcDbEntity
  8
0
100
AcDbBlockBegin
  2
*Paper_Space0
 70
     0
 10
0.0
 20
0.0
 30
0.0
  3
*Paper_Space0
  1

  0
ENDBLK
  5
25
330
23
100
AcDbEntity
  8
0
100
AcDbBlockEnd
  0
BLOCK
  5
10B
330
10A
100
AcDbEntity
  8
0
100
AcDbBlockBegin
  2
70
 70
     0
 10
0.0
 20
0.0
 30
0.0
  3
70
  1

  0
CIRCLE
  5
10D
330
10A
100
AcDbEntity
  8
POL
370
     0
100
AcDbCircle
 10
0.0
 20
0.0
 30
0.0
 40
1.200000047683716
  0
ENDBLK
  5
10C
330
10A
100
AcDbEntity
  8
0
100
AcDbBlockEnd
  0
BLOCK
  5
CD1
330
CD0
100
AcDbEntity
  8
0
100
AcDbBlockBegin
  2
7
 70
     0
 10
0.0
 20
0.0
 30
0.0
  3
7
  1

  0
CIRCLE
  5
CD3
330
CD0
100
AcDbEntity
  8
TELEFON_HATTI
370
     0
100
AcDbCircle
 10
0.0
 20
0.0
 30
0.0
 40
0.4166666567325592
  0
LINE
  5
CD4
330
CD0
100
AcDbEntity
  8
TELEFON_HATTI
370
     0
100
AcDbLine
 10
0.0
 20
0.4166666567325592
 30
0.0
 11
0.0
 21
5.41666653752327
 31
0.0
  0
LINE
  5
CD5
330
CD0
100
AcDbEntity
  8
TELEFON_HATTI
370
     0
100
AcDbLine
 10
-1.041666641831398
 20
3.958333238959312
 30
0.0
 11
1.041666641831398
 21
4.583333224058151
 31
0.0
  0
ENDBLK
  5
CD2
330
CD0
100
AcDbEntity
  8
0
100
AcDbBlockEnd
  0
BLOCK
  5
F61
330
F60
100
AcDbEntity
  8
0
100
AcDbBlockBegin
  2
42
 70
     0
 10
0.0
 20
0.0
 30
0.0
  3
42
  1

  0
LINE
  5
F63
330
F60
100
AcDbEntity
  8
SINIR_ORMAN
370
     0
100
AcDbLine
 10
0.0
 20
0.0
 30
0.0
 11
0.0
 21
4.599438667297363
 31
0.0
  0
LINE
  5
F64
330
F60
100
AcDbEntity
  8
SINIR_ORMAN
370
     0
100
AcDbLine
 10
-1.006127208471298
 20
2.587184250354767
 30
0.0
 11
0.0
 21
3.30584654211998
 31
0.0
  0
LINE
  5
F65
330
F60
100
AcDbEntity
  8
SINIR_ORMAN
370
     0
100
AcDbLine
 10
0.0
 20
3.30584654211998
 30
0.0
 11
1.006127208471298
 21
2.587184250354767
 31
0.0
  0
LINE
  5
F66
330
F60
100
AcDbEntity
  8
SINIR_ORMAN
370
     0
100
AcDbLine
 10
-0.5749298334121704
 20
3.737043917179108
 30
0.0
 11
0.0
 21
4.168241292238235
 31
0.0
  0
LINE
  5
F67
330
F60
100
AcDbEntity
  8
SINIR_ORMAN
370
     0
100
AcDbLine
 10
0.0
 20
4.168241292238235
 30
0.0
 11
0.5749298334121704
 21
3.737043917179108
 31
0.0
  0
LINE
  5
F68
330
F60
100
AcDbEntity
  8
SINIR_ORMAN
370
     0
100
AcDbLine
 10
-0.2874649167060852
 20
4.311973750591278
 30
0.0
 11
0.0
 21
4.599438667297363
 31
0.0
  0
LINE
  5
F69
330
F60
100
AcDbEntity
  8
SINIR_ORMAN
370
     0
100
AcDbLine
 10
0.0
 20
4.599438667297363
 30
0.0
 11
0.2874649167060852
 21
4.311973750591278
 31
0.0
  0
LINE
  5
F6A
330
F60
100
AcDbEntity
  8
SINIR_ORMAN
370
     0
100
AcDbLine
 10
-1.437324583530426
 20
1.149859666824341
 30
0.0
 11
0.0
 21
2.299719333648682
 31
0.0
  0
LINE
  5
F6B
330
F60
100
AcDbEntity
  8
SINIR_ORMAN
370
     0
100
AcDbLine
 10
0.0
 20
2.299719333648682
 30
0.0
 11
1.437324583530426
 21
1.149859666824341
 31
0.0
  0
LINE
  5
F6C
330
F60
100
AcDbEntity
  8
SINIR_ORMAN
370
     0
100
AcDbLine
 10
-1.149859666824341
 20
2.012254416942596
 30
0.0
 11
0.0
 21
2.730916708707809
 31
0.0
  0
LINE
  5
F6D
330
F60
100
AcDbEntity
  8
SINIR_ORMAN
370
     0
100
AcDbLine
 10
0.0
 20
2.730916708707809
 30
0.0
 11
1.149859666824341
 21
1.868521958589554
 31
0.0
  0
LINE
  5
F6E
330
F60
100
AcDbEntity
  8
SINIR_ORMAN
370
     0
100
AcDbLine
 10
-0.718662291765213
 20
3.30584654211998
 30
0.0
 11
0.0
 21
3.737043917179108
 31
0.0
  0
LINE
  5
F6F
330
F60
100
AcDbEntity
  8
SINIR_ORMAN
370
     0
100
AcDbLine
 10
0.0
 20
3.737043917179108
 30
0.0
 11
0.718662291765213
 21
3.162114083766937
 31
0.0
  0
LINE
  5
F70
330
F60
100
AcDbEntity
  8
SINIR_ORMAN
370
     0
100
AcDbLine
 10
0.0
 20
0.0
 30
0.0
 11
0.2874649167060852
 21
0.0
 31
0.0
  0
LINE
  5
F71
330
F60
100
AcDbEntity
  8
SINIR_ORMAN
370
     0
100
AcDbLine
 10
0.5749298334121704
 20
0.0
 30
0.0
 11
0.8623947501182556
 21
0.0
 31
0.0
  0
LINE
  5
F72
330
F60
100
AcDbEntity
  8
SINIR_ORMAN
370
     0
100
AcDbLine
 10
1.149859666824341
 20
0.0
 30
0.0
 11
1.437324583530426
 21
0.0
 31
0.0
  0
LINE
  5
F73
330
F60
100
AcDbEntity
  8
SINIR_ORMAN
370
     0
100
AcDbLine
 10
1.724789500236511
 20
0.0
 30
0.0
 11
2.012254416942596
 21
0.0
 31
0.0
  0
ENDBLK
  5
F62
330
F60
100
AcDbEntity
  8
0
100
AcDbBlockEnd
  0
BLOCK
  5
F8C
330
F8B
100
AcDbEntity
  8
0
100
AcDbBlockBegin
  2
240
 70
     0
 10
0.0
 20
0.0
 30
0.0
  3
240
  1

  0
LINE
  5
F8E
330
F8B
100
AcDbEntity
  8
GRID_1000
370
     0
100
AcDbLine
 10
-2.5
 20
0.0
 30
0.0
 11
-0.625
 21
0.0
 31
0.0
  0
POINT
  5
F8F
330
F8B
100
AcDbEntity
  8
GRID_1000
370
     0
100
AcDbPoint
 10
0.0
 20
0.0
 30
0.0
  0
LINE
  5
F90
330
F8B
100
AcDbEntity
  8
GRID_1000
370
     0
100
AcDbLine
 10
0.625
 20
0.0
 30
0.0
 11
2.5
 21
0.0
 31
0.0
  0
LINE
  5
F91
330
F8B
100
AcDbEntity
  8
GRID_1000
370
     0
100
AcDbLine
 10
0.0
 20
2.5
 30
0.0
 11
0.0
 21
0.625
 31
0.0
  0
LINE
  5
F92
330
F8B
100
AcDbEntity
  8
GRID_1000
370
     0
100
AcDbLine
 10
0.0
 20
-0.625
 30
0.0
 11
0.0
 21
-2.5
 31
0.0
  0
ENDBLK
  5
F8D
330
F8B
100
AcDbEntity
  8
0
100
AcDbBlockEnd
  0
BLOCK
  5
10C2
330
10C1
100
AcDbEntity
  8
0
100
AcDbBlockBegin
  2
6
 70
     0
 10
0.0
 20
0.0
 30
0.0
  3
6
  1

  0
CIRCLE
  5
10C4
330
10C1
100
AcDbEntity
  8
ENERJI_HATTI
370
     0
100
AcDbCircle
 10
0.0
 20
0.0
 30
0.0
 40
0.4137931168079376
  0
LINE
  5
10C5
330
10C1
100
AcDbEntity
  8
ENERJI_HATTI
370
     0
100
AcDbLine
 10
0.0
 20
0.4137931168079376
 30
0.0
 11
0.0
 21
5.586207076907158
 31
0.0
  0
LINE
  5
10C6
330
10C1
100
AcDbEntity
  8
ENERJI_HATTI
370
     0
100
AcDbLine
 10
0.0
 20
5.17241396009922
 30
0.0
 11
1.034482792019844
 21
5.17241396009922
 31
0.0
  0
LINE
  5
10C7
330
10C1
100
AcDbEntity
  8
ENERJI_HATTI
370
     0
100
AcDbLine
 10
1.034482792019844
 20
5.17241396009922
 30
0.0
 11
1.448275908827782
 21
4.758620843291283
 31
0.0
  0
LINE
  5
10C8
330
10C1
100
AcDbEntity
  8
ENERJI_HATTI
370
     0
100
AcDbLine
 10
1.448275908827782
 20
4.758620843291283
 30
0.0
 11
2.068965584039688
 21
4.758620843291283
 31
0.0
  0
LINE
  5
10C9
330
10C1
100
AcDbEntity
  8
ENERJI_HATTI
370
     0
100
AcDbLine
 10
2.068965584039688
 20
4.758620843291283
 30
0.0
 11
1.862069025635719
 21
4.758620843291283
 31
0.0
  0
LINE
  5
10CA
330
10C1
100
AcDbEntity
  8
ENERJI_HATTI
370
     0
100
AcDbLine
 10
1.862069025635719
 20
4.758620843291283
 30
0.0
 11
1.862069025635719
 21
4.551724284887314
 31
0.0
  0
LINE
  5
10CB
330
10C1
100
AcDbEntity
  8
ENERJI_HATTI
370
     0
100
AcDbLine
 10
1.862069025635719
 20
4.551724284887314
 30
0.0
 11
1.65517246723175
 21
4.137931168079376
 31
0.0
  0
LINE
  5
10CC
330
10C1
100
AcDbEntity
  8
ENERJI_HATTI
370
     0
100
AcDbLine
 10
1.65517246723175
 20
4.137931168079376
 30
0.0
 11
1.241379350423813
 21
4.137931168079376
 31
0.0
  0
LINE
  5
10CD
330
10C1
100
AcDbEntity
  8
ENERJI_HATTI
370
     0
100
AcDbLine
 10
1.241379350423813
 20
4.137931168079376
 30
0.0
 11
1.034482792019844
 21
4.551724284887314
 31
0.0
  0
LINE
  5
10CE
330
10C1
100
AcDbEntity
  8
ENERJI_HATTI
370
     0
100
AcDbLine
 10
1.034482792019844
 20
4.551724284887314
 30
0.0
 11
1.034482792019844
 21
4.758620843291283
 31
0.0
  0
LINE
  5
10CF
330
10C1
100
AcDbEntity
  8
ENERJI_HATTI
370
     0
100
AcDbLine
 10
1.034482792019844
 20
4.758620843291283
 30
0.0
 11
0.8275862336158752
 21
4.758620843291283
 31
0.0
  0
LINE
  5
10D0
330
10C1
100
AcDbEntity
  8
ENERJI_HATTI
370
     0
100
AcDbLine
 10
0.8275862336158752
 20
4.758620843291283
 30
0.0
 11
1.448275908827782
 21
4.758620843291283
 31
0.0
  0
ENDBLK
  5
10C3
330
10C1
100
AcDbEntity
  8
0
100
AcDbBlockEnd
  0
BLOCK
  5
11D9
330
11D8
100
AcDbEntity
  8
0
100
AcDbBlockBegin
  2
19
 70
     0
 10
0.0
 20
0.0
 30
0.0
  3
19
  1

  0
LINE
  5
11DB
330
11D8
100
AcDbEntity
  8
ENERJI_HATTI
370
     0
100
AcDbLine
 10
0.0
 20
0.8386005759239197
 30
0.0
 11
-0.8386005759239197
 21
0.8386005759239197
 31
0.0
  0
LINE
  5
11DC
330
11D8
100
AcDbEntity
  8
ENERJI_HATTI
370
     0
100
AcDbLine
 10
-0.8386005759239197
 20
0.8386005759239197
 30
0.0
 11
-0.8386005759239197
 21
-0.8386005759239197
 31
0.0
  0
LINE
  5
11DD
330
11D8
100
AcDbEntity
  8
ENERJI_HATTI
370
     0
100
AcDbLine
 10
-0.8386005759239197
 20
-0.8386005759239197
 30
0.0
 11
0.8386005759239197
 21
-0.8386005759239197
 31
0.0
  0
LINE
  5
11DE
330
11D8
100
AcDbEntity
  8
ENERJI_HATTI
370
     0
100
AcDbLine
 10
0.8386005759239197
 20
-0.8386005759239197
 30
0.0
 11
0.8386005759239197
 21
0.8386005759239197
 31
0.0
  0
LINE
  5
11DF
330
11D8
100
AcDbEntity
  8
ENERJI_HATTI
370
     0
100
AcDbLine
 10
0.8386005759239197
 20
0.8386005759239197
 30
0.0
 11
0.0
 21
0.8386005759239197
 31
0.0
  0
LINE
  5
11E0
330
11D8
100
AcDbEntity
  8
ENERJI_HATTI
370
     0
100
AcDbLine
 10
0.0
 20
0.8386005759239197
 30
0.0
 11
0.0
 21
5.660553887486458
 31
0.0
  0
LINE
  5
11E1
330
11D8
100
AcDbEntity
  8
ENERJI_HATTI
370
     0
100
AcDbLine
 10
0.0
 20
5.660553887486458
 30
0.0
 11
1.0482507199049
 21
4.612303167581558
 31
0.0
  0
LINE
  5
11E2
330
11D8
100
AcDbEntity
  8
ENERJI_HATTI
370
     0
100
AcDbLine
 10
1.0482507199049
 20
4.612303167581558
 30
0.0
 11
1.0482507199049
 21
3.983352735638618
 31
0.0
  0
LINE
  5
11E3
330
11D8
100
AcDbEntity
  8
ENERJI_HATTI
370
     0
100
AcDbLine
 10
1.0482507199049
 20
3.983352735638618
 30
0.0
 11
1.677201151847839
 21
3.983352735638618
 31
0.0
  0
LINE
  5
11E4
330
11D8
100
AcDbEntity
  8
ENERJI_HATTI
370
     0
100
AcDbLine
 10
1.677201151847839
 20
3.983352735638618
 30
0.0
 11
2.096501439809799
 21
3.564052447676659
 31
0.0
  0
LINE
  5
11E5
330
11D8
100
AcDbEntity
  8
ENERJI_HATTI
370
     0
100
AcDbLine
 10
2.096501439809799
 20
3.564052447676659
 30
0.0
 11
2.306151583790779
 21
3.773702591657639
 31
0.0
  0
LINE
  5
11E6
330
11D8
100
AcDbEntity
  8
ENERJI_HATTI
370
     0
100
AcDbLine
 10
2.306151583790779
 20
3.773702591657639
 30
0.0
 11
2.515801727771759
 21
3.144752159714699
 31
0.0
  0
LINE
  5
11E7
330
11D8
100
AcDbEntity
  8
ENERJI_HATTI
370
     0
100
AcDbLine
 10
2.515801727771759
 20
3.144752159714699
 30
0.0
 11
1.886851295828819
 21
3.354402303695679
 31
0.0
  0
LINE
  5
11E8
330
11D8
100
AcDbEntity
  8
ENERJI_HATTI
370
     0
100
AcDbLine
 10
1.886851295828819
 20
3.354402303695679
 30
0.0
 11
2.096501439809799
 21
3.564052447676659
 31
0.0
  0
ENDBLK
  5
11DA
330
11D8
100
AcDbEntity
  8
0
100
AcDbBlockEnd
  0
BLOCK
  5
1480
330
147F
100
AcDbEntity
  8
0
100
AcDbBlockBegin
  2
30
 70
     0
 10
0.0
 20
0.0
 30
0.0
  3
30
  1

  0
LINE
  5
1482
330
147F
100
AcDbEntity
  8
ENERJI_HATTI
370
     0
100
AcDbLine
 10
0.0
 20
0.8965517282485962
 30
0.0
 11
-0.8965517282485962
 21
0.8965517282485962
 31
0.0
  0
LINE
  5
1483
330
147F
100
AcDbEntity
  8
ENERJI_HATTI
370
     0
100
AcDbLine
 10
-0.8965517282485962
 20
0.8965517282485962
 30
0.0
 11
-0.8965517282485962
 21
-0.8965517282485962
 31
0.0
  0
LINE
  5
1484
330
147F
100
AcDbEntity
  8
ENERJI_HATTI
370
     0
100
AcDbLine
 10
-0.8965517282485962
 20
-0.8965517282485962
 30
0.0
 11
0.8965517282485962
 21
-0.8965517282485962
 31
0.0
  0
LINE
  5
1485
330
147F
100
AcDbEntity
  8
ENERJI_HATTI
370
     0
100
AcDbLine
 10
0.8965517282485962
 20
-0.8965517282485962
 30
0.0
 11
0.8965517282485962
 21
0.8965517282485962
 31
0.0
  0
LINE
  5
1486
330
147F
100
AcDbEntity
  8
ENERJI_HATTI
370
     0
100
AcDbLine
 10
0.8965517282485962
 20
0.8965517282485962
 30
0.0
 11
0.0
 21
0.8965517282485962
 31
0.0
  0
LINE
  5
1487
330
147F
100
AcDbEntity
  8
ENERJI_HATTI
370
     0
100
AcDbLine
 10
0.0
 20
0.8965517282485962
 30
0.0
 11
0.0
 21
2.689655184745789
 31
0.0
  0
LINE
  5
1488
330
147F
100
AcDbEntity
  8
ENERJI_HATTI
370
     0
100
AcDbLine
 10
0.0
 20
2.689655184745789
 30
0.0
 11
0.8965517282485962
 21
2.24137932062149
 31
0.0
  0
LINE
  5
1489
330
147F
100
AcDbEntity
  8
ENERJI_HATTI
370
     0
100
AcDbLine
 10
0.8965517282485962
 20
2.24137932062149
 30
0.0
 11
0.8965517282485962
 21
4.931034505367279
 31
0.0
  0
LINE
  5
148A
330
147F
100
AcDbEntity
  8
ENERJI_HATTI
370
     0
100
AcDbLine
 10
0.8965517282485962
 20
4.931034505367279
 30
0.0
 11
0.6724137961864471
 21
4.931034505367279
 31
0.0
  0
LINE
  5
148B
330
147F
100
AcDbEntity
  8
ENERJI_HATTI
370
     0
100
AcDbLine
 10
0.6724137961864471
 20
4.931034505367279
 30
0.0
 11
0.8965517282485962
 21
5.603448301553726
 31
0.0
  0
LINE
  5
148C
330
147F
100
AcDbEntity
  8
ENERJI_HATTI
370
     0
100
AcDbLine
 10
0.8965517282485962
 20
5.603448301553726
 30
0.0
 11
1.120689660310745
 21
4.931034505367279
 31
0.0
  0
LINE
  5
148D
330
147F
100
AcDbEntity
  8
ENERJI_HATTI
370
     0
100
AcDbLine
 10
1.120689660310745
 20
4.931034505367279
 30
0.0
 11
0.8965517282485962
 21
4.931034505367279
 31
0.0
  0
ENDBLK
  5
1481
330
147F
100
AcDbEntity
  8
0
100
AcDbBlockEnd
  0
BLOCK
  5
1550
330
154F
100
AcDbEntity
  8
0
100
AcDbBlockBegin
  2
59
 70
     0
 10
0.0
 20
0.0
 30
0.0
  3
59
  1

  0
LINE
  5
1552
330
154F
100
AcDbEntity
  8
0
370
     0
100
AcDbLine
 10
1.000000014901161
 20
-1.400000020861626
 30
0.0
 11
-1.000000014901161
 21
1.400000020861626
 31
0.0
  0
LINE
  5
1553
330
154F
100
AcDbEntity
  8
0
370
     0
100
AcDbLine
 10
-1.000000014901161
 20
-1.400000020861626
 30
0.0
 11
1.000000014901161
 21
1.400000020861626
 31
0.0
  0
LINE
  5
1554
330
154F
100
AcDbEntity
  8
0
370
     0
100
AcDbLine
 10
-1.000000014901161
 20
1.400000020861626
 30
0.0
 11
-1.200000017881393
 21
1.700000025331974
 31
0.0
  0
LINE
  5
1555
330
154F
100
AcDbEntity
  8
0
370
     0
100
AcDbLine
 10
1.000000014901161
 20
1.400000020861626
 30
0.0
 11
1.200000017881393
 21
1.700000025331974
 31
0.0
  0
LINE
  5
1556
330
154F
100
AcDbEntity
  8
0
370
     0
100
AcDbLine
 10
1.200000017881393
 20
1.700000025331974
 30
0.0
 11
1.30000001937151
 21
1.700000025331974
 31
0.0
  0
LINE
  5
1557
330
154F
100
AcDbEntity
  8
0
370
     0
100
AcDbLine
 10
1.30000001937151
 20
1.700000025331974
 30
0.0
 11
1.400000020861626
 21
1.600000023841858
 31
0.0
  0
LINE
  5
1558
330
154F
100
AcDbEntity
  8
0
370
     0
100
AcDbLine
 10
1.600000023841858
 20
1.100000016391277
 30
0.0
 11
1.500000022351742
 21
1.100000016391277
 31
0.0
  0
LINE
  5
1559
330
154F
100
AcDbEntity
  8
0
370
     0
100
AcDbLine
 10
1.500000022351742
 20
1.100000016391277
 30
0.0
 11
1.30000001937151
 21
1.200000017881393
 31
0.0
  0
LINE
  5
155A
330
154F
100
AcDbEntity
  8
0
370
     0
100
AcDbLine
 10
1.30000001937151
 20
1.200000017881393
 30
0.0
 11
1.200000017881393
 21
1.30000001937151
 31
0.0
  0
LINE
  5
155B
330
154F
100
AcDbEntity
  8
0
370
     0
100
AcDbLine
 10
1.200000017881393
 20
1.30000001937151
 30
0.0
 11
1.100000016391277
 21
1.30000001937151
 31
0.0
  0
LINE
  5
155C
330
154F
100
AcDbEntity
  8
0
370
     0
100
AcDbLine
 10
1.100000016391277
 20
1.30000001937151
 30
0.0
 11
1.000000014901161
 21
1.400000020861626
 31
0.0
  0
LINE
  5
155D
330
154F
100
AcDbEntity
  8
0
370
     0
100
AcDbLine
 10
-1.200000017881393
 20
1.700000025331974
 30
0.0
 11
-1.30000001937151
 21
1.700000025331974
 31
0.0
  0
LINE
  5
155E
330
154F
100
AcDbEntity
  8
0
370
     0
100
AcDbLine
 10
-1.30000001937151
 20
1.700000025331974
 30
0.0
 11
-1.400000020861626
 21
1.600000023841858
 31
0.0
  0
LINE
  5
155F
330
154F
100
AcDbEntity
  8
0
370
     0
100
AcDbLine
 10
-1.600000023841858
 20
1.100000016391277
 30
0.0
 11
-1.500000022351742
 21
1.100000016391277
 31
0.0
  0
LINE
  5
1560
330
154F
100
AcDbEntity
  8
0
370
     0
100
AcDbLine
 10
-1.500000022351742
 20
1.100000016391277
 30
0.0
 11
-1.30000001937151
 21
1.200000017881393
 31
0.0
  0
LINE
  5
1561
330
154F
100
AcDbEntity
  8
0
370
     0
100
AcDbLine
 10
-1.30000001937151
 20
1.200000017881393
 30
0.0
 11
-1.200000017881393
 21
1.30000001937151
 31
0.0
  0
LINE
  5
1562
330
154F
100
AcDbEntity
  8
0
370
     0
100
AcDbLine
 10
-1.200000017881393
 20
1.30000001937151
 30
0.0
 11
-1.100000016391277
 21
1.30000001937151
 31
0.0
  0
LINE
  5
1563
330
154F
100
AcDbEntity
  8
0
370
     0
100
AcDbLine
 10
-1.100000016391277
 20
1.30000001937151
 30
0.0
 11
-1.000000014901161
 21
1.400000020861626
 31
0.0
  0
LINE
  5
1564
330
154F
100
AcDbEntity
  8
0
370
     0
100
AcDbLine
 10
1.100000016391277
 20
1.500000022351742
 30
0.0
 11
1.100000016391277
 21
1.30000001937151
 31
0.0
  0
LINE
  5
1565
330
154F
100
AcDbEntity
  8
0
370
     0
100
AcDbLine
 10
1.200000017881393
 20
1.700000025331974
 30
0.0
 11
1.200000017881393
 21
1.30000001937151
 31
0.0
  0
LINE
  5
1566
330
154F
100
AcDbEntity
  8
0
370
     0
100
AcDbLine
 10
1.30000001937151
 20
1.700000025331974
 30
0.0
 11
1.30000001937151
 21
1.200000017881393
 31
0.0
  0
LINE
  5
1567
330
154F
100
AcDbEntity
  8
0
370
     0
100
AcDbLine
 10
1.400000020861626
 20
1.600000023841858
 30
0.0
 11
1.400000020861626
 21
1.200000017881393
 31
0.0
  0
LINE
  5
1568
330
154F
100
AcDbEntity
  8
0
370
     0
100
AcDbLine
 10
1.500000022351742
 20
1.500000022351742
 30
0.0
 11
1.500000022351742
 21
1.100000016391277
 31
0.0
  0
LINE
  5
1569
330
154F
100
AcDbEntity
  8
0
370
     0
100
AcDbLine
 10
1.600000023841858
 20
1.100000016391277
 30
0.0
 11
1.600000023841858
 21
1.500000022351742
 31
0.0
  0
LINE
  5
156A
330
154F
100
AcDbEntity
  8
0
370
     0
100
AcDbLine
 10
1.30000001937151
 20
1.200000017881393
 30
0.0
 11
1.600000023841858
 21
1.200000017881393
 31
0.0
  0
LINE
  5
156B
330
154F
100
AcDbEntity
  8
0
370
     0
100
AcDbLine
 10
1.200000017881393
 20
1.30000001937151
 30
0.0
 11
1.600000023841858
 21
1.30000001937151
 31
0.0
  0
LINE
  5
156C
330
154F
100
AcDbEntity
  8
0
370
     0
100
AcDbLine
 10
1.000000014901161
 20
1.400000020861626
 30
0.0
 11
1.600000023841858
 21
1.400000020861626
 31
0.0
  0
LINE
  5
156D
330
154F
100
AcDbEntity
  8
0
370
     0
100
AcDbLine
 10
1.100000016391277
 20
1.500000022351742
 30
0.0
 11
1.600000023841858
 21
1.500000022351742
 31
0.0
  0
LINE
  5
156E
330
154F
100
AcDbEntity
  8
0
370
     0
100
AcDbLine
 10
1.200000017881393
 20
1.600000023841858
 30
0.0
 11
1.400000020861626
 21
1.600000023841858
 31
0.0
  0
LINE
  5
156F
330
154F
100
AcDbEntity
  8
0
370
     0
100
AcDbLine
 10
-1.100000016391277
 20
1.500000022351742
 30
0.0
 11
-1.100000016391277
 21
1.30000001937151
 31
0.0
  0
LINE
  5
1570
330
154F
100
AcDbEntity
  8
0
370
     0
100
AcDbLine
 10
-1.200000017881393
 20
1.700000025331974
 30
0.0
 11
-1.200000017881393
 21
1.30000001937151
 31
0.0
  0
LINE
  5
1571
330
154F
100
AcDbEntity
  8
0
370
     0
100
AcDbLine
 10
-1.30000001937151
 20
1.700000025331974
 30
0.0
 11
-1.30000001937151
 21
1.200000017881393
 31
0.0
  0
LINE
  5
1572
330
154F
100
AcDbEntity
  8
0
370
     0
100
AcDbLine
 10
-1.400000020861626
 20
1.600000023841858
 30
0.0
 11
-1.400000020861626
 21
1.200000017881393
 31
0.0
  0
LINE
  5
1573
330
154F
100
AcDbEntity
  8
0
370
     0
100
AcDbLine
 10
-1.500000022351742
 20
1.500000022351742
 30
0.0
 11
-1.500000022351742
 21
1.100000016391277
 31
0.0
  0
LINE
  5
1574
330
154F
100
AcDbEntity
  8
0
370
     0
100
AcDbLine
 10
-1.600000023841858
 20
1.500000022351742
 30
0.0
 11
-1.600000023841858
 21
1.100000016391277
 31
0.0
  0
LINE
  5
1575
330
154F
100
AcDbEntity
  8
0
370
     0
100
AcDbLine
 10
-1.600000023841858
 20
1.200000017881393
 30
0.0
 11
-1.30000001937151
 21
1.200000017881393
 31
0.0
  0
LINE
  5
1576
330
154F
100
AcDbEntity
  8
0
370
     0
100
AcDbLine
 10
-1.600000023841858
 20
1.30000001937151
 30
0.0
 11
-1.200000017881393
 21
1.30000001937151
 31
0.0
  0
LINE
  5
1577
330
154F
100
AcDbEntity
  8
0
370
     0
100
AcDbLine
 10
-1.600000023841858
 20
1.400000020861626
 30
0.0
 11
-1.000000014901161
 21
1.400000020861626
 31
0.0
  0
LINE
  5
1578
330
154F
100
AcDbEntity
  8
0
370
     0
100
AcDbLine
 10
-1.600000023841858
 20
1.500000022351742
 30
0.0
 11
-1.100000016391277
 21
1.500000022351742
 31
0.0
  0
LINE
  5
1579
330
154F
100
AcDbEntity
  8
0
370
     0
100
AcDbLine
 10
-1.400000020861626
 20
1.600000023841858
 30
0.0
 11
-1.200000017881393
 21
1.600000023841858
 31
0.0
  0
LINE
  5
157A
330
154F
100
AcDbEntity
  8
0
370
     0
100
AcDbLine
 10
1.400000020861626
 20
1.600000023841858
 30
0.0
 11
1.600000023841858
 21
1.500000022351742
 31
0.0
  0
LINE
  5
157B
330
154F
100
AcDbEntity
  8
0
370
     0
100
AcDbLine
 10
1.600000023841858
 20
1.500000022351742
 30
0.0
 11
1.700000025331974
 21
1.400000020861626
 31
0.0
  0
LINE
  5
157C
330
154F
100
AcDbEntity
  8
0
370
     0
100
AcDbLine
 10
1.700000025331974
 20
1.400000020861626
 30
0.0
 11
1.600000023841858
 21
1.100000016391277
 31
0.0
  0
LINE
  5
157D
330
154F
100
AcDbEntity
  8
0
370
     0
100
AcDbLine
 10
1.600000023841858
 20
1.400000020861626
 30
0.0
 11
1.700000025331974
 21
1.400000020861626
 31
0.0
  0
LINE
  5
157E
330
154F
100
AcDbEntity
  8
0
370
     0
100
AcDbLine
 10
-1.400000020861626
 20
1.600000023841858
 30
0.0
 11
-1.600000023841858
 21
1.500000022351742
 31
0.0
  0
LINE
  5
157F
330
154F
100
AcDbEntity
  8
0
370
     0
100
AcDbLine
 10
-1.600000023841858
 20
1.500000022351742
 30
0.0
 11
-1.700000025331974
 21
1.400000020861626
 31
0.0
  0
LINE
  5
1580
330
154F
100
AcDbEntity
  8
0
370
     0
100
AcDbLine
 10
-1.700000025331974
 20
1.400000020861626
 30
0.0
 11
-1.600000023841858
 21
1.100000016391277
 31
0.0
  0
LINE
  5
1581
330
154F
100
AcDbEntity
  8
0
370
     0
100
AcDbLine
 10
-1.600000023841858
 20
1.400000020861626
 30
0.0
 11
-1.700000025331974
 21
1.400000020861626
 31
0.0
  0
ENDBLK
  5
1551
330
154F
100
AcDbEntity
  8
0
100
AcDbBlockEnd
  0
BLOCK
  5
1584
330
1583
100
AcDbEntity
  8
0
100
AcDbBlockBegin
  2
237
 70
     0
 10
0.0
 20
0.0
 30
0.0
  3
237
  1

  0
LINE
  5
1586
330
1583
100
AcDbEntity
  8
0
370
     0
100
AcDbLine
 10
-2.55326110124588
 20
0.0
 30
0.0
 11
-2.393682282418013
 21
1.117051731795073
 31
0.0
  0
LINE
  5
1587
330
1583
100
AcDbEntity
  8
0
370
     0
100
AcDbLine
 10
-2.393682282418013
 20
1.117051731795073
 30
0.0
 11
-1.91494582593441
 21
3.031997557729483
 31
0.0
  0
LINE
  5
1588
330
1583
100
AcDbEntity
  8
0
370
     0
100
AcDbLine
 10
-1.91494582593441
 20
3.031997557729483
 30
0.0
 11
-1.595788188278675
 21
3.82989165186882
 31
0.0
  0
LINE
  5
1589
330
1583
100
AcDbEntity
  8
0
370
     0
100
AcDbLine
 10
-1.595788188278675
 20
3.82989165186882
 30
0.0
 11
-1.117051731795073
 21
4.46820692718029
 31
0.0
  0
LINE
  5
158A
330
1583
100
AcDbEntity
  8
0
370
     0
100
AcDbLine
 10
-1.117051731795073
 20
4.46820692718029
 30
0.0
 11
-0.4787364564836025
 21
4.787364564836025
 31
0.0
  0
LINE
  5
158B
330
1583
100
AcDbEntity
  8
0
370
     0
100
AcDbLine
 10
-0.4787364564836025
 20
4.787364564836025
 30
0.0
 11
0.4787364564836025
 21
4.787364564836025
 31
0.0
  0
LINE
  5
158C
330
1583
100
AcDbEntity
  8
0
370
     0
100
AcDbLine
 10
0.4787364564836025
 20
4.787364564836025
 30
0.0
 11
1.117051731795073
 21
4.46820692718029
 31
0.0
  0
LINE
  5
158D
330
1583
100
AcDbEntity
  8
0
370
     0
100
AcDbLine
 10
1.117051731795073
 20
4.46820692718029
 30
0.0
 11
1.595788188278675
 21
3.82989165186882
 31
0.0
  0
LINE
  5
158E
330
1583
100
AcDbEntity
  8
0
370
     0
100
AcDbLine
 10
1.595788188278675
 20
3.82989165186882
 30
0.0
 11
1.91494582593441
 21
3.031997557729483
 31
0.0
  0
LINE
  5
158F
330
1583
100
AcDbEntity
  8
0
370
     0
100
AcDbLine
 10
1.91494582593441
 20
3.031997557729483
 30
0.0
 11
2.393682282418013
 21
1.117051731795073
 31
0.0
  0
LINE
  5
1590
330
1583
100
AcDbEntity
  8
0
370
     0
100
AcDbLine
 10
2.393682282418013
 20
1.117051731795073
 30
0.0
 11
2.55326110124588
 21
0.0
 31
0.0
  0
LINE
  5
1591
330
1583
100
AcDbEntity
  8
0
370
     0
100
AcDbLine
 10
-2.55326110124588
 20
0.1595788188278675
 30
0.0
 11
-2.074524644762278
 21
0.1595788188278675
 31
0.0
  0
LINE
  5
1592
330
1583
100
AcDbEntity
  8
0
370
     0
100
AcDbLine
 10
-2.393682282418013
 20
1.117051731795073
 30
0.0
 11
-1.91494582593441
 21
1.117051731795073
 31
0.0
  0
LINE
  5
1593
330
1583
100
AcDbEntity
  8
0
370
     0
100
AcDbLine
 10
-2.074524644762278
 20
2.393682282418013
 30
0.0
 11
-1.595788188278675
 21
2.234103463590145
 31
0.0
  0
LINE
  5
1594
330
1583
100
AcDbEntity
  8
0
370
     0
100
AcDbLine
 10
-0.4787364564836025
 20
4.787364564836025
 30
0.0
 11
-0.4787364564836025
 21
4.308628108352423
 31
0.0
  0
LINE
  5
1595
330
1583
100
AcDbEntity
  8
0
370
     0
100
AcDbLine
 10
0.0
 20
4.787364564836025
 30
0.0
 11
0.0
 21
4.308628108352423
 31
0.0
  0
LINE
  5
1596
330
1583
100
AcDbEntity
  8
0
370
     0
100
AcDbLine
 10
0.4787364564836025
 20
4.787364564836025
 30
0.0
 11
0.4787364564836025
 21
4.308628108352423
 31
0.0
  0
LINE
  5
1597
330
1583
100
AcDbEntity
  8
0
370
     0
100
AcDbLine
 10
1.117051731795073
 20
4.46820692718029
 30
0.0
 11
0.7978940941393375
 21
3.989470470696688
 31
0.0
  0
LINE
  5
1598
330
1583
100
AcDbEntity
  8
0
370
     0
100
AcDbLine
 10
1.595788188278675
 20
3.82989165186882
 30
0.0
 11
1.117051731795073
 21
3.510734014213085
 31
0.0
  0
LINE
  5
1599
330
1583
100
AcDbEntity
  8
0
370
     0
100
AcDbLine
 10
1.91494582593441
 20
3.031997557729483
 30
0.0
 11
1.436209369450808
 21
2.872418738901615
 31
0.0
  0
LINE
  5
159A
330
1583
100
AcDbEntity
  8
0
370
     0
100
AcDbLine
 10
2.074524644762278
 20
2.234103463590145
 30
0.0
 11
1.595788188278675
 21
2.074524644762278
 31
0.0
  0
LINE
  5
159B
330
1583
100
AcDbEntity
  8
0
370
     0
100
AcDbLine
 10
2.393682282418013
 20
1.117051731795073
 30
0.0
 11
1.91494582593441
 21
1.117051731795073
 31
0.0
  0
LINE
  5
159C
330
1583
100
AcDbEntity
  8
0
370
     0
100
AcDbLine
 10
2.55326110124588
 20
0.1595788188278675
 30
0.0
 11
2.074524644762278
 21
0.1595788188278675
 31
0.0
  0
LINE
  5
159D
330
1583
100
AcDbEntity
  8
0
370
     0
100
AcDbLine
 10
-2.234103463590145
 20
1.755367007106543
 30
0.0
 11
-1.755367007106543
 21
1.595788188278675
 31
0.0
  0
LINE
  5
159E
330
1583
100
AcDbEntity
  8
0
370
     0
100
AcDbLine
 10
-1.91494582593441
 20
3.031997557729483
 30
0.0
 11
-1.436209369450808
 21
2.872418738901615
 31
0.0
  0
POINT
  5
159F
330
1583
100
AcDbEntity
  8
0
370
     0
100
AcDbPoint
 10
-1.595788188278675
 20
3.82989165186882
 30
0.0
  0
LINE
  5
15A0
330
1583
100
AcDbEntity
  8
0
370
     0
100
AcDbLine
 10
-1.595788188278675
 20
3.82989165186882
 30
0.0
 11
-1.117051731795073
 21
3.510734014213085
 31
0.0
  0
LINE
  5
15A1
330
1583
100
AcDbEntity
  8
0
370
     0
100
AcDbLine
 10
2.393682282418013
 20
0.63831527531147
 30
0.0
 11
1.91494582593441
 21
0.63831527531147
 31
0.0
  0
LINE
  5
15A2
330
1583
100
AcDbEntity
  8
0
370
     0
100
AcDbLine
 10
-2.393682282418013
 20
0.63831527531147
 30
0.0
 11
-1.91494582593441
 21
0.63831527531147
 31
0.0
  0
LINE
  5
15A3
330
1583
100
AcDbEntity
  8
0
370
     0
100
AcDbLine
 10
2.234103463590145
 20
1.755367007106543
 30
0.0
 11
1.755367007106543
 21
1.595788188278675
 31
0.0
  0
LINE
  5
15A4
330
1583
100
AcDbEntity
  8
0
370
     0
100
AcDbLine
 10
-1.117051731795073
 20
4.46820692718029
 30
0.0
 11
-0.7978940941393375
 21
3.989470470696688
 31
0.0
  0
ENDBLK
  5
1585
330
1583
100
AcDbEntity
  8
0
100
AcDbBlockEnd
  0
BLOCK
  5
15C6
330
15C5
100
AcDbEntity
  8
0
100
AcDbBlockBegin
  2
27
 70
     0
 10
0.0
 20
0.0
 30
0.0
  3
27
  1

  0
LINE
  5
15C8
330
15C5
100
AcDbEntity
  8
ENERJI_HATTI
370
     0
100
AcDbLine
 10
0.0
 20
1.399999976158142
 30
0.0
 11
-1.399999976158142
 21
1.399999976158142
 31
0.0
  0
LINE
  5
15C9
330
15C5
100
AcDbEntity
  8
ENERJI_HATTI
370
     0
100
AcDbLine
 10
-1.399999976158142
 20
1.399999976158142
 30
0.0
 11
-1.399999976158142
 21
-1.399999976158142
 31
0.0
  0
LINE
  5
15CA
330
15C5
100
AcDbEntity
  8
ENERJI_HATTI
370
     0
100
AcDbLine
 10
-1.399999976158142
 20
-1.399999976158142
 30
0.0
 11
1.399999976158142
 21
-1.399999976158142
 31
0.0
  0
LINE
  5
15CB
330
15C5
100
AcDbEntity
  8
ENERJI_HATTI
370
     0
100
AcDbLine
 10
1.399999976158142
 20
-1.399999976158142
 30
0.0
 11
1.399999976158142
 21
1.399999976158142
 31
0.0
  0
LINE
  5
15CC
330
15C5
100
AcDbEntity
  8
ENERJI_HATTI
370
     0
100
AcDbLine
 10
1.399999976158142
 20
1.399999976158142
 30
0.0
 11
0.0
 21
1.399999976158142
 31
0.0
  0
LINE
  5
15CD
330
15C5
100
AcDbEntity
  8
ENERJI_HATTI
370
     0
100
AcDbLine
 10
0.0
 20
1.399999976158142
 30
0.0
 11
0.0
 21
3.499999940395355
 31
0.0
  0
LINE
  5
15CE
330
15C5
100
AcDbEntity
  8
ENERJI_HATTI
370
     0
100
AcDbLine
 10
0.0
 20
3.499999940395355
 30
0.0
 11
-1.049999982118607
 21
4.899999916553497
 31
0.0
  0
LINE
  5
15CF
330
15C5
100
AcDbEntity
  8
ENERJI_HATTI
370
     0
100
AcDbLine
 10
-1.049999982118607
 20
4.899999916553497
 30
0.0
 11
1.049999982118607
 21
6.299999892711639
 31
0.0
  0
LINE
  5
15D0
330
15C5
100
AcDbEntity
  8
ENERJI_HATTI
370
     0
100
AcDbLine
 10
1.049999982118607
 20
6.299999892711639
 30
0.0
 11
0.0
 21
7.699999868869781
 31
0.0
  0
LINE
  5
15D1
330
15C5
100
AcDbEntity
  8
ENERJI_HATTI
370
     0
100
AcDbLine
 10
-0.3499999940395355
 20
8.399999856948853
 30
0.0
 11
0.3499999940395355
 21
8.399999856948853
 31
0.0
  0
LINE
  5
15D2
330
15C5
100
AcDbEntity
  8
ENERJI_HATTI
370
     0
100
AcDbLine
 10
0.3499999940395355
 20
8.399999856948853
 30
0.0
 11
0.0
 21
9.099999845027924
 31
0.0
  0
LINE
  5
15D3
330
15C5
100
AcDbEntity
  8
ENERJI_HATTI
370
     0
100
AcDbLine
 10
0.0
 20
9.099999845027924
 30
0.0
 11
-0.3499999940395355
 21
8.399999856948853
 31
0.0
  0
LINE
  5
15D4
330
15C5
100
AcDbEntity
  8
ENERJI_HATTI
370
     0
100
AcDbLine
 10
0.0
 20
7.699999868869781
 30
0.0
 11
0.0
 21
8.399999856948853
 31
0.0
  0
ENDBLK
  5
15C7
330
15C5
100
AcDbEntity
  8
0
100
AcDbBlockEnd
  0
BLOCK
  5
1688
330
1687
100
AcDbEntity
  8
0
100
AcDbBlockBegin
  2
105
 70
     0
 10
0.0
 20
0.0
 30
0.0
  3
105
  1

  0
LINE
  5
168A
330
1687
100
AcDbEntity
  8
BINA
370
     0
100
AcDbLine
 10
0.0
 20
0.5000000149011612
 30
0.0
 11
0.0
 21
-0.5000000149011612
 31
0.0
  0
LINE
  5
168B
330
1687
100
AcDbEntity
  8
BINA
370
     0
100
AcDbLine
 10
0.0
 20
-0.5000000149011612
 30
0.0
 11
1.000000029802322
 21
-0.5000000149011612
 31
0.0
  0
LINE
  5
168C
330
1687
100
AcDbEntity
  8
BINA
370
     0
100
AcDbLine
 10
1.000000029802322
 20
-0.5000000149011612
 30
0.0
 11
1.000000029802322
 21
-1.500000044703484
 31
0.0
  0
ENDBLK
  5
1689
330
1687
100
AcDbEntity
  8
0
100
AcDbBlockEnd
  0
BLOCK
  5
23A0
330
239F
100
AcDbEntity
  8
0
100
AcDbBlockBegin
  2
0
 70
     0
 10
0.0
 20
0.0
 30
0.0
  3
0
  1

  0
ENDBLK
  5
23A1
330
239F
100
AcDbEntity
  8
0
100
AcDbBlockEnd
  0
ENDSEC
  0
SECTION
  2
ENTITIES
  0
LINE
  5
8F6
330
1F
100
AcDbEntity
  8
YOL
370
     0
100
AcDbLine
 10
539761.2286624095
 20
4478121.546748337
 30
1477.509155273438
 11
539763.148062409
 21
4478128.134248341
 31
1476.243286132812
  0
LINE
  5
8F7
330
1F
100
AcDbEntity
  8
YOL
370
     0
100
AcDbLine
 10
539763.148062409
 20
4478128.134248341
 30
1476.243286132812
 11
539766.4507624065
 21
4478137.990848344
 31
1474.492431640625
  0
LINE
  5
8F8
330
1F
100
AcDbEntity
  8
YOL
370
     0
100
AcDbLine
 10
539766.4507624065
 20
4478137.990848344
 30
1474.492431640625
 11
539776.4028624017
 21
4478156.870048353
 31
1470.185546875
  0
LINE
  5
8F9
330
1F
100
AcDbEntity
  8
YOL
370
     0
100
AcDbLine
 10
539776.4028624017
 20
4478156.870048353
 30
1470.185546875
 11
539781.1464623993
 21
4478166.845148358
 31
1468.239624023438
  0
LINE
  5
8FA
330
1F
100
AcDbEntity
  8
YOL
370
     0
100
AcDbLine
 10
539781.1464623993
 20
4478166.845148358
 30
1468.239624023438
 11
539786.8894623958
 21
4478171.491248361
 31
1467.462768554688
  0
LINE
  5
8FB
330
1F
100
AcDbEntity
  8
YOL
370
     0
100
AcDbLine
 10
539786.8894623958
 20
4478171.491248361
 30
1467.462768554688
 11
539789.8372623944
 21
4478173.840048362
 31
1467.26953125
  0
LINE
  5
8FC
330
1F
100
AcDbEntity
  8
YOL
370
     0
100
AcDbLine
 10
539789.8372623944
 20
4478173.840048362
 30
1467.26953125
 11
539802.8771623855
 21
4478170.793848358
 31
1465.58837890625
  0
LINE
  5
8FD
330
1F
100
AcDbEntity
  8
YOL
370
     0
100
AcDbLine
 10
539802.8771623855
 20
4478170.793848358
 30
1465.58837890625
 11
539814.4389623782
 21
4478169.209648357
 31
1463.84814453125
  0
LINE
  5
8FE
330
1F
100
AcDbEntity
  8
YOL
370
     0
100
AcDbLine
 10
539814.7043623775
 20
4478165.869548357
 30
1463.84765625
 11
539802.3609623855
 21
4478166.147248358
 31
1465.624145507812
  0
LINE
  5
8FF
330
1F
100
AcDbEntity
  8
YOL
370
     0
100
AcDbLine
 10
539802.3609623855
 20
4478166.147248358
 30
1465.624145507812
 11
539792.0160623919
 21
4478166.656748357
 31
1467.185302734375
  0
LINE
  5
900
330
1F
100
AcDbEntity
  8
YOL
370
     0
100
AcDbLine
 10
539792.0160623919
 20
4478166.656748357
 30
1467.185302734375
 11
539783.0022623978
 21
4478161.666348356
 31
1468.759521484375
  0
LINE
  5
901
330
1F
100
AcDbEntity
  8
YOL
370
     0
100
AcDbLine
 10
539783.0022623978
 20
4478161.666348356
 30
1468.759521484375
 11
539779.6070623996
 21
4478155.316448352
 31
1470.267944335938
  0
LINE
  5
902
330
1F
100
AcDbEntity
  8
YOL
370
     0
100
AcDbLine
 10
539779.6070623996
 20
4478155.316448352
 30
1470.267944335938
 11
539770.4457624041
 21
4478135.789248344
 31
1474.817260742188
  0
LINE
  5
903
330
1F
100
AcDbEntity
  8
YOL
370
     0
100
AcDbLine
 10
539770.4457624041
 20
4478135.789248344
 30
1474.817260742188
 11
539766.627262406
 21
4478127.40884834
 31
1476.396240234375
  0
LINE
  5
904
330
1F
100
AcDbEntity
  8
YOL
370
     0
100
AcDbLine
 10
539766.627262406
 20
4478127.40884834
 30
1476.396240234375
 11
539766.5847624058
 21
4478120.738348336
 31
1477.77978515625
  0
TEXT
  5
905
330
1F
100
AcDbEntity
  8
text
370
     0
100
AcDbText
 10
539791.639387126
 20
4478168.67436744
 30
1472.680908203125
 40
2.5
  1
yol
 50
0.0718636079811892
  7
STYLE2
100
AcDbText
  0
TEXT
  5
906
330
1F
100
AcDbEntity
  8
text
370
     0
100
AcDbText
 10
539768.8836486642
 20
4478135.256373108
 30
1472.680908203125
 40
2.5
  1
yol
 50
60.37795337509826
  7
STYLE2
100
AcDbText
  0
TEXT
  5
907
330
1F
100
AcDbEntity
  8
text
370
     0
100
AcDbText
 10
539885.5401943768
 20
4478168.700940797
 30
1472.680908203125
 40
1.5
  1
konteyner
 50
0.0720002117645894
  7
STYLE2
100
AcDbText
  0
LINE
  5
D73
330
1F
100
AcDbEntity
  8
YOL
370
     0
100
AcDbLine
 10
540033.3007
 20
4478189.6049
 30
1463.568237304688
 11
540026.0473
 21
4478182.1871
 31
1465.567138671875
  0
LINE
  5
D74
330
1F
100
AcDbEntity
  8
YOL
370
     0
100
AcDbLine
 10
540008.5246
 20
4478170.2453
 30
1470.46630859375
 11
540019.8733
 21
4478180.5599
 31
1466.78515625
  0
LINE
  5
D75
330
1F
100
AcDbEntity
  8
YOL
370
     0
100
AcDbLine
 10
540009.4196
 20
4478164.5508
 30
1471.105346679688
 11
540026.0473
 21
4478182.1871
 31
1465.567138671875
  0
LINE
  5
D76
330
1F
100
AcDbEntity
  8
YOL
370
     0
100
AcDbLine
 10
540019.8733
 20
4478180.5599
 30
1466.78515625
 11
540034.8318
 21
4478195.2244
 31
1463.12255859375
  0
LINE
  5
D77
330
1F
100
AcDbEntity
  8
YOL
370
     0
100
AcDbLine
 10
540049.5747
 20
4478246.1951
 30
1458.00244140625
 11
540046.1449
 21
4478226.7652
 31
1459.012329101562
  0
LINE
  5
D78
330
1F
100
AcDbEntity
  8
YOL
370
     0
100
AcDbLine
 10
540050.3814
 20
4478218.8155
 30
1459.406860351562
 11
540054.044
 21
4478240.7213
 31
1458.053344726562
  0
LINE
  5
D7B
330
1F
100
AcDbEntity
  8
YOL
370
     0
100
AcDbLine
 10
540050.3814
 20
4478218.8155
 30
1459.406860351562
 11
540045.9687
 21
4478197.8588
 31
1461.023193359375
  0
LINE
  5
D7C
330
1F
100
AcDbEntity
  8
YOL
370
     0
100
AcDbLine
 10
540045.9687
 20
4478197.8588
 30
1461.023193359375
 11
540033.3007
 21
4478189.6049
 31
1463.568237304688
  0
LINE
  5
D7D
330
1F
100
AcDbEntity
  8
YOL
370
     0
100
AcDbLine
 10
540034.8318
 20
4478195.2244
 30
1463.12255859375
 11
540040.989
 21
4478200.7123
 31
1461.38916015625
  0
LINE
  5
D7E
330
1F
100
AcDbEntity
  8
YOL
370
     0
100
AcDbLine
 10
540040.989
 20
4478200.7123
 30
1461.38916015625
 11
540041.8014
 21
4478208.3947
 31
1460.027587890625
  0
LINE
  5
D8A
330
1F
100
AcDbEntity
  8
YOL
370
     0
100
AcDbLine
 10
540041.8014
 20
4478208.3947
 30
1460.027587890625
 11
540040.8475
 21
4478216.2887
 31
1459.577392578125
  0
LINE
  5
D8B
330
1F
100
AcDbEntity
  8
YOL
370
     0
100
AcDbLine
 10
540040.8475
 20
4478216.2887
 30
1459.577392578125
 11
540043.5287
 21
4478218.5766
 31
1459.533569335938
  0
LINE
  5
D8C
330
1F
100
AcDbEntity
  8
YOL
370
     0
100
AcDbLine
 10
540043.5287
 20
4478218.5766
 30
1459.533569335938
 11
540046.1449
 21
4478226.7652
 31
1459.012329101562
  0
TEXT
  5
F5C
330
1F
100
AcDbEntity
  8
text
370
     0
100
AcDbText
 10
540016.2131471762
 20
4478174.365097137
 30
1472.680908203125
 40
2.5
  1
yol
 50
33.41372255180926
  7
STYLE2
100
AcDbText
  0
TEXT
  5
F5D
330
1F
100
AcDbEntity
  8
text
370
     0
100
AcDbText
 10
540048.056963089
 20
4478230.53103056
 30
1472.680908203125
 40
2.5
  1
yol
  7
STYLE2
100
AcDbText
  0
LINE
  5
FDD
330
1F
100
AcDbEntity
  8
BINA
370
     0
100
AcDbLine
 10
539976.4768
 20
4478174.1419
 30
1470.495483398438
 11
539948.0832
 21
4478174.0378
 31
1469.24462890625
  0
POINT
  5
124B
330
1F
100
AcDbEntity
  8
BINA
370
     0
100
AcDbPoint
 10
539878.528
 20
4478135.4924
 30
1463.55859375
  0
POINT
  5
124D
330
1F
100
AcDbEntity
  8
BINA
370
     0
100
AcDbPoint
 10
539878.528
 20
4478135.4924
 30
1463.55859375
  0
LINE
  5
1270
330
1F
100
AcDbEntity
  8
BINA
370
     0
100
AcDbLine
 10
539902.6283
 20
4478151.0691
 30
1465.431518554688
 11
539904.2862
 21
4478145.414
 31
1464.75244140625
  0
LINE
  5
1271
330
1F
100
AcDbEntity
  8
BINA
370
     0
100
AcDbLine
 10
539904.2862
 20
4478145.414
 30
1464.75244140625
 11
539915.4665
 21
4478149.261
 31
1467.119262695312
  0
LINE
  5
1272
330
1F
100
AcDbEntity
  8
BINA
370
     0
100
AcDbLine
 10
539915.4665
 20
4478149.261
 30
1467.119262695312
 11
539913.9017
 21
4478153.8222
 31
1466.961791992188
  0
LINE
  5
1273
330
1F
100
AcDbEntity
  8
BINA
370
     0
100
AcDbLine
 10
539913.9017
 20
4478153.8222
 30
1466.961791992188
 11
539905.7173
 21
4478151.6551
 31
1465.431518554688
  0
LINE
  5
127F
330
1F
100
AcDbEntity
  8
BINA
370
     0
100
AcDbLine
 10
539905.7173
 20
4478151.6551
 30
1472.680908203125
 11
539902.6283
 21
4478151.0691
 31
1465.431518554688
  0
LINE
  5
1283
330
1F
100
AcDbEntity
  8
BINA
370
     0
100
AcDbLine
 10
539922.9513
 20
4478156.3955
 30
1467.197265625
 11
539924.3722
 21
4478152.1734
 31
1467.410034179688
  0
LINE
  5
128B
330
1F
100
AcDbEntity
  8
BINA
370
     0
100
AcDbLine
 10
539918.4376000001
 20
4478155.0181
 30
1461.417236328125
 11
539922.9513
 21
4478156.3955
 31
1467.197265625
  0
LINE
  5
128C
330
1F
100
AcDbEntity
  8
BINA
370
     0
100
AcDbLine
 10
539915.4665
 20
4478149.261
 30
1467.119262695312
 11
539924.3722
 21
4478152.1734
 31
1467.410034179688
  0
LINE
  5
128D
330
1F
100
AcDbEntity
  8
BINA
370
     0
100
AcDbLine
 10
539917.0131
 20
4478159.6618
 30
1466.398559570312
 11
539927.6429
 21
4478163.1515
 31
1467.062744140625
  0
LINE
  5
128E
330
1F
100
AcDbEntity
  8
BINA
370
     0
100
AcDbLine
 10
539927.6429
 20
4478163.1515
 30
1467.062744140625
 11
539928.8824
 21
4478158.5192
 31
1467.156494140625
  0
LINE
  5
128F
330
1F
100
AcDbEntity
  8
BINA
370
     0
100
AcDbLine
 10
539928.8824
 20
4478158.5192
 30
1467.156494140625
 11
539918.4376000001
 21
4478155.0181
 31
1461.417236328125
  0
LINE
  5
1290
330
1F
100
AcDbEntity
  8
BINA
370
     0
100
AcDbLine
 10
539918.4376000001
 20
4478155.0181
 30
1461.417236328125
 11
539917.0131
 21
4478159.6618
 31
1466.398559570312
  0
TEXT
  5
1291
330
1F
100
AcDbEntity
  8
text
370
     0
100
AcDbText
 10
539915.2449229168
 20
4478151.524225031
 30
1472.680908203125
 40
2.0
  1
kantar
  7
STYLE2
100
AcDbText
  0
TEXT
  5
1292
330
1F
100
AcDbEntity
  8
text
370
     0
100
AcDbText
 10
539911.8794201711
 20
4478164.184591757
 30
1472.680908203125
 40
2.0
  1
mazot deposu
  7
STYLE2
100
AcDbText
  0
LINE
  5
1514
330
1F
100
AcDbEntity
  8
YOL
370
     0
100
AcDbLine
 10
539811.6164
 20
4478106.1118
 30
1480.278442382812
 11
539818.3033
 21
4478104.2012
 31
1480.279907226562
  0
LINE
  5
1515
330
1F
100
AcDbEntity
  8
YOL
370
     0
100
AcDbLine
 10
539818.3033
 20
4478104.2012
 30
1480.279907226562
 11
539828.2206
 21
4478107.8135
 31
1479.505981445312
  0
LINE
  5
1516
330
1F
100
AcDbEntity
  8
YOL
370
     0
100
AcDbLine
 10
539828.2206
 20
4478107.8135
 30
1479.505981445312
 11
539837.2819
 21
4478112.3659
 31
1478.341796875
  0
LINE
  5
1517
330
1F
100
AcDbEntity
  8
YOL
370
     0
100
AcDbLine
 10
539837.2819
 20
4478112.3659
 30
1478.341796875
 11
539842.6017
 21
4478113.7998
 31
1477.880859375
  0
LINE
  5
1518
330
1F
100
AcDbEntity
  8
YOL
370
     0
100
AcDbLine
 10
539842.6017
 20
4478113.7998
 30
1477.880859375
 11
539864.413
 21
4478111.8802
 31
1477.563598632812
  0
LINE
  5
1519
330
1F
100
AcDbEntity
  8
YOL
370
     0
100
AcDbLine
 10
539864.413
 20
4478111.8802
 30
1477.563598632812
 11
539875.5041
 21
4478107.5924
 31
1477.60302734375
  0
LINE
  5
151A
330
1F
100
AcDbEntity
  8
YOL
370
     0
100
AcDbLine
 10
539875.5041
 20
4478107.5924
 30
1477.60302734375
 11
539881.9947
 21
4478105.1041
 31
1477.5126953125
  0
LINE
  5
151B
330
1F
100
AcDbEntity
  8
YOL
370
     0
100
AcDbLine
 10
539881.9947
 20
4478105.1041
 30
1477.5126953125
 11
539888.2911
 21
4478102.3744
 31
1477.451049804688
  0
LINE
  5
151C
330
1F
100
AcDbEntity
  8
YOL
370
     0
100
AcDbLine
 10
539888.2911
 20
4478102.3744
 30
1477.451049804688
 11
539893.4552
 21
4478100.3482
 31
1477.4580078125
  0
LINE
  5
151D
330
1F
100
AcDbEntity
  8
YOL
370
     0
100
AcDbLine
 10
539893.4552
 20
4478100.3482
 30
1477.4580078125
 11
539900.8134
 21
4478098.1912
 31
1477.503662109375
  0
LINE
  5
151E
330
1F
100
AcDbEntity
  8
YOL
370
     0
100
AcDbLine
 10
539900.8134
 20
4478098.1912
 30
1477.503662109375
 11
539907.7495
 21
4478099.5578
 31
1477.705444335938
  0
LINE
  5
151F
330
1F
100
AcDbEntity
  8
YOL
370
     0
100
AcDbLine
 10
539907.7495
 20
4478099.5578
 30
1477.705444335938
 11
539910.9182
 21
4478101.6027
 31
1477.823364257812
  0
LINE
  5
1520
330
1F
100
AcDbEntity
  8
YOL
370
     0
100
AcDbLine
 10
539910.9182
 20
4478101.6027
 30
1477.823364257812
 11
539914.4231
 21
4478105.4485
 31
1477.96484375
  0
LINE
  5
1521
330
1F
100
AcDbEntity
  8
YOL
370
     0
100
AcDbLine
 10
539914.4231
 20
4478105.4485
 30
1477.96484375
 11
539919.322
 21
4478112.9889
 31
1478.243408203125
  0
LINE
  5
1522
330
1F
100
AcDbEntity
  8
YOL
370
     0
100
AcDbLine
 10
539919.322
 20
4478112.9889
 30
1478.243408203125
 11
539925.4434
 21
4478119.5064
 31
1478.489624023438
  0
LINE
  5
1523
330
1F
100
AcDbEntity
  8
YOL
370
     0
100
AcDbLine
 10
539925.4434
 20
4478119.5064
 30
1478.489624023438
 11
539930.1333
 21
4478122.2167
 31
1478.517333984375
  0
LINE
  5
1524
330
1F
100
AcDbEntity
  8
YOL
370
     0
100
AcDbLine
 10
539924.65
 20
4478112.7381
 30
1478.373046875
 11
539922.3296
 21
4478108.954
 31
1478.319458007812
  0
LINE
  5
1525
330
1F
100
AcDbEntity
  8
YOL
370
     0
100
AcDbLine
 10
539922.3296
 20
4478108.954
 30
1478.319458007812
 11
539918.7888
 21
4478102.6703
 31
1478.024536132812
  0
LINE
  5
1526
330
1F
100
AcDbEntity
  8
YOL
370
     0
100
AcDbLine
 10
539918.7888
 20
4478102.6703
 30
1478.024536132812
 11
539916.7875
 21
4478098.3515
 31
1478.066040039062
  0
LINE
  5
1527
330
1F
100
AcDbEntity
  8
YOL
370
     0
100
AcDbLine
 10
539916.7875
 20
4478098.3515
 30
1478.066040039062
 11
539914.032
 21
4478096.2158
 31
1478.003051757812
  0
LINE
  5
1528
330
1F
100
AcDbEntity
  8
YOL
370
     0
100
AcDbLine
 10
539914.032
 20
4478096.2158
 30
1478.003051757812
 11
539896.7447
 21
4478093.7214
 31
1477.655151367188
  0
LINE
  5
1529
330
1F
100
AcDbEntity
  8
YOL
370
     0
100
AcDbLine
 10
539896.7447
 20
4478093.7214
 30
1477.655151367188
 11
539891.1451
 21
4478096.4482
 31
1477.423706054688
  0
LINE
  5
152A
330
1F
100
AcDbEntity
  8
YOL
370
     0
100
AcDbLine
 10
539891.1451
 20
4478096.4482
 30
1477.423706054688
 11
539883.1605
 21
4478099.5406
 31
1477.576782226562
  0
LINE
  5
152B
330
1F
100
AcDbEntity
  8
YOL
370
     0
100
AcDbLine
 10
539883.1605
 20
4478099.5406
 30
1477.576782226562
 11
539879.0095
 21
4478101.4207
 31
1477.561645507812
  0
LINE
  5
152C
330
1F
100
AcDbEntity
  8
YOL
370
     0
100
AcDbLine
 10
539879.0095
 20
4478101.4207
 30
1477.561645507812
 11
539874.5908
 21
4478103.6644
 31
1477.569458007812
  0
LINE
  5
152D
330
1F
100
AcDbEntity
  8
YOL
370
     0
100
AcDbLine
 10
539874.5908
 20
4478103.6644
 30
1477.569458007812
 11
539870.642
 21
4478105.6683
 31
1477.611328125
  0
LINE
  5
152E
330
1F
100
AcDbEntity
  8
YOL
370
     0
100
AcDbLine
 10
539870.642
 20
4478105.6683
 30
1477.611328125
 11
539859.1682
 21
4478108.7619
 31
1477.473388671875
  0
LINE
  5
152F
330
1F
100
AcDbEntity
  8
YOL
370
     0
100
AcDbLine
 10
539859.1682
 20
4478108.7619
 30
1477.473388671875
 11
539851.5877
 21
4478109.9643
 31
1477.52001953125
  0
LINE
  5
1530
330
1F
100
AcDbEntity
  8
YOL
370
     0
100
AcDbLine
 10
539851.5877
 20
4478109.9643
 30
1477.52001953125
 11
539843.9907
 21
4478109.2567
 31
1477.778564453125
  0
LINE
  5
1531
330
1F
100
AcDbEntity
  8
YOL
370
     0
100
AcDbLine
 10
539843.9907
 20
4478109.2567
 30
1477.778564453125
 11
539839.4316
 21
4478107.5976
 31
1478.097045898438
  0
LINE
  5
1532
330
1F
100
AcDbEntity
  8
YOL
370
     0
100
AcDbLine
 10
539839.4316
 20
4478107.5976
 30
1478.097045898438
 11
539830.4916
 21
4478104.1527
 31
1479.291015625
  0
LINE
  5
1533
330
1F
100
AcDbEntity
  8
YOL
370
     0
100
AcDbLine
 10
539830.4916
 20
4478104.1527
 30
1479.291015625
 11
539819.6845
 21
4478099.9576
 31
1480.4150390625
  0
LINE
  5
1534
330
1F
100
AcDbEntity
  8
YOL
370
     0
100
AcDbLine
 10
539819.6845
 20
4478099.9576
 30
1480.4150390625
 11
539809.2109
 21
4478100.2275
 31
1480.565551757812
  0
LINE
  5
1535
330
1F
100
AcDbEntity
  8
YOL
370
     0
100
AcDbLine
 10
539809.2109
 20
4478100.2275
 30
1480.565551757812
 11
539801.1839
 21
4478097.4501
 31
1480.503784179688
  0
LINE
  5
1536
330
1F
100
AcDbEntity
  8
YOL
370
     0
100
AcDbLine
 10
539801.1839
 20
4478097.4501
 30
1480.503784179688
 11
539767.7077
 21
4478107.1523
 31
1479.369750976562
  0
LINE
  5
1537
330
1F
100
AcDbEntity
  8
YOL
370
     0
100
AcDbLine
 10
539811.6164
 20
4478106.1118
 30
1480.278442382812
 11
539796.8982
 21
4478109.1997
 31
1480.44580078125
  0
LINE
  5
1538
330
1F
100
AcDbEntity
  8
YOL
370
     0
100
AcDbLine
 10
539796.8982
 20
4478109.1997
 30
1480.44580078125
 11
539779.3225
 21
4478113.8549
 31
1479.294555664062
  0
LINE
  5
1539
330
1F
100
AcDbEntity
  8
YOL
370
     0
100
AcDbLine
 10
539779.3225
 20
4478113.8549
 30
1479.294555664062
 11
539766.5847624058
 21
4478120.738348336
 31
1477.77978515625
  0
LINE
  5
153A
330
1F
100
AcDbEntity
  8
YOL
370
     0
100
AcDbLine
 10
539767.7077
 20
4478107.1523
 30
1479.369750976562
 11
539758.3855624101
 21
4478111.599248333
 31
1479.057861328125
  0
LINE
  5
153B
330
1F
100
AcDbEntity
  8
YOL
370
     0
100
AcDbLine
 10
539758.3855624101
 20
4478111.599248333
 30
1479.057861328125
 11
539761.2286624095
 21
4478121.546748337
 31
1477.509155273438
  0
TEXT
  5
153C
330
1F
100
AcDbEntity
  8
text
370
     0
100
AcDbText
 10
539784.7614630798
 20
4478105.550107675
 30
1472.680908203125
 40
2.5
  1
yol
 50
0.0718636079811892
  7
STYLE2
100
AcDbText
  0
TEXT
  5
153D
330
1F
100
AcDbEntity
  8
text
370
     0
100
AcDbText
 10
539839.3782247201
 20
4478110.043324919
 30
1472.680908203125
 40
2.5
  1
yol
 50
0.0718636079811892
  7
STYLE2
100
AcDbText
  0
TEXT
  5
153E
330
1F
100
AcDbEntity
  8
text
370
     0
100
AcDbText
 10
539903.4571687325
 20
4478096.174208584
 30
1472.680908203125
 40
2.5
  1
yol
 50
0.0718636079811892
  7
STYLE2
100
AcDbText
  0
TEXT
  5
153F
330
1F
100
AcDbEntity
  8
text
370
     0
100
AcDbText
 10
539942.068954918
 20
4478127.97299626
 30
1472.680908203125
 40
2.5
  1
yol
 50
45.62100205157664
  7
STYLE2
100
AcDbText
  0
LINE
  5
15EE
330
1F
100
AcDbEntity
  8
BINA
370
     0
100
AcDbLine
 10
539934.4676
 20
4478159.9596
 30
1468.586791992188
 11
539948.1849
 21
4478160.6305
 31
1469.2607421875
  0
LINE
  5
15EF
330
1F
100
AcDbEntity
  8
BINA
370
     0
100
AcDbLine
 10
539948.1849
 20
4478160.6305
 30
1469.2607421875
 11
539948.1054
 21
4478162.2273
 31
1469.948852539062
  0
LINE
  5
15F0
330
1F
100
AcDbEntity
  8
BINA
370
     0
100
AcDbLine
 10
539948.1054
 20
4478162.2273
 30
1469.948852539062
 11
539948.0832
 21
4478174.0378
 31
1469.24462890625
  0
LINE
  5
15F1
330
1F
100
AcDbEntity
  8
BINA
370
     0
100
AcDbLine
 10
539976.254
 20
4478162.2474
 30
1471.010498046875
 11
539948.1054
 21
4478162.2273
 31
1469.948852539062
  0
LINE
  5
15F2
330
1F
100
AcDbEntity
  8
BINA
370
     0
100
AcDbLine
 10
539976.254
 20
4478162.2474
 30
1471.010498046875
 11
539976.4768
 21
4478174.1419
 31
1470.495483398438
  0
LINE
  5
15F3
330
1F
100
AcDbEntity
  8
BINA
370
     0
100
AcDbLine
 10
539934.4676
 20
4478159.9596
 30
1468.586791992188
 11
539934.8844
 21
4478172.2784
 31
1468.014282226562
  0
LINE
  5
15F4
330
1F
100
AcDbEntity
  8
BINA
370
     0
100
AcDbLine
 10
539934.8844
 20
4478172.2784
 30
1468.014282226562
 11
539948.0832
 21
4478174.0378
 31
1469.24462890625
  0
TEXT
  5
15F5
330
1F
100
AcDbEntity
  8
text
370
     0
100
AcDbText
 10
539954.5494452621
 20
4478168.444642801
 30
1472.680908203125
 40
2.0
  1
kademe
  7
STYLE2
100
AcDbText
  0
LINE
  5
1613
330
1F
100
AcDbEntity
  8
YOL
370
     0
100
AcDbLine
 10
539930.1333
 20
4478122.2167
 30
1478.517333984375
 11
539940.6995
 21
4478132.7348
 31
1477.508056640625
  0
LINE
  5
1614
330
1F
100
AcDbEntity
  8
YOL
370
     0
100
AcDbLine
 10
539940.6995
 20
4478132.7348
 30
1477.508056640625
 11
539947.2236
 21
4478136.7006
 31
1476.4892578125
  0
LINE
  5
1615
330
1F
100
AcDbEntity
  8
YOL
370
     0
100
AcDbLine
 10
539947.2236
 20
4478136.7006
 30
1476.4892578125
 11
539944.0458
 21
4478142.2426
 31
1475.702270507812
  0
LINE
  5
1616
330
1F
100
AcDbEntity
  8
YOL
370
     0
100
AcDbLine
 10
539944.0458
 20
4478142.2426
 30
1475.702270507812
 11
539948.314
 21
4478146.1918
 31
1475.287353515625
  0
LINE
  5
1617
330
1F
100
AcDbEntity
  8
YOL
370
     0
100
AcDbLine
 10
539948.314
 20
4478146.1918
 30
1475.287353515625
 11
539952.9577
 21
4478148.3826
 31
1474.379150390625
  0
LINE
  5
1618
330
1F
100
AcDbEntity
  8
YOL
370
     0
100
AcDbLine
 10
539952.9577
 20
4478148.3826
 30
1474.379150390625
 11
539968.6378
 21
4478152.3085
 31
1471.96728515625
  0
LINE
  5
1619
330
1F
100
AcDbEntity
  8
YOL
370
     0
100
AcDbLine
 10
539968.6378
 20
4478152.3085
 30
1471.96728515625
 11
539975.1754772648
 21
4478153.881956727
 31
1466.322265625
  0
LINE
  5
161A
330
1F
100
AcDbEntity
  8
YOL
370
     0
100
AcDbLine
 10
539924.65
 20
4478112.7381
 30
1478.373046875
 11
539938.9667
 21
4478123.4164
 31
1478.24560546875
  0
LINE
  5
161B
330
1F
100
AcDbEntity
  8
YOL
370
     0
100
AcDbLine
 10
539938.9667
 20
4478123.4164
 30
1478.24560546875
 11
539950.4150956082
 21
4478133.041011067
 31
1469.777465820312
  0
LINE
  5
161C
330
1F
100
AcDbEntity
  8
YOL
370
     0
100
AcDbLine
 10
539950.4150956082
 20
4478133.041011067
 30
1469.777465820312
 11
539951.1999959424
 21
4478136.275782196
 31
1469.157592773438
  0
LINE
  5
161D
330
1F
100
AcDbEntity
  8
YOL
370
     0
100
AcDbLine
 10
539951.1999959424
 20
4478136.275782196
 30
1469.157592773438
 11
539951.8924
 21
4478142.9189
 31
1474.864379882812
  0
LINE
  5
161E
330
1F
100
AcDbEntity
  8
YOL
370
     0
100
AcDbLine
 10
539951.8924
 20
4478142.9189
 30
1474.864379882812
 11
539962.3562
 21
4478147.346
 31
1472.902465820312
  0
LINE
  5
161F
330
1F
100
AcDbEntity
  8
YOL
370
     0
100
AcDbLine
 10
539962.3562
 20
4478147.346
 30
1472.902465820312
 11
539967.2914
 21
4478148.0787
 31
1472.270385742188
  0
LINE
  5
1620
330
1F
100
AcDbEntity
  8
YOL
370
     0
100
AcDbLine
 10
539967.2914
 20
4478148.0787
 30
1472.270385742188
 11
539973.5768
 21
4478149.3531
 31
1471.850952148438
  0
LINE
  5
1621
330
1F
100
AcDbEntity
  8
BINA
370
     0
100
AcDbLine
 10
539995.0049
 20
4478143.3445
 30
1472.265014648438
 11
540018.1422
 21
4478152.4737
 31
1471.900024414062
  0
LINE
  5
1622
330
1F
100
AcDbEntity
  8
BINA
370
     0
100
AcDbLine
 10
540041.2836
 20
4478163.684
 30
1472.630615234375
 11
540024.8655
 21
4478157.2093
 31
1472.627075195312
  0
LINE
  5
1623
330
1F
100
AcDbEntity
  8
BINA
370
     0
100
AcDbLine
 10
540024.8655
 20
4478157.2093
 30
1472.627075195312
 11
540028.0562
 21
4478148.7455
 31
1472.650756835938
  0
TEXT
  5
1698
330
1F
100
AcDbEntity
  8
text
370
     0
100
AcDbText
 10
540030.0106518434
 20
4478146.520121678
 30
1472.680908203125
 40
2.5
  1
yemekhane
 50
21.81980257724548
  7
STYLE2
100
AcDbText
  0
TEXT
  5
1699
330
1F
100
AcDbEntity
  8
text
370
     0
100
AcDbText
 10
540000.6742565953
 20
4478141.184805584
 30
1472.680908203125
 40
2.5
  1
idari bina
 50
21.11872464007869
  7
STYLE2
100
AcDbText
  0
POINT
  5
169A
330
1F
100
AcDbEntity
  8
BINA
370
     0
100
AcDbPoint
 10
539991.766432053
 20
4478147.21965468
 30
1468.085083007812
  0
POINT
  5
169B
330
1F
100
AcDbEntity
  8
BINA
370
     0
100
AcDbPoint
 10
540007.3823
 20
4478153.6366
 30
1471.993041992188
  0
LINE
  5
169C
330
1F
100
AcDbEntity
  8
BINA
370
     0
100
AcDbLine
 10
539991.766432053
 20
4478147.21965468
 30
1472.680908203125
 11
539993.6163348882
 21
4478147.979825385
 31
1472.680908203125
  0
LINE
  5
169D
330
1F
100
AcDbEntity
  8
BINA
370
     0
100
AcDbLine
 10
539994.5412863058
 20
4478148.359910737
 30
1472.680908203125
 11
539996.391189141
 21
4478149.120081441
 31
1472.680908203125
  0
LINE
  5
169E
330
1F
100
AcDbEntity
  8
BINA
370
     0
100
AcDbLine
 10
539997.3161405586
 20
4478149.500166793
 30
1472.680908203125
 11
539999.1660433939
 21
4478150.260337498
 31
1472.680908203125
  0
LINE
  5
169F
330
1F
100
AcDbEntity
  8
BINA
370
     0
100
AcDbLine
 10
540000.0909948115
 20
4478150.640422851
 30
1472.680908203125
 11
540001.9408976467
 21
4478151.400593556
 31
1472.680908203125
  0
LINE
  5
16A0
330
1F
100
AcDbEntity
  8
BINA
370
     0
100
AcDbLine
 10
540002.8658490643
 20
4478151.780678907
 30
1472.680908203125
 11
540004.7157518996
 21
4478152.540849612
 31
1472.680908203125
  0
LINE
  5
16A1
330
1F
100
AcDbEntity
  8
BINA
370
     0
100
AcDbLine
 10
540005.6407033172
 20
4478152.920934965
 30
1472.680908203125
 11
540007.3823
 21
4478153.6366
 31
1472.680908203125
  0
POINT
  5
16A2
330
1F
100
AcDbEntity
  8
BINA
370
     0
100
AcDbPoint
 10
540007.3823
 20
4478153.6366
 30
1471.993041992188
  0
POINT
  5
16A3
330
1F
100
AcDbEntity
  8
BINA
370
     0
100
AcDbPoint
 10
540017.0929
 20
4478157.43
 30
1471.850219726562
  0
LINE
  5
16A4
330
1F
100
AcDbEntity
  8
BINA
370
     0
100
AcDbLine
 10
540007.3823
 20
4478153.6366
 30
1472.680908203125
 11
540009.2452018984
 21
4478154.364333822
 31
1472.680908203125
  0
LINE
  5
16A5
330
1F
100
AcDbEntity
  8
BINA
370
     0
100
AcDbLine
 10
540010.1766528476
 20
4478154.728200734
 30
1472.680908203125
 11
540012.0395547459
 21
4478155.455934557
 31
1472.680908203125
  0
LINE
  5
16A6
330
1F
100
AcDbEntity
  8
BINA
370
     0
100
AcDbLine
 10
540012.971005695
 20
4478155.819801468
 30
1472.680908203125
 11
540014.8339075935
 21
4478156.547535292
 31
1472.680908203125
  0
LINE
  5
16A7
330
1F
100
AcDbEntity
  8
BINA
370
     0
100
AcDbLine
 10
540015.7653585427
 20
4478156.911402203
 30
1472.680908203125
 11
540017.0929
 21
4478157.43
 31
1472.680908203125
  0
POINT
  5
16A8
330
1F
100
AcDbEntity
  8
BINA
370
     0
100
AcDbPoint
 10
540017.0929
 20
4478157.43
 30
1471.850219726562
  0
LINE
  5
16AA
330
1F
100
AcDbEntity
  8
BINA
370
     0
100
AcDbLine
 10
540017.0929
 20
4478157.43
 30
1472.680908203125
 11
540018.0089801477
 21
4478155.652136911
 31
1472.680908203125
  0
LINE
  5
16AB
330
1F
100
AcDbEntity
  8
BINA
370
     0
100
AcDbLine
 10
540018.4670202214
 20
4478154.763205366
 30
1472.680908203125
 11
540019.1951
 21
4478153.3502
 31
1472.680908203125
  0
POINT
  5
16AC
330
1F
100
AcDbEntity
  8
BINA
370
     0
100
AcDbPoint
 10
539993.1464
 20
4478144.4393
 30
1472.181396484375
  0
POINT
  5
16AD
330
1F
100
AcDbEntity
  8
BINA
370
     0
100
AcDbPoint
 10
539991.766432052
 20
4478147.21965468
 30
1469.3662109375
  0
LINE
  5
16AE
330
1F
100
AcDbEntity
  8
BINA
370
     0
100
AcDbLine
 10
539993.1464
 20
4478144.4393
 30
1472.680908203125
 11
539992.257239289
 21
4478146.230777945
 31
1472.680908203125
  0
LINE
  5
16AF
330
1F
100
AcDbEntity
  8
BINA
370
     0
100
AcDbLine
 10
539991.8126589335
 20
4478147.126516919
 30
1472.680908203125
 11
539991.766432052
 21
4478147.21965468
 31
1472.680908203125
  0
LINE
  5
16C6
330
1F
100
AcDbEntity
  8
ISTINAT_DUVAR
370
     0
100
AcDbLine
 10
539893.2571
 20
4478167.7156
 30
1472.680908203125
 11
539886.3357
 21
4478166.8198
 31
1472.680908203125
  0
LINE
  5
16C7
330
1F
100
AcDbEntity
  8
ISTINAT_DUVAR
370
     0
100
AcDbLine
 10
539886.3357
 20
4478166.8198
 30
1472.680908203125
 11
539885.9416528103
 21
4478169.864406183
 31
1472.680908203125
  0
LINE
  5
16C8
330
1F
100
AcDbEntity
  8
ISTINAT_DUVAR
370
     0
100
AcDbLine
 10
539885.9416528103
 20
4478169.864406183
 30
1472.680908203125
 11
539892.8630528103
 21
4478170.760206183
 31
1472.680908203125
  0
LINE
  5
16C9
330
1F
100
AcDbEntity
  8
ISTINAT_DUVAR
370
     0
100
AcDbLine
 10
539892.8630528103
 20
4478170.760206183
 30
1472.680908203125
 11
539893.2571
 21
4478167.7156
 31
1472.680908203125
  0
LINE
  5
17E1
330
1F
100
AcDbEntity
  8
BINA
370
     0
100
AcDbLine
 10
539999.0174
 20
4478133.4038
 30
1472.389526367188
 11
540022.0611
 21
4478142.6307
 31
1472.680908203125
  0
LINE
  5
17E2
330
1F
100
AcDbEntity
  8
BINA
370
     0
100
AcDbLine
 10
539999.0174
 20
4478133.4038
 30
1472.389526367188
 11
539995.0049
 21
4478143.3445
 31
1472.265014648438
  0
LINE
  5
17E3
330
1F
100
AcDbEntity
  8
BINA
370
     0
100
AcDbLine
 10
540022.0611
 20
4478142.6307
 30
1472.680908203125
 11
540018.1422
 21
4478152.4737
 31
1471.900024414062
  0
LINE
  5
17E8
330
1F
100
AcDbEntity
  8
BINA
370
     0
100
AcDbLine
 10
540029.5424
 20
4478149.2349
 30
1472.819702148438
 11
540044.6615
 21
4478155.2178
 31
1472.8955078125
  0
LINE
  5
17E9
330
1F
100
AcDbEntity
  8
BINA
370
     0
100
AcDbLine
 10
540044.6615
 20
4478155.2178
 30
1472.8955078125
 11
540041.2836
 21
4478163.684
 31
1472.630615234375
  0
LINE
  5
17F5
330
1F
100
AcDbEntity
  8
BINA
370
     0
100
AcDbLine
 10
539991.654
 20
4478140.8708
 30
1472.680908203125
 11
539968.0719
 21
4478131.4386
 31
1472.680908203125
  0
LINE
  5
17F6
330
1F
100
AcDbEntity
  8
BINA
370
     0
100
AcDbLine
 10
539968.0719
 20
4478131.4386
 30
1472.680908203125
 11
539971.4841
 21
4478123.0007
 31
1472.680908203125
  0
LINE
  5
17F7
330
1F
100
AcDbEntity
  8
BINA
370
     0
100
AcDbLine
 10
539971.4841
 20
4478123.0007
 30
1472.680908203125
 11
539995.0662
 21
4478132.432899999
 31
1472.680908203125
  0
LINE
  5
17F8
330
1F
100
AcDbEntity
  8
BINA
370
     0
100
AcDbLine
 10
539995.0662
 20
4478132.432899999
 30
1472.680908203125
 11
539991.654
 21
4478140.8708
 31
1472.680908203125
  0
TEXT
  5
186C
330
1F
100
AcDbEntity
  8
text
370
     0
100
AcDbText
 10
539968.2000016589
 20
4478134.807672947
 30
1472.680908203125
 40
2.5
  1
misafirhane
 50
21.70227721974437
  7
STYLE2
100
AcDbText
  0
LINE
  5
1916
330
1F
100
AcDbEntity
  8
YOL
370
     0
100
AcDbLine
 10
540087.0506288391
 20
4478221.048094079
 30
1471.151000976562
 11
540076.6556932974
 21
4478201.009749724
 31
1470.234985351562
  0
LINE
  5
1917
330
1F
100
AcDbEntity
  8
YOL
370
     0
100
AcDbLine
 10
540076.6556932974
 20
4478201.009749724
 30
1470.234985351562
 11
540072.2853962138
 21
4478194.193350878
 31
1470.208984375
  0
LINE
  5
1918
330
1F
100
AcDbEntity
  8
YOL
370
     0
100
AcDbLine
 10
540072.2853962138
 20
4478194.193350878
 30
1470.208984375
 11
540068.5166899997
 21
4478190.807343702
 31
1470.234985351562
  0
LINE
  5
1919
330
1F
100
AcDbEntity
  8
YOL
370
     0
100
AcDbLine
 10
540073.3520149604
 20
4478186.468320795
 30
1470.337036132812
 11
540076.2069008095
 21
4478191.392440633
 31
1470.370971679688
  0
LINE
  5
191A
330
1F
100
AcDbEntity
  8
YOL
370
     0
100
AcDbLine
 10
540076.2069008095
 20
4478191.392440633
 30
1470.370971679688
 11
540084.7145923715
 21
4478202.847073781
 31
1470.360961914062
  0
LINE
  5
191E
330
1F
100
AcDbEntity
  8
YOL
370
     0
100
AcDbLine
 10
540065.6140604789
 20
4478166.101112431
 30
1470.483032226562
 11
540078.8109413824
 21
4478180.356687327
 31
1470.8330078125
  0
LINE
  5
191F
330
1F
100
AcDbEntity
  8
YOL
370
     0
100
AcDbLine
 10
540078.8109413824
 20
4478180.356687327
 30
1470.8330078125
 11
540074.2506769927
 21
4478184.536065969
 31
1470.29296875
  0
LINE
  5
1920
330
1F
100
AcDbEntity
  8
YOL
370
     0
100
AcDbLine
 10
540074.2506769927
 20
4478184.536065969
 30
1470.29296875
 11
540073.3520149604
 21
4478186.468320795
 31
1470.337036132812
  0
LINE
  5
1921
330
1F
100
AcDbEntity
  8
YOL
370
     0
100
AcDbLine
 10
540062.7833
 20
4478164.3406
 30
1473.564819335938
 11
540065.6140604789
 21
4478166.101112431
 31
1470.483032226562
  0
LINE
  5
1922
330
1F
100
AcDbEntity
  8
YOL
370
     0
100
AcDbLine
 10
540052.3571086113
 20
4478177.536673248
 30
1470.597045898438
 11
540057.1492538027
 21
4478181.600130626
 31
1470.302001953125
  0
LINE
  5
1923
330
1F
100
AcDbEntity
  8
YOL
370
     0
100
AcDbLine
 10
540057.1492538027
 20
4478181.600130626
 30
1470.302001953125
 11
540068.5166899997
 21
4478190.807343702
 31
1470.234985351562
  0
LINE
  5
1924
330
1F
100
AcDbEntity
  8
YOL
370
     0
100
AcDbLine
 10
540052.3571086113
 20
4478177.536673248
 30
1470.597045898438
 11
540043.8073766507
 21
4478181.530108679
 31
1470.823974609375
  0
TEXT
  5
1976
330
1F
100
AcDbEntity
  8
text
370
     0
100
AcDbText
 10
540061.9073210118
 20
4478165.434286904
 30
1472.680908203125
 40
2.5
  1
park yeri
 50
44.59651465720975
  7
STYLE2
100
AcDbText
  0
LINE
  5
204A
330
1F
100
AcDbEntity
  8
BINA
370
     0
100
AcDbLine
 10
539787.9711664296
 20
4478175.379548085
 30
1464.784790039062
 11
539799.131070201
 21
4478172.100114022
 31
1463.818359375
  0
LINE
  5
204B
330
1F
100
AcDbEntity
  8
BINA
370
     0
100
AcDbLine
 10
539799.131070201
 20
4478172.100114022
 30
1463.818359375
 11
539818.2309286841
 21
4478168.918959529
 31
1462.65380859375
  0
LINE
  5
204C
330
1F
100
AcDbEntity
  8
BINA
370
     0
100
AcDbLine
 10
539818.2309286841
 20
4478168.918959529
 30
1462.65380859375
 11
539829.6365313801
 21
4478136.797058059
 31
1467.396850585938
  0
LINE
  5
204D
330
1F
100
AcDbEntity
  8
BINA
370
     0
100
AcDbLine
 10
539829.6365313801
 20
4478136.797058059
 30
1467.396850585938
 11
539811.0151392233
 21
4478103.976854382
 31
1474.8408203125
  0
LINE
  5
204E
330
1F
100
AcDbEntity
  8
BINA
370
     0
100
AcDbLine
 10
539811.0151392233
 20
4478103.976854382
 30
1474.8408203125
 11
539767.7204024589
 21
4478111.890946049
 31
1476.964477539062
  0
LINE
  5
204F
330
1F
100
AcDbEntity
  8
BINA
370
     0
100
AcDbLine
 10
539767.7204024589
 20
4478111.890946049
 30
1476.964477539062
 11
539766.7893328511
 21
4478137.495360265
 31
1474.066650390625
  0
LINE
  5
2050
330
1F
100
AcDbEntity
  8
BINA
370
     0
100
AcDbLine
 10
539766.7893328511
 20
4478137.495360265
 30
1474.066650390625
 11
539787.9711664296
 21
4478175.379548085
 31
1464.784790039062
  0
LINE
  5
2051
330
1F
100
AcDbEntity
  8
BINA
370
     0
100
AcDbLine
 10
539818.2309286841
 20
4478168.918959529
 30
1462.65380859375
 11
539853.0300750746
 21
4478167.114335801
 31
1460.798706054688
  0
LINE
  5
2052
330
1F
100
AcDbEntity
  8
BINA
370
     0
100
AcDbLine
 10
539853.0300750746
 20
4478167.114335801
 30
1460.798706054688
 11
539878.6127928315
 21
4478167.547941187
 31
1460.708984375
  0
LINE
  5
2053
330
1F
100
AcDbEntity
  8
BINA
370
     0
100
AcDbLine
 10
539878.6127928315
 20
4478167.547941187
 30
1460.708984375
 11
539886.4176897743
 21
4478159.092636166
 31
1462.046142578125
  0
LINE
  5
2054
330
1F
100
AcDbEntity
  8
BINA
370
     0
100
AcDbLine
 10
539886.4176897743
 20
4478159.092636166
 30
1462.046142578125
 11
539881.2144251458
 21
4478140.230801888
 31
1465.321533203125
  0
LINE
  5
2055
330
1F
100
AcDbEntity
  8
BINA
370
     0
100
AcDbLine
 10
539881.2144251458
 20
4478140.230801888
 30
1465.321533203125
 11
539868.2062635745
 21
4478135.89474803
 31
1466.41650390625
  0
LINE
  5
2056
330
1F
100
AcDbEntity
  8
BINA
370
     0
100
AcDbLine
 10
539868.2062635745
 20
4478135.89474803
 30
1466.41650390625
 11
539858.450142396
 21
4478132.85951033
 31
1467.182373046875
  0
LINE
  5
2057
330
1F
100
AcDbEntity
  8
BINA
370
     0
100
AcDbLine
 10
539858.450142396
 20
4478132.85951033
 30
1467.182373046875
 11
539829.6365313801
 21
4478136.797058059
 31
1467.396850585938
  0
LINE
  5
207A
330
1F
100
AcDbEntity
  8
BINA
370
     0
100
AcDbLine
 10
539999.0174
 20
4478133.4038
 30
1472.680908203125
 11
539999.0174
 21
4478133.4038
 31
1472.680908203125
  0
LINE
  5
207B
330
1F
100
AcDbEntity
  8
BINA
370
     0
100
AcDbLine
 10
539999.0174
 20
4478133.4038
 30
1472.680908203125
 11
539999.0174
 21
4478133.4038
 31
1472.680908203125
  0
LINE
  5
20B8
330
1F
100
AcDbEntity
  8
BINA
370
     0
100
AcDbLine
 10
540044.6615
 20
4478155.2178
 30
1472.680908203125
 11
540044.6615
 21
4478155.2178
 31
1472.680908203125
  0
LINE
  5
20B9
330
1F
100
AcDbEntity
  8
BINA
370
     0
100
AcDbLine
 10
540044.6615
 20
4478155.2178
 30
1472.680908203125
 11
540044.6615
 21
4478155.2178
 31
1472.680908203125
  0
LINE
  5
20D2
330
1F
100
AcDbEntity
  8
BINA
370
     0
100
AcDbLine
 10
539934.4676
 20
4478159.9596
 30
1472.680908203125
 11
539934.4676
 21
4478159.9596
 31
1472.680908203125
  0
LINE
  5
20D3
330
1F
100
AcDbEntity
  8
BINA
370
     0
100
AcDbLine
 10
539934.4676
 20
4478159.9596
 30
1472.680908203125
 11
539934.4676
 21
4478159.9596
 31
1472.680908203125
  0
LINE
  5
20FA
330
1F
100
AcDbEntity
  8
BINA
370
     0
100
AcDbLine
 10
539976.4768
 20
4478174.1419
 30
1472.680908203125
 11
539976.4768
 21
4478174.1419
 31
1472.680908203125
  0
LINE
  5
20FB
330
1F
100
AcDbEntity
  8
BINA
370
     0
100
AcDbLine
 10
539976.4768
 20
4478174.1419
 30
1472.680908203125
 11
539976.4768
 21
4478174.1419
 31
1472.680908203125
  0
TEXT
  5
2133
330
1F
100
AcDbEntity
  8
text
370
     0
100
AcDbText
 10
539842.17968126
 20
4478150.89443551
 30
1472.680908203125
 40
2.5
  1
stok alani
  7
STYLE2
100
AcDbText
  0
TEXT
  5
2134
330
1F
100
AcDbEntity
  8
text
370
     0
100
AcDbText
 10
539780.260832113
 20
4478122.27648002
 30
1472.680908203125
 40
2.5
  1
pasa alani
  7
STYLE2
100
AcDbText
  0
TEXT
  5
2146
330
1F
100
AcDbEntity
  8
text
370
     0
100
AcDbText
 10
540027.7722890946
 20
4478169.239503576
 30
1472.680908203125
 40
2.5
  1
park yeri
 50
27.11933098633274
  7
STYLE2
100
AcDbText
  0
INSERT
  5
23A2
330
1F
100
AcDbEntity
  8
0
370
     0
100
AcDbBlockReference
  2
0
 10
539717.21307953
 20
4477919.733856606
 30
0.0
  0
TEXT
  5
23A3
330
1F
100
AcDbEntity
  8
text
370
     0
100
AcDbText
 10
539972.19874662
 20
4478128.673097206
 30
1472.680908203125
 40
2.5
  1
ay ocagi
 50
21.70227721974437
  7
STYLE2
100
AcDbText
  0
LINE
  5
23D5
330
1F
100
AcDbEntity
  8
KAT_1460
370
     0
100
AcDbLine
 10
539885.7163693764
 20
4478113.772217567
 30
1463.930053710938
 11
539883.7191508678
 21
4478111.902921574
 31
1463.949951171875
  0
LINE
  5
23D6
330
1F
100
AcDbEntity
  8
KAT_1460
370
     0
100
AcDbLine
 10
539883.7191508678
 20
4478111.902921574
 30
1463.949951171875
 11
539881.8468817201
 21
4478110.993258283
 31
1463.967041015625
  0
LINE
  5
23D7
330
1F
100
AcDbEntity
  8
KAT_1460
370
     0
100
AcDbLine
 10
539890.793393845
 20
4478113.192473157
 30
1463.930053710938
 11
539883.9550713468
 21
4478105.955204676
 31
1463.97998046875
  0
LINE
  5
23D8
330
1F
100
AcDbEntity
  8
KAT_1460
370
     0
100
AcDbLine
 10
539881.8468817201
 20
4478110.993258283
 30
1463.967041015625
 11
539879.8616578988
 21
4478109.433843496
 31
1463.989990234375
  0
TEXT
  5
23DB
330
1F
100
AcDbEntity
  8
text
370
     0
100
AcDbText
 10
539993.622632246
 20
4478143.56267891
 30
1472.680908203125
 40
2.5
  1
sarj istasyonu
 50
21.11872464007869
  7
STYLE2
100
AcDbText
  0
TEXT
  5
245A
330
1F
100
AcDbEntity
  8
text
370
     0
100
AcDbText
 10
539887.9057203919
 20
4478115.96459496
 30
1472.680908203125
 40
2.5
  1
ocak girisi
  7
STYLE2
100
AcDbText
  0
TEXT
  5
245E
330
1F
100
AcDbEntity
  8
text
370
     0
100
AcDbText
 10
539925.5194431707
 20
4478173.627684603
 30
1472.680908203125
 40
2.0
  1
karothane
  7
STYLE2
100
AcDbText
  0
POINT
  5
2465
330
1F
100
AcDbEntity
  8
INIT_COORD
100
AcDbPoint
 10
540081.9142177317
 20
4478204.297702638
 30
1470.406281356869
  0
LINE
  5
249C
330
1F
100
AcDbEntity
  8
GEOFENCE
100
AcDbLine
 10
540081.9142177317
 20
4478204.297702638
 30
1470.406281356869
 11
540062.8545617858
 21
4478182.002497021
 31
1470.467041015625
  0
LINE
  5
249D
330
1F
100
AcDbEntity
  8
GEOFENCE
100
AcDbLine
 10
540062.8545617858
 20
4478182.002497021
 30
1470.467041015625
 11
540046.8203543057
 21
4478170.610336624
 31
1471.613830566406
  0
LINE
  5
249E
330
1F
100
AcDbEntity
  8
GEOFENCE
100
AcDbLine
 10
540046.8203543057
 20
4478170.610336624
 30
1471.613830566406
 11
540025.3515999999
 21
4478164.1174
 31
1471.867980957031
  0
LINE
  5
249F
330
1F
100
AcDbEntity
  8
GEOFENCE
100
AcDbLine
 10
540025.3515999999
 20
4478164.1174
 30
1471.867980957031
 11
539992.2975386324
 21
4478159.216378364
 31
1468.713806152344
  0
LINE
  5
24A0
330
1F
100
AcDbEntity
  8
GEOFENCE
100
AcDbLine
 10
539992.2975386324
 20
4478159.216378364
 30
1468.713806152344
 11
539974.3761386324
 21
4478151.617528364
 31
1469.086608886719
  0
LINE
  5
24A1
330
1F
100
AcDbEntity
  8
GEOFENCE
100
AcDbLine
 10
539974.3761386324
 20
4478151.617528364
 30
1469.086608886719
 11
539961.5769750001
 21
4478148.845775001
 31
1473.037841796875
  0
LINE
  5
24A2
330
1F
100
AcDbEntity
  8
GEOFENCE
100
AcDbLine
 10
539961.5769750001
 20
4478148.845775001
 30
1473.037841796875
 11
539947.9691
 21
4478142.58075
 31
1475.283325195312
  0
LINE
  5
24A3
330
1F
100
AcDbEntity
  8
GEOFENCE
100
AcDbLine
 10
539947.9691
 20
4478142.58075
 30
1475.283325195312
 11
539949.2117979713
 21
4478136.488191098
 31
1472.823425292969
  0
LINE
  5
24A4
330
1F
100
AcDbEntity
  8
GEOFENCE
100
AcDbLine
 10
539949.2117979713
 20
4478136.488191098
 30
1472.823425292969
 11
539942.695198902
 21
4478130.481752766
 31
1475.759796142578
  0
LINE
  5
24A5
330
1F
100
AcDbEntity
  8
GEOFENCE
100
AcDbLine
 10
539942.695198902
 20
4478130.481752766
 30
1475.759796142578
 11
539923.172338272
 21
4478114.12660316
 31
1478.35594460555
  0
LINE
  5
24A6
330
1F
100
AcDbEntity
  8
GEOFENCE
100
AcDbLine
 10
539923.172338272
 20
4478114.12660316
 30
1478.35594460555
 11
539911.6829250001
 21
4478098.398025
 31
1477.883728027344
  0
LINE
  5
24A7
330
1F
100
AcDbEntity
  8
GEOFENCE
100
AcDbLine
 10
539911.6829250001
 20
4478098.398025
 30
1477.883728027344
 11
539898.77905
 21
4478095.9563
 31
1477.579406738281
  0
LINE
  5
24A8
330
1F
100
AcDbEntity
  8
GEOFENCE
100
AcDbLine
 10
539898.77905
 20
4478095.9563
 30
1477.579406738281
 11
539867.431825
 21
4478108.4757
 31
1477.562835693359
  0
LINE
  5
24A9
330
1F
100
AcDbEntity
  8
GEOFENCE
100
AcDbLine
 10
539867.431825
 20
4478108.4757
 30
1477.562835693359
 11
539855.5239857521
 21
4478111.00638226
 31
1477.593737761545
  0
LINE
  5
24AA
330
1F
100
AcDbEntity
  8
GEOFENCE
100
AcDbLine
 10
539855.5239857521
 20
4478111.00638226
 30
1477.593737761545
 11
539843.2962
 21
4478111.52825
 31
1477.829711914062
  0
LINE
  5
24AB
330
1F
100
AcDbEntity
  8
GEOFENCE
100
AcDbLine
 10
539843.2962
 20
4478111.52825
 30
1477.829711914062
 11
539818.9939
 21
4478102.0794
 31
1480.347473144531
  0
LINE
  5
24AC
330
1F
100
AcDbEntity
  8
GEOFENCE
100
AcDbLine
 10
539818.9939
 20
4478102.0794
 30
1480.347473144531
 11
539801.1839
 21
4478102.958196839
 31
1480.503784179688
  0
LINE
  5
24AD
330
1F
100
AcDbEntity
  8
GEOFENCE
100
AcDbLine
 10
539801.1839
 20
4478102.958196839
 30
1480.503784179688
 11
539762.485162408
 21
4478116.168798335
 31
1478.418823242188
  0
LINE
  5
24AE
330
1F
100
AcDbEntity
  8
GEOFENCE
100
AcDbLine
 10
539762.485162408
 20
4478116.168798335
 30
1478.418823242188
 11
539764.4078124077
 21
4478126.12467334
 31
1476.63623046875
  0
LINE
  5
24B1
330
1F
100
AcDbEntity
  8
GEOFENCE
100
AcDbLine
 10
539764.4078124077
 20
4478126.12467334
 30
1476.63623046875
 11
539773.2266124029
 21
4478146.491648348
 31
1472.440795898438
  0
LINE
  5
24B2
330
1F
100
AcDbEntity
  8
GEOFENCE
100
AcDbLine
 10
539773.2266124029
 20
4478146.491648348
 30
1472.440795898438
 11
539782.0743623986
 21
4478164.255748357
 31
1468.499572753906
  0
LINE
  5
24B3
330
1F
100
AcDbEntity
  8
GEOFENCE
100
AcDbLine
 10
539782.0743623986
 20
4478164.255748357
 30
1468.499572753906
 11
539790.9266623931
 21
4478170.24839836
 31
1467.227416992188
  0
LINE
  5
24B4
330
1F
100
AcDbEntity
  8
GEOFENCE
100
AcDbLine
 10
539790.9266623931
 20
4478170.24839836
 30
1467.227416992188
 11
539814.5716623778
 21
4478167.539598357
 31
1463.847900390625
  0
LINE
  5
24B5
330
1F
100
AcDbEntity
  8
GEOFENCE
100
AcDbLine
 10
539814.5716623778
 20
4478167.539598357
 30
1463.847900390625
 11
539802.9062311974
 21
4478134.181374178
 31
1474.126159667969
  0
LINE
  5
24B6
330
1F
100
AcDbEntity
  8
GEOFENCE
100
AcDbLine
 10
539814.5716623778
 20
4478167.539598357
 30
1463.847900390625
 11
539860.8281658712
 21
4478148.584660314
 31
1464.870743659845
  0
LINE
  5
24B7
330
1F
100
AcDbEntity
  8
GEOFENCE
100
AcDbLine
 10
539976.254
 20
4478162.2474
 30
1471.010498046875
 11
539948.0832
 21
4478174.0378
 31
1469.24462890625
  0
LINE
  5
24B8
330
1F
100
AcDbEntity
  8
GEOFENCE
100
AcDbLine
 10
539934.8844
 20
4478172.2784
 30
1468.014282226562
 11
539948.1849
 21
4478160.6305
 31
1469.2607421875
  0
LINE
  5
24B9
330
1F
100
AcDbEntity
  8
GEOFENCE
100
AcDbLine
 10
539927.6429
 20
4478163.1515
 30
1467.062744140625
 11
539918.4376000001
 21
4478155.0181
 31
1461.417236328125
  0
LINE
  5
24BA
330
1F
100
AcDbEntity
  8
GEOFENCE
100
AcDbLine
 10
539968.0719
 20
4478131.4386
 30
1472.680908203125
 11
539995.0662
 21
4478132.432899999
 31
1472.680908203125
  0
LINE
  5
24BC
330
1F
100
AcDbEntity
  8
GEOFENCE
100
AcDbLine
 10
539995.0049
 20
4478143.3445
 30
1472.265014648438
 11
540022.0611
 21
4478142.6307
 31
1472.680908203125
  0
LINE
  5
24BD
330
1F
100
AcDbEntity
  8
GEOFENCE
100
AcDbLine
 10
540024.8655
 20
4478157.2093
 30
1472.627075195312
 11
540044.6615
 21
4478155.2178
 31
1472.680908203125
  0
LINE
  5
24BF
330
1F
100
AcDbEntity
  8
GEOFENCE
100
AcDbLine
 10
539992.2975386324
 20
4478159.216378364
 30
1468.713806152344
 11
539974.9810368652
 21
4478168.974783073
 31
1470.930177979782
  0
LINE
  5
24C0
330
1F
100
AcDbEntity
  8
GEOFENCE
100
AcDbLine
 10
539961.5769750001
 20
4478148.845775001
 30
1473.037841796875
 11
539972.5967516812
 21
4478158.90795822
 31
1471.515675323689
  0
LINE
  5
24C1
330
1F
100
AcDbEntity
  8
GEOFENCE
100
AcDbLine
 10
539961.5769750001
 20
4478148.845775001
 30
1473.037841796875
 11
539961.6412498794
 21
4478158.665315463
 31
1471.147737605815
  0
LINE
  5
24C3
330
1F
100
AcDbEntity
  8
GEOFENCE
100
AcDbLine
 10
539961.5769750001
 20
4478148.845775001
 30
1473.037841796875
 11
539951.0729505721
 21
4478159.279585856
 31
1470.629302437415
  0
LINE
  5
24C4
330
1F
100
AcDbEntity
  8
GEOFENCE
100
AcDbLine
 10
539947.9691
 20
4478142.58075
 30
1475.283325195312
 11
539928.6866332989
 21
4478144.988606442
 31
1470.551654742308
  0
LINE
  5
24C5
330
1F
100
AcDbEntity
  8
GEOFENCE
100
AcDbLine
 10
539928.6866332989
 20
4478144.988606442
 30
1470.551654742308
 11
539908.9048354308
 21
4478143.006016382
 31
1468.372248914377
  0
LINE
  5
24C6
330
1F
100
AcDbEntity
  8
GEOFENCE
100
AcDbLine
 10
539908.9048354308
 20
4478143.006016382
 30
1468.372248914377
 11
539889.1230375627
 21
4478141.023426323
 31
1466.192843086444
  0
LINE
  5
24C7
330
1F
100
AcDbEntity
  8
GEOFENCE
100
AcDbLine
 10
539889.1230375627
 20
4478141.023426323
 30
1466.192843086444
 11
539889.3720368128
 21
4478150.728161992
 31
1468.592031485941
  0
LINE
  5
24C8
330
1F
100
AcDbEntity
  8
GEOFENCE
100
AcDbLine
 10
539889.3720368128
 20
4478150.728161992
 30
1468.592031485941
 11
539889.7455356879
 21
4478165.285265494
 31
1472.190814085144
  0
LINE
  5
24C9
330
1F
100
AcDbEntity
  8
GEOFENCE
100
AcDbLine
 10
539889.7455356879
 20
4478165.285265494
 30
1472.190814085144
 11
539909.6675819647
 21
4478165.654941117
 31
1470.465875802679
  0
LINE
  5
24CA
330
1F
100
AcDbEntity
  8
GEOFENCE
100
AcDbLine
 10
539909.6675819647
 20
4478165.654941117
 30
1470.465875802679
 11
539909.7719004832
 21
4478156.160669651
 31
1467.327735117597
  0
LINE
  5
24CB
330
1F
100
AcDbEntity
  8
GEOFENCE
100
AcDbLine
 10
539909.6675819647
 20
4478165.654941117
 30
1470.465875802679
 11
539918.7976527654
 21
4478162.59128251
 31
1467.772216004121
  0
LINE
  5
24CC
330
1F
100
AcDbEntity
  8
GEOFENCE
100
AcDbLine
 10
539974.3761386324
 20
4478151.617528364
 30
1469.086608886719
 11
539979.2760917927
 21
4478137.808572737
 31
1472.296469243592
  0
LINE
  5
24CD
330
1F
100
AcDbEntity
  8
GEOFENCE
100
AcDbLine
 10
539992.2975386324
 20
4478159.216378364
 30
1468.713806152344
 11
540003.8598984104
 21
4478150.058440815
 31
1471.442178599852
  0
LINE
  5
24D2
330
1F
100
AcDbEntity
  8
GEOFENCE
100
AcDbLine
 10
539992.2975386324
 20
4478159.216378364
 30
1468.713806152344
 11
540005.6808177544
 21
4478165.783123526
 31
1470.376844913049
  0
LINE
  5
24D3
330
1F
100
AcDbEntity
  8
GEOFENCE
100
AcDbLine
 10
540005.6808177544
 20
4478165.783123526
 30
1470.376844913049
 11
540010.141910795
 21
4478167.97203858
 31
1470.931191166609
  0
LINE
  5
24D4
330
1F
100
AcDbEntity
  8
GEOFENCE
100
AcDbLine
 10
540010.141910795
 20
4478167.97203858
 30
1470.931191166609
 11
540020.3604929222
 21
4478178.445690873
 31
1467.632223606597
  0
LINE
  5
24D5
330
1F
100
AcDbEntity
  8
GEOFENCE
100
AcDbLine
 10
540020.3604929222
 20
4478178.445690873
 30
1467.632223606597
 11
540030.7268852699
 21
4478188.763082691
 31
1464.30215817544
  0
LINE
  5
24D7
330
1F
100
AcDbEntity
  8
GEOFENCE
100
AcDbLine
 10
540030.7268852699
 20
4478188.763082691
 30
1464.30215817544
 11
540034.1823493855
 21
4478192.202213297
 31
1463.192136365114
  0
LINE
  5
24D8
330
1F
100
AcDbEntity
  8
GEOFENCE
100
AcDbLine
 10
539928.6866332989
 20
4478144.988606442
 30
1470.551654742308
 11
539889.383719513
 21
4478114.576857581
 31
1476.065863584456
  0
ENDSEC
  0
SECTION
  2
OBJECTS
  0
DICTIONARY
  5
C
330
0
100
AcDbDictionary
281
     1
  3
ACAD_DETAILVIEWSTYLE
350
2405
  3
ACAD_GROUP
350
D
  3
ACAD_LAYOUT
350
1A
  3
ACAD_MATERIAL
350
3B
  3
ACAD_MLEADERSTYLE
350
23DF
  3
ACAD_MLINESTYLE
350
17
  3
ACAD_PLOTSETTINGS
350
19
  3
ACAD_PLOTSTYLENAME
350
E
  3
ACAD_SCALELIST
350
10E
  3
ACAD_SECTIONVIEWSTYLE
350
2406
  3
ACAD_TABLESTYLE
350
23DE
  3
ACAD_VISUALSTYLE
350
2A
  3
ACDB_RECOMPOSE_DATA
350
24EE
  3
AcDbVariableDictionary
350
23DC
  3
APPDATA
350
23EC
  0
SUN
  5
23ED
330
29
100
AcDbSun
 90
        1
290
     0
 63
     7
421
 16777215
 40
1.0
291
     1
 91
  2455826
 92
 54000000
292
     0
 70
     2
 71
   256
280
     1
  0
DICTIONARY
  5
23EE
330
2
100
AcDbDictionary
280
     1
281
     1
  3
ACAD_LAYERSTATES
360
23F2
  3
ACLYDICTIONARY
360
2479
  0
DICTIONARY
  5
2405
102
{ACAD_REACTORS
330
C
102
}
330
C
100
AcDbDictionary
281
     1
  0
DICTIONARY
  5
D
102
{ACAD_REACTORS
330
C
102
}
330
C
100
AcDbDictionary
281
     1
  0
DICTIONARY
  5
1A
102
{ACAD_REACTORS
330
C
102
}
330
C
100
AcDbDictionary
281
     1
  3
Layout1
350
1E
  3
Layout2
350
26
  3
Model
350
22
  0
DICTIONARY
  5
3B
102
{ACAD_REACTORS
330
C
102
}
330
C
100
AcDbDictionary
281
     1
  3
ByBlock
350
3D
  3
ByLayer
350
3C
  3
Global
350
3E
  0
DICTIONARY
  5
23DF
102
{ACAD_REACTORS
330
C
102
}
330
C
100
AcDbDictionary
281
     1
  3
Standard
350
23EB
  0
DICTIONARY
  5
17
102
{ACAD_REACTORS
330
C
102
}
330
C
100
AcDbDictionary
281
     1
  3
Standard
350
18
  0
DICTIONARY
  5
19
102
{ACAD_REACTORS
330
C
102
}
330
C
100
AcDbDictionary
281
     1
  0
ACDBDICTIONARYWDFLT
  5
E
102
{ACAD_REACTORS
330
C
102
}
330
C
100
AcDbDictionary
281
     1
  3
Normal
350
F
100
AcDbDictionaryWithDefault
340
F
  0
DICTIONARY
  5
10E
102
{ACAD_REACTORS
330
C
102
}
330
C
100
AcDbDictionary
281
     1
  3
A0
350
10F
  3
A1
350
110
  3
A2
350
111
  3
A3
350
112
  3
A4
350
113
  3
A5
350
114
  3
A6
350
115
  3
A7
350
116
  3
A8
350
117
  3
A9
350
118
  3
B0
350
119
  3
B1
350
11A
  3
B2
350
11B
  3
B3
350
11C
  3
B4
350
11D
  3
B5
350
11E
  3
B6
350
11F
  3
B7
350
120
  3
B8
350
121
  3
B9
350
122
  3
C0
350
123
  3
C1
350
124
  3
C2
350
125
  3
C3
350
126
  3
C4
350
127
  3
C5
350
128
  3
C6
350
129
  3
C7
350
12A
  3
C8
350
12B
  3
C9
350
12C
  3
D0
350
12D
  3
D1
350
12E
  3
D2
350
12F
  0
DICTIONARY
  5
2406
102
{ACAD_REACTORS
330
C
102
}
330
C
100
AcDbDictionary
281
     1
  0
DICTIONARY
  5
23DE
102
{ACAD_REACTORS
330
C
102
}
330
C
100
AcDbDictionary
281
     1
  3
Standard
350
23EA
  0
DICTIONARY
  5
2A
102
{ACAD_REACTORS
330
C
102
}
330
C
100
AcDbDictionary
281
     1
  3
2dWireframe
350
2F
  3
3D Hidden
350
31
  3
3dWireframe
350
30
  3
Basic
350
32
  3
Brighten
350
36
  3
ColorChange
350
3A
  3
Conceptual
350
34
  3
Dim
350
35
  3
EdgeColorOff
350
23E4
  3
Facepattern
350
39
  3
Flat
350
2B
  3
FlatWithEdges
350
2C
  3
Gouraud
350
2D
  3
GouraudWithEdges
350
2E
  3
Hidden
350
23E1
  3
JitterOff
350
23E2
  3
Linepattern
350
38
  3
OverhangOff
350
23E3
  3
Realistic
350
33
  3
Shaded
350
23E9
  3
Shaded with edges
350
23E8
  3
Shades of Gray
350
23E5
  3
Sketchy
350
23E6
  3
Thicken
350
37
  3
Wireframe
350
23E0
  3
X-Ray
350
23E7
  0
XRECORD
  5
24EE
102
{ACAD_REACTORS
330
C
102
}
330
C
100
AcDbXrecord
280
     1
 90
        1
330
23EA
  0
DICTIONARY
  5
23DC
102
{ACAD_REACTORS
330
C
102
}
330
C
100
AcDbDictionary
281
     1
  3
CANNOSCALE
350
23DD
  3
CMLEADERSTYLE
350
2404
  3
CTABLESTYLE
350
2403
  0
DICTIONARY
  5
23EC
102
{ACAD_REACTORS
330
C
102
}
330
C
100
AcDbDictionary
281
     1
  0
DICTIONARY
  5
23F2
102
{ACAD_REACTORS
330
23EE
102
}
330
23EE
100
AcDbDictionary
281
     1
  0
DICTIONARY
  5
2479
102
{ACAD_REACTORS
330
23EE
102
}
330
23EE
100
AcDbDictionary
281
     1
1001
ACAD
1000
<All
  0
LAYOUT
  5
1E
102
{ACAD_REACTORS
330
1A
102
}
330
1A
100
AcDbPlotSettings
  1

  2
none_device
  4

  6

 40
0.0
 41
0.0
 42
0.0
 43
0.0
 44
0.0
 45
0.0
 46
0.0
 47
0.0
 48
0.0
 49
0.0
140
0.0
141
0.0
142
1.0
143
1.0
 70
   688
 72
     0
 73
     0
 74
     5
  7

 75
    16
 76
     0
 77
     2
 78
   300
147
1.0
148
0.0
149
0.0
100
AcDbLayout
  1
Layout1
 70
     1
 71
     1
 10
0.0
 20
0.0
 11
420.0
 21
297.0
 12
0.0
 22
0.0
 32
0.0
 14
1.000000000000000E+20
 24
1.000000000000000E+20
 34
1.000000000000000E+20
 15
-1.000000000000000E+20
 25
-1.000000000000000E+20
 35
-1.000000000000000E+20
146
0.0
 13
0.0
 23
0.0
 33
0.0
 16
1.0
 26
0.0
 36
0.0
 17
0.0
 27
1.0
 37
0.0
 76
     0
330
1B
  0
LAYOUT
  5
26
102
{ACAD_REACTORS
330
1A
102
}
330
1A
100
AcDbPlotSettings
  1

  2
none_device
  4

  6

 40
0.0
 41
0.0
 42
0.0
 43
0.0
 44
0.0
 45
0.0
 46
0.0
 47
0.0
 48
0.0
 49
0.0
140
0.0
141
0.0
142
1.0
143
1.0
 70
   688
 72
     0
 73
     0
 74
     5
  7

 75
    16
 76
     0
 77
     2
 78
   300
147
1.0
148
0.0
149
0.0
100
AcDbLayout
  1
Layout2
 70
     1
 71
     2
 10
0.0
 20
0.0
 11
0.0
 21
0.0
 12
0.0
 22
0.0
 32
0.0
 14
0.0
 24
0.0
 34
0.0
 15
0.0
 25
0.0
 35
0.0
146
0.0
 13
0.0
 23
0.0
 33
0.0
 16
1.0
 26
0.0
 36
0.0
 17
0.0
 27
1.0
 37
0.0
 76
     0
330
23
  0
LAYOUT
  5
22
102
{ACAD_REACTORS
330
1A
102
}
330
1A
100
AcDbPlotSettings
  1

  2
none_device
  4

  6

 40
0.0
 41
0.0
 42
0.0
 43
0.0
 44
0.0
 45
0.0
 46
0.0
 47
0.0
 48
0.0
 49
0.0
140
0.0
141
0.0
142
1.0
143
1.0
 70
  1712
 72
     0
 73
     0
 74
     0
  7

 75
     0
 76
     0
 77
     2
 78
   300
147
1.0
148
0.0
149
0.0
100
AcDbLayout
  1
Model
 70
     1
 71
     0
 10
0.0
 20
0.0
 11
420.0
 21
297.0
 12
0.0
 22
0.0
 32
0.0
 14
539758.3855624101
 24
4478093.7214
 34
1458.00244140625
 15
540087.0506288391
 25
4478246.1951
 35
1480.565551757812
146
0.0
 13
0.0
 23
0.0
 33
0.0
 16
1.0
 26
0.0
 36
0.0
 17
0.0
 27
1.0
 37
0.0
 76
     0
330
1F
331
29
  0
MATERIAL
  5
3D
102
{ACAD_REACTORS
330
3B
102
}
330
3B
100
AcDbMaterial
  1
ByBlock
 72
     1
 94
      127
  0
MATERIAL
  5
3C
102
{ACAD_REACTORS
330
3B
102
}
330
3B
100
AcDbMaterial
  1
ByLayer
 72
     1
 94
      127
  0
MATERIAL
  5
3E
102
{ACAD_REACTORS
330
3B
102
}
330
3B
100
AcDbMaterial
  1
Global
 72
     1
 94
      127
  0
MLEADERSTYLE
  5
23EB
102
{ACAD_REACTORS
330
23DF
102
}
330
23DF
100
AcDbMLeaderStyle
179
     2
170
     2
171
     1
172
     0
 90
        2
 40
0.0
 41
0.0
173
     1
 91
-1056964608
340
14
 92
       -2
290
     1
 42
2.0
291
     1
 43
8.0
  3
Standard
341
0
 44
4.0
300

342
11
174
     1
178
     1
175
     1
176
     0
 93
-1056964608
 45
4.0
292
     0
297
     0
 46
4.0
343
0
 94
-1056964608
 47
1.0
 49
1.0
140
1.0
293
     1
141
0.0
294
     1
177
     0
142
1.0
295
     0
296
     0
143
3.75
271
     0
272
     9
273
     9
  0
MLINESTYLE
  5
18
102
{ACAD_REACTORS
330
17
102
}
330
17
100
AcDbMlineStyle
  2
Standard
 70
     0
  3

 62
   256
 51
90.0
 52
90.0
 71
     2
 49
0.5
 62
   256
  6
BYLAYER
 49
-0.5
 62
   256
  6
BYLAYER
  0
ACDBPLACEHOLDER
  5
F
102
{ACAD_REACTORS
330
E
102
}
330
E
  0
SCALE
  5
10F
102
{ACAD_REACTORS
330
10E
102
}
330
10E
100
AcDbScale
 70
     0
300
1:1
140
1.0
141
1.0
290
     1
  0
SCALE
  5
110
102
{ACAD_REACTORS
330
10E
102
}
330
10E
100
AcDbScale
 70
     0
300
1:2
140
1.0
141
2.0
290
     0
  0
SCALE
  5
111
102
{ACAD_REACTORS
330
10E
102
}
330
10E
100
AcDbScale
 70
     0
300
1:4
140
1.0
141
4.0
290
     0
  0
SCALE
  5
112
102
{ACAD_REACTORS
330
10E
102
}
330
10E
100
AcDbScale
 70
     0
300
1:5
140
1.0
141
5.0
290
     0
  0
SCALE
  5
113
102
{ACAD_REACTORS
330
10E
102
}
330
10E
100
AcDbScale
 70
     0
300
1:8
140
1.0
141
8.0
290
     0
  0
SCALE
  5
114
102
{ACAD_REACTORS
330
10E
102
}
330
10E
100
AcDbScale
 70
     0
300
1:10
140
1.0
141
10.0
290
     0
  0
SCALE
  5
115
102
{ACAD_REACTORS
330
10E
102
}
330
10E
100
AcDbScale
 70
     0
300
1:16
140
1.0
141
16.0
290
     0
  0
SCALE
  5
116
102
{ACAD_REACTORS
330
10E
102
}
330
10E
100
AcDbScale
 70
     0
300
1:20
140
1.0
141
20.0
290
     0
  0
SCALE
  5
117
102
{ACAD_REACTORS
330
10E
102
}
330
10E
100
AcDbScale
 70
     0
300
1:30
140
1.0
141
30.0
290
     0
  0
SCALE
  5
118
102
{ACAD_REACTORS
330
10E
102
}
330
10E
100
AcDbScale
 70
     0
300
1:40
140
1.0
141
40.0
290
     0
  0
SCALE
  5
119
102
{ACAD_REACTORS
330
10E
102
}
330
10E
100
AcDbScale
 70
     0
300
1:50
140
1.0
141
50.0
290
     0
  0
SCALE
  5
11A
102
{ACAD_REACTORS
330
10E
102
}
330
10E
100
AcDbScale
 70
     0
300
1:100
140
1.0
141
100.0
290
     0
  0
SCALE
  5
11B
102
{ACAD_REACTORS
330
10E
102
}
330
10E
100
AcDbScale
 70
     0
300
2:1
140
2.0
141
1.0
290
     0
  0
SCALE
  5
11C
102
{ACAD_REACTORS
330
10E
102
}
330
10E
100
AcDbScale
 70
     0
300
4:1
140
4.0
141
1.0
290
     0
  0
SCALE
  5
11D
102
{ACAD_REACTORS
330
10E
102
}
330
10E
100
AcDbScale
 70
     0
300
8:1
140
8.0
141
1.0
290
     0
  0
SCALE
  5
11E
102
{ACAD_REACTORS
330
10E
102
}
330
10E
100
AcDbScale
 70
     0
300
10:1
140
10.0
141
1.0
290
     0
  0
SCALE
  5
11F
102
{ACAD_REACTORS
330
10E
102
}
330
10E
100
AcDbScale
 70
     0
300
100:1
140
100.0
141
1.0
290
     0
  0
SCALE
  5
120
102
{ACAD_REACTORS
330
10E
102
}
330
10E
100
AcDbScale
 70
     0
300
1/128" = 1'-0"
140
0.0078125
141
12.0
290
     0
  0
SCALE
  5
121
102
{ACAD_REACTORS
330
10E
102
}
330
10E
100
AcDbScale
 70
     0
300
1/64" = 1'-0"
140
0.015625
141
12.0
290
     0
  0
SCALE
  5
122
102
{ACAD_REACTORS
330
10E
102
}
330
10E
100
AcDbScale
 70
     0
300
1/32" = 1'-0"
140
0.03125
141
12.0
290
     0
  0
SCALE
  5
123
102
{ACAD_REACTORS
330
10E
102
}
330
10E
100
AcDbScale
 70
     0
300
1/16" = 1'-0"
140
0.0625
141
12.0
290
     0
  0
SCALE
  5
124
102
{ACAD_REACTORS
330
10E
102
}
330
10E
100
AcDbScale
 70
     0
300
3/32" = 1'-0"
140
0.09375
141
12.0
290
     0
  0
SCALE
  5
125
102
{ACAD_REACTORS
330
10E
102
}
330
10E
100
AcDbScale
 70
     0
300
1/8" = 1'-0"
140
0.125
141
12.0
290
     0
  0
SCALE
  5
126
102
{ACAD_REACTORS
330
10E
102
}
330
10E
100
AcDbScale
 70
     0
300
3/16" = 1'-0"
140
0.1875
141
12.0
290
     0
  0
SCALE
  5
127
102
{ACAD_REACTORS
330
10E
102
}
330
10E
100
AcDbScale
 70
     0
300
1/4" = 1'-0"
140
0.25
141
12.0
290
     0
  0
SCALE
  5
128
102
{ACAD_REACTORS
330
10E
102
}
330
10E
100
AcDbScale
 70
     0
300
3/8" = 1'-0"
140
0.375
141
12.0
290
     0
  0
SCALE
  5
129
102
{ACAD_REACTORS
330
10E
102
}
330
10E
100
AcDbScale
 70
     0
300
1/2" = 1'-0"
140
0.5
141
12.0
290
     0
  0
SCALE
  5
12A
102
{ACAD_REACTORS
330
10E
102
}
330
10E
100
AcDbScale
 70
     0
300
3/4" = 1'-0"
140
0.75
141
12.0
290
     0
  0
SCALE
  5
12B
102
{ACAD_REACTORS
330
10E
102
}
330
10E
100
AcDbScale
 70
     0
300
1" = 1'-0"
140
1.0
141
12.0
290
     0
  0
SCALE
  5
12C
102
{ACAD_REACTORS
330
10E
102
}
330
10E
100
AcDbScale
 70
     0
300
1-1/2" = 1'-0"
140
1.5
141
12.0
290
     0
  0
SCALE
  5
12D
102
{ACAD_REACTORS
330
10E
102
}
330
10E
100
AcDbScale
 70
     0
300
3" = 1'-0"
140
3.0
141
12.0
290
     0
  0
SCALE
  5
12E
102
{ACAD_REACTORS
330
10E
102
}
330
10E
100
AcDbScale
 70
     0
300
6" = 1'-0"
140
6.0
141
12.0
290
     0
  0
SCALE
  5
12F
102
{ACAD_REACTORS
330
10E
102
}
330
10E
100
AcDbScale
 70
     0
300
1'-0" = 1'-0"
140
12.0
141
12.0
290
     0
  0
TABLESTYLE
  5
23EA
102
{ACAD_REACTORS
330
23DE
102
}
102
{ACAD_XDICTIONARY
360
24EC
102
}
330
23DE
100
AcDbTableStyle
  3
Standard
 70
     0
 71
     0
 40
0.06
 41
0.06
280
     0
281
     0
  7
Standard
140
4.5
170
     2
 62
     0
 63
   257
283
     0
 90
        4
 91
        0
  1

274
    -2
284
     1
 64
     0
275
    -2
285
     1
 65
     0
276
    -2
286
     1
 66
     0
277
    -2
287
     1
 67
     0
278
    -2
288
     1
 68
     0
279
    -2
289
     1
 69
     0
  7
Standard
140
6.0
170
     5
 62
     0
 63
   257
283
     0
 90
        4
 91
        0
  1

274
    -2
284
     1
 64
     0
275
    -2
285
     1
 65
     0
276
    -2
286
     1
 66
     0
277
    -2
287
     1
 67
     0
278
    -2
288
     1
 68
     0
279
    -2
289
     1
 69
     0
  7
Standard
140
4.5
170
     5
 62
     0
 63
   257
283
     0
 90
        4
 91
        0
  1

274
    -2
284
     1
 64
     0
275
    -2
285
     1
 65
     0
276
    -2
286
     1
 66
     0
277
    -2
287
     1
 67
     0
278
    -2
288
     1
 68
     0
279
    -2
289
     1
 69
     0
  0
VISUALSTYLE
  5
2F
102
{ACAD_REACTORS
330
2A
102
}
330
2A
100
AcDbVisualStyle
  2
2dWireframe
 70
     4
177
     2
291
     0
 71
     0
176
     1
 72
     2
176
     1
 73
     0
176
     1
 90
        0
176
     1
 40
-0.6
176
     1
 41
-30.0
176
     1
 62
     5
 63
     7
421
 16777215
176
     1
 74
     1
176
     1
 91
        4
176
     1
 64
     7
176
     1
 65
   257
176
     1
 75
     1
176
     1
175
     1
176
     1
 42
1.0
176
     1
 92
        0
176
     1
 66
   257
176
     1
 43
1.0
176
     1
 76
     1
176
     1
 77
     6
176
     1
 78
     2
176
     1
 67
     7
176
     1
 79
     5
176
     1
170
     0
176
     1
171
     0
176
     1
290
     0
176
     1
 93
        1
176
     1
 44
0.0
176
     1
173
     0
176
     1
  0
VISUALSTYLE
  5
31
102
{ACAD_REACTORS
330
2A
102
}
330
2A
100
AcDbVisualStyle
  2
3D Hidden
 70
     6
177
     2
291
     0
 71
     1
176
     1
 72
     2
176
     1
 73
     2
176
     1
 90
        0
176
     1
 40
-0.6
176
     1
 41
-30.0
176
     1
 62
     5
 63
     7
421
 16777215
176
     1
 74
     2
176
     1
 91
        2
176
     1
 64
     7
176
     1
 65
   257
176
     1
 75
     2
176
     1
175
     1
176
     1
 42
40.0
176
     1
 92
        0
176
     1
 66
   257
176
     1
 43
1.0
176
     1
 76
     1
176
     1
 77
     6
176
     1
 78
     2
176
     1
 67
     7
176
     1
 79
     3
176
     1
170
     0
176
     1
171
     0
176
     1
290
     0
176
     1
 93
        1
176
     1
 44
0.0
176
     1
173
     0
176
     1
  0
VISUALSTYLE
  5
30
102
{ACAD_REACTORS
330
2A
102
}
330
2A
100
AcDbVisualStyle
  2
3dWireframe
 70
     5
177
     2
291
     0
 71
     0
176
     1
 72
     2
176
     1
 73
     0
176
     1
 90
        0
176
     1
 40
-0.6
176
     1
 41
-30.0
176
     1
 62
     5
 63
     7
421
 16777215
176
     1
 74
     1
176
     1
 91
        4
176
     1
 64
     7
176
     1
 65
   257
176
     1
 75
     1
176
     1
175
     1
176
     1
 42
1.0
176
     1
 92
        0
176
     1
 66
   257
176
     1
 43
1.0
176
     1
 76
     1
176
     1
 77
     6
176
     1
 78
     2
176
     1
 67
     7
176
     1
 79
     5
176
     1
170
     0
176
     1
171
     0
176
     1
290
     0
176
     1
 93
        1
176
     1
 44
0.0
176
     1
173
     0
176
     1
  0
VISUALSTYLE
  5
32
102
{ACAD_REACTORS
330
2A
102
}
330
2A
100
AcDbVisualStyle
  2
Basic
 70
     7
177
     2
291
     1
 71
     1
176
     1
 72
     0
176
     1
 73
     1
176
     1
 90
        0
176
     1
 40
-0.6
176
     1
 41
-30.0
176
     1
 62
     5
 63
     7
421
 16777215
176
     1
 74
     0
176
     1
 91
        4
176
     1
 64
     7
176
     1
 65
   257
176
     1
 75
     1
176
     1
175
     1
176
     1
 42
1.0
176
     1
 92
        8
176
     1
 66
     7
176
     1
 43
1.0
176
     1
 76
     1
176
     1
 77
     6
176
     1
 78
     2
176
     1
 67
     7
176
     1
 79
     5
176
     1
170
     0
176
     1
171
     0
176
     1
290
     0
176
     1
 93
        1
176
     1
 44
0.0
176
     1
173
     0
176
     1
  0
VISUALSTYLE
  5
36
102
{ACAD_REACTORS
330
2A
102
}
330
2A
100
AcDbVisualStyle
  2
Brighten
 70
    12
177
     2
291
     1
 71
     2
176
     1
 72
     2
176
     1
 73
     0
176
     1
 90
        0
176
     1
 40
-0.6
176
     1
 41
-30.0
176
     1
 62
     5
 63
     7
421
 16777215
176
     1
 74
     1
176
     1
 91
        4
176
     1
 64
     7
176
     1
 65
   257
176
     1
 75
     1
176
     1
175
     1
176
     1
 42
1.0
176
     1
 92
        8
176
     1
 66
     7
176
     1
 43
1.0
176
     1
 76
     1
176
     1
 77
     6
176
     1
 78
     2
176
     1
 67
     7
176
     1
 79
     5
176
     1
170
     0
176
     1
171
     0
176
     1
290
     0
176
     1
 93
        1
176
     1
 44
50.0
176
     1
173
     0
176
     1
  0
VISUALSTYLE
  5
3A
102
{ACAD_REACTORS
330
2A
102
}
330
2A
100
AcDbVisualStyle
  2
ColorChange
 70
    16
177
     2
291
     1
 71
     2
176
     1
 72
     2
176
     1
 73
     3
176
     1
 90
        0
176
     1
 40
-0.6
176
     1
 41
-30.0
176
     1
 62
     5
 63
     8
421
  8421504
176
     1
 74
     1
176
     1
 91
        4
176
     1
 64
     7
176
     1
 65
   257
176
     1
 75
     1
176
     1
175
     1
176
     1
 42
1.0
176
     1
 92
        8
176
     1
 66
     8
424
  8421504
176
     1
 43
1.0
176
     1
 76
     1
176
     1
 77
     6
176
     1
 78
     2
176
     1
 67
     7
176
     1
 79
     5
176
     1
170
     0
176
     1
171
     0
176
     1
290
     0
176
     1
 93
        1
176
     1
 44
0.0
176
     1
173
     0
176
     1
  0
VISUALSTYLE
  5
34
102
{ACAD_REACTORS
330
2A
102
}
330
2A
100
AcDbVisualStyle
  2
Conceptual
 70
     9
177
     2
291
     0
 71
     3
176
     1
 72
     2
176
     1
 73
     0
176
     1
 90
        0
176
     1
 40
-0.6
176
     1
 41
-30.0
176
     1
 62
     5
 63
     7
421
 16777215
176
     1
 74
     2
176
     1
 91
        2
176
     1
 64
     7
176
     1
 65
   257
176
     1
 75
     1
176
     1
175
     1
176
     1
 42
40.0
176
     1
 92
        8
176
     1
 66
     7
176
     1
 43
1.0
176
     1
 76
     1
176
     1
 77
     6
176
     1
 78
     2
176
     1
 67
     7
176
     1
 79
     3
176
     1
170
     0
176
     1
171
     0
176
     1
290
     0
176
     1
 93
        1
176
     1
 44
0.0
176
     1
173
     0
176
     1
  0
VISUALSTYLE
  5
35
102
{ACAD_REACTORS
330
2A
102
}
330
2A
100
AcDbVisualStyle
  2
Dim
 70
    11
177
     2
291
     1
 71
     2
176
     1
 72
     2
176
     1
 73
     0
176
     1
 90
        0
176
     1
 40
-0.6
176
     1
 41
-30.0
176
     1
 62
     5
 63
     7
421
 16777215
176
     1
 74
     1
176
     1
 91
        4
176
     1
 64
     7
176
     1
 65
   257
176
     1
 75
     1
176
     1
175
     1
176
     1
 42
1.0
176
     1
 92
        8
176
     1
 66
     7
176
     1
 43
1.0
176
     1
 76
     1
176
     1
 77
     6
176
     1
 78
     2
176
     1
 67
     7
176
     1
 79
     5
176
     1
170
     0
176
     1
171
     0
176
     1
290
     0
176
     1
 93
        1
176
     1
 44
-50.0
176
     1
173
     0
176
     1
  0
VISUALSTYLE
  5
23E4
102
{ACAD_REACTORS
330
2A
102
}
330
2A
100
AcDbVisualStyle
  2
EdgeColorOff
 70
    22
177
     2
291
     1
 71
     2
176
     0
 72
     2
176
     0
 73
     0
176
     0
 90
        0
176
     0
 40
0.6
176
     0
 41
30.0
176
     0
 62
     5
 63
     7
421
 16777215
176
     0
 74
     1
176
     0
 91
        4
176
     0
 64
     7
176
     0
 65
   257
176
     0
 75
     1
176
     0
175
     1
176
     0
 42
1.0
176
     0
 92
        8
176
     2
 66
     7
176
     0
 43
1.0
176
     0
 76
     1
176
     0
 77
     6
176
     0
 78
     2
176
     0
 67
     7
176
     0
 79
     5
176
     0
170
     0
176
     0
171
     0
176
     0
290
     0
176
     0
 93
        1
176
     0
 44
0.0
176
     0
173
     0
176
     0
  0
VISUALSTYLE
  5
39
102
{ACAD_REACTORS
330
2A
102
}
330
2A
100
AcDbVisualStyle
  2
Facepattern
 70
    15
177
     2
291
     1
 71
     2
176
     1
 72
     2
176
     1
 73
     0
176
     1
 90
        0
176
     1
 40
-0.6
176
     1
 41
-30.0
176
     1
 62
     5
 63
     7
421
 16777215
176
     1
 74
     1
176
     1
 91
        4
176
     1
 64
     7
176
     1
 65
   257
176
     1
 75
     1
176
     1
175
     1
176
     1
 42
1.0
176
     1
 92
        8
176
     1
 66
     7
176
     1
 43
1.0
176
     1
 76
     1
176
     1
 77
     6
176
     1
 78
     2
176
     1
 67
     7
176
     1
 79
     5
176
     1
170
     0
176
     1
171
     0
176
     1
290
     0
176
     1
 93
        1
176
     1
 44
0.0
176
     1
173
     0
176
     1
  0
VISUALSTYLE
  5
2B
102
{ACAD_REACTORS
330
2A
102
}
330
2A
100
AcDbVisualStyle
  2
Flat
 70
     0
177
     2
291
     1
 71
     2
176
     1
 72
     1
176
     1
 73
     1
176
     1
 90
        2
176
     1
 40
-0.6
176
     1
 41
30.0
176
     1
 62
     5
 63
     7
421
 16777215
176
     1
 74
     0
176
     1
 91
        4
176
     1
 64
     7
176
     1
 65
   257
176
     1
 75
     1
176
     1
175
     1
176
     1
 42
1.0
176
     1
 92
        8
176
     1
 66
     7
176
     1
 43
1.0
176
     1
 76
     1
176
     1
 77
     6
176
     1
 78
     2
176
     1
 67
     7
176
     1
 79
     5
176
     1
170
     0
176
     1
171
     0
176
     1
290
     0
176
     1
 93
       13
176
     1
 44
0.0
176
     1
173
     0
176
     1
  0
VISUALSTYLE
  5
2C
102
{ACAD_REACTORS
330
2A
102
}
330
2A
100
AcDbVisualStyle
  2
FlatWithEdges
 70
     1
177
     2
291
     1
 71
     2
176
     1
 72
     1
176
     1
 73
     1
176
     1
 90
        2
176
     1
 40
-0.6
176
     1
 41
30.0
176
     1
 62
     5
 63
     7
421
 16777215
176
     1
 74
     1
176
     1
 91
        4
176
     1
 64
     7
176
     1
 65
   257
176
     1
 75
     1
176
     1
175
     1
176
     1
 42
1.0
176
     1
 92
        0
176
     1
 66
   257
176
     1
 43
1.0
176
     1
 76
     1
176
     1
 77
     6
176
     1
 78
     2
176
     1
 67
     7
176
     1
 79
     5
176
     1
170
     0
176
     1
171
     0
176
     1
290
     0
176
     1
 93
       13
176
     1
 44
0.0
176
     1
173
     0
176
     1
  0
VISUALSTYLE
  5
2D
102
{ACAD_REACTORS
330
2A
102
}
330
2A
100
AcDbVisualStyle
  2
Gouraud
 70
     2
177
     2
291
     1
 71
     2
176
     1
 72
     2
176
     1
 73
     1
176
     1
 90
        2
176
     1
 40
-0.6
176
     1
 41
30.0
176
     1
 62
     5
 63
     7
421
 16777215
176
     1
 74
     0
176
     1
 91
        4
176
     1
 64
     7
176
     1
 65
   257
176
     1
 75
     1
176
     1
175
     1
176
     1
 42
1.0
176
     1
 92
        0
176
     1
 66
     7
176
     1
 43
1.0
176
     1
 76
     1
176
     1
 77
     6
176
     1
 78
     2
176
     1
 67
     7
176
     1
 79
     5
176
     1
170
     0
176
     1
171
     0
176
     1
290
     0
176
     1
 93
       13
176
     1
 44
0.0
176
     1
173
     0
176
     1
  0
VISUALSTYLE
  5
2E
102
{ACAD_REACTORS
330
2A
102
}
330
2A
100
AcDbVisualStyle
  2
GouraudWithEdges
 70
     3
177
     2
291
     1
 71
     2
176
     1
 72
     2
176
     1
 73
     1
176
     1
 90
        2
176
     1
 40
-0.6
176
     1
 41
30.0
176
     1
 62
     5
 63
     7
421
 16777215
176
     1
 74
     1
176
     1
 91
        4
176
     1
 64
     7
176
     1
 65
   257
176
     1
 75
     1
176
     1
175
     1
176
     1
 42
1.0
176
     1
 92
        0
176
     1
 66
   257
176
     1
 43
1.0
176
     1
 76
     1
176
     1
 77
     6
176
     1
 78
     2
176
     1
 67
     7
176
     1
 79
     5
176
     1
170
     0
176
     1
171
     0
176
     1
290
     0
176
     1
 93
       13
176
     1
 44
0.0
176
     1
173
     0
176
     1
  0
VISUALSTYLE
  5
23E1
102
{ACAD_REACTORS
330
2A
102
}
330
2A
100
AcDbVisualStyle
  2
Hidden
 70
     6
177
     2
291
     0
 71
     1
176
     1
 72
     2
176
     1
 73
     2
176
     1
 90
        0
176
     1
 40
0.6
176
     1
 41
30.0
176
     1
 62
     5
 63
     7
421
 16777215
176
     1
 74
     2
176
     1
 91
        2
176
     1
 64
     7
176
     1
 65
   257
176
     1
 75
     2
176
     1
175
     1
176
     1
 42
40.0
176
     1
 92
        0
176
     1
 66
   257
176
     1
 43
1.0
176
     1
 76
     1
176
     1
 77
     6
176
     1
 78
     2
176
     1
 67
     7
176
     1
 79
     3
176
     1
170
     0
176
     1
171
     0
176
     1
290
     0
176
     1
 93
        1
176
     1
 44
0.0
176
     1
173
     0
176
     1
  0
VISUALSTYLE
  5
23E2
102
{ACAD_REACTORS
330
2A
102
}
330
2A
100
AcDbVisualStyle
  2
JitterOff
 70
    20
177
     2
291
     1
 71
     2
176
     0
 72
     2
176
     0
 73
     0
176
     0
 90
        0
176
     0
 40
0.6
176
     0
 41
30.0
176
     0
 62
     5
 63
     7
421
 16777215
176
     0
 74
     1
176
     0
 91
        4
176
     0
 64
     7
176
     0
 65
   257
176
     0
 75
     1
176
     0
175
     1
176
     0
 42
1.0
176
     0
 92
       10
176
     2
 66
     7
176
     0
 43
1.0
176
     0
 76
     1
176
     0
 77
     6
176
     0
 78
     2
176
     0
 67
     7
176
     0
 79
     5
176
     0
170
     0
176
     0
171
     0
176
     0
290
     0
176
     0
 93
        1
176
     0
 44
0.0
176
     0
173
     0
176
     0
  0
VISUALSTYLE
  5
38
102
{ACAD_REACTORS
330
2A
102
}
330
2A
100
AcDbVisualStyle
  2
Linepattern
 70
    14
177
     2
291
     1
 71
     2
176
     1
 72
     2
176
     1
 73
     0
176
     1
 90
        0
176
     1
 40
-0.6
176
     1
 41
-30.0
176
     1
 62
     5
 63
     7
421
 16777215
176
     1
 74
     1
176
     1
 91
        4
176
     1
 64
     7
176
     1
 65
   257
176
     1
 75
     7
176
     1
175
     7
176
     1
 42
1.0
176
     1
 92
        8
176
     1
 66
     7
176
     1
 43
1.0
176
     1
 76
     1
176
     1
 77
     6
176
     1
 78
     2
176
     1
 67
     7
176
     1
 79
     5
176
     1
170
     0
176
     1
171
     0
176
     1
290
     0
176
     1
 93
        1
176
     1
 44
0.0
176
     1
173
     0
176
     1
  0
VISUALSTYLE
  5
23E3
102
{ACAD_REACTORS
330
2A
102
}
330
2A
100
AcDbVisualStyle
  2
OverhangOff
 70
    21
177
     2
291
     1
 71
     2
176
     0
 72
     2
176
     0
 73
     0
176
     0
 90
        0
176
     0
 40
0.6
176
     0
 41
30.0
176
     0
 62
     5
 63
     7
421
 16777215
176
     0
 74
     1
176
     0
 91
        4
176
     0
 64
     7
176
     0
 65
   257
176
     0
 75
     1
176
     0
175
     1
176
     0
 42
1.0
176
     0
 92
        9
176
     2
 66
     7
176
     0
 43
1.0
176
     0
 76
     1
176
     0
 77
     6
176
     0
 78
     2
176
     0
 67
     7
176
     0
 79
     5
176
     0
170
     0
176
     0
171
     0
176
     0
290
     0
176
     0
 93
        1
176
     0
 44
0.0
176
     0
173
     0
176
     0
  0
VISUALSTYLE
  5
33
102
{ACAD_REACTORS
330
2A
102
}
330
2A
100
AcDbVisualStyle
  2
Realistic
 70
     8
177
     2
291
     0
 71
     2
176
     1
 72
     2
176
     1
 73
     0
176
     1
 90
        0
176
     1
 40
-0.6
176
     1
 41
-30.0
176
     1
 62
     5
 63
     7
421
 16777215
176
     1
 74
     1
176
     1
 91
        0
176
     1
 64
     7
176
     1
 65
   257
176
     1
 75
     1
176
     1
175
     1
176
     1
 42
1.0
176
     1
 92
        8
176
     1
 66
     8
424
  7895160
176
     1
 43
1.0
176
     1
 76
     1
176
     1
 77
     6
176
     1
 78
     2
176
     1
 67
     7
176
     1
 79
     5
176
     1
170
     0
176
     1
171
     0
176
     1
290
     0
176
     1
 93
       13
176
     1
 44
0.0
176
     1
173
     0
176
     1
  0
VISUALSTYLE
  5
23E9
102
{ACAD_REACTORS
330
2A
102
}
330
2A
100
AcDbVisualStyle
  2
Shaded
 70
    27
177
     2
291
     0
 71
     2
176
     1
 72
     2
176
     1
 73
     1
176
     1
 90
        2
176
     1
 40
0.6
176
     1
 41
30.0
176
     1
 62
     5
 63
     7
421
 16777215
176
     1
 74
     0
176
     1
 91
        4
176
     1
 64
     7
176
     1
 65
   257
176
     1
 75
     1
176
     1
175
     1
176
     1
 42
1.0
176
     1
 92
        8
176
     1
 66
   257
176
     1
 43
1.0
176
     1
 76
     1
176
     1
 77
     6
176
     1
 78
     2
176
     1
 67
     8
425
  7895160
176
     1
 79
     3
176
     1
170
     0
176
     1
171
     0
176
     1
290
     0
176
     1
 93
        5
176
     1
 44
0.0
176
     1
173
     0
176
     1
  0
VISUALSTYLE
  5
23E8
102
{ACAD_REACTORS
330
2A
102
}
330
2A
100
AcDbVisualStyle
  2
Shaded with edges
 70
    26
177
     2
291
     0
 71
     2
176
     1
 72
     2
176
     1
 73
     1
176
     1
 90
        2
176
     1
 40
0.6
176
     1
 41
30.0
176
     1
 62
     5
 63
     7
421
 16777215
176
     1
 74
     1
176
     1
 91
       10
176
     1
 64
     7
176
     1
 65
   257
176
     1
 75
     2
176
     1
175
     1
176
     1
 42
1.0
176
     1
 92
        8
176
     1
 66
   257
176
     1
 43
1.0
176
     1
 76
     1
176
     1
 77
     6
176
     1
 78
     2
176
     1
 67
     7
176
     1
 79
     3
176
     1
170
     0
176
     1
171
     0
176
     1
290
     0
176
     1
 93
        5
176
     1
 44
0.0
176
     1
173
     0
176
     1
  0
VISUALSTYLE
  5
23E5
102
{ACAD_REACTORS
330
2A
102
}
330
2A
100
AcDbVisualStyle
  2
Shades of Gray
 70
    23
177
     2
291
     0
 71
     2
176
     1
 72
     2
176
     1
 73
     3
176
     1
 90
        0
176
     1
 40
0.6
176
     1
 41
30.0
176
     1
 62
     5
 63
     7
421
 16777215
176
     1
 74
     2
176
     1
 91
        2
176
     1
 64
     7
176
     1
 65
     7
176
     1
 75
     1
176
     1
175
     1
176
     1
 42
40.0
176
     1
 92
        8
176
     1
 66
     7
176
     1
 43
1.0
176
     1
 76
     1
176
     1
 77
     6
176
     1
 78
     2
176
     1
 67
     7
176
     1
 79
     3
176
     1
170
     0
176
     1
171
     0
176
     1
290
     0
176
     1
 93
        1
176
     1
 44
0.0
176
     1
173
     0
176
     1
  0
VISUALSTYLE
  5
23E6
102
{ACAD_REACTORS
330
2A
102
}
330
2A
100
AcDbVisualStyle
  2
Sketchy
 70
    24
177
     2
291
     0
 71
     1
176
     1
 72
     2
176
     1
 73
     2
176
     1
 90
        0
176
     1
 40
0.6
176
     1
 41
30.0
176
     1
 62
     5
 63
     7
421
 16777215
176
     1
 74
     2
176
     1
 91
        2
176
     1
 64
     7
176
     1
 65
     7
176
     1
 75
     1
176
     1
175
     1
176
     1
 42
40.0
176
     1
 92
       11
176
     1
 66
     7
176
     1
 43
1.0
176
     1
 76
     1
176
     1
 77
     6
176
     1
 78
     2
176
     1
 67
     7
176
     1
 79
     6
176
     1
170
     0
176
     1
171
     0
176
     1
290
     0
176
     1
 93
        1
176
     1
 44
0.0
176
     1
173
     0
176
     1
  0
VISUALSTYLE
  5
37
102
{ACAD_REACTORS
330
2A
102
}
330
2A
100
AcDbVisualStyle
  2
Thicken
 70
    13
177
     2
291
     1
 71
     2
176
     1
 72
     2
176
     1
 73
     0
176
     1
 90
        0
176
     1
 40
-0.6
176
     1
 41
-30.0
176
     1
 62
     5
 63
     7
421
 16777215
176
     1
 74
     1
176
     1
 91
        4
176
     1
 64
     7
176
     1
 65
   257
176
     1
 75
     1
176
     1
175
     1
176
     1
 42
1.0
176
     1
 92
       12
176
     1
 66
     7
176
     1
 43
1.0
176
     1
 76
     1
176
     1
 77
     6
176
     1
 78
     2
176
     1
 67
     7
176
     1
 79
     5
176
     1
170
     0
176
     1
171
     0
176
     1
290
     0
176
     1
 93
        1
176
     1
 44
0.0
176
     1
173
     0
176
     1
  0
VISUALSTYLE
  5
23E0
102
{ACAD_REACTORS
330
2A
102
}
330
2A
100
AcDbVisualStyle
  2
Wireframe
 70
     5
177
     2
291
     0
 71
     0
176
     1
 72
     2
176
     1
 73
     0
176
     1
 90
        0
176
     1
 40
0.6
176
     1
 41
30.0
176
     1
 62
     5
 63
     7
421
 16777215
176
     1
 74
     1
176
     1
 91
        4
176
     1
 64
     7
176
     1
 65
   257
176
     1
 75
     1
176
     1
175
     1
176
     1
 42
1.0
176
     1
 92
        0
176
     1
 66
   257
176
     1
 43
1.0
176
     1
 76
     1
176
     1
 77
     6
176
     1
 78
     2
176
     1
 67
     7
176
     1
 79
     3
176
     1
170
     0
176
     1
171
     0
176
     1
290
     0
176
     1
 93
        1
176
     1
 44
0.0
176
     1
173
     0
176
     1
  0
VISUALSTYLE
  5
23E7
102
{ACAD_REACTORS
330
2A
102
}
330
2A
100
AcDbVisualStyle
  2
X-Ray
 70
    25
177
     2
291
     0
 71
     2
176
     1
 72
     2
176
     1
 73
     1
176
     1
 90
        1
176
     1
 40
0.5
176
     1
 41
30.0
176
     1
 62
     5
 63
     7
421
 16777215
176
     1
 74
     1
176
     1
 91
        0
176
     1
 64
     7
176
     1
 65
   257
176
     1
 75
     1
176
     1
175
     1
176
     1
 42
1.0
176
     1
 92
        8
176
     1
 66
     7
176
     1
 43
1.0
176
     1
 76
     1
176
     1
 77
     6
176
     1
 78
     2
176
     1
 67
     7
176
     1
 79
     3
176
     1
170
     0
176
     1
171
     0
176
     1
290
     0
176
     1
 93
       13
176
     1
 44
0.0
176
     1
173
     0
176
     1
  0
DICTIONARYVAR
  5
23DD
102
{ACAD_REACTORS
330
23DC
102
}
330
23DC
100
DictionaryVariables
280
     0
  1
1:1
  0
DICTIONARYVAR
  5
2404
102
{ACAD_REACTORS
330
23DC
102
}
330
23DC
100
DictionaryVariables
280
     0
  1
Standard
  0
DICTIONARYVAR
  5
2403
102
{ACAD_REACTORS
330
23DC
102
}
330
23DC
100
DictionaryVariables
280
     0
  1
Standard
  0
DICTIONARY
  5
24EC
330
23EA
100
AcDbDictionary
280
     1
281
     1
  3
ACAD_ROUNDTRIP_2008_TABLESTYLE_CELLSTYLEMAP
360
24ED
  0
CELLSTYLEMAP
  5
24ED
102
{ACAD_REACTORS
330
24EC
102
}
330
24EC
100
AcDbCellStyleMap
 90
        3
300
CELLSTYLE
  1
TABLEFORMAT_BEGIN
 90
        5
170
     1
 91
        0
 92
    32768
 62
   257
 93
        1
300
CONTENTFORMAT
  1
CONTENTFORMAT_BEGIN
 90
        0
 91
        0
 92
        4
 93
        0
300

 40
0.0
140
1.0
 94
        5
 62
     0
340
11
144
6.0
309
CONTENTFORMAT_END
171
     1
301
MARGIN
  1
CELLMARGIN_BEGIN
 40
1.5
 40
1.5
 40
1.5
 40
1.5
 40
1.5
 40
1.5
309
CELLMARGIN_END
 94
        6
 95
        1
302
GRIDFORMAT
  1
GRIDFORMAT_BEGIN
 90
        0
 91
        1
 62
     0
 92
       -2
340
14
 93
        0
 40
0.045
309
GRIDFORMAT_END
 95
        2
302
GRIDFORMAT
  1
GRIDFORMAT_BEGIN
 90
        0
 91
        1
 62
     0
 92
       -2
340
14
 93
        0
 40
0.045
309
GRIDFORMAT_END
 95
        4
302
GRIDFORMAT
  1
GRIDFORMAT_BEGIN
 90
        0
 91
        1
 62
     0
 92
       -2
340
14
 93
        0
 40
0.045
309
GRIDFORMAT_END
 95
        8
302
GRIDFORMAT
  1
GRIDFORMAT_BEGIN
 90
        0
 91
        1
 62
     0
 92
       -2
340
14
 93
        0
 40
0.045
309
GRIDFORMAT_END
 95
       16
302
GRIDFORMAT
  1
GRIDFORMAT_BEGIN
 90
        0
 91
        1
 62
     0
 92
       -2
340
14
 93
        0
 40
0.045
309
GRIDFORMAT_END
 95
       32
302
GRIDFORMAT
  1
GRIDFORMAT_BEGIN
 90
        0
 91
        1
 62
     0
 92
       -2
340
14
 93
        0
 40
0.045
309
GRIDFORMAT_END
309
TABLEFORMAT_END
  1
CELLSTYLE_BEGIN
 90
        1
 91
        1
300
_TITLE
309
CELLSTYLE_END
300
CELLSTYLE
  1
TABLEFORMAT_BEGIN
 90
        5
170
     1
 91
        0
 92
        0
 62
   257
 93
        1
300
CONTENTFORMAT
  1
CONTENTFORMAT_BEGIN
 90
        0
 91
        0
 92
        4
 93
        0
300

 40
0.0
140
1.0
 94
        5
 62
     0
340
11
144
4.5
309
CONTENTFORMAT_END
171
     1
301
MARGIN
  1
CELLMARGIN_BEGIN
 40
1.5
 40
1.5
 40
1.5
 40
1.5
 40
1.5
 40
1.5
309
CELLMARGIN_END
 94
        6
 95
        1
302
GRIDFORMAT
  1
GRIDFORMAT_BEGIN
 90
        0
 91
        1
 62
     0
 92
       -2
340
14
 93
        0
 40
0.045
309
GRIDFORMAT_END
 95
        2
302
GRIDFORMAT
  1
GRIDFORMAT_BEGIN
 90
        0
 91
        1
 62
     0
 92
       -2
340
14
 93
        0
 40
0.045
309
GRIDFORMAT_END
 95
        4
302
GRIDFORMAT
  1
GRIDFORMAT_BEGIN
 90
        0
 91
        1
 62
     0
 92
       -2
340
14
 93
        0
 40
0.045
309
GRIDFORMAT_END
 95
        8
302
GRIDFORMAT
  1
GRIDFORMAT_BEGIN
 90
        0
 91
        1
 62
     0
 92
       -2
340
14
 93
        0
 40
0.045
309
GRIDFORMAT_END
 95
       16
302
GRIDFORMAT
  1
GRIDFORMAT_BEGIN
 90
        0
 91
        1
 62
     0
 92
       -2
340
14
 93
        0
 40
0.045
309
GRIDFORMAT_END
 95
       32
302
GRIDFORMAT
  1
GRIDFORMAT_BEGIN
 90
        0
 91
        1
 62
     0
 92
       -2
340
14
 93
        0
 40
0.045
309
GRIDFORMAT_END
309
TABLEFORMAT_END
  1
CELLSTYLE_BEGIN
 90
        2
 91
        1
300
_HEADER
309
CELLSTYLE_END
300
CELLSTYLE
  1
TABLEFORMAT_BEGIN
 90
        5
170
     1
 91
        0
 92
        0
 62
   257
 93
        1
300
CONTENTFORMAT
  1
CONTENTFORMAT_BEGIN
 90
        0
 91
        0
 92
        4
 93
        0
300

 40
0.0
140
1.0
 94
        2
 62
     0
340
11
144
4.5
309
CONTENTFORMAT_END
171
     1
301
MARGIN
  1
CELLMARGIN_BEGIN
 40
1.5
 40
1.5
 40
1.5
 40
1.5
 40
1.5
 40
1.5
309
CELLMARGIN_END
 94
        6
 95
        1
302
GRIDFORMAT
  1
GRIDFORMAT_BEGIN
 90
        0
 91
        1
 62
     0
 92
       -2
340
14
 93
        0
 40
0.045
309
GRIDFORMAT_END
 95
        2
302
GRIDFORMAT
  1
GRIDFORMAT_BEGIN
 90
        0
 91
        1
 62
     0
 92
       -2
340
14
 93
        0
 40
0.045
309
GRIDFORMAT_END
 95
        4
302
GRIDFORMAT
  1
GRIDFORMAT_BEGIN
 90
        0
 91
        1
 62
     0
 92
       -2
340
14
 93
        0
 40
0.045
309
GRIDFORMAT_END
 95
        8
302
GRIDFORMAT
  1
GRIDFORMAT_BEGIN
 90
        0
 91
        1
 62
     0
 92
       -2
340
14
 93
        0
 40
0.045
309
GRIDFORMAT_END
 95
       16
302
GRIDFORMAT
  1
GRIDFORMAT_BEGIN
 90
        0
 91
        1
 62
     0
 92
       -2
340
14
 93
        0
 40
0.045
309
GRIDFORMAT_END
 95
       32
302
GRIDFORMAT
  1
GRIDFORMAT_BEGIN
 90
        0
 91
        1
 62
     0
 92
       -2
340
14
 93
        0
 40
0.045
309
GRIDFORMAT_END
309
TABLEFORMAT_END
  1
CELLSTYLE_BEGIN
 90
        3
 91
        2
300
_DATA
309
CELLSTYLE_END
  0
ENDSEC
  0
EOF
