  0
SECTION
  2
HEADER
  9
$ACADVER
  1
AC1024
  9
$ACADMAINTVER
 70
     6
  9
$DWGCODEPAGE
  3
ANSI_1254
  9
$LASTSAVEDBY
  1
Mehmet
  9
$INSBASE
 10
0.0
 20
0.0
 30
0.0
  9
$EXTMIN
 10
644446.8937904101
 20
4144710.968
 30
0.0
  9
$EXTMAX
 10
644700.7165857179
 20
4145051.417
 30
2250.8359375
  9
$LIMMIN
 10
0.0
 20
0.0
  9
$LIMMAX
 10
420.0
 20
297.0
  9
$ORTHOMODE
 70
     0
  9
$REGENMODE
 70
     1
  9
$FILLMODE
 70
     1
  9
$QTEXTMODE
 70
     0
  9
$MIRRTEXT
 70
     1
  9
$LTSCALE
 40
1.0
  9
$ATTMODE
 70
     1
  9
$TEXTSIZE
 40
2.5
  9
$TRACEWID
 40
1.0
  9
$TEXTSTYLE
  7
Standard
  9
$CLAYER
  8
GEOFENCE
  9
$CELTYPE
  6
ByLayer
  9
$CECOLOR
 62
   256
  9
$CELTSCALE
 40
1.0
  9
$DISPSILH
 70
     0
  9
$DIMSCALE
 40
1.0
  9
$DIMASZ
 40
2.5
  9
$DIMEXO
 40
0.625
  9
$DIMDLI
 40
3.75
  9
$DIMRND
 40
0.0
  9
$DIMDLE
 40
0.0
  9
$DIMEXE
 40
1.25
  9
$DIMTP
 40
0.0
  9
$DIMTM
 40
0.0
  9
$DIMTXT
 40
2.5
  9
$DIMCEN
 40
2.5
  9
$DIMTSZ
 40
0.0
  9
$DIMTOL
 70
     0
  9
$DIMLIM
 70
     0
  9
$DIMTIH
 70
     0
  9
$DIMTOH
 70
     0
  9
$DIMSE1
 70
     0
  9
$DIMSE2
 70
     0
  9
$DIMTAD
 70
     1
  9
$DIMZIN
 70
     8
  9
$DIMBLK
  1

  9
$DIMASO
 70
     1
  9
$DIMSHO
 70
     1
  9
$DIMPOST
  1

  9
$DIMAPOST
  1

  9
$DIMALT
 70
     0
  9
$DIMALTD
 70
     3
  9
$DIMALTF
 40
0.03937007874016
  9
$DIMLFAC
 40
1.0
  9
$DIMTOFL
 70
     1
  9
$DIMTVP
 40
0.0
  9
$DIMTIX
 70
     0
  9
$DIMSOXD
 70
     0
  9
$DIMSAH
 70
     0
  9
$DIMBLK1
  1

  9
$DIMBLK2
  1

  9
$DIMSTYLE
  2
ISO-25
  9
$DIMCLRD
 70
     0
  9
$DIMCLRE
 70
     0
  9
$DIMCLRT
 70
     0
  9
$DIMTFAC
 40
1.0
  9
$DIMGAP
 40
0.625
  9
$DIMJUST
 70
     0
  9
$DIMSD1
 70
     0
  9
$DIMSD2
 70
     0
  9
$DIMTOLJ
 70
     0
  9
$DIMTZIN
 70
     8
  9
$DIMALTZ
 70
     0
  9
$DIMALTTZ
 70
     0
  9
$DIMUPT
 70
     0
  9
$DIMDEC
 70
     2
  9
$DIMTDEC
 70
     2
  9
$DIMALTU
 70
     2
  9
$DIMALTTD
 70
     3
  9
$DIMTXSTY
  7
Standard
  9
$DIMAUNIT
 70
     0
  9
$DIMADEC
 70
     0
  9
$DIMALTRND
 40
0.0
  9
$DIMAZIN
 70
     0
  9
$DIMDSEP
 70
    44
  9
$DIMATFIT
 70
     3
  9
$DIMFRAC
 70
     0
  9
$DIMLDRBLK
  1

  9
$DIMLUNIT
 70
     2
  9
$DIMLWD
 70
    -2
  9
$DIMLWE
 70
    -2
  9
$DIMTMOVE
 70
     0
  9
$DIMFXL
 40
1.0
  9
$DIMFXLON
 70
     0
  9
$DIMJOGANG
 40
0.7853981633974483
  9
$DIMTFILL
 70
     0
  9
$DIMTFILLCLR
 70
     0
  9
$DIMARCSYM
 70
     0
  9
$DIMLTYPE
  6

  9
$DIMLTEX1
  6

  9
$DIMLTEX2
  6

  9
$DIMTXTDIRECTION
 70
     0
  9
$LUNITS
 70
     2
  9
$LUPREC
 70
     4
  9
$SKETCHINC
 40
1.0
  9
$FILLETRAD
 40
10.0
  9
$AUNITS
 70
     0
  9
$AUPREC
 70
     0
  9
$MENU
  1
.
  9
$ELEVATION
 40
0.0
  9
$PELEVATION
 40
0.0
  9
$THICKNESS
 40
0.0
  9
$LIMCHECK
 70
     0
  9
$CHAMFERA
 40
10.0
  9
$CHAMFERB
 40
10.0
  9
$CHAMFERC
 40
20.0
  9
$CHAMFERD
 40
0.0
  9
$SKPOLY
 70
     0
  9
$TDCREATE
 40
2457794.768719769
  9
$TDUCREATE
 40
2457794.643719769
  9
$TDUPDATE
 40
2457796.632078785
  9
$TDUUPDATE
 40
2457796.507078785
  9
$TDINDWG
 40
0.0040951389
  9
$TDUSRTIMER
 40
2457796.498032731
  9
$USRTIMER
 70
     1
  9
$ANGBASE
 50
0.0
  9
$ANGDIR
 70
     0
  9
$PDMODE
 70
     0
  9
$PDSIZE
 40
0.0
  9
$PLINEWID
 40
0.0
  9
$SPLFRAME
 70
     0
  9
$SPLINETYPE
 70
     6
  9
$SPLINESEGS
 70
     8
  9
$HANDSEED
  5
423
  9
$SURFTAB1
 70
     6
  9
$SURFTAB2
 70
     6
  9
$SURFTYPE
 70
     6
  9
$SURFU
 70
     6
  9
$SURFV
 70
     6
  9
$UCSBASE
  2

  9
$UCSNAME
  2

  9
$UCSORG
 10
0.0
 20
0.0
 30
0.0
  9
$UCSXDIR
 10
1.0
 20
0.0
 30
0.0
  9
$UCSYDIR
 10
0.0
 20
1.0
 30
0.0
  9
$UCSORTHOREF
  2

  9
$UCSORTHOVIEW
 70
     0
  9
$UCSORGTOP
 10
0.0
 20
0.0
 30
0.0
  9
$UCSORGBOTTOM
 10
0.0
 20
0.0
 30
0.0
  9
$UCSORGLEFT
 10
0.0
 20
0.0
 30
0.0
  9
$UCSORGRIGHT
 10
0.0
 20
0.0
 30
0.0
  9
$UCSORGFRONT
 10
0.0
 20
0.0
 30
0.0
  9
$UCSORGBACK
 10
0.0
 20
0.0
 30
0.0
  9
$PUCSBASE
  2

  9
$PUCSNAME
  2

  9
$PUCSORG
 10
0.0
 20
0.0
 30
0.0
  9
$PUCSXDIR
 10
1.0
 20
0.0
 30
0.0
  9
$PUCSYDIR
 10
0.0
 20
1.0
 30
0.0
  9
$PUCSORTHOREF
  2

  9
$PUCSORTHOVIEW
 70
     0
  9
$PUCSORGTOP
 10
0.0
 20
0.0
 30
0.0
  9
$PUCSORGBOTTOM
 10
0.0
 20
0.0
 30
0.0
  9
$PUCSORGLEFT
 10
0.0
 20
0.0
 30
0.0
  9
$PUCSORGRIGHT
 10
0.0
 20
0.0
 30
0.0
  9
$PUCSORGFRONT
 10
0.0
 20
0.0
 30
0.0
  9
$PUCSORGBACK
 10
0.0
 20
0.0
 30
0.0
  9
$USERI1
 70
     0
  9
$USERI2
 70
     0
  9
$USERI3
 70
     0
  9
$USERI4
 70
     0
  9
$USERI5
 70
     0
  9
$USERR1
 40
0.0
  9
$USERR2
 40
0.0
  9
$USERR3
 40
0.0
  9
$USERR4
 40
0.0
  9
$USERR5
 40
0.0
  9
$WORLDVIEW
 70
     1
  9
$SHADEDGE
 70
     3
  9
$SHADEDIF
 70
    70
  9
$TILEMODE
 70
     1
  9
$MAXACTVP
 70
    64
  9
$PINSBASE
 10
0.0
 20
0.0
 30
0.0
  9
$PLIMCHECK
 70
     0
  9
$PEXTMIN
 10
1.000000000000000E+20
 20
1.000000000000000E+20
 30
1.000000000000000E+20
  9
$PEXTMAX
 10
-1.000000000000000E+20
 20
-1.000000000000000E+20
 30
-1.000000000000000E+20
  9
$PLIMMIN
 10
0.0
 20
0.0
  9
$PLIMMAX
 10
0.0
 20
0.0
  9
$UNITMODE
 70
     0
  9
$VISRETAIN
 70
     1
  9
$PLINEGEN
 70
     0
  9
$PSLTSCALE
 70
     1
  9
$TREEDEPTH
 70
  3020
  9
$CMLSTYLE
  2
Standard
  9
$CMLJUST
 70
     0
  9
$CMLSCALE
 40
20.0
  9
$PROXYGRAPHICS
 70
     1
  9
$MEASUREMENT
 70
     1
  9
$CELWEIGHT
370
    -1
  9
$ENDCAPS
280
     0
  9
$JOINSTYLE
280
     0
  9
$LWDISPLAY
290
     0
  9
$INSUNITS
 70
     4
  9
$HYPERLINKBASE
  1

  9
$STYLESHEET
  1

  9
$XEDIT
290
     1
  9
$CEPSNTYPE
380
     0
  9
$PSTYLEMODE
290
     1
  9
$FINGERPRINTGUID
  2
{9B3AC39A-093C-4AEF-8E84-09769C65DBCC}
  9
$VERSIONGUID
  2
{FAEB1C32-E019-11D5-929B-00C0DF256EC4}
  9
$EXTNAMES
290
     1
  9
$PSVPSCALE
 40
0.0
  9
$OLESTARTUP
290
     0
  9
$SORTENTS
280
   127
  9
$INDEXCTL
280
     0
  9
$HIDETEXT
280
     1
  9
$XCLIPFRAME
280
     0
  9
$HALOGAP
280
     0
  9
$OBSCOLOR
 70
   257
  9
$OBSLTYPE
280
     0
  9
$INTERSECTIONDISPLAY
280
     0
  9
$INTERSECTIONCOLOR
 70
   257
  9
$DIMASSOC
280
     2
  9
$PROJECTNAME
  1

  9
$CAMERADISPLAY
290
     0
  9
$LENSLENGTH
 40
50.0
  9
$CAMERAHEIGHT
 40
0.0
  9
$STEPSPERSEC
 40
2.0
  9
$STEPSIZE
 40
6.0
  9
$3DDWFPREC
 40
2.0
  9
$PSOLWIDTH
 40
5.0
  9
$PSOLHEIGHT
 40
80.0
  9
$LOFTANG1
 40
1.570796326794897
  9
$LOFTANG2
 40
1.570796326794897
  9
$LOFTMAG1
 40
0.0
  9
$LOFTMAG2
 40
0.0
  9
$LOFTPARAM
 70
     7
  9
$LOFTNORMALS
280
     1
  9
$LATITUDE
 40
37.795
  9
$LONGITUDE
 40
-122.394
  9
$NORTHDIRECTION
 40
0.0
  9
$TIMEZONE
 70
 -8000
  9
$LIGHTGLYPHDISPLAY
280
     1
  9
$TILEMODELIGHTSYNCH
280
     1
  9
$SOLIDHIST
280
     1
  9
$SHOWHIST
280
     1
  9
$DWFFRAME
280
     2
  9
$DGNFRAME
280
     2
  9
$REALWORLDSCALE
290
     1
  9
$INTERFERECOLOR
 62
   256
  9
$CSHADOW
280
     0
  9
$SHADOWPLANELOCATION
 40
0.0
  0
ENDSEC
  0
SECTION
  2
CLASSES
  0
CLASS
  1
ACDBDICTIONARYWDFLT
  2
AcDbDictionaryWithDefault
  3
ObjectDBX Classes
 90
        0
 91
        6
280
     0
281
     0
  0
CLASS
  1
VISUALSTYLE
  2
AcDbVisualStyle
  3
ObjectDBX Classes
 90
     4095
 91
        6
280
     0
281
     0
  0
CLASS
  1
MATERIAL
  2
AcDbMaterial
  3
ObjectDBX Classes
 90
     1153
 91
        6
280
     0
281
     0
  0
CLASS
  1
SCALE
  2
AcDbScale
  3
ObjectDBX Classes
 90
     1153
 91
        6
280
     0
281
     0
  0
CLASS
  1
TABLESTYLE
  2
AcDbTableStyle
  3
ObjectDBX Classes
 90
     4095
 91
        6
280
     0
281
     0
  0
CLASS
  1
MLEADERSTYLE
  2
AcDbMLeaderStyle
  3
ACDB_MLEADERSTYLE_CLASS
 90
     4095
 91
        6
280
     0
281
     0
  0
CLASS
  1
SUN
  2
AcDbSun
  3
SCENEOE
 90
     1153
 91
        6
280
     0
281
     0
  0
CLASS
  1
RASTERVARIABLES
  2
AcDbRasterVariables
  3
ISM
 90
        0
 91
        6
280
     0
281
     0
  0
CLASS
  1
DICTIONARYVAR
  2
AcDbDictionaryVar
  3
ObjectDBX Classes
 90
        0
 91
        6
280
     0
281
     0
  0
CLASS
  1
CELLSTYLEMAP
  2
AcDbCellStyleMap
  3
ObjectDBX Classes
 90
     1152
 91
        5
280
     0
281
     0
  0
ENDSEC
  0
SECTION
  2
TABLES
  0
TABLE
  2
VPORT
  5
8
330
0
100
AcDbSymbolTable
 70
     1
  0
VPORT
  5
29
330
8
100
AcDbSymbolTableRecord
100
AcDbViewportTableRecord
  2
*Active
 70
     0
 10
0.0
 20
0.0
 11
1.0
 21
1.0
 12
644483.1530365347
 22
4144723.020215249
 13
0.0
 23
0.0
 14
10.0
 24
10.0
 15
10.0
 25
10.0
 16
0.0
 26
0.0
 36
1.0
 17
0.0
 27
0.0
 37
0.0
 40
23.86338667800191
 41
2.106082036775106
 42
50.0
 43
0.0
 44
0.0
 50
0.0
 51
0.0
 71
    16
 72
   100
 73
     1
 74
     3
 75
     0
 76
     0
 77
     0
 78
     0
281
     0
 65
     1
110
0.0
120
0.0
130
0.0
111
1.0
121
0.0
131
0.0
112
0.0
122
1.0
132
0.0
 79
     0
146
0.0
348
2F
 60
     3
 61
     5
292
     1
282
     1
141
0.0
142
0.0
 63
   250
361
345
  0
ENDTAB
  0
TABLE
  2
LTYPE
  5
5
330
0
100
AcDbSymbolTable
 70
     1
  0
LTYPE
  5
14
330
5
100
AcDbSymbolTableRecord
100
AcDbLinetypeTableRecord
  2
ByBlock
 70
     0
  3

 72
    65
 73
     0
 40
0.0
  0
LTYPE
  5
15
330
5
100
AcDbSymbolTableRecord
100
AcDbLinetypeTableRecord
  2
ByLayer
 70
     0
  3

 72
    65
 73
     0
 40
0.0
  0
LTYPE
  5
16
330
5
100
AcDbSymbolTableRecord
100
AcDbLinetypeTableRecord
  2
Continuous
 70
     0
  3
Solid line
 72
    65
 73
     0
 40
0.0
  0
ENDTAB
  0
TABLE
  2
LAYER
  5
2
102
{ACAD_XDICTIONARY
360
347
102
}
330
0
100
AcDbSymbolTable
 70
     6
  0
LAYER
  5
10
330
2
100
AcDbSymbolTableRecord
100
AcDbLayerTableRecord
  2
0
 70
     0
 62
     5
  6
Continuous
370
     0
390
F
347
3E
  0
LAYER
  5
3F
330
2
100
AcDbSymbolTableRecord
100
AcDbLayerTableRecord
  2
2240
 70
     0
 62
     6
  6
Continuous
370
     0
390
F
347
3E
  0
LAYER
  5
354
330
2
100
AcDbSymbolTableRecord
100
AcDbLayerTableRecord
  2
INIT_COORD
 70
     0
 62
     5
  6
Continuous
370
     0
390
F
347
3E
1001
AcAecLayerStandard
1000

1000

  0
LAYER
  5
356
330
2
100
AcDbSymbolTableRecord
100
AcDbLayerTableRecord
  2
GEOFENCE
 70
     0
 62
     3
  6
Continuous
370
     0
390
F
347
3E
1001
AcAecLayerStandard
1000

1000

  0
LAYER
  5
357
330
2
100
AcDbSymbolTableRecord
100
AcDbLayerTableRecord
  2
TEXT_BLUE
 70
     0
 62
     5
  6
Continuous
370
     0
390
F
347
3E
1001
AcAecLayerStandard
1000

1000

  0
LAYER
  5
366
330
2
100
AcDbSymbolTableRecord
100
AcDbLayerTableRecord
  2
GEOFENCE_REFERENCES
 70
     0
 62
     4
  6
Continuous
370
     0
390
F
347
3E
1001
AcAecLayerStandard
1000

1000

  0
ENDTAB
  0
TABLE
  2
STYLE
  5
3
330
0
100
AcDbSymbolTable
 70
     1
  0
STYLE
  5
11
330
3
100
AcDbSymbolTableRecord
100
AcDbTextStyleTableRecord
  2
Standard
 70
     0
 40
0.0
 41
1.0
 50
0.0
 71
     0
 42
2.5
  3
C:\Windows\Font\TIMES.TTF
  4

  0
ENDTAB
  0
TABLE
  2
VIEW
  5
6
330
0
100
AcDbSymbolTable
 70
     0
  0
ENDTAB
  0
TABLE
  2
UCS
  5
7
330
0
100
AcDbSymbolTable
 70
     0
  0
ENDTAB
  0
TABLE
  2
APPID
  5
9
330
0
100
AcDbSymbolTable
 70
     2
  0
APPID
  5
12
330
9
100
AcDbSymbolTableRecord
100
AcDbRegAppTableRecord
  2
ACAD
 70
     0
  0
APPID
  5
355
330
9
100
AcDbSymbolTableRecord
100
AcDbRegAppTableRecord
  2
AcAecLayerStandard
 70
     0
  0
ENDTAB
  0
TABLE
  2
DIMSTYLE
  5
A
330
0
100
AcDbSymbolTable
 70
     1
100
AcDbDimStyleTable
  0
DIMSTYLE
105
27
330
A
100
AcDbSymbolTableRecord
100
AcDbDimStyleTableRecord
  2
ISO-25
 70
     0
 41
2.5
 42
0.625
 43
3.75
 44
1.25
 73
     0
 74
     0
 77
     1
 78
     8
140
2.5
141
2.5
143
0.03937007874016
147
0.625
171
     3
172
     1
178
     0
271
     2
272
     2
274
     3
278
    44
283
     0
284
     8
340
11
  0
ENDTAB
  0
TABLE
  2
BLOCK_RECORD
  5
1
330
0
100
AcDbSymbolTable
 70
     1
  0
BLOCK_RECORD
  5
1F
330
1
100
AcDbSymbolTableRecord
100
AcDbBlockTableRecord
  2
*Model_Space
340
22
 70
     0
280
     1
281
     0
  0
BLOCK_RECORD
  5
1B
330
1
100
AcDbSymbolTableRecord
100
AcDbBlockTableRecord
  2
*Paper_Space
340
1E
 70
     0
280
     1
281
     0
  0
BLOCK_RECORD
  5
23
330
1
100
AcDbSymbolTableRecord
100
AcDbBlockTableRecord
  2
*Paper_Space0
340
26
 70
     0
280
     1
281
     0
  0
ENDTAB
  0
ENDSEC
  0
SECTION
  2
BLOCKS
  0
BLOCK
  5
20
330
1F
100
AcDbEntity
  8
0
100
AcDbBlockBegin
  2
*Model_Space
 70
     0
 10
0.0
 20
0.0
 30
0.0
  3
*Model_Space
  1
*Model_Space
  0
ENDBLK
  5
21
330
1F
100
AcDbEntity
  8
0
100
AcDbBlockEnd
  0
BLOCK
  5
1C
330
1B
100
AcDbEntity
 67
     1
  8
0
100
AcDbBlockBegin
  2
*Paper_Space
 70
     0
 10
0.0
 20
0.0
 30
0.0
  3
*Paper_Space
  1
*Paper_Space
  0
ENDBLK
  5
1D
330
1B
100
AcDbEntity
 67
     1
  8
0
100
AcDbBlockEnd
  0
BLOCK
  5
24
330
23
100
AcDbEntity
  8
0
100
AcDbBlockBegin
  2
*Paper_Space0
 70
     0
 10
0.0
 20
0.0
 30
0.0
  3
*Paper_Space0
  1
*Paper_Space0
  0
ENDBLK
  5
25
330
23
100
AcDbEntity
  8
0
100
AcDbBlockEnd
  0
ENDSEC
  0
SECTION
  2
ENTITIES
  0
LINE
  5
40
330
1F
100
AcDbEntity
  8
2240
370
     0
100
AcDbLine
 10
644476.53179041
 20
4144719.81
 30
2227.2939453125
 11
644474.8507904101
 21
4144718.069
 31
2227.673095703125
  0
LINE
  5
41
330
1F
100
AcDbEntity
  8
2240
370
     0
100
AcDbLine
 10
644478.5877904102
 20
4144722.75
 30
2226.72607421875
 11
644476.53179041
 21
4144719.81
 31
2227.2939453125
  0
LINE
  5
42
330
1F
100
AcDbEntity
  8
2240
370
     0
100
AcDbLine
 10
644450.70579041
 20
4144737.699
 30
2234.077880859375
 11
644451.7537904101
 21
4144741.967
 31
2234.93701171875
  0
LINE
  5
43
330
1F
100
AcDbEntity
  8
2240
370
     0
100
AcDbLine
 10
644451.7537904101
 20
4144741.967
 30
2234.93701171875
 11
644454.3067904101
 21
4144746.128
 31
2235.741943359375
  0
LINE
  5
44
330
1F
100
AcDbEntity
  8
2240
370
     0
100
AcDbLine
 10
644454.3067904101
 20
4144746.128
 30
2235.741943359375
 11
644457.1817904101
 21
4144749.781
 31
2236.510986328125
  0
LINE
  5
45
330
1F
100
AcDbEntity
  8
2240
370
     0
100
AcDbLine
 10
644451.6267904101
 20
4144727.285
 30
2231.989013671875
 11
644450.6357904101
 21
4144731.369
 31
2232.72998046875
  0
LINE
  5
46
330
1F
100
AcDbEntity
  8
2240
370
     0
100
AcDbLine
 10
644450.6357904101
 20
4144731.369
 30
2232.72998046875
 11
644450.33079041
 21
4144733.011
 31
2233.073974609375
  0
LINE
  5
47
330
1F
100
AcDbEntity
  8
2240
370
     0
100
AcDbLine
 10
644450.33079041
 20
4144733.011
 30
2233.073974609375
 11
644450.70579041
 21
4144737.699
 31
2234.077880859375
  0
LINE
  5
48
330
1F
100
AcDbEntity
  8
2240
370
     0
100
AcDbLine
 10
644457.1817904101
 20
4144749.781
 30
2236.510986328125
 11
644462.4347904101
 21
4144756.708
 31
2237.56201171875
  0
LINE
  5
49
330
1F
100
AcDbEntity
  8
2240
370
     0
100
AcDbLine
 10
644462.4347904101
 20
4144756.708
 30
2237.56201171875
 11
644463.4591633161
 21
4144757.838
 31
2237.862060546875
  0
LINE
  5
4A
330
1F
100
AcDbEntity
  8
2240
370
     0
100
AcDbLine
 10
644463.1987904101
 20
4144715.418
 30
2229.89599609375
 11
644464.0747904101
 21
4144716.588
 31
2229.548095703125
  0
LINE
  5
4B
330
1F
100
AcDbEntity
  8
2240
370
     0
100
AcDbLine
 10
644474.8507904101
 20
4144718.069
 30
2227.673095703125
 11
644471.0937904101
 21
4144716.18
 31
2228.326904296875
  0
LINE
  5
4C
330
1F
100
AcDbEntity
  8
2240
370
     0
100
AcDbLine
 10
644471.0937904101
 20
4144716.18
 30
2228.326904296875
 11
644467.8597904101
 21
4144715.636
 31
2229.10400390625
  0
LINE
  5
4D
330
1F
100
AcDbEntity
  8
2240
370
     0
100
AcDbLine
 10
644464.0747904101
 20
4144716.588
 30
2229.548095703125
 11
644464.92879041
 21
4144716.585
 31
2229.486083984375
  0
LINE
  5
4E
330
1F
100
AcDbEntity
  8
2240
370
     0
100
AcDbLine
 10
644458.6317904101
 20
4144718.633
 30
2230.5859375
 11
644455.86979041
 21
4144721.467
 31
2231.02099609375
  0
LINE
  5
4F
330
1F
100
AcDbEntity
  8
2240
370
     0
100
AcDbLine
 10
644455.86979041
 20
4144721.467
 30
2231.02099609375
 11
644453.6057904101
 21
4144724.354
 31
2231.595947265625
  0
LINE
  5
50
330
1F
100
AcDbEntity
  8
2240
370
     0
100
AcDbLine
 10
644453.6057904101
 20
4144724.354
 30
2231.595947265625
 11
644451.6267904101
 21
4144727.285
 31
2231.989013671875
  0
LINE
  5
51
330
1F
100
AcDbEntity
  8
2240
370
     0
100
AcDbLine
 10
644464.92879041
 20
4144716.585
 30
2229.486083984375
 11
644466.7287904101
 21
4144716.399
 31
2229.31005859375
  0
LINE
  5
52
330
1F
100
AcDbEntity
  8
2240
370
     0
100
AcDbLine
 10
644466.7287904101
 20
4144716.399
 30
2229.31005859375
 11
644467.8597904101
 21
4144715.636
 31
2229.10400390625
  0
LINE
  5
53
330
1F
100
AcDbEntity
  8
2240
370
     0
100
AcDbLine
 10
644463.1987904101
 20
4144715.418
 30
2229.89599609375
 11
644458.6317904101
 21
4144718.633
 31
2230.5859375
  0
LINE
  5
54
330
1F
100
AcDbEntity
  8
2240
370
     0
100
AcDbLine
 10
644459.220163316
 20
4144758.247
 30
2237.427001953125
 11
644456.9757904101
 21
4144755.487
 31
2237.083984375
  0
LINE
  5
55
330
1F
100
AcDbEntity
  8
2240
370
     0
100
AcDbLine
 10
644456.9757904101
 20
4144755.487
 30
2237.083984375
 11
644453.3137904101
 21
4144750.677
 31
2236.052978515625
  0
LINE
  5
56
330
1F
100
AcDbEntity
  8
2240
370
     0
100
AcDbLine
 10
644453.3137904101
 20
4144750.677
 30
2236.052978515625
 11
644451.3657904101
 21
4144748.117
 31
2235.760009765625
  0
LINE
  5
57
330
1F
100
AcDbEntity
  8
2240
370
     0
100
AcDbLine
 10
644447.5597904101
 20
4144729.453
 30
2232.659912109375
 11
644448.8317904101
 21
4144724.562
 31
2231.863037109375
  0
LINE
  5
58
330
1F
100
AcDbEntity
  8
2240
370
     0
100
AcDbLine
 10
644451.3657904101
 20
4144748.117
 30
2235.760009765625
 11
644448.27179041
 21
4144741.292
 31
2234.555908203125
  0
LINE
  5
59
330
1F
100
AcDbEntity
  8
2240
370
     0
100
AcDbLine
 10
644448.27179041
 20
4144741.292
 30
2234.555908203125
 11
644446.8937904101
 21
4144734.71
 31
2233.52587890625
  0
LINE
  5
5A
330
1F
100
AcDbEntity
  8
2240
370
     0
100
AcDbLine
 10
644446.8937904101
 20
4144734.71
 30
2233.52587890625
 11
644447.5597904101
 21
4144729.453
 31
2232.659912109375
  0
LINE
  5
5B
330
1F
100
AcDbEntity
  8
2240
370
     0
100
AcDbLine
 10
644481.9837904101
 20
4144721.739
 30
2226.466064453125
 11
644483.4747904101
 21
4144724.488
 31
2226.10693359375
  0
LINE
  5
5C
330
1F
100
AcDbEntity
  8
2240
370
     0
100
AcDbLine
 10
644483.4747904101
 20
4144724.488
 30
2226.10693359375
 11
644484.2737904101
 21
4144727.961
 31
2225.693115234375
  0
LINE
  5
5D
330
1F
100
AcDbEntity
  8
2240
370
     0
100
AcDbLine
 10
644481.1627904101
 20
4144728.893
 30
2225.678955078125
 11
644480.0837904101
 21
4144725.753
 31
2226.126953125
  0
LINE
  5
5E
330
1F
100
AcDbEntity
  8
2240
370
     0
100
AcDbLine
 10
644480.0837904101
 20
4144725.753
 30
2226.126953125
 11
644478.5877904102
 21
4144722.75
 31
2226.72607421875
  0
LINE
  5
5F
330
1F
100
AcDbEntity
  8
2240
370
     0
100
AcDbLine
 10
644456.11979041
 20
4144716.343
 30
2230.625
 11
644460.08079041
 21
4144713.239
 31
2230.18603515625
  0
LINE
  5
60
330
1F
100
AcDbEntity
  8
2240
370
     0
100
AcDbLine
 10
644460.08079041
 20
4144713.239
 30
2230.18603515625
 11
644465.5157904101
 21
4144710.968
 31
2230.01904296875
  0
LINE
  5
61
330
1F
100
AcDbEntity
  8
2240
370
     0
100
AcDbLine
 10
644448.8317904101
 20
4144724.562
 30
2231.596923828125
 11
644453.12479041
 21
4144719.089
 31
2230.952880859375
  0
LINE
  5
62
330
1F
100
AcDbEntity
  8
2240
370
     0
100
AcDbLine
 10
644453.12479041
 20
4144719.089
 30
2230.952880859375
 11
644456.11979041
 21
4144716.343
 31
2230.625
  0
LINE
  5
63
330
1F
100
AcDbEntity
  8
2240
370
     0
100
AcDbLine
 10
644473.8642141593
 20
4144713.441604591
 30
2228.22509765625
 11
644478.1597904101
 21
4144716.847
 31
2227.41796875
  0
LINE
  5
64
330
1F
100
AcDbEntity
  8
2240
370
     0
100
AcDbLine
 10
644478.1597904101
 20
4144716.847
 30
2227.41796875
 11
644481.9837904101
 21
4144721.739
 31
2226.466064453125
  0
LINE
  5
65
330
1F
100
AcDbEntity
  8
2240
370
     0
100
AcDbLine
 10
644465.5157904101
 20
4144710.968
 30
2229.407958984375
 11
644468.9587904101
 21
4144711.417
 31
2228.93505859375
  0
LINE
  5
66
330
1F
100
AcDbEntity
  8
2240
370
     0
100
AcDbLine
 10
644546.6561472765
 20
4144798.041272403
 30
2244.10009765625
 11
644543.8448680883
 21
4144796.965053176
 31
2244.2451171875
  0
LINE
  5
67
330
1F
100
AcDbEntity
  8
2240
370
     0
100
AcDbLine
 10
644538.8752038429
 20
4144799.977946061
 30
2246.177978515625
 11
644539.9791472765
 21
4144797.873272403
 31
2243.760009765625
  0
LINE
  5
68
330
1F
100
AcDbEntity
  8
2240
370
     0
100
AcDbLine
 10
644543.8448680883
 20
4144796.965053176
 30
2244.02490234375
 11
644539.9791472765
 21
4144797.873272403
 31
2243.760009765625
  0
LINE
  5
69
330
1F
100
AcDbEntity
  8
2240
370
     0
100
AcDbLine
 10
644558.6946737097
 20
4144804.416127805
 30
2244.135986328125
 11
644546.6561472765
 21
4144798.041272403
 31
2244.10009765625
  0
LINE
  5
6A
330
1F
100
AcDbEntity
  8
2240
370
     0
100
AcDbLine
 10
644578.9668966633
 20
4144820.489312309
 30
2246.31689453125
 11
644580.9332756888
 21
4144824.272756543
 31
2246.708984375
  0
LINE
  5
6B
330
1F
100
AcDbEntity
  8
2240
370
     0
100
AcDbLine
 10
644580.9332756888
 20
4144824.272756543
 30
2246.708984375
 11
644581.901714425
 21
4144826.830635822
 31
2246.89306640625
  0
LINE
  5
6C
330
1F
100
AcDbEntity
  8
2240
370
     0
100
AcDbLine
 10
644581.901714425
 20
4144826.830635822
 30
2246.89306640625
 11
644583.6066825031
 21
4144829.444891641
 31
2247.242919921875
  0
LINE
  5
6D
330
1F
100
AcDbEntity
  8
2240
370
     0
100
AcDbLine
 10
644575.5918083088
 20
4144817.406262628
 30
2245.89892578125
 11
644578.9668966633
 21
4144820.489312309
 31
2246.31689453125
  0
LINE
  5
6E
330
1F
100
AcDbEntity
  8
2240
370
     0
100
AcDbLine
 10
644565.9149958905
 20
4144810.035870877
 30
2245.118896484375
 11
644569.7077573593
 21
4144812.559505547
 31
2245.550048828125
  0
LINE
  5
6F
330
1F
100
AcDbEntity
  8
2240
370
     0
100
AcDbLine
 10
644569.7077573593
 20
4144812.559505547
 30
2245.550048828125
 11
644573.070134936
 21
4144815.060468961
 31
2245.7939453125
  0
LINE
  5
70
330
1F
100
AcDbEntity
  8
2240
370
     0
100
AcDbLine
 10
644573.070134936
 20
4144815.060468961
 30
2245.7939453125
 11
644575.5918083088
 21
4144817.406262628
 31
2245.89892578125
  0
LINE
  5
71
330
1F
100
AcDbEntity
  8
2240
370
     0
100
AcDbLine
 10
644583.6066825031
 20
4144829.444891641
 30
2247.242919921875
 11
644587.8752132219
 21
4144832.622507066
 31
2247.406982421875
  0
LINE
  5
72
330
1F
100
AcDbEntity
  8
2240
370
     0
100
AcDbLine
 10
644604.1295571863
 20
4144839.221082013
 30
2248.179931640625
 11
644606.899298849
 21
4144840.030838032
 31
2248.19091796875
  0
LINE
  5
73
330
1F
100
AcDbEntity
  8
2240
370
     0
100
AcDbLine
 10
644606.899298849
 20
4144840.030838032
 30
2248.19091796875
 11
644612.5332790682
 21
4144841.110269557
 31
2248.623046875
  0
LINE
  5
74
330
1F
100
AcDbEntity
  8
2240
370
     0
100
AcDbLine
 10
644612.5332790682
 20
4144841.110269557
 30
2248.623046875
 11
644615.5493055017
 21
4144841.409261449
 31
2248.85791015625
  0
LINE
  5
75
330
1F
100
AcDbEntity
  8
2240
370
     0
100
AcDbLine
 10
644599.1204361311
 20
4144838.544294906
 30
2247.824951171875
 11
644604.1295571863
 21
4144839.221082013
 31
2248.179931640625
  0
LINE
  5
76
330
1F
100
AcDbEntity
  8
2240
370
     0
100
AcDbLine
 10
644587.8752132219
 20
4144832.622507066
 30
2247.406982421875
 11
644589.4746360175
 21
4144834.043072091
 31
2247.552001953125
  0
LINE
  5
77
330
1F
100
AcDbEntity
  8
2240
370
     0
100
AcDbLine
 10
644589.4746360175
 20
4144834.043072091
 30
2247.552001953125
 11
644592.5993688665
 21
4144836.61867786
 31
2247.511962890625
  0
LINE
  5
78
330
1F
100
AcDbEntity
  8
2240
370
     0
100
AcDbLine
 10
644592.5993688665
 20
4144836.61867786
 30
2247.511962890625
 11
644599.1204361311
 21
4144838.544294906
 31
2247.824951171875
  0
LINE
  5
79
330
1F
100
AcDbEntity
  8
2240
370
     0
100
AcDbLine
 10
644594.412554022
 20
4144840.050325346
 30
2247.8349609375
 11
644591.4520040983
 21
4144840.152541066
 31
2247.985107421875
  0
LINE
  5
7A
330
1F
100
AcDbEntity
  8
2240
370
     0
100
AcDbLine
 10
644591.4520040983
 20
4144840.152541066
 30
2247.985107421875
 11
644587.804558703
 21
4144836.734616172
 31
2247.69189453125
  0
LINE
  5
7B
330
1F
100
AcDbEntity
  8
2240
370
     0
100
AcDbLine
 10
644587.804558703
 20
4144836.734616172
 30
2247.69189453125
 11
644585.8510449476
 21
4144835.329920594
 31
2247.43994140625
  0
LINE
  5
7C
330
1F
100
AcDbEntity
  8
2240
370
     0
100
AcDbLine
 10
644602.5086484742
 20
4144841.757520407
 30
2248.02099609375
 11
644594.412554022
 21
4144840.050325346
 31
2247.8349609375
  0
LINE
  5
7D
330
1F
100
AcDbEntity
  8
2240
370
     0
100
AcDbLine
 10
644609.3223501581
 20
4144844.695529218
 30
2249.180908203125
 11
644606.1613708758
 21
4144843.167671133
 31
2248.39892578125
  0
LINE
  5
7E
330
1F
100
AcDbEntity
  8
2240
370
     0
100
AcDbLine
 10
644606.1613708758
 20
4144843.167671133
 30
2248.39892578125
 11
644602.5086484742
 21
4144841.757520407
 31
2248.02099609375
  0
LINE
  5
7F
330
1F
100
AcDbEntity
  8
2240
370
     0
100
AcDbLine
 10
644585.8510449476
 20
4144835.329920594
 30
2247.43994140625
 11
644580.8073895534
 21
4144832.049790456
 31
2247.278076171875
  0
LINE
  5
80
330
1F
100
AcDbEntity
  8
2240
370
     0
100
AcDbLine
 10
644573.0156585971
 20
4144819.366407325
 30
2245.910888671875
 11
644570.4169750782
 21
4144817.296625732
 31
2245.79296875
  0
LINE
  5
81
330
1F
100
AcDbEntity
  8
2240
370
     0
100
AcDbLine
 10
644570.4169750782
 20
4144817.296625732
 30
2245.79296875
 11
644567.267514239
 21
4144814.730391522
 31
2245.51904296875
  0
LINE
  5
82
330
1F
100
AcDbEntity
  8
2240
370
     0
100
AcDbLine
 10
644567.267514239
 20
4144814.730391522
 30
2245.51904296875
 11
644564.7090338939
 21
4144812.683827449
 31
2245.30908203125
  0
LINE
  5
83
330
1F
100
AcDbEntity
  8
2240
370
     0
100
AcDbLine
 10
644575.5534483809
 20
4144821.604430459
 30
2246.1298828125
 11
644573.0156585971
 21
4144819.366407325
 31
2245.910888671875
  0
LINE
  5
84
330
1F
100
AcDbEntity
  8
2240
370
     0
100
AcDbLine
 10
644580.8073895534
 20
4144832.049790456
 30
2247.278076171875
 11
644579.4856791426
 21
4144828.424791043
 31
2247.089111328125
  0
LINE
  5
85
330
1F
100
AcDbEntity
  8
2240
370
     0
100
AcDbLine
 10
644579.4856791426
 20
4144828.424791043
 30
2247.089111328125
 11
644576.4548540165
 21
4144822.592716428
 31
2246.248046875
  0
LINE
  5
86
330
1F
100
AcDbEntity
  8
2240
370
     0
100
AcDbLine
 10
644576.4548540165
 20
4144822.592716428
 30
2246.248046875
 11
644575.5534483809
 21
4144821.604430459
 31
2246.1298828125
  0
LINE
  5
87
330
1F
100
AcDbEntity
  8
2240
370
     0
100
AcDbLine
 10
644615.5493055017
 20
4144841.409261449
 30
2248.85791015625
 11
644619.1670757633
 21
4144843.050924786
 31
2248.198974609375
  0
LINE
  5
88
330
1F
100
AcDbEntity
  8
2240
370
     0
100
AcDbLine
 10
644639.8507318508
 20
4144846.721740454
 30
2246.967041015625
 11
644642.8653927622
 21
4144848.130606373
 31
2246.51904296875
  0
LINE
  5
89
330
1F
100
AcDbEntity
  8
2240
370
     0
100
AcDbLine
 10
644642.8653927622
 20
4144848.130606373
 30
2246.51904296875
 11
644644.8091407794
 21
4144850.440267573
 31
2245.8798828125
  0
LINE
  5
8A
330
1F
100
AcDbEntity
  8
2240
370
     0
100
AcDbLine
 10
644564.7090338939
 20
4144812.683827449
 30
2245.30908203125
 11
644561.158462619
 21
4144810.02973308
 31
2244.722900390625
  0
LINE
  5
8B
330
1F
100
AcDbEntity
  8
2240
370
     0
100
AcDbLine
 10
644636.1451715408
 20
4144845.366223107
 30
2247.033935546875
 11
644639.8507318508
 21
4144846.721740454
 31
2246.967041015625
  0
LINE
  5
8C
330
1F
100
AcDbEntity
  8
2240
370
     0
100
AcDbLine
 10
644619.1670757633
 20
4144843.050924786
 30
2248.198974609375
 11
644626.7671521632
 21
4144844.560362452
 31
2247.825927734375
  0
LINE
  5
8D
330
1F
100
AcDbEntity
  8
2240
370
     0
100
AcDbLine
 10
644626.7671521632
 20
4144844.560362452
 30
2247.825927734375
 11
644631.6031772578
 21
4144844.885685305
 31
2247.552978515625
  0
LINE
  5
8E
330
1F
100
AcDbEntity
  8
2240
370
     0
100
AcDbLine
 10
644631.6031772578
 20
4144844.885685305
 30
2247.552978515625
 11
644636.1451715408
 21
4144845.366223107
 31
2247.033935546875
  0
LINE
  5
8F
330
1F
100
AcDbEntity
  8
2240
370
     0
100
AcDbLine
 10
644563.7797862974
 20
4144808.390342151
 30
2245.135986328125
 11
644565.9149958905
 21
4144810.035870877
 31
2245.118896484375
  0
LINE
  5
90
330
1F
100
AcDbEntity
  8
2240
370
     0
100
AcDbLine
 10
644644.8091407794
 20
4144850.440267573
 30
2245.8798828125
 11
644648.3583730716
 21
4144853.668
 31
2244.513916015625
  0
LINE
  5
91
330
1F
100
AcDbEntity
  8
2240
370
     0
100
AcDbLine
 10
644642.5703624247
 20
4144853.17117413
 30
2245.701904296875
 11
644647.0023730716
 21
4144857.093
 31
2243.97802734375
  0
LINE
  5
92
330
1F
100
AcDbEntity
  8
2240
370
     0
100
AcDbLine
 10
644548.4021472764
 20
4144801.949272403
 30
2244.22705078125
 11
644556.1823389549
 21
4144806.680788729
 31
2244.697998046875
  0
LINE
  5
93
330
1F
100
AcDbEntity
  8
2240
370
     0
100
AcDbLine
 10
644618.0141274948
 20
4144846.727220935
 30
2248.131103515625
 11
644614.6736590103
 21
4144846.729277867
 31
2249.014892578125
  0
LINE
  5
94
330
1F
100
AcDbEntity
  8
2240
370
     0
100
AcDbLine
 10
644689.7535857179
 20
4144887.283
 30
2236.447998046875
 11
644700.7165857179
 21
4144896.016
 31
2235.839111328125
  0
LINE
  5
95
330
1F
100
AcDbEntity
  8
2240
370
     0
100
AcDbLine
 10
644563.7797862974
 20
4144808.390342151
 30
2245.135986328125
 11
644558.6946737097
 21
4144804.416127805
 31
2244.822998046875
  0
LINE
  5
96
330
1F
100
AcDbEntity
  8
2240
370
     0
100
AcDbLine
 10
644556.1823389549
 20
4144806.680788729
 30
2244.697998046875
 11
644561.158462619
 21
4144810.02973308
 31
2244.722900390625
  0
LINE
  5
97
330
1F
100
AcDbEntity
  8
2240
370
     0
100
AcDbLine
 10
644683.1845857179
 20
4144881.307
 30
2237.298095703125
 11
644689.7535857179
 21
4144887.283
 31
2236.447998046875
  0
LINE
  5
98
330
1F
100
AcDbEntity
  8
2240
370
     0
100
AcDbLine
 10
644700.7165857179
 20
4144896.016
 30
2235.548095703125
 11
644696.7249940649
 21
4144897.998978703
 31
2235.653076171875
  0
LINE
  5
99
330
1F
100
AcDbEntity
  8
2240
370
     0
100
AcDbLine
 10
644668.7705857179
 20
4144870.725
 30
2239.972900390625
 11
644677.1485857179
 21
4144876.279
 31
2238.501953125
  0
LINE
  5
9A
330
1F
100
AcDbEntity
  8
2240
370
     0
100
AcDbLine
 10
644677.1485857179
 20
4144876.279
 30
2238.501953125
 11
644683.1845857179
 21
4144881.307
 31
2237.298095703125
  0
LINE
  5
9B
330
1F
100
AcDbEntity
  8
2240
370
     0
100
AcDbLine
 10
644696.7249940649
 20
4144897.998978703
 30
2235.60205078125
 11
644690.7505857178
 21
4144892.365
 31
2235.904052734375
  0
LINE
  5
9C
330
1F
100
AcDbEntity
  8
2240
370
     0
100
AcDbLine
 10
644631.3062017714
 20
4144848.975695505
 30
2247.469970703125
 11
644627.9816857736
 21
4144848.085623426
 31
2247.740966796875
  0
LINE
  5
9D
330
1F
100
AcDbEntity
  8
2240
370
     0
100
AcDbLine
 10
644627.9816857736
 20
4144848.085623426
 30
2247.740966796875
 11
644621.1136999422
 21
4144846.783934559
 31
2247.85791015625
  0
LINE
  5
9E
330
1F
100
AcDbEntity
  8
2240
370
     0
100
AcDbLine
 10
644621.1136999422
 20
4144846.783934559
 30
2247.85791015625
 11
644618.0141274948
 21
4144846.727220935
 31
2248.131103515625
  0
LINE
  5
9F
330
1F
100
AcDbEntity
  8
2240
370
     0
100
AcDbLine
 10
644633.9890035975
 20
4144849.765005576
 30
2247.22900390625
 11
644631.3062017714
 21
4144848.975695505
 31
2247.469970703125
  0
LINE
  5
A0
330
1F
100
AcDbEntity
  8
2240
370
     0
100
AcDbLine
 10
644642.5703624247
 20
4144853.17117413
 30
2245.701904296875
 11
644637.7962188926
 21
4144850.413098603
 31
2246.799072265625
  0
LINE
  5
A1
330
1F
100
AcDbEntity
  8
2240
370
     0
100
AcDbLine
 10
644637.7962188926
 20
4144850.413098603
 30
2246.799072265625
 11
644633.9890035975
 21
4144849.765005576
 31
2247.22900390625
  0
LINE
  5
A2
330
1F
100
AcDbEntity
  8
2240
370
     0
100
AcDbLine
 10
644678.3303730716
 20
4144881.7
 30
2237.592041015625
 11
644670.6823730717
 21
4144876.276
 31
2239.263916015625
  0
LINE
  5
A3
330
1F
100
AcDbEntity
  8
2240
370
     0
100
AcDbLine
 10
644670.6823730717
 20
4144876.276
 30
2239.263916015625
 11
644664.9583190221
 21
4144873.025297866
 31
2240.222900390625
  0
LINE
  5
A4
330
1F
100
AcDbEntity
  8
2240
370
     0
100
AcDbLine
 10
644678.6605857179
 20
4144881.859
 30
2237.72900390625
 11
644678.3303730716
 21
4144881.7
 31
2237.592041015625
  0
LINE
  5
A5
330
1F
100
AcDbEntity
  8
2240
370
     0
100
AcDbLine
 10
644543.9605516663
 20
4144887.652548025
 30
2246.0009765625
 11
644539.5596705572
 21
4144889.064597757
 31
2246.096923828125
  0
LINE
  5
A6
330
1F
100
AcDbEntity
  8
2240
370
     0
100
AcDbLine
 10
644668.4653730716
 20
4144870.28
 30
2240.115966796875
 11
644668.7705857179
 21
4144870.725
 31
2239.972900390625
  0
LINE
  5
A7
330
1F
100
AcDbEntity
  8
2240
370
     0
100
AcDbLine
 10
644659.6223730716
 20
4144862.167
 30
2242.175048828125
 11
644663.6593730716
 21
4144866.103
 31
2240.98291015625
  0
LINE
  5
A8
330
1F
100
AcDbEntity
  8
2240
370
     0
100
AcDbLine
 10
644656.1493730716
 20
4144863.877
 30
2242.31494140625
 11
644647.0023730716
 21
4144857.093
 31
2243.97802734375
  0
LINE
  5
A9
330
1F
100
AcDbEntity
  8
2240
370
     0
100
AcDbLine
 10
644648.3583730716
 20
4144853.668
 30
2244.513916015625
 11
644653.6643730716
 21
4144857.849
 31
2243.240966796875
  0
LINE
  5
AA
330
1F
100
AcDbEntity
  8
2240
370
     0
100
AcDbLine
 10
644653.6643730716
 20
4144857.849
 30
2243.240966796875
 11
644659.6223730716
 21
4144862.167
 31
2242.175048828125
  0
LINE
  5
AB
330
1F
100
AcDbEntity
  8
2240
370
     0
100
AcDbLine
 10
644660.5383730716
 20
4144867.816
 30
2241.10693359375
 11
644656.1493730716
 21
4144863.877
 31
2242.31494140625
  0
LINE
  5
AC
330
1F
100
AcDbEntity
  8
2240
370
     0
100
AcDbLine
 10
644664.9583190221
 20
4144873.025297866
 30
2240.924072265625
 11
644660.5383730716
 21
4144867.816
 31
2241.10693359375
  0
LINE
  5
AD
330
1F
100
AcDbEntity
  8
2240
370
     0
100
AcDbLine
 10
644533.6733925715
 20
4144831.736331572
 30
2245.674072265625
 11
644532.9648910641
 21
4144833.121
 31
2245.123046875
  0
LINE
  5
AE
330
1F
100
AcDbEntity
  8
2240
370
     0
100
AcDbLine
 10
644545.2455951789
 20
4144801.773851356
 30
2244.0869140625
 11
644548.4021472764
 21
4144801.949272403
 31
2244.22705078125
  0
LINE
  5
AF
330
1F
100
AcDbEntity
  8
2240
370
     0
100
AcDbLine
 10
644542.6480905422
 20
4144802.76440528
 30
2243.94189453125
 11
644545.2455951789
 21
4144801.773851356
 31
2244.0869140625
  0
LINE
  5
B0
330
1F
100
AcDbEntity
  8
2240
370
     0
100
AcDbLine
 10
644531.9048910642
 20
4144801.989
 30
2243.3701171875
 11
644532.9690868176
 21
4144802.519102333
 31
2243.85888671875
  0
LINE
  5
B1
330
1F
100
AcDbEntity
  8
2240
370
     0
100
AcDbLine
 10
644539.9851298722
 20
4144805.271253736
 30
2243.739013671875
 11
644542.6480905422
 21
4144802.76440528
 31
2243.94189453125
  0
LINE
  5
B2
330
1F
100
AcDbEntity
  8
2240
370
     0
100
AcDbLine
 10
644536.7199039612
 20
4144822.521242784
 30
2244.8740234375
 11
644536.3011847911
 21
4144823.82268208
 31
2245.014892578125
  0
LINE
  5
B3
330
1F
100
AcDbEntity
  8
2240
370
     0
100
AcDbLine
 10
644537.3656873835
 20
4144819.603351573
 30
2244.7548828125
 11
644536.7199039612
 21
4144822.521242784
 31
2244.8740234375
  0
LINE
  5
B4
330
1F
100
AcDbEntity
  8
2240
370
     0
100
AcDbLine
 10
644537.819409558
 20
4144817.378585934
 30
2244.5419921875
 11
644537.3656873835
 21
4144819.603351573
 31
2244.7548828125
  0
LINE
  5
B5
330
1F
100
AcDbEntity
  8
2240
370
     0
100
AcDbLine
 10
644536.3011847911
 20
4144823.82268208
 30
2245.014892578125
 11
644535.4128480492
 21
4144827.366063435
 31
2245.363037109375
  0
LINE
  5
B6
330
1F
100
AcDbEntity
  8
2240
370
     0
100
AcDbLine
 10
644534.2015832383
 20
4144830.214548137
 30
2245.51708984375
 11
644533.6733925715
 21
4144831.736331572
 31
2245.674072265625
  0
LINE
  5
B7
330
1F
100
AcDbEntity
  8
2240
370
     0
100
AcDbLine
 10
644535.4128480492
 20
4144827.366063435
 30
2245.363037109375
 11
644534.2015832383
 21
4144830.214548137
 31
2245.51708984375
  0
LINE
  5
B8
330
1F
100
AcDbEntity
  8
2240
370
     0
100
AcDbLine
 10
644531.9148910642
 20
4144851.033
 30
2245.906005859375
 11
644534.4647001442
 21
4144847.926008468
 31
2246.468017578125
  0
LINE
  5
B9
330
1F
100
AcDbEntity
  8
2240
370
     0
100
AcDbLine
 10
644534.6441430097
 20
4144802.446165615
 30
2244.48095703125
 11
644535.7587834303
 21
4144802.083202747
 31
2245.199951171875
  0
LINE
  5
BA
330
1F
100
AcDbEntity
  8
2240
370
     0
100
AcDbLine
 10
644532.9690868176
 20
4144802.519102333
 30
2243.85888671875
 11
644534.6441430097
 21
4144802.446165615
 31
2244.48095703125
  0
LINE
  5
BB
330
1F
100
AcDbEntity
  8
2240
370
     0
100
AcDbLine
 10
644535.7587834303
 20
4144802.083202747
 30
2245.199951171875
 11
644536.9619779782
 21
4144801.518637491
 31
2245.60498046875
  0
LINE
  5
BC
330
1F
100
AcDbEntity
  8
2240
370
     0
100
AcDbLine
 10
644539.5541124035
 20
4144806.386024227
 30
2245.055908203125
 11
644539.305354743
 21
4144806.996189428
 31
2244.408935546875
  0
LINE
  5
BD
330
1F
100
AcDbEntity
  8
2240
370
     0
100
AcDbLine
 10
644539.9851298722
 20
4144805.271253736
 30
2245.83203125
 11
644539.5541124035
 21
4144806.386024227
 31
2245.055908203125
  0
LINE
  5
BE
330
1F
100
AcDbEntity
  8
2240
370
     0
100
AcDbLine
 10
644536.9619779782
 20
4144801.518637491
 30
2245.60498046875
 11
644538.8752038429
 21
4144799.977946061
 31
2246.177978515625
  0
LINE
  5
BF
330
1F
100
AcDbEntity
  8
2240
370
     0
100
AcDbLine
 10
644539.305354743
 20
4144806.996189428
 30
2244.408935546875
 11
644539.0695276904
 21
4144807.5500179
 31
2245.326904296875
  0
LINE
  5
C0
330
1F
100
AcDbEntity
  8
2240
370
     0
100
AcDbLine
 10
644538.5480120422
 20
4144814.676033954
 30
2244.30908203125
 11
644537.819409558
 21
4144817.378585934
 31
2244.5419921875
  0
LINE
  5
C1
330
1F
100
AcDbEntity
  8
2240
370
     0
100
AcDbLine
 10
644539.0333844823
 20
4144811.144639325
 30
2244.427001953125
 11
644538.5480120422
 21
4144814.676033954
 31
2244.30908203125
  0
LINE
  5
C2
330
1F
100
AcDbEntity
  8
2240
370
     0
100
AcDbLine
 10
644538.9446292996
 20
4144809.192025306
 30
2244.135009765625
 11
644539.0333844823
 21
4144811.144639325
 31
2244.23388671875
  0
LINE
  5
C3
330
1F
100
AcDbEntity
  8
2240
370
     0
100
AcDbLine
 10
644539.0277765457
 20
4144807.852895404
 30
2244.1669921875
 11
644538.9446292996
 21
4144809.192025306
 31
2244.135009765625
  0
LINE
  5
C4
330
1F
100
AcDbEntity
  8
2240
370
     0
100
AcDbLine
 10
644539.0695276904
 20
4144807.5500179
 30
2245.326904296875
 11
644539.0277765457
 21
4144807.852895404
 31
2244.1669921875
  0
LINE
  5
C5
330
1F
100
AcDbEntity
  8
2240
370
     0
100
AcDbLine
 10
644527.0118910641
 20
4144888.744
 30
2246.757080078125
 11
644527.9965643436
 21
4144888.196735953
 31
2247.202880859375
  0
LINE
  5
C6
330
1F
100
AcDbEntity
  8
2240
370
     0
100
AcDbLine
 10
644536.1238910641
 20
4144885.7
 30
2246.31005859375
 11
644527.9965643436
 21
4144888.196735953
 31
2246.402099609375
  0
LINE
  5
C7
330
1F
100
AcDbEntity
  8
2240
370
     0
100
AcDbLine
 10
644524.7608910642
 20
4144922.626
 30
2249.26611328125
 11
644513.2888289153
 21
4144917.980942179
 31
2250.43408203125
  0
LINE
  5
C8
330
1F
100
AcDbEntity
  8
2240
370
     0
100
AcDbLine
 10
644536.8898910641
 20
4144926.343
 30
2248.327880859375
 11
644524.7608910642
 21
4144922.626
 31
2249.26611328125
  0
LINE
  5
C9
330
1F
100
AcDbEntity
  8
2240
370
     0
100
AcDbLine
 10
644566.6738910641
 20
4144938.211
 30
2248.778076171875
 11
644560.0268910641
 21
4144934.663
 31
2248.708984375
  0
LINE
  5
CA
330
1F
100
AcDbEntity
  8
2240
370
     0
100
AcDbLine
 10
644572.7728910642
 20
4144941.895
 30
2248.676025390625
 11
644566.6738910641
 21
4144938.211
 31
2248.778076171875
  0
LINE
  5
CB
330
1F
100
AcDbEntity
  8
2240
370
     0
100
AcDbLine
 10
644573.9988910641
 20
4144943.032
 30
2248.2109375
 11
644572.7728910642
 21
4144941.895
 31
2248.676025390625
  0
LINE
  5
CC
330
1F
100
AcDbEntity
  8
2240
370
     0
100
AcDbLine
 10
644560.0268910641
 20
4144934.663
 30
2248.708984375
 11
644551.7538910641
 21
4144929.41
 31
2248.60888671875
  0
LINE
  5
CD
330
1F
100
AcDbEntity
  8
2240
370
     0
100
AcDbLine
 10
644540.7798910642
 20
4144927.254
 30
2248.219970703125
 11
644536.8898910641
 21
4144926.343
 31
2248.327880859375
  0
LINE
  5
CE
330
1F
100
AcDbEntity
  8
2240
370
     0
100
AcDbLine
 10
644547.1728910641
 20
4144928.255
 30
2248.362060546875
 11
644540.7798910642
 21
4144927.254
 31
2248.219970703125
  0
LINE
  5
CF
330
1F
100
AcDbEntity
  8
2240
370
     0
100
AcDbLine
 10
644551.7538910641
 20
4144929.41
 30
2248.60888671875
 11
644547.1728910641
 21
4144928.255
 31
2248.362060546875
  0
LINE
  5
D0
330
1F
100
AcDbEntity
  8
2240
370
     0
100
AcDbLine
 10
644513.2888289153
 20
4144917.980942179
 30
2250.8359375
 11
644505.2858910641
 21
4144920.854
 31
2249.27490234375
  0
LINE
  5
D1
330
1F
100
AcDbEntity
  8
2240
370
     0
100
AcDbLine
 10
644577.4038910641
 20
4144961.734
 30
2246.656982421875
 11
644574.5148910641
 21
4144973.463
 31
2246.6669921875
  0
LINE
  5
D2
330
1F
100
AcDbEntity
  8
2240
370
     0
100
AcDbLine
 10
644579.4508910641
 20
4144954.05
 30
2247.2509765625
 11
644577.4038910641
 21
4144961.734
 31
2246.656982421875
  0
LINE
  5
D3
330
1F
100
AcDbEntity
  8
2240
370
     0
100
AcDbLine
 10
644507.5248910642
 20
4144905.628
 30
2246.839111328125
 11
644512.7848910642
 21
4144901.914
 31
2247.048095703125
  0
LINE
  5
D4
330
1F
100
AcDbEntity
  8
2240
370
     0
100
AcDbLine
 10
644574.5148910641
 20
4144973.463
 30
2246.6669921875
 11
644572.4358910641
 21
4144979.089
 31
2246.739013671875
  0
LINE
  5
D5
330
1F
100
AcDbEntity
  8
2240
370
     0
100
AcDbLine
 10
644569.5858910641
 20
4144987.826
 30
2247.590087890625
 11
644567.2398910641
 21
4144991.803
 31
2247.968994140625
  0
LINE
  5
D6
330
1F
100
AcDbEntity
  8
2240
370
     0
100
AcDbLine
 10
644572.4358910641
 20
4144979.089
 30
2246.739013671875
 11
644569.5858910641
 21
4144987.826
 31
2247.590087890625
  0
LINE
  5
D7
330
1F
100
AcDbEntity
  8
2240
370
     0
100
AcDbLine
 10
644501.2638910641
 20
4144909.777
 30
2246.9140625
 11
644507.5248910642
 21
4144905.628
 31
2246.839111328125
  0
LINE
  5
D8
330
1F
100
AcDbEntity
  8
2240
370
     0
100
AcDbLine
 10
644493.3398910641
 20
4144921.141
 30
2247.84912109375
 11
644492.3238910642
 21
4144918.638
 31
2247.568115234375
  0
LINE
  5
D9
330
1F
100
AcDbEntity
  8
2240
370
     0
100
AcDbLine
 10
644494.8958910641
 20
4144922.071
 30
2248.2099609375
 11
644493.3398910641
 21
4144921.141
 31
2247.84912109375
  0
LINE
  5
DA
330
1F
100
AcDbEntity
  8
2240
370
     0
100
AcDbLine
 10
644499.091169823
 20
4144922.650345599
 30
2248.89501953125
 11
644494.8958910641
 21
4144922.071
 31
2248.2099609375
  0
LINE
  5
DB
330
1F
100
AcDbEntity
  8
2240
370
     0
100
AcDbLine
 10
644492.3238910642
 20
4144918.638
 30
2247.568115234375
 11
644492.4508910641
 21
4144917.044
 31
2247.259033203125
  0
LINE
  5
DC
330
1F
100
AcDbEntity
  8
2240
370
     0
100
AcDbLine
 10
644497.1288910641
 20
4144912.712
 30
2246.99609375
 11
644501.2638910641
 21
4144909.777
 31
2246.9140625
  0
LINE
  5
DD
330
1F
100
AcDbEntity
  8
2240
370
     0
100
AcDbLine
 10
644493.9528910641
 20
4144915.13
 30
2247.077880859375
 11
644497.1288910641
 21
4144912.712
 31
2246.99609375
  0
LINE
  5
DE
330
1F
100
AcDbEntity
  8
2240
370
     0
100
AcDbLine
 10
644492.4508910641
 20
4144917.044
 30
2247.259033203125
 11
644493.9528910641
 21
4144915.13
 31
2247.077880859375
  0
LINE
  5
DF
330
1F
100
AcDbEntity
  8
2240
370
     0
100
AcDbLine
 10
644511.0188910641
 20
4144922.12
 30
2249.926025390625
 11
644514.3938910641
 21
4144922.168
 31
2250.4208984375
  0
LINE
  5
E0
330
1F
100
AcDbEntity
  8
2240
370
     0
100
AcDbLine
 10
644507.7518910641
 20
4144924.175
 30
2249.237060546875
 11
644511.0188910641
 21
4144922.12
 31
2249.926025390625
  0
LINE
  5
E1
330
1F
100
AcDbEntity
  8
2240
370
     0
100
AcDbLine
 10
644501.8128910641
 20
4144926.037
 30
2248.7919921875
 11
644507.7518910641
 21
4144924.175
 31
2249.237060546875
  0
LINE
  5
E2
330
1F
100
AcDbEntity
  8
2240
370
     0
100
AcDbLine
 10
644514.3938910641
 20
4144922.168
 30
2250.4208984375
 11
644517.7918910641
 21
4144923.754
 31
2250.2451171875
  0
LINE
  5
E3
330
1F
100
AcDbEntity
  8
2240
370
     0
100
AcDbLine
 10
644526.3538910642
 20
4144926.564
 30
2248.785888671875
 11
644533.7318910641
 21
4144928.585
 31
2248.2529296875
  0
LINE
  5
E4
330
1F
100
AcDbEntity
  8
2240
370
     0
100
AcDbLine
 10
644521.8168910642
 20
4144925.136
 30
2249.467041015625
 11
644526.3538910642
 21
4144926.564
 31
2248.785888671875
  0
LINE
  5
E5
330
1F
100
AcDbEntity
  8
2240
370
     0
100
AcDbLine
 10
644517.7918910641
 20
4144923.754
 30
2250.2451171875
 11
644521.8168910642
 21
4144925.136
 31
2249.467041015625
  0
LINE
  5
E6
330
1F
100
AcDbEntity
  8
2240
370
     0
100
AcDbLine
 10
644497.5548910642
 20
4144927.117
 30
2248.451904296875
 11
644501.8128910641
 21
4144926.037
 31
2248.7919921875
  0
LINE
  5
E7
330
1F
100
AcDbEntity
  8
2240
370
     0
100
AcDbLine
 10
644484.0508910641
 20
4144917.533
 30
2248.05908203125
 11
644486.2228910641
 21
4144921.2
 31
2247.618896484375
  0
LINE
  5
E8
330
1F
100
AcDbEntity
  8
2240
370
     0
100
AcDbLine
 10
644486.0378910641
 20
4144915.678
 30
2247.22900390625
 11
644484.0508910641
 21
4144917.533
 31
2248.05908203125
  0
LINE
  5
E9
330
1F
100
AcDbEntity
  8
2240
370
     0
100
AcDbLine
 10
644490.1748910642
 20
4144913.268
 30
2247.031982421875
 11
644486.0378910641
 21
4144915.678
 31
2247.22900390625
  0
LINE
  5
EA
330
1F
100
AcDbEntity
  8
2240
370
     0
100
AcDbLine
 10
644486.2228910641
 20
4144921.2
 30
2247.618896484375
 11
644489.4478910641
 21
4144924.263
 31
2247.714111328125
  0
LINE
  5
EB
330
1F
100
AcDbEntity
  8
2240
370
     0
100
AcDbLine
 10
644494.8748910641
 20
4144928.569
 30
2248.18310546875
 11
644497.5548910642
 21
4144927.117
 31
2248.451904296875
  0
LINE
  5
EC
330
1F
100
AcDbEntity
  8
2240
370
     0
100
AcDbLine
 10
644491.4928910641
 20
4144926.261
 30
2247.945068359375
 11
644494.8748910641
 21
4144928.569
 31
2248.18310546875
  0
LINE
  5
ED
330
1F
100
AcDbEntity
  8
2240
370
     0
100
AcDbLine
 10
644489.4478910641
 20
4144924.263
 30
2247.714111328125
 11
644491.4928910641
 21
4144926.261
 31
2247.945068359375
  0
LINE
  5
EE
330
1F
100
AcDbEntity
  8
2240
370
     0
100
AcDbLine
 10
644533.7318910641
 20
4144928.585
 30
2248.2529296875
 11
644540.5578910641
 21
4144930.599
 31
2248.181884765625
  0
LINE
  5
EF
330
1F
100
AcDbEntity
  8
2240
370
     0
100
AcDbLine
 10
644578.4458910641
 20
4144951.547
 30
2247.52490234375
 11
644579.4508910641
 21
4144954.05
 31
2247.2509765625
  0
LINE
  5
F0
330
1F
100
AcDbEntity
  8
2240
370
     0
100
AcDbLine
 10
644576.0378910641
 20
4144948.629
 30
2247.8740234375
 11
644578.4458910641
 21
4144951.547
 31
2247.52490234375
  0
LINE
  5
F1
330
1F
100
AcDbEntity
  8
2240
370
     0
100
AcDbLine
 10
644577.9488910642
 20
4144945.351
 30
2247.833984375
 11
644573.9988910641
 21
4144943.032
 31
2248.2109375
  0
LINE
  5
F2
330
1F
100
AcDbEntity
  8
2240
370
     0
100
AcDbLine
 10
644583.1637090123
 20
4144948.64072221
 30
2247.637939453125
 11
644577.9488910642
 21
4144945.351
 31
2247.833984375
  0
LINE
  5
F3
330
1F
100
AcDbEntity
  8
2240
370
     0
100
AcDbLine
 10
644569.3278910641
 20
4144944.737
 30
2248.490966796875
 11
644576.0378910641
 21
4144948.629
 31
2247.8740234375
  0
LINE
  5
F4
330
1F
100
AcDbEntity
  8
2240
370
     0
100
AcDbLine
 10
644547.3368910642
 20
4144932.178
 30
2248.4560546875
 11
644551.7618910641
 21
4144934.206
 31
2248.614990234375
  0
LINE
  5
F5
330
1F
100
AcDbEntity
  8
2240
370
     0
100
AcDbLine
 10
644546.2878910641
 20
4144931.643
 30
2248.488037109375
 11
644547.3368910642
 21
4144932.178
 31
2248.4560546875
  0
LINE
  5
F6
330
1F
100
AcDbEntity
  8
2240
370
     0
100
AcDbLine
 10
644540.5578910641
 20
4144930.599
 30
2248.181884765625
 11
644546.2878910641
 21
4144931.643
 31
2248.488037109375
  0
LINE
  5
F7
330
1F
100
AcDbEntity
  8
2240
370
     0
100
AcDbLine
 10
644551.7618910641
 20
4144934.206
 30
2248.614990234375
 11
644556.2038910642
 21
4144937.684
 31
2248.568115234375
  0
LINE
  5
F8
330
1F
100
AcDbEntity
  8
2240
370
     0
100
AcDbLine
 10
644564.6648910642
 20
4144941.058
 30
2248.827880859375
 11
644569.3278910641
 21
4144944.737
 31
2248.490966796875
  0
LINE
  5
F9
330
1F
100
AcDbEntity
  8
2240
370
     0
100
AcDbLine
 10
644562.6058910642
 20
4144939.626
 30
2248.72802734375
 11
644564.6648910642
 21
4144941.058
 31
2248.827880859375
  0
LINE
  5
FA
330
1F
100
AcDbEntity
  8
2240
370
     0
100
AcDbLine
 10
644556.2038910642
 20
4144937.684
 30
2248.568115234375
 11
644562.6058910642
 21
4144939.626
 31
2248.72802734375
  0
LINE
  5
FB
330
1F
100
AcDbEntity
  8
2240
370
     0
100
AcDbLine
 10
644583.7318910641
 20
4144952.08
 30
2247.260009765625
 11
644583.1637090123
 21
4144948.64072221
 31
2247.373046875
  0
LINE
  5
FC
330
1F
100
AcDbEntity
  8
2240
370
     0
100
AcDbLine
 10
644583.0078910642
 20
4144954.888
 30
2247.2451171875
 11
644583.7318910641
 21
4144952.08
 31
2247.260009765625
  0
LINE
  5
FD
330
1F
100
AcDbEntity
  8
2240
370
     0
100
AcDbLine
 10
644581.1788910641
 20
4144962.666
 30
2246.759033203125
 11
644583.0078910642
 21
4144954.888
 31
2247.2451171875
  0
LINE
  5
FE
330
1F
100
AcDbEntity
  8
2240
370
     0
100
AcDbLine
 10
644568.7138910642
 20
4144996.688
 30
2248.364013671875
 11
644571.3938910641
 21
4144992.311
 31
2247.8759765625
  0
LINE
  5
FF
330
1F
100
AcDbEntity
  8
2240
370
     0
100
AcDbLine
 10
644566.6348910641
 20
4145000.766
 30
2248.27294921875
 11
644568.7138910642
 21
4144996.688
 31
2248.364013671875
  0
LINE
  5
100
330
1F
100
AcDbEntity
  8
2240
370
     0
100
AcDbLine
 10
644562.5268910641
 20
4145010.472
 30
2248.006103515625
 11
644566.6348910641
 21
4145000.766
 31
2248.27294921875
  0
LINE
  5
101
330
1F
100
AcDbEntity
  8
2240
370
     0
100
AcDbLine
 10
644571.3938910641
 20
4144992.311
 30
2247.8759765625
 11
644572.4428910641
 21
4144989.149
 31
2247.5419921875
  0
LINE
  5
102
330
1F
100
AcDbEntity
  8
2240
370
     0
100
AcDbLine
 10
644577.0958910641
 20
4144977.383
 30
2246.548095703125
 11
644581.1788910641
 21
4144962.666
 31
2246.759033203125
  0
LINE
  5
103
330
1F
100
AcDbEntity
  8
2240
370
     0
100
AcDbLine
 10
644575.5638910641
 20
4144981.381
 30
2246.797119140625
 11
644577.0958910641
 21
4144977.383
 31
2246.548095703125
  0
LINE
  5
104
330
1F
100
AcDbEntity
  8
2240
370
     0
100
AcDbLine
 10
644572.4428910641
 20
4144989.149
 30
2247.5419921875
 11
644575.5638910641
 21
4144981.381
 31
2246.797119140625
  0
LINE
  5
105
330
1F
100
AcDbEntity
  8
2240
370
     0
100
AcDbLine
 10
644545.0398910642
 20
4145033.988
 30
2245.052001953125
 11
644544.7469056004
 21
4145043.222679489
 31
2243.968017578125
  0
LINE
  5
106
330
1F
100
AcDbEntity
  8
2240
370
     0
100
AcDbLine
 10
644546.8218910642
 20
4145030.154
 30
2245.785888671875
 11
644545.0398910642
 21
4145033.988
 31
2245.052001953125
  0
LINE
  5
107
330
1F
100
AcDbEntity
  8
2240
370
     0
100
AcDbLine
 10
644550.7048910641
 20
4145049.425
 30
2242.14404296875
 11
644553.3878910642
 21
4145049.982
 31
2241.51904296875
  0
LINE
  5
108
330
1F
100
AcDbEntity
  8
2240
370
     0
100
AcDbLine
 10
644547.4988910641
 20
4145047.815
 30
2242.75
 11
644550.7048910641
 21
4145049.425
 31
2242.14404296875
  0
LINE
  5
109
330
1F
100
AcDbEntity
  8
2240
370
     0
100
AcDbLine
 10
644544.7469056004
 20
4145043.222679489
 30
2243.705078125
 11
644547.4988910641
 21
4145047.815
 31
2242.75
  0
LINE
  5
10A
330
1F
100
AcDbEntity
  8
2240
370
     0
100
AcDbLine
 10
644548.8968910641
 20
4145027.278
 30
2246.2939453125
 11
644546.8218910642
 21
4145030.154
 31
2245.785888671875
  0
LINE
  5
10B
330
1F
100
AcDbEntity
  8
2240
370
     0
100
AcDbLine
 10
644563.5678910641
 20
4144998.608
 30
2248.347900390625
 11
644560.7608910642
 21
4145004.423
 31
2248.137939453125
  0
LINE
  5
10C
330
1F
100
AcDbEntity
  8
2240
370
     0
100
AcDbLine
 10
644567.2398910641
 20
4144991.803
 30
2248.291015625
 11
644563.5678910641
 21
4144998.608
 31
2248.347900390625
  0
LINE
  5
10D
330
1F
100
AcDbEntity
  8
2240
370
     0
100
AcDbLine
 10
644560.7608910642
 20
4145004.423
 30
2248.137939453125
 11
644554.4458910641
 21
4145018.95
 31
2247.510986328125
  0
LINE
  5
10E
330
1F
100
AcDbEntity
  8
2240
370
     0
100
AcDbLine
 10
644551.1598910642
 20
4145023.874
 30
2246.89990234375
 11
644548.8968910641
 21
4145027.278
 31
2246.2939453125
  0
LINE
  5
10F
330
1F
100
AcDbEntity
  8
2240
370
     0
100
AcDbLine
 10
644554.3558910642
 20
4145019.355
 30
2247.52294921875
 11
644551.1598910642
 21
4145023.874
 31
2246.89990234375
  0
LINE
  5
110
330
1F
100
AcDbEntity
  8
2240
370
     0
100
AcDbLine
 10
644554.4458910641
 20
4145018.95
 30
2247.510986328125
 11
644554.3558910642
 21
4145019.355
 31
2247.52294921875
  0
LINE
  5
111
330
1F
100
AcDbEntity
  8
2240
370
     0
100
AcDbLine
 10
644553.3878910642
 20
4145049.982
 30
2241.51904296875
 11
644556.8798910641
 21
4145050.995
 31
2240.85302734375
  0
LINE
  5
112
330
1F
100
AcDbEntity
  8
2240
370
     0
100
AcDbLine
 10
644554.1618910641
 20
4145026.463
 30
2246.889892578125
 11
644555.0708910641
 21
4145024.542
 31
2247.159912109375
  0
LINE
  5
113
330
1F
100
AcDbEntity
  8
2240
370
     0
100
AcDbLine
 10
644548.9248910642
 20
4145034.802
 30
2245.0859375
 11
644550.3748910641
 21
4145031.957
 31
2246.1240234375
  0
LINE
  5
114
330
1F
100
AcDbEntity
  8
2240
370
     0
100
AcDbLine
 10
644548.0408910641
 20
4145040.283
 30
2243.97998046875
 11
644548.9248910642
 21
4145034.802
 31
2245.0859375
  0
LINE
  5
115
330
1F
100
AcDbEntity
  8
2240
370
     0
100
AcDbLine
 10
644555.0708910641
 20
4145024.542
 30
2247.159912109375
 11
644555.2778910642
 21
4145024.413
 31
2247.222900390625
  0
LINE
  5
116
330
1F
100
AcDbEntity
  8
2240
370
     0
100
AcDbLine
 10
644559.8738910641
 20
4145015.922
 30
2247.843994140625
 11
644562.5268910641
 21
4145010.472
 31
2248.006103515625
  0
LINE
  5
117
330
1F
100
AcDbEntity
  8
2240
370
     0
100
AcDbLine
 10
644558.1318910641
 20
4145019.481
 30
2247.556884765625
 11
644559.8738910641
 21
4145015.922
 31
2247.843994140625
  0
LINE
  5
118
330
1F
100
AcDbEntity
  8
2240
370
     0
100
AcDbLine
 10
644555.2778910642
 20
4145024.413
 30
2247.222900390625
 11
644558.1318910641
 21
4145019.481
 31
2247.556884765625
  0
LINE
  5
119
330
1F
100
AcDbEntity
  8
2240
370
     0
100
AcDbLine
 10
644549.6178910641
 20
4145043.303
 30
2243.22607421875
 11
644548.0408910641
 21
4145040.283
 31
2243.97998046875
  0
LINE
  5
11A
330
1F
100
AcDbEntity
  8
2240
370
     0
100
AcDbLine
 10
644563.2168910641
 20
4145051.1
 30
2240.468994140625
 11
644567.8458910641
 21
4145050.24
 31
2240.1630859375
  0
LINE
  5
11B
330
1F
100
AcDbEntity
  8
2240
370
     0
100
AcDbLine
 10
644559.7478910642
 20
4145051.417
 30
2240.763916015625
 11
644563.2168910641
 21
4145051.1
 31
2240.468994140625
  0
LINE
  5
11C
330
1F
100
AcDbEntity
  8
2240
370
     0
100
AcDbLine
 10
644556.8798910641
 20
4145050.995
 30
2240.85302734375
 11
644559.7478910642
 21
4145051.417
 31
2240.763916015625
  0
LINE
  5
11D
330
1F
100
AcDbEntity
  8
2240
370
     0
100
AcDbLine
 10
644567.2108910641
 20
4145046.302
 30
2240.489013671875
 11
644564.6948910641
 21
4145046.15
 31
2240.60888671875
  0
LINE
  5
11E
330
1F
100
AcDbEntity
  8
2240
370
     0
100
AcDbLine
 10
644551.8548910641
 20
4145045.722
 30
2242.446044921875
 11
644549.6178910641
 21
4145043.303
 31
2243.22607421875
  0
LINE
  5
11F
330
1F
100
AcDbEntity
  8
2240
370
     0
100
AcDbLine
 10
644554.0738910642
 20
4145046.86
 30
2241.77197265625
 11
644551.8548910641
 21
4145045.722
 31
2242.446044921875
  0
LINE
  5
120
330
1F
100
AcDbEntity
  8
2240
370
     0
100
AcDbLine
 10
644558.2328910641
 20
4145046.952
 30
2241.2119140625
 11
644554.0738910642
 21
4145046.86
 31
2241.77197265625
  0
LINE
  5
121
330
1F
100
AcDbEntity
  8
2240
370
     0
100
AcDbLine
 10
644564.1472659714
 20
4145045.764
 30
2241.22705078125
 11
644562.7152659714
 21
4145044.38
 31
2241.4541015625
  0
LINE
  5
122
330
1F
100
AcDbEntity
  8
2240
370
     0
100
AcDbLine
 10
644558.3342659713
 20
4145036.865
 30
2242.138916015625
 11
644558.3822659714
 21
4145039.815
 31
2241.679931640625
  0
LINE
  5
123
330
1F
100
AcDbEntity
  8
2240
370
     0
100
AcDbLine
 10
644558.3822659714
 20
4145039.815
 30
2241.679931640625
 11
644558.5842659713
 21
4145042.256
 31
2241.662109375
  0
LINE
  5
124
330
1F
100
AcDbEntity
  8
2240
370
     0
100
AcDbLine
 10
644558.5842659713
 20
4145042.256
 30
2241.662109375
 11
644559.1162659713
 21
4145044.702
 31
2241.51708984375
  0
LINE
  5
125
330
1F
100
AcDbEntity
  8
2240
370
     0
100
AcDbLine
 10
644560.3732659713
 20
4145036.236
 30
2241.97509765625
 11
644558.3342659713
 21
4145036.865
 31
2242.138916015625
  0
LINE
  5
126
330
1F
100
AcDbEntity
  8
2240
370
     0
100
AcDbLine
 10
644562.7152659714
 20
4145044.38
 30
2241.4541015625
 11
644562.8332659714
 21
4145040.918
 31
2241.64501953125
  0
LINE
  5
127
330
1F
100
AcDbEntity
  8
2240
370
     0
100
AcDbLine
 10
644562.8332659714
 20
4145040.918
 30
2241.64501953125
 11
644562.7162659713
 21
4145036.661
 31
2241.93310546875
  0
LINE
  5
128
330
1F
100
AcDbEntity
  8
2240
370
     0
100
AcDbLine
 10
644562.7162659713
 20
4145036.661
 30
2241.93310546875
 11
644560.3732659713
 21
4145036.236
 31
2241.97509765625
  0
LINE
  5
129
330
1F
100
AcDbEntity
  8
2240
370
     0
100
AcDbLine
 10
644559.1162659713
 20
4145044.702
 30
2241.51708984375
 11
644558.8552659714
 21
4145046.137
 31
2241.60498046875
  0
LINE
  5
12A
330
1F
100
AcDbEntity
  8
2240
370
     0
100
AcDbLine
 10
644558.2328910641
 20
4145046.952
 30
2241.2119140625
 11
644558.8552659714
 21
4145046.137
 31
2241.60498046875
  0
LINE
  5
12B
330
1F
100
AcDbEntity
  8
2240
370
     0
100
AcDbLine
 10
644564.1472659714
 20
4145045.764
 30
2241.22705078125
 11
644564.6948910641
 21
4145046.15
 31
2240.60888671875
  0
LINE
  5
12C
330
1F
100
AcDbEntity
  8
2240
370
     0
100
AcDbLine
 10
644567.2108910641
 20
4145046.302
 30
2240.489013671875
 11
644569.6862659714
 21
4145045.067
 31
2239.654052734375
  0
LINE
  5
12D
330
1F
100
AcDbEntity
  8
2240
370
     0
100
AcDbLine
 10
644569.6862659714
 20
4145045.067
 30
2239.654052734375
 11
644572.4872659714
 21
4145041.316
 31
2238.3720703125
  0
LINE
  5
12E
330
1F
100
AcDbEntity
  8
2240
370
     0
100
AcDbLine
 10
644575.3522659714
 20
4145022.232
 30
2233.594970703125
 11
644570.6972659715
 21
4145018.585
 31
2232.450927734375
  0
LINE
  5
12F
330
1F
100
AcDbEntity
  8
2240
370
     0
100
AcDbLine
 10
644572.4872659714
 20
4145041.316
 30
2238.3720703125
 11
644575.0892659714
 21
4145036.822
 31
2236.89208984375
  0
LINE
  5
130
330
1F
100
AcDbEntity
  8
2240
370
     0
100
AcDbLine
 10
644572.4942659714
 20
4145025.109
 30
2233.6259765625
 11
644567.7352659714
 21
4145021.374
 31
2232.531005859375
  0
LINE
  5
131
330
1F
100
AcDbEntity
  8
2240
370
     0
100
AcDbLine
 10
644575.0892659714
 20
4145036.822
 30
2236.89208984375
 11
644575.2262659714
 21
4145033.292
 31
2235.882080078125
  0
LINE
  5
132
330
1F
100
AcDbEntity
  8
2240
370
     0
100
AcDbLine
 10
644575.2262659714
 20
4145033.292
 30
2235.882080078125
 11
644574.4892659714
 21
4145029.068
 31
2234.694091796875
  0
LINE
  5
133
330
1F
100
AcDbEntity
  8
2240
370
     0
100
AcDbLine
 10
644574.4892659714
 20
4145029.068
 30
2234.694091796875
 11
644572.4942659714
 21
4145025.109
 31
2233.6259765625
  0
LINE
  5
134
330
1F
100
AcDbEntity
  8
2240
370
     0
100
AcDbLine
 10
644577.1372659714
 20
4145024.592
 30
2234.013916015625
 11
644575.3522659714
 21
4145022.232
 31
2233.594970703125
  0
LINE
  5
135
330
1F
100
AcDbEntity
  8
2240
370
     0
100
AcDbLine
 10
644567.8458910641
 20
4145050.24
 30
2240.1630859375
 11
644574.1015954739
 21
4145047.277967061
 31
2240.10107421875
  0
LINE
  5
136
330
1F
100
AcDbEntity
  8
2240
370
     0
100
AcDbLine
 10
644580.1922659714
 20
4145034.937
 30
2236.2880859375
 11
644579.4672659714
 21
4145029.857
 31
2235.10888671875
  0
LINE
  5
137
330
1F
100
AcDbEntity
  8
2240
370
     0
100
AcDbLine
 10
644579.4672659714
 20
4145029.857
 30
2235.10888671875
 11
644577.9262659714
 21
4145026.227
 31
2234.373046875
  0
LINE
  5
138
330
1F
100
AcDbEntity
  8
2240
370
     0
100
AcDbLine
 10
644577.9262659714
 20
4145026.227
 30
2234.373046875
 11
644577.1372659714
 21
4145024.592
 31
2234.013916015625
  0
LINE
  5
139
330
1F
100
AcDbEntity
  8
2240
370
     0
100
AcDbLine
 10
644578.0922659714
 20
4145039.235
 30
2237.02587890625
 11
644580.1922659714
 21
4145034.937
 31
2236.2880859375
  0
LINE
  5
13A
330
1F
100
AcDbEntity
  8
2240
370
     0
100
AcDbLine
 10
644574.1015954739
 20
4145047.277967061
 30
2239.333984375
 11
644575.8322659715
 21
4145043.032
 31
2238.35693359375
  0
LINE
  5
13B
330
1F
100
AcDbEntity
  8
2240
370
     0
100
AcDbLine
 10
644575.8322659715
 20
4145043.032
 30
2238.35693359375
 11
644578.0922659714
 21
4145039.235
 31
2237.02587890625
  0
LINE
  5
13C
330
1F
100
AcDbEntity
  8
2240
370
     0
100
AcDbLine
 10
644502.2339553371
 20
4144921.844249729
 30
2250.197998046875
 11
644504.0259579761
 21
4144921.230262677
 31
2249.9208984375
  0
LINE
  5
13D
330
1F
100
AcDbEntity
  8
2240
370
     0
100
AcDbLine
 10
644500.6710120734
 20
4144922.526088343
 30
2249.471923828125
 11
644502.2339553371
 21
4144921.844249729
 31
2249.990966796875
  0
LINE
  5
13E
330
1F
100
AcDbEntity
  8
2240
370
     0
100
AcDbLine
 10
644505.2858910641
 20
4144920.854
 30
2249.27490234375
 11
644504.0259579761
 21
4144921.230262677
 31
2249.9208984375
  0
LINE
  5
13F
330
1F
100
AcDbEntity
  8
2240
370
     0
100
AcDbLine
 10
644499.091169823
 20
4144922.650345599
 30
2248.89501953125
 11
644500.6710120734
 21
4144922.526088343
 31
2249.471923828125
  0
LINE
  5
140
330
1F
100
AcDbEntity
  8
2240
370
     0
100
AcDbLine
 10
644484.5282809613
 20
4144731.835757229
 30
2245.215087890625
 11
644488.025163316
 21
4144733.375
 31
2244.2060546875
  0
LINE
  5
141
330
1F
100
AcDbEntity
  8
2240
370
     0
100
AcDbLine
 10
644484.5282809613
 20
4144731.835757229
 30
2245.300048828125
 11
644479.921163316
 21
4144731.563
 31
2245.174072265625
  0
LINE
  5
142
330
1F
100
AcDbEntity
  8
2240
370
     0
100
AcDbLine
 10
644493.811163316
 20
4144745.489
 30
2242.965087890625
 11
644494.039163316
 21
4144747.983
 31
2242.693115234375
  0
LINE
  5
143
330
1F
100
AcDbEntity
  8
2240
370
     0
100
AcDbLine
 10
644492.274163316
 20
4144742.61
 30
2243.427978515625
 11
644493.811163316
 21
4144745.489
 31
2242.965087890625
  0
LINE
  5
144
330
1F
100
AcDbEntity
  8
2240
370
     0
100
AcDbLine
 10
644491.654163316
 20
4144741.055
 30
2243.701904296875
 11
644492.274163316
 21
4144742.61
 31
2243.427978515625
  0
LINE
  5
145
330
1F
100
AcDbEntity
  8
2240
370
     0
100
AcDbLine
 10
644494.039163316
 20
4144747.983
 30
2242.693115234375
 11
644493.022163316
 21
4144750.973
 31
2242.39501953125
  0
LINE
  5
146
330
1F
100
AcDbEntity
  8
2240
370
     0
100
AcDbLine
 10
644491.198163316
 20
4144755.05
 30
2241.93701171875
 11
644488.216163316
 21
4144758.065
 31
2241.389892578125
  0
LINE
  5
147
330
1F
100
AcDbEntity
  8
2240
370
     0
100
AcDbLine
 10
644491.628163316
 20
4144754.367
 30
2242.006103515625
 11
644491.198163316
 21
4144755.05
 31
2241.93701171875
  0
LINE
  5
148
330
1F
100
AcDbEntity
  8
2240
370
     0
100
AcDbLine
 10
644493.022163316
 20
4144750.973
 30
2242.39501953125
 11
644491.628163316
 21
4144754.367
 31
2242.006103515625
  0
LINE
  5
149
330
1F
100
AcDbEntity
  8
2240
370
     0
100
AcDbLine
 10
644488.3391633161
 20
4144737.765
 30
2244.15087890625
 11
644491.654163316
 21
4144741.055
 31
2243.701904296875
  0
LINE
  5
14A
330
1F
100
AcDbEntity
  8
2240
370
     0
100
AcDbLine
 10
644485.125163316
 20
4144736.046
 30
2244.489990234375
 11
644488.3391633161
 21
4144737.765
 31
2244.15087890625
  0
LINE
  5
14B
330
1F
100
AcDbEntity
  8
2240
370
     0
100
AcDbLine
 10
644478.951163316
 20
4144735.312
 30
2245.37890625
 11
644485.125163316
 21
4144736.046
 31
2244.489990234375
  0
LINE
  5
14C
330
1F
100
AcDbEntity
  8
2240
370
     0
100
AcDbLine
 10
644473.9301633161
 20
4144734.941
 30
2246.032958984375
 11
644478.951163316
 21
4144735.312
 31
2245.37890625
  0
LINE
  5
14D
330
1F
100
AcDbEntity
  8
2240
370
     0
100
AcDbLine
 10
644488.216163316
 20
4144758.065
 30
2241.389892578125
 11
644484.977163316
 21
4144759.64
 31
2241.0380859375
  0
LINE
  5
14E
330
1F
100
AcDbEntity
  8
2240
370
     0
100
AcDbLine
 10
644490.468163316
 20
4144735.602
 30
2244.06494140625
 11
644488.025163316
 21
4144733.375
 31
2244.2060546875
  0
LINE
  5
14F
330
1F
100
AcDbEntity
  8
2240
370
     0
100
AcDbLine
 10
644493.1161633161
 20
4144737.427
 30
2243.64501953125
 11
644490.468163316
 21
4144735.602
 31
2244.06494140625
  0
LINE
  5
150
330
1F
100
AcDbEntity
  8
2240
370
     0
100
AcDbLine
 10
644495.252163316
 20
4144740.187
 30
2243.31396484375
 11
644493.1161633161
 21
4144737.427
 31
2243.64501953125
  0
LINE
  5
151
330
1F
100
AcDbEntity
  8
2240
370
     0
100
AcDbLine
 10
644479.921163316
 20
4144731.563
 30
2245.174072265625
 11
644474.882163316
 21
4144731.611
 31
2245.84912109375
  0
LINE
  5
152
330
1F
100
AcDbEntity
  8
2240
370
     0
100
AcDbLine
 10
644469.445163316
 20
4144767.726
 30
2239.18798828125
 11
644471.610163316
 21
4144769.918
 31
2239.574951171875
  0
LINE
  5
153
330
1F
100
AcDbEntity
  8
2240
370
     0
100
AcDbLine
 10
644467.3221633161
 20
4144768.369
 30
2238.9580078125
 11
644469.445163316
 21
4144767.726
 31
2239.18798828125
  0
LINE
  5
154
330
1F
100
AcDbEntity
  8
2240
370
     0
100
AcDbLine
 10
644466.010163316
 20
4144766.759
 30
2238.89111328125
 11
644467.3221633161
 21
4144768.369
 31
2238.9580078125
  0
LINE
  5
155
330
1F
100
AcDbEntity
  8
2240
370
     0
100
AcDbLine
 10
644471.610163316
 20
4144769.918
 30
2239.574951171875
 11
644473.950163316
 21
4144773.777
 31
2239.864013671875
  0
LINE
  5
156
330
1F
100
AcDbEntity
  8
2240
370
     0
100
AcDbLine
 10
644483.0721633161
 20
4144782.186
 30
2240.716064453125
 11
644486.399163316
 21
4144784.089
 31
2240.8798828125
  0
LINE
  5
157
330
1F
100
AcDbEntity
  8
2240
370
     0
100
AcDbLine
 10
644477.733163316
 20
4144778.784
 30
2240.299072265625
 11
644483.0721633161
 21
4144782.186
 31
2240.716064453125
  0
LINE
  5
158
330
1F
100
AcDbEntity
  8
2240
370
     0
100
AcDbLine
 10
644473.950163316
 20
4144773.777
 30
2239.864013671875
 11
644477.733163316
 21
4144778.784
 31
2240.299072265625
  0
LINE
  5
159
330
1F
100
AcDbEntity
  8
2240
370
     0
100
AcDbLine
 10
644466.2291633161
 20
4144764.503
 30
2238.676025390625
 11
644466.010163316
 21
4144766.759
 31
2238.89111328125
  0
LINE
  5
15A
330
1F
100
AcDbEntity
  8
2240
370
     0
100
AcDbLine
 10
644474.221163316
 20
4144763.116
 30
2239.81005859375
 11
644470.960163316
 21
4144762.94
 31
2239.263916015625
  0
LINE
  5
15B
330
1F
100
AcDbEntity
  8
2240
370
     0
100
AcDbLine
 10
644481.030163316
 20
4144761.093
 30
2240.7041015625
 11
644474.221163316
 21
4144763.116
 31
2239.81005859375
  0
LINE
  5
15C
330
1F
100
AcDbEntity
  8
2240
370
     0
100
AcDbLine
 10
644484.977163316
 20
4144759.64
 30
2241.0380859375
 11
644481.030163316
 21
4144761.093
 31
2240.7041015625
  0
LINE
  5
15D
330
1F
100
AcDbEntity
  8
2240
370
     0
100
AcDbLine
 10
644470.960163316
 20
4144762.94
 30
2239.263916015625
 11
644467.7191633161
 21
4144761.484
 31
2238.5029296875
  0
LINE
  5
15E
330
1F
100
AcDbEntity
  8
2240
370
     0
100
AcDbLine
 10
644463.787163316
 20
4144762.928
 30
2238.35791015625
 11
644466.2291633161
 21
4144764.503
 31
2238.676025390625
  0
LINE
  5
15F
330
1F
100
AcDbEntity
  8
2240
370
     0
100
AcDbLine
 10
644459.220163316
 20
4144758.247
 30
2237.427001953125
 11
644463.787163316
 21
4144762.928
 31
2238.35791015625
  0
LINE
  5
160
330
1F
100
AcDbEntity
  8
2240
370
     0
100
AcDbLine
 10
644463.4591633161
 20
4144757.838
 30
2237.862060546875
 11
644467.7191633161
 21
4144761.484
 31
2238.5029296875
  0
LINE
  5
161
330
1F
100
AcDbEntity
  8
2240
370
     0
100
AcDbLine
 10
644479.8711633161
 20
4144775.827
 30
2240.364013671875
 11
644477.068163316
 21
4144771.04
 31
2239.97705078125
  0
LINE
  5
162
330
1F
100
AcDbEntity
  8
2240
370
     0
100
AcDbLine
 10
644495.483163316
 20
4144754.024
 30
2242.06201171875
 11
644498.157322933
 21
4144748.383431312
 31
2242.6220703125
  0
LINE
  5
163
330
1F
100
AcDbEntity
  8
2240
370
     0
100
AcDbLine
 10
644492.433163316
 20
4144758.905
 30
2241.4619140625
 11
644495.483163316
 21
4144754.024
 31
2242.06201171875
  0
LINE
  5
164
330
1F
100
AcDbEntity
  8
2240
370
     0
100
AcDbLine
 10
644479.485163316
 20
4144765.586
 30
2240.412109375
 11
644480.123163316
 21
4144765.249
 31
2240.446044921875
  0
LINE
  5
165
330
1F
100
AcDbEntity
  8
2240
370
     0
100
AcDbLine
 10
644478.125163316
 20
4144767.108
 30
2240.134033203125
 11
644479.485163316
 21
4144765.586
 31
2240.412109375
  0
LINE
  5
166
330
1F
100
AcDbEntity
  8
2240
370
     0
100
AcDbLine
 10
644477.068163316
 20
4144771.04
 30
2239.97705078125
 11
644478.125163316
 21
4144767.108
 31
2240.134033203125
  0
LINE
  5
167
330
1F
100
AcDbEntity
  8
2240
370
     0
100
AcDbLine
 10
644480.123163316
 20
4144765.249
 30
2240.446044921875
 11
644484.0941633161
 21
4144763.597
 31
2240.85498046875
  0
LINE
  5
168
330
1F
100
AcDbEntity
  8
2240
370
     0
100
AcDbLine
 10
644487.885163316
 20
4144762.189
 30
2241.179931640625
 11
644492.433163316
 21
4144758.905
 31
2241.4619140625
  0
LINE
  5
169
330
1F
100
AcDbEntity
  8
2240
370
     0
100
AcDbLine
 10
644487.4911633161
 20
4144762.469
 30
2241.155029296875
 11
644487.885163316
 21
4144762.189
 31
2241.179931640625
  0
LINE
  5
16A
330
1F
100
AcDbEntity
  8
2240
370
     0
100
AcDbLine
 10
644484.0941633161
 20
4144763.597
 30
2240.85498046875
 11
644487.4911633161
 21
4144762.469
 31
2241.155029296875
  0
LINE
  5
16B
330
1F
100
AcDbEntity
  8
2240
370
     0
100
AcDbLine
 10
644531.2228910641
 20
4144805.949
 30
2243.384033203125
 11
644534.9518910642
 21
4144816.231
 31
2244.06396484375
  0
LINE
  5
16C
330
1F
100
AcDbEntity
  8
2240
370
     0
100
AcDbLine
 10
644526.5208910641
 20
4144802.168
 30
2243.04296875
 11
644531.2228910641
 21
4144805.949
 31
2243.384033203125
  0
LINE
  5
16D
330
1F
100
AcDbEntity
  8
2240
370
     0
100
AcDbLine
 10
644520.5178910642
 20
4144797.771
 30
2242.48193359375
 11
644526.5208910641
 21
4144802.168
 31
2243.04296875
  0
LINE
  5
16E
330
1F
100
AcDbEntity
  8
2240
370
     0
100
AcDbLine
 10
644534.9518910642
 20
4144816.231
 30
2244.06396484375
 11
644533.7358910642
 21
4144821.95
 31
2244.54296875
  0
LINE
  5
16F
330
1F
100
AcDbEntity
  8
2240
370
     0
100
AcDbLine
 10
644529.7638910641
 20
4144832.602
 30
2245.194091796875
 11
644529.4028910642
 21
4144837.004
 31
2245.31103515625
  0
LINE
  5
170
330
1F
100
AcDbEntity
  8
2240
370
     0
100
AcDbLine
 10
644531.8048910642
 20
4144826.867
 30
2244.883056640625
 11
644529.7638910641
 21
4144832.602
 31
2245.194091796875
  0
LINE
  5
171
330
1F
100
AcDbEntity
  8
2240
370
     0
100
AcDbLine
 10
644533.7358910642
 20
4144821.95
 30
2244.54296875
 11
644531.8048910642
 21
4144826.867
 31
2244.883056640625
  0
LINE
  5
172
330
1F
100
AcDbEntity
  8
2240
370
     0
100
AcDbLine
 10
644511.4938910641
 20
4144793.206
 30
2242.39404296875
 11
644520.5178910642
 21
4144797.771
 31
2242.48193359375
  0
LINE
  5
173
330
1F
100
AcDbEntity
  8
2240
370
     0
100
AcDbLine
 10
644531.9048910642
 20
4144801.989
 30
2243.3701171875
 11
644526.5638910641
 21
4144797.915
 31
2242.85400390625
  0
LINE
  5
174
330
1F
100
AcDbEntity
  8
2240
370
     0
100
AcDbLine
 10
644492.0828910641
 20
4144782.261
 30
2241.180908203125
 11
644488.0708910641
 21
4144780.699
 31
2240.80908203125
  0
LINE
  5
175
330
1F
100
AcDbEntity
  8
2240
370
     0
100
AcDbLine
 10
644502.4128910641
 20
4144784.163
 30
2241.718994140625
 11
644492.0828910641
 21
4144782.261
 31
2241.180908203125
  0
LINE
  5
176
330
1F
100
AcDbEntity
  8
2240
370
     0
100
AcDbLine
 10
644507.7078910641
 20
4144786.715
 30
2242.028076171875
 11
644502.4128910641
 21
4144784.163
 31
2241.718994140625
  0
LINE
  5
177
330
1F
100
AcDbEntity
  8
2240
370
     0
100
AcDbLine
 10
644488.0708910641
 20
4144780.699
 30
2240.80908203125
 11
644482.7023128426
 21
4144777.676432534
 31
2240.83203125
  0
LINE
  5
178
330
1F
100
AcDbEntity
  8
2240
370
     0
100
AcDbLine
 10
644512.4088910641
 20
4144789.462
 30
2242.404052734375
 11
644507.7078910641
 21
4144786.715
 31
2242.028076171875
  0
LINE
  5
179
330
1F
100
AcDbEntity
  8
2240
370
     0
100
AcDbLine
 10
644521.2488910641
 20
4144794.361
 30
2242.466064453125
 11
644518.9048910642
 21
4144792.712
 31
2242.39990234375
  0
LINE
  5
17A
330
1F
100
AcDbEntity
  8
2240
370
     0
100
AcDbLine
 10
644526.5638910641
 20
4144797.915
 30
2242.85400390625
 11
644521.2488910641
 21
4144794.361
 31
2242.466064453125
  0
LINE
  5
17B
330
1F
100
AcDbEntity
  8
2240
370
     0
100
AcDbLine
 10
644518.9048910642
 20
4144792.712
 30
2242.277099609375
 11
644512.4088910641
 21
4144789.462
 31
2242.404052734375
  0
LINE
  5
17C
330
1F
100
AcDbEntity
  8
2240
370
     0
100
AcDbLine
 10
644486.399163316
 20
4144784.089
 30
2240.8798828125
 11
644489.8178910641
 21
4144785.411
 31
2241.0390625
  0
LINE
  5
17D
330
1F
100
AcDbEntity
  8
2240
370
     0
100
AcDbLine
 10
644502.3388910642
 20
4144787.372
 30
2241.7529296875
 11
644511.4938910641
 21
4144793.206
 31
2242.27392578125
  0
LINE
  5
17E
330
1F
100
AcDbEntity
  8
2240
370
     0
100
AcDbLine
 10
644495.5488910641
 20
4144786.417
 30
2241.387939453125
 11
644502.3388910642
 21
4144787.372
 31
2241.7529296875
  0
LINE
  5
17F
330
1F
100
AcDbEntity
  8
2240
370
     0
100
AcDbLine
 10
644489.8178910641
 20
4144785.411
 30
2241.0390625
 11
644495.5488910641
 21
4144786.417
 31
2241.387939453125
  0
LINE
  5
180
330
1F
100
AcDbEntity
  8
2240
370
     0
100
AcDbLine
 10
644517.6138910641
 20
4144898.458
 30
2246.93798828125
 11
644512.7848910642
 21
4144901.914
 31
2247.048095703125
  0
LINE
  5
181
330
1F
100
AcDbEntity
  8
2240
370
     0
100
AcDbLine
 10
644525.4138910641
 20
4144893.342
 30
2246.760009765625
 11
644517.6138910641
 21
4144898.458
 31
2246.93798828125
  0
LINE
  5
182
330
1F
100
AcDbEntity
  8
2240
370
     0
100
AcDbLine
 10
644531.2398910641
 20
4144889.925
 30
2246.573974609375
 11
644525.4138910641
 21
4144893.342
 31
2246.760009765625
  0
LINE
  5
183
330
1F
100
AcDbEntity
  8
2240
370
     0
100
AcDbLine
 10
644536.1238910641
 20
4144885.7
 30
2246.31005859375
 11
644536.6008910642
 21
4144883.743
 31
2245.888916015625
  0
LINE
  5
184
330
1F
100
AcDbEntity
  8
2240
370
     0
100
AcDbLine
 10
644530.7828910642
 20
4144877.589
 30
2246.10009765625
 11
644527.3068910642
 21
4144872.64
 31
2245.99609375
  0
LINE
  5
185
330
1F
100
AcDbEntity
  8
2240
370
     0
100
AcDbLine
 10
644536.1608910641
 20
4144881.476
 30
2246.072021484375
 11
644530.7828910642
 21
4144877.589
 31
2246.10009765625
  0
LINE
  5
186
330
1F
100
AcDbEntity
  8
2240
370
     0
100
AcDbLine
 10
644536.6008910642
 20
4144883.743
 30
2245.888916015625
 11
644536.1608910641
 21
4144881.476
 31
2246.072021484375
  0
LINE
  5
187
330
1F
100
AcDbEntity
  8
2240
370
     0
100
AcDbLine
 10
644536.7888910641
 20
4144889.847
 30
2246.139892578125
 11
644531.2398910641
 21
4144889.925
 31
2246.573974609375
  0
LINE
  5
188
330
1F
100
AcDbEntity
  8
2240
370
     0
100
AcDbLine
 10
644539.5596705572
 20
4144889.064597757
 30
2245.958984375
 11
644536.7888910641
 21
4144889.847
 31
2246.139892578125
  0
LINE
  5
189
330
1F
100
AcDbEntity
  8
2240
370
     0
100
AcDbLine
 10
644527.3068910642
 20
4144872.64
 30
2245.99609375
 11
644526.3128910641
 21
4144868.315
 31
2245.968017578125
  0
LINE
  5
18A
330
1F
100
AcDbEntity
  8
2240
370
     0
100
AcDbLine
 10
644515.7128910641
 20
4144896.211
 30
2246.8740234375
 11
644508.5198910641
 21
4144900.98
 31
2246.79296875
  0
LINE
  5
18B
330
1F
100
AcDbEntity
  8
2240
370
     0
100
AcDbLine
 10
644523.5448910642
 20
4144890.669
 30
2246.7890625
 11
644515.7128910641
 21
4144896.211
 31
2246.8740234375
  0
LINE
  5
18C
330
1F
100
AcDbEntity
  8
2240
370
     0
100
AcDbLine
 10
644527.0118910641
 20
4144888.744
 30
2246.757080078125
 11
644523.5448910642
 21
4144890.669
 31
2246.7890625
  0
LINE
  5
18D
330
1F
100
AcDbEntity
  8
2240
370
     0
100
AcDbLine
 10
644508.5198910641
 20
4144900.98
 30
2246.79296875
 11
644502.5198910641
 21
4144904.929
 31
2246.903076171875
  0
LINE
  5
18E
330
1F
100
AcDbEntity
  8
2240
370
     0
100
AcDbLine
 10
644492.0398910642
 20
4144911.947
 30
2247.076904296875
 11
644490.1748910642
 21
4144913.268
 31
2247.031982421875
  0
LINE
  5
18F
330
1F
100
AcDbEntity
  8
2240
370
     0
100
AcDbLine
 10
644496.4438910641
 20
4144908.819
 30
2246.927001953125
 11
644492.0398910642
 21
4144911.947
 31
2247.076904296875
  0
LINE
  5
190
330
1F
100
AcDbEntity
  8
2240
370
     0
100
AcDbLine
 10
644502.5198910641
 20
4144904.929
 30
2246.903076171875
 11
644496.4438910641
 21
4144908.819
 31
2246.927001953125
  0
LINE
  5
191
330
1F
100
AcDbEntity
  8
2240
370
     0
100
AcDbLine
 10
644530.6778910641
 20
4144842.049
 30
2245.534912109375
 11
644529.4028910642
 21
4144837.004
 31
2245.31103515625
  0
LINE
  5
192
330
1F
100
AcDbEntity
  8
2240
370
     0
100
AcDbLine
 10
644526.1068910641
 20
4144859.698
 30
2245.98388671875
 11
644526.6608910641
 21
4144853.533
 31
2245.93798828125
  0
LINE
  5
193
330
1F
100
AcDbEntity
  8
2240
370
     0
100
AcDbLine
 10
644526.2198910641
 20
4144865.205
 30
2246.01904296875
 11
644526.1068910641
 21
4144859.698
 31
2245.98388671875
  0
LINE
  5
194
330
1F
100
AcDbEntity
  8
2240
370
     0
100
AcDbLine
 10
644526.3128910641
 20
4144868.315
 30
2245.968017578125
 11
644526.2198910641
 21
4144865.205
 31
2246.01904296875
  0
LINE
  5
195
330
1F
100
AcDbEntity
  8
2240
370
     0
100
AcDbLine
 10
644526.6608910641
 20
4144853.533
 30
2245.93798828125
 11
644528.2298910641
 21
4144850.082
 31
2246.0859375
  0
LINE
  5
196
330
1F
100
AcDbEntity
  8
2240
370
     0
100
AcDbLine
 10
644530.8128910641
 20
4144845.798
 30
2245.737060546875
 11
644530.6778910641
 21
4144842.049
 31
2245.534912109375
  0
LINE
  5
197
330
1F
100
AcDbEntity
  8
2240
370
     0
100
AcDbLine
 10
644530.4118910641
 20
4144846.757
 30
2245.864013671875
 11
644530.8128910641
 21
4144845.798
 31
2245.737060546875
  0
LINE
  5
198
330
1F
100
AcDbEntity
  8
2240
370
     0
100
AcDbLine
 10
644528.2298910641
 20
4144850.082
 30
2246.0859375
 11
644530.4118910641
 21
4144846.757
 31
2245.864013671875
  0
LINE
  5
199
330
1F
100
AcDbEntity
  8
2240
370
     0
100
AcDbLine
 10
644530.68025863
 20
4144853.146824378
 30
2246.04296875
 11
644530.0258910641
 21
4144854.884
 31
2246.0029296875
  0
LINE
  5
19A
330
1F
100
AcDbEntity
  8
2240
370
     0
100
AcDbLine
 10
644531.9148910642
 20
4144851.033
 30
2245.906005859375
 11
644530.68025863
 21
4144853.146824378
 31
2246.04296875
  0
LINE
  5
19B
330
1F
100
AcDbEntity
  8
2240
370
     0
100
AcDbLine
 10
644534.8258910641
 20
4144845.222
 30
2245.806884765625
 11
644534.4647001442
 21
4144847.926008468
 31
2245.824951171875
  0
LINE
  5
19C
330
1F
100
AcDbEntity
  8
2240
370
     0
100
AcDbLine
 10
644530.0258910641
 20
4144854.884
 30
2246.0029296875
 11
644529.5408910641
 21
4144860.169
 31
2246.06494140625
  0
LINE
  5
19D
330
1F
100
AcDbEntity
  8
2240
370
     0
100
AcDbLine
 10
644530.6818910642
 20
4144871.184
 30
2246.087890625
 11
644533.0968910641
 21
4144874.723
 31
2246.052001953125
  0
LINE
  5
19E
330
1F
100
AcDbEntity
  8
2240
370
     0
100
AcDbLine
 10
644529.4508910641
 20
4144866.651
 30
2246.083984375
 11
644530.6818910642
 21
4144871.184
 31
2246.087890625
  0
LINE
  5
19F
330
1F
100
AcDbEntity
  8
2240
370
     0
100
AcDbLine
 10
644529.5408910641
 20
4144860.169
 30
2246.06494140625
 11
644529.4508910641
 21
4144866.651
 31
2246.083984375
  0
LINE
  5
1A0
330
1F
100
AcDbEntity
  8
2240
370
     0
100
AcDbLine
 10
644533.6038910642
 20
4144840.157
 30
2245.493896484375
 11
644534.8258910641
 21
4144845.222
 31
2245.806884765625
  0
LINE
  5
1A1
330
1F
100
AcDbEntity
  8
2240
370
     0
100
AcDbLine
 10
644482.7023128426
 20
4144777.676432534
 30
2240.531982421875
 11
644480.4518910642
 21
4144776.357
 31
2240.208984375
  0
LINE
  5
1A2
330
1F
100
AcDbEntity
  8
2240
370
     0
100
AcDbLine
 10
644532.7878910641
 20
4144836.808
 30
2245.299072265625
 11
644533.6038910642
 21
4144840.157
 31
2245.493896484375
  0
LINE
  5
1A3
330
1F
100
AcDbEntity
  8
2240
370
     0
100
AcDbLine
 10
644532.9648910641
 20
4144833.121
 30
2245.123046875
 11
644532.7878910641
 21
4144836.808
 31
2245.299072265625
  0
LINE
  5
1A4
330
1F
100
AcDbEntity
  8
2240
370
     0
100
AcDbLine
 10
644480.4518910642
 20
4144776.357
 30
2240.208984375
 11
644479.8711633161
 21
4144775.827
 31
2240.364013671875
  0
LINE
  5
1A5
330
1F
100
AcDbEntity
  8
2240
370
     0
100
AcDbLine
 10
644533.0968910641
 20
4144874.723
 30
2246.052001953125
 11
644537.0758910641
 21
4144877.923
 31
2245.955078125
  0
LINE
  5
1A6
330
1F
100
AcDbEntity
  8
2240
370
     0
100
AcDbLine
 10
644541.7378910641
 20
4144879.628
 30
2246.075927734375
 11
644542.8618910641
 21
4144883.664
 31
2246.134033203125
  0
LINE
  5
1A7
330
1F
100
AcDbEntity
  8
2240
370
     0
100
AcDbLine
 10
644538.6628910641
 20
4144878.639
 30
2245.929931640625
 11
644541.7378910641
 21
4144879.628
 31
2246.075927734375
  0
LINE
  5
1A8
330
1F
100
AcDbEntity
  8
2240
370
     0
100
AcDbLine
 10
644537.0758910641
 20
4144877.923
 30
2245.955078125
 11
644538.6628910641
 21
4144878.639
 31
2245.929931640625
  0
LINE
  5
1A9
330
1F
100
AcDbEntity
  8
2240
370
     0
100
AcDbLine
 10
644542.8618910641
 20
4144883.664
 30
2246.134033203125
 11
644543.9605516663
 21
4144887.652548025
 31
2246.0009765625
  0
LINE
  5
1AA
330
1F
100
AcDbEntity
  8
2240
370
     0
100
AcDbLine
 10
644678.6605857179
 20
4144881.859
 30
2237.72900390625
 11
644685.0971662502
 21
4144887.742
 31
2236.55810546875
  0
LINE
  5
1AB
330
1F
100
AcDbEntity
  8
2240
370
     0
100
AcDbLine
 10
644685.0971662502
 20
4144887.742
 30
2236.360107421875
 11
644688.0171662502
 21
4144890.166
 31
2236.111083984375
  0
LINE
  5
1AC
330
1F
100
AcDbEntity
  8
2240
370
     0
100
AcDbLine
 10
644688.0171662502
 20
4144890.166
 30
2236.111083984375
 11
644690.7505857178
 21
4144892.365
 31
2235.904052734375
  0
LINE
  5
1AD
330
1F
100
AcDbEntity
  8
2240
370
     0
100
AcDbLine
 10
644495.252163316
 20
4144740.187
 30
2243.31396484375
 11
644498.157322933
 21
4144748.383431312
 31
2245.56396484375
  0
LINE
  5
1AE
330
1F
100
AcDbEntity
  8
2240
370
     0
100
AcDbLine
 10
644473.8642141593
 20
4144713.441604591
 30
2228.535888671875
 11
644468.9587904101
 21
4144711.417
 31
2228.93505859375
  0
LINE
  5
1AF
330
1F
100
AcDbEntity
  8
2240
370
     0
100
AcDbLine
 10
644668.4653730716
 20
4144870.28
 30
2240.115966796875
 11
644668.1757543565
 21
4144870.066
 31
2240.31689453125
  0
LINE
  5
1B0
330
1F
100
AcDbEntity
  8
2240
370
     0
100
AcDbLine
 10
644668.1757543565
 20
4144870.066
 30
2240.8310546875
 11
644664.7057543566
 21
4144866.871
 31
2240.8359375
  0
LINE
  5
1B1
330
1F
100
AcDbEntity
  8
2240
370
     0
100
AcDbLine
 10
644664.7057543566
 20
4144866.871
 30
2240.8359375
 11
644663.6593730716
 21
4144866.103
 31
2240.98291015625
  0
LINE
  5
1B2
330
1F
100
AcDbEntity
  8
2240
370
     0
100
AcDbLine
 10
644609.3223501584
 20
4144844.69552922
 30
2249.180908203125
 11
644614.6736590103
 21
4144846.72927787
 31
2249.014892578125
  0
LINE
  5
1B3
330
1F
100
AcDbEntity
  8
2240
370
     0
100
AcDbLine
 10
644550.3748910641
 20
4145031.957
 30
2246.1240234375
 11
644554.1618910641
 21
4145026.463
 31
2246.889892578125
  0
TEXT
  5
2F3
330
1F
100
AcDbEntity
  8
TEXT_BLUE
370
     0
100
AcDbText
 10
644480.4945760567
 20
4144769.767791345
 30
0.0
 40
2.0
  1
2240
100
AcDbText
  0
POINT
  5
35E
330
1F
100
AcDbEntity
  8
INIT_COORD
100
AcDbPoint
 10
644482.7182904101
 20
4144728.427
 30
2225.68603515625
  0
LINE
  5
3D1
330
1F
100
AcDbEntity
  8
GEOFENCE
100
AcDbLine
 10
644476.50529041
 20
4144717.458
 30
2227.545532226562
 11
644466.6877904101
 21
4144713.302
 31
2229.5615234375
  0
LINE
  5
3D2
330
1F
100
AcDbEntity
  8
GEOFENCE
100
AcDbLine
 10
644466.6877904101
 20
4144713.302
 30
2229.5615234375
 11
644457.3352496644
 21
4144717.529597565
 31
2230.611854557322
  0
LINE
  5
3D3
330
1F
100
AcDbEntity
  8
GEOFENCE
100
AcDbLine
 10
644457.3352496644
 20
4144717.529597565
 30
2230.611854557322
 11
644450.2292904102
 21
4144725.9235
 31
2231.79296875
  0
LINE
  5
3D4
330
1F
100
AcDbEntity
  8
GEOFENCE
100
AcDbLine
 10
644450.2292904102
 20
4144725.9235
 30
2231.79296875
 11
644448.6122904101
 21
4144733.8605
 31
2233.299926757812
  0
LINE
  5
3D5
330
1F
100
AcDbEntity
  8
GEOFENCE
100
AcDbLine
 10
644448.6122904101
 20
4144733.8605
 30
2233.299926757812
 11
644450.0127904101
 21
4144741.6295
 31
2234.746459960938
  0
LINE
  5
3D6
330
1F
100
AcDbEntity
  8
GEOFENCE
100
AcDbLine
 10
644450.0127904101
 20
4144741.6295
 30
2234.746459960938
 11
644452.83629041
 21
4144747.1225
 31
2235.7509765625
  0
LINE
  5
3D7
330
1F
100
AcDbEntity
  8
GEOFENCE
100
AcDbLine
 10
644452.83629041
 20
4144747.1225
 30
2235.7509765625
 11
644460.827476863
 21
4144757.4775
 31
2237.494506835938
  0
LINE
  5
3D8
330
1F
100
AcDbEntity
  8
GEOFENCE
100
AcDbLine
 10
644460.827476863
 20
4144757.4775
 30
2237.494506835938
 11
644472.177163316
 21
4144765.8055
 31
2239.405029296875
  0
LINE
  5
3D9
330
1F
100
AcDbEntity
  8
GEOFENCE
100
AcDbLine
 10
644472.177163316
 20
4144765.8055
 30
2239.405029296875
 11
644478.802163316
 21
4144777.3055
 31
2240.33154296875
  0
LINE
  5
3DA
330
1F
100
AcDbEntity
  8
GEOFENCE
100
AcDbLine
 10
644478.802163316
 20
4144777.3055
 30
2240.33154296875
 11
644490.9503910642
 21
4144783.836
 31
2241.109985351562
  0
LINE
  5
3DB
330
1F
100
AcDbEntity
  8
GEOFENCE
100
AcDbLine
 10
644490.9503910642
 20
4144783.836
 30
2241.109985351562
 11
644502.3758910641
 21
4144785.7675
 31
2241.735961914062
  0
LINE
  5
3DC
330
1F
100
AcDbEntity
  8
GEOFENCE
100
AcDbLine
 10
644502.3758910641
 20
4144785.7675
 30
2241.735961914062
 11
644519.7113910641
 21
4144795.2415
 31
2242.44091796875
  0
LINE
  5
3DD
330
1F
100
AcDbEntity
  8
GEOFENCE
100
AcDbLine
 10
644519.7113910641
 20
4144795.2415
 30
2242.44091796875
 11
644535.9568580586
 21
4144805.855563819
 31
2243.996948242188
  0
LINE
  5
3DE
330
1F
100
AcDbEntity
  8
GEOFENCE
100
AcDbLine
 10
644535.9568580586
 20
4144805.855563819
 30
2243.996948242188
 11
644536.4375308802
 21
4144816.612356161
 31
2244.286394010739
  0
LINE
  5
3DF
330
1F
100
AcDbEntity
  8
GEOFENCE
100
AcDbLine
 10
644536.4375308802
 20
4144816.612356161
 30
2244.286394010739
 11
644535.2278975127
 21
4144822.235621392
 31
2244.70849609375
  0
LINE
  5
3E0
330
1F
100
AcDbEntity
  8
GEOFENCE
100
AcDbLine
 10
644535.2278975127
 20
4144822.235621392
 30
2244.70849609375
 11
644531.8746410641
 21
4144831.42775
 31
2245.080810546875
  0
LINE
  5
3E1
330
1F
100
AcDbEntity
  8
GEOFENCE
100
AcDbLine
 10
644531.8746410641
 20
4144831.42775
 30
2245.080810546875
 11
644531.2993910641
 21
4144837.74325
 31
2245.353759765625
  0
LINE
  5
3E2
330
1F
100
AcDbEntity
  8
GEOFENCE
100
AcDbLine
 10
644531.2993910641
 20
4144837.74325
 30
2245.353759765625
 11
644532.6387956042
 21
4144846.862004234
 31
2245.781005859375
  0
LINE
  5
3E3
330
1F
100
AcDbEntity
  8
GEOFENCE
100
AcDbLine
 10
644532.6387956042
 20
4144846.862004234
 30
2245.781005859375
 11
644528.3433910641
 21
4144854.2085
 31
2245.970458984375
  0
LINE
  5
3E4
330
1F
100
AcDbEntity
  8
GEOFENCE
100
AcDbLine
 10
644528.3433910641
 20
4144854.2085
 30
2245.970458984375
 11
644527.858641064
 21
4144866.7055
 31
2246.038757324219
  0
LINE
  5
3E5
330
1F
100
AcDbEntity
  8
GEOFENCE
100
AcDbLine
 10
644527.858641064
 20
4144866.7055
 30
2246.038757324219
 11
644528.9943910642
 21
4144871.912
 31
2246.0419921875
  0
LINE
  5
3E6
330
1F
100
AcDbEntity
  8
GEOFENCE
100
AcDbLine
 10
644528.9943910642
 20
4144871.912
 30
2246.0419921875
 11
644531.9398910641
 21
4144876.156
 31
2246.076049804688
  0
LINE
  5
3E7
330
1F
100
AcDbEntity
  8
GEOFENCE
100
AcDbLine
 10
644531.9398910641
 20
4144876.156
 30
2246.076049804688
 11
644538.9493910641
 21
4144880.552
 31
2246.073974609375
  0
LINE
  5
3E8
330
1F
100
AcDbEntity
  8
GEOFENCE
100
AcDbLine
 10
644538.9493910641
 20
4144880.552
 30
2246.073974609375
 11
644540.0422213653
 21
4144886.676274013
 31
2246.155517578125
  0
LINE
  5
3E9
330
1F
100
AcDbEntity
  8
GEOFENCE
100
AcDbLine
 10
644540.0422213653
 20
4144886.676274013
 30
2246.155517578125
 11
644529.6182277038
 21
4144889.060867976
 31
2246.888427734375
  0
LINE
  5
3EA
330
1F
100
AcDbEntity
  8
GEOFENCE
100
AcDbLine
 10
644529.6182277038
 20
4144889.060867976
 30
2246.888427734375
 11
644488.2508910641
 21
4144917.2885
 31
2247.659057617188
  0
LINE
  5
3EB
330
1F
100
AcDbEntity
  8
GEOFENCE
100
AcDbLine
 10
644488.2508910641
 20
4144917.2885
 30
2247.659057617188
 11
644495.9342107538
 21
4144925.4648364
 31
2248.367797851562
  0
LINE
  5
3EC
330
1F
100
AcDbEntity
  8
GEOFENCE
100
AcDbLine
 10
644495.9342107538
 20
4144925.4648364
 30
2248.367797851562
 11
644512.1538599897
 21
4144920.050471089
 31
2250.380981445312
  0
LINE
  5
3EE
330
1F
100
AcDbEntity
  8
GEOFENCE
100
AcDbLine
 10
644530.4341410642
 20
4144926.0295
 30
2248.658203125
 11
644549.0208910641
 21
4144930.5265
 31
2248.548461914062
  0
LINE
  5
3EF
330
1F
100
AcDbEntity
  8
GEOFENCE
100
AcDbLine
 10
644549.0208910641
 20
4144930.5265
 30
2248.548461914062
 11
644579.6008000382
 21
4144948.634861105
 31
2247.755981445312
  0
LINE
  5
3F0
330
1F
100
AcDbEntity
  8
GEOFENCE
100
AcDbLine
 10
644579.6008000382
 20
4144948.634861105
 30
2247.755981445312
 11
644581.2293910641
 21
4144954.469
 31
2247.248046875
  0
LINE
  5
3F1
330
1F
100
AcDbEntity
  8
GEOFENCE
100
AcDbLine
 10
644581.2293910641
 20
4144954.469
 30
2247.248046875
 11
644576.2182097541
 21
4144973.935012574
 31
2246.628871141592
  0
LINE
  5
3F2
330
1F
100
AcDbEntity
  8
GEOFENCE
100
AcDbLine
 10
644576.2182097541
 20
4144973.935012574
 30
2246.628871141592
 11
644570.4898910641
 21
4144990.0685
 31
2247.733032226562
  0
LINE
  5
3F3
330
1F
100
AcDbEntity
  8
GEOFENCE
100
AcDbLine
 10
644570.4898910641
 20
4144990.0685
 30
2247.733032226562
 11
644554.8618910641
 21
4145021.6815
 31
2247.366943359375
  0
LINE
  5
3F4
330
1F
100
AcDbEntity
  8
GEOFENCE
100
AcDbLine
 10
644554.8618910641
 20
4145021.6815
 30
2247.366943359375
 11
644546.9823910642
 21
4145034.395
 31
2245.068969726562
  0
LINE
  5
3F5
330
1F
100
AcDbEntity
  8
GEOFENCE
100
AcDbLine
 10
644546.9823910642
 20
4145034.395
 30
2245.068969726562
 11
644546.3938983323
 21
4145041.752839744
 31
2243.842529296875
  0
LINE
  5
3F6
330
1F
100
AcDbEntity
  8
GEOFENCE
100
AcDbLine
 10
644546.3938983323
 20
4145041.752839744
 30
2243.842529296875
 11
644549.676891064
 21
4145046.7685
 31
2242.598022460938
  0
LINE
  5
3F7
330
1F
100
AcDbEntity
  8
GEOFENCE
100
AcDbLine
 10
644549.676891064
 20
4145046.7685
 30
2242.598022460938
 11
644560.7248910641
 21
4145049.026
 31
2240.840454101562
  0
LINE
  5
3F8
330
1F
100
AcDbEntity
  8
GEOFENCE
100
AcDbLine
 10
644560.7248910641
 20
4145049.026
 30
2240.840454101562
 11
644571.8939307227
 21
4145046.17248353
 31
2239.877563476562
  0
LINE
  5
3F9
330
1F
100
AcDbEntity
  8
GEOFENCE
100
AcDbLine
 10
644571.8939307227
 20
4145046.17248353
 30
2239.877563476562
 11
644577.6407659715
 21
4145035.8795
 31
2236.590087890625
  0
LINE
  5
3FA
330
1F
100
AcDbEntity
  8
GEOFENCE
100
AcDbLine
 10
644577.6407659715
 20
4145035.8795
 30
2236.590087890625
 11
644576.9782659714
 21
4145029.4625
 31
2234.901489257812
  0
LINE
  5
3FB
330
1F
100
AcDbEntity
  8
GEOFENCE
100
AcDbLine
 10
644576.9782659714
 20
4145029.4625
 30
2234.901489257812
 11
644574.8157659713
 21
4145024.8505
 31
2233.819946289062
  0
LINE
  5
3FC
330
1F
100
AcDbEntity
  8
GEOFENCE
100
AcDbLine
 10
644574.8157659713
 20
4145024.8505
 30
2233.819946289062
 11
644569.2162659714
 21
4145019.9795
 31
2232.490966796875
  0
LINE
  5
3FD
330
1F
100
AcDbEntity
  8
GEOFENCE
100
AcDbLine
 10
644560.7248910641
 20
4145049.026
 30
2240.840454101562
 11
644560.3732659713
 21
4145036.236
 31
2241.97509765625
  0
LINE
  5
3FE
330
1F
100
AcDbEntity
  8
GEOFENCE
100
AcDbLine
 10
644472.177163316
 20
4144765.8055
 30
2239.405029296875
 11
644486.234163316
 21
4144761.0545
 31
2241.096557617188
  0
LINE
  5
3FF
330
1F
100
AcDbEntity
  8
GEOFENCE
100
AcDbLine
 10
644486.234163316
 20
4144761.0545
 30
2241.096557617188
 11
644493.340663316
 21
4144754.537
 31
2241.99951171875
  0
LINE
  5
400
330
1F
100
AcDbEntity
  8
GEOFENCE
100
AcDbLine
 10
644493.340663316
 20
4144754.537
 30
2241.99951171875
 11
644496.0982431246
 21
4144748.183215656
 31
2242.657592773438
  0
LINE
  5
401
330
1F
100
AcDbEntity
  8
GEOFENCE
100
AcDbLine
 10
644496.0982431246
 20
4144748.183215656
 30
2242.657592773438
 11
644493.453163316
 21
4144740.621
 31
2243.507934570312
  0
LINE
  5
402
330
1F
100
AcDbEntity
  8
GEOFENCE
100
AcDbLine
 10
644493.453163316
 20
4144740.621
 30
2243.507934570312
 11
644489.403663316
 21
4144736.6835
 31
2244.10791015625
  0
LINE
  5
403
330
1F
100
AcDbEntity
  8
GEOFENCE
100
AcDbLine
 10
644489.403663316
 20
4144736.6835
 30
2244.10791015625
 11
644484.8267221387
 21
4144733.940878615
 31
2244.8525390625
  0
LINE
  5
404
330
1F
100
AcDbEntity
  8
GEOFENCE
100
AcDbLine
 10
644484.8267221387
 20
4144733.940878615
 30
2244.8525390625
 11
644474.406163316
 21
4144733.276
 31
2245.941040039062
  0
LINE
  5
405
330
1F
100
AcDbEntity
  8
GEOFENCE
100
AcDbLine
 10
644535.9568580586
 20
4144805.855563819
 30
2243.996948242188
 11
644544.5452316336
 21
4144799.369452266
 31
2244.055908203125
  0
LINE
  5
406
330
1F
100
AcDbEntity
  8
GEOFENCE
100
AcDbLine
 10
644544.5452316336
 20
4144799.369452266
 30
2244.055908203125
 11
644557.7787907044
 21
4144805.777470547
 31
2244.762200954395
  0
LINE
  5
407
330
1F
100
AcDbEntity
  8
GEOFENCE
100
AcDbLine
 10
644557.7787907044
 20
4144805.777470547
 30
2244.762200954395
 11
644577.7108753399
 21
4144821.541014369
 31
2246.282470703125
  0
LINE
  5
408
330
1F
100
AcDbEntity
  8
GEOFENCE
100
AcDbLine
 10
644577.7108753399
 20
4144821.541014369
 30
2246.282470703125
 11
644582.2070360283
 21
4144830.747341049
 31
2247.260498046875
  0
LINE
  5
409
330
1F
100
AcDbEntity
  8
GEOFENCE
100
AcDbLine
 10
644582.2070360283
 20
4144830.747341049
 30
2247.260498046875
 11
644592.0256864824
 21
4144838.385609463
 31
2247.74853515625
  0
LINE
  5
40A
330
1F
100
AcDbEntity
  8
GEOFENCE
100
AcDbLine
 10
644592.0256864824
 20
4144838.385609463
 30
2247.74853515625
 11
644615.1114822561
 21
4144844.06926966
 31
2248.936401367188
  0
LINE
  5
40B
330
1F
100
AcDbEntity
  8
GEOFENCE
100
AcDbLine
 10
644615.1114822561
 20
4144844.06926966
 30
2248.936401367188
 11
644636.9706952167
 21
4144847.889660855
 31
2246.91650390625
  0
LINE
  5
40C
330
1F
100
AcDbEntity
  8
GEOFENCE
100
AcDbLine
 10
644636.9706952167
 20
4144847.889660855
 30
2246.91650390625
 11
644657.8858730716
 21
4144863.022
 31
2242.244995117188
  0
LINE
  5
40D
330
1F
100
AcDbEntity
  8
GEOFENCE
100
AcDbLine
 10
644657.8858730716
 20
4144863.022
 30
2242.244995117188
 11
644666.86445237
 21
4144871.875148933
 31
2240.448486328125
  0
LINE
  5
40E
330
1F
100
AcDbEntity
  8
GEOFENCE
100
AcDbLine
 10
644666.86445237
 20
4144871.875148933
 30
2240.448486328125
 11
644680.9225857179
 21
4144881.583
 31
2237.513549804688
  0
LINE
  5
40F
330
1F
100
AcDbEntity
  8
GEOFENCE
100
AcDbLine
 10
644680.9225857179
 20
4144881.583
 30
2237.513549804688
 11
644698.7207898914
 21
4144897.007489352
 31
2235.6005859375
  0
LINE
  5
417
330
1F
100
AcDbEntity
  8
GEOFENCE
100
AcDbLine
 10
644512.1538599897
 20
4144920.050471089
 30
2250.380981445312
 11
644530.4341410642
 21
4144926.0295
 31
2248.658203125
  0
LINE
  5
41F
330
1F
100
AcDbEntity
  8
GEOFENCE
100
AcDbLine
 10
644482.7182904101
 20
4144728.427
 30
2225.68603515625
 11
644476.50529041
 21
4144717.458
 31
2227.545532226562
  0
ENDSEC
  0
SECTION
  2
OBJECTS
  0
DICTIONARY
  5
C
330
0
100
AcDbDictionary
281
     1
  3
ACAD_DETAILVIEWSTYLE
350
350
  3
ACAD_GROUP
350
D
  3
ACAD_IMAGE_VARS
350
346
  3
ACAD_LAYOUT
350
1A
  3
ACAD_MATERIAL
350
3B
  3
ACAD_MLEADERSTYLE
350
315
  3
ACAD_MLINESTYLE
350
17
  3
ACAD_PLOTSETTINGS
350
19
  3
ACAD_PLOTSTYLENAME
350
E
  3
ACAD_SCALELIST
350
316
  3
ACAD_SECTIONVIEWSTYLE
350
351
  3
ACAD_TABLESTYLE
350
314
  3
ACAD_VISUALSTYLE
350
2A
  3
ACDB_RECOMPOSE_DATA
350
422
  3
AcDbVariableDictionary
350
34B
  3
APPDATA
350
344
  0
SUN
  5
345
330
29
100
AcDbSun
 90
        1
290
     0
 63
     7
421
 16777215
 40
1.0
291
     1
 91
  2455826
 92
 54000000
292
     0
 70
     2
 71
   256
280
     1
  0
DICTIONARY
  5
347
330
2
100
AcDbDictionary
280
     1
281
     1
  3
ACAD_LAYERSTATES
360
348
  3
ACLYDICTIONARY
360
415
  0
DICTIONARY
  5
350
102
{ACAD_REACTORS
330
C
102
}
330
C
100
AcDbDictionary
281
     1
  0
DICTIONARY
  5
D
102
{ACAD_REACTORS
330
C
102
}
330
C
100
AcDbDictionary
281
     1
  0
RASTERVARIABLES
  5
346
102
{ACAD_REACTORS
330
C
102
}
330
C
100
AcDbRasterVariables
 90
        0
 70
     1
 71
     1
 72
     1
  0
DICTIONARY
  5
1A
102
{ACAD_REACTORS
330
C
102
}
330
C
100
AcDbDictionary
281
     1
  3
Layout1
350
1E
  3
Layout2
350
26
  3
Model
350
22
  0
DICTIONARY
  5
3B
102
{ACAD_REACTORS
330
C
102
}
330
C
100
AcDbDictionary
281
     1
  3
ByBlock
350
3D
  3
ByLayer
350
3C
  3
Global
350
3E
  0
DICTIONARY
  5
315
102
{ACAD_REACTORS
330
C
102
}
330
C
100
AcDbDictionary
281
     1
  3
Standard
350
343
  0
DICTIONARY
  5
17
102
{ACAD_REACTORS
330
C
102
}
330
C
100
AcDbDictionary
281
     1
  3
Standard
350
18
  0
DICTIONARY
  5
19
102
{ACAD_REACTORS
330
C
102
}
330
C
100
AcDbDictionary
281
     1
  0
ACDBDICTIONARYWDFLT
  5
E
102
{ACAD_REACTORS
330
C
102
}
330
C
100
AcDbDictionary
281
     1
  3
Normal
350
F
100
AcDbDictionaryWithDefault
340
F
  0
DICTIONARY
  5
316
102
{ACAD_REACTORS
330
C
102
}
330
C
100
AcDbDictionary
281
     1
  3
A0
350
317
  3
A1
350
318
  3
A2
350
319
  3
A3
350
31A
  3
A4
350
31B
  3
A5
350
31C
  3
A6
350
31D
  3
A7
350
31E
  3
A8
350
31F
  3
A9
350
320
  3
B0
350
321
  3
B1
350
322
  3
B2
350
323
  3
B3
350
324
  3
B4
350
325
  3
B5
350
326
  3
B6
350
327
  3
B7
350
328
  3
B8
350
329
  3
B9
350
32A
  3
C0
350
32B
  3
C1
350
32C
  3
C2
350
32D
  3
C3
350
32E
  3
C4
350
32F
  3
C5
350
330
  3
C6
350
331
  3
C7
350
332
  3
C8
350
333
  3
C9
350
334
  3
D0
350
335
  3
D1
350
336
  3
D2
350
337
  0
DICTIONARY
  5
351
102
{ACAD_REACTORS
330
C
102
}
330
C
100
AcDbDictionary
281
     1
  0
DICTIONARY
  5
314
102
{ACAD_REACTORS
330
C
102
}
330
C
100
AcDbDictionary
281
     1
  3
Standard
350
342
  0
DICTIONARY
  5
2A
102
{ACAD_REACTORS
330
C
102
}
330
C
100
AcDbDictionary
281
     1
  3
2dWireframe
350
2F
  3
3D Hidden
350
31
  3
3dWireframe
350
30
  3
Basic
350
32
  3
Brighten
350
36
  3
ColorChange
350
3A
  3
Conceptual
350
34
  3
Dim
350
35
  3
EdgeColorOff
350
33C
  3
Facepattern
350
39
  3
Flat
350
2B
  3
FlatWithEdges
350
2C
  3
Gouraud
350
2D
  3
GouraudWithEdges
350
2E
  3
Hidden
350
339
  3
JitterOff
350
33A
  3
Linepattern
350
38
  3
OverhangOff
350
33B
  3
Realistic
350
33
  3
Shaded
350
341
  3
Shaded with edges
350
340
  3
Shades of Gray
350
33D
  3
Sketchy
350
33E
  3
Thicken
350
37
  3
Wireframe
350
338
  3
X-Ray
350
33F
  0
XRECORD
  5
422
102
{ACAD_REACTORS
330
C
102
}
330
C
100
AcDbXrecord
280
     1
 90
        1
330
342
  0
DICTIONARY
  5
34B
102
{ACAD_REACTORS
330
C
102
}
330
C
100
AcDbDictionary
281
     1
  3
CANNOSCALE
350
34C
  3
CMLEADERSTYLE
350
34E
  3
CTABLESTYLE
350
34D
  3
XCLIPFRAME
350
34F
  0
DICTIONARY
  5
344
102
{ACAD_REACTORS
330
C
102
}
330
C
100
AcDbDictionary
281
     1
  0
DICTIONARY
  5
348
102
{ACAD_REACTORS
330
347
102
}
330
347
100
AcDbDictionary
281
     1
  0
DICTIONARY
  5
415
102
{ACAD_REACTORS
330
347
102
}
330
347
100
AcDbDictionary
281
     1
1001
ACAD
1000
<All
  0
LAYOUT
  5
1E
102
{ACAD_REACTORS
330
1A
102
}
330
1A
100
AcDbPlotSettings
  1

  2
none_device
  4

  6

 40
0.0
 41
0.0
 42
0.0
 43
0.0
 44
0.0
 45
0.0
 46
0.0
 47
0.0
 48
0.0
 49
0.0
140
0.0
141
0.0
142
1.0
143
1.0
 70
   688
 72
     0
 73
     0
 74
     5
  7

 75
    16
 76
     0
 77
     2
 78
   300
147
1.0
148
0.0
149
0.0
100
AcDbLayout
  1
Layout1
 70
     1
 71
     1
 10
0.0
 20
0.0
 11
420.0
 21
297.0
 12
0.0
 22
0.0
 32
0.0
 14
1.000000000000000E+20
 24
1.000000000000000E+20
 34
1.000000000000000E+20
 15
-1.000000000000000E+20
 25
-1.000000000000000E+20
 35
-1.000000000000000E+20
146
0.0
 13
0.0
 23
0.0
 33
0.0
 16
1.0
 26
0.0
 36
0.0
 17
0.0
 27
1.0
 37
0.0
 76
     0
330
1B
  0
LAYOUT
  5
26
102
{ACAD_REACTORS
330
1A
102
}
330
1A
100
AcDbPlotSettings
  1

  2
none_device
  4

  6

 40
0.0
 41
0.0
 42
0.0
 43
0.0
 44
0.0
 45
0.0
 46
0.0
 47
0.0
 48
0.0
 49
0.0
140
0.0
141
0.0
142
1.0
143
1.0
 70
   688
 72
     0
 73
     0
 74
     5
  7

 75
    16
 76
     0
 77
     2
 78
   300
147
1.0
148
0.0
149
0.0
100
AcDbLayout
  1
Layout2
 70
     1
 71
     2
 10
0.0
 20
0.0
 11
0.0
 21
0.0
 12
0.0
 22
0.0
 32
0.0
 14
0.0
 24
0.0
 34
0.0
 15
0.0
 25
0.0
 35
0.0
146
0.0
 13
0.0
 23
0.0
 33
0.0
 16
1.0
 26
0.0
 36
0.0
 17
0.0
 27
1.0
 37
0.0
 76
     0
330
23
  0
LAYOUT
  5
22
102
{ACAD_REACTORS
330
1A
102
}
330
1A
100
AcDbPlotSettings
  1

  2
none_device
  4

  6

 40
0.0
 41
0.0
 42
0.0
 43
0.0
 44
0.0
 45
0.0
 46
0.0
 47
0.0
 48
0.0
 49
0.0
140
0.0
141
0.0
142
1.0
143
1.0
 70
  1712
 72
     0
 73
     0
 74
     0
  7

 75
     0
 76
     0
 77
     2
 78
   300
147
1.0
148
0.0
149
0.0
100
AcDbLayout
  1
Model
 70
     1
 71
     0
 10
0.0
 20
0.0
 11
420.0
 21
297.0
 12
0.0
 22
0.0
 32
0.0
 14
644446.8937904101
 24
4144710.968
 34
0.0
 15
644700.7165857179
 25
4145051.417
 35
2250.8359375
146
0.0
 13
0.0
 23
0.0
 33
0.0
 16
1.0
 26
0.0
 36
0.0
 17
0.0
 27
1.0
 37
0.0
 76
     0
330
1F
331
29
  0
MATERIAL
  5
3D
102
{ACAD_REACTORS
330
3B
102
}
330
3B
100
AcDbMaterial
  1
ByBlock
 72
     1
 94
      127
  0
MATERIAL
  5
3C
102
{ACAD_REACTORS
330
3B
102
}
330
3B
100
AcDbMaterial
  1
ByLayer
 72
     1
 94
      127
  0
MATERIAL
  5
3E
102
{ACAD_REACTORS
330
3B
102
}
330
3B
100
AcDbMaterial
  1
Global
 72
     1
 94
      127
  0
MLEADERSTYLE
  5
343
102
{ACAD_REACTORS
330
315
102
}
330
315
100
AcDbMLeaderStyle
179
     2
170
     2
171
     1
172
     0
 90
        2
 40
0.0
 41
0.0
173
     1
 91
-1056964608
340
14
 92
       -2
290
     1
 42
2.0
291
     1
 43
8.0
  3
Standard
341
0
 44
4.0
300

342
11
174
     1
178
     6
175
     1
176
     0
 93
-1056964608
 45
4.0
292
     0
297
     0
 46
4.0
343
0
 94
-1056964608
 47
1.0
 49
1.0
140
1.0
293
     1
141
0.0
294
     1
177
     0
142
1.0
295
     0
296
     0
143
3.75
271
     0
272
     9
273
     9
  0
MLINESTYLE
  5
18
102
{ACAD_REACTORS
330
17
102
}
330
17
100
AcDbMlineStyle
  2
Standard
 70
     0
  3

 62
   256
 51
90.0
 52
90.0
 71
     2
 49
0.5
 62
   256
  6
BYLAYER
 49
-0.5
 62
   256
  6
BYLAYER
  0
ACDBPLACEHOLDER
  5
F
102
{ACAD_REACTORS
330
E
102
}
330
E
  0
SCALE
  5
317
102
{ACAD_REACTORS
330
316
102
}
330
316
100
AcDbScale
 70
     0
300
1:1
140
1.0
141
1.0
290
     1
  0
SCALE
  5
318
102
{ACAD_REACTORS
330
316
102
}
330
316
100
AcDbScale
 70
     0
300
1:2
140
1.0
141
2.0
290
     0
  0
SCALE
  5
319
102
{ACAD_REACTORS
330
316
102
}
330
316
100
AcDbScale
 70
     0
300
1:4
140
1.0
141
4.0
290
     0
  0
SCALE
  5
31A
102
{ACAD_REACTORS
330
316
102
}
330
316
100
AcDbScale
 70
     0
300
1:5
140
1.0
141
5.0
290
     0
  0
SCALE
  5
31B
102
{ACAD_REACTORS
330
316
102
}
330
316
100
AcDbScale
 70
     0
300
1:8
140
1.0
141
8.0
290
     0
  0
SCALE
  5
31C
102
{ACAD_REACTORS
330
316
102
}
330
316
100
AcDbScale
 70
     0
300
1:10
140
1.0
141
10.0
290
     0
  0
SCALE
  5
31D
102
{ACAD_REACTORS
330
316
102
}
330
316
100
AcDbScale
 70
     0
300
1:16
140
1.0
141
16.0
290
     0
  0
SCALE
  5
31E
102
{ACAD_REACTORS
330
316
102
}
330
316
100
AcDbScale
 70
     0
300
1:20
140
1.0
141
20.0
290
     0
  0
SCALE
  5
31F
102
{ACAD_REACTORS
330
316
102
}
330
316
100
AcDbScale
 70
     0
300
1:30
140
1.0
141
30.0
290
     0
  0
SCALE
  5
320
102
{ACAD_REACTORS
330
316
102
}
330
316
100
AcDbScale
 70
     0
300
1:40
140
1.0
141
40.0
290
     0
  0
SCALE
  5
321
102
{ACAD_REACTORS
330
316
102
}
330
316
100
AcDbScale
 70
     0
300
1:50
140
1.0
141
50.0
290
     0
  0
SCALE
  5
322
102
{ACAD_REACTORS
330
316
102
}
330
316
100
AcDbScale
 70
     0
300
1:100
140
1.0
141
100.0
290
     0
  0
SCALE
  5
323
102
{ACAD_REACTORS
330
316
102
}
330
316
100
AcDbScale
 70
     0
300
2:1
140
2.0
141
1.0
290
     0
  0
SCALE
  5
324
102
{ACAD_REACTORS
330
316
102
}
330
316
100
AcDbScale
 70
     0
300
4:1
140
4.0
141
1.0
290
     0
  0
SCALE
  5
325
102
{ACAD_REACTORS
330
316
102
}
330
316
100
AcDbScale
 70
     0
300
8:1
140
8.0
141
1.0
290
     0
  0
SCALE
  5
326
102
{ACAD_REACTORS
330
316
102
}
330
316
100
AcDbScale
 70
     0
300
10:1
140
10.0
141
1.0
290
     0
  0
SCALE
  5
327
102
{ACAD_REACTORS
330
316
102
}
330
316
100
AcDbScale
 70
     0
300
100:1
140
100.0
141
1.0
290
     0
  0
SCALE
  5
328
102
{ACAD_REACTORS
330
316
102
}
330
316
100
AcDbScale
 70
     0
300
1/128" = 1'-0"
140
0.0078125
141
12.0
290
     0
  0
SCALE
  5
329
102
{ACAD_REACTORS
330
316
102
}
330
316
100
AcDbScale
 70
     0
300
1/64" = 1'-0"
140
0.015625
141
12.0
290
     0
  0
SCALE
  5
32A
102
{ACAD_REACTORS
330
316
102
}
330
316
100
AcDbScale
 70
     0
300
1/32" = 1'-0"
140
0.03125
141
12.0
290
     0
  0
SCALE
  5
32B
102
{ACAD_REACTORS
330
316
102
}
330
316
100
AcDbScale
 70
     0
300
1/16" = 1'-0"
140
0.0625
141
12.0
290
     0
  0
SCALE
  5
32C
102
{ACAD_REACTORS
330
316
102
}
330
316
100
AcDbScale
 70
     0
300
3/32" = 1'-0"
140
0.09375
141
12.0
290
     0
  0
SCALE
  5
32D
102
{ACAD_REACTORS
330
316
102
}
330
316
100
AcDbScale
 70
     0
300
1/8" = 1'-0"
140
0.125
141
12.0
290
     0
  0
SCALE
  5
32E
102
{ACAD_REACTORS
330
316
102
}
330
316
100
AcDbScale
 70
     0
300
3/16" = 1'-0"
140
0.1875
141
12.0
290
     0
  0
SCALE
  5
32F
102
{ACAD_REACTORS
330
316
102
}
330
316
100
AcDbScale
 70
     0
300
1/4" = 1'-0"
140
0.25
141
12.0
290
     0
  0
SCALE
  5
330
102
{ACAD_REACTORS
330
316
102
}
330
316
100
AcDbScale
 70
     0
300
3/8" = 1'-0"
140
0.375
141
12.0
290
     0
  0
SCALE
  5
331
102
{ACAD_REACTORS
330
316
102
}
330
316
100
AcDbScale
 70
     0
300
1/2" = 1'-0"
140
0.5
141
12.0
290
     0
  0
SCALE
  5
332
102
{ACAD_REACTORS
330
316
102
}
330
316
100
AcDbScale
 70
     0
300
3/4" = 1'-0"
140
0.75
141
12.0
290
     0
  0
SCALE
  5
333
102
{ACAD_REACTORS
330
316
102
}
330
316
100
AcDbScale
 70
     0
300
1" = 1'-0"
140
1.0
141
12.0
290
     0
  0
SCALE
  5
334
102
{ACAD_REACTORS
330
316
102
}
330
316
100
AcDbScale
 70
     0
300
1-1/2" = 1'-0"
140
1.5
141
12.0
290
     0
  0
SCALE
  5
335
102
{ACAD_REACTORS
330
316
102
}
330
316
100
AcDbScale
 70
     0
300
3" = 1'-0"
140
3.0
141
12.0
290
     0
  0
SCALE
  5
336
102
{ACAD_REACTORS
330
316
102
}
330
316
100
AcDbScale
 70
     0
300
6" = 1'-0"
140
6.0
141
12.0
290
     0
  0
SCALE
  5
337
102
{ACAD_REACTORS
330
316
102
}
330
316
100
AcDbScale
 70
     0
300
1'-0" = 1'-0"
140
12.0
141
12.0
290
     0
  0
TABLESTYLE
  5
342
102
{ACAD_REACTORS
330
314
102
}
102
{ACAD_XDICTIONARY
360
420
102
}
330
314
100
AcDbTableStyle
  3
Standard
 70
     0
 71
     0
 40
0.06
 41
0.06
280
     0
281
     0
  7
Standard
140
4.5
170
     2
 62
     0
 63
   257
283
     0
 90
        4
 91
        0
  1

274
    -2
284
     1
 64
     0
275
    -2
285
     1
 65
     0
276
    -2
286
     1
 66
     0
277
    -2
287
     1
 67
     0
278
    -2
288
     1
 68
     0
279
    -2
289
     1
 69
     0
  7
Standard
140
6.0
170
     5
 62
     0
 63
   257
283
     0
 90
        4
 91
        0
  1

274
    -2
284
     1
 64
     0
275
    -2
285
     1
 65
     0
276
    -2
286
     1
 66
     0
277
    -2
287
     1
 67
     0
278
    -2
288
     1
 68
     0
279
    -2
289
     1
 69
     0
  7
Standard
140
4.5
170
     5
 62
     0
 63
   257
283
     0
 90
        4
 91
        0
  1

274
    -2
284
     1
 64
     0
275
    -2
285
     1
 65
     0
276
    -2
286
     1
 66
     0
277
    -2
287
     1
 67
     0
278
    -2
288
     1
 68
     0
279
    -2
289
     1
 69
     0
  0
VISUALSTYLE
  5
2F
102
{ACAD_REACTORS
330
2A
102
}
330
2A
100
AcDbVisualStyle
  2
2dWireframe
 70
     4
177
     2
291
     0
 71
     0
176
     1
 72
     2
176
     1
 73
     0
176
     1
 90
        0
176
     1
 40
-0.6
176
     1
 41
-30.0
176
     1
 62
     5
 63
     7
421
 16777215
176
     1
 74
     1
176
     1
 91
        4
176
     1
 64
     7
176
     1
 65
   257
176
     1
 75
     1
176
     1
175
     1
176
     1
 42
1.0
176
     1
 92
        0
176
     1
 66
   257
176
     1
 43
1.0
176
     1
 76
     1
176
     1
 77
     6
176
     1
 78
     2
176
     1
 67
     7
176
     1
 79
     5
176
     1
170
     0
176
     1
171
     0
176
     1
290
     0
176
     1
 93
        1
176
     1
 44
0.0
176
     1
173
     0
176
     1
  0
VISUALSTYLE
  5
31
102
{ACAD_REACTORS
330
2A
102
}
330
2A
100
AcDbVisualStyle
  2
3D Hidden
 70
     6
177
     2
291
     0
 71
     1
176
     1
 72
     2
176
     1
 73
     2
176
     1
 90
        0
176
     1
 40
-0.6
176
     1
 41
-30.0
176
     1
 62
     5
 63
     7
421
 16777215
176
     1
 74
     2
176
     1
 91
        2
176
     1
 64
     7
176
     1
 65
   257
176
     1
 75
     2
176
     1
175
     1
176
     1
 42
40.0
176
     1
 92
        0
176
     1
 66
   257
176
     1
 43
1.0
176
     1
 76
     1
176
     1
 77
     6
176
     1
 78
     2
176
     1
 67
     7
176
     1
 79
     3
176
     1
170
     0
176
     1
171
     0
176
     1
290
     0
176
     1
 93
        1
176
     1
 44
0.0
176
     1
173
     0
176
     1
  0
VISUALSTYLE
  5
30
102
{ACAD_REACTORS
330
2A
102
}
330
2A
100
AcDbVisualStyle
  2
3dWireframe
 70
     5
177
     2
291
     0
 71
     0
176
     1
 72
     2
176
     1
 73
     0
176
     1
 90
        0
176
     1
 40
-0.6
176
     1
 41
-30.0
176
     1
 62
     5
 63
     7
421
 16777215
176
     1
 74
     1
176
     1
 91
        4
176
     1
 64
     7
176
     1
 65
   257
176
     1
 75
     1
176
     1
175
     1
176
     1
 42
1.0
176
     1
 92
        0
176
     1
 66
   257
176
     1
 43
1.0
176
     1
 76
     1
176
     1
 77
     6
176
     1
 78
     2
176
     1
 67
     7
176
     1
 79
     5
176
     1
170
     0
176
     1
171
     0
176
     1
290
     0
176
     1
 93
        1
176
     1
 44
0.0
176
     1
173
     0
176
     1
  0
VISUALSTYLE
  5
32
102
{ACAD_REACTORS
330
2A
102
}
330
2A
100
AcDbVisualStyle
  2
Basic
 70
     7
177
     2
291
     1
 71
     1
176
     1
 72
     0
176
     1
 73
     1
176
     1
 90
        0
176
     1
 40
-0.6
176
     1
 41
-30.0
176
     1
 62
     5
 63
     7
421
 16777215
176
     1
 74
     0
176
     1
 91
        4
176
     1
 64
     7
176
     1
 65
   257
176
     1
 75
     1
176
     1
175
     1
176
     1
 42
1.0
176
     1
 92
        8
176
     1
 66
     7
176
     1
 43
1.0
176
     1
 76
     1
176
     1
 77
     6
176
     1
 78
     2
176
     1
 67
     7
176
     1
 79
     5
176
     1
170
     0
176
     1
171
     0
176
     1
290
     0
176
     1
 93
        1
176
     1
 44
0.0
176
     1
173
     0
176
     1
  0
VISUALSTYLE
  5
36
102
{ACAD_REACTORS
330
2A
102
}
330
2A
100
AcDbVisualStyle
  2
Brighten
 70
    12
177
     2
291
     1
 71
     2
176
     1
 72
     2
176
     1
 73
     0
176
     1
 90
        0
176
     1
 40
-0.6
176
     1
 41
-30.0
176
     1
 62
     5
 63
     7
421
 16777215
176
     1
 74
     1
176
     1
 91
        4
176
     1
 64
     7
176
     1
 65
   257
176
     1
 75
     1
176
     1
175
     1
176
     1
 42
1.0
176
     1
 92
        8
176
     1
 66
     7
176
     1
 43
1.0
176
     1
 76
     1
176
     1
 77
     6
176
     1
 78
     2
176
     1
 67
     7
176
     1
 79
     5
176
     1
170
     0
176
     1
171
     0
176
     1
290
     0
176
     1
 93
        1
176
     1
 44
50.0
176
     1
173
     0
176
     1
  0
VISUALSTYLE
  5
3A
102
{ACAD_REACTORS
330
2A
102
}
330
2A
100
AcDbVisualStyle
  2
ColorChange
 70
    16
177
     2
291
     1
 71
     2
176
     1
 72
     2
176
     1
 73
     3
176
     1
 90
        0
176
     1
 40
-0.6
176
     1
 41
-30.0
176
     1
 62
     5
 63
     8
421
  8421504
176
     1
 74
     1
176
     1
 91
        4
176
     1
 64
     7
176
     1
 65
   257
176
     1
 75
     1
176
     1
175
     1
176
     1
 42
1.0
176
     1
 92
        8
176
     1
 66
     8
424
  8421504
176
     1
 43
1.0
176
     1
 76
     1
176
     1
 77
     6
176
     1
 78
     2
176
     1
 67
     7
176
     1
 79
     5
176
     1
170
     0
176
     1
171
     0
176
     1
290
     0
176
     1
 93
        1
176
     1
 44
0.0
176
     1
173
     0
176
     1
  0
VISUALSTYLE
  5
34
102
{ACAD_REACTORS
330
2A
102
}
330
2A
100
AcDbVisualStyle
  2
Conceptual
 70
     9
177
     2
291
     0
 71
     3
176
     1
 72
     2
176
     1
 73
     0
176
     1
 90
        0
176
     1
 40
-0.6
176
     1
 41
-30.0
176
     1
 62
     5
 63
     7
421
 16777215
176
     1
 74
     2
176
     1
 91
        2
176
     1
 64
     7
176
     1
 65
   257
176
     1
 75
     1
176
     1
175
     1
176
     1
 42
40.0
176
     1
 92
        8
176
     1
 66
     7
176
     1
 43
1.0
176
     1
 76
     1
176
     1
 77
     6
176
     1
 78
     2
176
     1
 67
     7
176
     1
 79
     3
176
     1
170
     0
176
     1
171
     0
176
     1
290
     0
176
     1
 93
        1
176
     1
 44
0.0
176
     1
173
     0
176
     1
  0
VISUALSTYLE
  5
35
102
{ACAD_REACTORS
330
2A
102
}
330
2A
100
AcDbVisualStyle
  2
Dim
 70
    11
177
     2
291
     1
 71
     2
176
     1
 72
     2
176
     1
 73
     0
176
     1
 90
        0
176
     1
 40
-0.6
176
     1
 41
-30.0
176
     1
 62
     5
 63
     7
421
 16777215
176
     1
 74
     1
176
     1
 91
        4
176
     1
 64
     7
176
     1
 65
   257
176
     1
 75
     1
176
     1
175
     1
176
     1
 42
1.0
176
     1
 92
        8
176
     1
 66
     7
176
     1
 43
1.0
176
     1
 76
     1
176
     1
 77
     6
176
     1
 78
     2
176
     1
 67
     7
176
     1
 79
     5
176
     1
170
     0
176
     1
171
     0
176
     1
290
     0
176
     1
 93
        1
176
     1
 44
-50.0
176
     1
173
     0
176
     1
  0
VISUALSTYLE
  5
33C
102
{ACAD_REACTORS
330
2A
102
}
330
2A
100
AcDbVisualStyle
  2
EdgeColorOff
 70
    22
177
     2
291
     1
 71
     2
176
     0
 72
     2
176
     0
 73
     0
176
     0
 90
        0
176
     0
 40
0.6
176
     0
 41
30.0
176
     0
 62
     5
 63
     7
421
 16777215
176
     0
 74
     1
176
     0
 91
        4
176
     0
 64
     7
176
     0
 65
   257
176
     0
 75
     1
176
     0
175
     1
176
     0
 42
1.0
176
     0
 92
        8
176
     2
 66
     7
176
     0
 43
1.0
176
     0
 76
     1
176
     0
 77
     6
176
     0
 78
     2
176
     0
 67
     7
176
     0
 79
     5
176
     0
170
     0
176
     0
171
     0
176
     0
290
     0
176
     0
 93
        1
176
     0
 44
0.0
176
     0
173
     0
176
     0
  0
VISUALSTYLE
  5
39
102
{ACAD_REACTORS
330
2A
102
}
330
2A
100
AcDbVisualStyle
  2
Facepattern
 70
    15
177
     2
291
     1
 71
     2
176
     1
 72
     2
176
     1
 73
     0
176
     1
 90
        0
176
     1
 40
-0.6
176
     1
 41
-30.0
176
     1
 62
     5
 63
     7
421
 16777215
176
     1
 74
     1
176
     1
 91
        4
176
     1
 64
     7
176
     1
 65
   257
176
     1
 75
     1
176
     1
175
     1
176
     1
 42
1.0
176
     1
 92
        8
176
     1
 66
     7
176
     1
 43
1.0
176
     1
 76
     1
176
     1
 77
     6
176
     1
 78
     2
176
     1
 67
     7
176
     1
 79
     5
176
     1
170
     0
176
     1
171
     0
176
     1
290
     0
176
     1
 93
        1
176
     1
 44
0.0
176
     1
173
     0
176
     1
  0
VISUALSTYLE
  5
2B
102
{ACAD_REACTORS
330
2A
102
}
330
2A
100
AcDbVisualStyle
  2
Flat
 70
     0
177
     2
291
     1
 71
     2
176
     1
 72
     1
176
     1
 73
     1
176
     1
 90
        2
176
     1
 40
-0.6
176
     1
 41
30.0
176
     1
 62
     5
 63
     7
421
 16777215
176
     1
 74
     0
176
     1
 91
        4
176
     1
 64
     7
176
     1
 65
   257
176
     1
 75
     1
176
     1
175
     1
176
     1
 42
1.0
176
     1
 92
        8
176
     1
 66
     7
176
     1
 43
1.0
176
     1
 76
     1
176
     1
 77
     6
176
     1
 78
     2
176
     1
 67
     7
176
     1
 79
     5
176
     1
170
     0
176
     1
171
     0
176
     1
290
     0
176
     1
 93
       13
176
     1
 44
0.0
176
     1
173
     0
176
     1
  0
VISUALSTYLE
  5
2C
102
{ACAD_REACTORS
330
2A
102
}
330
2A
100
AcDbVisualStyle
  2
FlatWithEdges
 70
     1
177
     2
291
     1
 71
     2
176
     1
 72
     1
176
     1
 73
     1
176
     1
 90
        2
176
     1
 40
-0.6
176
     1
 41
30.0
176
     1
 62
     5
 63
     7
421
 16777215
176
     1
 74
     1
176
     1
 91
        4
176
     1
 64
     7
176
     1
 65
   257
176
     1
 75
     1
176
     1
175
     1
176
     1
 42
1.0
176
     1
 92
        0
176
     1
 66
   257
176
     1
 43
1.0
176
     1
 76
     1
176
     1
 77
     6
176
     1
 78
     2
176
     1
 67
     7
176
     1
 79
     5
176
     1
170
     0
176
     1
171
     0
176
     1
290
     0
176
     1
 93
       13
176
     1
 44
0.0
176
     1
173
     0
176
     1
  0
VISUALSTYLE
  5
2D
102
{ACAD_REACTORS
330
2A
102
}
330
2A
100
AcDbVisualStyle
  2
Gouraud
 70
     2
177
     2
291
     1
 71
     2
176
     1
 72
     2
176
     1
 73
     1
176
     1
 90
        2
176
     1
 40
-0.6
176
     1
 41
30.0
176
     1
 62
     5
 63
     7
421
 16777215
176
     1
 74
     0
176
     1
 91
        4
176
     1
 64
     7
176
     1
 65
   257
176
     1
 75
     1
176
     1
175
     1
176
     1
 42
1.0
176
     1
 92
        0
176
     1
 66
     7
176
     1
 43
1.0
176
     1
 76
     1
176
     1
 77
     6
176
     1
 78
     2
176
     1
 67
     7
176
     1
 79
     5
176
     1
170
     0
176
     1
171
     0
176
     1
290
     0
176
     1
 93
       13
176
     1
 44
0.0
176
     1
173
     0
176
     1
  0
VISUALSTYLE
  5
2E
102
{ACAD_REACTORS
330
2A
102
}
330
2A
100
AcDbVisualStyle
  2
GouraudWithEdges
 70
     3
177
     2
291
     1
 71
     2
176
     1
 72
     2
176
     1
 73
     1
176
     1
 90
        2
176
     1
 40
-0.6
176
     1
 41
30.0
176
     1
 62
     5
 63
     7
421
 16777215
176
     1
 74
     1
176
     1
 91
        4
176
     1
 64
     7
176
     1
 65
   257
176
     1
 75
     1
176
     1
175
     1
176
     1
 42
1.0
176
     1
 92
        0
176
     1
 66
   257
176
     1
 43
1.0
176
     1
 76
     1
176
     1
 77
     6
176
     1
 78
     2
176
     1
 67
     7
176
     1
 79
     5
176
     1
170
     0
176
     1
171
     0
176
     1
290
     0
176
     1
 93
       13
176
     1
 44
0.0
176
     1
173
     0
176
     1
  0
VISUALSTYLE
  5
339
102
{ACAD_REACTORS
330
2A
102
}
330
2A
100
AcDbVisualStyle
  2
Hidden
 70
     6
177
     2
291
     0
 71
     1
176
     1
 72
     2
176
     1
 73
     2
176
     1
 90
        0
176
     1
 40
0.6
176
     1
 41
30.0
176
     1
 62
     5
 63
     7
421
 16777215
176
     1
 74
     2
176
     1
 91
        2
176
     1
 64
     7
176
     1
 65
   257
176
     1
 75
     2
176
     1
175
     1
176
     1
 42
40.0
176
     1
 92
        0
176
     1
 66
   257
176
     1
 43
1.0
176
     1
 76
     1
176
     1
 77
     6
176
     1
 78
     2
176
     1
 67
     7
176
     1
 79
     3
176
     1
170
     0
176
     1
171
     0
176
     1
290
     0
176
     1
 93
        1
176
     1
 44
0.0
176
     1
173
     0
176
     1
  0
VISUALSTYLE
  5
33A
102
{ACAD_REACTORS
330
2A
102
}
330
2A
100
AcDbVisualStyle
  2
JitterOff
 70
    20
177
     2
291
     1
 71
     2
176
     0
 72
     2
176
     0
 73
     0
176
     0
 90
        0
176
     0
 40
0.6
176
     0
 41
30.0
176
     0
 62
     5
 63
     7
421
 16777215
176
     0
 74
     1
176
     0
 91
        4
176
     0
 64
     7
176
     0
 65
   257
176
     0
 75
     1
176
     0
175
     1
176
     0
 42
1.0
176
     0
 92
       10
176
     2
 66
     7
176
     0
 43
1.0
176
     0
 76
     1
176
     0
 77
     6
176
     0
 78
     2
176
     0
 67
     7
176
     0
 79
     5
176
     0
170
     0
176
     0
171
     0
176
     0
290
     0
176
     0
 93
        1
176
     0
 44
0.0
176
     0
173
     0
176
     0
  0
VISUALSTYLE
  5
38
102
{ACAD_REACTORS
330
2A
102
}
330
2A
100
AcDbVisualStyle
  2
Linepattern
 70
    14
177
     2
291
     1
 71
     2
176
     1
 72
     2
176
     1
 73
     0
176
     1
 90
        0
176
     1
 40
-0.6
176
     1
 41
-30.0
176
     1
 62
     5
 63
     7
421
 16777215
176
     1
 74
     1
176
     1
 91
        4
176
     1
 64
     7
176
     1
 65
   257
176
     1
 75
     7
176
     1
175
     7
176
     1
 42
1.0
176
     1
 92
        8
176
     1
 66
     7
176
     1
 43
1.0
176
     1
 76
     1
176
     1
 77
     6
176
     1
 78
     2
176
     1
 67
     7
176
     1
 79
     5
176
     1
170
     0
176
     1
171
     0
176
     1
290
     0
176
     1
 93
        1
176
     1
 44
0.0
176
     1
173
     0
176
     1
  0
VISUALSTYLE
  5
33B
102
{ACAD_REACTORS
330
2A
102
}
330
2A
100
AcDbVisualStyle
  2
OverhangOff
 70
    21
177
     2
291
     1
 71
     2
176
     0
 72
     2
176
     0
 73
     0
176
     0
 90
        0
176
     0
 40
0.6
176
     0
 41
30.0
176
     0
 62
     5
 63
     7
421
 16777215
176
     0
 74
     1
176
     0
 91
        4
176
     0
 64
     7
176
     0
 65
   257
176
     0
 75
     1
176
     0
175
     1
176
     0
 42
1.0
176
     0
 92
        9
176
     2
 66
     7
176
     0
 43
1.0
176
     0
 76
     1
176
     0
 77
     6
176
     0
 78
     2
176
     0
 67
     7
176
     0
 79
     5
176
     0
170
     0
176
     0
171
     0
176
     0
290
     0
176
     0
 93
        1
176
     0
 44
0.0
176
     0
173
     0
176
     0
  0
VISUALSTYLE
  5
33
102
{ACAD_REACTORS
330
2A
102
}
330
2A
100
AcDbVisualStyle
  2
Realistic
 70
     8
177
     2
291
     0
 71
     2
176
     1
 72
     2
176
     1
 73
     0
176
     1
 90
        0
176
     1
 40
-0.6
176
     1
 41
-30.0
176
     1
 62
     5
 63
     7
421
 16777215
176
     1
 74
     1
176
     1
 91
        0
176
     1
 64
     7
176
     1
 65
   257
176
     1
 75
     1
176
     1
175
     1
176
     1
 42
1.0
176
     1
 92
        8
176
     1
 66
     8
424
  7895160
176
     1
 43
1.0
176
     1
 76
     1
176
     1
 77
     6
176
     1
 78
     2
176
     1
 67
     7
176
     1
 79
     5
176
     1
170
     0
176
     1
171
     0
176
     1
290
     0
176
     1
 93
       13
176
     1
 44
0.0
176
     1
173
     0
176
     1
  0
VISUALSTYLE
  5
341
102
{ACAD_REACTORS
330
2A
102
}
330
2A
100
AcDbVisualStyle
  2
Shaded
 70
    27
177
     2
291
     0
 71
     2
176
     1
 72
     2
176
     1
 73
     1
176
     1
 90
        2
176
     1
 40
0.6
176
     1
 41
30.0
176
     1
 62
     5
 63
     7
421
 16777215
176
     1
 74
     0
176
     1
 91
        4
176
     1
 64
     7
176
     1
 65
   257
176
     1
 75
     1
176
     1
175
     1
176
     1
 42
1.0
176
     1
 92
        8
176
     1
 66
   257
176
     1
 43
1.0
176
     1
 76
     1
176
     1
 77
     6
176
     1
 78
     2
176
     1
 67
     8
425
  7895160
176
     1
 79
     3
176
     1
170
     0
176
     1
171
     0
176
     1
290
     0
176
     1
 93
        5
176
     1
 44
0.0
176
     1
173
     0
176
     1
  0
VISUALSTYLE
  5
340
102
{ACAD_REACTORS
330
2A
102
}
330
2A
100
AcDbVisualStyle
  2
Shaded with edges
 70
    26
177
     2
291
     0
 71
     2
176
     1
 72
     2
176
     1
 73
     1
176
     1
 90
        2
176
     1
 40
0.6
176
     1
 41
30.0
176
     1
 62
     5
 63
     7
421
 16777215
176
     1
 74
     1
176
     1
 91
       10
176
     1
 64
     7
176
     1
 65
   257
176
     1
 75
     2
176
     1
175
     1
176
     1
 42
1.0
176
     1
 92
        8
176
     1
 66
   257
176
     1
 43
1.0
176
     1
 76
     1
176
     1
 77
     6
176
     1
 78
     2
176
     1
 67
     7
176
     1
 79
     3
176
     1
170
     0
176
     1
171
     0
176
     1
290
     0
176
     1
 93
        5
176
     1
 44
0.0
176
     1
173
     0
176
     1
  0
VISUALSTYLE
  5
33D
102
{ACAD_REACTORS
330
2A
102
}
330
2A
100
AcDbVisualStyle
  2
Shades of Gray
 70
    23
177
     2
291
     0
 71
     2
176
     1
 72
     2
176
     1
 73
     3
176
     1
 90
        0
176
     1
 40
0.6
176
     1
 41
30.0
176
     1
 62
     5
 63
     7
421
 16777215
176
     1
 74
     2
176
     1
 91
        2
176
     1
 64
     7
176
     1
 65
     7
176
     1
 75
     1
176
     1
175
     1
176
     1
 42
40.0
176
     1
 92
        8
176
     1
 66
     7
176
     1
 43
1.0
176
     1
 76
     1
176
     1
 77
     6
176
     1
 78
     2
176
     1
 67
     7
176
     1
 79
     3
176
     1
170
     0
176
     1
171
     0
176
     1
290
     0
176
     1
 93
        1
176
     1
 44
0.0
176
     1
173
     0
176
     1
  0
VISUALSTYLE
  5
33E
102
{ACAD_REACTORS
330
2A
102
}
330
2A
100
AcDbVisualStyle
  2
Sketchy
 70
    24
177
     2
291
     0
 71
     1
176
     1
 72
     2
176
     1
 73
     2
176
     1
 90
        0
176
     1
 40
0.6
176
     1
 41
30.0
176
     1
 62
     5
 63
     7
421
 16777215
176
     1
 74
     2
176
     1
 91
        2
176
     1
 64
     7
176
     1
 65
     7
176
     1
 75
     1
176
     1
175
     1
176
     1
 42
40.0
176
     1
 92
       11
176
     1
 66
     7
176
     1
 43
1.0
176
     1
 76
     1
176
     1
 77
     6
176
     1
 78
     2
176
     1
 67
     7
176
     1
 79
     6
176
     1
170
     0
176
     1
171
     0
176
     1
290
     0
176
     1
 93
        1
176
     1
 44
0.0
176
     1
173
     0
176
     1
  0
VISUALSTYLE
  5
37
102
{ACAD_REACTORS
330
2A
102
}
330
2A
100
AcDbVisualStyle
  2
Thicken
 70
    13
177
     2
291
     1
 71
     2
176
     1
 72
     2
176
     1
 73
     0
176
     1
 90
        0
176
     1
 40
-0.6
176
     1
 41
-30.0
176
     1
 62
     5
 63
     7
421
 16777215
176
     1
 74
     1
176
     1
 91
        4
176
     1
 64
     7
176
     1
 65
   257
176
     1
 75
     1
176
     1
175
     1
176
     1
 42
1.0
176
     1
 92
       12
176
     1
 66
     7
176
     1
 43
1.0
176
     1
 76
     1
176
     1
 77
     6
176
     1
 78
     2
176
     1
 67
     7
176
     1
 79
     5
176
     1
170
     0
176
     1
171
     0
176
     1
290
     0
176
     1
 93
        1
176
     1
 44
0.0
176
     1
173
     0
176
     1
  0
VISUALSTYLE
  5
338
102
{ACAD_REACTORS
330
2A
102
}
330
2A
100
AcDbVisualStyle
  2
Wireframe
 70
     5
177
     2
291
     0
 71
     0
176
     1
 72
     2
176
     1
 73
     0
176
     1
 90
        0
176
     1
 40
0.6
176
     1
 41
30.0
176
     1
 62
     5
 63
     7
421
 16777215
176
     1
 74
     1
176
     1
 91
        4
176
     1
 64
     7
176
     1
 65
   257
176
     1
 75
     1
176
     1
175
     1
176
     1
 42
1.0
176
     1
 92
        0
176
     1
 66
   257
176
     1
 43
1.0
176
     1
 76
     1
176
     1
 77
     6
176
     1
 78
     2
176
     1
 67
     7
176
     1
 79
     3
176
     1
170
     0
176
     1
171
     0
176
     1
290
     0
176
     1
 93
        1
176
     1
 44
0.0
176
     1
173
     0
176
     1
  0
VISUALSTYLE
  5
33F
102
{ACAD_REACTORS
330
2A
102
}
330
2A
100
AcDbVisualStyle
  2
X-Ray
 70
    25
177
     2
291
     0
 71
     2
176
     1
 72
     2
176
     1
 73
     1
176
     1
 90
        1
176
     1
 40
0.5
176
     1
 41
30.0
176
     1
 62
     5
 63
     7
421
 16777215
176
     1
 74
     1
176
     1
 91
        0
176
     1
 64
     7
176
     1
 65
   257
176
     1
 75
     1
176
     1
175
     1
176
     1
 42
1.0
176
     1
 92
        8
176
     1
 66
     7
176
     1
 43
1.0
176
     1
 76
     1
176
     1
 77
     6
176
     1
 78
     2
176
     1
 67
     7
176
     1
 79
     3
176
     1
170
     0
176
     1
171
     0
176
     1
290
     0
176
     1
 93
       13
176
     1
 44
0.0
176
     1
173
     0
176
     1
  0
DICTIONARYVAR
  5
34C
102
{ACAD_REACTORS
330
34B
102
}
330
34B
100
DictionaryVariables
280
     0
  1
1:1
  0
DICTIONARYVAR
  5
34E
102
{ACAD_REACTORS
330
34B
102
}
330
34B
100
DictionaryVariables
280
     0
  1
Standard
  0
DICTIONARYVAR
  5
34D
102
{ACAD_REACTORS
330
34B
102
}
330
34B
100
DictionaryVariables
280
     0
  1
Standard
  0
DICTIONARYVAR
  5
34F
102
{ACAD_REACTORS
330
34B
102
}
330
34B
100
DictionaryVariables
280
     0
  1
0
  0
DICTIONARY
  5
420
330
342
100
AcDbDictionary
280
     1
281
     1
  3
ACAD_ROUNDTRIP_2008_TABLESTYLE_CELLSTYLEMAP
360
421
  0
CELLSTYLEMAP
  5
421
102
{ACAD_REACTORS
330
420
102
}
330
420
100
AcDbCellStyleMap
 90
        3
300
CELLSTYLE
  1
TABLEFORMAT_BEGIN
 90
        5
170
     1
 91
        0
 92
    32768
 62
   257
 93
        1
300
CONTENTFORMAT
  1
CONTENTFORMAT_BEGIN
 90
        0
 91
        0
 92
        4
 93
        0
300

 40
0.0
140
1.0
 94
        5
 62
     0
340
11
144
6.0
309
CONTENTFORMAT_END
171
     1
301
MARGIN
  1
CELLMARGIN_BEGIN
 40
1.5
 40
1.5
 40
1.5
 40
1.5
 40
1.5
 40
1.5
309
CELLMARGIN_END
 94
        6
 95
        1
302
GRIDFORMAT
  1
GRIDFORMAT_BEGIN
 90
        0
 91
        1
 62
     0
 92
       -2
340
14
 93
        0
 40
0.045
309
GRIDFORMAT_END
 95
        2
302
GRIDFORMAT
  1
GRIDFORMAT_BEGIN
 90
        0
 91
        1
 62
     0
 92
       -2
340
14
 93
        0
 40
0.045
309
GRIDFORMAT_END
 95
        4
302
GRIDFORMAT
  1
GRIDFORMAT_BEGIN
 90
        0
 91
        1
 62
     0
 92
       -2
340
14
 93
        0
 40
0.045
309
GRIDFORMAT_END
 95
        8
302
GRIDFORMAT
  1
GRIDFORMAT_BEGIN
 90
        0
 91
        1
 62
     0
 92
       -2
340
14
 93
        0
 40
0.045
309
GRIDFORMAT_END
 95
       16
302
GRIDFORMAT
  1
GRIDFORMAT_BEGIN
 90
        0
 91
        1
 62
     0
 92
       -2
340
14
 93
        0
 40
0.045
309
GRIDFORMAT_END
 95
       32
302
GRIDFORMAT
  1
GRIDFORMAT_BEGIN
 90
        0
 91
        1
 62
     0
 92
       -2
340
14
 93
        0
 40
0.045
309
GRIDFORMAT_END
309
TABLEFORMAT_END
  1
CELLSTYLE_BEGIN
 90
        1
 91
        1
300
_TITLE
309
CELLSTYLE_END
300
CELLSTYLE
  1
TABLEFORMAT_BEGIN
 90
        5
170
     1
 91
        0
 92
        0
 62
   257
 93
        1
300
CONTENTFORMAT
  1
CONTENTFORMAT_BEGIN
 90
        0
 91
        0
 92
        4
 93
        0
300

 40
0.0
140
1.0
 94
        5
 62
     0
340
11
144
4.5
309
CONTENTFORMAT_END
171
     1
301
MARGIN
  1
CELLMARGIN_BEGIN
 40
1.5
 40
1.5
 40
1.5
 40
1.5
 40
1.5
 40
1.5
309
CELLMARGIN_END
 94
        6
 95
        1
302
GRIDFORMAT
  1
GRIDFORMAT_BEGIN
 90
        0
 91
        1
 62
     0
 92
       -2
340
14
 93
        0
 40
0.045
309
GRIDFORMAT_END
 95
        2
302
GRIDFORMAT
  1
GRIDFORMAT_BEGIN
 90
        0
 91
        1
 62
     0
 92
       -2
340
14
 93
        0
 40
0.045
309
GRIDFORMAT_END
 95
        4
302
GRIDFORMAT
  1
GRIDFORMAT_BEGIN
 90
        0
 91
        1
 62
     0
 92
       -2
340
14
 93
        0
 40
0.045
309
GRIDFORMAT_END
 95
        8
302
GRIDFORMAT
  1
GRIDFORMAT_BEGIN
 90
        0
 91
        1
 62
     0
 92
       -2
340
14
 93
        0
 40
0.045
309
GRIDFORMAT_END
 95
       16
302
GRIDFORMAT
  1
GRIDFORMAT_BEGIN
 90
        0
 91
        1
 62
     0
 92
       -2
340
14
 93
        0
 40
0.045
309
GRIDFORMAT_END
 95
       32
302
GRIDFORMAT
  1
GRIDFORMAT_BEGIN
 90
        0
 91
        1
 62
     0
 92
       -2
340
14
 93
        0
 40
0.045
309
GRIDFORMAT_END
309
TABLEFORMAT_END
  1
CELLSTYLE_BEGIN
 90
        2
 91
        1
300
_HEADER
309
CELLSTYLE_END
300
CELLSTYLE
  1
TABLEFORMAT_BEGIN
 90
        5
170
     1
 91
        0
 92
        0
 62
   257
 93
        1
300
CONTENTFORMAT
  1
CONTENTFORMAT_BEGIN
 90
        0
 91
        0
 92
        4
 93
        0
300

 40
0.0
140
1.0
 94
        2
 62
     0
340
11
144
4.5
309
CONTENTFORMAT_END
171
     1
301
MARGIN
  1
CELLMARGIN_BEGIN
 40
1.5
 40
1.5
 40
1.5
 40
1.5
 40
1.5
 40
1.5
309
CELLMARGIN_END
 94
        6
 95
        1
302
GRIDFORMAT
  1
GRIDFORMAT_BEGIN
 90
        0
 91
        1
 62
     0
 92
       -2
340
14
 93
        0
 40
0.045
309
GRIDFORMAT_END
 95
        2
302
GRIDFORMAT
  1
GRIDFORMAT_BEGIN
 90
        0
 91
        1
 62
     0
 92
       -2
340
14
 93
        0
 40
0.045
309
GRIDFORMAT_END
 95
        4
302
GRIDFORMAT
  1
GRIDFORMAT_BEGIN
 90
        0
 91
        1
 62
     0
 92
       -2
340
14
 93
        0
 40
0.045
309
GRIDFORMAT_END
 95
        8
302
GRIDFORMAT
  1
GRIDFORMAT_BEGIN
 90
        0
 91
        1
 62
     0
 92
       -2
340
14
 93
        0
 40
0.045
309
GRIDFORMAT_END
 95
       16
302
GRIDFORMAT
  1
GRIDFORMAT_BEGIN
 90
        0
 91
        1
 62
     0
 92
       -2
340
14
 93
        0
 40
0.045
309
GRIDFORMAT_END
 95
       32
302
GRIDFORMAT
  1
GRIDFORMAT_BEGIN
 90
        0
 91
        1
 62
     0
 92
       -2
340
14
 93
        0
 40
0.045
309
GRIDFORMAT_END
309
TABLEFORMAT_END
  1
CELLSTYLE_BEGIN
 90
        3
 91
        2
300
_DATA
309
CELLSTYLE_END
  0
ENDSEC
  0
EOF
