  0
SECTION
  2
HEADER
  9
$ACADVER
  1
AC1024
  9
$ACADMAINTVER
 70
     6
  9
$DWGCODEPAGE
  3
ANSI_1254
  9
$LASTSAVEDBY
  1
Mehmet
  9
$INSBASE
 10
0.0
 20
0.0
 30
0.0
  9
$EXTMIN
 10
644213.471365634
 20
4144627.394861696
 30
0.0
  9
$EXTMAX
 10
644492.2155315249
 20
4145021.08908488
 30
2272.404052734375
  9
$LIMMIN
 10
0.0
 20
0.0
  9
$LIMMAX
 10
420.0
 20
297.0
  9
$ORTHOMODE
 70
     0
  9
$REGENMODE
 70
     1
  9
$FILLMODE
 70
     1
  9
$QTEXTMODE
 70
     0
  9
$MIRRTEXT
 70
     1
  9
$LTSCALE
 40
1.0
  9
$ATTMODE
 70
     1
  9
$TEXTSIZE
 40
2.5
  9
$TRACEWID
 40
1.0
  9
$TEXTSTYLE
  7
Standard
  9
$CLAYER
  8
GEOFENCE
  9
$CELTYPE
  6
ByLayer
  9
$CECOLOR
 62
   256
  9
$CELTSCALE
 40
1.0
  9
$DISPSILH
 70
     0
  9
$DIMSCALE
 40
1.0
  9
$DIMASZ
 40
2.5
  9
$DIMEXO
 40
0.625
  9
$DIMDLI
 40
3.75
  9
$DIMRND
 40
0.0
  9
$DIMDLE
 40
0.0
  9
$DIMEXE
 40
1.25
  9
$DIMTP
 40
0.0
  9
$DIMTM
 40
0.0
  9
$DIMTXT
 40
2.5
  9
$DIMCEN
 40
2.5
  9
$DIMTSZ
 40
0.0
  9
$DIMTOL
 70
     0
  9
$DIMLIM
 70
     0
  9
$DIMTIH
 70
     0
  9
$DIMTOH
 70
     0
  9
$DIMSE1
 70
     0
  9
$DIMSE2
 70
     0
  9
$DIMTAD
 70
     1
  9
$DIMZIN
 70
     8
  9
$DIMBLK
  1

  9
$DIMASO
 70
     1
  9
$DIMSHO
 70
     1
  9
$DIMPOST
  1

  9
$DIMAPOST
  1

  9
$DIMALT
 70
     0
  9
$DIMALTD
 70
     3
  9
$DIMALTF
 40
0.03937007874016
  9
$DIMLFAC
 40
1.0
  9
$DIMTOFL
 70
     1
  9
$DIMTVP
 40
0.0
  9
$DIMTIX
 70
     0
  9
$DIMSOXD
 70
     0
  9
$DIMSAH
 70
     0
  9
$DIMBLK1
  1

  9
$DIMBLK2
  1

  9
$DIMSTYLE
  2
ISO-25
  9
$DIMCLRD
 70
     0
  9
$DIMCLRE
 70
     0
  9
$DIMCLRT
 70
     0
  9
$DIMTFAC
 40
1.0
  9
$DIMGAP
 40
0.625
  9
$DIMJUST
 70
     0
  9
$DIMSD1
 70
     0
  9
$DIMSD2
 70
     0
  9
$DIMTOLJ
 70
     0
  9
$DIMTZIN
 70
     8
  9
$DIMALTZ
 70
     0
  9
$DIMALTTZ
 70
     0
  9
$DIMUPT
 70
     0
  9
$DIMDEC
 70
     2
  9
$DIMTDEC
 70
     2
  9
$DIMALTU
 70
     2
  9
$DIMALTTD
 70
     3
  9
$DIMTXSTY
  7
Standard
  9
$DIMAUNIT
 70
     0
  9
$DIMADEC
 70
     0
  9
$DIMALTRND
 40
0.0
  9
$DIMAZIN
 70
     0
  9
$DIMDSEP
 70
    44
  9
$DIMATFIT
 70
     3
  9
$DIMFRAC
 70
     0
  9
$DIMLDRBLK
  1

  9
$DIMLUNIT
 70
     2
  9
$DIMLWD
 70
    -2
  9
$DIMLWE
 70
    -2
  9
$DIMTMOVE
 70
     0
  9
$DIMFXL
 40
1.0
  9
$DIMFXLON
 70
     0
  9
$DIMJOGANG
 40
0.7853981633974483
  9
$DIMTFILL
 70
     0
  9
$DIMTFILLCLR
 70
     0
  9
$DIMARCSYM
 70
     0
  9
$DIMLTYPE
  6

  9
$DIMLTEX1
  6

  9
$DIMLTEX2
  6

  9
$DIMTXTDIRECTION
 70
     0
  9
$LUNITS
 70
     2
  9
$LUPREC
 70
     4
  9
$SKETCHINC
 40
1.0
  9
$FILLETRAD
 40
10.0
  9
$AUNITS
 70
     0
  9
$AUPREC
 70
     0
  9
$MENU
  1
.
  9
$ELEVATION
 40
0.0
  9
$PELEVATION
 40
0.0
  9
$THICKNESS
 40
0.0
  9
$LIMCHECK
 70
     0
  9
$CHAMFERA
 40
10.0
  9
$CHAMFERB
 40
10.0
  9
$CHAMFERC
 40
20.0
  9
$CHAMFERD
 40
0.0
  9
$SKPOLY
 70
     0
  9
$TDCREATE
 40
2457794.768889757
  9
$TDUCREATE
 40
2457794.643889757
  9
$TDUPDATE
 40
2457796.572739248
  9
$TDUUPDATE
 40
2457796.447739248
  9
$TDINDWG
 40
0.0077420718
  9
$TDUSRTIMER
 40
2457796.437954653
  9
$USRTIMER
 70
     1
  9
$ANGBASE
 50
0.0
  9
$ANGDIR
 70
     0
  9
$PDMODE
 70
     0
  9
$PDSIZE
 40
0.0
  9
$PLINEWID
 40
0.0
  9
$SPLFRAME
 70
     0
  9
$SPLINETYPE
 70
     6
  9
$SPLINESEGS
 70
     8
  9
$HANDSEED
  5
37E
  9
$SURFTAB1
 70
     6
  9
$SURFTAB2
 70
     6
  9
$SURFTYPE
 70
     6
  9
$SURFU
 70
     6
  9
$SURFV
 70
     6
  9
$UCSBASE
  2

  9
$UCSNAME
  2

  9
$UCSORG
 10
0.0
 20
0.0
 30
0.0
  9
$UCSXDIR
 10
1.0
 20
0.0
 30
0.0
  9
$UCSYDIR
 10
0.0
 20
1.0
 30
0.0
  9
$UCSORTHOREF
  2

  9
$UCSORTHOVIEW
 70
     0
  9
$UCSORGTOP
 10
0.0
 20
0.0
 30
0.0
  9
$UCSORGBOTTOM
 10
0.0
 20
0.0
 30
0.0
  9
$UCSORGLEFT
 10
0.0
 20
0.0
 30
0.0
  9
$UCSORGRIGHT
 10
0.0
 20
0.0
 30
0.0
  9
$UCSORGFRONT
 10
0.0
 20
0.0
 30
0.0
  9
$UCSORGBACK
 10
0.0
 20
0.0
 30
0.0
  9
$PUCSBASE
  2

  9
$PUCSNAME
  2

  9
$PUCSORG
 10
0.0
 20
0.0
 30
0.0
  9
$PUCSXDIR
 10
1.0
 20
0.0
 30
0.0
  9
$PUCSYDIR
 10
0.0
 20
1.0
 30
0.0
  9
$PUCSORTHOREF
  2

  9
$PUCSORTHOVIEW
 70
     0
  9
$PUCSORGTOP
 10
0.0
 20
0.0
 30
0.0
  9
$PUCSORGBOTTOM
 10
0.0
 20
0.0
 30
0.0
  9
$PUCSORGLEFT
 10
0.0
 20
0.0
 30
0.0
  9
$PUCSORGRIGHT
 10
0.0
 20
0.0
 30
0.0
  9
$PUCSORGFRONT
 10
0.0
 20
0.0
 30
0.0
  9
$PUCSORGBACK
 10
0.0
 20
0.0
 30
0.0
  9
$USERI1
 70
     0
  9
$USERI2
 70
     0
  9
$USERI3
 70
     0
  9
$USERI4
 70
     0
  9
$USERI5
 70
     0
  9
$USERR1
 40
0.0
  9
$USERR2
 40
0.0
  9
$USERR3
 40
0.0
  9
$USERR4
 40
0.0
  9
$USERR5
 40
0.0
  9
$WORLDVIEW
 70
     1
  9
$SHADEDGE
 70
     3
  9
$SHADEDIF
 70
    70
  9
$TILEMODE
 70
     1
  9
$MAXACTVP
 70
    64
  9
$PINSBASE
 10
0.0
 20
0.0
 30
0.0
  9
$PLIMCHECK
 70
     0
  9
$PEXTMIN
 10
1.000000000000000E+20
 20
1.000000000000000E+20
 30
1.000000000000000E+20
  9
$PEXTMAX
 10
-1.000000000000000E+20
 20
-1.000000000000000E+20
 30
-1.000000000000000E+20
  9
$PLIMMIN
 10
0.0
 20
0.0
  9
$PLIMMAX
 10
0.0
 20
0.0
  9
$UNITMODE
 70
     0
  9
$VISRETAIN
 70
     1
  9
$PLINEGEN
 70
     0
  9
$PSLTSCALE
 70
     1
  9
$TREEDEPTH
 70
  3020
  9
$CMLSTYLE
  2
Standard
  9
$CMLJUST
 70
     0
  9
$CMLSCALE
 40
20.0
  9
$PROXYGRAPHICS
 70
     1
  9
$MEASUREMENT
 70
     1
  9
$CELWEIGHT
370
    -1
  9
$ENDCAPS
280
     0
  9
$JOINSTYLE
280
     0
  9
$LWDISPLAY
290
     0
  9
$INSUNITS
 70
     4
  9
$HYPERLINKBASE
  1

  9
$STYLESHEET
  1

  9
$XEDIT
290
     1
  9
$CEPSNTYPE
380
     0
  9
$PSTYLEMODE
290
     1
  9
$FINGERPRINTGUID
  2
{A3669B37-03E5-4EAE-BA86-EC1817C4B9F6}
  9
$VERSIONGUID
  2
{FAEB1C32-E019-11D5-929B-00C0DF256EC4}
  9
$EXTNAMES
290
     1
  9
$PSVPSCALE
 40
0.0
  9
$OLESTARTUP
290
     0
  9
$SORTENTS
280
   127
  9
$INDEXCTL
280
     0
  9
$HIDETEXT
280
     1
  9
$XCLIPFRAME
280
     0
  9
$HALOGAP
280
     0
  9
$OBSCOLOR
 70
   257
  9
$OBSLTYPE
280
     0
  9
$INTERSECTIONDISPLAY
280
     0
  9
$INTERSECTIONCOLOR
 70
   257
  9
$DIMASSOC
280
     2
  9
$PROJECTNAME
  1

  9
$CAMERADISPLAY
290
     0
  9
$LENSLENGTH
 40
50.0
  9
$CAMERAHEIGHT
 40
0.0
  9
$STEPSPERSEC
 40
2.0
  9
$STEPSIZE
 40
6.0
  9
$3DDWFPREC
 40
2.0
  9
$PSOLWIDTH
 40
5.0
  9
$PSOLHEIGHT
 40
80.0
  9
$LOFTANG1
 40
1.570796326794897
  9
$LOFTANG2
 40
1.570796326794897
  9
$LOFTMAG1
 40
0.0
  9
$LOFTMAG2
 40
0.0
  9
$LOFTPARAM
 70
     7
  9
$LOFTNORMALS
280
     1
  9
$LATITUDE
 40
37.795
  9
$LONGITUDE
 40
-122.394
  9
$NORTHDIRECTION
 40
0.0
  9
$TIMEZONE
 70
 -8000
  9
$LIGHTGLYPHDISPLAY
280
     1
  9
$TILEMODELIGHTSYNCH
280
     1
  9
$SOLIDHIST
280
     1
  9
$SHOWHIST
280
     1
  9
$DWFFRAME
280
     2
  9
$DGNFRAME
280
     2
  9
$REALWORLDSCALE
290
     1
  9
$INTERFERECOLOR
 62
   256
  9
$CSHADOW
280
     0
  9
$SHADOWPLANELOCATION
 40
0.0
  0
ENDSEC
  0
SECTION
  2
CLASSES
  0
CLASS
  1
ACDBDICTIONARYWDFLT
  2
AcDbDictionaryWithDefault
  3
ObjectDBX Classes
 90
        0
 91
        5
280
     0
281
     0
  0
CLASS
  1
VISUALSTYLE
  2
AcDbVisualStyle
  3
ObjectDBX Classes
 90
     4095
 91
        5
280
     0
281
     0
  0
CLASS
  1
MATERIAL
  2
AcDbMaterial
  3
ObjectDBX Classes
 90
     1153
 91
        5
280
     0
281
     0
  0
CLASS
  1
SCALE
  2
AcDbScale
  3
ObjectDBX Classes
 90
     1153
 91
        5
280
     0
281
     0
  0
CLASS
  1
TABLESTYLE
  2
AcDbTableStyle
  3
ObjectDBX Classes
 90
     4095
 91
        5
280
     0
281
     0
  0
CLASS
  1
MLEADERSTYLE
  2
AcDbMLeaderStyle
  3
ACDB_MLEADERSTYLE_CLASS
 90
     4095
 91
        5
280
     0
281
     0
  0
CLASS
  1
SUN
  2
AcDbSun
  3
SCENEOE
 90
     1153
 91
        5
280
     0
281
     0
  0
CLASS
  1
RASTERVARIABLES
  2
AcDbRasterVariables
  3
ISM
 90
        0
 91
        5
280
     0
281
     0
  0
CLASS
  1
DICTIONARYVAR
  2
AcDbDictionaryVar
  3
ObjectDBX Classes
 90
        0
 91
        5
280
     0
281
     0
  0
CLASS
  1
CELLSTYLEMAP
  2
AcDbCellStyleMap
  3
ObjectDBX Classes
 90
     1152
 91
        4
280
     0
281
     0
  0
ENDSEC
  0
SECTION
  2
TABLES
  0
TABLE
  2
VPORT
  5
8
330
0
100
AcDbSymbolTable
 70
     1
  0
VPORT
  5
29
330
8
100
AcDbSymbolTableRecord
100
AcDbViewportTableRecord
  2
*Active
 70
     0
 10
0.0
 20
0.0
 11
1.0
 21
1.0
 12
644614.0780310263
 22
4144884.680281462
 13
0.0
 23
0.0
 14
10.0
 24
10.0
 15
10.0
 25
10.0
 16
0.0
 26
0.0
 36
1.0
 17
0.0
 27
0.0
 37
0.0
 40
501.9654608432194
 41
2.106082036775106
 42
50.0
 43
0.0
 44
0.0
 50
0.0
 51
0.0
 71
    16
 72
   100
 73
     1
 74
     3
 75
     0
 76
     0
 77
     0
 78
     0
281
     0
 65
     1
110
0.0
120
0.0
130
0.0
111
1.0
121
0.0
131
0.0
112
0.0
122
1.0
132
0.0
 79
     0
146
0.0
348
2F
 60
     3
 61
     5
292
     1
282
     1
141
0.0
142
0.0
 63
   250
361
2DF
  0
ENDTAB
  0
TABLE
  2
LTYPE
  5
5
330
0
100
AcDbSymbolTable
 70
     1
  0
LTYPE
  5
14
330
5
100
AcDbSymbolTableRecord
100
AcDbLinetypeTableRecord
  2
ByBlock
 70
     0
  3

 72
    65
 73
     0
 40
0.0
  0
LTYPE
  5
15
330
5
100
AcDbSymbolTableRecord
100
AcDbLinetypeTableRecord
  2
ByLayer
 70
     0
  3

 72
    65
 73
     0
 40
0.0
  0
LTYPE
  5
16
330
5
100
AcDbSymbolTableRecord
100
AcDbLinetypeTableRecord
  2
Continuous
 70
     0
  3
Solid line
 72
    65
 73
     0
 40
0.0
  0
ENDTAB
  0
TABLE
  2
LAYER
  5
2
102
{ACAD_XDICTIONARY
360
2E8
102
}
330
0
100
AcDbSymbolTable
 70
     6
  0
LAYER
  5
10
330
2
100
AcDbSymbolTableRecord
100
AcDbLayerTableRecord
  2
0
 70
     4
 62
     5
  6
Continuous
370
     0
390
F
347
3E
  0
LAYER
  5
3F
330
2
100
AcDbSymbolTableRecord
100
AcDbLayerTableRecord
  2
2272
 70
     4
 62
   152
  6
Continuous
370
     0
390
F
347
3E
  0
LAYER
  5
40
330
2
100
AcDbSymbolTableRecord
100
AcDbLayerTableRecord
  2
2254
 70
     4
 62
     3
  6
Continuous
370
     0
390
F
347
3E
  0
LAYER
  5
2EE
330
2
100
AcDbSymbolTableRecord
100
AcDbLayerTableRecord
  2
INIT_COORD
 70
     4
 62
     5
  6
Continuous
370
     0
390
F
347
3E
1001
AcAecLayerStandard
1000

1000

  0
LAYER
  5
2F0
330
2
100
AcDbSymbolTableRecord
100
AcDbLayerTableRecord
  2
GEOFENCE
 70
     0
 62
     3
  6
Continuous
370
     0
390
F
347
3E
1001
AcAecLayerStandard
1000

1000

  0
LAYER
  5
2F1
330
2
100
AcDbSymbolTableRecord
100
AcDbLayerTableRecord
  2
TEXT_BLUE
 70
     4
 62
     5
  6
Continuous
370
     0
390
F
347
3E
1001
AcAecLayerStandard
1000

1000

  0
ENDTAB
  0
TABLE
  2
STYLE
  5
3
330
0
100
AcDbSymbolTable
 70
     1
  0
STYLE
  5
11
330
3
100
AcDbSymbolTableRecord
100
AcDbTextStyleTableRecord
  2
Standard
 70
     0
 40
0.0
 41
1.0
 50
0.0
 71
     0
 42
2.5
  3
C:\Windows\Font\TIMES.TTF
  4

  0
ENDTAB
  0
TABLE
  2
VIEW
  5
6
330
0
100
AcDbSymbolTable
 70
     0
  0
ENDTAB
  0
TABLE
  2
UCS
  5
7
330
0
100
AcDbSymbolTable
 70
     0
  0
ENDTAB
  0
TABLE
  2
APPID
  5
9
330
0
100
AcDbSymbolTable
 70
     2
  0
APPID
  5
12
330
9
100
AcDbSymbolTableRecord
100
AcDbRegAppTableRecord
  2
ACAD
 70
     0
  0
APPID
  5
2EF
330
9
100
AcDbSymbolTableRecord
100
AcDbRegAppTableRecord
  2
AcAecLayerStandard
 70
     0
  0
ENDTAB
  0
TABLE
  2
DIMSTYLE
  5
A
330
0
100
AcDbSymbolTable
 70
     1
100
AcDbDimStyleTable
  0
DIMSTYLE
105
27
330
A
100
AcDbSymbolTableRecord
100
AcDbDimStyleTableRecord
  2
ISO-25
 70
     0
 41
2.5
 42
0.625
 43
3.75
 44
1.25
 73
     0
 74
     0
 77
     1
 78
     8
140
2.5
141
2.5
143
0.03937007874016
147
0.625
171
     3
172
     1
178
     0
271
     2
272
     2
274
     3
278
    44
283
     0
284
     8
340
11
  0
ENDTAB
  0
TABLE
  2
BLOCK_RECORD
  5
1
330
0
100
AcDbSymbolTable
 70
     1
  0
BLOCK_RECORD
  5
1F
330
1
100
AcDbSymbolTableRecord
100
AcDbBlockTableRecord
  2
*Model_Space
340
22
 70
     0
280
     1
281
     0
  0
BLOCK_RECORD
  5
1B
330
1
100
AcDbSymbolTableRecord
100
AcDbBlockTableRecord
  2
*Paper_Space
340
1E
 70
     0
280
     1
281
     0
  0
BLOCK_RECORD
  5
23
330
1
100
AcDbSymbolTableRecord
100
AcDbBlockTableRecord
  2
*Paper_Space0
340
26
 70
     0
280
     1
281
     0
  0
ENDTAB
  0
ENDSEC
  0
SECTION
  2
BLOCKS
  0
BLOCK
  5
20
330
1F
100
AcDbEntity
  8
0
100
AcDbBlockBegin
  2
*Model_Space
 70
     0
 10
0.0
 20
0.0
 30
0.0
  3
*Model_Space
  1
*Model_Space
  0
ENDBLK
  5
21
330
1F
100
AcDbEntity
  8
0
100
AcDbBlockEnd
  0
BLOCK
  5
1C
330
1B
100
AcDbEntity
 67
     1
  8
0
100
AcDbBlockBegin
  2
*Paper_Space
 70
     0
 10
0.0
 20
0.0
 30
0.0
  3
*Paper_Space
  1
*Paper_Space
  0
ENDBLK
  5
1D
330
1B
100
AcDbEntity
 67
     1
  8
0
100
AcDbBlockEnd
  0
BLOCK
  5
24
330
23
100
AcDbEntity
  8
0
100
AcDbBlockBegin
  2
*Paper_Space0
 70
     0
 10
0.0
 20
0.0
 30
0.0
  3
*Paper_Space0
  1
*Paper_Space0
  0
ENDBLK
  5
25
330
23
100
AcDbEntity
  8
0
100
AcDbBlockEnd
  0
ENDSEC
  0
SECTION
  2
ENTITIES
  0
LINE
  5
41
330
1F
100
AcDbEntity
  8
2272
370
     0
100
AcDbLine
 10
644490.6732886634
 20
4144832.310370946
 30
0.0
 11
644490.7016203692
 21
4144831.724
 31
2266.864990234375
  0
LINE
  5
42
330
1F
100
AcDbEntity
  8
2272
370
     0
100
AcDbLine
 10
644491.4676203692
 20
4144838.707
 30
0.0
 11
644490.6732886634
 21
4144832.310370946
 31
0.0
  0
LINE
  5
43
330
1F
100
AcDbEntity
  8
2272
370
     0
100
AcDbLine
 10
644490.8156203692
 20
4144851.516
 30
0.0
 11
644491.0386203692
 21
4144847.843
 31
2268.552001953125
  0
LINE
  5
44
330
1F
100
AcDbEntity
  8
2272
370
     0
100
AcDbLine
 10
644490.6597499355
 20
4144855.906
 30
2269.580078125
 11
644490.8156203692
 21
4144851.516
 31
0.0
  0
LINE
  5
45
330
1F
100
AcDbEntity
  8
2272
370
     0
100
AcDbLine
 10
644491.5256203691
 20
4144845.756
 30
0.0
 11
644491.4676203692
 21
4144838.707
 31
0.0
  0
LINE
  5
46
330
1F
100
AcDbEntity
  8
2272
370
     0
100
AcDbLine
 10
644491.0386203692
 20
4144847.843
 30
2268.552001953125
 11
644491.5256203691
 21
4144845.756
 31
0.0
  0
LINE
  5
47
330
1F
100
AcDbEntity
  8
2272
370
     0
100
AcDbLine
 10
644487.4226203691
 20
4144841.005
 30
2267.593994140625
 11
644486.4436203692
 21
4144832.855
 31
2266.821044921875
  0
LINE
  5
48
330
1F
100
AcDbEntity
  8
2272
370
     0
100
AcDbLine
 10
644487.2587499354
 20
4144844.206
 30
2268.218017578125
 11
644487.4226203691
 21
4144841.005
 31
2267.593994140625
  0
LINE
  5
49
330
1F
100
AcDbEntity
  8
2272
370
     0
100
AcDbLine
 10
644486.4436203692
 20
4144832.855
 30
2266.821044921875
 11
644486.8366203692
 21
4144826.277
 31
2266.4169921875
  0
LINE
  5
4A
330
1F
100
AcDbEntity
  8
2272
370
     0
100
AcDbLine
 10
644470.5336203692
 20
4144804.761
 30
2262.720947265625
 11
644464.8206203692
 21
4144798.855
 31
2261.695068359375
  0
LINE
  5
4B
330
1F
100
AcDbEntity
  8
2272
370
     0
100
AcDbLine
 10
644476.2786203692
 20
4144810.851
 30
2263.60400390625
 11
644470.5336203692
 21
4144804.761
 31
2262.720947265625
  0
LINE
  5
4C
330
1F
100
AcDbEntity
  8
2272
370
     0
100
AcDbLine
 10
644457.1936203692
 20
4144791.388
 30
2260.35009765625
 11
644445.5966203691
 21
4144780.174
 31
2258.510986328125
  0
LINE
  5
4D
330
1F
100
AcDbEntity
  8
2272
370
     0
100
AcDbLine
 10
644464.8206203692
 20
4144798.855
 30
2261.695068359375
 11
644457.1936203692
 21
4144791.388
 31
2260.35009765625
  0
LINE
  5
4E
330
1F
100
AcDbEntity
  8
2272
370
     0
100
AcDbLine
 10
644479.6756203691
 20
4144814.741
 30
2264.386962890625
 11
644476.2786203692
 21
4144810.851
 31
2263.60400390625
  0
LINE
  5
4F
330
1F
100
AcDbEntity
  8
2272
370
     0
100
AcDbLine
 10
644486.8726203692
 20
4144822.129
 30
2265.989013671875
 11
644485.2076203692
 21
4144820.526
 31
2265.52294921875
  0
LINE
  5
50
330
1F
100
AcDbEntity
  8
2272
370
     0
100
AcDbLine
 10
644486.8366203692
 20
4144826.277
 30
2266.4169921875
 11
644486.8726203692
 21
4144822.129
 31
2265.989013671875
  0
LINE
  5
51
330
1F
100
AcDbEntity
  8
2272
370
     0
100
AcDbLine
 10
644482.3016203692
 20
4144818.039
 30
2265.0029296875
 11
644479.6756203691
 21
4144814.741
 31
2264.386962890625
  0
LINE
  5
52
330
1F
100
AcDbEntity
  8
2272
370
     0
100
AcDbLine
 10
644485.2076203692
 20
4144820.526
 30
2265.52294921875
 11
644482.3016203692
 21
4144818.039
 31
2265.0029296875
  0
LINE
  5
53
330
1F
100
AcDbEntity
  8
2272
370
     0
100
AcDbLine
 10
644490.9486203692
 20
4144825.734
 30
2266.39599609375
 11
644490.7016203692
 21
4144831.724
 31
2266.865966796875
  0
LINE
  5
54
330
1F
100
AcDbEntity
  8
2272
370
     0
100
AcDbLine
 10
644491.3026203691
 20
4144820.751
 30
2265.751953125
 11
644490.9486203692
 21
4144825.734
 31
2266.39599609375
  0
LINE
  5
55
330
1F
100
AcDbEntity
  8
2272
370
     0
100
AcDbLine
 10
644437.3886203691
 20
4144764.862
 30
2256.43701171875
 11
644440.7156203692
 21
4144768.09
 31
2256.904052734375
  0
LINE
  5
56
330
1F
100
AcDbEntity
  8
2272
370
     0
100
AcDbLine
 10
644433.3696203692
 20
4144762.768
 30
2255.7119140625
 11
644437.3886203691
 21
4144764.862
 31
2256.43701171875
  0
LINE
  5
57
330
1F
100
AcDbEntity
  8
2272
370
     0
100
AcDbLine
 10
644445.0336203692
 20
4144773.252
 30
2257.9189453125
 11
644447.8916203692
 21
4144777.532
 31
2258.510986328125
  0
LINE
  5
58
330
1F
100
AcDbEntity
  8
2272
370
     0
100
AcDbLine
 10
644440.7156203692
 20
4144768.09
 30
2256.904052734375
 11
644445.0336203692
 21
4144773.252
 31
2257.9189453125
  0
LINE
  5
59
330
1F
100
AcDbEntity
  8
2272
370
     0
100
AcDbLine
 10
644433.0566203692
 20
4144767.333
 30
2256.056884765625
 11
644431.0816203692
 21
4144768.586
 31
2255.885009765625
  0
LINE
  5
5A
330
1F
100
AcDbEntity
  8
2272
370
     0
100
AcDbLine
 10
644444.3906203691
 20
4144778.205
 30
2258.02392578125
 11
644438.8326203692
 21
4144771.506
 31
2257.14990234375
  0
LINE
  5
5B
330
1F
100
AcDbEntity
  8
2272
370
     0
100
AcDbLine
 10
644445.5966203691
 20
4144780.174
 30
2258.510986328125
 11
644444.3906203691
 21
4144778.205
 31
2258.02392578125
  0
LINE
  5
5C
330
1F
100
AcDbEntity
  8
2272
370
     0
100
AcDbLine
 10
644435.7906203691
 20
4144768.518
 30
2256.511962890625
 11
644433.0566203692
 21
4144767.333
 31
2256.056884765625
  0
LINE
  5
5D
330
1F
100
AcDbEntity
  8
2272
370
     0
100
AcDbLine
 10
644438.8326203692
 20
4144771.506
 30
2257.14990234375
 11
644435.7906203691
 21
4144768.518
 31
2256.511962890625
  0
LINE
  5
5E
330
1F
100
AcDbEntity
  8
2272
370
     0
100
AcDbLine
 10
644447.8916203692
 20
4144777.532
 30
2258.510986328125
 11
644452.8966203692
 21
4144782.368
 31
2259.0029296875
  0
LINE
  5
5F
330
1F
100
AcDbEntity
  8
2272
370
     0
100
AcDbLine
 10
644486.5426203691
 20
4144815.834
 30
2265.23095703125
 11
644491.3026203691
 21
4144820.751
 31
2265.507080078125
  0
LINE
  5
60
330
1F
100
AcDbEntity
  8
2272
370
     0
100
AcDbLine
 10
644484.7806203691
 20
4144814.348
 30
2264.927978515625
 11
644486.5426203691
 21
4144815.834
 31
2265.23095703125
  0
LINE
  5
61
330
1F
100
AcDbEntity
  8
2272
370
     0
100
AcDbLine
 10
644483.8986203691
 20
4144813.597
 30
2264.64111328125
 11
644484.7806203691
 21
4144814.348
 31
2264.927978515625
  0
LINE
  5
62
330
1F
100
AcDbEntity
  8
2272
370
     0
100
AcDbLine
 10
644456.9696203691
 20
4144785.594
 30
2259.573974609375
 11
644464.4746203691
 21
4144794.15
 31
2261.35595703125
  0
LINE
  5
63
330
1F
100
AcDbEntity
  8
2272
370
     0
100
AcDbLine
 10
644452.8966203692
 20
4144782.368
 30
2259.0029296875
 11
644456.9696203691
 21
4144785.594
 31
2259.573974609375
  0
LINE
  5
64
330
1F
100
AcDbEntity
  8
2272
370
     0
100
AcDbLine
 10
644470.3986203691
 20
4144799.874
 30
2262.4169921875
 11
644475.0016203691
 21
4144804.351
 31
2263.044921875
  0
LINE
  5
65
330
1F
100
AcDbEntity
  8
2272
370
     0
100
AcDbLine
 10
644464.4746203691
 20
4144794.15
 30
2261.35595703125
 11
644470.3986203691
 21
4144799.874
 31
2262.4169921875
  0
LINE
  5
66
330
1F
100
AcDbEntity
  8
2272
370
     0
100
AcDbLine
 10
644485.1707499354
 20
4144889.774
 30
2271.962890625
 11
644484.2997499355
 21
4144895.512
 31
2271.926025390625
  0
LINE
  5
67
330
1F
100
AcDbEntity
  8
2272
370
     0
100
AcDbLine
 10
644483.3257499355
 20
4144889.964
 30
2272.404052734375
 11
644485.1707499354
 21
4144889.774
 31
2271.962890625
  0
LINE
  5
68
330
1F
100
AcDbEntity
  8
2272
370
     0
100
AcDbLine
 10
644486.3581747086
 20
4144881.724653169
 30
2271.575927734375
 11
644484.7647499355
 21
4144884.053
 31
2271.952880859375
  0
LINE
  5
69
330
1F
100
AcDbEntity
  8
2272
370
     0
100
AcDbLine
 10
644484.7647499355
 20
4144884.053
 30
2271.952880859375
 11
644481.5667499355
 21
4144886.087
 31
2272.304931640625
  0
LINE
  5
6A
330
1F
100
AcDbEntity
  8
2272
370
     0
100
AcDbLine
 10
644490.011122878
 20
4144883.36266254
 30
2271.56298828125
 11
644490.2667499355
 21
4144881.899
 31
2271.52001953125
  0
LINE
  5
6B
330
1F
100
AcDbEntity
  8
2272
370
     0
100
AcDbLine
 10
644489.1097499355
 20
4144886.906
 30
2271.873046875
 11
644490.011122878
 21
4144883.36266254
 31
2271.56298828125
  0
LINE
  5
6C
330
1F
100
AcDbEntity
  8
2272
370
     0
100
AcDbLine
 10
644487.8297499354
 20
4144892.412
 30
2271.98291015625
 11
644489.1097499355
 21
4144886.906
 31
2271.873046875
  0
LINE
  5
6D
330
1F
100
AcDbEntity
  8
2272
370
     0
100
AcDbLine
 10
644486.7907499354
 20
4144852.818
 30
2269.18994140625
 11
644487.9247499355
 21
4144864.582
 31
2270.596923828125
  0
LINE
  5
6E
330
1F
100
AcDbEntity
  8
2272
370
     0
100
AcDbLine
 10
644487.2127499355
 20
4144850.251
 30
2268.903076171875
 11
644486.7907499354
 21
4144852.818
 31
2269.18994140625
  0
LINE
  5
6F
330
1F
100
AcDbEntity
  8
2272
370
     0
100
AcDbLine
 10
644488.2211341506
 20
4144871.246784381
 30
2271.2099609375
 11
644487.8217358304
 21
4144873.021888027
 31
2271.239990234375
  0
LINE
  5
70
330
1F
100
AcDbEntity
  8
2272
370
     0
100
AcDbLine
 10
644487.9247499355
 20
4144864.582
 30
2270.596923828125
 11
644488.2211341506
 21
4144871.246784381
 31
2271.2099609375
  0
LINE
  5
71
330
1F
100
AcDbEntity
  8
2272
370
     0
100
AcDbLine
 10
644487.2587499354
 20
4144844.206
 30
2268.218017578125
 11
644487.2127499355
 21
4144850.251
 31
2268.903076171875
  0
LINE
  5
72
330
1F
100
AcDbEntity
  8
2272
370
     0
100
AcDbLine
 10
644492.2155315249
 20
4144866.468248607
 30
2270.451904296875
 11
644490.6597499355
 21
4144855.906
 31
2269.580078125
  0
LINE
  5
73
330
1F
100
AcDbEntity
  8
2272
370
     0
100
AcDbLine
 10
644490.2667499355
 20
4144881.899
 30
2271.513916015625
 11
644491.3757499355
 21
4144876.297
 31
2271.427978515625
  0
LINE
  5
74
330
1F
100
AcDbEntity
  8
2272
370
     0
100
AcDbLine
 10
644492.2155315249
 20
4144866.468248607
 30
2271.080078125
 11
644491.8352193842
 21
4144874.38383328
 31
2270.903076171875
  0
LINE
  5
75
330
1F
100
AcDbEntity
  8
2272
370
     0
100
AcDbLine
 10
644487.7506701419
 20
4144894.201075407
 30
2271.991943359375
 11
644487.8297499354
 21
4144892.412
 31
2271.98291015625
  0
LINE
  5
76
330
1F
100
AcDbEntity
  8
2272
370
     0
100
AcDbLine
 10
644491.8352193842
 20
4144874.38383328
 30
2271.821044921875
 11
644491.3757499355
 21
4144876.297
 31
2271.427978515625
  0
LINE
  5
77
330
1F
100
AcDbEntity
  8
2272
370
     0
100
AcDbLine
 10
644483.0878080102
 20
4144812.717019347
 30
2264.800048828125
 11
644483.8986203691
 21
4144813.597
 31
2264.64111328125
  0
LINE
  5
78
330
1F
100
AcDbEntity
  8
2272
370
     0
100
AcDbLine
 10
644475.0016203691
 20
4144804.351
 30
2263.044921875
 11
644477.9589953452
 21
4144806.641328034
 31
2263.9990234375
  0
LINE
  5
79
330
1F
100
AcDbEntity
  8
2272
370
     0
100
AcDbLine
 10
644483.0878080102
 20
4144812.717019347
 30
2264.800048828125
 11
644477.9589953452
 21
4144806.641328034
 31
2264.799072265625
  0
LINE
  5
7A
330
1F
100
AcDbEntity
  8
2254
370
     0
100
AcDbLine
 10
644397.94971338
 20
4144992.554552455
 30
2263.881103515625
 11
644398.5297243077
 21
4144989.911469724
 31
2263.39599609375
  0
LINE
  5
7B
330
1F
100
AcDbEntity
  8
2254
370
     0
100
AcDbLine
 10
644397.9554746106
 20
4144995.635403427
 30
2264.427001953125
 11
644397.94971338
 21
4144992.554552455
 31
2263.881103515625
  0
LINE
  5
7C
330
1F
100
AcDbEntity
  8
2254
370
     0
100
AcDbLine
 10
644401.3346417678
 20
4144999.152095707
 30
2265.072021484375
 11
644401.1377366048
 21
4145002.43648014
 31
2265.06591796875
  0
LINE
  5
7D
330
1F
100
AcDbEntity
  8
2254
370
     0
100
AcDbLine
 10
644397.4614290894
 20
4145013.799911383
 30
2266.537109375
 11
644397.7678950066
 21
4145005.433862935
 31
2265.68701171875
  0
LINE
  5
7E
330
1F
100
AcDbEntity
  8
2254
370
     0
100
AcDbLine
 10
644397.7041502498
 20
4145021.052847857
 30
2265.556884765625
 11
644397.4614290894
 21
4145013.799911383
 31
2266.537109375
  0
LINE
  5
7F
330
1F
100
AcDbEntity
  8
2254
370
     0
100
AcDbLine
 10
644397.7678950066
 20
4145005.433862935
 30
2265.68701171875
 11
644397.7549374849
 21
4145000.652504506
 31
2265.35205078125
  0
LINE
  5
80
330
1F
100
AcDbEntity
  8
2254
370
     0
100
AcDbLine
 10
644398.3031088564
 20
4144985.823
 30
2262.375
 11
644398.5297243077
 21
4144989.911469724
 31
2263.39599609375
  0
LINE
  5
81
330
1F
100
AcDbEntity
  8
2254
370
     0
100
AcDbLine
 10
644396.0761088565
 20
4144974.489
 30
2260.8779296875
 11
644398.2222117841
 21
4144978.668785695
 31
2261.98193359375
  0
LINE
  5
82
330
1F
100
AcDbEntity
  8
2254
370
     0
100
AcDbLine
 10
644400.9942481698
 20
4145004.610923237
 30
2265.762939453125
 11
644400.8804515488
 21
4145007.411475855
 31
2265.83203125
  0
LINE
  5
83
330
1F
100
AcDbEntity
  8
2254
370
     0
100
AcDbLine
 10
644401.1377366048
 20
4145002.43648014
 30
2265.06591796875
 11
644400.9942481698
 21
4145004.610923237
 31
2265.762939453125
  0
LINE
  5
84
330
1F
100
AcDbEntity
  8
2254
370
     0
100
AcDbLine
 10
644400.8804515488
 20
4145007.411475855
 30
2265.83203125
 11
644400.8733228134
 21
4145010.196256084
 31
2266.22509765625
  0
LINE
  5
85
330
1F
100
AcDbEntity
  8
2254
370
     0
100
AcDbLine
 10
644400.5987178618
 20
4145016.731028584
 30
2266.780029296875
 11
644400.423347315
 21
4145021.08908488
 31
2265.68994140625
  0
LINE
  5
86
330
1F
100
AcDbEntity
  8
2254
370
     0
100
AcDbLine
 10
644400.8733228134
 20
4145010.196256084
 30
2266.22509765625
 11
644400.5987178618
 21
4145016.731028584
 31
2266.780029296875
  0
LINE
  5
87
330
1F
100
AcDbEntity
  8
2254
370
     0
100
AcDbLine
 10
644402.0205049461
 20
4144986.781968178
 30
2263.051025390625
 11
644402.3612446961
 21
4144990.145570886
 31
2263.553955078125
  0
LINE
  5
88
330
1F
100
AcDbEntity
  8
2254
370
     0
100
AcDbLine
 10
644402.3471205604
 20
4144986.254082563
 30
2263.178955078125
 11
644402.0205049461
 21
4144986.781968178
 31
2263.051025390625
  0
LINE
  5
89
330
1F
100
AcDbEntity
  8
2254
370
     0
100
AcDbLine
 10
644402.3612446961
 20
4144990.145570886
 30
2263.553955078125
 11
644401.6639973158
 21
4144994.05579667
 31
2264.14306640625
  0
LINE
  5
8A
330
1F
100
AcDbEntity
  8
2254
370
     0
100
AcDbLine
 10
644397.7549374849
 20
4145000.652504506
 30
2265.35205078125
 11
644397.9554746106
 21
4144995.635403427
 31
2264.427001953125
  0
LINE
  5
8B
330
1F
100
AcDbEntity
  8
2254
370
     0
100
AcDbLine
 10
644401.6639973158
 20
4144994.05579667
 30
2264.14306640625
 11
644401.3346417678
 21
4144999.152095707
 31
2265.072021484375
  0
LINE
  5
8C
330
1F
100
AcDbEntity
  8
2254
370
     0
100
AcDbLine
 10
644401.4016582165
 20
4144982.760317946
 30
2262.93310546875
 11
644402.3471205604
 21
4144986.254082563
 31
2263.178955078125
  0
LINE
  5
8D
330
1F
100
AcDbEntity
  8
2254
370
     0
100
AcDbLine
 10
644398.2222117841
 20
4144978.668785695
 30
2261.98193359375
 11
644401.4016582165
 21
4144982.760317946
 31
2262.93310546875
  0
LINE
  5
8E
330
1F
100
AcDbEntity
  8
2254
370
     0
100
AcDbLine
 10
644218.5383673109
 20
4144670.624922141
 30
2254.0439453125
 11
644217.0979118482
 21
4144671.982996942
 31
2253.833984375
  0
LINE
  5
8F
330
1F
100
AcDbEntity
  8
2254
370
     0
100
AcDbLine
 10
644219.973974762
 20
4144667.866338464
 30
2253.90087890625
 11
644218.5383673109
 21
4144670.624922141
 31
2254.0439453125
  0
LINE
  5
90
330
1F
100
AcDbEntity
  8
2254
370
     0
100
AcDbLine
 10
644216.1319946737
 20
4144675.556617845
 30
2253.9580078125
 11
644216.002686514
 21
4144679.924791192
 31
2253.803955078125
  0
LINE
  5
91
330
1F
100
AcDbEntity
  8
2254
370
     0
100
AcDbLine
 10
644217.0979118482
 20
4144671.982996942
 30
2253.833984375
 11
644216.1319946737
 21
4144675.556617845
 31
2253.9580078125
  0
LINE
  5
92
330
1F
100
AcDbEntity
  8
2254
370
     0
100
AcDbLine
 10
644219.8032944781
 20
4144660.701856959
 30
2254.488037109375
 11
644220.4360301595
 21
4144663.179979744
 31
2254.1259765625
  0
LINE
  5
93
330
1F
100
AcDbEntity
  8
2254
370
     0
100
AcDbLine
 10
644218.9356896562
 20
4144658.021229974
 30
2255.10888671875
 11
644219.8032944781
 21
4144660.701856959
 31
2254.488037109375
  0
LINE
  5
94
330
1F
100
AcDbEntity
  8
2254
370
     0
100
AcDbLine
 10
644220.6217171656
 20
4144665.907525746
 30
2254.02294921875
 11
644219.973974762
 21
4144667.866338464
 31
2253.90087890625
  0
LINE
  5
95
330
1F
100
AcDbEntity
  8
2254
370
     0
100
AcDbLine
 10
644220.4360301595
 20
4144663.179979744
 30
2254.1259765625
 11
644220.6217171656
 21
4144665.907525746
 31
2254.02294921875
  0
LINE
  5
96
330
1F
100
AcDbEntity
  8
2254
370
     0
100
AcDbLine
 10
644215.6958251582
 20
4144688.285668431
 30
2253.740966796875
 11
644215.7286534186
 21
4144689.714556759
 31
2253.62890625
  0
LINE
  5
97
330
1F
100
AcDbEntity
  8
2254
370
     0
100
AcDbLine
 10
644216.1316432568
 20
4144684.314221136
 30
2253.87890625
 11
644215.9878844687
 21
4144685.328604947
 31
2253.9169921875
  0
LINE
  5
98
330
1F
100
AcDbEntity
  8
2254
370
     0
100
AcDbLine
 10
644216.002686514
 20
4144679.924791192
 30
2253.803955078125
 11
644216.1316432568
 21
4144684.314221136
 31
2253.87890625
  0
LINE
  5
99
330
1F
100
AcDbEntity
  8
2254
370
     0
100
AcDbLine
 10
644215.869224362
 20
4144686.372526651
 30
2253.839111328125
 11
644215.6958251582
 21
4144688.285668431
 31
2253.740966796875
  0
LINE
  5
9A
330
1F
100
AcDbEntity
  8
2254
370
     0
100
AcDbLine
 10
644215.9878844687
 20
4144685.328604947
 30
2253.9169921875
 11
644215.869224362
 21
4144686.372526651
 31
2253.839111328125
  0
LINE
  5
9B
330
1F
100
AcDbEntity
  8
2254
370
     0
100
AcDbLine
 10
644220.3266614162
 20
4144685.972273516
 30
2253.927001953125
 11
644220.5339602623
 21
4144677.605466139
 31
2253.839111328125
  0
LINE
  5
9C
330
1F
100
AcDbEntity
  8
2254
370
     0
100
AcDbLine
 10
644219.1508098084
 20
4144691.690378577
 30
2253.54296875
 11
644218.9525017272
 21
4144690.019422932
 31
2253.674072265625
  0
LINE
  5
9D
330
1F
100
AcDbEntity
  8
2254
370
     0
100
AcDbLine
 10
644219.4870571059
 20
4144687.698682163
 30
2253.81396484375
 11
644220.3266614162
 21
4144685.972273516
 31
2253.927001953125
  0
LINE
  5
9E
330
1F
100
AcDbEntity
  8
2254
370
     0
100
AcDbLine
 10
644218.9525017272
 20
4144690.019422932
 30
2253.674072265625
 11
644219.4870571059
 21
4144687.698682163
 31
2253.81396484375
  0
LINE
  5
9F
330
1F
100
AcDbEntity
  8
2254
370
     0
100
AcDbLine
 10
644350.4681088565
 20
4144715.01
 30
2251.950927734375
 11
644358.4101088565
 21
4144716.483
 31
2251.5380859375
  0
LINE
  5
A0
330
1F
100
AcDbEntity
  8
2254
370
     0
100
AcDbLine
 10
644344.9861088565
 20
4144713.975
 30
2251.860107421875
 11
644350.4681088565
 21
4144715.01
 31
2251.950927734375
  0
LINE
  5
A1
330
1F
100
AcDbEntity
  8
2254
370
     0
100
AcDbLine
 10
644364.0651088564
 20
4144716.738
 30
2251.35595703125
 11
644369.9981088565
 21
4144718.263
 31
2251.550048828125
  0
LINE
  5
A2
330
1F
100
AcDbEntity
  8
2254
370
     0
100
AcDbLine
 10
644358.4101088565
 20
4144716.483
 30
2251.5380859375
 11
644364.0651088564
 21
4144716.738
 31
2251.35595703125
  0
LINE
  5
A3
330
1F
100
AcDbEntity
  8
2254
370
     0
100
AcDbLine
 10
644337.5291088565
 20
4144712.951
 30
2251.73388671875
 11
644344.9861088565
 21
4144713.975
 31
2251.860107421875
  0
LINE
  5
A4
330
1F
100
AcDbEntity
  8
2254
370
     0
100
AcDbLine
 10
644333.2531088565
 20
4144712.413
 30
2251.802001953125
 11
644337.5291088565
 21
4144712.951
 31
2251.73388671875
  0
LINE
  5
A5
330
1F
100
AcDbEntity
  8
2254
370
     0
100
AcDbLine
 10
644374.0451088565
 20
4144718.736
 30
2251.64697265625
 11
644378.0711088565
 21
4144719.487
 31
2251.717041015625
  0
LINE
  5
A6
330
1F
100
AcDbEntity
  8
2254
370
     0
100
AcDbLine
 10
644369.9981088565
 20
4144718.263
 30
2251.550048828125
 11
644374.0451088565
 21
4144718.736
 31
2251.64697265625
  0
LINE
  5
A7
330
1F
100
AcDbEntity
  8
2254
370
     0
100
AcDbLine
 10
644385.9781088565
 20
4144721.028
 30
2251.739990234375
 11
644389.9446203691
 21
4144721.508
 31
2251.7890625
  0
LINE
  5
A8
330
1F
100
AcDbEntity
  8
2254
370
     0
100
AcDbLine
 10
644378.0711088565
 20
4144719.487
 30
2251.717041015625
 11
644385.9781088565
 21
4144721.028
 31
2251.739990234375
  0
LINE
  5
A9
330
1F
100
AcDbEntity
  8
2254
370
     0
100
AcDbLine
 10
644217.0519593534
 20
4144641.272000267
 30
2257.090087890625
 11
644216.6190659134
 21
4144636.302286897
 31
2256.69091796875
  0
LINE
  5
AA
330
1F
100
AcDbEntity
  8
2254
370
     0
100
AcDbLine
 10
644217.0302882605
 20
4144643.851693759
 30
2256.77392578125
 11
644217.0519593534
 21
4144641.272000267
 31
2257.090087890625
  0
LINE
  5
AB
330
1F
100
AcDbEntity
  8
2254
370
     0
100
AcDbLine
 10
644216.4716752215
 20
4144631.460385315
 30
2256.488037109375
 11
644216.5974807915
 21
4144627.394861696
 31
2256.54296875
  0
LINE
  5
AC
330
1F
100
AcDbEntity
  8
2254
370
     0
100
AcDbLine
 10
644216.6190659134
 20
4144636.302286897
 30
2256.69091796875
 11
644216.4716752215
 21
4144631.460385315
 31
2256.488037109375
  0
LINE
  5
AD
330
1F
100
AcDbEntity
  8
2254
370
     0
100
AcDbLine
 10
644217.8926528776
 20
4144650.119511907
 30
2256.23095703125
 11
644217.3540445934
 21
4144648.524976436
 31
2256.4169921875
  0
LINE
  5
AE
330
1F
100
AcDbEntity
  8
2254
370
     0
100
AcDbLine
 10
644218.947802861
 20
4144651.994198404
 30
2255.85693359375
 11
644217.8926528776
 21
4144650.119511907
 31
2256.23095703125
  0
LINE
  5
AF
330
1F
100
AcDbEntity
  8
2254
370
     0
100
AcDbLine
 10
644217.2188605447
 20
4144645.867508689
 30
2256.64599609375
 11
644217.0302882605
 21
4144643.851693759
 31
2256.77392578125
  0
LINE
  5
B0
330
1F
100
AcDbEntity
  8
2254
370
     0
100
AcDbLine
 10
644217.3540445934
 20
4144648.524976436
 30
2256.4169921875
 11
644217.2188605447
 21
4144645.867508689
 31
2256.64599609375
  0
LINE
  5
B1
330
1F
100
AcDbEntity
  8
2254
370
     0
100
AcDbLine
 10
644214.6215209301
 20
4144649.143357506
 30
2256.302978515625
 11
644216.7141199231
 21
4144654.278828423
 31
2255.7060546875
  0
LINE
  5
B2
330
1F
100
AcDbEntity
  8
2254
370
     0
100
AcDbLine
 10
644213.9645611781
 20
4144641.494934107
 30
2256.756103515625
 11
644214.6215209301
 21
4144649.143357506
 31
2256.302978515625
  0
LINE
  5
B3
330
1F
100
AcDbEntity
  8
2254
370
     0
100
AcDbLine
 10
644217.7851370554
 20
4144656.250367766
 30
2255.465087890625
 11
644218.9356896562
 21
4144658.021229974
 31
2255.10888671875
  0
LINE
  5
B4
330
1F
100
AcDbEntity
  8
2254
370
     0
100
AcDbLine
 10
644216.7141199231
 20
4144654.278828423
 30
2255.7060546875
 11
644217.7851370554
 21
4144656.250367766
 31
2255.465087890625
  0
LINE
  5
B5
330
1F
100
AcDbEntity
  8
2254
370
     0
100
AcDbLine
 10
644213.8492494897
 20
4144634.257713896
 30
2256.759033203125
 11
644213.471365634
 21
4144635.993229866
 31
2256.885986328125
  0
LINE
  5
B6
330
1F
100
AcDbEntity
  8
2254
370
     0
100
AcDbLine
 10
644213.586756545
 20
4144627.406621106
 30
2256.659912109375
 11
644213.8492494897
 21
4144634.257713896
 31
2256.759033203125
  0
LINE
  5
B7
330
1F
100
AcDbEntity
  8
2254
370
     0
100
AcDbLine
 10
644213.471365634
 20
4144635.993229866
 30
2256.885986328125
 11
644213.95838054
 21
4144640.610894386
 31
2257.0380859375
  0
LINE
  5
B8
330
1F
100
AcDbEntity
  8
2254
370
     0
100
AcDbLine
 10
644221.0247409181
 20
4144674.568760832
 30
2253.722900390625
 11
644221.3807693163
 21
4144671.786421819
 31
2253.721923828125
  0
LINE
  5
B9
330
1F
100
AcDbEntity
  8
2254
370
     0
100
AcDbLine
 10
644220.5339602623
 20
4144677.605466139
 30
2253.866943359375
 11
644221.0247409181
 21
4144674.568760832
 31
2253.722900390625
  0
LINE
  5
BA
330
1F
100
AcDbEntity
  8
2254
370
     0
100
AcDbLine
 10
644222.838047554
 20
4144670.081937084
 30
2254.0419921875
 11
644224.4044607303
 21
4144668.547076563
 31
2254.235107421875
  0
LINE
  5
BB
330
1F
100
AcDbEntity
  8
2254
370
     0
100
AcDbLine
 10
644221.3807693163
 20
4144671.786421819
 30
2253.721923828125
 11
644222.838047554
 21
4144670.081937084
 31
2254.0419921875
  0
LINE
  5
BC
330
1F
100
AcDbEntity
  8
2254
370
     0
100
AcDbLine
 10
644223.2830415991
 20
4144658.671429402
 30
2254.820068359375
 11
644221.7914609546
 21
4144656.544601798
 31
2255.22412109375
  0
LINE
  5
BD
330
1F
100
AcDbEntity
  8
2254
370
     0
100
AcDbLine
 10
644224.3408328439
 20
4144660.218782388
 30
2254.818115234375
 11
644223.2830415991
 21
4144658.671429402
 31
2254.820068359375
  0
LINE
  5
BE
330
1F
100
AcDbEntity
  8
2254
370
     0
100
AcDbLine
 10
644220.3484590044
 20
4144654.613539136
 30
2255.458984375
 11
644218.947802861
 21
4144651.994198404
 31
2255.85693359375
  0
LINE
  5
BF
330
1F
100
AcDbEntity
  8
2254
370
     0
100
AcDbLine
 10
644221.7914609546
 20
4144656.544601798
 30
2255.22412109375
 11
644220.3484590044
 21
4144654.613539136
 31
2255.458984375
  0
LINE
  5
C0
330
1F
100
AcDbEntity
  8
2254
370
     0
100
AcDbLine
 10
644225.5001000848
 20
4144666.956608728
 30
2254.409912109375
 11
644225.7502715193
 21
4144665.822119906
 31
2254.157958984375
  0
LINE
  5
C1
330
1F
100
AcDbEntity
  8
2254
370
     0
100
AcDbLine
 10
644224.4044607303
 20
4144668.547076563
 30
2254.235107421875
 11
644225.5001000848
 21
4144666.956608728
 31
2254.409912109375
  0
LINE
  5
C2
330
1F
100
AcDbEntity
  8
2254
370
     0
100
AcDbLine
 10
644224.0745729171
 20
4144661.592890545
 30
2254.381103515625
 11
644224.3408328439
 21
4144660.218782388
 31
2254.818115234375
  0
LINE
  5
C3
330
1F
100
AcDbEntity
  8
2254
370
     0
100
AcDbLine
 10
644225.7502715193
 20
4144665.822119906
 30
2254.157958984375
 11
644224.0745729171
 21
4144661.592890545
 31
2254.381103515625
  0
LINE
  5
C4
330
1F
100
AcDbEntity
  8
2254
370
     0
100
AcDbLine
 10
644274.9311088565
 20
4144706.694
 30
2252.760986328125
 11
644268.9981088565
 21
4144706.603
 31
2252.592041015625
  0
LINE
  5
C5
330
1F
100
AcDbEntity
  8
2254
370
     0
100
AcDbLine
 10
644282.5251088565
 20
4144708.425
 30
2253.447021484375
 11
644274.9311088565
 21
4144706.694
 31
2252.760986328125
  0
LINE
  5
C6
330
1F
100
AcDbEntity
  8
2254
370
     0
100
AcDbLine
 10
644260.8361088565
 20
4144707.342
 30
2252.843017578125
 11
644252.6621088565
 21
4144704.922
 31
2252.950927734375
  0
LINE
  5
C7
330
1F
100
AcDbEntity
  8
2254
370
     0
100
AcDbLine
 10
644268.9981088565
 20
4144706.603
 30
2252.592041015625
 11
644260.8361088565
 21
4144707.342
 31
2252.843017578125
  0
LINE
  5
C8
330
1F
100
AcDbEntity
  8
2254
370
     0
100
AcDbLine
 10
644308.3021088565
 20
4144713.131
 30
2251.469970703125
 11
644297.3521088564
 21
4144711.347
 31
2251.9599609375
  0
LINE
  5
C9
330
1F
100
AcDbEntity
  8
2254
370
     0
100
AcDbLine
 10
644285.3041088565
 20
4144708.776
 30
2253.51611328125
 11
644282.5251088565
 21
4144708.425
 31
2253.447021484375
  0
LINE
  5
CA
330
1F
100
AcDbEntity
  8
2254
370
     0
100
AcDbLine
 10
644297.3521088564
 20
4144711.347
 30
2251.9599609375
 11
644285.3041088565
 21
4144708.776
 31
2253.51611328125
  0
LINE
  5
CB
330
1F
100
AcDbEntity
  8
2254
370
     0
100
AcDbLine
 10
644248.3881088565
 20
4144702.828
 30
2253.18896484375
 11
644242.4791088565
 21
4144702.23
 31
2252.972900390625
  0
LINE
  5
CC
330
1F
100
AcDbEntity
  8
2254
370
     0
100
AcDbLine
 10
644252.6621088565
 20
4144704.922
 30
2252.950927734375
 11
644248.3881088565
 21
4144702.828
 31
2253.18896484375
  0
LINE
  5
CD
330
1F
100
AcDbEntity
  8
2254
370
     0
100
AcDbLine
 10
644237.1371088565
 20
4144703.056
 30
2252.90087890625
 11
644229.2436985023
 21
4144704.914205025
 31
2252.721923828125
  0
LINE
  5
CE
330
1F
100
AcDbEntity
  8
2254
370
     0
100
AcDbLine
 10
644242.4791088565
 20
4144702.23
 30
2252.972900390625
 11
644237.1371088565
 21
4144703.056
 31
2252.90087890625
  0
LINE
  5
CF
330
1F
100
AcDbEntity
  8
2254
370
     0
100
AcDbLine
 10
644375.4421088565
 20
4144724.578
 30
2251.760986328125
 11
644369.7991088565
 21
4144722.331
 31
2251.655029296875
  0
LINE
  5
D0
330
1F
100
AcDbEntity
  8
2254
370
     0
100
AcDbLine
 10
644378.9481088564
 20
4144723.758
 30
2251.720947265625
 11
644375.4421088565
 21
4144724.578
 31
2251.760986328125
  0
LINE
  5
D1
330
1F
100
AcDbEntity
  8
2254
370
     0
100
AcDbLine
 10
644363.5321088565
 20
4144720.583
 30
2251.37109375
 11
644355.5681088564
 21
4144719.686
 31
2251.486083984375
  0
LINE
  5
D2
330
1F
100
AcDbEntity
  8
2254
370
     0
100
AcDbLine
 10
644369.7991088565
 20
4144722.331
 30
2251.655029296875
 11
644363.5321088565
 21
4144720.583
 31
2251.37109375
  0
LINE
  5
D3
330
1F
100
AcDbEntity
  8
2254
370
     0
100
AcDbLine
 10
644395.9626203692
 20
4144725.958
 30
2251.910888671875
 11
644391.5011088565
 21
4144725.468
 31
2251.875
  0
LINE
  5
D4
330
1F
100
AcDbEntity
  8
2254
370
     0
100
AcDbLine
 10
644396.9861088565
 20
4144982.315
 30
2261.87890625
 11
644398.3031088564
 21
4144985.823
 31
2262.375
  0
LINE
  5
D5
330
1F
100
AcDbEntity
  8
2254
370
     0
100
AcDbLine
 10
644384.1531088565
 20
4144724.599
 30
2251.60302734375
 11
644378.9481088564
 21
4144723.758
 31
2251.720947265625
  0
LINE
  5
D6
330
1F
100
AcDbEntity
  8
2254
370
     0
100
AcDbLine
 10
644391.5011088565
 20
4144725.468
 30
2251.875
 11
644384.1531088565
 21
4144724.599
 31
2251.60302734375
  0
LINE
  5
D7
330
1F
100
AcDbEntity
  8
2254
370
     0
100
AcDbLine
 10
644330.2321088564
 20
4144715.542
 30
2251.885009765625
 11
644324.9501088564
 21
4144715.178
 31
2251.802001953125
  0
LINE
  5
D8
330
1F
100
AcDbEntity
  8
2254
370
     0
100
AcDbLine
 10
644337.8301088564
 20
4144717.431
 30
2251.821044921875
 11
644330.2321088564
 21
4144715.542
 31
2251.885009765625
  0
LINE
  5
D9
330
1F
100
AcDbEntity
  8
2254
370
     0
100
AcDbLine
 10
644324.9501088564
 20
4144715.178
 30
2251.802001953125
 11
644318.6271088565
 21
4144715.221
 31
2251.656005859375
  0
LINE
  5
DA
330
1F
100
AcDbEntity
  8
2254
370
     0
100
AcDbLine
 10
644348.5941088565
 20
4144717.897
 30
2252.032958984375
 11
644343.4931088565
 21
4144717.508
 31
2252.0849609375
  0
LINE
  5
DB
330
1F
100
AcDbEntity
  8
2254
370
     0
100
AcDbLine
 10
644355.5681088564
 20
4144719.686
 30
2251.486083984375
 11
644348.5941088565
 21
4144717.897
 31
2252.032958984375
  0
LINE
  5
DC
330
1F
100
AcDbEntity
  8
2254
370
     0
100
AcDbLine
 10
644342.3491088565
 20
4144717.206
 30
2252.008056640625
 11
644337.8301088564
 21
4144717.431
 31
2251.821044921875
  0
LINE
  5
DD
330
1F
100
AcDbEntity
  8
2254
370
     0
100
AcDbLine
 10
644343.4931088565
 20
4144717.508
 30
2252.0849609375
 11
644342.3491088565
 21
4144717.206
 31
2252.008056640625
  0
LINE
  5
DE
330
1F
100
AcDbEntity
  8
2254
370
     0
100
AcDbLine
 10
644223.0411088564
 20
4144702.041
 30
2252.943115234375
 11
644219.8681088565
 21
4144699.107
 31
2252.89111328125
  0
LINE
  5
DF
330
1F
100
AcDbEntity
  8
2254
370
     0
100
AcDbLine
 10
644312.0591088565
 20
4144710.169
 30
2251.64599609375
 11
644316.3971088565
 21
4144710.61
 31
2251.2939453125
  0
LINE
  5
E0
330
1F
100
AcDbEntity
  8
2254
370
     0
100
AcDbLine
 10
644297.5281088565
 20
4144707.887
 30
2251.924072265625
 11
644312.0591088565
 21
4144710.169
 31
2251.64599609375
  0
LINE
  5
E1
330
1F
100
AcDbEntity
  8
2254
370
     0
100
AcDbLine
 10
644322.1531088565
 20
4144711.305
 30
2251.614013671875
 11
644325.1024657543
 21
4144711.166063486
 31
2251.27197265625
  0
LINE
  5
E2
330
1F
100
AcDbEntity
  8
2254
370
     0
100
AcDbLine
 10
644316.3971088565
 20
4144710.61
 30
2251.2939453125
 11
644322.1531088565
 21
4144711.305
 31
2251.614013671875
  0
LINE
  5
E3
330
1F
100
AcDbEntity
  8
2254
370
     0
100
AcDbLine
 10
644230.2701088565
 20
4144700.123
 30
2253.30908203125
 11
644232.5851088564
 21
4144700.105
 31
2252.903076171875
  0
LINE
  5
E4
330
1F
100
AcDbEntity
  8
2254
370
     0
100
AcDbLine
 10
644227.9821088564
 20
4144699.699
 30
2253.216064453125
 11
644230.2701088565
 21
4144700.123
 31
2253.30908203125
  0
LINE
  5
E5
330
1F
100
AcDbEntity
  8
2254
370
     0
100
AcDbLine
 10
644236.2261088565
 20
4144698.945
 30
2253.056884765625
 11
644246.5271088565
 21
4144699.046
 31
2252.7958984375
  0
LINE
  5
E6
330
1F
100
AcDbEntity
  8
2254
370
     0
100
AcDbLine
 10
644232.5851088564
 20
4144700.105
 30
2252.903076171875
 11
644236.2261088565
 21
4144698.945
 31
2253.056884765625
  0
LINE
  5
E7
330
1F
100
AcDbEntity
  8
2254
370
     0
100
AcDbLine
 10
644217.1771088565
 20
4144695.242
 30
2253.076904296875
 11
644215.7571088565
 21
4144690.782
 31
2253.389892578125
  0
LINE
  5
E8
330
1F
100
AcDbEntity
  8
2254
370
     0
100
AcDbLine
 10
644219.8681088565
 20
4144699.107
 30
2252.89111328125
 11
644217.1771088565
 21
4144695.242
 31
2253.076904296875
  0
LINE
  5
E9
330
1F
100
AcDbEntity
  8
2254
370
     0
100
AcDbLine
 10
644224.4781088565
 20
4144698.397
 30
2253.010009765625
 11
644227.9821088564
 21
4144699.699
 31
2253.216064453125
  0
LINE
  5
EA
330
1F
100
AcDbEntity
  8
2254
370
     0
100
AcDbLine
 10
644220.2611088565
 20
4144693.873
 30
2252.989990234375
 11
644224.4781088565
 21
4144698.397
 31
2253.010009765625
  0
LINE
  5
EB
330
1F
100
AcDbEntity
  8
2254
370
     0
100
AcDbLine
 10
644279.7261088565
 20
4144703.832
 30
2253.458984375
 11
644285.3531088565
 21
4144705.704
 31
2253.614013671875
  0
LINE
  5
EC
330
1F
100
AcDbEntity
  8
2254
370
     0
100
AcDbLine
 10
644275.1411088564
 20
4144702.747
 30
2252.72412109375
 11
644279.7261088565
 21
4144703.832
 31
2253.458984375
  0
LINE
  5
ED
330
1F
100
AcDbEntity
  8
2254
370
     0
100
AcDbLine
 10
644288.3381088565
 20
4144706.562
 30
2253.199951171875
 11
644297.5281088565
 21
4144707.887
 31
2251.924072265625
  0
LINE
  5
EE
330
1F
100
AcDbEntity
  8
2254
370
     0
100
AcDbLine
 10
644285.3531088565
 20
4144705.704
 30
2253.614013671875
 11
644288.3381088565
 21
4144706.562
 31
2253.199951171875
  0
LINE
  5
EF
330
1F
100
AcDbEntity
  8
2254
370
     0
100
AcDbLine
 10
644254.4971088564
 20
4144700.51
 30
2252.677978515625
 11
644263.4211088564
 21
4144703.122
 31
2252.694091796875
  0
LINE
  5
F0
330
1F
100
AcDbEntity
  8
2254
370
     0
100
AcDbLine
 10
644246.5271088565
 20
4144699.046
 30
2252.7958984375
 11
644254.4971088564
 21
4144700.51
 31
2252.677978515625
  0
LINE
  5
F1
330
1F
100
AcDbEntity
  8
2254
370
     0
100
AcDbLine
 10
644269.4751088565
 20
4144702.619
 30
2252.638916015625
 11
644275.1411088564
 21
4144702.747
 31
2252.72412109375
  0
LINE
  5
F2
330
1F
100
AcDbEntity
  8
2254
370
     0
100
AcDbLine
 10
644263.4211088564
 20
4144703.122
 30
2252.694091796875
 11
644269.4751088565
 21
4144702.619
 31
2252.638916015625
  0
LINE
  5
F3
330
1F
100
AcDbEntity
  8
2254
370
     0
100
AcDbLine
 10
644401.1571088565
 20
4144902.228
 30
2256.735107421875
 11
644401.8641088564
 21
4144904.625
 31
2257.323974609375
  0
LINE
  5
F4
330
1F
100
AcDbEntity
  8
2254
370
     0
100
AcDbLine
 10
644402.5331088565
 20
4144896.452
 30
2256.738037109375
 11
644401.1571088565
 21
4144902.228
 31
2256.735107421875
  0
LINE
  5
F5
330
1F
100
AcDbEntity
  8
2254
370
     0
100
AcDbLine
 10
644403.0251088565
 20
4144906.702
 30
2257.68310546875
 11
644401.5991088565
 21
4144907.012
 31
2258.080078125
  0
LINE
  5
F6
330
1F
100
AcDbEntity
  8
2254
370
     0
100
AcDbLine
 10
644401.8641088564
 20
4144904.625
 30
2257.323974609375
 11
644403.0251088565
 21
4144906.702
 31
2257.68310546875
  0
LINE
  5
F7
330
1F
100
AcDbEntity
  8
2254
370
     0
100
AcDbLine
 10
644408.2991088565
 20
4144866.272
 30
2257.009033203125
 11
644406.3151088564
 21
4144877.503
 31
2256.75
  0
LINE
  5
F8
330
1F
100
AcDbEntity
  8
2254
370
     0
100
AcDbLine
 10
644410.2051088564
 20
4144854.333
 30
2257.256103515625
 11
644408.2991088565
 21
4144866.272
 31
2257.009033203125
  0
LINE
  5
F9
330
1F
100
AcDbEntity
  8
2254
370
     0
100
AcDbLine
 10
644403.4171088565
 20
4144891.049
 30
2256.861083984375
 11
644402.5331088565
 21
4144896.452
 31
2256.738037109375
  0
LINE
  5
FA
330
1F
100
AcDbEntity
  8
2254
370
     0
100
AcDbLine
 10
644406.3151088564
 20
4144877.503
 30
2256.75
 11
644403.4171088565
 21
4144891.049
 31
2256.861083984375
  0
LINE
  5
FB
330
1F
100
AcDbEntity
  8
2254
370
     0
100
AcDbLine
 10
644392.4971088564
 20
4144913.057
 30
2256.989990234375
 11
644392.4341088565
 21
4144917.264
 31
2257.06201171875
  0
LINE
  5
FC
330
1F
100
AcDbEntity
  8
2254
370
     0
100
AcDbLine
 10
644392.4791088565
 20
4144912.081
 30
2257.033935546875
 11
644392.4971088564
 21
4144913.057
 31
2256.989990234375
  0
LINE
  5
FD
330
1F
100
AcDbEntity
  8
2254
370
     0
100
AcDbLine
 10
644393.6481088565
 20
4144923.988
 30
2257.10888671875
 11
644393.7141088565
 21
4144934.287
 31
2257.740966796875
  0
LINE
  5
FE
330
1F
100
AcDbEntity
  8
2254
370
     0
100
AcDbLine
 10
644392.4341088565
 20
4144917.264
 30
2257.06201171875
 11
644393.6481088565
 21
4144923.988
 31
2257.10888671875
  0
LINE
  5
FF
330
1F
100
AcDbEntity
  8
2254
370
     0
100
AcDbLine
 10
644399.8771088565
 20
4144907.22
 30
2257.860107421875
 11
644398.2621088565
 21
4144905.954
 31
2257.220947265625
  0
LINE
  5
100
330
1F
100
AcDbEntity
  8
2254
370
     0
100
AcDbLine
 10
644401.5991088565
 20
4144907.012
 30
2258.080078125
 11
644399.8771088565
 21
4144907.22
 31
2257.860107421875
  0
LINE
  5
101
330
1F
100
AcDbEntity
  8
2254
370
     0
100
AcDbLine
 10
644395.7781088565
 20
4144908.227
 30
2257.1650390625
 11
644392.4791088565
 21
4144912.081
 31
2257.033935546875
  0
LINE
  5
102
330
1F
100
AcDbEntity
  8
2254
370
     0
100
AcDbLine
 10
644398.2621088565
 20
4144905.954
 30
2257.220947265625
 11
644395.7781088565
 21
4144908.227
 31
2257.1650390625
  0
LINE
  5
103
330
1F
100
AcDbEntity
  8
2254
370
     0
100
AcDbLine
 10
644416.0921088564
 20
4144834.793
 30
2257.172119140625
 11
644413.7401088565
 21
4144843.314
 31
2257.489990234375
  0
LINE
  5
104
330
1F
100
AcDbEntity
  8
2254
370
     0
100
AcDbLine
 10
644419.0941088565
 20
4144821.667
 30
2256.830078125
 11
644416.0921088564
 21
4144834.793
 31
2257.172119140625
  0
LINE
  5
105
330
1F
100
AcDbEntity
  8
2254
370
     0
100
AcDbLine
 10
644411.4241088565
 20
4144849.788
 30
2257.375
 11
644410.2051088564
 21
4144854.333
 31
2257.256103515625
  0
LINE
  5
106
330
1F
100
AcDbEntity
  8
2254
370
     0
100
AcDbLine
 10
644413.7401088565
 20
4144843.314
 30
2257.489990234375
 11
644411.4241088565
 21
4144849.788
 31
2257.375
  0
LINE
  5
107
330
1F
100
AcDbEntity
  8
2254
370
     0
100
AcDbLine
 10
644420.7141088565
 20
4144812.687
 30
0.0
 11
644419.0941088565
 21
4144821.667
 31
2256.830078125
  0
LINE
  5
108
330
1F
100
AcDbEntity
  8
2254
370
     0
100
AcDbLine
 10
644423.7526203692
 20
4144799.378
 30
2256.196044921875
 11
644420.7141088565
 21
4144812.687
 31
0.0
  0
LINE
  5
109
330
1F
100
AcDbEntity
  8
2254
370
     0
100
AcDbLine
 10
644393.7141088565
 20
4144934.287
 30
2257.740966796875
 11
644394.5571088565
 21
4144949.818
 31
2258.486083984375
  0
LINE
  5
10A
330
1F
100
AcDbEntity
  8
2254
370
     0
100
AcDbLine
 10
644383.3621088564
 20
4144913.858
 30
2257.98193359375
 11
644386.1261088565
 21
4144917.959
 31
2257.29296875
  0
LINE
  5
10B
330
1F
100
AcDbEntity
  8
2254
370
     0
100
AcDbLine
 10
644385.8341088565
 20
4144910.575
 30
2257.048095703125
 11
644383.3621088564
 21
4144913.858
 31
2257.98193359375
  0
LINE
  5
10C
330
1F
100
AcDbEntity
  8
2254
370
     0
100
AcDbLine
 10
644390.1801088565
 20
4144922.064
 30
2257.094970703125
 11
644390.6641088565
 21
4144930.815
 31
2257.3740234375
  0
LINE
  5
10D
330
1F
100
AcDbEntity
  8
2254
370
     0
100
AcDbLine
 10
644386.1261088565
 20
4144917.959
 30
2257.29296875
 11
644390.1801088565
 21
4144922.064
 31
2257.094970703125
  0
LINE
  5
10E
330
1F
100
AcDbEntity
  8
2254
370
     0
100
AcDbLine
 10
644395.0131088565
 20
4144903.956
 30
2256.99609375
 11
644390.1401088565
 21
4144909.494
 31
2257.052978515625
  0
LINE
  5
10F
330
1F
100
AcDbEntity
  8
2254
370
     0
100
AcDbLine
 10
644396.2891088565
 20
4144902.386
 30
2256.8740234375
 11
644395.0131088565
 21
4144903.956
 31
2256.99609375
  0
LINE
  5
110
330
1F
100
AcDbEntity
  8
2254
370
     0
100
AcDbLine
 10
644388.5181088565
 20
4144909.09
 30
2256.7958984375
 11
644385.8341088565
 21
4144910.575
 31
2257.048095703125
  0
LINE
  5
111
330
1F
100
AcDbEntity
  8
2254
370
     0
100
AcDbLine
 10
644390.1401088565
 20
4144909.494
 30
2257.052978515625
 11
644388.5181088565
 21
4144909.09
 31
2256.7958984375
  0
LINE
  5
112
330
1F
100
AcDbEntity
  8
2254
370
     0
100
AcDbLine
 10
644392.0921088564
 20
4144976.726
 30
2261.31494140625
 11
644391.9871088564
 21
4144981.49
 31
2261.177978515625
  0
LINE
  5
113
330
1F
100
AcDbEntity
  8
2254
370
     0
100
AcDbLine
 10
644392.2611088565
 20
4144970.594
 30
2260.655029296875
 11
644392.0921088564
 21
4144976.726
 31
2261.31494140625
  0
LINE
  5
114
330
1F
100
AcDbEntity
  8
2254
370
     0
100
AcDbLine
 10
644395.3551088565
 20
4144981.896
 30
2261.882080078125
 11
644396.9861088565
 21
4144982.315
 31
2261.87890625
  0
LINE
  5
115
330
1F
100
AcDbEntity
  8
2254
370
     0
100
AcDbLine
 10
644391.9871088564
 20
4144981.49
 30
2261.177978515625
 11
644395.3551088565
 21
4144981.896
 31
2261.882080078125
  0
LINE
  5
116
330
1F
100
AcDbEntity
  8
2254
370
     0
100
AcDbLine
 10
644391.1371088565
 20
4144948.418
 30
2258.3359375
 11
644391.5451088565
 21
4144958.092
 31
2259.4189453125
  0
LINE
  5
117
330
1F
100
AcDbEntity
  8
2254
370
     0
100
AcDbLine
 10
644390.6641088565
 20
4144930.815
 30
2257.3740234375
 11
644391.1371088565
 21
4144948.418
 31
2258.3359375
  0
LINE
  5
118
330
1F
100
AcDbEntity
  8
2254
370
     0
100
AcDbLine
 10
644391.6561088564
 20
4144965.245
 30
2260.153076171875
 11
644392.2611088565
 21
4144970.594
 31
2260.655029296875
  0
LINE
  5
119
330
1F
100
AcDbEntity
  8
2254
370
     0
100
AcDbLine
 10
644391.5451088565
 20
4144958.092
 30
2259.4189453125
 11
644391.6561088564
 21
4144965.245
 31
2260.153076171875
  0
LINE
  5
11A
330
1F
100
AcDbEntity
  8
2254
370
     0
100
AcDbLine
 10
644417.8651088565
 20
4144811.815
 30
0.0
 11
644415.6001088565
 21
4144822.52
 31
0.0
  0
LINE
  5
11B
330
1F
100
AcDbEntity
  8
2254
370
     0
100
AcDbLine
 10
644419.0066203692
 20
4144806.764
 30
2256.14697265625
 11
644417.8651088565
 21
4144811.815
 31
0.0
  0
LINE
  5
11C
330
1F
100
AcDbEntity
  8
2254
370
     0
100
AcDbLine
 10
644415.0621088565
 20
4144823.963
 30
2256.958984375
 11
644413.0631088564
 21
4144833.497
 31
2257.111083984375
  0
LINE
  5
11D
330
1F
100
AcDbEntity
  8
2254
370
     0
100
AcDbLine
 10
644415.6001088565
 20
4144822.52
 30
0.0
 11
644415.0621088565
 21
4144823.963
 31
2256.958984375
  0
LINE
  5
11E
330
1F
100
AcDbEntity
  8
2254
370
     0
100
AcDbLine
 10
644394.9331088564
 20
4144957.896
 30
2259.448974609375
 11
644395.2111088565
 21
4144964.33
 31
2260.12890625
  0
LINE
  5
11F
330
1F
100
AcDbEntity
  8
2254
370
     0
100
AcDbLine
 10
644394.5571088565
 20
4144949.818
 30
2258.486083984375
 11
644394.9331088564
 21
4144957.896
 31
2259.448974609375
  0
LINE
  5
120
330
1F
100
AcDbEntity
  8
2254
370
     0
100
AcDbLine
 10
644395.9891088564
 20
4144969.743
 30
2260.722900390625
 11
644396.0761088565
 21
4144974.489
 31
2260.8779296875
  0
LINE
  5
121
330
1F
100
AcDbEntity
  8
2254
370
     0
100
AcDbLine
 10
644395.2111088565
 20
4144964.33
 30
2260.12890625
 11
644395.9891088564
 21
4144969.743
 31
2260.722900390625
  0
LINE
  5
122
330
1F
100
AcDbEntity
  8
2254
370
     0
100
AcDbLine
 10
644402.0261088564
 20
4144881.01
 30
2256.7939453125
 11
644400.6391088564
 21
4144888.917
 31
2256.929931640625
  0
LINE
  5
123
330
1F
100
AcDbEntity
  8
2254
370
     0
100
AcDbLine
 10
644404.9951088565
 20
4144867.104
 30
2256.93798828125
 11
644402.0261088564
 21
4144881.01
 31
2256.7939453125
  0
LINE
  5
124
330
1F
100
AcDbEntity
  8
2254
370
     0
100
AcDbLine
 10
644398.7831088565
 20
4144898.936
 30
2256.85693359375
 11
644396.2891088565
 21
4144902.386
 31
2256.8740234375
  0
LINE
  5
125
330
1F
100
AcDbEntity
  8
2254
370
     0
100
AcDbLine
 10
644400.6391088564
 20
4144888.917
 30
2256.929931640625
 11
644398.7831088565
 21
4144898.936
 31
2256.85693359375
  0
LINE
  5
126
330
1F
100
AcDbEntity
  8
2254
370
     0
100
AcDbLine
 10
644410.6371088565
 20
4144842.278
 30
2257.489013671875
 11
644408.7781088565
 21
4144847.842
 31
2257.48193359375
  0
LINE
  5
127
330
1F
100
AcDbEntity
  8
2254
370
     0
100
AcDbLine
 10
644413.0631088564
 20
4144833.497
 30
2257.111083984375
 11
644410.6371088565
 21
4144842.278
 31
2257.489013671875
  0
LINE
  5
128
330
1F
100
AcDbEntity
  8
2254
370
     0
100
AcDbLine
 10
644407.0361088564
 20
4144853.917
 30
2257.22998046875
 11
644404.9951088565
 21
4144867.104
 31
2256.93798828125
  0
LINE
  5
129
330
1F
100
AcDbEntity
  8
2254
370
     0
100
AcDbLine
 10
644408.7781088565
 20
4144847.842
 30
2257.48193359375
 11
644407.0361088564
 21
4144853.917
 31
2257.22998046875
  0
LINE
  5
12A
330
1F
100
AcDbEntity
  8
2254
370
     0
100
AcDbLine
 10
644408.4236203692
 20
4144723.805
 30
2251.946044921875
 11
644416.0986203692
 21
4144725.445
 31
2251.928955078125
  0
LINE
  5
12B
330
1F
100
AcDbEntity
  8
2254
370
     0
100
AcDbLine
 10
644398.6496203692
 20
4144722.758
 30
2251.595947265625
 11
644408.4236203692
 21
4144723.805
 31
2251.946044921875
  0
LINE
  5
12C
330
1F
100
AcDbEntity
  8
2254
370
     0
100
AcDbLine
 10
644421.5726203691
 20
4144726.502
 30
2251.89697265625
 11
644426.5686203692
 21
4144726.196
 31
2251.751953125
  0
LINE
  5
12D
330
1F
100
AcDbEntity
  8
2254
370
     0
100
AcDbLine
 10
644416.0986203692
 20
4144725.445
 30
2251.928955078125
 11
644421.5726203691
 21
4144726.502
 31
2251.89697265625
  0
LINE
  5
12E
330
1F
100
AcDbEntity
  8
2254
370
     0
100
AcDbLine
 10
644389.9446203691
 20
4144721.508
 30
2251.7890625
 11
644398.6496203692
 21
4144722.758
 31
2251.595947265625
  0
LINE
  5
12F
330
1F
100
AcDbEntity
  8
2254
370
     0
100
AcDbLine
 10
644417.3216203692
 20
4144729.931
 30
2251.8330078125
 11
644410.1636203692
 21
4144728.35
 31
2251.9541015625
  0
LINE
  5
130
330
1F
100
AcDbEntity
  8
2254
370
     0
100
AcDbLine
 10
644422.6826203691
 20
4144730.572
 30
2251.91796875
 11
644417.3216203692
 21
4144729.931
 31
2251.8330078125
  0
LINE
  5
131
330
1F
100
AcDbEntity
  8
2254
370
     0
100
AcDbLine
 10
644405.9186203692
 20
4144727.228
 30
2251.889892578125
 11
644395.9626203692
 21
4144725.958
 31
2251.910888671875
  0
LINE
  5
132
330
1F
100
AcDbEntity
  8
2254
370
     0
100
AcDbLine
 10
644410.1636203692
 20
4144728.35
 30
2251.9541015625
 11
644405.9186203692
 21
4144727.228
 31
2251.889892578125
  0
LINE
  5
133
330
1F
100
AcDbEntity
  8
2254
370
     0
100
AcDbLine
 10
644456.3186203692
 20
4144730.596
 30
2248.68408203125
 11
644460.6406203691
 21
4144730.76
 31
2247.927001953125
  0
LINE
  5
134
330
1F
100
AcDbEntity
  8
2254
370
     0
100
AcDbLine
 10
644451.6026203692
 20
4144727.936
 30
2249.1240234375
 11
644456.3186203692
 21
4144730.596
 31
2248.68408203125
  0
LINE
  5
135
330
1F
100
AcDbEntity
  8
2254
370
     0
100
AcDbLine
 10
644464.1456203691
 20
4144730.868
 30
2247.340087890625
 11
644471.3826203692
 21
4144730.224
 31
2247.3291015625
  0
LINE
  5
136
330
1F
100
AcDbEntity
  8
2254
370
     0
100
AcDbLine
 10
644460.6406203691
 20
4144730.76
 30
2247.927001953125
 11
644464.1456203691
 21
4144730.868
 31
2247.340087890625
  0
LINE
  5
137
330
1F
100
AcDbEntity
  8
2254
370
     0
100
AcDbLine
 10
644449.0926203692
 20
4144726.164
 30
2249.43798828125
 11
644451.6026203692
 21
4144727.936
 31
2249.1240234375
  0
LINE
  5
138
330
1F
100
AcDbEntity
  8
2254
370
     0
100
AcDbLine
 10
644430.6966203692
 20
4144726.305
 30
2251.302001953125
 11
644437.1296203692
 21
4144724.726
 31
2250.674072265625
  0
LINE
  5
139
330
1F
100
AcDbEntity
  8
2254
370
     0
100
AcDbLine
 10
644426.5686203692
 20
4144726.196
 30
2251.751953125
 11
644430.6966203692
 21
4144726.305
 31
2251.302001953125
  0
LINE
  5
13A
330
1F
100
AcDbEntity
  8
2254
370
     0
100
AcDbLine
 10
644442.7296203692
 20
4144724.382
 30
2250.072998046875
 11
644449.0926203692
 21
4144726.164
 31
2249.43798828125
  0
LINE
  5
13B
330
1F
100
AcDbEntity
  8
2254
370
     0
100
AcDbLine
 10
644437.1296203692
 20
4144724.726
 30
2250.674072265625
 11
644442.7296203692
 21
4144724.382
 31
2250.072998046875
  0
LINE
  5
13C
330
1F
100
AcDbEntity
  8
2254
370
     0
100
AcDbLine
 10
644421.5596203692
 20
4144794.886
 30
2255.827880859375
 11
644425.2676203692
 21
4144779.681
 31
2255.955078125
  0
LINE
  5
13D
330
1F
100
AcDbEntity
  8
2254
370
     0
100
AcDbLine
 10
644419.0066203692
 20
4144806.764
 30
2256.14697265625
 11
644421.5596203692
 21
4144794.886
 31
2255.827880859375
  0
LINE
  5
13E
330
1F
100
AcDbEntity
  8
2254
370
     0
100
AcDbLine
 10
644426.9436203692
 20
4144772.062
 30
2255.837890625
 11
644427.4336203692
 21
4144766.845
 31
2255.75390625
  0
LINE
  5
13F
330
1F
100
AcDbEntity
  8
2254
370
     0
100
AcDbLine
 10
644425.2676203692
 20
4144779.681
 30
2255.955078125
 11
644426.9436203692
 21
4144772.062
 31
2255.837890625
  0
LINE
  5
140
330
1F
100
AcDbEntity
  8
2254
370
     0
100
AcDbLine
 10
644426.8096203692
 20
4144785.964
 30
2255.949951171875
 11
644423.7526203692
 21
4144799.378
 31
2256.196044921875
  0
LINE
  5
141
330
1F
100
AcDbEntity
  8
2254
370
     0
100
AcDbLine
 10
644429.6916203692
 20
4144775.136
 30
2255.947998046875
 11
644426.8096203692
 21
4144785.964
 31
2255.949951171875
  0
LINE
  5
142
330
1F
100
AcDbEntity
  8
2254
370
     0
100
AcDbLine
 10
644431.0816203692
 20
4144768.586
 30
2255.885009765625
 11
644429.6916203692
 21
4144775.136
 31
2255.947998046875
  0
LINE
  5
143
330
1F
100
AcDbEntity
  8
2254
370
     0
100
AcDbLine
 10
644422.0666203692
 20
4144736.049
 30
2252.7509765625
 11
644424.5626203691
 21
4144732.294
 31
2252.14697265625
  0
LINE
  5
144
330
1F
100
AcDbEntity
  8
2254
370
     0
100
AcDbLine
 10
644420.6176203692
 20
4144740.5
 30
2253.263916015625
 11
644422.0666203692
 21
4144736.049
 31
2252.7509765625
  0
LINE
  5
145
330
1F
100
AcDbEntity
  8
2254
370
     0
100
AcDbLine
 10
644424.7456203692
 20
4144731.699
 30
2251.97900390625
 11
644422.6826203691
 21
4144730.572
 31
2251.91796875
  0
LINE
  5
146
330
1F
100
AcDbEntity
  8
2254
370
     0
100
AcDbLine
 10
644424.5626203691
 20
4144732.294
 30
2252.14697265625
 11
644424.7456203692
 21
4144731.699
 31
2251.97900390625
  0
LINE
  5
147
330
1F
100
AcDbEntity
  8
2254
370
     0
100
AcDbLine
 10
644420.7136203692
 20
4144746.572
 30
2253.885009765625
 11
644420.6176203692
 21
4144740.5
 31
2253.263916015625
  0
LINE
  5
148
330
1F
100
AcDbEntity
  8
2254
370
     0
100
AcDbLine
 10
644427.3426203692
 20
4144763.504
 30
2255.43603515625
 11
644426.0976203692
 21
4144760.001
 31
2255.1240234375
  0
LINE
  5
149
330
1F
100
AcDbEntity
  8
2254
370
     0
100
AcDbLine
 10
644427.4336203692
 20
4144766.845
 30
2255.75390625
 11
644427.3426203692
 21
4144763.504
 31
2255.43603515625
  0
LINE
  5
14A
330
1F
100
AcDbEntity
  8
2254
370
     0
100
AcDbLine
 10
644423.4226203691
 20
4144753.992
 30
2254.574951171875
 11
644420.7136203692
 21
4144746.572
 31
2253.885009765625
  0
LINE
  5
14B
330
1F
100
AcDbEntity
  8
2254
370
     0
100
AcDbLine
 10
644426.0976203692
 20
4144760.001
 30
2255.1240234375
 11
644423.4226203691
 21
4144753.992
 31
2254.574951171875
  0
LINE
  5
14C
330
1F
100
AcDbEntity
  8
2254
370
     0
100
AcDbLine
 10
644444.0616203692
 20
4144728.408
 30
2249.883056640625
 11
644437.9586203692
 21
4144727.892
 31
2250.68408203125
  0
LINE
  5
14D
330
1F
100
AcDbEntity
  8
2254
370
     0
100
AcDbLine
 10
644450.7576203692
 20
4144731.448
 30
2249.053955078125
 11
644444.0616203692
 21
4144728.408
 31
2249.883056640625
  0
LINE
  5
14E
330
1F
100
AcDbEntity
  8
2254
370
     0
100
AcDbLine
 10
644434.1936203692
 20
4144728.916
 30
2250.904052734375
 11
644430.7986203692
 21
4144730.49
 31
2251.362060546875
  0
LINE
  5
14F
330
1F
100
AcDbEntity
  8
2254
370
     0
100
AcDbLine
 10
644437.9586203692
 20
4144727.892
 30
2250.68408203125
 11
644434.1936203692
 21
4144728.916
 31
2250.904052734375
  0
LINE
  5
150
330
1F
100
AcDbEntity
  8
2254
370
     0
100
AcDbLine
 10
644452.4661835427
 20
4144732.459284006
 30
2249.0009765625
 11
644450.7576203692
 21
4144731.448
 31
2249.053955078125
  0
LINE
  5
151
330
1F
100
AcDbEntity
  8
2254
370
     0
100
AcDbLine
 10
644473.9296203692
 20
4144734.941
 30
2247.0849609375
 11
644463.9426203691
 21
4144734.482
 31
2247.589111328125
  0
LINE
  5
152
330
1F
100
AcDbEntity
  8
2254
370
     0
100
AcDbLine
 10
644457.1376203692
 20
4144734.892
 30
2249.2109375
 11
644452.4661835427
 21
4144732.459284006
 31
2249.0009765625
  0
LINE
  5
153
330
1F
100
AcDbEntity
  8
2254
370
     0
100
AcDbLine
 10
644463.9426203691
 20
4144734.482
 30
2247.589111328125
 11
644457.1376203692
 21
4144734.892
 31
2248.535888671875
  0
LINE
  5
154
330
1F
100
AcDbEntity
  8
2254
370
     0
100
AcDbLine
 10
644425.6116203691
 20
4144749.811
 30
2254.135009765625
 11
644428.0276203692
 21
4144755.471
 31
2254.906005859375
  0
LINE
  5
155
330
1F
100
AcDbEntity
  8
2254
370
     0
100
AcDbLine
 10
644424.5756203692
 20
4144747.484
 30
2253.781005859375
 11
644425.6116203691
 21
4144749.811
 31
2254.135009765625
  0
LINE
  5
156
330
1F
100
AcDbEntity
  8
2254
370
     0
100
AcDbLine
 10
644430.5836203692
 20
4144759.501
 30
2255.2109375
 11
644433.3696203692
 21
4144762.768
 31
2255.7119140625
  0
LINE
  5
157
330
1F
100
AcDbEntity
  8
2254
370
     0
100
AcDbLine
 10
644428.0276203692
 20
4144755.471
 30
2254.906005859375
 11
644430.5836203692
 21
4144759.501
 31
2255.2109375
  0
LINE
  5
158
330
1F
100
AcDbEntity
  8
2254
370
     0
100
AcDbLine
 10
644424.6256203692
 20
4144746.546
 30
2253.675048828125
 11
644424.5756203692
 21
4144747.484
 31
2253.781005859375
  0
LINE
  5
159
330
1F
100
AcDbEntity
  8
2254
370
     0
100
AcDbLine
 10
644427.3366203692
 20
4144733.96
 30
2252.1640625
 11
644426.0126203692
 21
4144736.163
 31
2252.54296875
  0
LINE
  5
15A
330
1F
100
AcDbEntity
  8
2254
370
     0
100
AcDbLine
 10
644430.7986203692
 20
4144730.49
 30
2251.362060546875
 11
644427.3366203692
 21
4144733.96
 31
2252.1640625
  0
LINE
  5
15B
330
1F
100
AcDbEntity
  8
2254
370
     0
100
AcDbLine
 10
644424.8166203692
 20
4144740.317
 30
2252.988037109375
 11
644424.6256203692
 21
4144746.546
 31
2253.675048828125
  0
LINE
  5
15C
330
1F
100
AcDbEntity
  8
2254
370
     0
100
AcDbLine
 10
644426.0126203692
 20
4144736.163
 30
2252.54296875
 11
644424.8166203692
 21
4144740.317
 31
2252.988037109375
  0
LINE
  5
15D
330
1F
100
AcDbEntity
  8
2254
370
     0
100
AcDbLine
 10
644471.3826203692
 20
4144730.224
 30
2246.451904296875
 11
644474.8816203692
 21
4144731.611
 31
2245.84912109375
  0
LINE
  5
15E
330
1F
100
AcDbEntity
  8
2254
370
     0
100
AcDbLine
 10
644219.1508098084
 20
4144691.690378577
 30
2253.54296875
 11
644220.2611088565
 21
4144693.873
 31
2252.989990234375
  0
LINE
  5
15F
330
1F
100
AcDbEntity
  8
2254
370
     0
100
AcDbLine
 10
644215.7286534186
 20
4144689.714556759
 30
2253.62890625
 11
644215.7571088565
 21
4144690.782
 31
2253.389892578125
  0
LINE
  5
160
330
1F
100
AcDbEntity
  8
2254
370
     0
100
AcDbLine
 10
644213.9645611781
 20
4144641.494934107
 30
2256.943115234375
 11
644213.95838054
 21
4144640.610894386
 31
2257.0380859375
  0
LINE
  5
161
330
1F
100
AcDbEntity
  8
2272
370
     0
100
AcDbLine
 10
644487.8217358304
 20
4144873.021888027
 30
2271.239990234375
 11
644487.7227663208
 21
4144874.449
 31
2271.3759765625
  0
LINE
  5
162
330
1F
100
AcDbEntity
  8
2272
370
     0
100
AcDbLine
 10
644487.7227663208
 20
4144874.449
 30
2271.3759765625
 11
644486.495292954
 21
4144877.41440099
 31
2271.7490234375
  0
LINE
  5
163
330
1F
100
AcDbEntity
  8
2272
370
     0
100
AcDbLine
 10
644486.495292954
 20
4144877.41440099
 30
2271.7490234375
 11
644486.3581747086
 21
4144881.724653169
 31
2272.281005859375
  0
LINE
  5
164
330
1F
100
AcDbEntity
  8
2254
370
     0
100
AcDbLine
 10
644318.6271088565
 20
4144715.221
 30
2251.656005859375
 11
644308.3021088565
 21
4144713.131
 31
2251.469970703125
  0
LINE
  5
165
330
1F
100
AcDbEntity
  8
2254
370
     0
100
AcDbLine
 10
644333.2531088565
 20
4144712.413
 30
2251.802001953125
 11
644325.1024657543
 21
4144711.166063486
 31
2251.27197265625
  0
LINE
  5
166
330
1F
100
AcDbEntity
  8
2254
370
     0
100
AcDbLine
 10
644223.0411088564
 20
4144702.041
 30
2252.943115234375
 11
644229.2436985023
 21
4144704.914205025
 31
2252.721923828125
  0
LINE
  5
167
330
1F
100
AcDbEntity
  8
2254
370
     0
100
AcDbLine
 10
644213.586756545
 20
4144627.406621106
 30
2256.659912109375
 11
644216.5974807915
 21
4144627.394861696
 31
2256.54296875
  0
LINE
  5
168
330
1F
100
AcDbEntity
  8
2272
370
     0
100
AcDbLine
 10
644483.3257499355
 20
4144889.964
 30
2272.404052734375
 11
644481.5667499355
 21
4144886.087
 31
2272.304931640625
  0
LINE
  5
169
330
1F
100
AcDbEntity
  8
2272
370
     0
100
AcDbLine
 10
644484.2997499355
 20
4144895.512
 30
2271.926025390625
 11
644487.7506701419
 21
4144894.201075407
 31
2271.991943359375
  0
LINE
  5
16A
330
1F
100
AcDbEntity
  8
2254
370
     0
100
AcDbLine
 10
644397.7041502498
 20
4145021.052847857
 30
2265.556884765625
 11
644400.423347315
 21
4145021.08908488
 31
2265.68994140625
  0
TEXT
  5
28D
330
1F
100
AcDbEntity
  8
TEXT_BLUE
370
     0
100
AcDbText
 10
644429.7940212744
 20
4144743.712935459
 30
0.0
 40
2.0
  1
2254/2272
100
AcDbText
  0
POINT
  5
2F7
330
1F
100
AcDbEntity
  8
INIT_COORD
100
AcDbPoint
 10
644399.0637487825
 20
4145021.070966369
 30
2265.623413085938
  0
ENDSEC
  0
SECTION
  2
OBJECTS
  0
DICTIONARY
  5
C
330
0
100
AcDbDictionary
281
     1
  3
ACAD_DETAILVIEWSTYLE
350
2E6
  3
ACAD_GROUP
350
D
  3
ACAD_IMAGE_VARS
350
2E0
  3
ACAD_LAYOUT
350
1A
  3
ACAD_MATERIAL
350
3B
  3
ACAD_MLEADERSTYLE
350
2AF
  3
ACAD_MLINESTYLE
350
17
  3
ACAD_PLOTSETTINGS
350
19
  3
ACAD_PLOTSTYLENAME
350
E
  3
ACAD_SCALELIST
350
2B0
  3
ACAD_SECTIONVIEWSTYLE
350
2E7
  3
ACAD_TABLESTYLE
350
2AE
  3
ACAD_VISUALSTYLE
350
2A
  3
ACDB_RECOMPOSE_DATA
350
37D
  3
AcDbVariableDictionary
350
2E1
  3
APPDATA
350
2DE
  3
DimOffsetDictionary
350
325
  0
SUN
  5
2DF
330
29
100
AcDbSun
 90
        1
290
     0
 63
     7
421
 16777215
 40
1.0
291
     1
 91
  2455826
 92
 54000000
292
     0
 70
     2
 71
   256
280
     1
  0
DICTIONARY
  5
2E8
330
2
100
AcDbDictionary
280
     1
281
     1
  3
ACAD_LAYERSTATES
360
2E9
  3
ACLYDICTIONARY
360
300
  0
DICTIONARY
  5
2E6
102
{ACAD_REACTORS
330
C
102
}
330
C
100
AcDbDictionary
281
     1
  0
DICTIONARY
  5
D
102
{ACAD_REACTORS
330
C
102
}
330
C
100
AcDbDictionary
281
     1
  0
RASTERVARIABLES
  5
2E0
102
{ACAD_REACTORS
330
C
102
}
330
C
100
AcDbRasterVariables
 90
        0
 70
     1
 71
     1
 72
     1
  0
DICTIONARY
  5
1A
102
{ACAD_REACTORS
330
C
102
}
330
C
100
AcDbDictionary
281
     1
  3
Layout1
350
1E
  3
Layout2
350
26
  3
Model
350
22
  0
DICTIONARY
  5
3B
102
{ACAD_REACTORS
330
C
102
}
330
C
100
AcDbDictionary
281
     1
  3
ByBlock
350
3D
  3
ByLayer
350
3C
  3
Global
350
3E
  0
DICTIONARY
  5
2AF
102
{ACAD_REACTORS
330
C
102
}
330
C
100
AcDbDictionary
281
     1
  3
Standard
350
2DD
  0
DICTIONARY
  5
17
102
{ACAD_REACTORS
330
C
102
}
330
C
100
AcDbDictionary
281
     1
  3
Standard
350
18
  0
DICTIONARY
  5
19
102
{ACAD_REACTORS
330
C
102
}
330
C
100
AcDbDictionary
281
     1
  0
ACDBDICTIONARYWDFLT
  5
E
102
{ACAD_REACTORS
330
C
102
}
330
C
100
AcDbDictionary
281
     1
  3
Normal
350
F
100
AcDbDictionaryWithDefault
340
F
  0
DICTIONARY
  5
2B0
102
{ACAD_REACTORS
330
C
102
}
330
C
100
AcDbDictionary
281
     1
  3
A0
350
2B1
  3
A1
350
2B2
  3
A2
350
2B3
  3
A3
350
2B4
  3
A4
350
2B5
  3
A5
350
2B6
  3
A6
350
2B7
  3
A7
350
2B8
  3
A8
350
2B9
  3
A9
350
2BA
  3
B0
350
2BB
  3
B1
350
2BC
  3
B2
350
2BD
  3
B3
350
2BE
  3
B4
350
2BF
  3
B5
350
2C0
  3
B6
350
2C1
  3
B7
350
2C2
  3
B8
350
2C3
  3
B9
350
2C4
  3
C0
350
2C5
  3
C1
350
2C6
  3
C2
350
2C7
  3
C3
350
2C8
  3
C4
350
2C9
  3
C5
350
2CA
  3
C6
350
2CB
  3
C7
350
2CC
  3
C8
350
2CD
  3
C9
350
2CE
  3
D0
350
2CF
  3
D1
350
2D0
  3
D2
350
2D1
  0
DICTIONARY
  5
2E7
102
{ACAD_REACTORS
330
C
102
}
330
C
100
AcDbDictionary
281
     1
  0
DICTIONARY
  5
2AE
102
{ACAD_REACTORS
330
C
102
}
330
C
100
AcDbDictionary
281
     1
  3
Standard
350
2DC
  0
DICTIONARY
  5
2A
102
{ACAD_REACTORS
330
C
102
}
330
C
100
AcDbDictionary
281
     1
  3
2dWireframe
350
2F
  3
3D Hidden
350
31
  3
3dWireframe
350
30
  3
Basic
350
32
  3
Brighten
350
36
  3
ColorChange
350
3A
  3
Conceptual
350
34
  3
Dim
350
35
  3
EdgeColorOff
350
2D6
  3
Facepattern
350
39
  3
Flat
350
2B
  3
FlatWithEdges
350
2C
  3
Gouraud
350
2D
  3
GouraudWithEdges
350
2E
  3
Hidden
350
2D3
  3
JitterOff
350
2D4
  3
Linepattern
350
38
  3
OverhangOff
350
2D5
  3
Realistic
350
33
  3
Shaded
350
2DB
  3
Shaded with edges
350
2DA
  3
Shades of Gray
350
2D7
  3
Sketchy
350
2D8
  3
Thicken
350
37
  3
Wireframe
350
2D2
  3
X-Ray
350
2D9
  0
XRECORD
  5
37D
102
{ACAD_REACTORS
330
C
102
}
330
C
100
AcDbXrecord
280
     1
 90
        1
330
2DC
  0
DICTIONARY
  5
2E1
102
{ACAD_REACTORS
330
C
102
}
330
C
100
AcDbDictionary
281
     1
  3
CANNOSCALE
350
2E2
  3
CMLEADERSTYLE
350
2E4
  3
CTABLESTYLE
350
2E3
  3
HPTRANSPARENCY
350
324
  3
XCLIPFRAME
350
2E5
  0
DICTIONARY
  5
2DE
102
{ACAD_REACTORS
330
C
102
}
330
C
100
AcDbDictionary
281
     1
  0
DICTIONARY
  5
325
102
{ACAD_REACTORS
330
C
102
}
330
C
100
AcDbDictionary
281
     1
  3
DIMRAILANGLE
350
351
  3
DIMRAILFIRSTOFFSET
350
34F
  3
DIMRAILOFFSET
350
350
  3
DIMRAILSENABLED
350
352
  0
DICTIONARY
  5
2E9
102
{ACAD_REACTORS
330
2E8
102
}
330
2E8
100
AcDbDictionary
281
     1
  0
DICTIONARY
  5
300
102
{ACAD_REACTORS
330
2E8
102
}
330
2E8
100
AcDbDictionary
281
     1
1001
ACAD
1000
<All
  0
LAYOUT
  5
1E
102
{ACAD_REACTORS
330
1A
102
}
330
1A
100
AcDbPlotSettings
  1

  2
none_device
  4

  6

 40
0.0
 41
0.0
 42
0.0
 43
0.0
 44
0.0
 45
0.0
 46
0.0
 47
0.0
 48
0.0
 49
0.0
140
0.0
141
0.0
142
1.0
143
1.0
 70
   688
 72
     0
 73
     0
 74
     5
  7

 75
    16
 76
     0
 77
     2
 78
   300
147
1.0
148
0.0
149
0.0
100
AcDbLayout
  1
Layout1
 70
     1
 71
     1
 10
0.0
 20
0.0
 11
420.0
 21
297.0
 12
0.0
 22
0.0
 32
0.0
 14
1.000000000000000E+20
 24
1.000000000000000E+20
 34
1.000000000000000E+20
 15
-1.000000000000000E+20
 25
-1.000000000000000E+20
 35
-1.000000000000000E+20
146
0.0
 13
0.0
 23
0.0
 33
0.0
 16
1.0
 26
0.0
 36
0.0
 17
0.0
 27
1.0
 37
0.0
 76
     0
330
1B
  0
LAYOUT
  5
26
102
{ACAD_REACTORS
330
1A
102
}
330
1A
100
AcDbPlotSettings
  1

  2
none_device
  4

  6

 40
0.0
 41
0.0
 42
0.0
 43
0.0
 44
0.0
 45
0.0
 46
0.0
 47
0.0
 48
0.0
 49
0.0
140
0.0
141
0.0
142
1.0
143
1.0
 70
   688
 72
     0
 73
     0
 74
     5
  7

 75
    16
 76
     0
 77
     2
 78
   300
147
1.0
148
0.0
149
0.0
100
AcDbLayout
  1
Layout2
 70
     1
 71
     2
 10
0.0
 20
0.0
 11
0.0
 21
0.0
 12
0.0
 22
0.0
 32
0.0
 14
0.0
 24
0.0
 34
0.0
 15
0.0
 25
0.0
 35
0.0
146
0.0
 13
0.0
 23
0.0
 33
0.0
 16
1.0
 26
0.0
 36
0.0
 17
0.0
 27
1.0
 37
0.0
 76
     0
330
23
  0
LAYOUT
  5
22
102
{ACAD_REACTORS
330
1A
102
}
330
1A
100
AcDbPlotSettings
  1

  2
none_device
  4

  6

 40
0.0
 41
0.0
 42
0.0
 43
0.0
 44
0.0
 45
0.0
 46
0.0
 47
0.0
 48
0.0
 49
0.0
140
0.0
141
0.0
142
1.0
143
1.0
 70
  1712
 72
     0
 73
     0
 74
     0
  7

 75
     0
 76
     0
 77
     2
 78
   300
147
1.0
148
0.0
149
0.0
100
AcDbLayout
  1
Model
 70
     1
 71
     0
 10
0.0
 20
0.0
 11
420.0
 21
297.0
 12
0.0
 22
0.0
 32
0.0
 14
644213.471365634
 24
4144627.394861696
 34
0.0
 15
644492.2155315249
 25
4145021.08908488
 35
2272.404052734375
146
0.0
 13
0.0
 23
0.0
 33
0.0
 16
1.0
 26
0.0
 36
0.0
 17
0.0
 27
1.0
 37
0.0
 76
     0
330
1F
331
29
  0
MATERIAL
  5
3D
102
{ACAD_REACTORS
330
3B
102
}
330
3B
100
AcDbMaterial
  1
ByBlock
 72
     1
 94
      127
  0
MATERIAL
  5
3C
102
{ACAD_REACTORS
330
3B
102
}
330
3B
100
AcDbMaterial
  1
ByLayer
 72
     1
 94
      127
  0
MATERIAL
  5
3E
102
{ACAD_REACTORS
330
3B
102
}
330
3B
100
AcDbMaterial
  1
Global
 72
     1
 94
      127
  0
MLEADERSTYLE
  5
2DD
102
{ACAD_REACTORS
330
2AF
102
}
330
2AF
100
AcDbMLeaderStyle
179
     2
170
     2
171
     1
172
     0
 90
        2
 40
0.0
 41
0.0
173
     1
 91
-1056964608
340
14
 92
       -2
290
     1
 42
2.0
291
     1
 43
8.0
  3
Standard
341
0
 44
4.0
300

342
11
174
     1
178
     6
175
     1
176
     0
 93
-1056964608
 45
4.0
292
     0
297
     0
 46
4.0
343
0
 94
-1056964608
 47
1.0
 49
1.0
140
1.0
293
     1
141
0.0
294
     1
177
     0
142
1.0
295
     0
296
     0
143
3.75
271
     0
272
     9
273
     9
  0
MLINESTYLE
  5
18
102
{ACAD_REACTORS
330
17
102
}
330
17
100
AcDbMlineStyle
  2
Standard
 70
     0
  3

 62
   256
 51
90.0
 52
90.0
 71
     2
 49
0.5
 62
   256
  6
BYLAYER
 49
-0.5
 62
   256
  6
BYLAYER
  0
ACDBPLACEHOLDER
  5
F
102
{ACAD_REACTORS
330
E
102
}
330
E
  0
SCALE
  5
2B1
102
{ACAD_REACTORS
330
2B0
102
}
330
2B0
100
AcDbScale
 70
     0
300
1:1
140
1.0
141
1.0
290
     1
  0
SCALE
  5
2B2
102
{ACAD_REACTORS
330
2B0
102
}
330
2B0
100
AcDbScale
 70
     0
300
1:2
140
1.0
141
2.0
290
     0
  0
SCALE
  5
2B3
102
{ACAD_REACTORS
330
2B0
102
}
330
2B0
100
AcDbScale
 70
     0
300
1:4
140
1.0
141
4.0
290
     0
  0
SCALE
  5
2B4
102
{ACAD_REACTORS
330
2B0
102
}
330
2B0
100
AcDbScale
 70
     0
300
1:5
140
1.0
141
5.0
290
     0
  0
SCALE
  5
2B5
102
{ACAD_REACTORS
330
2B0
102
}
330
2B0
100
AcDbScale
 70
     0
300
1:8
140
1.0
141
8.0
290
     0
  0
SCALE
  5
2B6
102
{ACAD_REACTORS
330
2B0
102
}
330
2B0
100
AcDbScale
 70
     0
300
1:10
140
1.0
141
10.0
290
     0
  0
SCALE
  5
2B7
102
{ACAD_REACTORS
330
2B0
102
}
330
2B0
100
AcDbScale
 70
     0
300
1:16
140
1.0
141
16.0
290
     0
  0
SCALE
  5
2B8
102
{ACAD_REACTORS
330
2B0
102
}
330
2B0
100
AcDbScale
 70
     0
300
1:20
140
1.0
141
20.0
290
     0
  0
SCALE
  5
2B9
102
{ACAD_REACTORS
330
2B0
102
}
330
2B0
100
AcDbScale
 70
     0
300
1:30
140
1.0
141
30.0
290
     0
  0
SCALE
  5
2BA
102
{ACAD_REACTORS
330
2B0
102
}
330
2B0
100
AcDbScale
 70
     0
300
1:40
140
1.0
141
40.0
290
     0
  0
SCALE
  5
2BB
102
{ACAD_REACTORS
330
2B0
102
}
330
2B0
100
AcDbScale
 70
     0
300
1:50
140
1.0
141
50.0
290
     0
  0
SCALE
  5
2BC
102
{ACAD_REACTORS
330
2B0
102
}
330
2B0
100
AcDbScale
 70
     0
300
1:100
140
1.0
141
100.0
290
     0
  0
SCALE
  5
2BD
102
{ACAD_REACTORS
330
2B0
102
}
330
2B0
100
AcDbScale
 70
     0
300
2:1
140
2.0
141
1.0
290
     0
  0
SCALE
  5
2BE
102
{ACAD_REACTORS
330
2B0
102
}
330
2B0
100
AcDbScale
 70
     0
300
4:1
140
4.0
141
1.0
290
     0
  0
SCALE
  5
2BF
102
{ACAD_REACTORS
330
2B0
102
}
330
2B0
100
AcDbScale
 70
     0
300
8:1
140
8.0
141
1.0
290
     0
  0
SCALE
  5
2C0
102
{ACAD_REACTORS
330
2B0
102
}
330
2B0
100
AcDbScale
 70
     0
300
10:1
140
10.0
141
1.0
290
     0
  0
SCALE
  5
2C1
102
{ACAD_REACTORS
330
2B0
102
}
330
2B0
100
AcDbScale
 70
     0
300
100:1
140
100.0
141
1.0
290
     0
  0
SCALE
  5
2C2
102
{ACAD_REACTORS
330
2B0
102
}
330
2B0
100
AcDbScale
 70
     0
300
1/128" = 1'-0"
140
0.0078125
141
12.0
290
     0
  0
SCALE
  5
2C3
102
{ACAD_REACTORS
330
2B0
102
}
330
2B0
100
AcDbScale
 70
     0
300
1/64" = 1'-0"
140
0.015625
141
12.0
290
     0
  0
SCALE
  5
2C4
102
{ACAD_REACTORS
330
2B0
102
}
330
2B0
100
AcDbScale
 70
     0
300
1/32" = 1'-0"
140
0.03125
141
12.0
290
     0
  0
SCALE
  5
2C5
102
{ACAD_REACTORS
330
2B0
102
}
330
2B0
100
AcDbScale
 70
     0
300
1/16" = 1'-0"
140
0.0625
141
12.0
290
     0
  0
SCALE
  5
2C6
102
{ACAD_REACTORS
330
2B0
102
}
330
2B0
100
AcDbScale
 70
     0
300
3/32" = 1'-0"
140
0.09375
141
12.0
290
     0
  0
SCALE
  5
2C7
102
{ACAD_REACTORS
330
2B0
102
}
330
2B0
100
AcDbScale
 70
     0
300
1/8" = 1'-0"
140
0.125
141
12.0
290
     0
  0
SCALE
  5
2C8
102
{ACAD_REACTORS
330
2B0
102
}
330
2B0
100
AcDbScale
 70
     0
300
3/16" = 1'-0"
140
0.1875
141
12.0
290
     0
  0
SCALE
  5
2C9
102
{ACAD_REACTORS
330
2B0
102
}
330
2B0
100
AcDbScale
 70
     0
300
1/4" = 1'-0"
140
0.25
141
12.0
290
     0
  0
SCALE
  5
2CA
102
{ACAD_REACTORS
330
2B0
102
}
330
2B0
100
AcDbScale
 70
     0
300
3/8" = 1'-0"
140
0.375
141
12.0
290
     0
  0
SCALE
  5
2CB
102
{ACAD_REACTORS
330
2B0
102
}
330
2B0
100
AcDbScale
 70
     0
300
1/2" = 1'-0"
140
0.5
141
12.0
290
     0
  0
SCALE
  5
2CC
102
{ACAD_REACTORS
330
2B0
102
}
330
2B0
100
AcDbScale
 70
     0
300
3/4" = 1'-0"
140
0.75
141
12.0
290
     0
  0
SCALE
  5
2CD
102
{ACAD_REACTORS
330
2B0
102
}
330
2B0
100
AcDbScale
 70
     0
300
1" = 1'-0"
140
1.0
141
12.0
290
     0
  0
SCALE
  5
2CE
102
{ACAD_REACTORS
330
2B0
102
}
330
2B0
100
AcDbScale
 70
     0
300
1-1/2" = 1'-0"
140
1.5
141
12.0
290
     0
  0
SCALE
  5
2CF
102
{ACAD_REACTORS
330
2B0
102
}
330
2B0
100
AcDbScale
 70
     0
300
3" = 1'-0"
140
3.0
141
12.0
290
     0
  0
SCALE
  5
2D0
102
{ACAD_REACTORS
330
2B0
102
}
330
2B0
100
AcDbScale
 70
     0
300
6" = 1'-0"
140
6.0
141
12.0
290
     0
  0
SCALE
  5
2D1
102
{ACAD_REACTORS
330
2B0
102
}
330
2B0
100
AcDbScale
 70
     0
300
1'-0" = 1'-0"
140
12.0
141
12.0
290
     0
  0
TABLESTYLE
  5
2DC
102
{ACAD_REACTORS
330
2AE
102
}
102
{ACAD_XDICTIONARY
360
37B
102
}
330
2AE
100
AcDbTableStyle
  3
Standard
 70
     0
 71
     0
 40
0.06
 41
0.06
280
     0
281
     0
  7
Standard
140
4.5
170
     2
 62
     0
 63
   257
283
     0
 90
        4
 91
        0
  1

274
    -2
284
     1
 64
     0
275
    -2
285
     1
 65
     0
276
    -2
286
     1
 66
     0
277
    -2
287
     1
 67
     0
278
    -2
288
     1
 68
     0
279
    -2
289
     1
 69
     0
  7
Standard
140
6.0
170
     5
 62
     0
 63
   257
283
     0
 90
        4
 91
        0
  1

274
    -2
284
     1
 64
     0
275
    -2
285
     1
 65
     0
276
    -2
286
     1
 66
     0
277
    -2
287
     1
 67
     0
278
    -2
288
     1
 68
     0
279
    -2
289
     1
 69
     0
  7
Standard
140
4.5
170
     5
 62
     0
 63
   257
283
     0
 90
        4
 91
        0
  1

274
    -2
284
     1
 64
     0
275
    -2
285
     1
 65
     0
276
    -2
286
     1
 66
     0
277
    -2
287
     1
 67
     0
278
    -2
288
     1
 68
     0
279
    -2
289
     1
 69
     0
  0
VISUALSTYLE
  5
2F
102
{ACAD_REACTORS
330
2A
102
}
330
2A
100
AcDbVisualStyle
  2
2dWireframe
 70
     4
177
     2
291
     0
 71
     0
176
     1
 72
     2
176
     1
 73
     0
176
     1
 90
        0
176
     1
 40
-0.6
176
     1
 41
-30.0
176
     1
 62
     5
 63
     7
421
 16777215
176
     1
 74
     1
176
     1
 91
        4
176
     1
 64
     7
176
     1
 65
   257
176
     1
 75
     1
176
     1
175
     1
176
     1
 42
1.0
176
     1
 92
        0
176
     1
 66
   257
176
     1
 43
1.0
176
     1
 76
     1
176
     1
 77
     6
176
     1
 78
     2
176
     1
 67
     7
176
     1
 79
     5
176
     1
170
     0
176
     1
171
     0
176
     1
290
     0
176
     1
 93
        1
176
     1
 44
0.0
176
     1
173
     0
176
     1
  0
VISUALSTYLE
  5
31
102
{ACAD_REACTORS
330
2A
102
}
330
2A
100
AcDbVisualStyle
  2
3D Hidden
 70
     6
177
     2
291
     0
 71
     1
176
     1
 72
     2
176
     1
 73
     2
176
     1
 90
        0
176
     1
 40
-0.6
176
     1
 41
-30.0
176
     1
 62
     5
 63
     7
421
 16777215
176
     1
 74
     2
176
     1
 91
        2
176
     1
 64
     7
176
     1
 65
   257
176
     1
 75
     2
176
     1
175
     1
176
     1
 42
40.0
176
     1
 92
        0
176
     1
 66
   257
176
     1
 43
1.0
176
     1
 76
     1
176
     1
 77
     6
176
     1
 78
     2
176
     1
 67
     7
176
     1
 79
     3
176
     1
170
     0
176
     1
171
     0
176
     1
290
     0
176
     1
 93
        1
176
     1
 44
0.0
176
     1
173
     0
176
     1
  0
VISUALSTYLE
  5
30
102
{ACAD_REACTORS
330
2A
102
}
330
2A
100
AcDbVisualStyle
  2
3dWireframe
 70
     5
177
     2
291
     0
 71
     0
176
     1
 72
     2
176
     1
 73
     0
176
     1
 90
        0
176
     1
 40
-0.6
176
     1
 41
-30.0
176
     1
 62
     5
 63
     7
421
 16777215
176
     1
 74
     1
176
     1
 91
        4
176
     1
 64
     7
176
     1
 65
   257
176
     1
 75
     1
176
     1
175
     1
176
     1
 42
1.0
176
     1
 92
        0
176
     1
 66
   257
176
     1
 43
1.0
176
     1
 76
     1
176
     1
 77
     6
176
     1
 78
     2
176
     1
 67
     7
176
     1
 79
     5
176
     1
170
     0
176
     1
171
     0
176
     1
290
     0
176
     1
 93
        1
176
     1
 44
0.0
176
     1
173
     0
176
     1
  0
VISUALSTYLE
  5
32
102
{ACAD_REACTORS
330
2A
102
}
330
2A
100
AcDbVisualStyle
  2
Basic
 70
     7
177
     2
291
     1
 71
     1
176
     1
 72
     0
176
     1
 73
     1
176
     1
 90
        0
176
     1
 40
-0.6
176
     1
 41
-30.0
176
     1
 62
     5
 63
     7
421
 16777215
176
     1
 74
     0
176
     1
 91
        4
176
     1
 64
     7
176
     1
 65
   257
176
     1
 75
     1
176
     1
175
     1
176
     1
 42
1.0
176
     1
 92
        8
176
     1
 66
     7
176
     1
 43
1.0
176
     1
 76
     1
176
     1
 77
     6
176
     1
 78
     2
176
     1
 67
     7
176
     1
 79
     5
176
     1
170
     0
176
     1
171
     0
176
     1
290
     0
176
     1
 93
        1
176
     1
 44
0.0
176
     1
173
     0
176
     1
  0
VISUALSTYLE
  5
36
102
{ACAD_REACTORS
330
2A
102
}
330
2A
100
AcDbVisualStyle
  2
Brighten
 70
    12
177
     2
291
     1
 71
     2
176
     1
 72
     2
176
     1
 73
     0
176
     1
 90
        0
176
     1
 40
-0.6
176
     1
 41
-30.0
176
     1
 62
     5
 63
     7
421
 16777215
176
     1
 74
     1
176
     1
 91
        4
176
     1
 64
     7
176
     1
 65
   257
176
     1
 75
     1
176
     1
175
     1
176
     1
 42
1.0
176
     1
 92
        8
176
     1
 66
     7
176
     1
 43
1.0
176
     1
 76
     1
176
     1
 77
     6
176
     1
 78
     2
176
     1
 67
     7
176
     1
 79
     5
176
     1
170
     0
176
     1
171
     0
176
     1
290
     0
176
     1
 93
        1
176
     1
 44
50.0
176
     1
173
     0
176
     1
  0
VISUALSTYLE
  5
3A
102
{ACAD_REACTORS
330
2A
102
}
330
2A
100
AcDbVisualStyle
  2
ColorChange
 70
    16
177
     2
291
     1
 71
     2
176
     1
 72
     2
176
     1
 73
     3
176
     1
 90
        0
176
     1
 40
-0.6
176
     1
 41
-30.0
176
     1
 62
     5
 63
     8
421
  8421504
176
     1
 74
     1
176
     1
 91
        4
176
     1
 64
     7
176
     1
 65
   257
176
     1
 75
     1
176
     1
175
     1
176
     1
 42
1.0
176
     1
 92
        8
176
     1
 66
     8
424
  8421504
176
     1
 43
1.0
176
     1
 76
     1
176
     1
 77
     6
176
     1
 78
     2
176
     1
 67
     7
176
     1
 79
     5
176
     1
170
     0
176
     1
171
     0
176
     1
290
     0
176
     1
 93
        1
176
     1
 44
0.0
176
     1
173
     0
176
     1
  0
VISUALSTYLE
  5
34
102
{ACAD_REACTORS
330
2A
102
}
330
2A
100
AcDbVisualStyle
  2
Conceptual
 70
     9
177
     2
291
     0
 71
     3
176
     1
 72
     2
176
     1
 73
     0
176
     1
 90
        0
176
     1
 40
-0.6
176
     1
 41
-30.0
176
     1
 62
     5
 63
     7
421
 16777215
176
     1
 74
     2
176
     1
 91
        2
176
     1
 64
     7
176
     1
 65
   257
176
     1
 75
     1
176
     1
175
     1
176
     1
 42
40.0
176
     1
 92
        8
176
     1
 66
     7
176
     1
 43
1.0
176
     1
 76
     1
176
     1
 77
     6
176
     1
 78
     2
176
     1
 67
     7
176
     1
 79
     3
176
     1
170
     0
176
     1
171
     0
176
     1
290
     0
176
     1
 93
        1
176
     1
 44
0.0
176
     1
173
     0
176
     1
  0
VISUALSTYLE
  5
35
102
{ACAD_REACTORS
330
2A
102
}
330
2A
100
AcDbVisualStyle
  2
Dim
 70
    11
177
     2
291
     1
 71
     2
176
     1
 72
     2
176
     1
 73
     0
176
     1
 90
        0
176
     1
 40
-0.6
176
     1
 41
-30.0
176
     1
 62
     5
 63
     7
421
 16777215
176
     1
 74
     1
176
     1
 91
        4
176
     1
 64
     7
176
     1
 65
   257
176
     1
 75
     1
176
     1
175
     1
176
     1
 42
1.0
176
     1
 92
        8
176
     1
 66
     7
176
     1
 43
1.0
176
     1
 76
     1
176
     1
 77
     6
176
     1
 78
     2
176
     1
 67
     7
176
     1
 79
     5
176
     1
170
     0
176
     1
171
     0
176
     1
290
     0
176
     1
 93
        1
176
     1
 44
-50.0
176
     1
173
     0
176
     1
  0
VISUALSTYLE
  5
2D6
102
{ACAD_REACTORS
330
2A
102
}
330
2A
100
AcDbVisualStyle
  2
EdgeColorOff
 70
    22
177
     2
291
     1
 71
     2
176
     0
 72
     2
176
     0
 73
     0
176
     0
 90
        0
176
     0
 40
0.6
176
     0
 41
30.0
176
     0
 62
     5
 63
     7
421
 16777215
176
     0
 74
     1
176
     0
 91
        4
176
     0
 64
     7
176
     0
 65
   257
176
     0
 75
     1
176
     0
175
     1
176
     0
 42
1.0
176
     0
 92
        8
176
     2
 66
     7
176
     0
 43
1.0
176
     0
 76
     1
176
     0
 77
     6
176
     0
 78
     2
176
     0
 67
     7
176
     0
 79
     5
176
     0
170
     0
176
     0
171
     0
176
     0
290
     0
176
     0
 93
        1
176
     0
 44
0.0
176
     0
173
     0
176
     0
  0
VISUALSTYLE
  5
39
102
{ACAD_REACTORS
330
2A
102
}
330
2A
100
AcDbVisualStyle
  2
Facepattern
 70
    15
177
     2
291
     1
 71
     2
176
     1
 72
     2
176
     1
 73
     0
176
     1
 90
        0
176
     1
 40
-0.6
176
     1
 41
-30.0
176
     1
 62
     5
 63
     7
421
 16777215
176
     1
 74
     1
176
     1
 91
        4
176
     1
 64
     7
176
     1
 65
   257
176
     1
 75
     1
176
     1
175
     1
176
     1
 42
1.0
176
     1
 92
        8
176
     1
 66
     7
176
     1
 43
1.0
176
     1
 76
     1
176
     1
 77
     6
176
     1
 78
     2
176
     1
 67
     7
176
     1
 79
     5
176
     1
170
     0
176
     1
171
     0
176
     1
290
     0
176
     1
 93
        1
176
     1
 44
0.0
176
     1
173
     0
176
     1
  0
VISUALSTYLE
  5
2B
102
{ACAD_REACTORS
330
2A
102
}
330
2A
100
AcDbVisualStyle
  2
Flat
 70
     0
177
     2
291
     1
 71
     2
176
     1
 72
     1
176
     1
 73
     1
176
     1
 90
        2
176
     1
 40
-0.6
176
     1
 41
30.0
176
     1
 62
     5
 63
     7
421
 16777215
176
     1
 74
     0
176
     1
 91
        4
176
     1
 64
     7
176
     1
 65
   257
176
     1
 75
     1
176
     1
175
     1
176
     1
 42
1.0
176
     1
 92
        8
176
     1
 66
     7
176
     1
 43
1.0
176
     1
 76
     1
176
     1
 77
     6
176
     1
 78
     2
176
     1
 67
     7
176
     1
 79
     5
176
     1
170
     0
176
     1
171
     0
176
     1
290
     0
176
     1
 93
       13
176
     1
 44
0.0
176
     1
173
     0
176
     1
  0
VISUALSTYLE
  5
2C
102
{ACAD_REACTORS
330
2A
102
}
330
2A
100
AcDbVisualStyle
  2
FlatWithEdges
 70
     1
177
     2
291
     1
 71
     2
176
     1
 72
     1
176
     1
 73
     1
176
     1
 90
        2
176
     1
 40
-0.6
176
     1
 41
30.0
176
     1
 62
     5
 63
     7
421
 16777215
176
     1
 74
     1
176
     1
 91
        4
176
     1
 64
     7
176
     1
 65
   257
176
     1
 75
     1
176
     1
175
     1
176
     1
 42
1.0
176
     1
 92
        0
176
     1
 66
   257
176
     1
 43
1.0
176
     1
 76
     1
176
     1
 77
     6
176
     1
 78
     2
176
     1
 67
     7
176
     1
 79
     5
176
     1
170
     0
176
     1
171
     0
176
     1
290
     0
176
     1
 93
       13
176
     1
 44
0.0
176
     1
173
     0
176
     1
  0
VISUALSTYLE
  5
2D
102
{ACAD_REACTORS
330
2A
102
}
330
2A
100
AcDbVisualStyle
  2
Gouraud
 70
     2
177
     2
291
     1
 71
     2
176
     1
 72
     2
176
     1
 73
     1
176
     1
 90
        2
176
     1
 40
-0.6
176
     1
 41
30.0
176
     1
 62
     5
 63
     7
421
 16777215
176
     1
 74
     0
176
     1
 91
        4
176
     1
 64
     7
176
     1
 65
   257
176
     1
 75
     1
176
     1
175
     1
176
     1
 42
1.0
176
     1
 92
        0
176
     1
 66
     7
176
     1
 43
1.0
176
     1
 76
     1
176
     1
 77
     6
176
     1
 78
     2
176
     1
 67
     7
176
     1
 79
     5
176
     1
170
     0
176
     1
171
     0
176
     1
290
     0
176
     1
 93
       13
176
     1
 44
0.0
176
     1
173
     0
176
     1
  0
VISUALSTYLE
  5
2E
102
{ACAD_REACTORS
330
2A
102
}
330
2A
100
AcDbVisualStyle
  2
GouraudWithEdges
 70
     3
177
     2
291
     1
 71
     2
176
     1
 72
     2
176
     1
 73
     1
176
     1
 90
        2
176
     1
 40
-0.6
176
     1
 41
30.0
176
     1
 62
     5
 63
     7
421
 16777215
176
     1
 74
     1
176
     1
 91
        4
176
     1
 64
     7
176
     1
 65
   257
176
     1
 75
     1
176
     1
175
     1
176
     1
 42
1.0
176
     1
 92
        0
176
     1
 66
   257
176
     1
 43
1.0
176
     1
 76
     1
176
     1
 77
     6
176
     1
 78
     2
176
     1
 67
     7
176
     1
 79
     5
176
     1
170
     0
176
     1
171
     0
176
     1
290
     0
176
     1
 93
       13
176
     1
 44
0.0
176
     1
173
     0
176
     1
  0
VISUALSTYLE
  5
2D3
102
{ACAD_REACTORS
330
2A
102
}
330
2A
100
AcDbVisualStyle
  2
Hidden
 70
     6
177
     2
291
     0
 71
     1
176
     1
 72
     2
176
     1
 73
     2
176
     1
 90
        0
176
     1
 40
0.6
176
     1
 41
30.0
176
     1
 62
     5
 63
     7
421
 16777215
176
     1
 74
     2
176
     1
 91
        2
176
     1
 64
     7
176
     1
 65
   257
176
     1
 75
     2
176
     1
175
     1
176
     1
 42
40.0
176
     1
 92
        0
176
     1
 66
   257
176
     1
 43
1.0
176
     1
 76
     1
176
     1
 77
     6
176
     1
 78
     2
176
     1
 67
     7
176
     1
 79
     3
176
     1
170
     0
176
     1
171
     0
176
     1
290
     0
176
     1
 93
        1
176
     1
 44
0.0
176
     1
173
     0
176
     1
  0
VISUALSTYLE
  5
2D4
102
{ACAD_REACTORS
330
2A
102
}
330
2A
100
AcDbVisualStyle
  2
JitterOff
 70
    20
177
     2
291
     1
 71
     2
176
     0
 72
     2
176
     0
 73
     0
176
     0
 90
        0
176
     0
 40
0.6
176
     0
 41
30.0
176
     0
 62
     5
 63
     7
421
 16777215
176
     0
 74
     1
176
     0
 91
        4
176
     0
 64
     7
176
     0
 65
   257
176
     0
 75
     1
176
     0
175
     1
176
     0
 42
1.0
176
     0
 92
       10
176
     2
 66
     7
176
     0
 43
1.0
176
     0
 76
     1
176
     0
 77
     6
176
     0
 78
     2
176
     0
 67
     7
176
     0
 79
     5
176
     0
170
     0
176
     0
171
     0
176
     0
290
     0
176
     0
 93
        1
176
     0
 44
0.0
176
     0
173
     0
176
     0
  0
VISUALSTYLE
  5
38
102
{ACAD_REACTORS
330
2A
102
}
330
2A
100
AcDbVisualStyle
  2
Linepattern
 70
    14
177
     2
291
     1
 71
     2
176
     1
 72
     2
176
     1
 73
     0
176
     1
 90
        0
176
     1
 40
-0.6
176
     1
 41
-30.0
176
     1
 62
     5
 63
     7
421
 16777215
176
     1
 74
     1
176
     1
 91
        4
176
     1
 64
     7
176
     1
 65
   257
176
     1
 75
     7
176
     1
175
     7
176
     1
 42
1.0
176
     1
 92
        8
176
     1
 66
     7
176
     1
 43
1.0
176
     1
 76
     1
176
     1
 77
     6
176
     1
 78
     2
176
     1
 67
     7
176
     1
 79
     5
176
     1
170
     0
176
     1
171
     0
176
     1
290
     0
176
     1
 93
        1
176
     1
 44
0.0
176
     1
173
     0
176
     1
  0
VISUALSTYLE
  5
2D5
102
{ACAD_REACTORS
330
2A
102
}
330
2A
100
AcDbVisualStyle
  2
OverhangOff
 70
    21
177
     2
291
     1
 71
     2
176
     0
 72
     2
176
     0
 73
     0
176
     0
 90
        0
176
     0
 40
0.6
176
     0
 41
30.0
176
     0
 62
     5
 63
     7
421
 16777215
176
     0
 74
     1
176
     0
 91
        4
176
     0
 64
     7
176
     0
 65
   257
176
     0
 75
     1
176
     0
175
     1
176
     0
 42
1.0
176
     0
 92
        9
176
     2
 66
     7
176
     0
 43
1.0
176
     0
 76
     1
176
     0
 77
     6
176
     0
 78
     2
176
     0
 67
     7
176
     0
 79
     5
176
     0
170
     0
176
     0
171
     0
176
     0
290
     0
176
     0
 93
        1
176
     0
 44
0.0
176
     0
173
     0
176
     0
  0
VISUALSTYLE
  5
33
102
{ACAD_REACTORS
330
2A
102
}
330
2A
100
AcDbVisualStyle
  2
Realistic
 70
     8
177
     2
291
     0
 71
     2
176
     1
 72
     2
176
     1
 73
     0
176
     1
 90
        0
176
     1
 40
-0.6
176
     1
 41
-30.0
176
     1
 62
     5
 63
     7
421
 16777215
176
     1
 74
     1
176
     1
 91
        0
176
     1
 64
     7
176
     1
 65
   257
176
     1
 75
     1
176
     1
175
     1
176
     1
 42
1.0
176
     1
 92
        8
176
     1
 66
     8
424
  7895160
176
     1
 43
1.0
176
     1
 76
     1
176
     1
 77
     6
176
     1
 78
     2
176
     1
 67
     7
176
     1
 79
     5
176
     1
170
     0
176
     1
171
     0
176
     1
290
     0
176
     1
 93
       13
176
     1
 44
0.0
176
     1
173
     0
176
     1
  0
VISUALSTYLE
  5
2DB
102
{ACAD_REACTORS
330
2A
102
}
330
2A
100
AcDbVisualStyle
  2
Shaded
 70
    27
177
     2
291
     0
 71
     2
176
     1
 72
     2
176
     1
 73
     1
176
     1
 90
        2
176
     1
 40
0.6
176
     1
 41
30.0
176
     1
 62
     5
 63
     7
421
 16777215
176
     1
 74
     0
176
     1
 91
        4
176
     1
 64
     7
176
     1
 65
   257
176
     1
 75
     1
176
     1
175
     1
176
     1
 42
1.0
176
     1
 92
        8
176
     1
 66
   257
176
     1
 43
1.0
176
     1
 76
     1
176
     1
 77
     6
176
     1
 78
     2
176
     1
 67
     8
425
  7895160
176
     1
 79
     3
176
     1
170
     0
176
     1
171
     0
176
     1
290
     0
176
     1
 93
        5
176
     1
 44
0.0
176
     1
173
     0
176
     1
  0
VISUALSTYLE
  5
2DA
102
{ACAD_REACTORS
330
2A
102
}
330
2A
100
AcDbVisualStyle
  2
Shaded with edges
 70
    26
177
     2
291
     0
 71
     2
176
     1
 72
     2
176
     1
 73
     1
176
     1
 90
        2
176
     1
 40
0.6
176
     1
 41
30.0
176
     1
 62
     5
 63
     7
421
 16777215
176
     1
 74
     1
176
     1
 91
       10
176
     1
 64
     7
176
     1
 65
   257
176
     1
 75
     2
176
     1
175
     1
176
     1
 42
1.0
176
     1
 92
        8
176
     1
 66
   257
176
     1
 43
1.0
176
     1
 76
     1
176
     1
 77
     6
176
     1
 78
     2
176
     1
 67
     7
176
     1
 79
     3
176
     1
170
     0
176
     1
171
     0
176
     1
290
     0
176
     1
 93
        5
176
     1
 44
0.0
176
     1
173
     0
176
     1
  0
VISUALSTYLE
  5
2D7
102
{ACAD_REACTORS
330
2A
102
}
330
2A
100
AcDbVisualStyle
  2
Shades of Gray
 70
    23
177
     2
291
     0
 71
     2
176
     1
 72
     2
176
     1
 73
     3
176
     1
 90
        0
176
     1
 40
0.6
176
     1
 41
30.0
176
     1
 62
     5
 63
     7
421
 16777215
176
     1
 74
     2
176
     1
 91
        2
176
     1
 64
     7
176
     1
 65
     7
176
     1
 75
     1
176
     1
175
     1
176
     1
 42
40.0
176
     1
 92
        8
176
     1
 66
     7
176
     1
 43
1.0
176
     1
 76
     1
176
     1
 77
     6
176
     1
 78
     2
176
     1
 67
     7
176
     1
 79
     3
176
     1
170
     0
176
     1
171
     0
176
     1
290
     0
176
     1
 93
        1
176
     1
 44
0.0
176
     1
173
     0
176
     1
  0
VISUALSTYLE
  5
2D8
102
{ACAD_REACTORS
330
2A
102
}
330
2A
100
AcDbVisualStyle
  2
Sketchy
 70
    24
177
     2
291
     0
 71
     1
176
     1
 72
     2
176
     1
 73
     2
176
     1
 90
        0
176
     1
 40
0.6
176
     1
 41
30.0
176
     1
 62
     5
 63
     7
421
 16777215
176
     1
 74
     2
176
     1
 91
        2
176
     1
 64
     7
176
     1
 65
     7
176
     1
 75
     1
176
     1
175
     1
176
     1
 42
40.0
176
     1
 92
       11
176
     1
 66
     7
176
     1
 43
1.0
176
     1
 76
     1
176
     1
 77
     6
176
     1
 78
     2
176
     1
 67
     7
176
     1
 79
     6
176
     1
170
     0
176
     1
171
     0
176
     1
290
     0
176
     1
 93
        1
176
     1
 44
0.0
176
     1
173
     0
176
     1
  0
VISUALSTYLE
  5
37
102
{ACAD_REACTORS
330
2A
102
}
330
2A
100
AcDbVisualStyle
  2
Thicken
 70
    13
177
     2
291
     1
 71
     2
176
     1
 72
     2
176
     1
 73
     0
176
     1
 90
        0
176
     1
 40
-0.6
176
     1
 41
-30.0
176
     1
 62
     5
 63
     7
421
 16777215
176
     1
 74
     1
176
     1
 91
        4
176
     1
 64
     7
176
     1
 65
   257
176
     1
 75
     1
176
     1
175
     1
176
     1
 42
1.0
176
     1
 92
       12
176
     1
 66
     7
176
     1
 43
1.0
176
     1
 76
     1
176
     1
 77
     6
176
     1
 78
     2
176
     1
 67
     7
176
     1
 79
     5
176
     1
170
     0
176
     1
171
     0
176
     1
290
     0
176
     1
 93
        1
176
     1
 44
0.0
176
     1
173
     0
176
     1
  0
VISUALSTYLE
  5
2D2
102
{ACAD_REACTORS
330
2A
102
}
330
2A
100
AcDbVisualStyle
  2
Wireframe
 70
     5
177
     2
291
     0
 71
     0
176
     1
 72
     2
176
     1
 73
     0
176
     1
 90
        0
176
     1
 40
0.6
176
     1
 41
30.0
176
     1
 62
     5
 63
     7
421
 16777215
176
     1
 74
     1
176
     1
 91
        4
176
     1
 64
     7
176
     1
 65
   257
176
     1
 75
     1
176
     1
175
     1
176
     1
 42
1.0
176
     1
 92
        0
176
     1
 66
   257
176
     1
 43
1.0
176
     1
 76
     1
176
     1
 77
     6
176
     1
 78
     2
176
     1
 67
     7
176
     1
 79
     3
176
     1
170
     0
176
     1
171
     0
176
     1
290
     0
176
     1
 93
        1
176
     1
 44
0.0
176
     1
173
     0
176
     1
  0
VISUALSTYLE
  5
2D9
102
{ACAD_REACTORS
330
2A
102
}
330
2A
100
AcDbVisualStyle
  2
X-Ray
 70
    25
177
     2
291
     0
 71
     2
176
     1
 72
     2
176
     1
 73
     1
176
     1
 90
        1
176
     1
 40
0.5
176
     1
 41
30.0
176
     1
 62
     5
 63
     7
421
 16777215
176
     1
 74
     1
176
     1
 91
        0
176
     1
 64
     7
176
     1
 65
   257
176
     1
 75
     1
176
     1
175
     1
176
     1
 42
1.0
176
     1
 92
        8
176
     1
 66
     7
176
     1
 43
1.0
176
     1
 76
     1
176
     1
 77
     6
176
     1
 78
     2
176
     1
 67
     7
176
     1
 79
     3
176
     1
170
     0
176
     1
171
     0
176
     1
290
     0
176
     1
 93
       13
176
     1
 44
0.0
176
     1
173
     0
176
     1
  0
DICTIONARYVAR
  5
2E2
102
{ACAD_REACTORS
330
2E1
102
}
330
2E1
100
DictionaryVariables
280
     0
  1
1:1
  0
DICTIONARYVAR
  5
2E4
102
{ACAD_REACTORS
330
2E1
102
}
330
2E1
100
DictionaryVariables
280
     0
  1
Standard
  0
DICTIONARYVAR
  5
2E3
102
{ACAD_REACTORS
330
2E1
102
}
330
2E1
100
DictionaryVariables
280
     0
  1
Standard
  0
DICTIONARYVAR
  5
324
102
{ACAD_REACTORS
330
2E1
102
}
330
2E1
100
DictionaryVariables
280
     0
  1
ByLayer
  0
DICTIONARYVAR
  5
2E5
102
{ACAD_REACTORS
330
2E1
102
}
330
2E1
100
DictionaryVariables
280
     0
  1
0
  0
DICTIONARYVAR
  5
351
102
{ACAD_REACTORS
330
325
102
}
330
325
100
DictionaryVariables
280
     0
  1
0.261799
  0
DICTIONARYVAR
  5
34F
102
{ACAD_REACTORS
330
325
102
}
330
325
100
DictionaryVariables
280
     0
  1
10.000000
  0
DICTIONARYVAR
  5
350
102
{ACAD_REACTORS
330
325
102
}
330
325
100
DictionaryVariables
280
     0
  1
6.000000
  0
DICTIONARYVAR
  5
352
102
{ACAD_REACTORS
330
325
102
}
330
325
100
DictionaryVariables
280
     0
  1
1
  0
DICTIONARY
  5
37B
330
2DC
100
AcDbDictionary
280
     1
281
     1
  3
ACAD_ROUNDTRIP_2008_TABLESTYLE_CELLSTYLEMAP
360
37C
  0
CELLSTYLEMAP
  5
37C
102
{ACAD_REACTORS
330
37B
102
}
330
37B
100
AcDbCellStyleMap
 90
        3
300
CELLSTYLE
  1
TABLEFORMAT_BEGIN
 90
        5
170
     1
 91
        0
 92
    32768
 62
   257
 93
        1
300
CONTENTFORMAT
  1
CONTENTFORMAT_BEGIN
 90
        0
 91
        0
 92
        4
 93
        0
300

 40
0.0
140
1.0
 94
        5
 62
     0
340
11
144
6.0
309
CONTENTFORMAT_END
171
     1
301
MARGIN
  1
CELLMARGIN_BEGIN
 40
1.5
 40
1.5
 40
1.5
 40
1.5
 40
1.5
 40
1.5
309
CELLMARGIN_END
 94
        6
 95
        1
302
GRIDFORMAT
  1
GRIDFORMAT_BEGIN
 90
        0
 91
        1
 62
     0
 92
       -2
340
14
 93
        0
 40
0.045
309
GRIDFORMAT_END
 95
        2
302
GRIDFORMAT
  1
GRIDFORMAT_BEGIN
 90
        0
 91
        1
 62
     0
 92
       -2
340
14
 93
        0
 40
0.045
309
GRIDFORMAT_END
 95
        4
302
GRIDFORMAT
  1
GRIDFORMAT_BEGIN
 90
        0
 91
        1
 62
     0
 92
       -2
340
14
 93
        0
 40
0.045
309
GRIDFORMAT_END
 95
        8
302
GRIDFORMAT
  1
GRIDFORMAT_BEGIN
 90
        0
 91
        1
 62
     0
 92
       -2
340
14
 93
        0
 40
0.045
309
GRIDFORMAT_END
 95
       16
302
GRIDFORMAT
  1
GRIDFORMAT_BEGIN
 90
        0
 91
        1
 62
     0
 92
       -2
340
14
 93
        0
 40
0.045
309
GRIDFORMAT_END
 95
       32
302
GRIDFORMAT
  1
GRIDFORMAT_BEGIN
 90
        0
 91
        1
 62
     0
 92
       -2
340
14
 93
        0
 40
0.045
309
GRIDFORMAT_END
309
TABLEFORMAT_END
  1
CELLSTYLE_BEGIN
 90
        1
 91
        1
300
_TITLE
309
CELLSTYLE_END
300
CELLSTYLE
  1
TABLEFORMAT_BEGIN
 90
        5
170
     1
 91
        0
 92
        0
 62
   257
 93
        1
300
CONTENTFORMAT
  1
CONTENTFORMAT_BEGIN
 90
        0
 91
        0
 92
        4
 93
        0
300

 40
0.0
140
1.0
 94
        5
 62
     0
340
11
144
4.5
309
CONTENTFORMAT_END
171
     1
301
MARGIN
  1
CELLMARGIN_BEGIN
 40
1.5
 40
1.5
 40
1.5
 40
1.5
 40
1.5
 40
1.5
309
CELLMARGIN_END
 94
        6
 95
        1
302
GRIDFORMAT
  1
GRIDFORMAT_BEGIN
 90
        0
 91
        1
 62
     0
 92
       -2
340
14
 93
        0
 40
0.045
309
GRIDFORMAT_END
 95
        2
302
GRIDFORMAT
  1
GRIDFORMAT_BEGIN
 90
        0
 91
        1
 62
     0
 92
       -2
340
14
 93
        0
 40
0.045
309
GRIDFORMAT_END
 95
        4
302
GRIDFORMAT
  1
GRIDFORMAT_BEGIN
 90
        0
 91
        1
 62
     0
 92
       -2
340
14
 93
        0
 40
0.045
309
GRIDFORMAT_END
 95
        8
302
GRIDFORMAT
  1
GRIDFORMAT_BEGIN
 90
        0
 91
        1
 62
     0
 92
       -2
340
14
 93
        0
 40
0.045
309
GRIDFORMAT_END
 95
       16
302
GRIDFORMAT
  1
GRIDFORMAT_BEGIN
 90
        0
 91
        1
 62
     0
 92
       -2
340
14
 93
        0
 40
0.045
309
GRIDFORMAT_END
 95
       32
302
GRIDFORMAT
  1
GRIDFORMAT_BEGIN
 90
        0
 91
        1
 62
     0
 92
       -2
340
14
 93
        0
 40
0.045
309
GRIDFORMAT_END
309
TABLEFORMAT_END
  1
CELLSTYLE_BEGIN
 90
        2
 91
        1
300
_HEADER
309
CELLSTYLE_END
300
CELLSTYLE
  1
TABLEFORMAT_BEGIN
 90
        5
170
     1
 91
        0
 92
        0
 62
   257
 93
        1
300
CONTENTFORMAT
  1
CONTENTFORMAT_BEGIN
 90
        0
 91
        0
 92
        4
 93
        0
300

 40
0.0
140
1.0
 94
        2
 62
     0
340
11
144
4.5
309
CONTENTFORMAT_END
171
     1
301
MARGIN
  1
CELLMARGIN_BEGIN
 40
1.5
 40
1.5
 40
1.5
 40
1.5
 40
1.5
 40
1.5
309
CELLMARGIN_END
 94
        6
 95
        1
302
GRIDFORMAT
  1
GRIDFORMAT_BEGIN
 90
        0
 91
        1
 62
     0
 92
       -2
340
14
 93
        0
 40
0.045
309
GRIDFORMAT_END
 95
        2
302
GRIDFORMAT
  1
GRIDFORMAT_BEGIN
 90
        0
 91
        1
 62
     0
 92
       -2
340
14
 93
        0
 40
0.045
309
GRIDFORMAT_END
 95
        4
302
GRIDFORMAT
  1
GRIDFORMAT_BEGIN
 90
        0
 91
        1
 62
     0
 92
       -2
340
14
 93
        0
 40
0.045
309
GRIDFORMAT_END
 95
        8
302
GRIDFORMAT
  1
GRIDFORMAT_BEGIN
 90
        0
 91
        1
 62
     0
 92
       -2
340
14
 93
        0
 40
0.045
309
GRIDFORMAT_END
 95
       16
302
GRIDFORMAT
  1
GRIDFORMAT_BEGIN
 90
        0
 91
        1
 62
     0
 92
       -2
340
14
 93
        0
 40
0.045
309
GRIDFORMAT_END
 95
       32
302
GRIDFORMAT
  1
GRIDFORMAT_BEGIN
 90
        0
 91
        1
 62
     0
 92
       -2
340
14
 93
        0
 40
0.045
309
GRIDFORMAT_END
309
TABLEFORMAT_END
  1
CELLSTYLE_BEGIN
 90
        3
 91
        2
300
_DATA
309
CELLSTYLE_END
  0
ENDSEC
  0
EOF
