  0
SECTION
  2
HEADER
  9
$ACADVER
  1
AC1024
  9
$ACADMAINTVER
 70
     6
  9
$DWGCODEPAGE
  3
ANSI_1254
  9
$LASTSAVEDBY
  1
Mehmet
  9
$INSBASE
 10
0.0
 20
0.0
 30
0.0
  9
$EXTMIN
 10
644459.7515501671
 20
4144700.908
 30
0.0
  9
$EXTMAX
 10
644963.7875230222
 20
4145134.828578651
 30
2193.60693359375
  9
$LIMMIN
 10
0.0
 20
0.0
  9
$LIMMAX
 10
420.0
 20
297.0
  9
$ORTHOMODE
 70
     0
  9
$REGENMODE
 70
     1
  9
$FILLMODE
 70
     1
  9
$QTEXTMODE
 70
     0
  9
$MIRRTEXT
 70
     1
  9
$LTSCALE
 40
1.0
  9
$ATTMODE
 70
     1
  9
$TEXTSIZE
 40
2.5
  9
$TRACEWID
 40
1.0
  9
$TEXTSTYLE
  7
Standard
  9
$CLAYER
  8
GEOFENCE
  9
$CELTYPE
  6
ByLayer
  9
$CECOLOR
 62
   256
  9
$CELTSCALE
 40
1.0
  9
$DISPSILH
 70
     0
  9
$DIMSCALE
 40
1.0
  9
$DIMASZ
 40
2.5
  9
$DIMEXO
 40
0.625
  9
$DIMDLI
 40
3.75
  9
$DIMRND
 40
0.0
  9
$DIMDLE
 40
0.0
  9
$DIMEXE
 40
1.25
  9
$DIMTP
 40
0.0
  9
$DIMTM
 40
0.0
  9
$DIMTXT
 40
2.5
  9
$DIMCEN
 40
2.5
  9
$DIMTSZ
 40
0.0
  9
$DIMTOL
 70
     0
  9
$DIMLIM
 70
     0
  9
$DIMTIH
 70
     0
  9
$DIMTOH
 70
     0
  9
$DIMSE1
 70
     0
  9
$DIMSE2
 70
     0
  9
$DIMTAD
 70
     1
  9
$DIMZIN
 70
     8
  9
$DIMBLK
  1

  9
$DIMASO
 70
     1
  9
$DIMSHO
 70
     1
  9
$DIMPOST
  1

  9
$DIMAPOST
  1

  9
$DIMALT
 70
     0
  9
$DIMALTD
 70
     3
  9
$DIMALTF
 40
0.03937007874016
  9
$DIMLFAC
 40
1.0
  9
$DIMTOFL
 70
     1
  9
$DIMTVP
 40
0.0
  9
$DIMTIX
 70
     0
  9
$DIMSOXD
 70
     0
  9
$DIMSAH
 70
     0
  9
$DIMBLK1
  1

  9
$DIMBLK2
  1

  9
$DIMSTYLE
  2
ISO-25
  9
$DIMCLRD
 70
     0
  9
$DIMCLRE
 70
     0
  9
$DIMCLRT
 70
     0
  9
$DIMTFAC
 40
1.0
  9
$DIMGAP
 40
0.625
  9
$DIMJUST
 70
     0
  9
$DIMSD1
 70
     0
  9
$DIMSD2
 70
     0
  9
$DIMTOLJ
 70
     0
  9
$DIMTZIN
 70
     8
  9
$DIMALTZ
 70
     0
  9
$DIMALTTZ
 70
     0
  9
$DIMUPT
 70
     0
  9
$DIMDEC
 70
     2
  9
$DIMTDEC
 70
     2
  9
$DIMALTU
 70
     2
  9
$DIMALTTD
 70
     3
  9
$DIMTXSTY
  7
Standard
  9
$DIMAUNIT
 70
     0
  9
$DIMADEC
 70
     0
  9
$DIMALTRND
 40
0.0
  9
$DIMAZIN
 70
     0
  9
$DIMDSEP
 70
    44
  9
$DIMATFIT
 70
     3
  9
$DIMFRAC
 70
     0
  9
$DIMLDRBLK
  1

  9
$DIMLUNIT
 70
     2
  9
$DIMLWD
 70
    -2
  9
$DIMLWE
 70
    -2
  9
$DIMTMOVE
 70
     0
  9
$DIMFXL
 40
1.0
  9
$DIMFXLON
 70
     0
  9
$DIMJOGANG
 40
0.7853981633974483
  9
$DIMTFILL
 70
     0
  9
$DIMTFILLCLR
 70
     0
  9
$DIMARCSYM
 70
     0
  9
$DIMLTYPE
  6

  9
$DIMLTEX1
  6

  9
$DIMLTEX2
  6

  9
$DIMTXTDIRECTION
 70
     0
  9
$LUNITS
 70
     2
  9
$LUPREC
 70
     4
  9
$SKETCHINC
 40
1.0
  9
$FILLETRAD
 40
10.0
  9
$AUNITS
 70
     0
  9
$AUPREC
 70
     0
  9
$MENU
  1
.
  9
$ELEVATION
 40
0.0
  9
$PELEVATION
 40
0.0
  9
$THICKNESS
 40
0.0
  9
$LIMCHECK
 70
     0
  9
$CHAMFERA
 40
10.0
  9
$CHAMFERB
 40
10.0
  9
$CHAMFERC
 40
20.0
  9
$CHAMFERD
 40
0.0
  9
$SKPOLY
 70
     0
  9
$TDCREATE
 40
2457794.769128264
  9
$TDUCREATE
 40
2457794.644128264
  9
$TDUPDATE
 40
2457796.540457107
  9
$TDUUPDATE
 40
2457796.415457107
  9
$TDINDWG
 40
0.0065476505
  9
$TDUSRTIMER
 40
2457796.409549907
  9
$USRTIMER
 70
     1
  9
$ANGBASE
 50
0.0
  9
$ANGDIR
 70
     0
  9
$PDMODE
 70
     0
  9
$PDSIZE
 40
0.0
  9
$PLINEWID
 40
0.0
  9
$SPLFRAME
 70
     0
  9
$SPLINETYPE
 70
     6
  9
$SPLINESEGS
 70
     8
  9
$HANDSEED
  5
42B
  9
$SURFTAB1
 70
     6
  9
$SURFTAB2
 70
     6
  9
$SURFTYPE
 70
     6
  9
$SURFU
 70
     6
  9
$SURFV
 70
     6
  9
$UCSBASE
  2

  9
$UCSNAME
  2

  9
$UCSORG
 10
0.0
 20
0.0
 30
0.0
  9
$UCSXDIR
 10
1.0
 20
0.0
 30
0.0
  9
$UCSYDIR
 10
0.0
 20
1.0
 30
0.0
  9
$UCSORTHOREF
  2

  9
$UCSORTHOVIEW
 70
     0
  9
$UCSORGTOP
 10
0.0
 20
0.0
 30
0.0
  9
$UCSORGBOTTOM
 10
0.0
 20
0.0
 30
0.0
  9
$UCSORGLEFT
 10
0.0
 20
0.0
 30
0.0
  9
$UCSORGRIGHT
 10
0.0
 20
0.0
 30
0.0
  9
$UCSORGFRONT
 10
0.0
 20
0.0
 30
0.0
  9
$UCSORGBACK
 10
0.0
 20
0.0
 30
0.0
  9
$PUCSBASE
  2

  9
$PUCSNAME
  2

  9
$PUCSORG
 10
0.0
 20
0.0
 30
0.0
  9
$PUCSXDIR
 10
1.0
 20
0.0
 30
0.0
  9
$PUCSYDIR
 10
0.0
 20
1.0
 30
0.0
  9
$PUCSORTHOREF
  2

  9
$PUCSORTHOVIEW
 70
     0
  9
$PUCSORGTOP
 10
0.0
 20
0.0
 30
0.0
  9
$PUCSORGBOTTOM
 10
0.0
 20
0.0
 30
0.0
  9
$PUCSORGLEFT
 10
0.0
 20
0.0
 30
0.0
  9
$PUCSORGRIGHT
 10
0.0
 20
0.0
 30
0.0
  9
$PUCSORGFRONT
 10
0.0
 20
0.0
 30
0.0
  9
$PUCSORGBACK
 10
0.0
 20
0.0
 30
0.0
  9
$USERI1
 70
     0
  9
$USERI2
 70
     0
  9
$USERI3
 70
     0
  9
$USERI4
 70
     0
  9
$USERI5
 70
     0
  9
$USERR1
 40
0.0
  9
$USERR2
 40
0.0
  9
$USERR3
 40
0.0
  9
$USERR4
 40
0.0
  9
$USERR5
 40
0.0
  9
$WORLDVIEW
 70
     1
  9
$SHADEDGE
 70
     3
  9
$SHADEDIF
 70
    70
  9
$TILEMODE
 70
     1
  9
$MAXACTVP
 70
    64
  9
$PINSBASE
 10
0.0
 20
0.0
 30
0.0
  9
$PLIMCHECK
 70
     0
  9
$PEXTMIN
 10
1.000000000000000E+20
 20
1.000000000000000E+20
 30
1.000000000000000E+20
  9
$PEXTMAX
 10
-1.000000000000000E+20
 20
-1.000000000000000E+20
 30
-1.000000000000000E+20
  9
$PLIMMIN
 10
0.0
 20
0.0
  9
$PLIMMAX
 10
0.0
 20
0.0
  9
$UNITMODE
 70
     0
  9
$VISRETAIN
 70
     1
  9
$PLINEGEN
 70
     0
  9
$PSLTSCALE
 70
     1
  9
$TREEDEPTH
 70
  3020
  9
$CMLSTYLE
  2
Standard
  9
$CMLJUST
 70
     0
  9
$CMLSCALE
 40
20.0
  9
$PROXYGRAPHICS
 70
     1
  9
$MEASUREMENT
 70
     1
  9
$CELWEIGHT
370
    -1
  9
$ENDCAPS
280
     0
  9
$JOINSTYLE
280
     0
  9
$LWDISPLAY
290
     0
  9
$INSUNITS
 70
     4
  9
$HYPERLINKBASE
  1

  9
$STYLESHEET
  1

  9
$XEDIT
290
     1
  9
$CEPSNTYPE
380
     0
  9
$PSTYLEMODE
290
     1
  9
$FINGERPRINTGUID
  2
{6ABF0C57-A626-457C-9439-FA484C7B5923}
  9
$VERSIONGUID
  2
{FAEB1C32-E019-11D5-929B-00C0DF256EC4}
  9
$EXTNAMES
290
     1
  9
$PSVPSCALE
 40
0.0
  9
$OLESTARTUP
290
     0
  9
$SORTENTS
280
   127
  9
$INDEXCTL
280
     0
  9
$HIDETEXT
280
     1
  9
$XCLIPFRAME
280
     0
  9
$HALOGAP
280
     0
  9
$OBSCOLOR
 70
   257
  9
$OBSLTYPE
280
     0
  9
$INTERSECTIONDISPLAY
280
     0
  9
$INTERSECTIONCOLOR
 70
   257
  9
$DIMASSOC
280
     2
  9
$PROJECTNAME
  1

  9
$CAMERADISPLAY
290
     0
  9
$LENSLENGTH
 40
50.0
  9
$CAMERAHEIGHT
 40
0.0
  9
$STEPSPERSEC
 40
2.0
  9
$STEPSIZE
 40
6.0
  9
$3DDWFPREC
 40
2.0
  9
$PSOLWIDTH
 40
5.0
  9
$PSOLHEIGHT
 40
80.0
  9
$LOFTANG1
 40
1.570796326794897
  9
$LOFTANG2
 40
1.570796326794897
  9
$LOFTMAG1
 40
0.0
  9
$LOFTMAG2
 40
0.0
  9
$LOFTPARAM
 70
     7
  9
$LOFTNORMALS
280
     1
  9
$LATITUDE
 40
37.795
  9
$LONGITUDE
 40
-122.394
  9
$NORTHDIRECTION
 40
0.0
  9
$TIMEZONE
 70
 -8000
  9
$LIGHTGLYPHDISPLAY
280
     1
  9
$TILEMODELIGHTSYNCH
280
     1
  9
$SOLIDHIST
280
     1
  9
$SHOWHIST
280
     1
  9
$DWFFRAME
280
     2
  9
$DGNFRAME
280
     2
  9
$REALWORLDSCALE
290
     1
  9
$INTERFERECOLOR
 62
   256
  9
$CSHADOW
280
     0
  9
$SHADOWPLANELOCATION
 40
0.0
  0
ENDSEC
  0
SECTION
  2
CLASSES
  0
CLASS
  1
ACDBDICTIONARYWDFLT
  2
AcDbDictionaryWithDefault
  3
ObjectDBX Classes
 90
        0
 91
        6
280
     0
281
     0
  0
CLASS
  1
VISUALSTYLE
  2
AcDbVisualStyle
  3
ObjectDBX Classes
 90
     4095
 91
        6
280
     0
281
     0
  0
CLASS
  1
MATERIAL
  2
AcDbMaterial
  3
ObjectDBX Classes
 90
     1153
 91
        6
280
     0
281
     0
  0
CLASS
  1
SCALE
  2
AcDbScale
  3
ObjectDBX Classes
 90
     1153
 91
        6
280
     0
281
     0
  0
CLASS
  1
TABLESTYLE
  2
AcDbTableStyle
  3
ObjectDBX Classes
 90
     4095
 91
        6
280
     0
281
     0
  0
CLASS
  1
MLEADERSTYLE
  2
AcDbMLeaderStyle
  3
ACDB_MLEADERSTYLE_CLASS
 90
     4095
 91
        6
280
     0
281
     0
  0
CLASS
  1
SUN
  2
AcDbSun
  3
SCENEOE
 90
     1153
 91
        6
280
     0
281
     0
  0
CLASS
  1
RASTERVARIABLES
  2
AcDbRasterVariables
  3
ISM
 90
        0
 91
        6
280
     0
281
     0
  0
CLASS
  1
DICTIONARYVAR
  2
AcDbDictionaryVar
  3
ObjectDBX Classes
 90
        0
 91
        6
280
     0
281
     0
  0
CLASS
  1
CELLSTYLEMAP
  2
AcDbCellStyleMap
  3
ObjectDBX Classes
 90
     1152
 91
        4
280
     0
281
     0
  0
CLASS
  1
DIMASSOC
  2
AcDbDimAssoc
  3
"AcDbDimAssoc|Product Desc:     AcDim ARX App For Dimension|Company:          Autodesk, Inc.|WEB Address:      www.autodesk.com"
 90
        0
 91
        4
280
     0
281
     0
  0
ENDSEC
  0
SECTION
  2
TABLES
  0
TABLE
  2
VPORT
  5
8
330
0
100
AcDbSymbolTable
 70
     1
  0
VPORT
  5
29
330
8
100
AcDbSymbolTableRecord
100
AcDbViewportTableRecord
  2
*Active
 70
     0
 10
0.0
 20
0.0
 11
1.0
 21
1.0
 12
645071.3196594726
 22
4144928.72321399
 13
0.0
 23
0.0
 14
10.0
 24
10.0
 15
10.0
 25
10.0
 16
0.0
 26
0.0
 36
1.0
 17
0.0
 27
0.0
 37
0.0
 40
864.4511527815482
 41
2.106082036775106
 42
50.0
 43
0.0
 44
0.0
 50
0.0
 51
0.0
 71
    16
 72
   100
 73
     1
 74
     3
 75
     0
 76
     0
 77
     0
 78
     0
281
     0
 65
     1
110
0.0
120
0.0
130
0.0
111
1.0
121
0.0
131
0.0
112
0.0
122
1.0
132
0.0
 79
     0
146
0.0
348
2F
 60
     3
 61
     5
292
     1
282
     1
141
0.0
142
0.0
 63
   250
361
37F
  0
ENDTAB
  0
TABLE
  2
LTYPE
  5
5
330
0
100
AcDbSymbolTable
 70
     1
  0
LTYPE
  5
14
330
5
100
AcDbSymbolTableRecord
100
AcDbLinetypeTableRecord
  2
ByBlock
 70
     0
  3

 72
    65
 73
     0
 40
0.0
  0
LTYPE
  5
15
330
5
100
AcDbSymbolTableRecord
100
AcDbLinetypeTableRecord
  2
ByLayer
 70
     0
  3

 72
    65
 73
     0
 40
0.0
  0
LTYPE
  5
16
330
5
100
AcDbSymbolTableRecord
100
AcDbLinetypeTableRecord
  2
Continuous
 70
     0
  3
Solid line
 72
    65
 73
     0
 40
0.0
  0
ENDTAB
  0
TABLE
  2
LAYER
  5
2
102
{ACAD_XDICTIONARY
360
381
102
}
330
0
100
AcDbSymbolTable
 70
     8
  0
LAYER
  5
10
330
2
100
AcDbSymbolTableRecord
100
AcDbLayerTableRecord
  2
0
 70
     4
 62
     5
  6
Continuous
370
     0
390
F
347
3E
  0
LAYER
  5
3F
330
2
100
AcDbSymbolTableRecord
100
AcDbLayerTableRecord
  2
ANA_GALERI
 70
     4
 62
   126
  6
Continuous
370
     0
390
F
347
3E
  0
LAYER
  5
40
330
2
100
AcDbSymbolTableRecord
100
AcDbLayerTableRecord
  2
2177
 70
     4
 62
   143
  6
Continuous
370
     0
390
F
347
3E
  0
LAYER
  5
41
330
2
100
AcDbSymbolTableRecord
100
AcDbLayerTableRecord
  2
2240_1_KAT_SPRAL
 70
     4
 62
     4
  6
Continuous
370
     0
390
F
347
3E
  0
LAYER
  5
393
330
2
100
AcDbSymbolTableRecord
100
AcDbLayerTableRecord
  2
INIT_COORD
 70
     4
 62
     5
  6
Continuous
370
     0
390
F
347
3E
1001
AcAecLayerStandard
1000

1000

  0
LAYER
  5
395
330
2
100
AcDbSymbolTableRecord
100
AcDbLayerTableRecord
  2
GEOFENCE
 70
     0
 62
     3
  6
Continuous
370
     0
390
F
347
3E
1001
AcAecLayerStandard
1000

1000

  0
LAYER
  5
396
330
2
100
AcDbSymbolTableRecord
100
AcDbLayerTableRecord
  2
TEXT_BLUE
 70
     4
 62
     5
  6
Continuous
370
     0
390
F
347
3E
1001
AcAecLayerStandard
1000

1000

  0
LAYER
  5
415
330
2
100
AcDbSymbolTableRecord
100
AcDbLayerTableRecord
  2
Defpoints
 70
     4
 62
     7
  6
Continuous
290
     0
370
    -3
390
F
347
3E
  0
ENDTAB
  0
TABLE
  2
STYLE
  5
3
330
0
100
AcDbSymbolTable
 70
     1
  0
STYLE
  5
11
330
3
100
AcDbSymbolTableRecord
100
AcDbTextStyleTableRecord
  2
Standard
 70
     0
 40
0.0
 41
1.0
 50
0.0
 71
     0
 42
2.5
  3
C:\Windows\Font\TIMES.TTF
  4

  0
ENDTAB
  0
TABLE
  2
VIEW
  5
6
330
0
100
AcDbSymbolTable
 70
     0
  0
ENDTAB
  0
TABLE
  2
UCS
  5
7
330
0
100
AcDbSymbolTable
 70
     0
  0
ENDTAB
  0
TABLE
  2
APPID
  5
9
330
0
100
AcDbSymbolTable
 70
     2
  0
APPID
  5
12
330
9
100
AcDbSymbolTableRecord
100
AcDbRegAppTableRecord
  2
ACAD
 70
     0
  0
APPID
  5
394
330
9
100
AcDbSymbolTableRecord
100
AcDbRegAppTableRecord
  2
AcAecLayerStandard
 70
     0
  0
ENDTAB
  0
TABLE
  2
DIMSTYLE
  5
A
330
0
100
AcDbSymbolTable
 70
     1
100
AcDbDimStyleTable
  0
DIMSTYLE
105
27
330
A
100
AcDbSymbolTableRecord
100
AcDbDimStyleTableRecord
  2
ISO-25
 70
     0
 41
2.5
 42
0.625
 43
3.75
 44
1.25
 73
     0
 74
     0
 77
     1
 78
     8
140
2.5
141
2.5
143
0.03937007874016
147
0.625
171
     3
172
     1
178
     0
271
     2
272
     2
274
     3
278
    44
283
     0
284
     8
340
11
  0
ENDTAB
  0
TABLE
  2
BLOCK_RECORD
  5
1
330
0
100
AcDbSymbolTable
 70
     1
  0
BLOCK_RECORD
  5
1F
330
1
100
AcDbSymbolTableRecord
100
AcDbBlockTableRecord
  2
*Model_Space
340
22
 70
     0
280
     1
281
     0
  0
BLOCK_RECORD
  5
1B
330
1
100
AcDbSymbolTableRecord
100
AcDbBlockTableRecord
  2
*Paper_Space
340
1E
 70
     0
280
     1
281
     0
  0
BLOCK_RECORD
  5
23
330
1
100
AcDbSymbolTableRecord
100
AcDbBlockTableRecord
  2
*Paper_Space0
340
26
 70
     0
280
     1
281
     0
  0
ENDTAB
  0
ENDSEC
  0
SECTION
  2
BLOCKS
  0
BLOCK
  5
20
330
1F
100
AcDbEntity
  8
0
100
AcDbBlockBegin
  2
*Model_Space
 70
     0
 10
0.0
 20
0.0
 30
0.0
  3
*Model_Space
  1
*Model_Space
  0
ENDBLK
  5
21
330
1F
100
AcDbEntity
  8
0
100
AcDbBlockEnd
  0
BLOCK
  5
1C
330
1B
100
AcDbEntity
 67
     1
  8
0
100
AcDbBlockBegin
  2
*Paper_Space
 70
     0
 10
0.0
 20
0.0
 30
0.0
  3
*Paper_Space
  1
*Paper_Space
  0
ENDBLK
  5
1D
330
1B
100
AcDbEntity
 67
     1
  8
0
100
AcDbBlockEnd
  0
BLOCK
  5
24
330
23
100
AcDbEntity
  8
0
100
AcDbBlockBegin
  2
*Paper_Space0
 70
     0
 10
0.0
 20
0.0
 30
0.0
  3
*Paper_Space0
  1
*Paper_Space0
  0
ENDBLK
  5
25
330
23
100
AcDbEntity
  8
0
100
AcDbBlockEnd
  0
ENDSEC
  0
SECTION
  2
ENTITIES
  0
LINE
  5
42
330
1F
100
AcDbEntity
  8
ANA_GALERI
370
     0
100
AcDbLine
 10
644491.223550167
 20
4144707.862
 30
2183.737060546875
 11
644494.455550167
 21
4144713.292
 31
2182.864013671875
  0
LINE
  5
43
330
1F
100
AcDbEntity
  8
ANA_GALERI
370
     0
100
AcDbLine
 10
644492.7905501671
 20
4144704.552
 30
2183.719970703125
 11
644496.0525501671
 21
4144708.868
 31
2183.068115234375
  0
LINE
  5
44
330
1F
100
AcDbEntity
  8
ANA_GALERI
370
     0
100
AcDbLine
 10
644554.8486948243
 20
4144773.886469014
 30
2179.385009765625
 11
644550.9251739753
 21
4144770.194899006
 31
2179.902099609375
  0
LINE
  5
45
330
1F
100
AcDbEntity
  8
ANA_GALERI
370
     0
100
AcDbLine
 10
644520.6847963477
 20
4144745.825
 30
2181.1708984375
 11
644523.9397963476
 21
4144748.915
 31
2181.10302734375
  0
LINE
  5
46
330
1F
100
AcDbEntity
  8
ANA_GALERI
370
     0
100
AcDbLine
 10
644523.9397963476
 20
4144748.915
 30
2181.10302734375
 11
644530.2197963477
 21
4144756.271
 31
2180.64404296875
  0
LINE
  5
47
330
1F
100
AcDbEntity
  8
ANA_GALERI
370
     0
100
AcDbLine
 10
644625.7507963477
 20
4144884.69
 30
2171.7109375
 11
644621.2197963477
 21
4144878.626
 31
2172.208984375
  0
LINE
  5
48
330
1F
100
AcDbEntity
  8
ANA_GALERI
370
     0
100
AcDbLine
 10
644628.6107963477
 20
4144889.531
 30
2171.22412109375
 11
644625.7507963477
 21
4144884.69
 31
2171.7109375
  0
LINE
  5
49
330
1F
100
AcDbEntity
  8
ANA_GALERI
370
     0
100
AcDbLine
 10
644631.9037963477
 20
4144893.638
 30
2170.8359375
 11
644628.6107963477
 21
4144889.531
 31
2171.22412109375
  0
LINE
  5
4A
330
1F
100
AcDbEntity
  8
ANA_GALERI
370
     0
100
AcDbLine
 10
644621.2197963477
 20
4144878.626
 30
2172.208984375
 11
644617.5617963477
 21
4144873.17
 31
2172.739013671875
  0
LINE
  5
4B
330
1F
100
AcDbEntity
  8
ANA_GALERI
370
     0
100
AcDbLine
 10
644604.8357963477
 20
4144850.22
 30
2173.89697265625
 11
644600.6967963477
 21
4144843.512
 31
2174.339111328125
  0
LINE
  5
4C
330
1F
100
AcDbEntity
  8
ANA_GALERI
370
     0
100
AcDbLine
 10
644609.9377963477
 20
4144858.3
 30
2173.318115234375
 11
644604.8357963477
 21
4144850.22
 31
2173.89697265625
  0
LINE
  5
4D
330
1F
100
AcDbEntity
  8
ANA_GALERI
370
     0
100
AcDbLine
 10
644617.5617963477
 20
4144873.17
 30
2172.739013671875
 11
644609.9377963477
 21
4144858.3
 31
2173.318115234375
  0
LINE
  5
4E
330
1F
100
AcDbEntity
  8
ANA_GALERI
370
     0
100
AcDbLine
 10
644650.491831155
 20
4144920.586216982
 30
2169.998046875
 11
644647.6730111408
 21
4144916.760675533
 31
2170.027099609375
  0
LINE
  5
4F
330
1F
100
AcDbEntity
  8
ANA_GALERI
370
     0
100
AcDbLine
 10
644654.0153561729
 20
4144925.821168436
 30
2169.64794921875
 11
644650.491831155
 21
4144920.586216982
 31
2169.998046875
  0
LINE
  5
50
330
1F
100
AcDbEntity
  8
ANA_GALERI
370
     0
100
AcDbLine
 10
644655.8777908252
 20
4144930.301078816
 30
2169.79296875
 11
644654.0153561729
 21
4144925.821168436
 31
2169.64794921875
  0
LINE
  5
51
330
1F
100
AcDbEntity
  8
ANA_GALERI
370
     0
100
AcDbLine
 10
644647.6730111408
 20
4144916.760675533
 30
2170.027099609375
 11
644644.6483414506
 21
4144912.968769146
 31
2170.407958984375
  0
LINE
  5
52
330
1F
100
AcDbEntity
  8
ANA_GALERI
370
     0
100
AcDbLine
 10
644637.6127963477
 20
4144900.618
 30
2170.68603515625
 11
644631.9037963477
 21
4144893.638
 31
2170.8359375
  0
LINE
  5
53
330
1F
100
AcDbEntity
  8
ANA_GALERI
370
     0
100
AcDbLine
 10
644641.7527963477
 20
4144906.301
 30
2170.47802734375
 11
644637.6127963477
 21
4144900.618
 31
2170.68603515625
  0
LINE
  5
54
330
1F
100
AcDbEntity
  8
ANA_GALERI
370
     0
100
AcDbLine
 10
644644.6483414506
 20
4144912.968769146
 30
2170.407958984375
 11
644641.7527963477
 21
4144906.301
 31
2170.47802734375
  0
LINE
  5
55
330
1F
100
AcDbEntity
  8
ANA_GALERI
370
     0
100
AcDbLine
 10
644600.6967963477
 20
4144843.512
 30
2174.339111328125
 11
644597.1077963477
 21
4144839.097
 31
2174.679931640625
  0
LINE
  5
56
330
1F
100
AcDbEntity
  8
ANA_GALERI
370
     0
100
AcDbLine
 10
644549.0537963477
 20
4144769.232
 30
2179.031982421875
 11
644544.5207963476
 21
4144766.164
 31
2179.2060546875
  0
LINE
  5
57
330
1F
100
AcDbEntity
  8
ANA_GALERI
370
     0
100
AcDbLine
 10
644563.7767963477
 20
4144782.529
 30
2178.131103515625
 11
644556.7807963477
 21
4144775.481
 31
2178.387939453125
  0
LINE
  5
58
330
1F
100
AcDbEntity
  8
ANA_GALERI
370
     0
100
AcDbLine
 10
644572.5897963477
 20
4144793.377
 30
2177.2509765625
 11
644563.7767963477
 21
4144782.529
 31
2178.131103515625
  0
LINE
  5
59
330
1F
100
AcDbEntity
  8
ANA_GALERI
370
     0
100
AcDbLine
 10
644544.5207963476
 20
4144766.164
 30
2179.2060546875
 11
644539.8537963477
 21
4144762.191
 31
2179.698974609375
  0
LINE
  5
5A
330
1F
100
AcDbEntity
  8
ANA_GALERI
370
     0
100
AcDbLine
 10
644531.6527963477
 20
4144751.657
 30
2180.7529296875
 11
644530.4937963476
 21
4144748.248
 31
2180.929931640625
  0
LINE
  5
5B
330
1F
100
AcDbEntity
  8
ANA_GALERI
370
     0
100
AcDbLine
 10
644534.4017963477
 20
4144755.903
 30
2180.366943359375
 11
644531.6527963477
 21
4144751.657
 31
2180.7529296875
  0
LINE
  5
5C
330
1F
100
AcDbEntity
  8
ANA_GALERI
370
     0
100
AcDbLine
 10
644539.8537963477
 20
4144762.191
 30
2179.698974609375
 11
644534.4017963477
 21
4144755.903
 31
2180.366943359375
  0
LINE
  5
5D
330
1F
100
AcDbEntity
  8
ANA_GALERI
370
     0
100
AcDbLine
 10
644592.3657963477
 20
4144831.023
 30
2175.262939453125
 11
644591.3877963477
 21
4144829.027
 31
2175.29296875
  0
LINE
  5
5E
330
1F
100
AcDbEntity
  8
ANA_GALERI
370
     0
100
AcDbLine
 10
644594.9507963477
 20
4144835.845
 30
2174.903076171875
 11
644592.3657963477
 21
4144831.023
 31
2175.262939453125
  0
LINE
  5
5F
330
1F
100
AcDbEntity
  8
ANA_GALERI
370
     0
100
AcDbLine
 10
644597.1077963477
 20
4144839.097
 30
2174.679931640625
 11
644594.9507963477
 21
4144835.845
 31
2174.903076171875
  0
LINE
  5
60
330
1F
100
AcDbEntity
  8
ANA_GALERI
370
     0
100
AcDbLine
 10
644586.6547963477
 20
4144817.719
 30
2175.993896484375
 11
644583.5807963477
 21
4144811.128
 31
2176.324951171875
  0
LINE
  5
61
330
1F
100
AcDbEntity
  8
ANA_GALERI
370
     0
100
AcDbLine
 10
644577.5497963477
 20
4144800.438
 30
2176.9619140625
 11
644572.5897963477
 21
4144793.377
 31
2177.2509765625
  0
LINE
  5
62
330
1F
100
AcDbEntity
  8
ANA_GALERI
370
     0
100
AcDbLine
 10
644580.5387963477
 20
4144805.411
 30
2176.64208984375
 11
644577.5497963477
 21
4144800.438
 31
2176.9619140625
  0
LINE
  5
63
330
1F
100
AcDbEntity
  8
ANA_GALERI
370
     0
100
AcDbLine
 10
644583.5807963477
 20
4144811.128
 30
2176.324951171875
 11
644580.5387963477
 21
4144805.411
 31
2176.64208984375
  0
LINE
  5
64
330
1F
100
AcDbEntity
  8
ANA_GALERI
370
     0
100
AcDbLine
 10
644647.7537508209
 20
4144925.123384642
 30
2170.10595703125
 11
644652.532
 21
4144933.648
 31
2169.882080078125
  0
LINE
  5
65
330
1F
100
AcDbEntity
  8
ANA_GALERI
370
     0
100
AcDbLine
 10
644571.6327963477
 20
4144798.651
 30
2177.02001953125
 11
644574.5757963477
 21
4144804.088
 31
2176.924072265625
  0
LINE
  5
66
330
1F
100
AcDbEntity
  8
ANA_GALERI
370
     0
100
AcDbLine
 10
644568.9237963477
 20
4144794.808
 30
2177.527099609375
 11
644571.6327963477
 21
4144798.651
 31
2177.02001953125
  0
LINE
  5
67
330
1F
100
AcDbEntity
  8
ANA_GALERI
370
     0
100
AcDbLine
 10
644565.5657963477
 20
4144790.35
 30
2177.76611328125
 11
644568.9237963477
 21
4144794.808
 31
2177.527099609375
  0
LINE
  5
68
330
1F
100
AcDbEntity
  8
ANA_GALERI
370
     0
100
AcDbLine
 10
644574.5757963477
 20
4144804.088
 30
2176.924072265625
 11
644579.8177963477
 21
4144812.535
 31
2176.47998046875
  0
LINE
  5
69
330
1F
100
AcDbEntity
  8
ANA_GALERI
370
     0
100
AcDbLine
 10
644589.5497963477
 20
4144834.569
 30
2175.18505859375
 11
644593.3177963477
 21
4144841.647
 31
2174.173095703125
  0
LINE
  5
6A
330
1F
100
AcDbEntity
  8
ANA_GALERI
370
     0
100
AcDbLine
 10
644586.5177963477
 20
4144827.887
 30
2175.510986328125
 11
644589.5497963477
 21
4144834.569
 31
2175.18505859375
  0
LINE
  5
6B
330
1F
100
AcDbEntity
  8
ANA_GALERI
370
     0
100
AcDbLine
 10
644579.8177963477
 20
4144812.535
 30
2176.47998046875
 11
644586.5177963477
 21
4144827.887
 31
2175.510986328125
  0
LINE
  5
6C
330
1F
100
AcDbEntity
  8
ANA_GALERI
370
     0
100
AcDbLine
 10
644548.7587963477
 20
4144773.839
 30
2178.98193359375
 11
644549.8897963477
 21
4144774.682
 31
2178.970947265625
  0
LINE
  5
6D
330
1F
100
AcDbEntity
  8
ANA_GALERI
370
     0
100
AcDbLine
 10
644539.2477963477
 20
4144766.705
 30
2179.655029296875
 11
644548.7587963477
 21
4144773.839
 31
2178.98193359375
  0
LINE
  5
6E
330
1F
100
AcDbEntity
  8
ANA_GALERI
370
     0
100
AcDbLine
 10
644530.2197963477
 20
4144756.271
 30
2180.64404296875
 11
644539.2477963477
 21
4144766.705
 31
2179.655029296875
  0
LINE
  5
6F
330
1F
100
AcDbEntity
  8
ANA_GALERI
370
     0
100
AcDbLine
 10
644549.8897963477
 20
4144774.682
 30
2178.970947265625
 11
644556.3337963477
 21
4144780.593
 31
2178.384033203125
  0
LINE
  5
70
330
1F
100
AcDbEntity
  8
ANA_GALERI
370
     0
100
AcDbLine
 10
644561.3827963477
 20
4144785.662
 30
2178.10595703125
 11
644565.5657963477
 21
4144790.35
 31
2177.76611328125
  0
LINE
  5
71
330
1F
100
AcDbEntity
  8
ANA_GALERI
370
     0
100
AcDbLine
 10
644557.9227963476
 20
4144781.864
 30
2178.490966796875
 11
644561.3827963477
 21
4144785.662
 31
2178.10595703125
  0
LINE
  5
72
330
1F
100
AcDbEntity
  8
ANA_GALERI
370
     0
100
AcDbLine
 10
644556.3337963477
 20
4144780.593
 30
2178.384033203125
 11
644557.9227963476
 21
4144781.864
 31
2178.490966796875
  0
LINE
  5
73
330
1F
100
AcDbEntity
  8
ANA_GALERI
370
     0
100
AcDbLine
 10
644593.3177963477
 20
4144841.647
 30
2174.173095703125
 11
644596.6627963476
 21
4144845.541
 31
2174.507080078125
  0
LINE
  5
74
330
1F
100
AcDbEntity
  8
ANA_GALERI
370
     0
100
AcDbLine
 10
644630.1407963476
 20
4144898.46
 30
2170.7099609375
 11
644633.5747963476
 21
4144902.941
 31
2170.669921875
  0
LINE
  5
75
330
1F
100
AcDbEntity
  8
ANA_GALERI
370
     0
100
AcDbLine
 10
644626.4277963476
 20
4144893.827
 30
2171.14208984375
 11
644630.1407963476
 21
4144898.46
 31
2170.7099609375
  0
LINE
  5
76
330
1F
100
AcDbEntity
  8
ANA_GALERI
370
     0
100
AcDbLine
 10
644624.4477963477
 20
4144889.987
 30
2171.325927734375
 11
644626.4277963476
 21
4144893.827
 31
2171.14208984375
  0
LINE
  5
77
330
1F
100
AcDbEntity
  8
ANA_GALERI
370
     0
100
AcDbLine
 10
644633.5747963476
 20
4144902.941
 30
2170.669921875
 11
644636.2467228685
 21
4144907.146485842
 31
2170.781982421875
  0
LINE
  5
78
330
1F
100
AcDbEntity
  8
ANA_GALERI
370
     0
100
AcDbLine
 10
644643.1026977974
 20
4144917.995796892
 30
2170.39404296875
 11
644647.7537508209
 21
4144925.123384642
 31
2170.10595703125
  0
LINE
  5
79
330
1F
100
AcDbEntity
  8
ANA_GALERI
370
     0
100
AcDbLine
 10
644640.5657597847
 20
4144914.371599731
 30
2170.2890625
 11
644643.1026977974
 21
4144917.995796892
 31
2170.39404296875
  0
LINE
  5
7A
330
1F
100
AcDbEntity
  8
ANA_GALERI
370
     0
100
AcDbLine
 10
644636.2467228685
 20
4144907.146485842
 30
2170.781982421875
 11
644640.5657597847
 21
4144914.371599731
 31
2170.2890625
  0
LINE
  5
7B
330
1F
100
AcDbEntity
  8
ANA_GALERI
370
     0
100
AcDbLine
 10
644603.8897963477
 20
4144855.578
 30
2173.80908203125
 11
644609.7507963477
 21
4144866.087
 31
2172.97607421875
  0
LINE
  5
7C
330
1F
100
AcDbEntity
  8
ANA_GALERI
370
     0
100
AcDbLine
 10
644599.3017963477
 20
4144848.933
 30
2174.302978515625
 11
644603.8897963477
 21
4144855.578
 31
2173.80908203125
  0
LINE
  5
7D
330
1F
100
AcDbEntity
  8
ANA_GALERI
370
     0
100
AcDbLine
 10
644596.6627963476
 20
4144845.541
 30
2174.507080078125
 11
644599.3017963477
 21
4144848.933
 31
2174.302978515625
  0
LINE
  5
7E
330
1F
100
AcDbEntity
  8
ANA_GALERI
370
     0
100
AcDbLine
 10
644609.7507963477
 20
4144866.087
 30
2172.97607421875
 11
644614.3877963477
 21
4144874.319
 31
2172.715087890625
  0
LINE
  5
7F
330
1F
100
AcDbEntity
  8
ANA_GALERI
370
     0
100
AcDbLine
 10
644622.0977963477
 20
4144886.238
 30
2171.797119140625
 11
644624.4477963477
 21
4144889.987
 31
2171.325927734375
  0
LINE
  5
80
330
1F
100
AcDbEntity
  8
ANA_GALERI
370
     0
100
AcDbLine
 10
644617.9877963477
 20
4144880.701
 30
2172.27001953125
 11
644622.0977963477
 21
4144886.238
 31
2171.797119140625
  0
LINE
  5
81
330
1F
100
AcDbEntity
  8
ANA_GALERI
370
     0
100
AcDbLine
 10
644614.3877963477
 20
4144874.319
 30
2172.715087890625
 11
644617.9877963477
 21
4144880.701
 31
2172.27001953125
  0
LINE
  5
82
330
1F
100
AcDbEntity
  8
ANA_GALERI
370
     0
100
AcDbLine
 10
644505.6057963477
 20
4144714.881
 30
2182.2529296875
 11
644504.8857963477
 21
4144713.377
 31
2182.385009765625
  0
LINE
  5
83
330
1F
100
AcDbEntity
  8
ANA_GALERI
370
     0
100
AcDbLine
 10
644503.6507963476
 20
4144717.518
 30
2182.14404296875
 11
644505.6057963477
 21
4144714.881
 31
2182.2529296875
  0
LINE
  5
84
330
1F
100
AcDbEntity
  8
ANA_GALERI
370
     0
100
AcDbLine
 10
644506.0027963477
 20
4144720.883
 30
2181.927001953125
 11
644503.6507963476
 21
4144717.518
 31
2182.14404296875
  0
LINE
  5
85
330
1F
100
AcDbEntity
  8
ANA_GALERI
370
     0
100
AcDbLine
 10
644504.8857963477
 20
4144713.377
 30
2182.385009765625
 11
644503.8827963477
 21
4144712.484
 31
2182.74609375
  0
LINE
  5
86
330
1F
100
AcDbEntity
  8
ANA_GALERI
370
     0
100
AcDbLine
 10
644499.3927963477
 20
4144710.898
 30
2182.568115234375
 11
644497.3667963477
 21
4144709.764
 31
2182.81591796875
  0
LINE
  5
87
330
1F
100
AcDbEntity
  8
ANA_GALERI
370
     0
100
AcDbLine
 10
644501.8077963477
 20
4144712.727
 30
2182.69091796875
 11
644499.3927963477
 21
4144710.898
 31
2182.568115234375
  0
LINE
  5
88
330
1F
100
AcDbEntity
  8
ANA_GALERI
370
     0
100
AcDbLine
 10
644503.8827963477
 20
4144712.484
 30
2182.74609375
 11
644501.8077963477
 21
4144712.727
 31
2182.69091796875
  0
LINE
  5
89
330
1F
100
AcDbEntity
  8
ANA_GALERI
370
     0
100
AcDbLine
 10
644520.5247963477
 20
4144739.893
 30
2181.22705078125
 11
644519.9027963477
 21
4144739.449
 31
2181.221923828125
  0
LINE
  5
8A
330
1F
100
AcDbEntity
  8
ANA_GALERI
370
     0
100
AcDbLine
 10
644523.6777963476
 20
4144743.239
 30
2181.162109375
 11
644520.5247963477
 21
4144739.893
 31
2181.22705078125
  0
LINE
  5
8B
330
1F
100
AcDbEntity
  8
ANA_GALERI
370
     0
100
AcDbLine
 10
644530.4937963476
 20
4144748.248
 30
2181.169921875
 11
644523.6777963476
 21
4144743.239
 31
2181.162109375
  0
LINE
  5
8C
330
1F
100
AcDbEntity
  8
ANA_GALERI
370
     0
100
AcDbLine
 10
644519.9027963477
 20
4144739.449
 30
2181.221923828125
 11
644517.9627963477
 21
4144736.961
 31
2181.197021484375
  0
LINE
  5
8D
330
1F
100
AcDbEntity
  8
ANA_GALERI
370
     0
100
AcDbLine
 10
644509.3277963477
 20
4144725.98
 30
2181.741943359375
 11
644506.0027963477
 21
4144720.883
 31
2181.927001953125
  0
LINE
  5
8E
330
1F
100
AcDbEntity
  8
ANA_GALERI
370
     0
100
AcDbLine
 10
644515.1427963477
 20
4144733.907
 30
2181.470947265625
 11
644509.3277963477
 21
4144725.98
 31
2181.741943359375
  0
LINE
  5
8F
330
1F
100
AcDbEntity
  8
ANA_GALERI
370
     0
100
AcDbLine
 10
644517.9627963477
 20
4144736.961
 30
2181.197021484375
 11
644515.1427963477
 21
4144733.907
 31
2181.470947265625
  0
LINE
  5
90
330
1F
100
AcDbEntity
  8
ANA_GALERI
370
     0
100
AcDbLine
 10
644497.3667963477
 20
4144709.764
 30
2182.81591796875
 11
644496.0525501671
 21
4144708.868
 31
2183.068115234375
  0
LINE
  5
91
330
1F
100
AcDbEntity
  8
ANA_GALERI
370
     0
100
AcDbLine
 10
644916.2601382514
 20
4145109.553
 30
2157.326904296875
 11
644920.5361382513
 21
4145112.068
 31
2157.1650390625
  0
LINE
  5
92
330
1F
100
AcDbEntity
  8
ANA_GALERI
370
     0
100
AcDbLine
 10
644901.771
 20
4145100.373
 30
2157.81103515625
 11
644916.2601382514
 21
4145109.553
 31
2157.326904296875
  0
LINE
  5
93
330
1F
100
AcDbEntity
  8
ANA_GALERI
370
     0
100
AcDbLine
 10
644920.5361382513
 20
4145112.068
 30
2157.1650390625
 11
644924.6861382513
 21
4145114.267
 31
2157.154052734375
  0
LINE
  5
94
330
1F
100
AcDbEntity
  8
ANA_GALERI
370
     0
100
AcDbLine
 10
644925.3751382513
 20
4145109.984
 30
2156.945068359375
 11
644901.428
 21
4145095.319
 31
2158.027099609375
  0
LINE
  5
95
330
1F
100
AcDbEntity
  8
ANA_GALERI
370
     0
100
AcDbLine
 10
644931.3811382514
 20
4145111.998
 30
2156.72705078125
 11
644925.3751382513
 21
4145109.984
 31
2156.945068359375
  0
LINE
  5
96
330
1F
100
AcDbEntity
  8
ANA_GALERI
370
     0
100
AcDbLine
 10
644924.6861382513
 20
4145114.267
 30
2157.154052734375
 11
644932.3571382513
 21
4145116.608
 31
2156.533935546875
  0
LINE
  5
97
330
1F
100
AcDbEntity
  8
ANA_GALERI
370
     0
100
AcDbLine
 10
644668.634
 20
4144948.364
 30
2168.698974609375
 11
644673.517
 21
4144953.638
 31
2168.64111328125
  0
LINE
  5
98
330
1F
100
AcDbEntity
  8
ANA_GALERI
370
     0
100
AcDbLine
 10
644665.282
 20
4144945.178
 30
2168.699951171875
 11
644668.634
 21
4144948.364
 31
2168.698974609375
  0
LINE
  5
99
330
1F
100
AcDbEntity
  8
ANA_GALERI
370
     0
100
AcDbLine
 10
644686.071
 20
4144963.144
 30
2167.847900390625
 11
644692.762
 21
4144967.739
 31
2167.577880859375
  0
LINE
  5
9A
330
1F
100
AcDbEntity
  8
ANA_GALERI
370
     0
100
AcDbLine
 10
644697.1
 20
4144971.218
 30
2167.154052734375
 11
644700.196
 21
4144974.211
 31
2166.861083984375
  0
LINE
  5
9B
330
1F
100
AcDbEntity
  8
ANA_GALERI
370
     0
100
AcDbLine
 10
644692.762
 20
4144967.739
 30
2167.577880859375
 11
644697.1
 21
4144971.218
 31
2167.154052734375
  0
LINE
  5
9C
330
1F
100
AcDbEntity
  8
ANA_GALERI
370
     0
100
AcDbLine
 10
644661.42
 20
4144941.124
 30
2168.93994140625
 11
644665.282
 21
4144945.178
 31
2168.699951171875
  0
LINE
  5
9D
330
1F
100
AcDbEntity
  8
ANA_GALERI
370
     0
100
AcDbLine
 10
644656.121
 20
4144940.341
 30
2169.35693359375
 11
644652.532
 21
4144933.648
 31
2169.882080078125
  0
LINE
  5
9E
330
1F
100
AcDbEntity
  8
ANA_GALERI
370
     0
100
AcDbLine
 10
644659.034
 20
4144938.026
 30
2169.322021484375
 11
644661.42
 21
4144941.124
 31
2168.93994140625
  0
LINE
  5
9F
330
1F
100
AcDbEntity
  8
ANA_GALERI
370
     0
100
AcDbLine
 10
644655.8777908252
 20
4144930.301078816
 30
2169.79296875
 11
644659.034
 21
4144938.026
 31
2169.322021484375
  0
LINE
  5
A0
330
1F
100
AcDbEntity
  8
ANA_GALERI
370
     0
100
AcDbLine
 10
644700.196
 20
4144974.211
 30
2166.861083984375
 11
644703.412
 21
4144977.13
 31
2166.638916015625
  0
LINE
  5
A1
330
1F
100
AcDbEntity
  8
ANA_GALERI
370
     0
100
AcDbLine
 10
644740.242
 20
4145007.94
 30
2164.070068359375
 11
644745.691
 21
4145011.712
 31
2163.73095703125
  0
LINE
  5
A2
330
1F
100
AcDbEntity
  8
ANA_GALERI
370
     0
100
AcDbLine
 10
644732.132
 20
4145003.092
 30
2164.52587890625
 11
644740.242
 21
4145007.94
 31
2164.070068359375
  0
LINE
  5
A3
330
1F
100
AcDbEntity
  8
ANA_GALERI
370
     0
100
AcDbLine
 10
644745.691
 20
4145011.712
 30
2163.73095703125
 11
644752.952
 21
4145016.064
 31
2163.0439453125
  0
LINE
  5
A4
330
1F
100
AcDbEntity
  8
ANA_GALERI
370
     0
100
AcDbLine
 10
644752.952
 20
4145016.064
 30
2163.0439453125
 11
644756.689
 21
4145017.638
 31
2162.74609375
  0
LINE
  5
A5
330
1F
100
AcDbEntity
  8
ANA_GALERI
370
     0
100
AcDbLine
 10
644723.45
 20
4144998.926
 30
2165.110107421875
 11
644732.132
 21
4145003.092
 31
2164.52587890625
  0
LINE
  5
A6
330
1F
100
AcDbEntity
  8
ANA_GALERI
370
     0
100
AcDbLine
 10
644709.199
 20
4144983.407
 30
2166.462890625
 11
644714.131
 21
4144989.512
 31
2165.931884765625
  0
LINE
  5
A7
330
1F
100
AcDbEntity
  8
ANA_GALERI
370
     0
100
AcDbLine
 10
644703.412
 20
4144977.13
 30
2166.638916015625
 11
644709.199
 21
4144983.407
 31
2166.462890625
  0
LINE
  5
A8
330
1F
100
AcDbEntity
  8
ANA_GALERI
370
     0
100
AcDbLine
 10
644714.131
 20
4144989.512
 30
2165.931884765625
 11
644717.456
 21
4144994.688
 31
2165.537109375
  0
LINE
  5
A9
330
1F
100
AcDbEntity
  8
ANA_GALERI
370
     0
100
AcDbLine
 10
644719.493
 20
4144996.456
 30
2165.429931640625
 11
644723.45
 21
4144998.926
 31
2165.110107421875
  0
LINE
  5
AA
330
1F
100
AcDbEntity
  8
ANA_GALERI
370
     0
100
AcDbLine
 10
644717.456
 20
4144994.688
 30
2165.537109375
 11
644719.493
 21
4144996.456
 31
2165.429931640625
  0
LINE
  5
AB
330
1F
100
AcDbEntity
  8
ANA_GALERI
370
     0
100
AcDbLine
 10
644748.838
 20
4145018.571
 30
2162.998046875
 11
644743.124
 21
4145014.492
 31
2163.681884765625
  0
LINE
  5
AC
330
1F
100
AcDbEntity
  8
ANA_GALERI
370
     0
100
AcDbLine
 10
644752.589
 20
4145020.954
 30
2162.760986328125
 11
644748.838
 21
4145018.571
 31
2162.998046875
  0
LINE
  5
AD
330
1F
100
AcDbEntity
  8
ANA_GALERI
370
     0
100
AcDbLine
 10
644743.124
 20
4145014.492
 30
2163.681884765625
 11
644739.586
 21
4145012.183
 31
2163.81689453125
  0
LINE
  5
AE
330
1F
100
AcDbEntity
  8
ANA_GALERI
370
     0
100
AcDbLine
 10
644731.994
 20
4145007.796
 30
2164.3330078125
 11
644725.928
 21
4145004.506
 31
2164.864013671875
  0
LINE
  5
AF
330
1F
100
AcDbEntity
  8
ANA_GALERI
370
     0
100
AcDbLine
 10
644739.586
 20
4145012.183
 30
2163.81689453125
 11
644731.994
 21
4145007.796
 31
2164.3330078125
  0
LINE
  5
B0
330
1F
100
AcDbEntity
  8
ANA_GALERI
370
     0
100
AcDbLine
 10
644755.5700735769
 20
4145023.327852021
 30
2162.69189453125
 11
644752.589
 21
4145020.954
 31
2162.760986328125
  0
LINE
  5
B1
330
1F
100
AcDbEntity
  8
ANA_GALERI
370
     0
100
AcDbLine
 10
644725.928
 20
4145004.506
 30
2164.864013671875
 11
644722.061
 21
4145002.472
 31
2165.06201171875
  0
LINE
  5
B2
330
1F
100
AcDbEntity
  8
ANA_GALERI
370
     0
100
AcDbLine
 10
644691.073
 20
4144971.182
 30
2167.56103515625
 11
644685.348
 21
4144967.454
 31
2167.842041015625
  0
LINE
  5
B3
330
1F
100
AcDbEntity
  8
ANA_GALERI
370
     0
100
AcDbLine
 10
644695.37
 20
4144975.417
 30
2167.035888671875
 11
644691.073
 21
4144971.182
 31
2167.56103515625
  0
LINE
  5
B4
330
1F
100
AcDbEntity
  8
ANA_GALERI
370
     0
100
AcDbLine
 10
644671.471
 20
4144957.685
 30
2168.623046875
 11
644666.835
 21
4144952.474
 31
2168.7548828125
  0
LINE
  5
B5
330
1F
100
AcDbEntity
  8
ANA_GALERI
370
     0
100
AcDbLine
 10
644663.634
 20
4144949.162
 30
2168.674072265625
 11
644656.121
 21
4144940.341
 31
2168.881103515625
  0
LINE
  5
B6
330
1F
100
AcDbEntity
  8
ANA_GALERI
370
     0
100
AcDbLine
 10
644666.835
 20
4144952.474
 30
2168.7548828125
 11
644663.634
 21
4144949.162
 31
2168.674072265625
  0
LINE
  5
B7
330
1F
100
AcDbEntity
  8
ANA_GALERI
370
     0
100
AcDbLine
 10
644697.991
 20
4144976.932
 30
2166.6630859375
 11
644695.37
 21
4144975.417
 31
2167.035888671875
  0
LINE
  5
B8
330
1F
100
AcDbEntity
  8
ANA_GALERI
370
     0
100
AcDbLine
 10
644721.398
 20
4145002.017
 30
2165.177001953125
 11
644716.514
 21
4144998.696
 31
2165.6259765625
  0
LINE
  5
B9
330
1F
100
AcDbEntity
  8
ANA_GALERI
370
     0
100
AcDbLine
 10
644722.061
 20
4145002.472
 30
2165.06201171875
 11
644721.398
 21
4145002.017
 31
2165.177001953125
  0
LINE
  5
BA
330
1F
100
AcDbEntity
  8
ANA_GALERI
370
     0
100
AcDbLine
 10
644716.514
 20
4144998.696
 30
2165.6259765625
 11
644711.376
 21
4144992.503
 31
2165.927978515625
  0
LINE
  5
BB
330
1F
100
AcDbEntity
  8
ANA_GALERI
370
     0
100
AcDbLine
 10
644700.931
 20
4144979.795
 30
2166.60009765625
 11
644697.991
 21
4144976.932
 31
2166.6630859375
  0
LINE
  5
BC
330
1F
100
AcDbEntity
  8
ANA_GALERI
370
     0
100
AcDbLine
 10
644711.376
 20
4144992.503
 30
2165.927978515625
 11
644700.931
 21
4144979.795
 31
2166.60009765625
  0
LINE
  5
BD
330
1F
100
AcDbEntity
  8
ANA_GALERI
370
     0
100
AcDbLine
 10
644854.827
 20
4145069.888
 30
2159.117919921875
 11
644863.826
 21
4145074.557
 31
2158.7451171875
  0
LINE
  5
BE
330
1F
100
AcDbEntity
  8
ANA_GALERI
370
     0
100
AcDbLine
 10
644680.6487971155
 20
4144967.233
 30
2168.5869140625
 11
644685.348
 21
4144967.454
 31
2167.842041015625
  0
LINE
  5
BF
330
1F
100
AcDbEntity
  8
ANA_GALERI
370
     0
100
AcDbLine
 10
644863.826
 20
4145074.557
 30
2158.7451171875
 11
644867.08
 21
4145076.593
 31
2158.7529296875
  0
LINE
  5
C0
330
1F
100
AcDbEntity
  8
ANA_GALERI
370
     0
100
AcDbLine
 10
644874.301
 20
4145081.264
 30
2158.534912109375
 11
644886.609
 21
4145087.331
 31
2158.512939453125
  0
LINE
  5
C1
330
1F
100
AcDbEntity
  8
ANA_GALERI
370
     0
100
AcDbLine
 10
644867.08
 20
4145076.593
 30
2158.7529296875
 11
644874.301
 21
4145081.264
 31
2158.534912109375
  0
LINE
  5
C2
330
1F
100
AcDbEntity
  8
ANA_GALERI
370
     0
100
AcDbLine
 10
644680.6487971155
 20
4144967.233
 30
2168.5390625
 11
644671.471
 21
4144957.685
 31
2168.623046875
  0
LINE
  5
C3
330
1F
100
AcDbEntity
  8
ANA_GALERI
370
     0
100
AcDbLine
 10
644847.17
 20
4145066.264
 30
2159.39306640625
 11
644854.827
 21
4145069.888
 31
2159.117919921875
  0
LINE
  5
C4
330
1F
100
AcDbEntity
  8
ANA_GALERI
370
     0
100
AcDbLine
 10
644515.9927963477
 20
4144740.614
 30
2181.1689453125
 11
644520.6847963477
 21
4144745.825
 31
2181.409912109375
  0
LINE
  5
C5
330
1F
100
AcDbEntity
  8
ANA_GALERI
370
     0
100
AcDbLine
 10
644886.609
 20
4145087.331
 30
2158.39208984375
 11
644893.64
 21
4145091.354
 31
2157.9951171875
  0
LINE
  5
C6
330
1F
100
AcDbEntity
  8
ANA_GALERI
370
     0
100
AcDbLine
 10
644893.64
 20
4145091.354
 30
2157.9951171875
 11
644901.428
 21
4145095.319
 31
2158.027099609375
  0
LINE
  5
C7
330
1F
100
AcDbEntity
  8
ANA_GALERI
370
     0
100
AcDbLine
 10
644506.1927963477
 20
4144727.853
 30
2181.699951171875
 11
644509.8147963476
 21
4144733.653
 31
2181.56005859375
  0
LINE
  5
C8
330
1F
100
AcDbEntity
  8
ANA_GALERI
370
     0
100
AcDbLine
 10
644509.8147963476
 20
4144733.653
 30
2181.56005859375
 11
644515.9927963477
 21
4144740.614
 31
2181.1689453125
  0
LINE
  5
C9
330
1F
100
AcDbEntity
  8
ANA_GALERI
370
     0
100
AcDbLine
 10
644768.704
 20
4145024.452
 30
2162.366943359375
 11
644777.118
 21
4145027.821
 31
2162.092041015625
  0
LINE
  5
CA
330
1F
100
AcDbEntity
  8
ANA_GALERI
370
     0
100
AcDbLine
 10
644765.062
 20
4145022.636
 30
2162.43505859375
 11
644768.704
 21
4145024.452
 31
2162.366943359375
  0
LINE
  5
CB
330
1F
100
AcDbEntity
  8
ANA_GALERI
370
     0
100
AcDbLine
 10
644777.118
 20
4145027.821
 30
2162.092041015625
 11
644786.601
 21
4145031.786
 31
2161.778076171875
  0
LINE
  5
CC
330
1F
100
AcDbEntity
  8
ANA_GALERI
370
     0
100
AcDbLine
 10
644792.887
 20
4145035.407
 30
2161.7958984375
 11
644800.704
 21
4145040.477
 31
2161.552001953125
  0
LINE
  5
CD
330
1F
100
AcDbEntity
  8
ANA_GALERI
370
     0
100
AcDbLine
 10
644786.601
 20
4145031.786
 30
2161.778076171875
 11
644792.887
 21
4145035.407
 31
2161.7958984375
  0
LINE
  5
CE
330
1F
100
AcDbEntity
  8
ANA_GALERI
370
     0
100
AcDbLine
 10
644756.689
 20
4145017.638
 30
2162.537109375
 11
644765.062
 21
4145022.636
 31
2162.43505859375
  0
LINE
  5
CF
330
1F
100
AcDbEntity
  8
ANA_GALERI
370
     0
100
AcDbLine
 10
644800.704
 20
4145040.477
 30
2161.552001953125
 11
644807.578
 21
4145044.425
 31
2161.22998046875
  0
LINE
  5
D0
330
1F
100
AcDbEntity
  8
ANA_GALERI
370
     0
100
AcDbLine
 10
644841.266
 20
4145062.935
 30
2159.985107421875
 11
644847.17
 21
4145066.264
 31
2159.39306640625
  0
LINE
  5
D1
330
1F
100
AcDbEntity
  8
ANA_GALERI
370
     0
100
AcDbLine
 10
644833.66
 20
4145058.928
 30
2159.971923828125
 11
644841.266
 21
4145062.935
 31
2159.985107421875
  0
LINE
  5
D2
330
1F
100
AcDbEntity
  8
ANA_GALERI
370
     0
100
AcDbLine
 10
644813.276
 20
4145047.475
 30
2160.986083984375
 11
644816.328
 21
4145049.056
 31
2160.760986328125
  0
LINE
  5
D3
330
1F
100
AcDbEntity
  8
ANA_GALERI
370
     0
100
AcDbLine
 10
644807.578
 20
4145044.425
 30
2161.22998046875
 11
644813.276
 21
4145047.475
 31
2160.986083984375
  0
LINE
  5
D4
330
1F
100
AcDbEntity
  8
ANA_GALERI
370
     0
100
AcDbLine
 10
644816.328
 20
4145049.056
 30
2160.760986328125
 11
644821.502
 21
4145051.209
 31
2160.739990234375
  0
LINE
  5
D5
330
1F
100
AcDbEntity
  8
ANA_GALERI
370
     0
100
AcDbLine
 10
644825.538
 20
4145054.191
 30
2160.512939453125
 11
644833.66
 21
4145058.928
 31
2159.971923828125
  0
LINE
  5
D6
330
1F
100
AcDbEntity
  8
ANA_GALERI
370
     0
100
AcDbLine
 10
644821.502
 20
4145051.209
 30
2160.739990234375
 11
644825.538
 21
4145054.191
 31
2160.512939453125
  0
LINE
  5
D7
330
1F
100
AcDbEntity
  8
ANA_GALERI
370
     0
100
AcDbLine
 10
644589.1499138972
 20
4144821.48003543
 30
2176.58203125
 11
644586.6547963477
 21
4144817.719
 31
2175.993896484375
  0
LINE
  5
D8
330
1F
100
AcDbEntity
  8
ANA_GALERI
370
     0
100
AcDbLine
 10
644550.9251739753
 20
4144770.194899006
 30
2179.902099609375
 11
644549.0537963477
 21
4144769.232
 31
2179.031982421875
  0
LINE
  5
D9
330
1F
100
AcDbEntity
  8
ANA_GALERI
370
     0
100
AcDbLine
 10
644554.8486948243
 20
4144773.886469014
 30
2179.31591796875
 11
644556.7807963477
 21
4144775.481
 31
2178.387939453125
  0
LINE
  5
DA
330
1F
100
AcDbEntity
  8
ANA_GALERI
370
     0
100
AcDbLine
 10
644901.771
 20
4145100.373
 30
2157.81103515625
 11
644885.501
 21
4145091.484
 31
2158.3291015625
  0
LINE
  5
DB
330
1F
100
AcDbEntity
  8
ANA_GALERI
370
     0
100
AcDbLine
 10
644885.501
 20
4145091.484
 30
2158.3291015625
 11
644879.353
 21
4145088.885
 31
2158.7509765625
  0
LINE
  5
DC
330
1F
100
AcDbEntity
  8
ANA_GALERI
370
     0
100
AcDbLine
 10
644589.1499138972
 20
4144821.48003543
 30
2176.284912109375
 11
644591.3877963477
 21
4144829.027
 31
2175.29296875
  0
LINE
  5
DD
330
1F
100
AcDbEntity
  8
ANA_GALERI
370
     0
100
AcDbLine
 10
644815.391
 20
4145052.977
 30
2160.719970703125
 11
644809.283
 21
4145049.662
 31
2161.113037109375
  0
LINE
  5
DE
330
1F
100
AcDbEntity
  8
ANA_GALERI
370
     0
100
AcDbLine
 10
644824.391
 20
4145058.143
 30
2160.35009765625
 11
644815.391
 21
4145052.977
 31
2160.719970703125
  0
LINE
  5
DF
330
1F
100
AcDbEntity
  8
ANA_GALERI
370
     0
100
AcDbLine
 10
644803.139
 20
4145046.567
 30
2161.423095703125
 11
644793.443
 21
4145040.623
 31
2161.763916015625
  0
LINE
  5
E0
330
1F
100
AcDbEntity
  8
ANA_GALERI
370
     0
100
AcDbLine
 10
644809.283
 20
4145049.662
 30
2161.113037109375
 11
644803.139
 21
4145046.567
 31
2161.423095703125
  0
LINE
  5
E1
330
1F
100
AcDbEntity
  8
ANA_GALERI
370
     0
100
AcDbLine
 10
644833.52
 20
4145063.422
 30
2159.966064453125
 11
644824.391
 21
4145058.143
 31
2160.35009765625
  0
LINE
  5
E2
330
1F
100
AcDbEntity
  8
ANA_GALERI
370
     0
100
AcDbLine
 10
644855.536
 20
4145074.479
 30
2159.238037109375
 11
644850.434
 21
4145072.399
 31
2159.31689453125
  0
LINE
  5
E3
330
1F
100
AcDbEntity
  8
ANA_GALERI
370
     0
100
AcDbLine
 10
644859.452
 20
4145076.404
 30
2158.985107421875
 11
644855.536
 21
4145074.479
 31
2159.238037109375
  0
LINE
  5
E4
330
1F
100
AcDbEntity
  8
ANA_GALERI
370
     0
100
AcDbLine
 10
644843.348
 20
4145068.855
 30
2159.39599609375
 11
644833.52
 21
4145063.422
 31
2159.966064453125
  0
LINE
  5
E5
330
1F
100
AcDbEntity
  8
ANA_GALERI
370
     0
100
AcDbLine
 10
644850.434
 20
4145072.399
 30
2159.31689453125
 11
644843.348
 21
4145068.855
 31
2159.39599609375
  0
LINE
  5
E6
330
1F
100
AcDbEntity
  8
ANA_GALERI
370
     0
100
AcDbLine
 10
644762.039
 20
4145027.268
 30
2162.590087890625
 11
644755.5700735769
 21
4145023.327852021
 31
2162.5810546875
  0
LINE
  5
E7
330
1F
100
AcDbEntity
  8
ANA_GALERI
370
     0
100
AcDbLine
 10
644788.759
 20
4145037.872
 30
2161.81103515625
 11
644776.068
 21
4145032.099
 31
2162.299072265625
  0
LINE
  5
E8
330
1F
100
AcDbEntity
  8
ANA_GALERI
370
     0
100
AcDbLine
 10
644793.443
 20
4145040.623
 30
2161.763916015625
 11
644788.759
 21
4145037.872
 31
2161.81103515625
  0
LINE
  5
E9
330
1F
100
AcDbEntity
  8
ANA_GALERI
370
     0
100
AcDbLine
 10
644768.026
 20
4145029.961
 30
2162.341064453125
 11
644762.039
 21
4145027.268
 31
2162.590087890625
  0
LINE
  5
EA
330
1F
100
AcDbEntity
  8
ANA_GALERI
370
     0
100
AcDbLine
 10
644776.068
 20
4145032.099
 30
2162.299072265625
 11
644768.026
 21
4145029.961
 31
2162.341064453125
  0
LINE
  5
EB
330
1F
100
AcDbEntity
  8
ANA_GALERI
370
     0
100
AcDbLine
 10
644879.353
 20
4145088.885
 30
2158.7509765625
 11
644874.841
 21
4145086.636
 31
2158.669921875
  0
LINE
  5
EC
330
1F
100
AcDbEntity
  8
ANA_GALERI
370
     0
100
AcDbLine
 10
644874.841
 20
4145086.636
 30
2158.669921875
 11
644869.444
 21
4145083.251
 31
2158.801025390625
  0
LINE
  5
ED
330
1F
100
AcDbEntity
  8
ANA_GALERI
370
     0
100
AcDbLine
 10
644869.444
 20
4145083.251
 30
2158.801025390625
 11
644859.452
 21
4145076.404
 31
2158.985107421875
  0
LINE
  5
EE
330
1F
100
AcDbEntity
  8
2177
370
     0
100
AcDbLine
 10
644841.3883722002
 20
4144935.84022744
 30
2180.156982421875
 11
644840.371331614
 21
4144934.625358322
 31
2180.10400390625
  0
LINE
  5
EF
330
1F
100
AcDbEntity
  8
2177
370
     0
100
AcDbLine
 10
644840.371331614
 20
4144934.625358322
 30
2180.10400390625
 11
644837.9759199971
 21
4144933.547556244
 31
2180.097900390625
  0
LINE
  5
F0
330
1F
100
AcDbEntity
  8
2177
370
     0
100
AcDbLine
 10
644842.4235706868
 20
4144938.437876521
 30
2180.30908203125
 11
644842.2941402118
 21
4144937.334282934
 31
2180.2099609375
  0
LINE
  5
F1
330
1F
100
AcDbEntity
  8
2177
370
     0
100
AcDbLine
 10
644842.2941402118
 20
4144937.334282934
 30
2180.2099609375
 11
644841.3883722002
 21
4144935.84022744
 31
2180.156982421875
  0
LINE
  5
F2
330
1F
100
AcDbEntity
  8
2177
370
     0
100
AcDbLine
 10
644832.4419242468
 20
4144930.961691567
 30
2180.2919921875
 11
644829.1617744833
 21
4144929.190179768
 31
2180.39697265625
  0
LINE
  5
F3
330
1F
100
AcDbEntity
  8
2177
370
     0
100
AcDbLine
 10
644830.5119746607
 20
4144926.256622298
 30
2180.381103515625
 11
644833.2548051843
 21
4144927.790706955
 31
2180.337890625
  0
LINE
  5
F4
330
1F
100
AcDbEntity
  8
2177
370
     0
100
AcDbLine
 10
644837.9759199971
 20
4144933.547556244
 30
2180.097900390625
 11
644835.1308633377
 21
4144932.078905063
 31
2180.09912109375
  0
LINE
  5
F5
330
1F
100
AcDbEntity
  8
2177
370
     0
100
AcDbLine
 10
644835.1308633377
 20
4144932.078905063
 30
2180.09912109375
 11
644832.4419242468
 21
4144930.961691567
 31
2180.2919921875
  0
LINE
  5
F6
330
1F
100
AcDbEntity
  8
2177
370
     0
100
AcDbLine
 10
644842.295492281
 20
4144940.625208616
 30
2180.305908203125
 11
644842.4235706868
 21
4144938.437876521
 31
2180.30908203125
  0
LINE
  5
F7
330
1F
100
AcDbEntity
  8
2177
370
     0
100
AcDbLine
 10
644838.4075066515
 20
4144930.306755826
 30
2180.19189453125
 11
644840.5241644111
 21
4144931.388178646
 31
2180.1298828125
  0
LINE
  5
F8
330
1F
100
AcDbEntity
  8
2177
370
     0
100
AcDbLine
 10
644840.5241644111
 20
4144931.388178646
 30
2180.1298828125
 11
644842.2000797223
 21
4144932.096779229
 31
2180.256103515625
  0
LINE
  5
F9
330
1F
100
AcDbEntity
  8
2177
370
     0
100
AcDbLine
 10
644833.2548051843
 20
4144927.790706955
 30
2180.337890625
 11
644835.859504611
 21
4144929.17525148
 31
2180.18994140625
  0
LINE
  5
FA
330
1F
100
AcDbEntity
  8
2177
370
     0
100
AcDbLine
 10
644835.859504611
 20
4144929.17525148
 30
2180.18994140625
 11
644838.4075066515
 21
4144930.306755826
 31
2180.19189453125
  0
LINE
  5
FB
330
1F
100
AcDbEntity
  8
2177
370
     0
100
AcDbLine
 10
644842.2000797223
 20
4144932.096779229
 30
2180.256103515625
 11
644843.9250171187
 21
4144932.881222115
 31
2180.5439453125
  0
LINE
  5
FC
330
1F
100
AcDbEntity
  8
2177
370
     0
100
AcDbLine
 10
644843.9250171187
 20
4144932.881222115
 30
2180.5439453125
 11
644844.8452308475
 21
4144933.556045516
 31
2180.251953125
  0
LINE
  5
FD
330
1F
100
AcDbEntity
  8
2177
370
     0
100
AcDbLine
 10
644785.4932928355
 20
4144986.688
 30
2176.722900390625
 11
644780.5188125494
 21
4144988.937554483
 31
2176.552001953125
  0
LINE
  5
FE
330
1F
100
AcDbEntity
  8
2177
370
     0
100
AcDbLine
 10
644773.8532928355
 20
4144989.361
 30
2176.552001953125
 11
644768.0042928355
 21
4144989.087
 31
2175.971923828125
  0
LINE
  5
FF
330
1F
100
AcDbEntity
  8
2177
370
     0
100
AcDbLine
 10
644762.6772928355
 20
4144989.613
 30
2175.26806640625
 11
644757.4462928355
 21
4144989.341
 31
2174.41796875
  0
LINE
  5
100
330
1F
100
AcDbEntity
  8
2177
370
     0
100
AcDbLine
 10
644757.4462928355
 20
4144989.341
 30
2174.41796875
 11
644750.1732928355
 21
4144986.59
 31
2173.9951171875
  0
LINE
  5
101
330
1F
100
AcDbEntity
  8
2177
370
     0
100
AcDbLine
 10
644768.0042928355
 20
4144989.087
 30
2175.971923828125
 11
644766.5612928355
 21
4144989.021
 31
2175.799072265625
  0
LINE
  5
102
330
1F
100
AcDbEntity
  8
2177
370
     0
100
AcDbLine
 10
644766.5612928355
 20
4144989.021
 30
2175.799072265625
 11
644762.6772928355
 21
4144989.613
 31
2175.26806640625
  0
LINE
  5
103
330
1F
100
AcDbEntity
  8
2177
370
     0
100
AcDbLine
 10
644705.1162928356
 20
4144951.402
 30
2169.3369140625
 11
644702.9692928356
 21
4144951.948
 31
2168.756103515625
  0
LINE
  5
104
330
1F
100
AcDbEntity
  8
2177
370
     0
100
AcDbLine
 10
644702.9692928356
 20
4144951.948
 30
2168.756103515625
 11
644697.8792928355
 21
4144953.606
 31
2168.529052734375
  0
LINE
  5
105
330
1F
100
AcDbEntity
  8
2177
370
     0
100
AcDbLine
 10
644716.3522928355
 20
4144950.907
 30
2170.09912109375
 11
644711.1082928355
 21
4144950.521
 31
2169.635986328125
  0
LINE
  5
106
330
1F
100
AcDbEntity
  8
2177
370
     0
100
AcDbLine
 10
644711.1082928355
 20
4144950.521
 30
2169.635986328125
 11
644705.1162928356
 21
4144951.402
 31
2169.3369140625
  0
LINE
  5
107
330
1F
100
AcDbEntity
  8
2177
370
     0
100
AcDbLine
 10
644688.8902928355
 20
4144955.206
 30
2168.180908203125
 11
644685.3612928356
 21
4144956.961
 31
2167.89306640625
  0
LINE
  5
108
330
1F
100
AcDbEntity
  8
2177
370
     0
100
AcDbLine
 10
644685.3612928356
 20
4144956.961
 30
2167.89306640625
 11
644684.2602928355
 21
4144959.066
 31
2167.90087890625
  0
LINE
  5
109
330
1F
100
AcDbEntity
  8
2177
370
     0
100
AcDbLine
 10
644697.8792928355
 20
4144953.606
 30
2168.529052734375
 11
644689.3702928355
 21
4144955.121
 31
2168.590087890625
  0
LINE
  5
10A
330
1F
100
AcDbEntity
  8
2177
370
     0
100
AcDbLine
 10
644689.3702928355
 20
4144955.121
 30
2168.590087890625
 11
644688.8902928355
 21
4144955.206
 31
2168.180908203125
  0
LINE
  5
10B
330
1F
100
AcDbEntity
  8
2177
370
     0
100
AcDbLine
 10
644721.9802928355
 20
4144951.815
 30
2170.4599609375
 11
644716.3522928355
 21
4144950.907
 31
2170.09912109375
  0
LINE
  5
10C
330
1F
100
AcDbEntity
  8
2177
370
     0
100
AcDbLine
 10
644741.8892928355
 20
4144982.025
 30
2173.135986328125
 11
644740.1132928355
 21
4144979.857
 31
2172.9130859375
  0
LINE
  5
10D
330
1F
100
AcDbEntity
  8
2177
370
     0
100
AcDbLine
 10
644740.1132928355
 20
4144979.857
 30
2172.9130859375
 11
644736.7872928355
 21
4144977.018
 31
2172.739013671875
  0
LINE
  5
10E
330
1F
100
AcDbEntity
  8
2177
370
     0
100
AcDbLine
 10
644750.1732928355
 20
4144986.59
 30
2173.9951171875
 11
644746.4472928356
 21
4144984.852
 31
2173.450927734375
  0
LINE
  5
10F
330
1F
100
AcDbEntity
  8
2177
370
     0
100
AcDbLine
 10
644746.4472928356
 20
4144984.852
 30
2173.450927734375
 11
644741.8892928355
 21
4144982.025
 31
2173.135986328125
  0
LINE
  5
110
330
1F
100
AcDbEntity
  8
2177
370
     0
100
AcDbLine
 10
644727.6302928355
 20
4144957.849
 30
2171.14208984375
 11
644726.4202928356
 21
4144955.137
 31
2170.924072265625
  0
LINE
  5
111
330
1F
100
AcDbEntity
  8
2177
370
     0
100
AcDbLine
 10
644726.4202928356
 20
4144955.137
 30
2170.924072265625
 11
644721.9802928355
 21
4144951.815
 31
2170.4599609375
  0
LINE
  5
112
330
1F
100
AcDbEntity
  8
2177
370
     0
100
AcDbLine
 10
644736.7872928355
 20
4144977.018
 30
2172.076904296875
 11
644731.4602928355
 21
4144965.614
 31
2171.89892578125
  0
LINE
  5
113
330
1F
100
AcDbEntity
  8
2177
370
     0
100
AcDbLine
 10
644731.4602928355
 20
4144965.614
 30
2171.89892578125
 11
644727.6302928355
 21
4144957.849
 31
2171.14208984375
  0
LINE
  5
114
330
1F
100
AcDbEntity
  8
2177
370
     0
100
AcDbLine
 10
644727.5662928355
 20
4144950.356
 30
2170.697998046875
 11
644733.3012928355
 21
4144960.424
 31
2170.885986328125
  0
LINE
  5
115
330
1F
100
AcDbEntity
  8
2177
370
     0
100
AcDbLine
 10
644723.9042928355
 20
4144947.62
 30
2170.386962890625
 11
644727.5662928355
 21
4144950.356
 31
2170.697998046875
  0
LINE
  5
116
330
1F
100
AcDbEntity
  8
2177
370
     0
100
AcDbLine
 10
644688.4392928355
 20
4144950.393
 30
2168.31201171875
 11
644694.9232928355
 21
4144950.555
 31
2168.365966796875
  0
LINE
  5
117
330
1F
100
AcDbEntity
  8
2177
370
     0
100
AcDbLine
 10
644694.9232928355
 20
4144950.555
 30
2168.365966796875
 11
644702.6232928355
 21
4144947.955
 31
2168.875
  0
LINE
  5
118
330
1F
100
AcDbEntity
  8
2177
370
     0
100
AcDbLine
 10
644677.0632928355
 20
4144954.59
 30
2168.322021484375
 11
644680.0772928356
 21
4144952.929
 31
2168.427978515625
  0
LINE
  5
119
330
1F
100
AcDbEntity
  8
2177
370
     0
100
AcDbLine
 10
644680.0772928356
 20
4144952.929
 30
2168.427978515625
 11
644688.4392928355
 21
4144950.393
 31
2168.31201171875
  0
LINE
  5
11A
330
1F
100
AcDbEntity
  8
2177
370
     0
100
AcDbLine
 10
644714.3092928355
 20
4144946.82
 30
2169.8330078125
 11
644723.9042928355
 21
4144947.62
 31
2170.238037109375
  0
LINE
  5
11B
330
1F
100
AcDbEntity
  8
2177
370
     0
100
AcDbLine
 10
644702.6232928355
 20
4144947.955
 30
2168.875
 11
644707.3662928356
 21
4144946.369
 31
2169.30908203125
  0
LINE
  5
11C
330
1F
100
AcDbEntity
  8
2177
370
     0
100
AcDbLine
 10
644707.3662928356
 20
4144946.369
 30
2169.30908203125
 11
644714.3092928355
 21
4144946.82
 31
2169.8330078125
  0
LINE
  5
11D
330
1F
100
AcDbEntity
  8
2177
370
     0
100
AcDbLine
 10
644771.4802928355
 20
4144985.006
 30
2176.4140625
 11
644778.3492928356
 21
4144985.921
 31
2176.672119140625
  0
LINE
  5
11E
330
1F
100
AcDbEntity
  8
2177
370
     0
100
AcDbLine
 10
644778.3492928356
 20
4144985.921
 30
2176.672119140625
 11
644781.4262928355
 21
4144984.46
 31
2176.841064453125
  0
LINE
  5
11F
330
1F
100
AcDbEntity
  8
2177
370
     0
100
AcDbLine
 10
644764.5312928355
 20
4144985.644
 30
2175.345947265625
 11
644767.3552928355
 21
4144985.463
 31
2175.77001953125
  0
LINE
  5
120
330
1F
100
AcDbEntity
  8
2177
370
     0
100
AcDbLine
 10
644767.3552928355
 20
4144985.463
 30
2175.77001953125
 11
644771.4802928355
 21
4144985.006
 31
2176.4140625
  0
LINE
  5
121
330
1F
100
AcDbEntity
  8
2177
370
     0
100
AcDbLine
 10
644791.4932928355
 20
4144981.3
 30
2177.175048828125
 11
644787.1422928355
 21
4144984.303
 31
2177.076904296875
  0
LINE
  5
122
330
1F
100
AcDbEntity
  8
2177
370
     0
100
AcDbLine
 10
644787.1422928355
 20
4144984.303
 30
2177.076904296875
 11
644785.4932928355
 21
4144986.688
 31
2177.0791015625
  0
LINE
  5
123
330
1F
100
AcDbEntity
  8
2177
370
     0
100
AcDbLine
 10
644781.4262928355
 20
4144984.46
 30
2176.841064453125
 11
644783.7192928356
 21
4144982.209
 31
2177.012939453125
  0
LINE
  5
124
330
1F
100
AcDbEntity
  8
2177
370
     0
100
AcDbLine
 10
644783.7192928356
 20
4144982.209
 30
2177.012939453125
 11
644788.3132928355
 21
4144978.651
 31
2177.236083984375
  0
LINE
  5
125
330
1F
100
AcDbEntity
  8
2177
370
     0
100
AcDbLine
 10
644760.3232928355
 20
4144985.978
 30
2174.847900390625
 11
644764.5312928355
 21
4144985.644
 31
2175.345947265625
  0
LINE
  5
126
330
1F
100
AcDbEntity
  8
2177
370
     0
100
AcDbLine
 10
644737.5622928356
 20
4144969.621
 30
2172.197021484375
 11
644739.8972928355
 21
4144974.217
 31
2172.549072265625
  0
LINE
  5
127
330
1F
100
AcDbEntity
  8
2177
370
     0
100
AcDbLine
 10
644739.8972928355
 20
4144974.217
 30
2172.549072265625
 11
644743.3732928355
 21
4144978.302
 31
2172.948974609375
  0
LINE
  5
128
330
1F
100
AcDbEntity
  8
2177
370
     0
100
AcDbLine
 10
644733.3012928355
 20
4144960.424
 30
2171.409912109375
 11
644734.4722928355
 21
4144964.328
 31
2171.64111328125
  0
LINE
  5
129
330
1F
100
AcDbEntity
  8
2177
370
     0
100
AcDbLine
 10
644734.4722928355
 20
4144964.328
 30
2171.64111328125
 11
644737.5622928356
 21
4144969.621
 31
2172.197021484375
  0
LINE
  5
12A
330
1F
100
AcDbEntity
  8
2177
370
     0
100
AcDbLine
 10
644750.4172928355
 20
4144982.783
 30
2173.798095703125
 11
644755.6932928355
 21
4144985.361
 31
2174.35009765625
  0
LINE
  5
12B
330
1F
100
AcDbEntity
  8
2177
370
     0
100
AcDbLine
 10
644755.6932928355
 20
4144985.361
 30
2174.35009765625
 11
644760.3232928355
 21
4144985.978
 31
2174.847900390625
  0
LINE
  5
12C
330
1F
100
AcDbEntity
  8
2177
370
     0
100
AcDbLine
 10
644743.3732928355
 20
4144978.302
 30
2172.948974609375
 11
644747.0522928355
 21
4144980.683
 31
2173.300048828125
  0
LINE
  5
12D
330
1F
100
AcDbEntity
  8
2177
370
     0
100
AcDbLine
 10
644747.0522928355
 20
4144980.683
 30
2173.300048828125
 11
644750.4172928355
 21
4144982.783
 31
2173.798095703125
  0
LINE
  5
12E
330
1F
100
AcDbEntity
  8
2177
370
     0
100
AcDbLine
 10
644684.2602928355
 20
4144959.066
 30
2167.90087890625
 11
644686.071
 21
4144963.144
 31
2167.77294921875
  0
LINE
  5
12F
330
1F
100
AcDbEntity
  8
2177
370
     0
100
AcDbLine
 10
644846.5322893504
 20
4144934.598954409
 30
2180.138916015625
 11
644845.244303556
 21
4144939.032235708
 31
2180.31298828125
  0
LINE
  5
130
330
1F
100
AcDbEntity
  8
2177
370
     0
100
AcDbLine
 10
644845.244303556
 20
4144939.032235708
 30
2180.31298828125
 11
644843.6097100246
 21
4144944.936575828
 31
2180.5390625
  0
LINE
  5
131
330
1F
100
AcDbEntity
  8
2177
370
     0
100
AcDbLine
 10
644840.5051401795
 20
4144946.863427835
 30
2180.52001953125
 11
644842.295492281
 21
4144940.625208616
 31
2180.305908203125
  0
LINE
  5
132
330
1F
100
AcDbEntity
  8
2177
370
     0
100
AcDbLine
 10
644836.6562928355
 20
4144958.684
 30
2180.096923828125
 11
644834.1082928355
 21
4144967.606
 31
2180.3740234375
  0
LINE
  5
133
330
1F
100
AcDbEntity
  8
2177
370
     0
100
AcDbLine
 10
644834.1082928355
 20
4144967.606
 30
2180.3740234375
 11
644831.6192928355
 21
4144973.438
 31
2180.498046875
  0
LINE
  5
134
330
1F
100
AcDbEntity
  8
2177
370
     0
100
AcDbLine
 10
644837.3412928355
 20
4144966.331
 30
2180.31396484375
 11
644842.0642928355
 21
4144950.981
 31
2179.962890625
  0
LINE
  5
135
330
1F
100
AcDbEntity
  8
2177
370
     0
100
AcDbLine
 10
644839.1802928356
 20
4144950.653
 30
2179.9951171875
 11
644836.6562928355
 21
4144958.684
 31
2180.096923828125
  0
LINE
  5
136
330
1F
100
AcDbEntity
  8
2177
370
     0
100
AcDbLine
 10
644829.2672928355
 20
4144980.819
 30
2180.409912109375
 11
644826.5112928356
 21
4144980.968
 31
2180.716064453125
  0
LINE
  5
137
330
1F
100
AcDbEntity
  8
2177
370
     0
100
AcDbLine
 10
644826.5112928356
 20
4144980.968
 30
2180.716064453125
 11
644824.8992928355
 21
4144980.718
 31
2180.41796875
  0
LINE
  5
138
330
1F
100
AcDbEntity
  8
2177
370
     0
100
AcDbLine
 10
644831.6192928355
 20
4144973.438
 30
2180.498046875
 11
644830.4442928355
 21
4144979.032
 31
2180.653076171875
  0
LINE
  5
139
330
1F
100
AcDbEntity
  8
2177
370
     0
100
AcDbLine
 10
644830.4442928355
 20
4144979.032
 30
2180.653076171875
 11
644829.2672928355
 21
4144980.819
 31
2180.409912109375
  0
LINE
  5
13A
330
1F
100
AcDbEntity
  8
2177
370
     0
100
AcDbLine
 10
644834.3362928355
 20
4144974.883
 30
2180.541015625
 11
644837.3412928355
 21
4144966.331
 31
2180.31396484375
  0
LINE
  5
13B
330
1F
100
AcDbEntity
  8
2177
370
     0
100
AcDbLine
 10
644831.7392928355
 20
4144986.89
 30
2180.820068359375
 11
644832.8362928355
 21
4144983.253
 31
2180.655029296875
  0
LINE
  5
13C
330
1F
100
AcDbEntity
  8
2177
370
     0
100
AcDbLine
 10
644791.4932928355
 20
4144981.3
 30
2177.175048828125
 11
644795.2162928355
 21
4144979.928
 31
2177.64111328125
  0
LINE
  5
13D
330
1F
100
AcDbEntity
  8
2177
370
     0
100
AcDbLine
 10
644794.9552928355
 20
4144975.438
 30
2177.658935546875
 11
644788.3132928355
 21
4144978.651
 31
2177.236083984375
  0
LINE
  5
13E
330
1F
100
AcDbEntity
  8
2177
370
     0
100
AcDbLine
 10
644818.4222928355
 20
4144982.055
 30
2179.866943359375
 11
644821.2702928355
 21
4144985.877
 31
2180.455078125
  0
LINE
  5
13F
330
1F
100
AcDbEntity
  8
2177
370
     0
100
AcDbLine
 10
644812.4502928355
 20
4144979.611
 30
2179.299072265625
 11
644818.4222928355
 21
4144982.055
 31
2179.866943359375
  0
LINE
  5
140
330
1F
100
AcDbEntity
  8
2177
370
     0
100
AcDbLine
 10
644813.2792928355
 20
4144975.884
 30
2179.2451171875
 11
644807.8542928356
 21
4144975.317
 31
2178.89404296875
  0
LINE
  5
141
330
1F
100
AcDbEntity
  8
2177
370
     0
100
AcDbLine
 10
644807.8542928356
 20
4144975.317
 30
2178.89404296875
 11
644799.6502928355
 21
4144974.904
 31
2178.114990234375
  0
LINE
  5
142
330
1F
100
AcDbEntity
  8
2177
370
     0
100
AcDbLine
 10
644824.8992928355
 20
4144980.718
 30
2180.41796875
 11
644817.5882928355
 21
4144977.234
 31
2179.846923828125
  0
LINE
  5
143
330
1F
100
AcDbEntity
  8
2177
370
     0
100
AcDbLine
 10
644817.5882928355
 20
4144977.234
 30
2179.846923828125
 11
644813.2792928355
 21
4144975.884
 31
2179.2451171875
  0
LINE
  5
144
330
1F
100
AcDbEntity
  8
2177
370
     0
100
AcDbLine
 10
644799.8642928355
 20
4144978.832
 30
2178.10205078125
 11
644805.5122928355
 21
4144979.336
 31
2178.738037109375
  0
LINE
  5
145
330
1F
100
AcDbEntity
  8
2177
370
     0
100
AcDbLine
 10
644805.5122928355
 20
4144979.336
 30
2178.738037109375
 11
644812.4502928355
 21
4144979.611
 31
2179.299072265625
  0
LINE
  5
146
330
1F
100
AcDbEntity
  8
2177
370
     0
100
AcDbLine
 10
644799.6502928355
 20
4144974.904
 30
2178.114990234375
 11
644794.9552928355
 21
4144975.438
 31
2177.658935546875
  0
LINE
  5
147
330
1F
100
AcDbEntity
  8
2177
370
     0
100
AcDbLine
 10
644795.2162928355
 20
4144979.928
 30
2177.64111328125
 11
644799.8642928355
 21
4144978.832
 31
2178.10205078125
  0
LINE
  5
148
330
1F
100
AcDbEntity
  8
2177
370
     0
100
AcDbLine
 10
644839.1802928356
 20
4144950.653
 30
2179.9951171875
 11
644840.5051401795
 21
4144946.863427835
 31
2180.52001953125
  0
LINE
  5
149
330
1F
100
AcDbEntity
  8
2177
370
     0
100
AcDbLine
 10
644842.0642928355
 20
4144950.981
 30
2179.962890625
 11
644843.6097100246
 21
4144944.936575828
 31
2180.5390625
  0
LINE
  5
14A
330
1F
100
AcDbEntity
  8
2177
370
     0
100
AcDbLine
 10
644815.8037933216
 20
4144926.145133628
 30
2180.388916015625
 11
644817.0822308528
 21
4144926.122465003
 31
2180.508056640625
  0
LINE
  5
14B
330
1F
100
AcDbEntity
  8
2177
370
     0
100
AcDbLine
 10
644809.8982357336
 20
4144924.42296884
 30
2180.465087890625
 11
644807.3943404541
 21
4144923.299322934
 31
2180.511962890625
  0
LINE
  5
14C
330
1F
100
AcDbEntity
  8
2177
370
     0
100
AcDbLine
 10
644807.3943404541
 20
4144923.299322934
 30
2180.511962890625
 11
644802.5715325125
 21
4144921.349366141
 31
2180.7470703125
  0
LINE
  5
14D
330
1F
100
AcDbEntity
  8
2177
370
     0
100
AcDbLine
 10
644822.9746023255
 20
4144926.739962773
 30
2180.593017578125
 11
644819.4331629988
 21
4144926.292906925
 31
2180.739013671875
  0
LINE
  5
14E
330
1F
100
AcDbEntity
  8
2177
370
     0
100
AcDbLine
 10
644819.4331629988
 20
4144926.292906925
 30
2180.739013671875
 11
644817.0822308528
 21
4144926.122465003
 31
2180.508056640625
  0
LINE
  5
14F
330
1F
100
AcDbEntity
  8
2177
370
     0
100
AcDbLine
 10
644804.2583908478
 20
4144918.420465882
 30
2180.549072265625
 11
644810.5715251614
 21
4144921.233960514
 31
2180.576904296875
  0
LINE
  5
150
330
1F
100
AcDbEntity
  8
2177
370
     0
100
AcDbLine
 10
644810.5715251614
 20
4144921.233960514
 30
2180.576904296875
 11
644813.8872104246
 21
4144922.282332603
 31
2180.5458984375
  0
LINE
  5
151
330
1F
100
AcDbEntity
  8
2177
370
     0
100
AcDbLine
 10
644802.5715325125
 20
4144921.349366141
 30
2180.7470703125
 11
644803.08198535
 21
4144919.74140848
 31
2180.381103515625
  0
LINE
  5
152
330
1F
100
AcDbEntity
  8
2177
370
     0
100
AcDbLine
 10
644803.08198535
 20
4144919.74140848
 30
2180.381103515625
 11
644804.2583908478
 21
4144918.420465882
 31
2180.549072265625
  0
LINE
  5
153
330
1F
100
AcDbEntity
  8
2177
370
     0
100
AcDbLine
 10
644824.508976637
 20
4144927.180119009
 30
2180.632080078125
 11
644822.9746023255
 21
4144926.739962773
 31
2180.593017578125
  0
LINE
  5
154
330
1F
100
AcDbEntity
  8
2177
370
     0
100
AcDbLine
 10
644829.1617744833
 20
4144929.190179768
 30
2180.39697265625
 11
644824.508976637
 21
4144927.180119009
 31
2180.632080078125
  0
LINE
  5
155
330
1F
100
AcDbEntity
  8
2177
370
     0
100
AcDbLine
 10
644825.9792022263
 20
4144924.420988738
 30
2180.625
 11
644828.74048918
 21
4144925.656447324
 31
2180.587890625
  0
LINE
  5
156
330
1F
100
AcDbEntity
  8
2177
370
     0
100
AcDbLine
 10
644828.74048918
 20
4144925.656447324
 30
2180.587890625
 11
644830.5119746607
 21
4144926.256622298
 31
2180.381103515625
  0
LINE
  5
157
330
1F
100
AcDbEntity
  8
2240_1_KAT_SPRAL
370
     0
100
AcDbLine
 10
644481.051550167
 20
4144744.043
 30
2191.18896484375
 11
644477.6405501671
 21
4144743.438
 31
2190.758056640625
  0
LINE
  5
158
330
1F
100
AcDbEntity
  8
2240_1_KAT_SPRAL
370
     0
100
AcDbLine
 10
644477.6405501671
 20
4144743.438
 30
2190.758056640625
 11
644473.901550167
 21
4144742.221
 31
2190.323974609375
  0
LINE
  5
159
330
1F
100
AcDbEntity
  8
2240_1_KAT_SPRAL
370
     0
100
AcDbLine
 10
644492.776550167
 20
4144741.784
 30
2191.798095703125
 11
644488.8785501671
 21
4144743.064
 31
2191.6689453125
  0
LINE
  5
15A
330
1F
100
AcDbEntity
  8
2240_1_KAT_SPRAL
370
     0
100
AcDbLine
 10
644488.8785501671
 20
4144743.064
 30
2191.6689453125
 11
644483.027550167
 21
4144744.131
 31
2191.402099609375
  0
LINE
  5
15B
330
1F
100
AcDbEntity
  8
2240_1_KAT_SPRAL
370
     0
100
AcDbLine
 10
644483.027550167
 20
4144744.131
 30
2191.402099609375
 11
644481.051550167
 21
4144744.043
 31
2191.18896484375
  0
LINE
  5
15C
330
1F
100
AcDbEntity
  8
2240_1_KAT_SPRAL
370
     0
100
AcDbLine
 10
644464.804550167
 20
4144732.412
 30
2189.033935546875
 11
644463.7685501671
 21
4144729.303
 31
2188.552978515625
  0
LINE
  5
15D
330
1F
100
AcDbEntity
  8
2240_1_KAT_SPRAL
370
     0
100
AcDbLine
 10
644463.7685501671
 20
4144729.303
 30
2188.552978515625
 11
644463.3495501671
 21
4144725.276
 31
2188.0419921875
  0
LINE
  5
15E
330
1F
100
AcDbEntity
  8
2240_1_KAT_SPRAL
370
     0
100
AcDbLine
 10
644463.3495501671
 20
4144725.276
 30
2188.0419921875
 11
644464.816550167
 21
4144719.885
 31
2187.361083984375
  0
LINE
  5
15F
330
1F
100
AcDbEntity
  8
2240_1_KAT_SPRAL
370
     0
100
AcDbLine
 10
644466.497550167
 20
4144735.145
 30
2189.383056640625
 11
644464.804550167
 21
4144732.412
 31
2189.033935546875
  0
LINE
  5
160
330
1F
100
AcDbEntity
  8
2240_1_KAT_SPRAL
370
     0
100
AcDbLine
 10
644473.901550167
 20
4144742.221
 30
2190.323974609375
 11
644471.1995501671
 21
4144740.516
 31
2189.93603515625
  0
LINE
  5
161
330
1F
100
AcDbEntity
  8
2240_1_KAT_SPRAL
370
     0
100
AcDbLine
 10
644471.1995501671
 20
4144740.516
 30
2189.93603515625
 11
644466.850550167
 21
4144735.514
 31
2189.4541015625
  0
LINE
  5
162
330
1F
100
AcDbEntity
  8
2240_1_KAT_SPRAL
370
     0
100
AcDbLine
 10
644466.850550167
 20
4144735.514
 30
2189.4541015625
 11
644466.497550167
 21
4144735.145
 31
2189.383056640625
  0
LINE
  5
163
330
1F
100
AcDbEntity
  8
2240_1_KAT_SPRAL
370
     0
100
AcDbLine
 10
644480.843550167
 20
4144704.628
 30
2184.8740234375
 11
644484.9935501671
 21
4144704.805
 31
2184.426025390625
  0
LINE
  5
164
330
1F
100
AcDbEntity
  8
2240_1_KAT_SPRAL
370
     0
100
AcDbLine
 10
644498.1285501671
 20
4144738.027
 30
2192.43603515625
 11
644497.9625501671
 21
4144738.372
 31
2192.3798828125
  0
LINE
  5
165
330
1F
100
AcDbEntity
  8
2240_1_KAT_SPRAL
370
     0
100
AcDbLine
 10
644497.9625501671
 20
4144738.372
 30
2192.3798828125
 11
644495.548550167
 21
4144740.398
 31
2192.166015625
  0
LINE
  5
166
330
1F
100
AcDbEntity
  8
2240_1_KAT_SPRAL
370
     0
100
AcDbLine
 10
644495.548550167
 20
4144740.398
 30
2192.166015625
 11
644492.776550167
 21
4144741.784
 31
2191.798095703125
  0
LINE
  5
167
330
1F
100
AcDbEntity
  8
2240_1_KAT_SPRAL
370
     0
100
AcDbLine
 10
644499.646550167
 20
4144734.34
 30
2192.922119140625
 11
644498.1285501671
 21
4144738.027
 31
2192.43603515625
  0
LINE
  5
168
330
1F
100
AcDbEntity
  8
2240_1_KAT_SPRAL
370
     0
100
AcDbLine
 10
644500.043550167
 20
4144727.054
 30
2193.60693359375
 11
644500.029550167
 21
4144730.959
 31
2193.299072265625
  0
LINE
  5
169
330
1F
100
AcDbEntity
  8
2240_1_KAT_SPRAL
370
     0
100
AcDbLine
 10
644500.029550167
 20
4144730.959
 30
2193.299072265625
 11
644499.646550167
 21
4144734.34
 31
2192.922119140625
  0
LINE
  5
16A
330
1F
100
AcDbEntity
  8
2240_1_KAT_SPRAL
370
     0
100
AcDbLine
 10
644472.039550167
 20
4144709.089
 30
2186.132080078125
 11
644477.0815501671
 21
4144705.704
 31
2185.43505859375
  0
LINE
  5
16B
330
1F
100
AcDbEntity
  8
2240_1_KAT_SPRAL
370
     0
100
AcDbLine
 10
644477.0815501671
 20
4144705.704
 30
2185.43505859375
 11
644478.041550167
 21
4144705.347
 31
2185.337890625
  0
LINE
  5
16C
330
1F
100
AcDbEntity
  8
2240_1_KAT_SPRAL
370
     0
100
AcDbLine
 10
644478.041550167
 20
4144705.347
 30
2185.337890625
 11
644480.1825501671
 21
4144704.756
 31
2185.172119140625
  0
LINE
  5
16D
330
1F
100
AcDbEntity
  8
2240_1_KAT_SPRAL
370
     0
100
AcDbLine
 10
644469.228550167
 20
4144711.35
 30
2186.537109375
 11
644472.039550167
 21
4144709.089
 31
2186.132080078125
  0
LINE
  5
16E
330
1F
100
AcDbEntity
  8
2240_1_KAT_SPRAL
370
     0
100
AcDbLine
 10
644464.816550167
 20
4144719.885
 30
2187.361083984375
 11
644466.2365501671
 21
4144715.706
 31
2187.06201171875
  0
LINE
  5
16F
330
1F
100
AcDbEntity
  8
2240_1_KAT_SPRAL
370
     0
100
AcDbLine
 10
644466.2365501671
 20
4144715.706
 30
2187.06201171875
 11
644467.063550167
 21
4144713.73
 31
2186.79296875
  0
LINE
  5
170
330
1F
100
AcDbEntity
  8
2240_1_KAT_SPRAL
370
     0
100
AcDbLine
 10
644467.063550167
 20
4144713.73
 30
2186.79296875
 11
644469.228550167
 21
4144711.35
 31
2186.537109375
  0
LINE
  5
171
330
1F
100
AcDbEntity
  8
2240_1_KAT_SPRAL
370
     0
100
AcDbLine
 10
644467.3685501671
 20
4144741.512
 30
2189.802978515625
 11
644464.6755501671
 21
4144738.31
 31
2189.416015625
  0
LINE
  5
172
330
1F
100
AcDbEntity
  8
2240_1_KAT_SPRAL
370
     0
100
AcDbLine
 10
644470.8955501671
 20
4144744.865
 30
2190.094970703125
 11
644467.3685501671
 21
4144741.512
 31
2189.802978515625
  0
LINE
  5
173
330
1F
100
AcDbEntity
  8
2240_1_KAT_SPRAL
370
     0
100
AcDbLine
 10
644470.9695501671
 20
4144744.943
 30
2190.174072265625
 11
644470.8955501671
 21
4144744.865
 31
2190.094970703125
  0
LINE
  5
174
330
1F
100
AcDbEntity
  8
2240_1_KAT_SPRAL
370
     0
100
AcDbLine
 10
644464.6755501671
 20
4144738.31
 30
2189.416015625
 11
644462.031550167
 21
4144735.277
 31
2189.06005859375
  0
LINE
  5
175
330
1F
100
AcDbEntity
  8
2240_1_KAT_SPRAL
370
     0
100
AcDbLine
 10
644459.870550167
 20
4144728.645
 30
2188.360107421875
 11
644459.7515501671
 21
4144725.317
 31
2188.08203125
  0
LINE
  5
176
330
1F
100
AcDbEntity
  8
2240_1_KAT_SPRAL
370
     0
100
AcDbLine
 10
644460.776550167
 20
4144732.08
 30
2188.6669921875
 11
644459.870550167
 21
4144728.645
 31
2188.360107421875
  0
LINE
  5
177
330
1F
100
AcDbEntity
  8
2240_1_KAT_SPRAL
370
     0
100
AcDbLine
 10
644462.031550167
 20
4144735.277
 30
2189.06005859375
 11
644460.776550167
 21
4144732.08
 31
2188.6669921875
  0
LINE
  5
178
330
1F
100
AcDbEntity
  8
2240_1_KAT_SPRAL
370
     0
100
AcDbLine
 10
644490.098550167
 20
4144746.599
 30
2191.72509765625
 11
644485.4075501671
 21
4144747.151
 31
2191.594970703125
  0
LINE
  5
179
330
1F
100
AcDbEntity
  8
2240_1_KAT_SPRAL
370
     0
100
AcDbLine
 10
644493.3665501671
 20
4144745.387
 30
2191.883056640625
 11
644490.098550167
 21
4144746.599
 31
2191.72509765625
  0
LINE
  5
17A
330
1F
100
AcDbEntity
  8
2240_1_KAT_SPRAL
370
     0
100
AcDbLine
 10
644494.891550167
 20
4144744.396
 30
2191.905029296875
 11
644493.3665501671
 21
4144745.387
 31
2191.883056640625
  0
LINE
  5
17B
330
1F
100
AcDbEntity
  8
2240_1_KAT_SPRAL
370
     0
100
AcDbLine
 10
644485.4075501671
 20
4144747.151
 30
2191.594970703125
 11
644479.788550167
 21
4144747.241
 31
2191.049072265625
  0
LINE
  5
17C
330
1F
100
AcDbEntity
  8
2240_1_KAT_SPRAL
370
     0
100
AcDbLine
 10
644473.972550167
 20
4144746.116
 30
2190.39111328125
 11
644470.9695501671
 21
4144744.943
 31
2190.174072265625
  0
LINE
  5
17D
330
1F
100
AcDbEntity
  8
2240_1_KAT_SPRAL
370
     0
100
AcDbLine
 10
644479.788550167
 20
4144747.241
 30
2191.049072265625
 11
644473.972550167
 21
4144746.116
 31
2190.39111328125
  0
LINE
  5
17E
330
1F
100
AcDbEntity
  8
2240_1_KAT_SPRAL
370
     0
100
AcDbLine
 10
644482.5155501671
 20
4144700.908
 30
2184.7060546875
 11
644489.4695501671
 21
4144702.08
 31
2184.138916015625
  0
LINE
  5
17F
330
1F
100
AcDbEntity
  8
2240_1_KAT_SPRAL
370
     0
100
AcDbLine
 10
644473.289550167
 20
4144703.252
 30
2185.705078125
 11
644482.5155501671
 21
4144700.908
 31
2184.7060546875
  0
LINE
  5
180
330
1F
100
AcDbEntity
  8
2240_1_KAT_SPRAL
370
     0
100
AcDbLine
 10
644471.112550167
 20
4144704.8
 30
2185.988037109375
 11
644473.289550167
 21
4144703.252
 31
2185.705078125
  0
LINE
  5
181
330
1F
100
AcDbEntity
  8
2240_1_KAT_SPRAL
370
     0
100
AcDbLine
 10
644489.4695501671
 20
4144702.08
 30
2184.138916015625
 11
644492.7905501671
 21
4144704.552
 31
2183.719970703125
  0
LINE
  5
182
330
1F
100
AcDbEntity
  8
2240_1_KAT_SPRAL
370
     0
100
AcDbLine
 10
644488.4305501671
 20
4144705.669
 30
2184.0390625
 11
644491.223550167
 21
4144707.862
 31
2183.737060546875
  0
LINE
  5
183
330
1F
100
AcDbEntity
  8
2240_1_KAT_SPRAL
370
     0
100
AcDbLine
 10
644484.9935501671
 20
4144704.805
 30
2184.426025390625
 11
644488.4305501671
 21
4144705.669
 31
2184.0390625
  0
LINE
  5
184
330
1F
100
AcDbEntity
  8
2240_1_KAT_SPRAL
370
     0
100
AcDbLine
 10
644461.384550167
 20
4144716.886
 30
2187.319091796875
 11
644463.705550167
 21
4144712.711
 31
2187.027099609375
  0
LINE
  5
185
330
1F
100
AcDbEntity
  8
2240_1_KAT_SPRAL
370
     0
100
AcDbLine
 10
644459.887550167
 20
4144721.977
 30
2187.8740234375
 11
644461.384550167
 21
4144716.886
 31
2187.319091796875
  0
LINE
  5
186
330
1F
100
AcDbEntity
  8
2240_1_KAT_SPRAL
370
     0
100
AcDbLine
 10
644459.7515501671
 20
4144725.317
 30
2188.08203125
 11
644459.887550167
 21
4144721.977
 31
2187.8740234375
  0
LINE
  5
187
330
1F
100
AcDbEntity
  8
2240_1_KAT_SPRAL
370
     0
100
AcDbLine
 10
644470.1135501671
 20
4144705.71
 30
2186.10498046875
 11
644471.112550167
 21
4144704.8
 31
2185.988037109375
  0
LINE
  5
188
330
1F
100
AcDbEntity
  8
2240_1_KAT_SPRAL
370
     0
100
AcDbLine
 10
644466.718550167
 20
4144709.243
 30
2186.64892578125
 11
644470.1135501671
 21
4144705.71
 31
2186.10498046875
  0
LINE
  5
189
330
1F
100
AcDbEntity
  8
2240_1_KAT_SPRAL
370
     0
100
AcDbLine
 10
644463.705550167
 20
4144712.711
 30
2187.027099609375
 11
644466.718550167
 21
4144709.243
 31
2186.64892578125
  0
LINE
  5
18A
330
1F
100
AcDbEntity
  8
2240_1_KAT_SPRAL
370
     0
100
AcDbLine
 10
644503.2975501671
 20
4144731.764
 30
2193.1708984375
 11
644503.223550167
 21
4144733.478
 31
2193.089111328125
  0
LINE
  5
18B
330
1F
100
AcDbEntity
  8
2240_1_KAT_SPRAL
370
     0
100
AcDbLine
 10
644503.414550167
 20
4144728.524
 30
2193.44091796875
 11
644503.2975501671
 21
4144731.764
 31
2193.1708984375
  0
LINE
  5
18C
330
1F
100
AcDbEntity
  8
2240_1_KAT_SPRAL
370
     0
100
AcDbLine
 10
644503.223550167
 20
4144733.478
 30
2193.089111328125
 11
644502.649550167
 21
4144736.307
 31
2192.7880859375
  0
LINE
  5
18D
330
1F
100
AcDbEntity
  8
2240_1_KAT_SPRAL
370
     0
100
AcDbLine
 10
644497.968550167
 20
4144742.732
 30
2192.220947265625
 11
644494.891550167
 21
4144744.396
 31
2191.905029296875
  0
LINE
  5
18E
330
1F
100
AcDbEntity
  8
2240_1_KAT_SPRAL
370
     0
100
AcDbLine
 10
644501.304550167
 20
4144739.636
 30
2192.487060546875
 11
644497.968550167
 21
4144742.732
 31
2192.220947265625
  0
LINE
  5
18F
330
1F
100
AcDbEntity
  8
2240_1_KAT_SPRAL
370
     0
100
AcDbLine
 10
644502.649550167
 20
4144736.307
 30
2192.7880859375
 11
644501.304550167
 21
4144739.636
 31
2192.487060546875
  0
LINE
  5
190
330
1F
100
AcDbEntity
  8
2240_1_KAT_SPRAL
370
     0
100
AcDbLine
 10
644480.1825501671
 20
4144704.756
 30
2185.172119140625
 11
644480.843550167
 21
4144704.628
 31
2184.8740234375
  0
LINE
  5
191
330
1F
100
AcDbEntity
  8
2177
370
     0
100
AcDbLine
 10
644823.2757132162
 20
4144923.176
 30
2180.35791015625
 11
644821.7817132161
 21
4144921.886
 31
2180.423095703125
  0
LINE
  5
192
330
1F
100
AcDbEntity
  8
2177
370
     0
100
AcDbLine
 10
644821.7817132161
 20
4144921.886
 30
2180.423095703125
 11
644821.0527132162
 21
4144920.269
 31
2180.72509765625
  0
LINE
  5
193
330
1F
100
AcDbEntity
  8
2177
370
     0
100
AcDbLine
 10
644821.0527132162
 20
4144920.269
 30
2180.72509765625
 11
644820.4187132161
 21
4144917.123
 31
2181.344970703125
  0
LINE
  5
194
330
1F
100
AcDbEntity
  8
2177
370
     0
100
AcDbLine
 10
644816.6587132161
 20
4144916.429
 30
2181.697998046875
 11
644817.4087132161
 21
4144918.873
 31
2181.132080078125
  0
LINE
  5
195
330
1F
100
AcDbEntity
  8
2177
370
     0
100
AcDbLine
 10
644817.4087132161
 20
4144918.873
 30
2181.132080078125
 11
644817.9277132162
 21
4144920.591
 31
2180.83203125
  0
LINE
  5
196
330
1F
100
AcDbEntity
  8
2177
370
     0
100
AcDbLine
 10
644817.9277132162
 20
4144920.591
 30
2180.83203125
 11
644817.3557132161
 21
4144921.852
 31
2180.80908203125
  0
LINE
  5
197
330
1F
100
AcDbEntity
  8
2177
370
     0
100
AcDbLine
 10
644816.6587132161
 20
4144916.429
 30
2181.697998046875
 11
644816.117093124
 21
4144915.356
 31
2182.044921875
  0
LINE
  5
198
330
1F
100
AcDbEntity
  8
2177
370
     0
100
AcDbLine
 10
644816.117093124
 20
4144915.356
 30
2182.044921875
 11
644813.213093124
 21
4144911.536
 31
2183.176025390625
  0
LINE
  5
199
330
1F
100
AcDbEntity
  8
2177
370
     0
100
AcDbLine
 10
644813.213093124
 20
4144911.536
 30
2183.176025390625
 11
644810.8860931239
 21
4144908.711
 31
2184.113037109375
  0
LINE
  5
19A
330
1F
100
AcDbEntity
  8
2177
370
     0
100
AcDbLine
 10
644810.8860931239
 20
4144908.711
 30
2184.113037109375
 11
644809.0160931239
 21
4144905.865
 31
2185.087890625
  0
LINE
  5
19B
330
1F
100
AcDbEntity
  8
2177
370
     0
100
AcDbLine
 10
644809.0160931239
 20
4144905.865
 30
2185.087890625
 11
644807.106093124
 21
4144902.826
 31
2185.9990234375
  0
LINE
  5
19C
330
1F
100
AcDbEntity
  8
2177
370
     0
100
AcDbLine
 10
644810.7390931239
 20
4144902.13
 30
2185.778076171875
 11
644811.414093124
 21
4144904.438
 31
2185.032958984375
  0
LINE
  5
19D
330
1F
100
AcDbEntity
  8
2177
370
     0
100
AcDbLine
 10
644811.414093124
 20
4144904.438
 30
2185.032958984375
 11
644812.855093124
 21
4144907.067
 31
2184.22607421875
  0
LINE
  5
19E
330
1F
100
AcDbEntity
  8
2177
370
     0
100
AcDbLine
 10
644812.855093124
 20
4144907.067
 30
2184.22607421875
 11
644814.633093124
 21
4144909.476
 31
2183.39599609375
  0
LINE
  5
19F
330
1F
100
AcDbEntity
  8
2177
370
     0
100
AcDbLine
 10
644814.633093124
 20
4144909.476
 30
2183.39599609375
 11
644818.477093124
 21
4144913.141
 31
2182.0859375
  0
LINE
  5
1A0
330
1F
100
AcDbEntity
  8
2177
370
     0
100
AcDbLine
 10
644818.477093124
 20
4144913.141
 30
2182.0859375
 11
644819.595093124
 21
4144914.876
 31
2181.764892578125
  0
LINE
  5
1A1
330
1F
100
AcDbEntity
  8
2177
370
     0
100
AcDbLine
 10
644819.595093124
 20
4144914.876
 30
2181.764892578125
 11
644820.4187132161
 21
4144917.123
 31
2181.344970703125
  0
LINE
  5
1A2
330
1F
100
AcDbEntity
  8
2177
370
     0
100
AcDbLine
 10
644816.4267372538
 20
4144922.668
 30
2180.14599609375
 11
644817.3557132161
 21
4144921.852
 31
2180.80908203125
  0
LINE
  5
1A3
330
1F
100
AcDbEntity
  8
2177
370
     0
100
AcDbLine
 10
644780.5188125494
 20
4144988.937554483
 30
2176.722900390625
 11
644773.8532928355
 21
4144989.361
 31
2176.552001953125
  0
LINE
  5
1A4
330
1F
100
AcDbEntity
  8
2177
370
     0
100
AcDbLine
 10
644821.2702928355
 20
4144985.877
 30
2180.455078125
 11
644831.7392928355
 21
4144986.89
 31
2180.820068359375
  0
LINE
  5
1A5
330
1F
100
AcDbEntity
  8
2177
370
     0
100
AcDbLine
 10
644832.8362928355
 20
4144983.253
 30
2180.655029296875
 11
644834.3362928355
 21
4144974.883
 31
2180.541015625
  0
LINE
  5
1A6
330
1F
100
AcDbEntity
  8
2177
370
     0
100
AcDbLine
 10
644844.8452308475
 20
4144933.556045516
 30
2180.251953125
 11
644846.5322893504
 21
4144934.598954409
 31
2180.138916015625
  0
LINE
  5
1A7
330
1F
100
AcDbEntity
  8
2177
370
     0
100
AcDbLine
 10
644809.8982357336
 20
4144924.42296884
 30
2180.465087890625
 11
644815.8037933216
 21
4144926.145133628
 31
2180.388916015625
  0
LINE
  5
1A8
330
1F
100
AcDbEntity
  8
2177
370
     0
100
AcDbLine
 10
644813.8872104246
 20
4144922.282332603
 30
2180.5458984375
 11
644816.4267372538
 21
4144922.668
 31
2180.14599609375
  0
LINE
  5
1A9
330
1F
100
AcDbEntity
  8
2177
370
     0
100
AcDbLine
 10
644823.2757132162
 20
4144923.176
 30
2180.35791015625
 11
644825.9792022263
 21
4144924.420988738
 31
2180.625
  0
LINE
  5
1AA
330
1F
100
AcDbEntity
  8
2177
370
     0
100
AcDbLine
 10
644807.106093124
 20
4144902.826
 30
2185.9990234375
 11
644810.7390931239
 21
4144902.13
 31
2185.778076171875
  0
LINE
  5
1AB
330
1F
100
AcDbEntity
  8
ANA_GALERI
370
     0
100
AcDbLine
 10
644673.517
 20
4144953.638
 30
2168.64111328125
 11
644677.0632928355
 21
4144954.59
 31
2168.322021484375
  0
LINE
  5
1AC
330
1F
100
AcDbEntity
  8
ANA_GALERI
370
     0
100
AcDbLine
 10
644506.1927963477
 20
4144727.853
 30
2181.699951171875
 11
644494.455550167
 21
4144713.292
 31
2182.864013671875
  0
LINE
  5
1AD
330
1F
100
AcDbEntity
  8
ANA_GALERI
370
     0
100
AcDbLine
 10
644931.3811382514
 20
4145111.998
 30
2156.72705078125
 11
644932.3571382513
 21
4145116.608
 31
2156.533935546875
  0
TEXT
  5
32A
330
1F
100
AcDbEntity
  8
TEXT_BLUE
370
     0
100
AcDbText
 10
644934.8695705319
 20
4145113.78841394
 30
0.0
 40
2.0
  1
ANA GALERI GIRIS
100
AcDbText
  0
LWPOLYLINE
  5
32B
330
1F
100
AcDbEntity
  8
ANA_GALERI
370
     0
100
AcDbPolyline
 90
        5
 70
     1
 43
0.0
 10
644929.0951004347
 20
4145127.867258278
 10
644942.1739447721
 20
4145127.867258278
 10
644942.1739447721
 20
4145134.828578651
 10
644929.0951004347
 20
4145134.828578651
 10
644929.0951004347
 20
4145127.867258278
  0
TEXT
  5
32C
330
1F
100
AcDbEntity
  8
TEXT_BLUE
370
     0
100
AcDbText
 10
644943.2569924917
 20
4145130.382479826
 30
0.0
 40
2.0
  1
IZLEME ODASI
100
AcDbText
  0
TEXT
  5
32D
330
1F
100
AcDbEntity
  8
TEXT_BLUE
370
     0
100
AcDbText
 10
644712.0606870848
 20
4144951.678305816
 30
0.0
 40
2.0
  1
2177
100
AcDbText
  0
POINT
  5
399
330
1F
100
AcDbEntity
  8
INIT_COORD
100
AcDbPoint
 10
644931.8691382513
 20
4145114.303
 30
2156.630493164062
  0
ENDSEC
  0
SECTION
  2
OBJECTS
  0
DICTIONARY
  5
C
330
0
100
AcDbDictionary
281
     1
  3
ACAD_DETAILVIEWSTYLE
350
389
  3
ACAD_GROUP
350
D
  3
ACAD_IMAGE_VARS
350
380
  3
ACAD_LAYOUT
350
1A
  3
ACAD_MATERIAL
350
3B
  3
ACAD_MLEADERSTYLE
350
34F
  3
ACAD_MLINESTYLE
350
17
  3
ACAD_PLOTSETTINGS
350
19
  3
ACAD_PLOTSTYLENAME
350
E
  3
ACAD_SCALELIST
350
350
  3
ACAD_SECTIONVIEWSTYLE
350
38A
  3
ACAD_TABLESTYLE
350
34E
  3
ACAD_VISUALSTYLE
350
2A
  3
ACDB_RECOMPOSE_DATA
350
42A
  3
AcDbVariableDictionary
350
384
  3
APPDATA
350
37E
  0
SUN
  5
37F
330
29
100
AcDbSun
 90
        1
290
     0
 63
     7
421
 16777215
 40
1.0
291
     1
 91
  2455826
 92
 54000000
292
     0
 70
     2
 71
   256
280
     1
  0
DICTIONARY
  5
381
330
2
100
AcDbDictionary
280
     1
281
     1
  3
ACAD_LAYERSTATES
360
38B
  3
ACLYDICTIONARY
360
427
  0
DICTIONARY
  5
389
102
{ACAD_REACTORS
330
C
102
}
330
C
100
AcDbDictionary
281
     1
  0
DICTIONARY
  5
D
102
{ACAD_REACTORS
330
C
102
}
330
C
100
AcDbDictionary
281
     1
  0
RASTERVARIABLES
  5
380
102
{ACAD_REACTORS
330
C
102
}
330
C
100
AcDbRasterVariables
 90
        0
 70
     1
 71
     1
 72
     1
  0
DICTIONARY
  5
1A
102
{ACAD_REACTORS
330
C
102
}
330
C
100
AcDbDictionary
281
     1
  3
Layout1
350
1E
  3
Layout2
350
26
  3
Model
350
22
  0
DICTIONARY
  5
3B
102
{ACAD_REACTORS
330
C
102
}
330
C
100
AcDbDictionary
281
     1
  3
ByBlock
350
3D
  3
ByLayer
350
3C
  3
Global
350
3E
  0
DICTIONARY
  5
34F
102
{ACAD_REACTORS
330
C
102
}
330
C
100
AcDbDictionary
281
     1
  3
Standard
350
37D
  0
DICTIONARY
  5
17
102
{ACAD_REACTORS
330
C
102
}
330
C
100
AcDbDictionary
281
     1
  3
Standard
350
18
  0
DICTIONARY
  5
19
102
{ACAD_REACTORS
330
C
102
}
330
C
100
AcDbDictionary
281
     1
  0
ACDBDICTIONARYWDFLT
  5
E
102
{ACAD_REACTORS
330
C
102
}
330
C
100
AcDbDictionary
281
     1
  3
Normal
350
F
100
AcDbDictionaryWithDefault
340
F
  0
DICTIONARY
  5
350
102
{ACAD_REACTORS
330
C
102
}
330
C
100
AcDbDictionary
281
     1
  3
A0
350
351
  3
A1
350
352
  3
A2
350
353
  3
A3
350
354
  3
A4
350
355
  3
A5
350
356
  3
A6
350
357
  3
A7
350
358
  3
A8
350
359
  3
A9
350
35A
  3
B0
350
35B
  3
B1
350
35C
  3
B2
350
35D
  3
B3
350
35E
  3
B4
350
35F
  3
B5
350
360
  3
B6
350
361
  3
B7
350
362
  3
B8
350
363
  3
B9
350
364
  3
C0
350
365
  3
C1
350
366
  3
C2
350
367
  3
C3
350
368
  3
C4
350
369
  3
C5
350
36A
  3
C6
350
36B
  3
C7
350
36C
  3
C8
350
36D
  3
C9
350
36E
  3
D0
350
36F
  3
D1
350
370
  3
D2
350
371
  0
DICTIONARY
  5
38A
102
{ACAD_REACTORS
330
C
102
}
330
C
100
AcDbDictionary
281
     1
  0
DICTIONARY
  5
34E
102
{ACAD_REACTORS
330
C
102
}
330
C
100
AcDbDictionary
281
     1
  3
Standard
350
37C
  0
DICTIONARY
  5
2A
102
{ACAD_REACTORS
330
C
102
}
330
C
100
AcDbDictionary
281
     1
  3
2dWireframe
350
2F
  3
3D Hidden
350
31
  3
3dWireframe
350
30
  3
Basic
350
32
  3
Brighten
350
36
  3
ColorChange
350
3A
  3
Conceptual
350
34
  3
Dim
350
35
  3
EdgeColorOff
350
376
  3
Facepattern
350
39
  3
Flat
350
2B
  3
FlatWithEdges
350
2C
  3
Gouraud
350
2D
  3
GouraudWithEdges
350
2E
  3
Hidden
350
373
  3
JitterOff
350
374
  3
Linepattern
350
38
  3
OverhangOff
350
375
  3
Realistic
350
33
  3
Shaded
350
37B
  3
Shaded with edges
350
37A
  3
Shades of Gray
350
377
  3
Sketchy
350
378
  3
Thicken
350
37
  3
Wireframe
350
372
  3
X-Ray
350
379
  0
XRECORD
  5
42A
102
{ACAD_REACTORS
330
C
102
}
330
C
100
AcDbXrecord
280
     1
 90
        1
330
37C
  0
DICTIONARY
  5
384
102
{ACAD_REACTORS
330
C
102
}
330
C
100
AcDbDictionary
281
     1
  3
CANNOSCALE
350
385
  3
CMLEADERSTYLE
350
387
  3
CTABLESTYLE
350
386
  3
XCLIPFRAME
350
388
  0
DICTIONARY
  5
37E
102
{ACAD_REACTORS
330
C
102
}
330
C
100
AcDbDictionary
281
     1
  0
DICTIONARY
  5
38B
102
{ACAD_REACTORS
330
381
102
}
330
381
100
AcDbDictionary
281
     1
  0
DICTIONARY
  5
427
102
{ACAD_REACTORS
330
381
102
}
330
381
100
AcDbDictionary
281
     1
1001
ACAD
1000
<All
  0
LAYOUT
  5
1E
102
{ACAD_REACTORS
330
1A
102
}
330
1A
100
AcDbPlotSettings
  1

  2
none_device
  4

  6

 40
0.0
 41
0.0
 42
0.0
 43
0.0
 44
0.0
 45
0.0
 46
0.0
 47
0.0
 48
0.0
 49
0.0
140
0.0
141
0.0
142
1.0
143
1.0
 70
   688
 72
     0
 73
     0
 74
     5
  7

 75
    16
 76
     0
 77
     2
 78
   300
147
1.0
148
0.0
149
0.0
100
AcDbLayout
  1
Layout1
 70
     1
 71
     1
 10
0.0
 20
0.0
 11
420.0
 21
297.0
 12
0.0
 22
0.0
 32
0.0
 14
1.000000000000000E+20
 24
1.000000000000000E+20
 34
1.000000000000000E+20
 15
-1.000000000000000E+20
 25
-1.000000000000000E+20
 35
-1.000000000000000E+20
146
0.0
 13
0.0
 23
0.0
 33
0.0
 16
1.0
 26
0.0
 36
0.0
 17
0.0
 27
1.0
 37
0.0
 76
     0
330
1B
  0
LAYOUT
  5
26
102
{ACAD_REACTORS
330
1A
102
}
330
1A
100
AcDbPlotSettings
  1

  2
none_device
  4

  6

 40
0.0
 41
0.0
 42
0.0
 43
0.0
 44
0.0
 45
0.0
 46
0.0
 47
0.0
 48
0.0
 49
0.0
140
0.0
141
0.0
142
1.0
143
1.0
 70
   688
 72
     0
 73
     0
 74
     5
  7

 75
    16
 76
     0
 77
     2
 78
   300
147
1.0
148
0.0
149
0.0
100
AcDbLayout
  1
Layout2
 70
     1
 71
     2
 10
0.0
 20
0.0
 11
0.0
 21
0.0
 12
0.0
 22
0.0
 32
0.0
 14
0.0
 24
0.0
 34
0.0
 15
0.0
 25
0.0
 35
0.0
146
0.0
 13
0.0
 23
0.0
 33
0.0
 16
1.0
 26
0.0
 36
0.0
 17
0.0
 27
1.0
 37
0.0
 76
     0
330
23
  0
LAYOUT
  5
22
102
{ACAD_REACTORS
330
1A
102
}
330
1A
100
AcDbPlotSettings
  1

  2
none_device
  4

  6

 40
0.0
 41
0.0
 42
0.0
 43
0.0
 44
0.0
 45
0.0
 46
0.0
 47
0.0
 48
0.0
 49
0.0
140
0.0
141
0.0
142
1.0
143
1.0
 70
  1712
 72
     0
 73
     0
 74
     0
  7

 75
     0
 76
     0
 77
     2
 78
   300
147
1.0
148
0.0
149
0.0
100
AcDbLayout
  1
Model
 70
     1
 71
     0
 10
0.0
 20
0.0
 11
420.0
 21
297.0
 12
0.0
 22
0.0
 32
0.0
 14
644459.7515501671
 24
4144700.908
 34
0.0
 15
644963.7875230222
 25
4145134.828578651
 35
2193.60693359375
146
0.0
 13
0.0
 23
0.0
 33
0.0
 16
1.0
 26
0.0
 36
0.0
 17
0.0
 27
1.0
 37
0.0
 76
     0
330
1F
331
29
  0
MATERIAL
  5
3D
102
{ACAD_REACTORS
330
3B
102
}
330
3B
100
AcDbMaterial
  1
ByBlock
 72
     1
 94
      127
  0
MATERIAL
  5
3C
102
{ACAD_REACTORS
330
3B
102
}
330
3B
100
AcDbMaterial
  1
ByLayer
 72
     1
 94
      127
  0
MATERIAL
  5
3E
102
{ACAD_REACTORS
330
3B
102
}
330
3B
100
AcDbMaterial
  1
Global
 72
     1
 94
      127
  0
MLEADERSTYLE
  5
37D
102
{ACAD_REACTORS
330
34F
102
}
330
34F
100
AcDbMLeaderStyle
179
     2
170
     2
171
     1
172
     0
 90
        2
 40
0.0
 41
0.0
173
     1
 91
-1056964608
340
14
 92
       -2
290
     1
 42
2.0
291
     1
 43
8.0
  3
Standard
341
0
 44
4.0
300

342
11
174
     1
178
     6
175
     1
176
     0
 93
-1056964608
 45
4.0
292
     0
297
     0
 46
4.0
343
0
 94
-1056964608
 47
1.0
 49
1.0
140
1.0
293
     1
141
0.0
294
     1
177
     0
142
1.0
295
     0
296
     0
143
3.75
271
     0
272
     9
273
     9
  0
MLINESTYLE
  5
18
102
{ACAD_REACTORS
330
17
102
}
330
17
100
AcDbMlineStyle
  2
Standard
 70
     0
  3

 62
   256
 51
90.0
 52
90.0
 71
     2
 49
0.5
 62
   256
  6
BYLAYER
 49
-0.5
 62
   256
  6
BYLAYER
  0
ACDBPLACEHOLDER
  5
F
102
{ACAD_REACTORS
330
E
102
}
330
E
  0
SCALE
  5
351
102
{ACAD_REACTORS
330
350
102
}
330
350
100
AcDbScale
 70
     0
300
1:1
140
1.0
141
1.0
290
     1
  0
SCALE
  5
352
102
{ACAD_REACTORS
330
350
102
}
330
350
100
AcDbScale
 70
     0
300
1:2
140
1.0
141
2.0
290
     0
  0
SCALE
  5
353
102
{ACAD_REACTORS
330
350
102
}
330
350
100
AcDbScale
 70
     0
300
1:4
140
1.0
141
4.0
290
     0
  0
SCALE
  5
354
102
{ACAD_REACTORS
330
350
102
}
330
350
100
AcDbScale
 70
     0
300
1:5
140
1.0
141
5.0
290
     0
  0
SCALE
  5
355
102
{ACAD_REACTORS
330
350
102
}
330
350
100
AcDbScale
 70
     0
300
1:8
140
1.0
141
8.0
290
     0
  0
SCALE
  5
356
102
{ACAD_REACTORS
330
350
102
}
330
350
100
AcDbScale
 70
     0
300
1:10
140
1.0
141
10.0
290
     0
  0
SCALE
  5
357
102
{ACAD_REACTORS
330
350
102
}
330
350
100
AcDbScale
 70
     0
300
1:16
140
1.0
141
16.0
290
     0
  0
SCALE
  5
358
102
{ACAD_REACTORS
330
350
102
}
330
350
100
AcDbScale
 70
     0
300
1:20
140
1.0
141
20.0
290
     0
  0
SCALE
  5
359
102
{ACAD_REACTORS
330
350
102
}
330
350
100
AcDbScale
 70
     0
300
1:30
140
1.0
141
30.0
290
     0
  0
SCALE
  5
35A
102
{ACAD_REACTORS
330
350
102
}
330
350
100
AcDbScale
 70
     0
300
1:40
140
1.0
141
40.0
290
     0
  0
SCALE
  5
35B
102
{ACAD_REACTORS
330
350
102
}
330
350
100
AcDbScale
 70
     0
300
1:50
140
1.0
141
50.0
290
     0
  0
SCALE
  5
35C
102
{ACAD_REACTORS
330
350
102
}
330
350
100
AcDbScale
 70
     0
300
1:100
140
1.0
141
100.0
290
     0
  0
SCALE
  5
35D
102
{ACAD_REACTORS
330
350
102
}
330
350
100
AcDbScale
 70
     0
300
2:1
140
2.0
141
1.0
290
     0
  0
SCALE
  5
35E
102
{ACAD_REACTORS
330
350
102
}
330
350
100
AcDbScale
 70
     0
300
4:1
140
4.0
141
1.0
290
     0
  0
SCALE
  5
35F
102
{ACAD_REACTORS
330
350
102
}
330
350
100
AcDbScale
 70
     0
300
8:1
140
8.0
141
1.0
290
     0
  0
SCALE
  5
360
102
{ACAD_REACTORS
330
350
102
}
330
350
100
AcDbScale
 70
     0
300
10:1
140
10.0
141
1.0
290
     0
  0
SCALE
  5
361
102
{ACAD_REACTORS
330
350
102
}
330
350
100
AcDbScale
 70
     0
300
100:1
140
100.0
141
1.0
290
     0
  0
SCALE
  5
362
102
{ACAD_REACTORS
330
350
102
}
330
350
100
AcDbScale
 70
     0
300
1/128" = 1'-0"
140
0.0078125
141
12.0
290
     0
  0
SCALE
  5
363
102
{ACAD_REACTORS
330
350
102
}
330
350
100
AcDbScale
 70
     0
300
1/64" = 1'-0"
140
0.015625
141
12.0
290
     0
  0
SCALE
  5
364
102
{ACAD_REACTORS
330
350
102
}
330
350
100
AcDbScale
 70
     0
300
1/32" = 1'-0"
140
0.03125
141
12.0
290
     0
  0
SCALE
  5
365
102
{ACAD_REACTORS
330
350
102
}
330
350
100
AcDbScale
 70
     0
300
1/16" = 1'-0"
140
0.0625
141
12.0
290
     0
  0
SCALE
  5
366
102
{ACAD_REACTORS
330
350
102
}
330
350
100
AcDbScale
 70
     0
300
3/32" = 1'-0"
140
0.09375
141
12.0
290
     0
  0
SCALE
  5
367
102
{ACAD_REACTORS
330
350
102
}
330
350
100
AcDbScale
 70
     0
300
1/8" = 1'-0"
140
0.125
141
12.0
290
     0
  0
SCALE
  5
368
102
{ACAD_REACTORS
330
350
102
}
330
350
100
AcDbScale
 70
     0
300
3/16" = 1'-0"
140
0.1875
141
12.0
290
     0
  0
SCALE
  5
369
102
{ACAD_REACTORS
330
350
102
}
330
350
100
AcDbScale
 70
     0
300
1/4" = 1'-0"
140
0.25
141
12.0
290
     0
  0
SCALE
  5
36A
102
{ACAD_REACTORS
330
350
102
}
330
350
100
AcDbScale
 70
     0
300
3/8" = 1'-0"
140
0.375
141
12.0
290
     0
  0
SCALE
  5
36B
102
{ACAD_REACTORS
330
350
102
}
330
350
100
AcDbScale
 70
     0
300
1/2" = 1'-0"
140
0.5
141
12.0
290
     0
  0
SCALE
  5
36C
102
{ACAD_REACTORS
330
350
102
}
330
350
100
AcDbScale
 70
     0
300
3/4" = 1'-0"
140
0.75
141
12.0
290
     0
  0
SCALE
  5
36D
102
{ACAD_REACTORS
330
350
102
}
330
350
100
AcDbScale
 70
     0
300
1" = 1'-0"
140
1.0
141
12.0
290
     0
  0
SCALE
  5
36E
102
{ACAD_REACTORS
330
350
102
}
330
350
100
AcDbScale
 70
     0
300
1-1/2" = 1'-0"
140
1.5
141
12.0
290
     0
  0
SCALE
  5
36F
102
{ACAD_REACTORS
330
350
102
}
330
350
100
AcDbScale
 70
     0
300
3" = 1'-0"
140
3.0
141
12.0
290
     0
  0
SCALE
  5
370
102
{ACAD_REACTORS
330
350
102
}
330
350
100
AcDbScale
 70
     0
300
6" = 1'-0"
140
6.0
141
12.0
290
     0
  0
SCALE
  5
371
102
{ACAD_REACTORS
330
350
102
}
330
350
100
AcDbScale
 70
     0
300
1'-0" = 1'-0"
140
12.0
141
12.0
290
     0
  0
TABLESTYLE
  5
37C
102
{ACAD_REACTORS
330
34E
102
}
102
{ACAD_XDICTIONARY
360
428
102
}
330
34E
100
AcDbTableStyle
  3
Standard
 70
     0
 71
     0
 40
0.06
 41
0.06
280
     0
281
     0
  7
Standard
140
4.5
170
     2
 62
     0
 63
   257
283
     0
 90
        4
 91
        0
  1

274
    -2
284
     1
 64
     0
275
    -2
285
     1
 65
     0
276
    -2
286
     1
 66
     0
277
    -2
287
     1
 67
     0
278
    -2
288
     1
 68
     0
279
    -2
289
     1
 69
     0
  7
Standard
140
6.0
170
     5
 62
     0
 63
   257
283
     0
 90
        4
 91
        0
  1

274
    -2
284
     1
 64
     0
275
    -2
285
     1
 65
     0
276
    -2
286
     1
 66
     0
277
    -2
287
     1
 67
     0
278
    -2
288
     1
 68
     0
279
    -2
289
     1
 69
     0
  7
Standard
140
4.5
170
     5
 62
     0
 63
   257
283
     0
 90
        4
 91
        0
  1

274
    -2
284
     1
 64
     0
275
    -2
285
     1
 65
     0
276
    -2
286
     1
 66
     0
277
    -2
287
     1
 67
     0
278
    -2
288
     1
 68
     0
279
    -2
289
     1
 69
     0
  0
VISUALSTYLE
  5
2F
102
{ACAD_REACTORS
330
2A
102
}
330
2A
100
AcDbVisualStyle
  2
2dWireframe
 70
     4
177
     2
291
     0
 71
     0
176
     1
 72
     2
176
     1
 73
     0
176
     1
 90
        0
176
     1
 40
-0.6
176
     1
 41
-30.0
176
     1
 62
     5
 63
     7
421
 16777215
176
     1
 74
     1
176
     1
 91
        4
176
     1
 64
     7
176
     1
 65
   257
176
     1
 75
     1
176
     1
175
     1
176
     1
 42
1.0
176
     1
 92
        0
176
     1
 66
   257
176
     1
 43
1.0
176
     1
 76
     1
176
     1
 77
     6
176
     1
 78
     2
176
     1
 67
     7
176
     1
 79
     5
176
     1
170
     0
176
     1
171
     0
176
     1
290
     0
176
     1
 93
        1
176
     1
 44
0.0
176
     1
173
     0
176
     1
  0
VISUALSTYLE
  5
31
102
{ACAD_REACTORS
330
2A
102
}
330
2A
100
AcDbVisualStyle
  2
3D Hidden
 70
     6
177
     2
291
     0
 71
     1
176
     1
 72
     2
176
     1
 73
     2
176
     1
 90
        0
176
     1
 40
-0.6
176
     1
 41
-30.0
176
     1
 62
     5
 63
     7
421
 16777215
176
     1
 74
     2
176
     1
 91
        2
176
     1
 64
     7
176
     1
 65
   257
176
     1
 75
     2
176
     1
175
     1
176
     1
 42
40.0
176
     1
 92
        0
176
     1
 66
   257
176
     1
 43
1.0
176
     1
 76
     1
176
     1
 77
     6
176
     1
 78
     2
176
     1
 67
     7
176
     1
 79
     3
176
     1
170
     0
176
     1
171
     0
176
     1
290
     0
176
     1
 93
        1
176
     1
 44
0.0
176
     1
173
     0
176
     1
  0
VISUALSTYLE
  5
30
102
{ACAD_REACTORS
330
2A
102
}
330
2A
100
AcDbVisualStyle
  2
3dWireframe
 70
     5
177
     2
291
     0
 71
     0
176
     1
 72
     2
176
     1
 73
     0
176
     1
 90
        0
176
     1
 40
-0.6
176
     1
 41
-30.0
176
     1
 62
     5
 63
     7
421
 16777215
176
     1
 74
     1
176
     1
 91
        4
176
     1
 64
     7
176
     1
 65
   257
176
     1
 75
     1
176
     1
175
     1
176
     1
 42
1.0
176
     1
 92
        0
176
     1
 66
   257
176
     1
 43
1.0
176
     1
 76
     1
176
     1
 77
     6
176
     1
 78
     2
176
     1
 67
     7
176
     1
 79
     5
176
     1
170
     0
176
     1
171
     0
176
     1
290
     0
176
     1
 93
        1
176
     1
 44
0.0
176
     1
173
     0
176
     1
  0
VISUALSTYLE
  5
32
102
{ACAD_REACTORS
330
2A
102
}
330
2A
100
AcDbVisualStyle
  2
Basic
 70
     7
177
     2
291
     1
 71
     1
176
     1
 72
     0
176
     1
 73
     1
176
     1
 90
        0
176
     1
 40
-0.6
176
     1
 41
-30.0
176
     1
 62
     5
 63
     7
421
 16777215
176
     1
 74
     0
176
     1
 91
        4
176
     1
 64
     7
176
     1
 65
   257
176
     1
 75
     1
176
     1
175
     1
176
     1
 42
1.0
176
     1
 92
        8
176
     1
 66
     7
176
     1
 43
1.0
176
     1
 76
     1
176
     1
 77
     6
176
     1
 78
     2
176
     1
 67
     7
176
     1
 79
     5
176
     1
170
     0
176
     1
171
     0
176
     1
290
     0
176
     1
 93
        1
176
     1
 44
0.0
176
     1
173
     0
176
     1
  0
VISUALSTYLE
  5
36
102
{ACAD_REACTORS
330
2A
102
}
330
2A
100
AcDbVisualStyle
  2
Brighten
 70
    12
177
     2
291
     1
 71
     2
176
     1
 72
     2
176
     1
 73
     0
176
     1
 90
        0
176
     1
 40
-0.6
176
     1
 41
-30.0
176
     1
 62
     5
 63
     7
421
 16777215
176
     1
 74
     1
176
     1
 91
        4
176
     1
 64
     7
176
     1
 65
   257
176
     1
 75
     1
176
     1
175
     1
176
     1
 42
1.0
176
     1
 92
        8
176
     1
 66
     7
176
     1
 43
1.0
176
     1
 76
     1
176
     1
 77
     6
176
     1
 78
     2
176
     1
 67
     7
176
     1
 79
     5
176
     1
170
     0
176
     1
171
     0
176
     1
290
     0
176
     1
 93
        1
176
     1
 44
50.0
176
     1
173
     0
176
     1
  0
VISUALSTYLE
  5
3A
102
{ACAD_REACTORS
330
2A
102
}
330
2A
100
AcDbVisualStyle
  2
ColorChange
 70
    16
177
     2
291
     1
 71
     2
176
     1
 72
     2
176
     1
 73
     3
176
     1
 90
        0
176
     1
 40
-0.6
176
     1
 41
-30.0
176
     1
 62
     5
 63
     8
421
  8421504
176
     1
 74
     1
176
     1
 91
        4
176
     1
 64
     7
176
     1
 65
   257
176
     1
 75
     1
176
     1
175
     1
176
     1
 42
1.0
176
     1
 92
        8
176
     1
 66
     8
424
  8421504
176
     1
 43
1.0
176
     1
 76
     1
176
     1
 77
     6
176
     1
 78
     2
176
     1
 67
     7
176
     1
 79
     5
176
     1
170
     0
176
     1
171
     0
176
     1
290
     0
176
     1
 93
        1
176
     1
 44
0.0
176
     1
173
     0
176
     1
  0
VISUALSTYLE
  5
34
102
{ACAD_REACTORS
330
2A
102
}
330
2A
100
AcDbVisualStyle
  2
Conceptual
 70
     9
177
     2
291
     0
 71
     3
176
     1
 72
     2
176
     1
 73
     0
176
     1
 90
        0
176
     1
 40
-0.6
176
     1
 41
-30.0
176
     1
 62
     5
 63
     7
421
 16777215
176
     1
 74
     2
176
     1
 91
        2
176
     1
 64
     7
176
     1
 65
   257
176
     1
 75
     1
176
     1
175
     1
176
     1
 42
40.0
176
     1
 92
        8
176
     1
 66
     7
176
     1
 43
1.0
176
     1
 76
     1
176
     1
 77
     6
176
     1
 78
     2
176
     1
 67
     7
176
     1
 79
     3
176
     1
170
     0
176
     1
171
     0
176
     1
290
     0
176
     1
 93
        1
176
     1
 44
0.0
176
     1
173
     0
176
     1
  0
VISUALSTYLE
  5
35
102
{ACAD_REACTORS
330
2A
102
}
330
2A
100
AcDbVisualStyle
  2
Dim
 70
    11
177
     2
291
     1
 71
     2
176
     1
 72
     2
176
     1
 73
     0
176
     1
 90
        0
176
     1
 40
-0.6
176
     1
 41
-30.0
176
     1
 62
     5
 63
     7
421
 16777215
176
     1
 74
     1
176
     1
 91
        4
176
     1
 64
     7
176
     1
 65
   257
176
     1
 75
     1
176
     1
175
     1
176
     1
 42
1.0
176
     1
 92
        8
176
     1
 66
     7
176
     1
 43
1.0
176
     1
 76
     1
176
     1
 77
     6
176
     1
 78
     2
176
     1
 67
     7
176
     1
 79
     5
176
     1
170
     0
176
     1
171
     0
176
     1
290
     0
176
     1
 93
        1
176
     1
 44
-50.0
176
     1
173
     0
176
     1
  0
VISUALSTYLE
  5
376
102
{ACAD_REACTORS
330
2A
102
}
330
2A
100
AcDbVisualStyle
  2
EdgeColorOff
 70
    22
177
     2
291
     1
 71
     2
176
     0
 72
     2
176
     0
 73
     0
176
     0
 90
        0
176
     0
 40
0.6
176
     0
 41
30.0
176
     0
 62
     5
 63
     7
421
 16777215
176
     0
 74
     1
176
     0
 91
        4
176
     0
 64
     7
176
     0
 65
   257
176
     0
 75
     1
176
     0
175
     1
176
     0
 42
1.0
176
     0
 92
        8
176
     2
 66
     7
176
     0
 43
1.0
176
     0
 76
     1
176
     0
 77
     6
176
     0
 78
     2
176
     0
 67
     7
176
     0
 79
     5
176
     0
170
     0
176
     0
171
     0
176
     0
290
     0
176
     0
 93
        1
176
     0
 44
0.0
176
     0
173
     0
176
     0
  0
VISUALSTYLE
  5
39
102
{ACAD_REACTORS
330
2A
102
}
330
2A
100
AcDbVisualStyle
  2
Facepattern
 70
    15
177
     2
291
     1
 71
     2
176
     1
 72
     2
176
     1
 73
     0
176
     1
 90
        0
176
     1
 40
-0.6
176
     1
 41
-30.0
176
     1
 62
     5
 63
     7
421
 16777215
176
     1
 74
     1
176
     1
 91
        4
176
     1
 64
     7
176
     1
 65
   257
176
     1
 75
     1
176
     1
175
     1
176
     1
 42
1.0
176
     1
 92
        8
176
     1
 66
     7
176
     1
 43
1.0
176
     1
 76
     1
176
     1
 77
     6
176
     1
 78
     2
176
     1
 67
     7
176
     1
 79
     5
176
     1
170
     0
176
     1
171
     0
176
     1
290
     0
176
     1
 93
        1
176
     1
 44
0.0
176
     1
173
     0
176
     1
  0
VISUALSTYLE
  5
2B
102
{ACAD_REACTORS
330
2A
102
}
330
2A
100
AcDbVisualStyle
  2
Flat
 70
     0
177
     2
291
     1
 71
     2
176
     1
 72
     1
176
     1
 73
     1
176
     1
 90
        2
176
     1
 40
-0.6
176
     1
 41
30.0
176
     1
 62
     5
 63
     7
421
 16777215
176
     1
 74
     0
176
     1
 91
        4
176
     1
 64
     7
176
     1
 65
   257
176
     1
 75
     1
176
     1
175
     1
176
     1
 42
1.0
176
     1
 92
        8
176
     1
 66
     7
176
     1
 43
1.0
176
     1
 76
     1
176
     1
 77
     6
176
     1
 78
     2
176
     1
 67
     7
176
     1
 79
     5
176
     1
170
     0
176
     1
171
     0
176
     1
290
     0
176
     1
 93
       13
176
     1
 44
0.0
176
     1
173
     0
176
     1
  0
VISUALSTYLE
  5
2C
102
{ACAD_REACTORS
330
2A
102
}
330
2A
100
AcDbVisualStyle
  2
FlatWithEdges
 70
     1
177
     2
291
     1
 71
     2
176
     1
 72
     1
176
     1
 73
     1
176
     1
 90
        2
176
     1
 40
-0.6
176
     1
 41
30.0
176
     1
 62
     5
 63
     7
421
 16777215
176
     1
 74
     1
176
     1
 91
        4
176
     1
 64
     7
176
     1
 65
   257
176
     1
 75
     1
176
     1
175
     1
176
     1
 42
1.0
176
     1
 92
        0
176
     1
 66
   257
176
     1
 43
1.0
176
     1
 76
     1
176
     1
 77
     6
176
     1
 78
     2
176
     1
 67
     7
176
     1
 79
     5
176
     1
170
     0
176
     1
171
     0
176
     1
290
     0
176
     1
 93
       13
176
     1
 44
0.0
176
     1
173
     0
176
     1
  0
VISUALSTYLE
  5
2D
102
{ACAD_REACTORS
330
2A
102
}
330
2A
100
AcDbVisualStyle
  2
Gouraud
 70
     2
177
     2
291
     1
 71
     2
176
     1
 72
     2
176
     1
 73
     1
176
     1
 90
        2
176
     1
 40
-0.6
176
     1
 41
30.0
176
     1
 62
     5
 63
     7
421
 16777215
176
     1
 74
     0
176
     1
 91
        4
176
     1
 64
     7
176
     1
 65
   257
176
     1
 75
     1
176
     1
175
     1
176
     1
 42
1.0
176
     1
 92
        0
176
     1
 66
     7
176
     1
 43
1.0
176
     1
 76
     1
176
     1
 77
     6
176
     1
 78
     2
176
     1
 67
     7
176
     1
 79
     5
176
     1
170
     0
176
     1
171
     0
176
     1
290
     0
176
     1
 93
       13
176
     1
 44
0.0
176
     1
173
     0
176
     1
  0
VISUALSTYLE
  5
2E
102
{ACAD_REACTORS
330
2A
102
}
330
2A
100
AcDbVisualStyle
  2
GouraudWithEdges
 70
     3
177
     2
291
     1
 71
     2
176
     1
 72
     2
176
     1
 73
     1
176
     1
 90
        2
176
     1
 40
-0.6
176
     1
 41
30.0
176
     1
 62
     5
 63
     7
421
 16777215
176
     1
 74
     1
176
     1
 91
        4
176
     1
 64
     7
176
     1
 65
   257
176
     1
 75
     1
176
     1
175
     1
176
     1
 42
1.0
176
     1
 92
        0
176
     1
 66
   257
176
     1
 43
1.0
176
     1
 76
     1
176
     1
 77
     6
176
     1
 78
     2
176
     1
 67
     7
176
     1
 79
     5
176
     1
170
     0
176
     1
171
     0
176
     1
290
     0
176
     1
 93
       13
176
     1
 44
0.0
176
     1
173
     0
176
     1
  0
VISUALSTYLE
  5
373
102
{ACAD_REACTORS
330
2A
102
}
330
2A
100
AcDbVisualStyle
  2
Hidden
 70
     6
177
     2
291
     0
 71
     1
176
     1
 72
     2
176
     1
 73
     2
176
     1
 90
        0
176
     1
 40
0.6
176
     1
 41
30.0
176
     1
 62
     5
 63
     7
421
 16777215
176
     1
 74
     2
176
     1
 91
        2
176
     1
 64
     7
176
     1
 65
   257
176
     1
 75
     2
176
     1
175
     1
176
     1
 42
40.0
176
     1
 92
        0
176
     1
 66
   257
176
     1
 43
1.0
176
     1
 76
     1
176
     1
 77
     6
176
     1
 78
     2
176
     1
 67
     7
176
     1
 79
     3
176
     1
170
     0
176
     1
171
     0
176
     1
290
     0
176
     1
 93
        1
176
     1
 44
0.0
176
     1
173
     0
176
     1
  0
VISUALSTYLE
  5
374
102
{ACAD_REACTORS
330
2A
102
}
330
2A
100
AcDbVisualStyle
  2
JitterOff
 70
    20
177
     2
291
     1
 71
     2
176
     0
 72
     2
176
     0
 73
     0
176
     0
 90
        0
176
     0
 40
0.6
176
     0
 41
30.0
176
     0
 62
     5
 63
     7
421
 16777215
176
     0
 74
     1
176
     0
 91
        4
176
     0
 64
     7
176
     0
 65
   257
176
     0
 75
     1
176
     0
175
     1
176
     0
 42
1.0
176
     0
 92
       10
176
     2
 66
     7
176
     0
 43
1.0
176
     0
 76
     1
176
     0
 77
     6
176
     0
 78
     2
176
     0
 67
     7
176
     0
 79
     5
176
     0
170
     0
176
     0
171
     0
176
     0
290
     0
176
     0
 93
        1
176
     0
 44
0.0
176
     0
173
     0
176
     0
  0
VISUALSTYLE
  5
38
102
{ACAD_REACTORS
330
2A
102
}
330
2A
100
AcDbVisualStyle
  2
Linepattern
 70
    14
177
     2
291
     1
 71
     2
176
     1
 72
     2
176
     1
 73
     0
176
     1
 90
        0
176
     1
 40
-0.6
176
     1
 41
-30.0
176
     1
 62
     5
 63
     7
421
 16777215
176
     1
 74
     1
176
     1
 91
        4
176
     1
 64
     7
176
     1
 65
   257
176
     1
 75
     7
176
     1
175
     7
176
     1
 42
1.0
176
     1
 92
        8
176
     1
 66
     7
176
     1
 43
1.0
176
     1
 76
     1
176
     1
 77
     6
176
     1
 78
     2
176
     1
 67
     7
176
     1
 79
     5
176
     1
170
     0
176
     1
171
     0
176
     1
290
     0
176
     1
 93
        1
176
     1
 44
0.0
176
     1
173
     0
176
     1
  0
VISUALSTYLE
  5
375
102
{ACAD_REACTORS
330
2A
102
}
330
2A
100
AcDbVisualStyle
  2
OverhangOff
 70
    21
177
     2
291
     1
 71
     2
176
     0
 72
     2
176
     0
 73
     0
176
     0
 90
        0
176
     0
 40
0.6
176
     0
 41
30.0
176
     0
 62
     5
 63
     7
421
 16777215
176
     0
 74
     1
176
     0
 91
        4
176
     0
 64
     7
176
     0
 65
   257
176
     0
 75
     1
176
     0
175
     1
176
     0
 42
1.0
176
     0
 92
        9
176
     2
 66
     7
176
     0
 43
1.0
176
     0
 76
     1
176
     0
 77
     6
176
     0
 78
     2
176
     0
 67
     7
176
     0
 79
     5
176
     0
170
     0
176
     0
171
     0
176
     0
290
     0
176
     0
 93
        1
176
     0
 44
0.0
176
     0
173
     0
176
     0
  0
VISUALSTYLE
  5
33
102
{ACAD_REACTORS
330
2A
102
}
330
2A
100
AcDbVisualStyle
  2
Realistic
 70
     8
177
     2
291
     0
 71
     2
176
     1
 72
     2
176
     1
 73
     0
176
     1
 90
        0
176
     1
 40
-0.6
176
     1
 41
-30.0
176
     1
 62
     5
 63
     7
421
 16777215
176
     1
 74
     1
176
     1
 91
        0
176
     1
 64
     7
176
     1
 65
   257
176
     1
 75
     1
176
     1
175
     1
176
     1
 42
1.0
176
     1
 92
        8
176
     1
 66
     8
424
  7895160
176
     1
 43
1.0
176
     1
 76
     1
176
     1
 77
     6
176
     1
 78
     2
176
     1
 67
     7
176
     1
 79
     5
176
     1
170
     0
176
     1
171
     0
176
     1
290
     0
176
     1
 93
       13
176
     1
 44
0.0
176
     1
173
     0
176
     1
  0
VISUALSTYLE
  5
37B
102
{ACAD_REACTORS
330
2A
102
}
330
2A
100
AcDbVisualStyle
  2
Shaded
 70
    27
177
     2
291
     0
 71
     2
176
     1
 72
     2
176
     1
 73
     1
176
     1
 90
        2
176
     1
 40
0.6
176
     1
 41
30.0
176
     1
 62
     5
 63
     7
421
 16777215
176
     1
 74
     0
176
     1
 91
        4
176
     1
 64
     7
176
     1
 65
   257
176
     1
 75
     1
176
     1
175
     1
176
     1
 42
1.0
176
     1
 92
        8
176
     1
 66
   257
176
     1
 43
1.0
176
     1
 76
     1
176
     1
 77
     6
176
     1
 78
     2
176
     1
 67
     8
425
  7895160
176
     1
 79
     3
176
     1
170
     0
176
     1
171
     0
176
     1
290
     0
176
     1
 93
        5
176
     1
 44
0.0
176
     1
173
     0
176
     1
  0
VISUALSTYLE
  5
37A
102
{ACAD_REACTORS
330
2A
102
}
330
2A
100
AcDbVisualStyle
  2
Shaded with edges
 70
    26
177
     2
291
     0
 71
     2
176
     1
 72
     2
176
     1
 73
     1
176
     1
 90
        2
176
     1
 40
0.6
176
     1
 41
30.0
176
     1
 62
     5
 63
     7
421
 16777215
176
     1
 74
     1
176
     1
 91
       10
176
     1
 64
     7
176
     1
 65
   257
176
     1
 75
     2
176
     1
175
     1
176
     1
 42
1.0
176
     1
 92
        8
176
     1
 66
   257
176
     1
 43
1.0
176
     1
 76
     1
176
     1
 77
     6
176
     1
 78
     2
176
     1
 67
     7
176
     1
 79
     3
176
     1
170
     0
176
     1
171
     0
176
     1
290
     0
176
     1
 93
        5
176
     1
 44
0.0
176
     1
173
     0
176
     1
  0
VISUALSTYLE
  5
377
102
{ACAD_REACTORS
330
2A
102
}
330
2A
100
AcDbVisualStyle
  2
Shades of Gray
 70
    23
177
     2
291
     0
 71
     2
176
     1
 72
     2
176
     1
 73
     3
176
     1
 90
        0
176
     1
 40
0.6
176
     1
 41
30.0
176
     1
 62
     5
 63
     7
421
 16777215
176
     1
 74
     2
176
     1
 91
        2
176
     1
 64
     7
176
     1
 65
     7
176
     1
 75
     1
176
     1
175
     1
176
     1
 42
40.0
176
     1
 92
        8
176
     1
 66
     7
176
     1
 43
1.0
176
     1
 76
     1
176
     1
 77
     6
176
     1
 78
     2
176
     1
 67
     7
176
     1
 79
     3
176
     1
170
     0
176
     1
171
     0
176
     1
290
     0
176
     1
 93
        1
176
     1
 44
0.0
176
     1
173
     0
176
     1
  0
VISUALSTYLE
  5
378
102
{ACAD_REACTORS
330
2A
102
}
330
2A
100
AcDbVisualStyle
  2
Sketchy
 70
    24
177
     2
291
     0
 71
     1
176
     1
 72
     2
176
     1
 73
     2
176
     1
 90
        0
176
     1
 40
0.6
176
     1
 41
30.0
176
     1
 62
     5
 63
     7
421
 16777215
176
     1
 74
     2
176
     1
 91
        2
176
     1
 64
     7
176
     1
 65
     7
176
     1
 75
     1
176
     1
175
     1
176
     1
 42
40.0
176
     1
 92
       11
176
     1
 66
     7
176
     1
 43
1.0
176
     1
 76
     1
176
     1
 77
     6
176
     1
 78
     2
176
     1
 67
     7
176
     1
 79
     6
176
     1
170
     0
176
     1
171
     0
176
     1
290
     0
176
     1
 93
        1
176
     1
 44
0.0
176
     1
173
     0
176
     1
  0
VISUALSTYLE
  5
37
102
{ACAD_REACTORS
330
2A
102
}
330
2A
100
AcDbVisualStyle
  2
Thicken
 70
    13
177
     2
291
     1
 71
     2
176
     1
 72
     2
176
     1
 73
     0
176
     1
 90
        0
176
     1
 40
-0.6
176
     1
 41
-30.0
176
     1
 62
     5
 63
     7
421
 16777215
176
     1
 74
     1
176
     1
 91
        4
176
     1
 64
     7
176
     1
 65
   257
176
     1
 75
     1
176
     1
175
     1
176
     1
 42
1.0
176
     1
 92
       12
176
     1
 66
     7
176
     1
 43
1.0
176
     1
 76
     1
176
     1
 77
     6
176
     1
 78
     2
176
     1
 67
     7
176
     1
 79
     5
176
     1
170
     0
176
     1
171
     0
176
     1
290
     0
176
     1
 93
        1
176
     1
 44
0.0
176
     1
173
     0
176
     1
  0
VISUALSTYLE
  5
372
102
{ACAD_REACTORS
330
2A
102
}
330
2A
100
AcDbVisualStyle
  2
Wireframe
 70
     5
177
     2
291
     0
 71
     0
176
     1
 72
     2
176
     1
 73
     0
176
     1
 90
        0
176
     1
 40
0.6
176
     1
 41
30.0
176
     1
 62
     5
 63
     7
421
 16777215
176
     1
 74
     1
176
     1
 91
        4
176
     1
 64
     7
176
     1
 65
   257
176
     1
 75
     1
176
     1
175
     1
176
     1
 42
1.0
176
     1
 92
        0
176
     1
 66
   257
176
     1
 43
1.0
176
     1
 76
     1
176
     1
 77
     6
176
     1
 78
     2
176
     1
 67
     7
176
     1
 79
     3
176
     1
170
     0
176
     1
171
     0
176
     1
290
     0
176
     1
 93
        1
176
     1
 44
0.0
176
     1
173
     0
176
     1
  0
VISUALSTYLE
  5
379
102
{ACAD_REACTORS
330
2A
102
}
330
2A
100
AcDbVisualStyle
  2
X-Ray
 70
    25
177
     2
291
     0
 71
     2
176
     1
 72
     2
176
     1
 73
     1
176
     1
 90
        1
176
     1
 40
0.5
176
     1
 41
30.0
176
     1
 62
     5
 63
     7
421
 16777215
176
     1
 74
     1
176
     1
 91
        0
176
     1
 64
     7
176
     1
 65
   257
176
     1
 75
     1
176
     1
175
     1
176
     1
 42
1.0
176
     1
 92
        8
176
     1
 66
     7
176
     1
 43
1.0
176
     1
 76
     1
176
     1
 77
     6
176
     1
 78
     2
176
     1
 67
     7
176
     1
 79
     3
176
     1
170
     0
176
     1
171
     0
176
     1
290
     0
176
     1
 93
       13
176
     1
 44
0.0
176
     1
173
     0
176
     1
  0
DICTIONARYVAR
  5
385
102
{ACAD_REACTORS
330
384
102
}
330
384
100
DictionaryVariables
280
     0
  1
1:1
  0
DICTIONARYVAR
  5
387
102
{ACAD_REACTORS
330
384
102
}
330
384
100
DictionaryVariables
280
     0
  1
Standard
  0
DICTIONARYVAR
  5
386
102
{ACAD_REACTORS
330
384
102
}
330
384
100
DictionaryVariables
280
     0
  1
Standard
  0
DICTIONARYVAR
  5
388
102
{ACAD_REACTORS
330
384
102
}
330
384
100
DictionaryVariables
280
     0
  1
0
  0
DICTIONARY
  5
428
330
37C
100
AcDbDictionary
280
     1
281
     1
  3
ACAD_ROUNDTRIP_2008_TABLESTYLE_CELLSTYLEMAP
360
429
  0
CELLSTYLEMAP
  5
429
102
{ACAD_REACTORS
330
428
102
}
330
428
100
AcDbCellStyleMap
 90
        3
300
CELLSTYLE
  1
TABLEFORMAT_BEGIN
 90
        5
170
     1
 91
        0
 92
    32768
 62
   257
 93
        1
300
CONTENTFORMAT
  1
CONTENTFORMAT_BEGIN
 90
        0
 91
        0
 92
        4
 93
        0
300

 40
0.0
140
1.0
 94
        5
 62
     0
340
11
144
6.0
309
CONTENTFORMAT_END
171
     1
301
MARGIN
  1
CELLMARGIN_BEGIN
 40
1.5
 40
1.5
 40
1.5
 40
1.5
 40
1.5
 40
1.5
309
CELLMARGIN_END
 94
        6
 95
        1
302
GRIDFORMAT
  1
GRIDFORMAT_BEGIN
 90
        0
 91
        1
 62
     0
 92
       -2
340
14
 93
        0
 40
0.045
309
GRIDFORMAT_END
 95
        2
302
GRIDFORMAT
  1
GRIDFORMAT_BEGIN
 90
        0
 91
        1
 62
     0
 92
       -2
340
14
 93
        0
 40
0.045
309
GRIDFORMAT_END
 95
        4
302
GRIDFORMAT
  1
GRIDFORMAT_BEGIN
 90
        0
 91
        1
 62
     0
 92
       -2
340
14
 93
        0
 40
0.045
309
GRIDFORMAT_END
 95
        8
302
GRIDFORMAT
  1
GRIDFORMAT_BEGIN
 90
        0
 91
        1
 62
     0
 92
       -2
340
14
 93
        0
 40
0.045
309
GRIDFORMAT_END
 95
       16
302
GRIDFORMAT
  1
GRIDFORMAT_BEGIN
 90
        0
 91
        1
 62
     0
 92
       -2
340
14
 93
        0
 40
0.045
309
GRIDFORMAT_END
 95
       32
302
GRIDFORMAT
  1
GRIDFORMAT_BEGIN
 90
        0
 91
        1
 62
     0
 92
       -2
340
14
 93
        0
 40
0.045
309
GRIDFORMAT_END
309
TABLEFORMAT_END
  1
CELLSTYLE_BEGIN
 90
        1
 91
        1
300
_TITLE
309
CELLSTYLE_END
300
CELLSTYLE
  1
TABLEFORMAT_BEGIN
 90
        5
170
     1
 91
        0
 92
        0
 62
   257
 93
        1
300
CONTENTFORMAT
  1
CONTENTFORMAT_BEGIN
 90
        0
 91
        0
 92
        4
 93
        0
300

 40
0.0
140
1.0
 94
        5
 62
     0
340
11
144
4.5
309
CONTENTFORMAT_END
171
     1
301
MARGIN
  1
CELLMARGIN_BEGIN
 40
1.5
 40
1.5
 40
1.5
 40
1.5
 40
1.5
 40
1.5
309
CELLMARGIN_END
 94
        6
 95
        1
302
GRIDFORMAT
  1
GRIDFORMAT_BEGIN
 90
        0
 91
        1
 62
     0
 92
       -2
340
14
 93
        0
 40
0.045
309
GRIDFORMAT_END
 95
        2
302
GRIDFORMAT
  1
GRIDFORMAT_BEGIN
 90
        0
 91
        1
 62
     0
 92
       -2
340
14
 93
        0
 40
0.045
309
GRIDFORMAT_END
 95
        4
302
GRIDFORMAT
  1
GRIDFORMAT_BEGIN
 90
        0
 91
        1
 62
     0
 92
       -2
340
14
 93
        0
 40
0.045
309
GRIDFORMAT_END
 95
        8
302
GRIDFORMAT
  1
GRIDFORMAT_BEGIN
 90
        0
 91
        1
 62
     0
 92
       -2
340
14
 93
        0
 40
0.045
309
GRIDFORMAT_END
 95
       16
302
GRIDFORMAT
  1
GRIDFORMAT_BEGIN
 90
        0
 91
        1
 62
     0
 92
       -2
340
14
 93
        0
 40
0.045
309
GRIDFORMAT_END
 95
       32
302
GRIDFORMAT
  1
GRIDFORMAT_BEGIN
 90
        0
 91
        1
 62
     0
 92
       -2
340
14
 93
        0
 40
0.045
309
GRIDFORMAT_END
309
TABLEFORMAT_END
  1
CELLSTYLE_BEGIN
 90
        2
 91
        1
300
_HEADER
309
CELLSTYLE_END
300
CELLSTYLE
  1
TABLEFORMAT_BEGIN
 90
        5
170
     1
 91
        0
 92
        0
 62
   257
 93
        1
300
CONTENTFORMAT
  1
CONTENTFORMAT_BEGIN
 90
        0
 91
        0
 92
        4
 93
        0
300

 40
0.0
140
1.0
 94
        2
 62
     0
340
11
144
4.5
309
CONTENTFORMAT_END
171
     1
301
MARGIN
  1
CELLMARGIN_BEGIN
 40
1.5
 40
1.5
 40
1.5
 40
1.5
 40
1.5
 40
1.5
309
CELLMARGIN_END
 94
        6
 95
        1
302
GRIDFORMAT
  1
GRIDFORMAT_BEGIN
 90
        0
 91
        1
 62
     0
 92
       -2
340
14
 93
        0
 40
0.045
309
GRIDFORMAT_END
 95
        2
302
GRIDFORMAT
  1
GRIDFORMAT_BEGIN
 90
        0
 91
        1
 62
     0
 92
       -2
340
14
 93
        0
 40
0.045
309
GRIDFORMAT_END
 95
        4
302
GRIDFORMAT
  1
GRIDFORMAT_BEGIN
 90
        0
 91
        1
 62
     0
 92
       -2
340
14
 93
        0
 40
0.045
309
GRIDFORMAT_END
 95
        8
302
GRIDFORMAT
  1
GRIDFORMAT_BEGIN
 90
        0
 91
        1
 62
     0
 92
       -2
340
14
 93
        0
 40
0.045
309
GRIDFORMAT_END
 95
       16
302
GRIDFORMAT
  1
GRIDFORMAT_BEGIN
 90
        0
 91
        1
 62
     0
 92
       -2
340
14
 93
        0
 40
0.045
309
GRIDFORMAT_END
 95
       32
302
GRIDFORMAT
  1
GRIDFORMAT_BEGIN
 90
        0
 91
        1
 62
     0
 92
       -2
340
14
 93
        0
 40
0.045
309
GRIDFORMAT_END
309
TABLEFORMAT_END
  1
CELLSTYLE_BEGIN
 90
        3
 91
        2
300
_DATA
309
CELLSTYLE_END
  0
ENDSEC
  0
EOF
